%TF.GenerationSoftware,KiCad,Pcbnew,8.0.5*%
%TF.CreationDate,2024-10-24T16:43:48+01:00*%
%TF.ProjectId,V3,56332e6b-6963-4616-945f-706362585858,rev?*%
%TF.SameCoordinates,Original*%
%TF.FileFunction,Soldermask,Bot*%
%TF.FilePolarity,Negative*%
%FSLAX46Y46*%
G04 Gerber Fmt 4.6, Leading zero omitted, Abs format (unit mm)*
G04 Created by KiCad (PCBNEW 8.0.5) date 2024-10-24 16:43:48*
%MOMM*%
%LPD*%
G01*
G04 APERTURE LIST*
%ADD10C,2.800000*%
%ADD11C,4.500000*%
%ADD12C,2.000000*%
%ADD13R,1.700000X1.700000*%
%ADD14O,1.700000X1.700000*%
G04 APERTURE END LIST*
D10*
%TO.C,U17*%
X-39000000Y-23355000D03*
X-39000000Y-15735000D03*
%TD*%
%TO.C,U16*%
X-24500000Y-23355000D03*
X-24500000Y-15735000D03*
%TD*%
%TO.C,U15*%
X-10000000Y-23355000D03*
X-10000000Y-15735000D03*
%TD*%
%TO.C,U14*%
X-39000000Y25415000D03*
X-39000000Y17795000D03*
%TD*%
%TO.C,U13*%
X-24500000Y25415000D03*
X-24500000Y17795000D03*
%TD*%
%TO.C,U10*%
X-10000000Y25415000D03*
X-10000000Y17795000D03*
%TD*%
%TO.C,U9*%
X39000000Y25316500D03*
X39000000Y17696500D03*
%TD*%
%TO.C,U8*%
X24500000Y25316500D03*
X24500000Y17696500D03*
%TD*%
%TO.C,U7*%
X10000000Y25406500D03*
X10000000Y17786500D03*
%TD*%
%TO.C,U6*%
X39000000Y-23453500D03*
X39000000Y-15833500D03*
%TD*%
%TO.C,U5*%
X24500000Y-23453500D03*
X24500000Y-15833500D03*
%TD*%
%TO.C,U4*%
X10000000Y-23363500D03*
X10000000Y-15743500D03*
%TD*%
D11*
%TO.C,H1*%
X60000000Y0D03*
%TD*%
D12*
%TO.C,FID3*%
X-62450000Y-28850000D03*
%TD*%
%TO.C,FID2*%
X-62450000Y28850000D03*
%TD*%
D13*
%TO.C,J6*%
X-53380000Y26500000D03*
D14*
X-55920000Y26500000D03*
%TD*%
D13*
%TO.C,J4*%
X51550000Y5500000D03*
D14*
X54090000Y5500000D03*
X56629999Y5500000D03*
X59170000Y5500000D03*
%TD*%
D12*
%TO.C,FID4*%
X62450000Y-28850000D03*
%TD*%
D13*
%TO.C,J1*%
X-53380000Y-5500000D03*
D14*
X-55920000Y-5500000D03*
X-58459999Y-5500000D03*
X-61000000Y-5500000D03*
%TD*%
D13*
%TO.C,J2*%
X-61000000Y5500000D03*
D14*
X-58460000Y5500000D03*
X-55920001Y5500000D03*
X-53380000Y5500000D03*
%TD*%
D11*
%TO.C,H2*%
X-60000000Y0D03*
%TD*%
D13*
%TO.C,J7*%
X-55920000Y-26500000D03*
D14*
X-53380000Y-26500000D03*
%TD*%
M02*
