%TF.GenerationSoftware,KiCad,Pcbnew,8.0.5*%
%TF.CreationDate,2024-10-22T16:19:58+01:00*%
%TF.ProjectId,V3,56332e6b-6963-4616-945f-706362585858,rev?*%
%TF.SameCoordinates,Original*%
%TF.FileFunction,Copper,L2,Bot*%
%TF.FilePolarity,Positive*%
%FSLAX46Y46*%
G04 Gerber Fmt 4.6, Leading zero omitted, Abs format (unit mm)*
G04 Created by KiCad (PCBNEW 8.0.5) date 2024-10-22 16:19:58*
%MOMM*%
%LPD*%
G01*
G04 APERTURE LIST*
%TA.AperFunction,ComponentPad*%
%ADD10C,2.800000*%
%TD*%
%TA.AperFunction,ComponentPad*%
%ADD11O,1.700000X1.700000*%
%TD*%
%TA.AperFunction,ComponentPad*%
%ADD12R,1.700000X1.700000*%
%TD*%
%TA.AperFunction,ComponentPad*%
%ADD13C,4.500000*%
%TD*%
%TA.AperFunction,SMDPad,CuDef*%
%ADD14C,1.000000*%
%TD*%
%TA.AperFunction,ViaPad*%
%ADD15C,0.800000*%
%TD*%
%TA.AperFunction,Conductor*%
%ADD16C,0.500000*%
%TD*%
%TA.AperFunction,Conductor*%
%ADD17C,0.250000*%
%TD*%
G04 APERTURE END LIST*
D10*
%TO.P,U17,1*%
%TO.N,GND*%
X-41750000Y-24385000D03*
%TO.P,U17,2*%
X-41750000Y-16765000D03*
%TD*%
%TO.P,U16,1*%
%TO.N,Net-(U15-Pad1)*%
X-25350000Y-24385000D03*
%TO.P,U16,2*%
X-25350000Y-16765000D03*
%TD*%
%TO.P,U15,1*%
%TO.N,Net-(U15-Pad1)*%
X-8950000Y-24385000D03*
%TO.P,U15,2*%
X-8950000Y-16765000D03*
%TD*%
%TO.P,U14,1*%
%TO.N,Net-(U13-Pad1)*%
X-41750000Y24385000D03*
%TO.P,U14,2*%
X-41750000Y16765000D03*
%TD*%
%TO.P,U13,1*%
%TO.N,Net-(U13-Pad1)*%
X-25350000Y24385000D03*
%TO.P,U13,2*%
X-25350000Y16765000D03*
%TD*%
%TO.P,U10,1*%
%TO.N,Vin2*%
X-8950000Y24385000D03*
%TO.P,U10,2*%
X-8950000Y16765000D03*
%TD*%
%TO.P,U9,1*%
%TO.N,GND*%
X40250000Y24385000D03*
%TO.P,U9,2*%
X40250000Y16765000D03*
%TD*%
%TO.P,U8,1*%
%TO.N,Net-(U7-Pad1)*%
X23850000Y24385000D03*
%TO.P,U8,2*%
X23850000Y16765000D03*
%TD*%
%TO.P,U7,1*%
%TO.N,Net-(U7-Pad1)*%
X7450000Y24385000D03*
%TO.P,U7,2*%
X7450000Y16765000D03*
%TD*%
%TO.P,U6,1*%
%TO.N,unconnected-(U6-Pad1)*%
X40250000Y-24385000D03*
%TO.P,U6,2*%
%TO.N,Net-(U5-Pad2)*%
X40250000Y-16765000D03*
%TD*%
%TO.P,U5,1*%
%TO.N,unconnected-(U5-Pad1)*%
X23850000Y-24385000D03*
%TO.P,U5,2*%
%TO.N,Net-(U5-Pad2)*%
X23850000Y-16765000D03*
%TD*%
%TO.P,U4,1*%
%TO.N,unconnected-(U4-Pad1)*%
X7450000Y-24385000D03*
%TO.P,U4,2*%
%TO.N,Vin1*%
X7450000Y-16765000D03*
%TD*%
D11*
%TO.P,J4,4,Pin_4*%
%TO.N,SDA*%
X51750000Y-3810000D03*
%TO.P,J4,3,Pin_3*%
%TO.N,SCL*%
X51750000Y-1269999D03*
%TO.P,J4,2,Pin_2*%
%TO.N,CO2_VCC*%
X51750000Y1270000D03*
D12*
%TO.P,J4,1,Pin_1*%
%TO.N,GND*%
X51750000Y3810000D03*
%TD*%
D13*
%TO.P,H1,1,1*%
%TO.N,GND*%
X60000000Y0D03*
%TD*%
D14*
%TO.P,FID3,*%
%TO.N,*%
X-62450000Y-26400000D03*
%TD*%
%TO.P,FID2,*%
%TO.N,*%
X-62450000Y26500000D03*
%TD*%
D12*
%TO.P,J6,1,Pin_1*%
%TO.N,GND*%
X-55920000Y26500000D03*
D11*
%TO.P,J6,2,Pin_2*%
%TO.N,Vin3*%
X-58460000Y26500000D03*
%TD*%
D14*
%TO.P,FID4,*%
%TO.N,*%
X62050000Y3700000D03*
%TD*%
D12*
%TO.P,J1,1,Pin_1*%
%TO.N,GND*%
X-53380000Y-5500000D03*
D11*
%TO.P,J1,2,Pin_2*%
%TO.N,CO2_VCC*%
X-55920000Y-5500000D03*
%TO.P,J1,3,Pin_3*%
%TO.N,SCL*%
X-58459999Y-5500000D03*
%TO.P,J1,4,Pin_4*%
%TO.N,SDA*%
X-61000000Y-5500000D03*
%TD*%
D12*
%TO.P,J2,1,Pin_1*%
%TO.N,GND*%
X-61000000Y5500000D03*
D11*
%TO.P,J2,2,Pin_2*%
%TO.N,CO2_VCC*%
X-58460000Y5500000D03*
%TO.P,J2,3,Pin_3*%
%TO.N,SCL*%
X-55920001Y5500000D03*
%TO.P,J2,4,Pin_4*%
%TO.N,SDA*%
X-53380000Y5500000D03*
%TD*%
D13*
%TO.P,H2,1,1*%
%TO.N,GND*%
X-60000000Y0D03*
%TD*%
D12*
%TO.P,J7,1,Pin_1*%
%TO.N,GND*%
X-58460000Y-26500000D03*
D11*
%TO.P,J7,2,Pin_2*%
%TO.N,Vin3*%
X-55920000Y-26500000D03*
%TD*%
D15*
%TO.N,GND*%
X49550000Y-3500000D03*
X-13950000Y9000000D03*
X-3950000Y12750000D03*
X-23450000Y12000000D03*
X-38700000Y18250000D03*
X-29200000Y20500000D03*
X-23200000Y22750000D03*
X-6950000Y23000000D03*
X4550000Y17500000D03*
X27550000Y10250000D03*
X33800000Y6250000D03*
X37300000Y5000000D03*
X42300000Y-1000000D03*
X43300000Y4000000D03*
X47050000Y-1000000D03*
X47050000Y2750000D03*
X21550000Y14250000D03*
X31550000Y6250000D03*
%TO.N,DISPLAY_DC*%
X27300000Y-500000D03*
%TO.N,GND*%
X-57200000Y3500000D03*
X-53200000Y-3500000D03*
X-60950000Y3500000D03*
X-54450000Y250000D03*
X-54450000Y1750000D03*
X-54450000Y3250000D03*
X18300000Y-5250000D03*
X15050000Y-4500000D03*
X13550000Y-3250000D03*
X12800000Y-1500000D03*
X12800000Y500000D03*
X2300000Y10250000D03*
X3800000Y10000000D03*
X5550000Y10000000D03*
X12800000Y2000000D03*
X12800000Y3750000D03*
X12550000Y5500000D03*
X11300000Y6750000D03*
X8800000Y9000000D03*
X10050000Y8000000D03*
X7300000Y10000000D03*
X15300000Y9250000D03*
X10050000Y15250000D03*
X12550000Y11500000D03*
X20050000Y-2250000D03*
X18550000Y-500000D03*
X17050000Y-2500000D03*
X15550000Y-750000D03*
X20550000Y8750000D03*
X18300000Y11250000D03*
%TO.N,VDD*%
X-7200000Y386000D03*
%TO.N,TVS_IO*%
X18800000Y21250000D03*
%TO.N,+BATT*%
X-9700000Y2250000D03*
X-7950000Y-3248841D03*
%TO.N,TVS_RST*%
X12050000Y22750000D03*
%TO.N,SIM_VCC*%
X14275000Y10750000D03*
%TO.N,TVS_CLK*%
X18800000Y23250000D03*
X3550000Y23250000D03*
%TO.N,TVS_RST*%
X-950000Y23250000D03*
%TO.N,TVS_IO*%
X650002Y20350002D03*
%TO.N,GSM_PWR*%
X-450000Y12750000D03*
%TO.N,VDD*%
X-4450000Y21000000D03*
%TO.N,GSM_VCC*%
X-4400000Y26500000D03*
%TO.N,GND*%
X2050000Y20949999D03*
%TO.N,SIM_VCC*%
X14275000Y2975000D03*
%TO.N,DISPLAY_DC*%
X59820000Y-8870000D03*
X56100000Y-27680000D03*
X-36450000Y-26700000D03*
X-42050000Y7200000D03*
%TO.N,DISPLAY_MOSI*%
X-37800000Y-22950000D03*
X-42650000Y4700000D03*
%TO.N,+BATT*%
X7345600Y7100000D03*
X4695600Y8500000D03*
X-13050000Y-21300000D03*
X-19350000Y-21300000D03*
X-16350000Y-21300000D03*
%TO.N,SCL*%
X46555000Y-9605000D03*
X-31100000Y15100000D03*
%TO.N,SDA*%
X42900000Y-10500000D03*
X-34188001Y18350000D03*
%TO.N,CO2_PWR*%
X-32600000Y-19800000D03*
X56800000Y-17250000D03*
%TO.N,GSM_PWR*%
X49930000Y-11040000D03*
%TO.N,MCU_3V3*%
X-28050000Y-21706250D03*
X54480000Y-27170000D03*
%TO.N,DISPLAY_SCK*%
X-38650000Y5100000D03*
X-35500000Y-22050000D03*
%TO.N,CO2_VCC*%
X-41650000Y-4800000D03*
X-37350000Y17000000D03*
X-37350000Y15000000D03*
X-41850000Y3600000D03*
%TO.N,GSM_VCC*%
X29550000Y25800000D03*
%TO.N,Net-(ANT1-FEED_(50_OHM))*%
X53603851Y14043225D03*
X50783000Y11400000D03*
%TO.N,DISPLAY_RST*%
X62300000Y-9250000D03*
X28799999Y-5950000D03*
X-38650000Y6300000D03*
%TO.N,DISPLAY_BUSY*%
X-33200000Y-26650000D03*
X-38650000Y7500000D03*
%TO.N,GND*%
X-22750000Y-22200000D03*
X-16350000Y-1600000D03*
X7145600Y2300000D03*
X4645600Y7250000D03*
X42300000Y10150000D03*
X-38950000Y-6000000D03*
X49650000Y6700000D03*
X720400Y9847000D03*
X-27060000Y27570000D03*
X-12350000Y-11800000D03*
X-100000Y-25500000D03*
X63150000Y-29020000D03*
X7145600Y200000D03*
X-51160000Y-25440000D03*
X10050000Y-17700000D03*
X21250000Y-17700000D03*
X4945600Y200000D03*
X-7150000Y-7400000D03*
X1850000Y-6800000D03*
X-38950000Y-9400000D03*
X-5950000Y-5800000D03*
X49583000Y13984600D03*
X-50800000Y27350000D03*
X36550000Y11050000D03*
X-2350000Y-25500000D03*
X58583000Y5234600D03*
X15050000Y-9000000D03*
X19050000Y-17700000D03*
X-3570000Y-29600000D03*
X15650000Y-17600000D03*
X-33050000Y-2200000D03*
X10050000Y-23500000D03*
X63083000Y5234600D03*
X-40950000Y13700000D03*
X31000000Y11000000D03*
X-60140000Y-29570000D03*
X29350000Y-17800000D03*
X-30350000Y-29570000D03*
X2150000Y-25450000D03*
X21350000Y-23500000D03*
X45660000Y12530000D03*
X-11580000Y27600000D03*
X23450000Y-11400000D03*
X-4779600Y7347000D03*
X32100000Y-20700000D03*
X-2350000Y-15450000D03*
X40810000Y12470000D03*
X8600000Y-29580000D03*
X15650000Y-23500000D03*
X4550000Y-15600000D03*
X-5350000Y-12400000D03*
X-4600000Y-20550000D03*
X-33050000Y5100000D03*
X38050000Y-17800000D03*
X49150000Y10200000D03*
X12050000Y19500000D03*
X-4779600Y4347000D03*
X-41720000Y-13000000D03*
X26650000Y27590000D03*
X23450000Y-9200000D03*
X40950000Y-20650000D03*
X46400000Y10150000D03*
X36650000Y22000000D03*
X27850000Y19500000D03*
X54100000Y5250000D03*
X-42850000Y10900000D03*
X-16750000Y5000000D03*
X61583000Y5234600D03*
X15050000Y-13400000D03*
X220400Y-1653000D03*
X2745600Y200000D03*
X-4600000Y-23100000D03*
X-4700000Y-15450000D03*
X150000Y-4800000D03*
X-32350000Y10400000D03*
X43100000Y24350000D03*
X-15920000Y27590000D03*
X4470000Y-29580000D03*
X-22810000Y27570000D03*
X7145600Y1300000D03*
X49650000Y9150000D03*
X-18550000Y14500000D03*
X59790000Y-21100000D03*
X32050000Y-13400000D03*
X32050000Y-17800000D03*
X37780000Y9280000D03*
X37770000Y10740000D03*
X1720400Y-1653000D03*
X38280000Y27580000D03*
X-1350000Y-6800000D03*
X-11610000Y-29580000D03*
X32150000Y11000000D03*
X-32450000Y-21300000D03*
X3845600Y1300000D03*
X-38950000Y-12500000D03*
X15050000Y-6600000D03*
X-43200000Y27590000D03*
X29250000Y-23500000D03*
X-15330000Y-29570000D03*
X-33050000Y-5900000D03*
X16150000Y-20700000D03*
X45050000Y10150000D03*
X8880000Y27590000D03*
X-30750000Y12300000D03*
X-23020000Y-29570000D03*
X7100000Y-20650000D03*
X32050000Y-23500000D03*
X-43960000Y-29580000D03*
X-49230000Y-8190000D03*
X55600000Y5250000D03*
X42530000Y-29550000D03*
X-3750000Y-10800000D03*
X-32650000Y-18100000D03*
X2745600Y1300000D03*
X-11350000Y-3200000D03*
X-43350000Y-21000000D03*
X-3490000Y27600000D03*
X-12950000Y-4800000D03*
X5110000Y27590000D03*
X49650000Y5250000D03*
X-37120000Y-29580000D03*
X43150000Y16810000D03*
X-779600Y9847000D03*
X0Y-15500000D03*
X42330000Y12480000D03*
X-23750000Y-9400000D03*
X-40480000Y-29560000D03*
X43250000Y-22600000D03*
X22050000Y-20650000D03*
X-42550000Y6100000D03*
X5750000Y-4600000D03*
X33390000Y-29580000D03*
X-49100000Y10000000D03*
X-37750000Y23000000D03*
X4945600Y2300000D03*
X-2054400Y8600000D03*
X46100000Y-18950000D03*
X63170000Y-1970000D03*
X-41750000Y-18900000D03*
X945600Y7290000D03*
X-1279600Y-1653000D03*
X-2779600Y-1653000D03*
X-20950000Y6200000D03*
X-49070000Y18320000D03*
X2745600Y2300000D03*
X-40450000Y-21000000D03*
X47850000Y-13400000D03*
X-7780000Y27600000D03*
X2050000Y-15500000D03*
X-29350000Y23000000D03*
X-4600000Y-18300000D03*
X63180000Y-26110000D03*
X-19290000Y-29590000D03*
X6045600Y2300000D03*
X-17350000Y-9200000D03*
X47550000Y12550000D03*
X10150000Y-20700000D03*
X7650000Y-13400000D03*
X-8750000Y-9200000D03*
X63190000Y-21160000D03*
X29830000Y-29580000D03*
X49120000Y12580000D03*
X63160000Y-30000D03*
X37250000Y2000000D03*
X32650000Y27590000D03*
X-11950000Y14500000D03*
X14050000Y22500000D03*
X-33050000Y1400000D03*
X-54150000Y-29580000D03*
X12750000Y-23500000D03*
X-26890000Y-29560000D03*
X26450000Y-23500000D03*
X-4779600Y1347000D03*
X-2350000Y-9000000D03*
X36650000Y24600000D03*
X19050000Y-20700000D03*
X1850000Y-9200000D03*
X43350000Y-17400000D03*
X53250000Y-13600000D03*
X-14750000Y200000D03*
X7650000Y-11400000D03*
X1100000Y27580000D03*
X-32650000Y-16800000D03*
X46050000Y-20950000D03*
X-39540000Y27590000D03*
X-4779600Y5847000D03*
X19960000Y-29570000D03*
X4550000Y19000000D03*
X-7510000Y-29580000D03*
X-11450000Y23100000D03*
X37950000Y-20650000D03*
X49583000Y22984600D03*
X44100000Y27570000D03*
X-49030000Y-15500000D03*
X12360000Y-29590000D03*
X19050000Y-23500000D03*
X3845600Y200000D03*
X-60850000Y-25500000D03*
X6045600Y200000D03*
X-19750000Y2200000D03*
X-56950000Y-29590000D03*
X-49100000Y13740000D03*
X3845600Y2300000D03*
X-51200000Y-5500000D03*
X-4779600Y2847000D03*
X24900000Y-29590000D03*
X-62880000Y-28480000D03*
X-35690000Y27590000D03*
X28600000Y-20650000D03*
X-4600000Y-25550000D03*
X49583000Y18484600D03*
X-34080000Y-29560000D03*
X-32950000Y-12000000D03*
X-32950000Y-9000000D03*
X6045600Y1300000D03*
X53250000Y-19200000D03*
X-42850000Y-3400000D03*
X4450000Y-20650000D03*
X-32950000Y8500000D03*
X1850000Y-11400000D03*
X15050000Y-11400000D03*
X58050000Y-29570000D03*
X49583000Y15484600D03*
X-4779600Y-1653000D03*
X57083000Y5234600D03*
X4550000Y-25500000D03*
X-3779600Y9847000D03*
X63160000Y1980000D03*
X-13350000Y1600000D03*
X26450000Y-17800000D03*
X52320000Y-29580000D03*
X-39080000Y-24390000D03*
X-18350000Y3600000D03*
X-49060000Y-11550000D03*
X36750000Y19400000D03*
X-49140000Y-24140000D03*
X15650000Y25700000D03*
X-19550000Y7800000D03*
X-4779600Y8847000D03*
X0Y-29580000D03*
X39380000Y12490000D03*
X49583000Y19984600D03*
X7650000Y-9000000D03*
X49583000Y25984600D03*
X15820000Y-29590000D03*
X-22350000Y4800000D03*
X-19550000Y-4600000D03*
X35350000Y11000000D03*
X-49070000Y22420000D03*
X34950000Y-17800000D03*
X49583000Y27484600D03*
X21050000Y5000000D03*
X49583000Y16984600D03*
X7650000Y-6800000D03*
X47020000Y-29570000D03*
X60083000Y5234600D03*
X18800000Y18750000D03*
X-31560000Y27570000D03*
X-19470000Y27590000D03*
X-16350000Y-22350000D03*
X-2279600Y9847000D03*
X-26450000Y-7100000D03*
X38050000Y-23500000D03*
X37800000Y12110000D03*
X-44250000Y-24600000D03*
X-51170000Y-29580000D03*
X49650000Y8000000D03*
X43700000Y10150000D03*
X63180000Y-4510000D03*
X27850000Y22100000D03*
X37900000Y-29590000D03*
X60850000Y-29570000D03*
X44950000Y-17650000D03*
X24450000Y12900000D03*
X12850000Y-17700000D03*
X-47200000Y27570000D03*
X-33050000Y3200000D03*
X-17550000Y23100000D03*
X25550000Y-20650000D03*
X-40450000Y-3400000D03*
X49583000Y21484600D03*
X35050000Y-23500000D03*
X35150000Y-20700000D03*
X23450000Y-13400000D03*
X-48200000Y-29580000D03*
X-42850000Y600000D03*
X4945600Y1300000D03*
X-49080000Y-19320000D03*
X47850000Y10150000D03*
X27850000Y16800000D03*
X-9750000Y-1600000D03*
X13050000Y-20700000D03*
X-20350000Y-12800000D03*
X15680000Y27580000D03*
X44050000Y12480000D03*
%TO.N,USB_5V*%
X60431909Y-25811282D03*
X-17350000Y-23500000D03*
%TO.N,Vin3*%
X-44050000Y12000000D03*
X-50650000Y25700000D03*
%TD*%
D16*
%TO.N,GND*%
X51750000Y5190000D02*
X51770000Y5210000D01*
X51750000Y3810000D02*
X51750000Y5190000D01*
X51770000Y5210000D02*
X51730000Y5250000D01*
X51730000Y5250000D02*
X49650000Y5250000D01*
%TO.N,CO2_VCC*%
X43030000Y1270000D02*
X51750000Y1270000D01*
%TO.N,GND*%
X60000000Y0D02*
X63130000Y0D01*
X63130000Y0D02*
X63160000Y-30000D01*
%TO.N,CO2_VCC*%
X-40175000Y10475000D02*
X-45075000Y15375000D01*
X-45075000Y15375000D02*
X-45075000Y25125000D01*
X-45075000Y25125000D02*
X-43700000Y26500000D01*
X19150000Y13900000D02*
X25050000Y8000000D01*
X-43700000Y26500000D02*
X-7200000Y26500000D01*
X-7200000Y26500000D02*
X5400000Y13900000D01*
X5400000Y13900000D02*
X19150000Y13900000D01*
X25050000Y8000000D02*
X36300000Y8000000D01*
X36300000Y8000000D02*
X43030000Y1270000D01*
%TO.N,Net-(U13-Pad1)*%
X-25350000Y24385000D02*
X-41750000Y24385000D01*
X-41750000Y16765000D02*
X-41750000Y24385000D01*
X-25350000Y16765000D02*
X-25350000Y24385000D01*
%TO.N,CO2_VCC*%
X-43300000Y7350000D02*
X-40175000Y10475000D01*
X-40175000Y10475000D02*
X-37350000Y13300000D01*
%TO.N,Vin3*%
X-44050000Y12000000D02*
X-44050000Y12100000D01*
X-44050000Y12100000D02*
X-46700000Y14750000D01*
X-46700000Y14750000D02*
X-46700000Y21750000D01*
X-46700000Y21750000D02*
X-50650000Y25700000D01*
D17*
%TO.N,DISPLAY_RST*%
X62300000Y-9250000D02*
X62300000Y-8520000D01*
X-35050000Y-20000000D02*
X-35050000Y2700000D01*
X-34350000Y-27000000D02*
X-34350000Y-20700000D01*
X-32620000Y-28730000D02*
X-34350000Y-27000000D01*
X60350000Y-28730000D02*
X-32620000Y-28730000D01*
X62300000Y-26780000D02*
X60350000Y-28730000D01*
X62300000Y-9250000D02*
X62300000Y-26780000D01*
X-35050000Y2700000D02*
X-38650000Y6300000D01*
X-34350000Y-20700000D02*
X-35050000Y-20000000D01*
X62300000Y-8520000D02*
X59780000Y-6000000D01*
X59780000Y-6000000D02*
X28849999Y-6000000D01*
X28849999Y-6000000D02*
X28799999Y-5950000D01*
%TO.N,DISPLAY_DC*%
X59820000Y-8870000D02*
X58200000Y-7250000D01*
X58200000Y-7250000D02*
X27800000Y-7250000D01*
X27800000Y-7250000D02*
X27300000Y-6750000D01*
X27300000Y-6750000D02*
X27300000Y-500000D01*
%TO.N,GSM_PWR*%
X-450000Y12750000D02*
X14550000Y12750000D01*
X16300000Y250000D02*
X25050000Y-8500000D01*
X14550000Y12750000D02*
X16300000Y11000000D01*
X16300000Y11000000D02*
X16300000Y250000D01*
X47390000Y-8500000D02*
X49930000Y-11040000D01*
X25050000Y-8500000D02*
X47390000Y-8500000D01*
%TO.N,CO2_PWR*%
X-12440000Y-19850000D02*
X-32550000Y-19850000D01*
X-11510000Y-25490000D02*
X-11510000Y-20780000D01*
X-32550000Y-19850000D02*
X-32600000Y-19800000D01*
X-11510000Y-20780000D02*
X-12440000Y-19850000D01*
X57400000Y-21400000D02*
X52100000Y-26700000D01*
X57400000Y-17850000D02*
X57400000Y-21400000D01*
X-10300000Y-26700000D02*
X-11510000Y-25490000D01*
X56800000Y-17250000D02*
X57400000Y-17850000D01*
X52100000Y-26700000D02*
X-10300000Y-26700000D01*
D16*
%TO.N,CO2_VCC*%
X-57950000Y7250000D02*
X-58450000Y7750000D01*
X-58450000Y7750000D02*
X-62200000Y7750000D01*
X-62200000Y7750000D02*
X-63200000Y6750000D01*
X-63200000Y6750000D02*
X-63200000Y-6500000D01*
X-63200000Y-6500000D02*
X-62200000Y-7500000D01*
X-62200000Y-7500000D02*
X-57920000Y-7500000D01*
X-57920000Y-7500000D02*
X-55920000Y-5500000D01*
X-46950000Y7250000D02*
X-47450000Y7750000D01*
X-47450000Y7750000D02*
X-57450000Y7750000D01*
X-57450000Y7750000D02*
X-57950000Y7250000D01*
%TO.N,GND*%
X-61000000Y5500000D02*
X-61000000Y3550000D01*
X-61000000Y3550000D02*
X-60950000Y3500000D01*
X-53380000Y-5500000D02*
X-53380000Y-3680000D01*
X-53380000Y-3680000D02*
X-53200000Y-3500000D01*
X-53380000Y-5500000D02*
X-51200000Y-5500000D01*
D17*
%TO.N,SDA*%
X-61000000Y-5500000D02*
X-61000000Y-3800000D01*
X-61000000Y-3800000D02*
X-60700000Y-3500000D01*
X-60700000Y-3500000D02*
X-56200000Y-3500000D01*
X-56200000Y-3500000D02*
X-53380000Y-680000D01*
X-53380000Y-680000D02*
X-53380000Y5500000D01*
D16*
%TO.N,CO2_VCC*%
X-46950000Y7250000D02*
X-43400000Y7250000D01*
X-43950000Y6700000D02*
X-43300000Y7350000D01*
X-43400000Y7250000D02*
X-43300000Y7350000D01*
X-57950000Y7250000D02*
X-58575000Y6625000D01*
X-58575000Y6625000D02*
X-58575000Y5615000D01*
%TO.N,Net-(U7-Pad1)*%
X23850000Y16765000D02*
X7450000Y16765000D01*
%TO.N,VDD*%
X-7200000Y386000D02*
X-7200000Y13250000D01*
X-7200000Y13250000D02*
X-4450000Y16000000D01*
X-4450000Y16000000D02*
X-4450000Y21000000D01*
%TO.N,+BATT*%
X-9700000Y2250000D02*
X-9700000Y1000000D01*
X-9700000Y1000000D02*
X-7950000Y-750000D01*
X-7950000Y-750000D02*
X-7950000Y-3248841D01*
D17*
%TO.N,TVS_RST*%
X11300000Y22000000D02*
X6300000Y22000000D01*
X12050000Y22750000D02*
X11300000Y22000000D01*
X6300000Y22000000D02*
X4050000Y24250000D01*
X4050000Y24250000D02*
X50000Y24250000D01*
X50000Y24250000D02*
X-950000Y23250000D01*
%TO.N,TVS_CLK*%
X3550000Y23250000D02*
X3550000Y23000000D01*
X3550000Y23000000D02*
X5550000Y21000000D01*
X5550000Y21000000D02*
X16550000Y21000000D01*
X16550000Y21000000D02*
X18800000Y23250000D01*
%TO.N,TVS_IO*%
X17774999Y20224999D02*
X18800000Y21250000D01*
X775005Y20224999D02*
X17774999Y20224999D01*
X650002Y20350002D02*
X775005Y20224999D01*
%TO.N,SIM_VCC*%
X14275000Y10750000D02*
X14275000Y2975000D01*
D16*
%TO.N,GSM_VCC*%
X29550000Y25800000D02*
X28760000Y26590000D01*
X28760000Y26590000D02*
X-4310000Y26590000D01*
X-4310000Y26590000D02*
X-4400000Y26500000D01*
D17*
%TO.N,DISPLAY_DC*%
X-36800000Y1950000D02*
X-42050000Y7200000D01*
X-36800000Y-26350000D02*
X-36800000Y1950000D01*
X-36450000Y-26700000D02*
X-36800000Y-26350000D01*
X60280000Y-27680000D02*
X61260000Y-26700000D01*
X61260000Y-26700000D02*
X61260000Y-10310000D01*
X61260000Y-10310000D02*
X59820000Y-8870000D01*
X56100000Y-27680000D02*
X60280000Y-27680000D01*
%TO.N,DISPLAY_MOSI*%
X-37700000Y1150000D02*
X-41250000Y4700000D01*
X-41250000Y4700000D02*
X-42650000Y4700000D01*
X-37800000Y-22950000D02*
X-37700000Y-22850000D01*
X-37700000Y-22850000D02*
X-37700000Y1150000D01*
%TO.N,+BATT*%
X4695600Y8500000D02*
X5945600Y8500000D01*
X5945600Y8500000D02*
X7345600Y7100000D01*
D16*
X-13050000Y-21300000D02*
X-16350000Y-21300000D01*
X-16350000Y-21300000D02*
X-19350000Y-21300000D01*
D17*
%TO.N,SCL*%
X-3600000Y-12400000D02*
X-31100000Y15100000D01*
X43760000Y-12400000D02*
X-3600000Y-12400000D01*
X46555000Y-9605000D02*
X43760000Y-12400000D01*
%TO.N,SDA*%
X-31550000Y18350000D02*
X-34188001Y18350000D01*
X42900000Y-10500000D02*
X-2700000Y-10500000D01*
X-2700000Y-10500000D02*
X-31550000Y18350000D01*
D16*
%TO.N,MCU_3V3*%
X-28050000Y-21706250D02*
X-28050000Y-25800000D01*
X53540000Y-28110000D02*
X54480000Y-27170000D01*
X-25740000Y-28110000D02*
X53540000Y-28110000D01*
X-28050000Y-25800000D02*
X-25740000Y-28110000D01*
D17*
%TO.N,DISPLAY_SCK*%
X-35900000Y-21650000D02*
X-35900000Y2350000D01*
X-35500000Y-22050000D02*
X-35900000Y-21650000D01*
X-35900000Y2350000D02*
X-38650000Y5100000D01*
D16*
%TO.N,CO2_VCC*%
X-37350000Y13300000D02*
X-37350000Y15000000D01*
X-43950000Y4300000D02*
X-43950000Y6700000D01*
X-37350000Y15000000D02*
X-37350000Y17000000D01*
X-41650000Y-4800000D02*
X-41650000Y3400000D01*
X-41650000Y3400000D02*
X-41850000Y3600000D01*
X-43250000Y3600000D02*
X-43950000Y4300000D01*
X-41850000Y3600000D02*
X-43250000Y3600000D01*
D17*
%TO.N,DISPLAY_BUSY*%
X-33650000Y-20050000D02*
X-34200000Y-19500000D01*
X-34200000Y3050000D02*
X-38650000Y7500000D01*
X-33200000Y-26650000D02*
X-33650000Y-26200000D01*
X-33650000Y-26200000D02*
X-33650000Y-20050000D01*
X-34200000Y-19500000D02*
X-34200000Y3050000D01*
D16*
%TO.N,GND*%
X-51200000Y27350000D02*
X-52050000Y26500000D01*
X-2454400Y10021800D02*
X-2279600Y9847000D01*
X43105000Y16765000D02*
X43150000Y16810000D01*
X40250000Y16765000D02*
X40250000Y24385000D01*
X-50800000Y27350000D02*
X-51200000Y27350000D01*
X40250000Y16765000D02*
X43105000Y16765000D01*
X-52050000Y26500000D02*
X-55920000Y26500000D01*
%TO.N,USB_5V*%
X-17350000Y-23600000D02*
X-17350000Y-23500000D01*
X60393191Y-25850000D02*
X54100000Y-25850000D01*
X60431909Y-25811282D02*
X60393191Y-25850000D01*
X54100000Y-25850000D02*
X52620000Y-27330000D01*
X52620000Y-27330000D02*
X-13620000Y-27330000D01*
X-13620000Y-27330000D02*
X-17350000Y-23600000D01*
%TO.N,Vin2*%
X-8950000Y24385000D02*
X-8950000Y16765000D01*
%TO.N,Net-(U7-Pad1)*%
X23850000Y24385000D02*
X23850000Y16765000D01*
X7450000Y24385000D02*
X23850000Y24385000D01*
%TD*%
%TA.AperFunction,Conductor*%
%TO.N,GND*%
G36*
X49564687Y27979538D02*
G01*
X49595431Y27955973D01*
X50008775Y27543527D01*
X50047412Y27476775D01*
X50052530Y27438384D01*
X50058958Y24488163D01*
X50074690Y17266494D01*
X50068656Y17224195D01*
X50056875Y17184070D01*
X50044500Y17098010D01*
X50044500Y11024005D01*
X50044501Y11023985D01*
X50051480Y10959071D01*
X50051481Y10959061D01*
X50062689Y10907542D01*
X50062691Y10907535D01*
X50073645Y10869343D01*
X50076763Y10862055D01*
X50088770Y10803780D01*
X50097492Y6801195D01*
X50100000Y5650000D01*
X62988282Y5650000D01*
X63062782Y5630038D01*
X63093641Y5606359D01*
X63555859Y5144141D01*
X63594423Y5077346D01*
X63599500Y5038782D01*
X63599500Y-29388782D01*
X63579538Y-29463282D01*
X63555859Y-29494141D01*
X63094141Y-29955859D01*
X63027346Y-29994423D01*
X62988782Y-29999500D01*
X-62987468Y-29999500D01*
X-63061968Y-29979538D01*
X-63092746Y-29955940D01*
X-63555778Y-29493617D01*
X-63594393Y-29426851D01*
X-63599500Y-29388177D01*
X-63599500Y-26966694D01*
X-63579538Y-26892194D01*
X-63525000Y-26837656D01*
X-63450500Y-26817694D01*
X-63376000Y-26837656D01*
X-63321462Y-26892194D01*
X-63319107Y-26896430D01*
X-63285910Y-26958538D01*
X-63160883Y-27110883D01*
X-63008538Y-27235910D01*
X-62834727Y-27328814D01*
X-62646132Y-27386024D01*
X-62450000Y-27405341D01*
X-62253868Y-27386024D01*
X-62065273Y-27328814D01*
X-62065270Y-27328812D01*
X-62065268Y-27328812D01*
X-61891473Y-27235916D01*
X-61891471Y-27235915D01*
X-61891462Y-27235910D01*
X-61739117Y-27110883D01*
X-61614090Y-26958538D01*
X-61614087Y-26958532D01*
X-61614083Y-26958526D01*
X-61521187Y-26784731D01*
X-61463976Y-26596134D01*
X-61444659Y-26400000D01*
X-61463976Y-26203865D01*
X-61521187Y-26015268D01*
X-61614083Y-25841473D01*
X-61614088Y-25841465D01*
X-61616784Y-25838180D01*
X-61739117Y-25689117D01*
X-61841365Y-25605204D01*
X-59609999Y-25605204D01*
X-59609999Y-27394794D01*
X-59607090Y-27419874D01*
X-59561787Y-27522477D01*
X-59561787Y-27522478D01*
X-59482478Y-27601786D01*
X-59379871Y-27647091D01*
X-59354795Y-27649999D01*
X-57565205Y-27649999D01*
X-57540125Y-27647090D01*
X-57437522Y-27601787D01*
X-57358213Y-27522478D01*
X-57312908Y-27419871D01*
X-57310000Y-27394795D01*
X-57310000Y-26886878D01*
X-57290038Y-26812378D01*
X-57235500Y-26757840D01*
X-57161000Y-26737878D01*
X-57086500Y-26757840D01*
X-57031962Y-26812378D01*
X-57017688Y-26846100D01*
X-56997405Y-26917389D01*
X-56902366Y-27108255D01*
X-56773872Y-27278407D01*
X-56616302Y-27422052D01*
X-56435019Y-27534298D01*
X-56236198Y-27611321D01*
X-56026610Y-27650500D01*
X-56026607Y-27650500D01*
X-55813393Y-27650500D01*
X-55813390Y-27650500D01*
X-55603802Y-27611321D01*
X-55418507Y-27539538D01*
X-55404983Y-27534299D01*
X-55404977Y-27534296D01*
X-55223698Y-27422052D01*
X-55223697Y-27422051D01*
X-55184177Y-27386024D01*
X-55066128Y-27278407D01*
X-55032999Y-27234538D01*
X-54937636Y-27108259D01*
X-54842594Y-26917387D01*
X-54842593Y-26917385D01*
X-54797199Y-26757840D01*
X-54784244Y-26712310D01*
X-54784243Y-26712307D01*
X-54784243Y-26712305D01*
X-54764571Y-26500004D01*
X-54764571Y-26499995D01*
X-54784243Y-26287694D01*
X-54789442Y-26269423D01*
X-54803478Y-26220091D01*
X-54842593Y-26082614D01*
X-54842594Y-26082612D01*
X-54937636Y-25891740D01*
X-55066127Y-25721593D01*
X-55223697Y-25577948D01*
X-55223698Y-25577947D01*
X-55404977Y-25465703D01*
X-55404983Y-25465700D01*
X-55603795Y-25388681D01*
X-55603802Y-25388679D01*
X-55813385Y-25349500D01*
X-55813390Y-25349500D01*
X-56026610Y-25349500D01*
X-56026614Y-25349500D01*
X-56194280Y-25380843D01*
X-56236198Y-25388679D01*
X-56236200Y-25388680D01*
X-56236204Y-25388681D01*
X-56435016Y-25465700D01*
X-56435022Y-25465703D01*
X-56616301Y-25577947D01*
X-56616302Y-25577948D01*
X-56773872Y-25721593D01*
X-56902363Y-25891740D01*
X-56902364Y-25891743D01*
X-56902366Y-25891745D01*
X-56997405Y-26082611D01*
X-56997405Y-26082612D01*
X-56997407Y-26082616D01*
X-57017688Y-26153898D01*
X-57057275Y-26220091D01*
X-57124656Y-26257623D01*
X-57201775Y-26256435D01*
X-57267968Y-26216848D01*
X-57305500Y-26149467D01*
X-57310000Y-26113123D01*
X-57310000Y-25605205D01*
X-57312909Y-25580125D01*
X-57358212Y-25477522D01*
X-57437522Y-25398213D01*
X-57437521Y-25398213D01*
X-57540128Y-25352908D01*
X-57565204Y-25350000D01*
X-59354794Y-25350000D01*
X-59379874Y-25352909D01*
X-59482477Y-25398212D01*
X-59561786Y-25477521D01*
X-59607091Y-25580128D01*
X-59609999Y-25605204D01*
X-61841365Y-25605204D01*
X-61891462Y-25564090D01*
X-61891463Y-25564089D01*
X-61891465Y-25564088D01*
X-61891473Y-25564083D01*
X-62065268Y-25471187D01*
X-62253865Y-25413976D01*
X-62450000Y-25394659D01*
X-62646134Y-25413976D01*
X-62834731Y-25471187D01*
X-63008526Y-25564083D01*
X-63008532Y-25564087D01*
X-63008538Y-25564090D01*
X-63160883Y-25689117D01*
X-63285910Y-25841462D01*
X-63285915Y-25841471D01*
X-63285916Y-25841473D01*
X-63319094Y-25903543D01*
X-63371818Y-25959836D01*
X-63445625Y-25982225D01*
X-63520738Y-25964711D01*
X-63577031Y-25911987D01*
X-63599420Y-25838180D01*
X-63599500Y-25833305D01*
X-63599500Y-25211216D01*
X-63579538Y-25136716D01*
X-63555859Y-25105857D01*
X-63494143Y-25044141D01*
X-63427348Y-25005577D01*
X-63388784Y-25000500D01*
X-50892687Y-25000500D01*
X-50892683Y-25000500D01*
X-50892672Y-25000498D01*
X-50892668Y-25000498D01*
X-50680235Y-24969956D01*
X-50680226Y-24969954D01*
X-50598143Y-24945851D01*
X-50474290Y-24909485D01*
X-50474288Y-24909484D01*
X-50474287Y-24909484D01*
X-50376670Y-24864903D01*
X-50279050Y-24820322D01*
X-50098487Y-24704281D01*
X-49936276Y-24563724D01*
X-49795719Y-24401513D01*
X-49785104Y-24384995D01*
X-43454767Y-24384995D01*
X-43454767Y-24385004D01*
X-43435727Y-24639070D01*
X-43435724Y-24639092D01*
X-43379031Y-24887481D01*
X-43379029Y-24887488D01*
X-43285943Y-25124666D01*
X-43285941Y-25124671D01*
X-43158545Y-25345326D01*
X-43158540Y-25345334D01*
X-42999683Y-25544536D01*
X-42812904Y-25717841D01*
X-42602381Y-25861372D01*
X-42372830Y-25971918D01*
X-42372809Y-25971926D01*
X-42129351Y-26047023D01*
X-42129347Y-26047024D01*
X-41877400Y-26084999D01*
X-41877394Y-26085000D01*
X-41622606Y-26085000D01*
X-41622599Y-26084999D01*
X-41370652Y-26047024D01*
X-41370648Y-26047023D01*
X-41127187Y-25971925D01*
X-41127182Y-25971924D01*
X-40897622Y-25861375D01*
X-40687092Y-25717838D01*
X-40500316Y-25544536D01*
X-40341459Y-25345334D01*
X-40341454Y-25345326D01*
X-40214058Y-25124671D01*
X-40214056Y-25124666D01*
X-40120970Y-24887488D01*
X-40120968Y-24887481D01*
X-40064275Y-24639092D01*
X-40064272Y-24639070D01*
X-40045233Y-24385004D01*
X-40045233Y-24384995D01*
X-40064272Y-24130929D01*
X-40064275Y-24130907D01*
X-40120968Y-23882518D01*
X-40120970Y-23882511D01*
X-40214056Y-23645333D01*
X-40214058Y-23645328D01*
X-40341454Y-23424673D01*
X-40341459Y-23424665D01*
X-40500316Y-23225463D01*
X-40687092Y-23052161D01*
X-40897622Y-22908624D01*
X-41127182Y-22798075D01*
X-41127187Y-22798074D01*
X-41370648Y-22722976D01*
X-41370652Y-22722975D01*
X-41622599Y-22685000D01*
X-41877400Y-22685000D01*
X-42129347Y-22722975D01*
X-42129351Y-22722976D01*
X-42372809Y-22798073D01*
X-42372830Y-22798081D01*
X-42602381Y-22908627D01*
X-42812904Y-23052158D01*
X-42999683Y-23225463D01*
X-43158540Y-23424665D01*
X-43158545Y-23424673D01*
X-43285941Y-23645328D01*
X-43285943Y-23645333D01*
X-43379029Y-23882511D01*
X-43379031Y-23882518D01*
X-43435724Y-24130907D01*
X-43435727Y-24130929D01*
X-43454767Y-24384995D01*
X-49785104Y-24384995D01*
X-49679678Y-24220950D01*
X-49679676Y-24220947D01*
X-49679676Y-24220946D01*
X-49590515Y-24025712D01*
X-49590515Y-24025710D01*
X-49530045Y-23819773D01*
X-49530043Y-23819764D01*
X-49499501Y-23607331D01*
X-49499500Y-23607313D01*
X-49499500Y-16764995D01*
X-43454767Y-16764995D01*
X-43454767Y-16765004D01*
X-43435727Y-17019070D01*
X-43435724Y-17019092D01*
X-43379031Y-17267481D01*
X-43379029Y-17267488D01*
X-43285943Y-17504666D01*
X-43285941Y-17504671D01*
X-43158545Y-17725326D01*
X-43158540Y-17725334D01*
X-42999683Y-17924536D01*
X-42812904Y-18097841D01*
X-42602381Y-18241372D01*
X-42372830Y-18351918D01*
X-42372809Y-18351926D01*
X-42129351Y-18427023D01*
X-42129347Y-18427024D01*
X-41877400Y-18464999D01*
X-41877394Y-18465000D01*
X-41622606Y-18465000D01*
X-41622599Y-18464999D01*
X-41370652Y-18427024D01*
X-41370648Y-18427023D01*
X-41127187Y-18351925D01*
X-41127182Y-18351924D01*
X-40897622Y-18241375D01*
X-40687092Y-18097838D01*
X-40500316Y-17924536D01*
X-40341459Y-17725334D01*
X-40341454Y-17725326D01*
X-40214058Y-17504671D01*
X-40214056Y-17504666D01*
X-40120970Y-17267488D01*
X-40120968Y-17267481D01*
X-40064275Y-17019092D01*
X-40064272Y-17019070D01*
X-40045233Y-16765004D01*
X-40045233Y-16764995D01*
X-40064272Y-16510929D01*
X-40064275Y-16510907D01*
X-40120968Y-16262518D01*
X-40120970Y-16262511D01*
X-40214056Y-16025333D01*
X-40214058Y-16025328D01*
X-40341454Y-15804673D01*
X-40341459Y-15804665D01*
X-40500316Y-15605463D01*
X-40687092Y-15432161D01*
X-40897622Y-15288624D01*
X-41127182Y-15178075D01*
X-41127187Y-15178074D01*
X-41370648Y-15102976D01*
X-41370652Y-15102975D01*
X-41622599Y-15065000D01*
X-41877400Y-15065000D01*
X-42129347Y-15102975D01*
X-42129351Y-15102976D01*
X-42372809Y-15178073D01*
X-42372830Y-15178081D01*
X-42602381Y-15288627D01*
X-42812904Y-15432158D01*
X-42999683Y-15605463D01*
X-43158540Y-15804665D01*
X-43158545Y-15804673D01*
X-43285941Y-16025328D01*
X-43285943Y-16025333D01*
X-43379029Y-16262511D01*
X-43379031Y-16262518D01*
X-43435724Y-16510907D01*
X-43435727Y-16510929D01*
X-43454767Y-16764995D01*
X-49499500Y-16764995D01*
X-49499500Y-9492686D01*
X-49499501Y-9492668D01*
X-49530043Y-9280235D01*
X-49530045Y-9280226D01*
X-49590515Y-9074289D01*
X-49590515Y-9074287D01*
X-49679676Y-8879053D01*
X-49679676Y-8879052D01*
X-49795719Y-8698486D01*
X-49795720Y-8698485D01*
X-49936275Y-8536276D01*
X-49936276Y-8536275D01*
X-50098485Y-8395720D01*
X-50098486Y-8395719D01*
X-50279052Y-8279676D01*
X-50474288Y-8190515D01*
X-50680226Y-8130045D01*
X-50680235Y-8130043D01*
X-50892668Y-8099501D01*
X-50892680Y-8099500D01*
X-50892683Y-8099500D01*
X-50892687Y-8099500D01*
X-57381257Y-8099500D01*
X-57455757Y-8079538D01*
X-57510295Y-8025000D01*
X-57530257Y-7950500D01*
X-57510295Y-7876000D01*
X-57486616Y-7845141D01*
X-56305717Y-6664242D01*
X-56238922Y-6625678D01*
X-56172982Y-6623138D01*
X-56026610Y-6650500D01*
X-56026607Y-6650500D01*
X-55813393Y-6650500D01*
X-55813390Y-6650500D01*
X-55603802Y-6611321D01*
X-55492189Y-6568082D01*
X-55404983Y-6534299D01*
X-55404977Y-6534296D01*
X-55223698Y-6422052D01*
X-55223697Y-6422051D01*
X-55066127Y-6278406D01*
X-54937636Y-6108259D01*
X-54842594Y-5917387D01*
X-54842593Y-5917385D01*
X-54822311Y-5846100D01*
X-54782723Y-5779907D01*
X-54715342Y-5742376D01*
X-54638223Y-5743564D01*
X-54572030Y-5783152D01*
X-54534499Y-5850533D01*
X-54529999Y-5886876D01*
X-54529999Y-6394794D01*
X-54527090Y-6419874D01*
X-54481787Y-6522477D01*
X-54481787Y-6522478D01*
X-54402478Y-6601786D01*
X-54299871Y-6647091D01*
X-54274795Y-6649999D01*
X-52485205Y-6649999D01*
X-52460125Y-6647090D01*
X-52357522Y-6601787D01*
X-52278213Y-6522478D01*
X-52232908Y-6419871D01*
X-52230000Y-6394795D01*
X-52230000Y-4605205D01*
X-52232909Y-4580125D01*
X-52278212Y-4477522D01*
X-52357522Y-4398213D01*
X-52357521Y-4398213D01*
X-52460128Y-4352908D01*
X-52485204Y-4350000D01*
X-54274794Y-4350000D01*
X-54299874Y-4352909D01*
X-54402477Y-4398212D01*
X-54481786Y-4477521D01*
X-54527091Y-4580128D01*
X-54529999Y-4605204D01*
X-54529999Y-5113121D01*
X-54549961Y-5187621D01*
X-54604499Y-5242159D01*
X-54678999Y-5262121D01*
X-54753499Y-5242159D01*
X-54808037Y-5187621D01*
X-54822310Y-5153899D01*
X-54842591Y-5082619D01*
X-54842594Y-5082612D01*
X-54937636Y-4891740D01*
X-55066127Y-4721593D01*
X-55223697Y-4577948D01*
X-55223698Y-4577947D01*
X-55404977Y-4465703D01*
X-55404983Y-4465700D01*
X-55603795Y-4388681D01*
X-55603802Y-4388679D01*
X-55813385Y-4349500D01*
X-55813390Y-4349500D01*
X-56026610Y-4349500D01*
X-56026614Y-4349500D01*
X-56194280Y-4380843D01*
X-56236198Y-4388679D01*
X-56236200Y-4388680D01*
X-56236204Y-4388681D01*
X-56435016Y-4465700D01*
X-56435022Y-4465703D01*
X-56616301Y-4577947D01*
X-56616302Y-4577948D01*
X-56773872Y-4721593D01*
X-56902363Y-4891740D01*
X-56902364Y-4891743D01*
X-56902366Y-4891745D01*
X-56997405Y-5082611D01*
X-57044889Y-5249500D01*
X-57046687Y-5255818D01*
X-57086275Y-5322011D01*
X-57153656Y-5359542D01*
X-57230775Y-5358354D01*
X-57296968Y-5318766D01*
X-57333311Y-5255819D01*
X-57382593Y-5082612D01*
X-57477635Y-4891740D01*
X-57606126Y-4721593D01*
X-57763696Y-4577948D01*
X-57763697Y-4577947D01*
X-57944976Y-4465703D01*
X-57944982Y-4465700D01*
X-58143794Y-4388681D01*
X-58143801Y-4388679D01*
X-58353384Y-4349500D01*
X-58353389Y-4349500D01*
X-58566609Y-4349500D01*
X-58566613Y-4349500D01*
X-58734279Y-4380843D01*
X-58776197Y-4388679D01*
X-58776199Y-4388680D01*
X-58776203Y-4388681D01*
X-58975015Y-4465700D01*
X-58975021Y-4465703D01*
X-59156300Y-4577947D01*
X-59156301Y-4577948D01*
X-59313871Y-4721593D01*
X-59442362Y-4891740D01*
X-59442363Y-4891743D01*
X-59442365Y-4891745D01*
X-59480769Y-4968872D01*
X-59537404Y-5082612D01*
X-59537405Y-5082613D01*
X-59546085Y-5113121D01*
X-59586688Y-5255823D01*
X-59626275Y-5322015D01*
X-59693656Y-5359546D01*
X-59770775Y-5358358D01*
X-59836968Y-5318770D01*
X-59873311Y-5255822D01*
X-59922593Y-5082614D01*
X-59922594Y-5082612D01*
X-60017636Y-4891740D01*
X-60146127Y-4721593D01*
X-60303697Y-4577948D01*
X-60303698Y-4577947D01*
X-60484979Y-4465702D01*
X-60491146Y-4462632D01*
X-60489916Y-4460163D01*
X-60541633Y-4422303D01*
X-60572749Y-4351730D01*
X-60574500Y-4328954D01*
X-60574500Y-4074500D01*
X-60554538Y-4000000D01*
X-60500000Y-3945462D01*
X-60425500Y-3925500D01*
X-56143982Y-3925500D01*
X-56035763Y-3896503D01*
X-55938737Y-3840485D01*
X-53127232Y-1028979D01*
X-53127221Y-1028970D01*
X-53039517Y-941265D01*
X-53039512Y-941259D01*
X-52983498Y-844238D01*
X-52983497Y-844237D01*
X-52954500Y-736018D01*
X-52954500Y4328954D01*
X-52934538Y4403454D01*
X-52880000Y4457992D01*
X-52870986Y4462311D01*
X-52871146Y4462632D01*
X-52864979Y4465702D01*
X-52683698Y4577947D01*
X-52683697Y4577948D01*
X-52526127Y4721593D01*
X-52397636Y4891740D01*
X-52302594Y5082612D01*
X-52302593Y5082614D01*
X-52244243Y5287694D01*
X-52224571Y5499995D01*
X-52224571Y5500004D01*
X-52244243Y5712305D01*
X-52246224Y5719266D01*
X-52278318Y5832067D01*
X-52302593Y5917385D01*
X-52302594Y5917387D01*
X-52397636Y6108259D01*
X-52526127Y6278406D01*
X-52683697Y6422051D01*
X-52683698Y6422052D01*
X-52864977Y6534296D01*
X-52864983Y6534299D01*
X-52952189Y6568082D01*
X-53063802Y6611321D01*
X-53273390Y6650500D01*
X-53486610Y6650500D01*
X-53696198Y6611321D01*
X-53895019Y6534298D01*
X-54076302Y6422052D01*
X-54233872Y6278407D01*
X-54362366Y6108255D01*
X-54457405Y5917389D01*
X-54506689Y5744174D01*
X-54546276Y5677984D01*
X-54613657Y5640453D01*
X-54690776Y5641641D01*
X-54756969Y5681229D01*
X-54793312Y5744177D01*
X-54842594Y5917385D01*
X-54842595Y5917387D01*
X-54937637Y6108259D01*
X-55066128Y6278406D01*
X-55223698Y6422051D01*
X-55223699Y6422052D01*
X-55404978Y6534296D01*
X-55404984Y6534299D01*
X-55492190Y6568082D01*
X-55603803Y6611321D01*
X-55813391Y6650500D01*
X-56026611Y6650500D01*
X-56236199Y6611321D01*
X-56435020Y6534298D01*
X-56616303Y6422052D01*
X-56773873Y6278407D01*
X-56902367Y6108255D01*
X-56997406Y5917389D01*
X-57046689Y5744178D01*
X-57086276Y5677988D01*
X-57153657Y5640457D01*
X-57230776Y5641645D01*
X-57296969Y5681233D01*
X-57333312Y5744181D01*
X-57382593Y5917385D01*
X-57382594Y5917387D01*
X-57477636Y6108259D01*
X-57606127Y6278406D01*
X-57768789Y6426693D01*
X-57767477Y6428131D01*
X-57808783Y6481117D01*
X-57819436Y6557506D01*
X-57790467Y6628987D01*
X-57776925Y6644549D01*
X-57509490Y6911985D01*
X-57265616Y7155859D01*
X-57198821Y7194423D01*
X-57160257Y7199500D01*
X-47739743Y7199500D01*
X-47665243Y7179538D01*
X-47634384Y7155859D01*
X-47288014Y6809489D01*
X-47167736Y6740047D01*
X-47167735Y6740047D01*
X-47162485Y6737016D01*
X-47022475Y6699500D01*
X-47022474Y6699500D01*
X-46877526Y6699500D01*
X-44649500Y6699500D01*
X-44575000Y6679538D01*
X-44520462Y6625000D01*
X-44500500Y6550500D01*
X-44500500Y4227525D01*
X-44487962Y4180734D01*
X-44462984Y4087515D01*
X-44390510Y3961985D01*
X-44390509Y3961984D01*
X-43690510Y3261986D01*
X-43690509Y3261985D01*
X-43690509Y3261984D01*
X-43588017Y3159493D01*
X-43588011Y3159488D01*
X-43462487Y3087016D01*
X-43322476Y3049500D01*
X-43322475Y3049500D01*
X-42349500Y3049500D01*
X-42275000Y3029538D01*
X-42220462Y2975000D01*
X-42200500Y2900500D01*
X-42200500Y-4317970D01*
X-42220462Y-4392470D01*
X-42226875Y-4402611D01*
X-42274817Y-4472068D01*
X-42274818Y-4472070D01*
X-42313231Y-4573358D01*
X-42325308Y-4605204D01*
X-42335140Y-4631128D01*
X-42355645Y-4800000D01*
X-42335140Y-4968872D01*
X-42274818Y-5127930D01*
X-42178183Y-5267929D01*
X-42050852Y-5380734D01*
X-41900225Y-5459790D01*
X-41735056Y-5500500D01*
X-41564944Y-5500500D01*
X-41399775Y-5459790D01*
X-41249148Y-5380734D01*
X-41249146Y-5380732D01*
X-41249145Y-5380732D01*
X-41121820Y-5267932D01*
X-41121819Y-5267930D01*
X-41121817Y-5267929D01*
X-41025182Y-5127930D01*
X-41025181Y-5127929D01*
X-40964860Y-4968874D01*
X-40944355Y-4800000D01*
X-40964860Y-4631125D01*
X-41025182Y-4472068D01*
X-41073125Y-4402611D01*
X-41099017Y-4329959D01*
X-41099500Y-4317970D01*
X-41099500Y3472478D01*
X-41129540Y3584587D01*
X-41129540Y3661715D01*
X-41090976Y3728510D01*
X-41024181Y3767074D01*
X-40947053Y3767074D01*
X-40880258Y3728510D01*
X-38169141Y1017393D01*
X-38130577Y950598D01*
X-38125500Y912034D01*
X-38125500Y-22239644D01*
X-38145462Y-22314144D01*
X-38194264Y-22362946D01*
X-38193436Y-22364147D01*
X-38199986Y-22368668D01*
X-38200000Y-22368682D01*
X-38200030Y-22368698D01*
X-38200853Y-22369267D01*
X-38328179Y-22482067D01*
X-38328180Y-22482068D01*
X-38328183Y-22482071D01*
X-38384419Y-22563543D01*
X-38424818Y-22622070D01*
X-38473524Y-22750500D01*
X-38485140Y-22781128D01*
X-38505645Y-22950000D01*
X-38485140Y-23118872D01*
X-38424818Y-23277930D01*
X-38328183Y-23417929D01*
X-38200852Y-23530734D01*
X-38050225Y-23609790D01*
X-37885056Y-23650500D01*
X-37714944Y-23650500D01*
X-37549775Y-23609790D01*
X-37545055Y-23607313D01*
X-37541179Y-23605278D01*
X-37443743Y-23554139D01*
X-37368502Y-23537193D01*
X-37294866Y-23560138D01*
X-37242568Y-23616827D01*
X-37225500Y-23686072D01*
X-37225500Y-26293982D01*
X-37225500Y-26406018D01*
X-37196503Y-26514237D01*
X-37168980Y-26561907D01*
X-37149017Y-26636405D01*
X-37150103Y-26654364D01*
X-37155645Y-26700000D01*
X-37135140Y-26868872D01*
X-37074818Y-27027930D01*
X-36978183Y-27167929D01*
X-36850852Y-27280734D01*
X-36700225Y-27359790D01*
X-36535056Y-27400500D01*
X-36364944Y-27400500D01*
X-36199775Y-27359790D01*
X-36168164Y-27343199D01*
X-36049148Y-27280734D01*
X-36049146Y-27280732D01*
X-36049145Y-27280732D01*
X-35921820Y-27167932D01*
X-35921819Y-27167930D01*
X-35921817Y-27167929D01*
X-35855113Y-27071293D01*
X-35825181Y-27027929D01*
X-35764860Y-26868874D01*
X-35744355Y-26700000D01*
X-35764860Y-26531125D01*
X-35825181Y-26372070D01*
X-35921817Y-26232071D01*
X-35921820Y-26232067D01*
X-36049146Y-26119267D01*
X-36049145Y-26119267D01*
X-36199775Y-26040210D01*
X-36261159Y-26025080D01*
X-36328717Y-25987868D01*
X-36368617Y-25921863D01*
X-36374500Y-25880410D01*
X-36374500Y-22494359D01*
X-36354538Y-22419859D01*
X-36300000Y-22365321D01*
X-36225500Y-22345359D01*
X-36151000Y-22365321D01*
X-36102880Y-22409712D01*
X-36028183Y-22517929D01*
X-35900852Y-22630734D01*
X-35750225Y-22709790D01*
X-35585056Y-22750500D01*
X-35414944Y-22750500D01*
X-35249775Y-22709790D01*
X-35099148Y-22630734D01*
X-35089368Y-22622070D01*
X-35023303Y-22563541D01*
X-34954304Y-22529082D01*
X-34877317Y-22533739D01*
X-34812972Y-22576265D01*
X-34778511Y-22645267D01*
X-34775500Y-22675071D01*
X-34775500Y-26943982D01*
X-34775500Y-27056018D01*
X-34746503Y-27164237D01*
X-34690485Y-27261263D01*
X-32960485Y-28991263D01*
X-32881263Y-29070485D01*
X-32784237Y-29126503D01*
X-32676019Y-29155500D01*
X60406018Y-29155500D01*
X60514237Y-29126503D01*
X60611263Y-29070485D01*
X62640484Y-27041264D01*
X62640935Y-27040484D01*
X62696503Y-26944237D01*
X62696571Y-26943982D01*
X62725500Y-26836019D01*
X62725500Y-26723982D01*
X62725500Y-9875957D01*
X62745462Y-9801457D01*
X62775696Y-9764428D01*
X62793172Y-9748946D01*
X62828183Y-9717929D01*
X62924818Y-9577930D01*
X62985140Y-9418872D01*
X63005645Y-9250000D01*
X62985140Y-9081128D01*
X62979551Y-9066392D01*
X62924818Y-8922070D01*
X62828183Y-8782071D01*
X62775693Y-8735569D01*
X62733168Y-8671225D01*
X62725500Y-8624042D01*
X62725500Y-8463982D01*
X62725499Y-8463980D01*
X62696503Y-8355763D01*
X62640485Y-8258737D01*
X62561263Y-8179515D01*
X60041263Y-5659515D01*
X60041260Y-5659513D01*
X60041259Y-5659512D01*
X59976406Y-5622070D01*
X59944237Y-5603497D01*
X59836018Y-5574500D01*
X29470182Y-5574500D01*
X29395682Y-5554538D01*
X29347558Y-5510142D01*
X29328182Y-5482071D01*
X29328179Y-5482068D01*
X29328177Y-5482066D01*
X29200852Y-5369267D01*
X29200853Y-5369267D01*
X29050223Y-5290209D01*
X28885055Y-5249500D01*
X28714943Y-5249500D01*
X28549774Y-5290209D01*
X28399144Y-5369267D01*
X28271819Y-5482067D01*
X28271816Y-5482071D01*
X28175180Y-5622070D01*
X28114859Y-5781125D01*
X28094354Y-5950000D01*
X28114859Y-6118874D01*
X28175180Y-6277929D01*
X28175510Y-6278407D01*
X28271816Y-6417929D01*
X28271818Y-6417930D01*
X28271819Y-6417932D01*
X28399145Y-6530732D01*
X28399147Y-6530734D01*
X28423599Y-6543568D01*
X28480288Y-6595866D01*
X28503233Y-6669502D01*
X28486286Y-6744745D01*
X28433988Y-6801434D01*
X28360352Y-6824379D01*
X28354354Y-6824500D01*
X28037966Y-6824500D01*
X27963466Y-6804538D01*
X27932607Y-6780859D01*
X27769141Y-6617393D01*
X27730577Y-6550598D01*
X27725500Y-6512034D01*
X27725500Y-1125957D01*
X27745462Y-1051457D01*
X27775696Y-1014428D01*
X27790651Y-1001179D01*
X27828183Y-967929D01*
X27924818Y-827930D01*
X27985140Y-668872D01*
X28005645Y-500000D01*
X27985140Y-331128D01*
X27924818Y-172070D01*
X27828183Y-32071D01*
X27828180Y-32068D01*
X27828179Y-32067D01*
X27791181Y709D01*
X27700852Y80734D01*
X27550225Y159790D01*
X27385056Y200500D01*
X27214944Y200500D01*
X27049775Y159790D01*
X26899148Y80734D01*
X26899146Y80732D01*
X26899145Y80732D01*
X26771820Y-32067D01*
X26771817Y-32071D01*
X26675181Y-172070D01*
X26614860Y-331125D01*
X26594355Y-500000D01*
X26614860Y-668874D01*
X26640325Y-736019D01*
X26675182Y-827930D01*
X26771817Y-967929D01*
X26771818Y-967930D01*
X26771820Y-967932D01*
X26824304Y-1014428D01*
X26866832Y-1078772D01*
X26874500Y-1125957D01*
X26874500Y-6693982D01*
X26874500Y-6806018D01*
X26903497Y-6914237D01*
X26903498Y-6914238D01*
X26959512Y-7011259D01*
X26959513Y-7011260D01*
X26959515Y-7011263D01*
X27538737Y-7590485D01*
X27635763Y-7646503D01*
X27743982Y-7675500D01*
X27856019Y-7675500D01*
X57962034Y-7675500D01*
X58036534Y-7695462D01*
X58067393Y-7719141D01*
X59074304Y-8726052D01*
X59112868Y-8792847D01*
X59116859Y-8849365D01*
X59114355Y-8869994D01*
X59114355Y-8869996D01*
X59114355Y-8870000D01*
X59116859Y-8890621D01*
X59134860Y-9038874D01*
X59195181Y-9197929D01*
X59195182Y-9197930D01*
X59291817Y-9337929D01*
X59291819Y-9337930D01*
X59291820Y-9337932D01*
X59419146Y-9450732D01*
X59419148Y-9450734D01*
X59499080Y-9492686D01*
X59569775Y-9529790D01*
X59734944Y-9570500D01*
X59857034Y-9570500D01*
X59931534Y-9590462D01*
X59962393Y-9614141D01*
X60790859Y-10442607D01*
X60829423Y-10509402D01*
X60834500Y-10547966D01*
X60834500Y-24998862D01*
X60814538Y-25073362D01*
X60760000Y-25127900D01*
X60685500Y-25147862D01*
X60649843Y-25143533D01*
X60586416Y-25127900D01*
X60516965Y-25110782D01*
X60346853Y-25110782D01*
X60181684Y-25151491D01*
X60031057Y-25230547D01*
X60009159Y-25249947D01*
X59995522Y-25262028D01*
X59926522Y-25296489D01*
X59896718Y-25299500D01*
X54461966Y-25299500D01*
X54387466Y-25279538D01*
X54332928Y-25225000D01*
X54312966Y-25150500D01*
X54332928Y-25076000D01*
X54356607Y-25045141D01*
X55202287Y-24199461D01*
X57740485Y-21661263D01*
X57796503Y-21564237D01*
X57825500Y-21456018D01*
X57825500Y-21343982D01*
X57825500Y-17793982D01*
X57807180Y-17725612D01*
X57796503Y-17685763D01*
X57740485Y-17588737D01*
X57545692Y-17393944D01*
X57507130Y-17327152D01*
X57503140Y-17270627D01*
X57505645Y-17250000D01*
X57485140Y-17081128D01*
X57461640Y-17019164D01*
X57424818Y-16922070D01*
X57328183Y-16782071D01*
X57328180Y-16782068D01*
X57328179Y-16782067D01*
X57200853Y-16669267D01*
X57200854Y-16669267D01*
X57050224Y-16590209D01*
X56885056Y-16549500D01*
X56714944Y-16549500D01*
X56549775Y-16590209D01*
X56399145Y-16669267D01*
X56271820Y-16782067D01*
X56271817Y-16782071D01*
X56175181Y-16922070D01*
X56114860Y-17081125D01*
X56094355Y-17250000D01*
X56114860Y-17418874D01*
X56175181Y-17577929D01*
X56205113Y-17621293D01*
X56271817Y-17717929D01*
X56271819Y-17717930D01*
X56271820Y-17717932D01*
X56399146Y-17830732D01*
X56399148Y-17830734D01*
X56549775Y-17909790D01*
X56714944Y-17950500D01*
X56825500Y-17950500D01*
X56900000Y-17970462D01*
X56954538Y-18025000D01*
X56974500Y-18099500D01*
X56974500Y-21162034D01*
X56954538Y-21236534D01*
X56930859Y-21267393D01*
X51967393Y-26230859D01*
X51900598Y-26269423D01*
X51862034Y-26274500D01*
X40882135Y-26274500D01*
X40807635Y-26254538D01*
X40753097Y-26200000D01*
X40733135Y-26125500D01*
X40753097Y-26051000D01*
X40807635Y-25996462D01*
X40838216Y-25983120D01*
X40849155Y-25979745D01*
X40873004Y-25972389D01*
X41102634Y-25861805D01*
X41313217Y-25718232D01*
X41500050Y-25544877D01*
X41658959Y-25345612D01*
X41786393Y-25124888D01*
X41879508Y-24887637D01*
X41936222Y-24639157D01*
X41951588Y-24434108D01*
X41955268Y-24385005D01*
X41955268Y-24384994D01*
X41936223Y-24130855D01*
X41936222Y-24130853D01*
X41936222Y-24130843D01*
X41879508Y-23882363D01*
X41786393Y-23645112D01*
X41765999Y-23609789D01*
X41741424Y-23567223D01*
X41658959Y-23424388D01*
X41600296Y-23350827D01*
X41500053Y-23225126D01*
X41313640Y-23052161D01*
X41313217Y-23051768D01*
X41102634Y-22908195D01*
X41102631Y-22908194D01*
X41102629Y-22908192D01*
X40873013Y-22797615D01*
X40873009Y-22797613D01*
X40873004Y-22797611D01*
X40872996Y-22797608D01*
X40872992Y-22797607D01*
X40629463Y-22722488D01*
X40629461Y-22722487D01*
X40377437Y-22684500D01*
X40377435Y-22684500D01*
X40122565Y-22684500D01*
X40122562Y-22684500D01*
X39870538Y-22722487D01*
X39870536Y-22722488D01*
X39627007Y-22797607D01*
X39626986Y-22797615D01*
X39397370Y-22908192D01*
X39186780Y-23051770D01*
X38999946Y-23225126D01*
X38841045Y-23424382D01*
X38841042Y-23424386D01*
X38841041Y-23424388D01*
X38835430Y-23434107D01*
X38713608Y-23645108D01*
X38713605Y-23645115D01*
X38620491Y-23882363D01*
X38620490Y-23882367D01*
X38563779Y-24130835D01*
X38563776Y-24130855D01*
X38544732Y-24384994D01*
X38544732Y-24385005D01*
X38563776Y-24639144D01*
X38563779Y-24639164D01*
X38620490Y-24887632D01*
X38620491Y-24887636D01*
X38713605Y-25124884D01*
X38713608Y-25124891D01*
X38763448Y-25211216D01*
X38841041Y-25345612D01*
X38841045Y-25345617D01*
X38999946Y-25544873D01*
X38999949Y-25544875D01*
X38999950Y-25544877D01*
X39186783Y-25718232D01*
X39397366Y-25861805D01*
X39626996Y-25972389D01*
X39646124Y-25978289D01*
X39661784Y-25983120D01*
X39727090Y-26024155D01*
X39763129Y-26092345D01*
X39760245Y-26169419D01*
X39719210Y-26234725D01*
X39651020Y-26270764D01*
X39617865Y-26274500D01*
X24482135Y-26274500D01*
X24407635Y-26254538D01*
X24353097Y-26200000D01*
X24333135Y-26125500D01*
X24353097Y-26051000D01*
X24407635Y-25996462D01*
X24438216Y-25983120D01*
X24449155Y-25979745D01*
X24473004Y-25972389D01*
X24702634Y-25861805D01*
X24913217Y-25718232D01*
X25100050Y-25544877D01*
X25258959Y-25345612D01*
X25386393Y-25124888D01*
X25479508Y-24887637D01*
X25536222Y-24639157D01*
X25551588Y-24434108D01*
X25555268Y-24385005D01*
X25555268Y-24384994D01*
X25536223Y-24130855D01*
X25536222Y-24130853D01*
X25536222Y-24130843D01*
X25479508Y-23882363D01*
X25386393Y-23645112D01*
X25365999Y-23609789D01*
X25341424Y-23567223D01*
X25258959Y-23424388D01*
X25200296Y-23350827D01*
X25100053Y-23225126D01*
X24913640Y-23052161D01*
X24913217Y-23051768D01*
X24702634Y-22908195D01*
X24702631Y-22908194D01*
X24702629Y-22908192D01*
X24473013Y-22797615D01*
X24473009Y-22797613D01*
X24473004Y-22797611D01*
X24472996Y-22797608D01*
X24472992Y-22797607D01*
X24229463Y-22722488D01*
X24229461Y-22722487D01*
X23977437Y-22684500D01*
X23977435Y-22684500D01*
X23722565Y-22684500D01*
X23722562Y-22684500D01*
X23470538Y-22722487D01*
X23470536Y-22722488D01*
X23227007Y-22797607D01*
X23226986Y-22797615D01*
X22997370Y-22908192D01*
X22786780Y-23051770D01*
X22599946Y-23225126D01*
X22441045Y-23424382D01*
X22441042Y-23424386D01*
X22441041Y-23424388D01*
X22435430Y-23434107D01*
X22313608Y-23645108D01*
X22313605Y-23645115D01*
X22220491Y-23882363D01*
X22220490Y-23882367D01*
X22163779Y-24130835D01*
X22163776Y-24130855D01*
X22144732Y-24384994D01*
X22144732Y-24385005D01*
X22163776Y-24639144D01*
X22163779Y-24639164D01*
X22220490Y-24887632D01*
X22220491Y-24887636D01*
X22313605Y-25124884D01*
X22313608Y-25124891D01*
X22363448Y-25211216D01*
X22441041Y-25345612D01*
X22441045Y-25345617D01*
X22599946Y-25544873D01*
X22599949Y-25544875D01*
X22599950Y-25544877D01*
X22786783Y-25718232D01*
X22997366Y-25861805D01*
X23226996Y-25972389D01*
X23246124Y-25978289D01*
X23261784Y-25983120D01*
X23327090Y-26024155D01*
X23363129Y-26092345D01*
X23360245Y-26169419D01*
X23319210Y-26234725D01*
X23251020Y-26270764D01*
X23217865Y-26274500D01*
X8082135Y-26274500D01*
X8007635Y-26254538D01*
X7953097Y-26200000D01*
X7933135Y-26125500D01*
X7953097Y-26051000D01*
X8007635Y-25996462D01*
X8038216Y-25983120D01*
X8049155Y-25979745D01*
X8073004Y-25972389D01*
X8302634Y-25861805D01*
X8513217Y-25718232D01*
X8700050Y-25544877D01*
X8858959Y-25345612D01*
X8986393Y-25124888D01*
X9079508Y-24887637D01*
X9136222Y-24639157D01*
X9151588Y-24434108D01*
X9155268Y-24385005D01*
X9155268Y-24384994D01*
X9136223Y-24130855D01*
X9136222Y-24130853D01*
X9136222Y-24130843D01*
X9079508Y-23882363D01*
X8986393Y-23645112D01*
X8965999Y-23609789D01*
X8941424Y-23567223D01*
X8858959Y-23424388D01*
X8800296Y-23350827D01*
X8700053Y-23225126D01*
X8513640Y-23052161D01*
X8513217Y-23051768D01*
X8302634Y-22908195D01*
X8302631Y-22908194D01*
X8302629Y-22908192D01*
X8073013Y-22797615D01*
X8073009Y-22797613D01*
X8073004Y-22797611D01*
X8072996Y-22797608D01*
X8072992Y-22797607D01*
X7829463Y-22722488D01*
X7829461Y-22722487D01*
X7577437Y-22684500D01*
X7577435Y-22684500D01*
X7322565Y-22684500D01*
X7322562Y-22684500D01*
X7070538Y-22722487D01*
X7070536Y-22722488D01*
X6827007Y-22797607D01*
X6826986Y-22797615D01*
X6597370Y-22908192D01*
X6386780Y-23051770D01*
X6199946Y-23225126D01*
X6041045Y-23424382D01*
X6041042Y-23424386D01*
X6041041Y-23424388D01*
X6035430Y-23434107D01*
X5913608Y-23645108D01*
X5913605Y-23645115D01*
X5820491Y-23882363D01*
X5820490Y-23882367D01*
X5763779Y-24130835D01*
X5763776Y-24130855D01*
X5744732Y-24384994D01*
X5744732Y-24385005D01*
X5763776Y-24639144D01*
X5763779Y-24639164D01*
X5820490Y-24887632D01*
X5820491Y-24887636D01*
X5913605Y-25124884D01*
X5913608Y-25124891D01*
X5963448Y-25211216D01*
X6041041Y-25345612D01*
X6041045Y-25345617D01*
X6199946Y-25544873D01*
X6199949Y-25544875D01*
X6199950Y-25544877D01*
X6386783Y-25718232D01*
X6597366Y-25861805D01*
X6826996Y-25972389D01*
X6846124Y-25978289D01*
X6861784Y-25983120D01*
X6927090Y-26024155D01*
X6963129Y-26092345D01*
X6960245Y-26169419D01*
X6919210Y-26234725D01*
X6851020Y-26270764D01*
X6817865Y-26274500D01*
X-8317865Y-26274500D01*
X-8392365Y-26254538D01*
X-8446903Y-26200000D01*
X-8466865Y-26125500D01*
X-8446903Y-26051000D01*
X-8392365Y-25996462D01*
X-8361784Y-25983120D01*
X-8346124Y-25978289D01*
X-8326996Y-25972389D01*
X-8097366Y-25861805D01*
X-7886783Y-25718232D01*
X-7699950Y-25544877D01*
X-7699949Y-25544875D01*
X-7699946Y-25544873D01*
X-7541045Y-25345617D01*
X-7541041Y-25345612D01*
X-7463448Y-25211216D01*
X-7413608Y-25124891D01*
X-7413605Y-25124884D01*
X-7403839Y-25100000D01*
X-4200000Y-25100000D01*
X-4199999Y-25099999D01*
X-4199999Y-25100000D01*
X-75000Y-25075000D01*
X4050000Y-25050000D01*
X4050000Y-16764994D01*
X5744732Y-16764994D01*
X5744732Y-16765005D01*
X5763776Y-17019144D01*
X5763779Y-17019164D01*
X5820490Y-17267632D01*
X5820491Y-17267636D01*
X5913605Y-17504884D01*
X5913608Y-17504891D01*
X5977324Y-17615250D01*
X6041041Y-17725612D01*
X6095568Y-17793986D01*
X6199946Y-17924873D01*
X6199949Y-17924875D01*
X6199950Y-17924877D01*
X6386783Y-18098232D01*
X6597366Y-18241805D01*
X6826996Y-18352389D01*
X7068957Y-18427024D01*
X7070536Y-18427511D01*
X7070538Y-18427512D01*
X7070539Y-18427512D01*
X7070542Y-18427513D01*
X7322565Y-18465500D01*
X7322567Y-18465500D01*
X7577433Y-18465500D01*
X7577435Y-18465500D01*
X7829458Y-18427513D01*
X8073004Y-18352389D01*
X8302634Y-18241805D01*
X8513217Y-18098232D01*
X8700050Y-17924877D01*
X8858959Y-17725612D01*
X8986393Y-17504888D01*
X9079508Y-17267637D01*
X9136222Y-17019157D01*
X9136229Y-17019070D01*
X9155268Y-16765005D01*
X9155268Y-16764994D01*
X22144732Y-16764994D01*
X22144732Y-16765005D01*
X22163776Y-17019144D01*
X22163779Y-17019164D01*
X22220490Y-17267632D01*
X22220491Y-17267636D01*
X22313605Y-17504884D01*
X22313608Y-17504891D01*
X22377324Y-17615250D01*
X22441041Y-17725612D01*
X22495568Y-17793986D01*
X22599946Y-17924873D01*
X22599949Y-17924875D01*
X22599950Y-17924877D01*
X22786783Y-18098232D01*
X22997366Y-18241805D01*
X23226996Y-18352389D01*
X23468957Y-18427024D01*
X23470536Y-18427511D01*
X23470538Y-18427512D01*
X23470539Y-18427512D01*
X23470542Y-18427513D01*
X23722565Y-18465500D01*
X23722567Y-18465500D01*
X23977433Y-18465500D01*
X23977435Y-18465500D01*
X24229458Y-18427513D01*
X24473004Y-18352389D01*
X24702634Y-18241805D01*
X24913217Y-18098232D01*
X25100050Y-17924877D01*
X25258959Y-17725612D01*
X25386393Y-17504888D01*
X25479508Y-17267637D01*
X25536222Y-17019157D01*
X25536229Y-17019070D01*
X25555268Y-16765005D01*
X25555268Y-16764994D01*
X38544732Y-16764994D01*
X38544732Y-16765005D01*
X38563776Y-17019144D01*
X38563779Y-17019164D01*
X38620490Y-17267632D01*
X38620491Y-17267636D01*
X38713605Y-17504884D01*
X38713608Y-17504891D01*
X38777324Y-17615250D01*
X38841041Y-17725612D01*
X38895568Y-17793986D01*
X38999946Y-17924873D01*
X38999949Y-17924875D01*
X38999950Y-17924877D01*
X39186783Y-18098232D01*
X39397366Y-18241805D01*
X39626996Y-18352389D01*
X39868957Y-18427024D01*
X39870536Y-18427511D01*
X39870538Y-18427512D01*
X39870539Y-18427512D01*
X39870542Y-18427513D01*
X40122565Y-18465500D01*
X40122567Y-18465500D01*
X40377433Y-18465500D01*
X40377435Y-18465500D01*
X40629458Y-18427513D01*
X40873004Y-18352389D01*
X41102634Y-18241805D01*
X41313217Y-18098232D01*
X41500050Y-17924877D01*
X41658959Y-17725612D01*
X41786393Y-17504888D01*
X41879508Y-17267637D01*
X41936222Y-17019157D01*
X41936229Y-17019070D01*
X41955268Y-16765005D01*
X41955268Y-16764994D01*
X41936223Y-16510855D01*
X41936222Y-16510853D01*
X41936222Y-16510843D01*
X41879508Y-16262363D01*
X41786393Y-16025112D01*
X41658959Y-15804388D01*
X41617400Y-15752275D01*
X41500053Y-15605126D01*
X41313640Y-15432161D01*
X41313217Y-15431768D01*
X41102634Y-15288195D01*
X41102631Y-15288194D01*
X41102629Y-15288192D01*
X40873013Y-15177615D01*
X40873009Y-15177613D01*
X40873004Y-15177611D01*
X40872996Y-15177608D01*
X40872992Y-15177607D01*
X40629463Y-15102488D01*
X40629461Y-15102487D01*
X40377437Y-15064500D01*
X40377435Y-15064500D01*
X40122565Y-15064500D01*
X40122562Y-15064500D01*
X39870538Y-15102487D01*
X39870536Y-15102488D01*
X39627007Y-15177607D01*
X39626986Y-15177615D01*
X39397370Y-15288192D01*
X39186780Y-15431770D01*
X38999946Y-15605126D01*
X38841045Y-15804382D01*
X38841042Y-15804386D01*
X38841041Y-15804388D01*
X38827575Y-15827710D01*
X38713608Y-16025108D01*
X38713605Y-16025115D01*
X38620491Y-16262363D01*
X38620490Y-16262367D01*
X38563779Y-16510835D01*
X38563776Y-16510855D01*
X38544732Y-16764994D01*
X25555268Y-16764994D01*
X25536223Y-16510855D01*
X25536222Y-16510853D01*
X25536222Y-16510843D01*
X25479508Y-16262363D01*
X25386393Y-16025112D01*
X25258959Y-15804388D01*
X25217400Y-15752275D01*
X25100053Y-15605126D01*
X24913640Y-15432161D01*
X24913217Y-15431768D01*
X24702634Y-15288195D01*
X24702631Y-15288194D01*
X24702629Y-15288192D01*
X24473013Y-15177615D01*
X24473009Y-15177613D01*
X24473004Y-15177611D01*
X24472996Y-15177608D01*
X24472992Y-15177607D01*
X24229463Y-15102488D01*
X24229461Y-15102487D01*
X23977437Y-15064500D01*
X23977435Y-15064500D01*
X23722565Y-15064500D01*
X23722562Y-15064500D01*
X23470538Y-15102487D01*
X23470536Y-15102488D01*
X23227007Y-15177607D01*
X23226986Y-15177615D01*
X22997370Y-15288192D01*
X22786780Y-15431770D01*
X22599946Y-15605126D01*
X22441045Y-15804382D01*
X22441042Y-15804386D01*
X22441041Y-15804388D01*
X22427575Y-15827710D01*
X22313608Y-16025108D01*
X22313605Y-16025115D01*
X22220491Y-16262363D01*
X22220490Y-16262367D01*
X22163779Y-16510835D01*
X22163776Y-16510855D01*
X22144732Y-16764994D01*
X9155268Y-16764994D01*
X9136223Y-16510855D01*
X9136222Y-16510853D01*
X9136222Y-16510843D01*
X9079508Y-16262363D01*
X8986393Y-16025112D01*
X8858959Y-15804388D01*
X8817400Y-15752275D01*
X8700053Y-15605126D01*
X8513640Y-15432161D01*
X8513217Y-15431768D01*
X8302634Y-15288195D01*
X8302631Y-15288194D01*
X8302629Y-15288192D01*
X8073013Y-15177615D01*
X8073009Y-15177613D01*
X8073004Y-15177611D01*
X8072996Y-15177608D01*
X8072992Y-15177607D01*
X7829463Y-15102488D01*
X7829461Y-15102487D01*
X7577437Y-15064500D01*
X7577435Y-15064500D01*
X7322565Y-15064500D01*
X7322562Y-15064500D01*
X7070538Y-15102487D01*
X7070536Y-15102488D01*
X6827007Y-15177607D01*
X6826986Y-15177615D01*
X6597370Y-15288192D01*
X6386780Y-15431770D01*
X6199946Y-15605126D01*
X6041045Y-15804382D01*
X6041042Y-15804386D01*
X6041041Y-15804388D01*
X6027575Y-15827710D01*
X5913608Y-16025108D01*
X5913605Y-16025115D01*
X5820491Y-16262363D01*
X5820490Y-16262367D01*
X5763779Y-16510835D01*
X5763776Y-16510855D01*
X5744732Y-16764994D01*
X4050000Y-16764994D01*
X4050000Y-15900000D01*
X-4200000Y-15900000D01*
X-4200000Y-25100000D01*
X-7403839Y-25100000D01*
X-7320491Y-24887636D01*
X-7320490Y-24887632D01*
X-7263779Y-24639164D01*
X-7263776Y-24639144D01*
X-7244732Y-24385005D01*
X-7244732Y-24384994D01*
X-7263776Y-24130855D01*
X-7263779Y-24130835D01*
X-7320490Y-23882367D01*
X-7320491Y-23882363D01*
X-7413605Y-23645115D01*
X-7413608Y-23645108D01*
X-7535430Y-23434107D01*
X-7541041Y-23424388D01*
X-7541042Y-23424386D01*
X-7541045Y-23424382D01*
X-7699946Y-23225126D01*
X-7886780Y-23051770D01*
X-8097370Y-22908192D01*
X-8326986Y-22797615D01*
X-8327007Y-22797607D01*
X-8570536Y-22722488D01*
X-8570538Y-22722487D01*
X-8822562Y-22684500D01*
X-8822565Y-22684500D01*
X-9077435Y-22684500D01*
X-9077437Y-22684500D01*
X-9329461Y-22722487D01*
X-9329463Y-22722488D01*
X-9572992Y-22797607D01*
X-9572996Y-22797608D01*
X-9573004Y-22797611D01*
X-9573009Y-22797613D01*
X-9573013Y-22797615D01*
X-9802629Y-22908192D01*
X-9802631Y-22908194D01*
X-9802634Y-22908195D01*
X-10013217Y-23051768D01*
X-10013640Y-23052161D01*
X-10200053Y-23225126D01*
X-10300296Y-23350827D01*
X-10358959Y-23424388D01*
X-10441424Y-23567223D01*
X-10465999Y-23609789D01*
X-10486393Y-23645112D01*
X-10579508Y-23882363D01*
X-10636222Y-24130843D01*
X-10636222Y-24130853D01*
X-10636223Y-24130855D01*
X-10655268Y-24384994D01*
X-10655268Y-24385005D01*
X-10651588Y-24434108D01*
X-10636222Y-24639157D01*
X-10579508Y-24887637D01*
X-10486393Y-25124888D01*
X-10358959Y-25345612D01*
X-10200050Y-25544877D01*
X-10013217Y-25718232D01*
X-9802634Y-25861805D01*
X-9573004Y-25972389D01*
X-9549155Y-25979745D01*
X-9538216Y-25983120D01*
X-9472910Y-26024155D01*
X-9436871Y-26092345D01*
X-9439755Y-26169419D01*
X-9480790Y-26234725D01*
X-9548980Y-26270764D01*
X-9582135Y-26274500D01*
X-10062034Y-26274500D01*
X-10136534Y-26254538D01*
X-10167393Y-26230859D01*
X-11040859Y-25357393D01*
X-11079423Y-25290598D01*
X-11084500Y-25252034D01*
X-11084500Y-20723980D01*
X-11100039Y-20665986D01*
X-11113497Y-20615763D01*
X-11122886Y-20599500D01*
X-11169512Y-20518740D01*
X-12178740Y-19509512D01*
X-12275761Y-19453498D01*
X-12275761Y-19453497D01*
X-12275763Y-19453497D01*
X-12383982Y-19424500D01*
X-31929817Y-19424500D01*
X-32004317Y-19404538D01*
X-32052440Y-19360142D01*
X-32061856Y-19346501D01*
X-32071815Y-19332073D01*
X-32071821Y-19332066D01*
X-32199146Y-19219267D01*
X-32199145Y-19219267D01*
X-32349775Y-19140209D01*
X-32514944Y-19099500D01*
X-32685056Y-19099500D01*
X-32850224Y-19140209D01*
X-33000854Y-19219267D01*
X-33128179Y-19332067D01*
X-33128180Y-19332068D01*
X-33128183Y-19332071D01*
X-33224818Y-19472070D01*
X-33224818Y-19472071D01*
X-33253459Y-19547591D01*
X-33298542Y-19610171D01*
X-33368875Y-19641826D01*
X-33445612Y-19634074D01*
X-33498136Y-19600115D01*
X-33730859Y-19367393D01*
X-33769423Y-19300598D01*
X-33774500Y-19262034D01*
X-33774500Y-16764994D01*
X-27055268Y-16764994D01*
X-27055268Y-16765005D01*
X-27036229Y-17019070D01*
X-27036222Y-17019157D01*
X-26979508Y-17267637D01*
X-26886393Y-17504888D01*
X-26758959Y-17725612D01*
X-26600050Y-17924877D01*
X-26413217Y-18098232D01*
X-26202634Y-18241805D01*
X-25973004Y-18352389D01*
X-25729458Y-18427513D01*
X-25477435Y-18465500D01*
X-25477433Y-18465500D01*
X-25222567Y-18465500D01*
X-25222565Y-18465500D01*
X-24970542Y-18427513D01*
X-24970539Y-18427512D01*
X-24970538Y-18427512D01*
X-24970536Y-18427511D01*
X-24968957Y-18427024D01*
X-24726996Y-18352389D01*
X-24497366Y-18241805D01*
X-24286783Y-18098232D01*
X-24099950Y-17924877D01*
X-24099949Y-17924875D01*
X-24099946Y-17924873D01*
X-23995568Y-17793986D01*
X-23941041Y-17725612D01*
X-23877324Y-17615250D01*
X-23813608Y-17504891D01*
X-23813605Y-17504884D01*
X-23720491Y-17267636D01*
X-23720490Y-17267632D01*
X-23663779Y-17019164D01*
X-23663776Y-17019144D01*
X-23644732Y-16765005D01*
X-23644732Y-16764994D01*
X-10655268Y-16764994D01*
X-10655268Y-16765005D01*
X-10636229Y-17019070D01*
X-10636222Y-17019157D01*
X-10579508Y-17267637D01*
X-10486393Y-17504888D01*
X-10358959Y-17725612D01*
X-10200050Y-17924877D01*
X-10013217Y-18098232D01*
X-9802634Y-18241805D01*
X-9573004Y-18352389D01*
X-9329458Y-18427513D01*
X-9077435Y-18465500D01*
X-9077433Y-18465500D01*
X-8822567Y-18465500D01*
X-8822565Y-18465500D01*
X-8570542Y-18427513D01*
X-8570539Y-18427512D01*
X-8570538Y-18427512D01*
X-8570536Y-18427511D01*
X-8568957Y-18427024D01*
X-8326996Y-18352389D01*
X-8097366Y-18241805D01*
X-7886783Y-18098232D01*
X-7699950Y-17924877D01*
X-7699949Y-17924875D01*
X-7699946Y-17924873D01*
X-7595568Y-17793986D01*
X-7541041Y-17725612D01*
X-7477324Y-17615250D01*
X-7413608Y-17504891D01*
X-7413605Y-17504884D01*
X-7320491Y-17267636D01*
X-7320490Y-17267632D01*
X-7263779Y-17019164D01*
X-7263776Y-17019144D01*
X-7244732Y-16765005D01*
X-7244732Y-16764994D01*
X-7263776Y-16510855D01*
X-7263779Y-16510835D01*
X-7320490Y-16262367D01*
X-7320491Y-16262363D01*
X-7413605Y-16025115D01*
X-7413608Y-16025108D01*
X-7527575Y-15827710D01*
X-7541041Y-15804388D01*
X-7541042Y-15804386D01*
X-7541045Y-15804382D01*
X-7699946Y-15605126D01*
X-7886780Y-15431770D01*
X-8097370Y-15288192D01*
X-8326986Y-15177615D01*
X-8327007Y-15177607D01*
X-8570536Y-15102488D01*
X-8570538Y-15102487D01*
X-8822562Y-15064500D01*
X-8822565Y-15064500D01*
X-9077435Y-15064500D01*
X-9077437Y-15064500D01*
X-9329461Y-15102487D01*
X-9329463Y-15102488D01*
X-9572992Y-15177607D01*
X-9572996Y-15177608D01*
X-9573004Y-15177611D01*
X-9573009Y-15177613D01*
X-9573013Y-15177615D01*
X-9802629Y-15288192D01*
X-9802631Y-15288194D01*
X-9802634Y-15288195D01*
X-10013217Y-15431768D01*
X-10013640Y-15432161D01*
X-10200053Y-15605126D01*
X-10317400Y-15752275D01*
X-10358959Y-15804388D01*
X-10486393Y-16025112D01*
X-10579508Y-16262363D01*
X-10636222Y-16510843D01*
X-10636222Y-16510853D01*
X-10636223Y-16510855D01*
X-10655268Y-16764994D01*
X-23644732Y-16764994D01*
X-23663776Y-16510855D01*
X-23663779Y-16510835D01*
X-23720490Y-16262367D01*
X-23720491Y-16262363D01*
X-23813605Y-16025115D01*
X-23813608Y-16025108D01*
X-23927575Y-15827710D01*
X-23941041Y-15804388D01*
X-23941042Y-15804386D01*
X-23941045Y-15804382D01*
X-24099946Y-15605126D01*
X-24286780Y-15431770D01*
X-24497370Y-15288192D01*
X-24726986Y-15177615D01*
X-24727007Y-15177607D01*
X-24970536Y-15102488D01*
X-24970538Y-15102487D01*
X-25222562Y-15064500D01*
X-25222565Y-15064500D01*
X-25477435Y-15064500D01*
X-25477437Y-15064500D01*
X-25729461Y-15102487D01*
X-25729463Y-15102488D01*
X-25972992Y-15177607D01*
X-25972996Y-15177608D01*
X-25973004Y-15177611D01*
X-25973009Y-15177613D01*
X-25973013Y-15177615D01*
X-26202629Y-15288192D01*
X-26202631Y-15288194D01*
X-26202634Y-15288195D01*
X-26413217Y-15431768D01*
X-26413640Y-15432161D01*
X-26600053Y-15605126D01*
X-26717400Y-15752275D01*
X-26758959Y-15804388D01*
X-26886393Y-16025112D01*
X-26979508Y-16262363D01*
X-27036222Y-16510843D01*
X-27036222Y-16510853D01*
X-27036223Y-16510855D01*
X-27055268Y-16764994D01*
X-33774500Y-16764994D01*
X-33774500Y2100000D01*
X-30350000Y2100000D01*
X-25250000Y2100000D01*
X-25250000Y7100000D01*
X-30350000Y7100000D01*
X-30350000Y2100000D01*
X-33774500Y2100000D01*
X-33774500Y3106019D01*
X-33788828Y3159491D01*
X-33803497Y3214237D01*
X-33831065Y3261986D01*
X-33859512Y3311259D01*
X-33859517Y3311265D01*
X-33947221Y3398970D01*
X-33947233Y3398980D01*
X-37904304Y7356052D01*
X-37942868Y7422847D01*
X-37946859Y7479365D01*
X-37944355Y7499994D01*
X-37944355Y7500000D01*
X-37964860Y7668874D01*
X-38025181Y7827929D01*
X-38109787Y7950500D01*
X-38121817Y7967929D01*
X-38249146Y8080732D01*
X-38249148Y8080734D01*
X-38399775Y8159790D01*
X-38564944Y8200500D01*
X-38735056Y8200500D01*
X-38900225Y8159790D01*
X-39050852Y8080734D01*
X-39178183Y7967929D01*
X-39274818Y7827930D01*
X-39335140Y7668872D01*
X-39355645Y7500000D01*
X-39335140Y7331128D01*
X-39335139Y7331125D01*
X-39311530Y7268872D01*
X-39274818Y7172070D01*
X-39178183Y7032071D01*
X-39178180Y7032068D01*
X-39178179Y7032067D01*
X-39154995Y7011528D01*
X-39112468Y6947184D01*
X-39107811Y6870197D01*
X-39142272Y6801195D01*
X-39154995Y6788472D01*
X-39178183Y6767929D01*
X-39274818Y6627930D01*
X-39335140Y6468872D01*
X-39355645Y6300000D01*
X-39335140Y6131128D01*
X-39274818Y5972070D01*
X-39178183Y5832071D01*
X-39178180Y5832068D01*
X-39178179Y5832067D01*
X-39154995Y5811528D01*
X-39112468Y5747184D01*
X-39107811Y5670197D01*
X-39142272Y5601195D01*
X-39154995Y5588472D01*
X-39178183Y5567929D01*
X-39274818Y5427930D01*
X-39301204Y5358354D01*
X-39303459Y5352408D01*
X-39348541Y5289828D01*
X-39418874Y5258173D01*
X-39495612Y5265925D01*
X-39548136Y5299884D01*
X-41304304Y7056052D01*
X-41342868Y7122847D01*
X-41346859Y7179365D01*
X-41344355Y7199994D01*
X-41344355Y7199996D01*
X-41364860Y7368874D01*
X-41425181Y7527929D01*
X-41455113Y7571293D01*
X-41521817Y7667929D01*
X-41522884Y7668874D01*
X-41649146Y7780732D01*
X-41649148Y7780734D01*
X-41759447Y7838624D01*
X-41816134Y7890920D01*
X-41839080Y7964555D01*
X-41822134Y8039799D01*
X-41795560Y8075914D01*
X-39734490Y10136985D01*
X-36909490Y12961984D01*
X-36837017Y13087512D01*
X-36825058Y13132144D01*
X-36825057Y13132143D01*
X-36799500Y13227524D01*
X-36799500Y14517970D01*
X-36779538Y14592470D01*
X-36773125Y14602611D01*
X-36725182Y14672068D01*
X-36664860Y14831125D01*
X-36644355Y15000000D01*
X-36664860Y15168874D01*
X-36725181Y15327929D01*
X-36738255Y15346869D01*
X-36773124Y15397386D01*
X-36799017Y15470036D01*
X-36799500Y15482027D01*
X-36799500Y16517970D01*
X-36779538Y16592470D01*
X-36773125Y16602611D01*
X-36725182Y16672068D01*
X-36664860Y16831125D01*
X-36644355Y17000000D01*
X-36664860Y17168874D01*
X-36725181Y17327929D01*
X-36768026Y17390000D01*
X-36821817Y17467929D01*
X-36863285Y17504666D01*
X-36949146Y17580732D01*
X-36949148Y17580734D01*
X-37099775Y17659790D01*
X-37264944Y17700500D01*
X-37435056Y17700500D01*
X-37600225Y17659790D01*
X-37750852Y17580734D01*
X-37878183Y17467929D01*
X-37974818Y17327930D01*
X-38035140Y17168872D01*
X-38055645Y17000000D01*
X-38035140Y16831128D01*
X-38035139Y16831125D01*
X-37974817Y16672068D01*
X-37926875Y16602611D01*
X-37900983Y16529959D01*
X-37900500Y16517970D01*
X-37900500Y15482027D01*
X-37920462Y15407527D01*
X-37926866Y15397398D01*
X-37974818Y15327930D01*
X-38035140Y15168872D01*
X-38055645Y15000000D01*
X-38035140Y14831128D01*
X-38035139Y14831125D01*
X-37974817Y14672068D01*
X-37926875Y14602611D01*
X-37900983Y14529959D01*
X-37900500Y14517970D01*
X-37900500Y13589743D01*
X-37920462Y13515243D01*
X-37944141Y13484384D01*
X-40069641Y11358884D01*
X-40136436Y11320320D01*
X-40213564Y11320320D01*
X-40280359Y11358884D01*
X-44480859Y15559384D01*
X-44519423Y15626179D01*
X-44524500Y15664743D01*
X-44524500Y24835257D01*
X-44504538Y24909757D01*
X-44480859Y24940616D01*
X-43515617Y25905859D01*
X-43448822Y25944423D01*
X-43410258Y25949500D01*
X-42943616Y25949500D01*
X-42869116Y25929538D01*
X-42814578Y25875000D01*
X-42794616Y25800500D01*
X-42814578Y25726000D01*
X-42842270Y25691275D01*
X-43000050Y25544877D01*
X-43158959Y25345612D01*
X-43286393Y25124888D01*
X-43379508Y24887637D01*
X-43436222Y24639157D01*
X-43436222Y24639144D01*
X-43436223Y24639144D01*
X-43455268Y24385005D01*
X-43455268Y24384994D01*
X-43436227Y24130907D01*
X-43436222Y24130843D01*
X-43379508Y23882363D01*
X-43286393Y23645112D01*
X-43158959Y23424388D01*
X-43158954Y23424382D01*
X-43000053Y23225126D01*
X-43000050Y23225123D01*
X-42813217Y23051768D01*
X-42602634Y22908195D01*
X-42602631Y22908194D01*
X-42602629Y22908192D01*
X-42384851Y22803316D01*
X-42326390Y22753007D01*
X-42300917Y22680207D01*
X-42300500Y22669072D01*
X-42300500Y18480927D01*
X-42320462Y18406427D01*
X-42375000Y18351889D01*
X-42384824Y18346696D01*
X-42602634Y18241805D01*
X-42813217Y18098232D01*
X-43000050Y17924877D01*
X-43158959Y17725612D01*
X-43286393Y17504888D01*
X-43379508Y17267637D01*
X-43436222Y17019157D01*
X-43436222Y17019144D01*
X-43436223Y17019144D01*
X-43455268Y16765005D01*
X-43455268Y16764994D01*
X-43436227Y16510907D01*
X-43436222Y16510843D01*
X-43379508Y16262363D01*
X-43286393Y16025112D01*
X-43158959Y15804388D01*
X-43158954Y15804382D01*
X-43000053Y15605126D01*
X-43000050Y15605123D01*
X-42813217Y15431768D01*
X-42602634Y15288195D01*
X-42602631Y15288194D01*
X-42602629Y15288192D01*
X-42373013Y15177615D01*
X-42373009Y15177613D01*
X-42373004Y15177611D01*
X-42372996Y15177608D01*
X-42372992Y15177607D01*
X-42129463Y15102488D01*
X-42129461Y15102487D01*
X-41877437Y15064500D01*
X-41877435Y15064500D01*
X-41622562Y15064500D01*
X-41370538Y15102487D01*
X-41370536Y15102488D01*
X-41127007Y15177607D01*
X-41126998Y15177610D01*
X-41126996Y15177611D01*
X-41126994Y15177611D01*
X-41126986Y15177615D01*
X-40897370Y15288192D01*
X-40686780Y15431770D01*
X-40499946Y15605126D01*
X-40341045Y15804382D01*
X-40341040Y15804390D01*
X-40340876Y15804673D01*
X-40327575Y15827710D01*
X-40213608Y16025108D01*
X-40213605Y16025115D01*
X-40120491Y16262363D01*
X-40120490Y16262367D01*
X-40063779Y16510835D01*
X-40063776Y16510855D01*
X-40044732Y16764994D01*
X-40044732Y16765005D01*
X-40063776Y17019144D01*
X-40063779Y17019164D01*
X-40120490Y17267632D01*
X-40120491Y17267636D01*
X-40213605Y17504884D01*
X-40213608Y17504891D01*
X-40303039Y17659790D01*
X-40341041Y17725612D01*
X-40375855Y17769267D01*
X-40499946Y17924873D01*
X-40686359Y18097838D01*
X-40686783Y18098232D01*
X-40897366Y18241805D01*
X-41115151Y18346684D01*
X-41119004Y18350000D01*
X-34893646Y18350000D01*
X-34873141Y18181128D01*
X-34812819Y18022070D01*
X-34716184Y17882071D01*
X-34716181Y17882068D01*
X-34716180Y17882067D01*
X-34588854Y17769267D01*
X-34588855Y17769267D01*
X-34438225Y17690209D01*
X-34273057Y17649500D01*
X-34102945Y17649500D01*
X-33937776Y17690209D01*
X-33787146Y17769267D01*
X-33654222Y17887028D01*
X-33585221Y17921489D01*
X-33555417Y17924500D01*
X-31787966Y17924500D01*
X-31713466Y17904538D01*
X-31682607Y17880859D01*
X-3052750Y-10748995D01*
X-3052747Y-10749000D01*
X-3040485Y-10761261D01*
X-3040485Y-10761263D01*
X-2961263Y-10840485D01*
X-2889109Y-10882143D01*
X-2864237Y-10896503D01*
X-2756019Y-10925500D01*
X-2756018Y-10925500D01*
X42267416Y-10925500D01*
X42341916Y-10945462D01*
X42366221Y-10962972D01*
X42499145Y-11080732D01*
X42499146Y-11080732D01*
X42499148Y-11080734D01*
X42649775Y-11159790D01*
X42814944Y-11200500D01*
X42985056Y-11200500D01*
X43150225Y-11159790D01*
X43300852Y-11080734D01*
X43428183Y-10967929D01*
X43524818Y-10827930D01*
X43585140Y-10668872D01*
X43605645Y-10500000D01*
X43585140Y-10331128D01*
X43571764Y-10295859D01*
X43524818Y-10172070D01*
X43486300Y-10116268D01*
X43428183Y-10032071D01*
X43428180Y-10032068D01*
X43428179Y-10032067D01*
X43326318Y-9941827D01*
X43300853Y-9919267D01*
X43300854Y-9919267D01*
X43150224Y-9840209D01*
X42985056Y-9799500D01*
X42814944Y-9799500D01*
X42649775Y-9840209D01*
X42499145Y-9919267D01*
X42366221Y-10037028D01*
X42297220Y-10071489D01*
X42267416Y-10074500D01*
X-2462035Y-10074500D01*
X-2536535Y-10054538D01*
X-2567394Y-10030859D01*
X-8540341Y-4057911D01*
X-8578905Y-3991116D01*
X-8578905Y-3913988D01*
X-8559525Y-3880422D01*
X-8621537Y-3902523D01*
X-8697402Y-3888621D01*
X-8738887Y-3859365D01*
X-14848252Y2250000D01*
X-10405645Y2250000D01*
X-10385140Y2081128D01*
X-10385139Y2081125D01*
X-10324817Y1922068D01*
X-10276875Y1852611D01*
X-10250983Y1779959D01*
X-10250500Y1767970D01*
X-10250500Y927525D01*
X-10236869Y876655D01*
X-10224231Y829489D01*
X-10224231Y829488D01*
X-10212986Y787519D01*
X-10212984Y787516D01*
X-10212984Y787515D01*
X-10162191Y699538D01*
X-10140509Y661984D01*
X-8544141Y-934384D01*
X-8505577Y-1001179D01*
X-8500500Y-1039743D01*
X-8500500Y-2766811D01*
X-8520462Y-2841311D01*
X-8526875Y-2851452D01*
X-8574817Y-2920909D01*
X-8631140Y-3069423D01*
X-8635140Y-3079969D01*
X-8655645Y-3248841D01*
X-8635140Y-3417713D01*
X-8574818Y-3576771D01*
X-8510901Y-3669368D01*
X-8485011Y-3742015D01*
X-8498913Y-3817880D01*
X-8507929Y-3828480D01*
X-8473546Y-3808629D01*
X-8396418Y-3808629D01*
X-8359093Y-3825882D01*
X-8358833Y-3825386D01*
X-8350852Y-3829574D01*
X-8350852Y-3829575D01*
X-8200225Y-3908631D01*
X-8035056Y-3949341D01*
X-7864944Y-3949341D01*
X-7699775Y-3908631D01*
X-7676667Y-3896503D01*
X-7549148Y-3829575D01*
X-7549146Y-3829573D01*
X-7549145Y-3829573D01*
X-7421820Y-3716773D01*
X-7421819Y-3716771D01*
X-7421817Y-3716770D01*
X-7325182Y-3576771D01*
X-7325181Y-3576770D01*
X-7264860Y-3417715D01*
X-7244355Y-3248841D01*
X-7264860Y-3079966D01*
X-7325182Y-2920909D01*
X-7373125Y-2851452D01*
X-7399017Y-2778800D01*
X-7399500Y-2766811D01*
X-7399500Y-1100000D01*
X-4254400Y-1100000D01*
X545600Y-1110000D01*
X545600Y8190000D01*
X-4254400Y8190000D01*
X-4254400Y-1100000D01*
X-7399500Y-1100000D01*
X-7399500Y-677524D01*
X-7437017Y-537510D01*
X-7437768Y-536211D01*
X-7438156Y-534762D01*
X-7440754Y-528490D01*
X-7439927Y-528147D01*
X-7457725Y-461710D01*
X-7437758Y-387211D01*
X-7383216Y-332677D01*
X-7308715Y-312720D01*
X-7290761Y-313807D01*
X-7285056Y-314499D01*
X-7285056Y-314500D01*
X-7285055Y-314500D01*
X-7114944Y-314500D01*
X-6949775Y-273790D01*
X-6799148Y-194734D01*
X-6799146Y-194732D01*
X-6799145Y-194732D01*
X-6671820Y-81932D01*
X-6671819Y-81930D01*
X-6671817Y-81929D01*
X-6596367Y27378D01*
X-6575181Y58070D01*
X-6514860Y217125D01*
X-6494355Y386000D01*
X-6514860Y554874D01*
X-6575181Y713929D01*
X-6588255Y732869D01*
X-6623124Y783386D01*
X-6649017Y856036D01*
X-6649500Y868027D01*
X-6649500Y8500000D01*
X3989955Y8500000D01*
X4010460Y8331125D01*
X4070781Y8172070D01*
X4167417Y8032071D01*
X4167420Y8032067D01*
X4294746Y7919267D01*
X4294745Y7919267D01*
X4445375Y7840209D01*
X4610544Y7799500D01*
X4780656Y7799500D01*
X4945824Y7840209D01*
X5096454Y7919267D01*
X5229379Y8037028D01*
X5298380Y8071489D01*
X5328184Y8074500D01*
X5707634Y8074500D01*
X5782134Y8054538D01*
X5812993Y8030859D01*
X6599904Y7243946D01*
X6638468Y7177151D01*
X6642459Y7120632D01*
X6639955Y7100003D01*
X6639955Y7100000D01*
X6648203Y7032071D01*
X6660460Y6931125D01*
X6720781Y6772070D01*
X6817417Y6632071D01*
X6817420Y6632067D01*
X6944746Y6519267D01*
X6944745Y6519267D01*
X7095375Y6440209D01*
X7260544Y6399500D01*
X7430656Y6399500D01*
X7595824Y6440209D01*
X7746454Y6519267D01*
X7873779Y6632067D01*
X7873780Y6632068D01*
X7873783Y6632071D01*
X7970418Y6772070D01*
X8011628Y6880734D01*
X8030739Y6931125D01*
X8030740Y6931128D01*
X8051245Y7100000D01*
X8030740Y7268872D01*
X7970418Y7427930D01*
X7873783Y7567929D01*
X7746452Y7680734D01*
X7595825Y7759790D01*
X7430656Y7800500D01*
X7308565Y7800500D01*
X7234065Y7820462D01*
X7203206Y7844141D01*
X6746847Y8300500D01*
X6206863Y8840485D01*
X6109837Y8896503D01*
X6001618Y8925500D01*
X5328184Y8925500D01*
X5253684Y8945462D01*
X5229379Y8962972D01*
X5096454Y9080732D01*
X5096452Y9080734D01*
X4945825Y9159790D01*
X4780656Y9200500D01*
X4610544Y9200500D01*
X4445375Y9159790D01*
X4294748Y9080734D01*
X4294746Y9080732D01*
X4294745Y9080732D01*
X4204182Y9000500D01*
X4167417Y8967929D01*
X4106070Y8879053D01*
X4070781Y8827929D01*
X4010460Y8668874D01*
X3989955Y8500000D01*
X-6649500Y8500000D01*
X-6649500Y10750000D01*
X13569355Y10750000D01*
X13589860Y10581125D01*
X13650181Y10422070D01*
X13746817Y10282071D01*
X13799306Y10235570D01*
X13841832Y10171225D01*
X13849500Y10124042D01*
X13849500Y3600957D01*
X13829538Y3526457D01*
X13799304Y3489428D01*
X13746817Y3442929D01*
X13650182Y3302930D01*
X13650181Y3302927D01*
X13650180Y3302926D01*
X13589860Y3143874D01*
X13569355Y2975000D01*
X13589860Y2806125D01*
X13650181Y2647070D01*
X13746817Y2507071D01*
X13746820Y2507067D01*
X13874146Y2394267D01*
X13874145Y2394267D01*
X14024775Y2315209D01*
X14189944Y2274500D01*
X14360056Y2274500D01*
X14525224Y2315209D01*
X14675854Y2394267D01*
X14803179Y2507067D01*
X14803180Y2507068D01*
X14803183Y2507071D01*
X14899818Y2647070D01*
X14904722Y2660000D01*
X14960139Y2806125D01*
X14960140Y2806128D01*
X14980645Y2975000D01*
X14960140Y3143872D01*
X14899818Y3302930D01*
X14803183Y3442929D01*
X14750696Y3489428D01*
X14708168Y3553772D01*
X14700500Y3600957D01*
X14700500Y10124042D01*
X14720462Y10198542D01*
X14750694Y10235570D01*
X14803183Y10282071D01*
X14899818Y10422070D01*
X14960140Y10581128D01*
X14980645Y10750000D01*
X14960140Y10918872D01*
X14899818Y11077930D01*
X14803183Y11217929D01*
X14675852Y11330734D01*
X14525225Y11409790D01*
X14360056Y11450500D01*
X14189944Y11450500D01*
X14024775Y11409790D01*
X13874148Y11330734D01*
X13874146Y11330732D01*
X13874145Y11330732D01*
X13746820Y11217932D01*
X13746817Y11217929D01*
X13709757Y11164238D01*
X13650181Y11077929D01*
X13589860Y10918874D01*
X13569355Y10750000D01*
X-6649500Y10750000D01*
X-6649500Y12960257D01*
X-6629538Y13034757D01*
X-6605859Y13065616D01*
X-4009490Y15661984D01*
X-3937015Y15787516D01*
X-3937014Y15787517D01*
X-3929515Y15815508D01*
X-3929515Y15815509D01*
X-3899500Y15927524D01*
X-3899500Y20517970D01*
X-3879538Y20592470D01*
X-3873125Y20602611D01*
X-3825182Y20672068D01*
X-3764860Y20831125D01*
X-3744355Y21000000D01*
X-3764860Y21168874D01*
X-3825181Y21327929D01*
X-3855113Y21371293D01*
X-3921817Y21467929D01*
X-3982823Y21521975D01*
X-4049146Y21580732D01*
X-4049148Y21580734D01*
X-4199775Y21659790D01*
X-4364944Y21700500D01*
X-4535056Y21700500D01*
X-4700225Y21659790D01*
X-4850852Y21580734D01*
X-4978183Y21467929D01*
X-5074818Y21327930D01*
X-5135140Y21168872D01*
X-5155645Y21000000D01*
X-5135140Y20831128D01*
X-5135139Y20831125D01*
X-5074817Y20672068D01*
X-5026875Y20602611D01*
X-5000983Y20529959D01*
X-5000500Y20517970D01*
X-5000500Y16289743D01*
X-5020462Y16215243D01*
X-5044141Y16184384D01*
X-7640510Y13588015D01*
X-7712981Y13462491D01*
X-7712984Y13462485D01*
X-7750500Y13322475D01*
X-7750500Y13322474D01*
X-7750500Y868027D01*
X-7770462Y793527D01*
X-7776866Y783398D01*
X-7824818Y713930D01*
X-7885140Y554872D01*
X-7905645Y386000D01*
X-7902157Y357275D01*
X-7912992Y280912D01*
X-7960558Y220197D01*
X-8032108Y191400D01*
X-8108471Y202235D01*
X-8155429Y233954D01*
X-9105859Y1184384D01*
X-9144423Y1251179D01*
X-9149500Y1289743D01*
X-9149500Y1767970D01*
X-9129538Y1842470D01*
X-9123125Y1852611D01*
X-9075182Y1922068D01*
X-9014860Y2081125D01*
X-8994355Y2250000D01*
X-9014860Y2418874D01*
X-9075181Y2577929D01*
X-9131831Y2660000D01*
X-9171817Y2717929D01*
X-9299146Y2830732D01*
X-9299148Y2830734D01*
X-9449775Y2909790D01*
X-9614944Y2950500D01*
X-9785056Y2950500D01*
X-9950225Y2909790D01*
X-10100852Y2830734D01*
X-10228183Y2717929D01*
X-10324818Y2577930D01*
X-10385140Y2418872D01*
X-10405645Y2250000D01*
X-14848252Y2250000D01*
X-20005604Y7407352D01*
X-31288737Y18690485D01*
X-31385763Y18746503D01*
X-31493982Y18775500D01*
X-33555417Y18775500D01*
X-33629917Y18795462D01*
X-33654222Y18812972D01*
X-33787146Y18930732D01*
X-33787147Y18930732D01*
X-33787149Y18930734D01*
X-33937776Y19009790D01*
X-34102945Y19050500D01*
X-34273057Y19050500D01*
X-34438226Y19009790D01*
X-34588853Y18930734D01*
X-34716184Y18817929D01*
X-34812819Y18677930D01*
X-34873141Y18518872D01*
X-34893646Y18350000D01*
X-41119004Y18350000D01*
X-41173609Y18396992D01*
X-41199083Y18469792D01*
X-41199500Y18480927D01*
X-41199500Y22669072D01*
X-41179538Y22743572D01*
X-41125000Y22798110D01*
X-41115149Y22803316D01*
X-40897370Y22908192D01*
X-40686780Y23051770D01*
X-40499946Y23225126D01*
X-40341045Y23424382D01*
X-40341040Y23424390D01*
X-40340876Y23424673D01*
X-40297386Y23500001D01*
X-40213608Y23645108D01*
X-40213605Y23645115D01*
X-40176391Y23739936D01*
X-40130591Y23801993D01*
X-40059898Y23832836D01*
X-40037691Y23834500D01*
X-27062309Y23834500D01*
X-26987809Y23814538D01*
X-26933271Y23760000D01*
X-26923609Y23739936D01*
X-26886393Y23645112D01*
X-26758959Y23424388D01*
X-26758954Y23424382D01*
X-26600053Y23225126D01*
X-26600050Y23225123D01*
X-26413217Y23051768D01*
X-26202634Y22908195D01*
X-26202631Y22908194D01*
X-26202629Y22908192D01*
X-25984851Y22803316D01*
X-25926390Y22753007D01*
X-25900917Y22680207D01*
X-25900500Y22669072D01*
X-25900500Y18480927D01*
X-25920462Y18406427D01*
X-25975000Y18351889D01*
X-25984824Y18346696D01*
X-26202634Y18241805D01*
X-26413217Y18098232D01*
X-26600050Y17924877D01*
X-26758959Y17725612D01*
X-26886393Y17504888D01*
X-26979508Y17267637D01*
X-27036222Y17019157D01*
X-27036222Y17019144D01*
X-27036223Y17019144D01*
X-27055268Y16765005D01*
X-27055268Y16764994D01*
X-27036227Y16510907D01*
X-27036222Y16510843D01*
X-26979508Y16262363D01*
X-26886393Y16025112D01*
X-26758959Y15804388D01*
X-26758954Y15804382D01*
X-26600053Y15605126D01*
X-26600050Y15605123D01*
X-26413217Y15431768D01*
X-26202634Y15288195D01*
X-26202631Y15288194D01*
X-26202629Y15288192D01*
X-25973013Y15177615D01*
X-25973009Y15177613D01*
X-25973004Y15177611D01*
X-25972996Y15177608D01*
X-25972992Y15177607D01*
X-25729463Y15102488D01*
X-25729461Y15102487D01*
X-25477437Y15064500D01*
X-25477435Y15064500D01*
X-25222562Y15064500D01*
X-24970538Y15102487D01*
X-24970536Y15102488D01*
X-24727007Y15177607D01*
X-24726998Y15177610D01*
X-24726996Y15177611D01*
X-24726994Y15177611D01*
X-24726986Y15177615D01*
X-24497370Y15288192D01*
X-24286780Y15431770D01*
X-24099946Y15605126D01*
X-23941045Y15804382D01*
X-23941040Y15804390D01*
X-23940876Y15804673D01*
X-23927575Y15827710D01*
X-23813608Y16025108D01*
X-23813605Y16025115D01*
X-23720491Y16262363D01*
X-23720490Y16262367D01*
X-23663779Y16510835D01*
X-23663776Y16510855D01*
X-23644732Y16764994D01*
X-23644732Y16765005D01*
X-23663776Y17019144D01*
X-23663779Y17019164D01*
X-23720490Y17267632D01*
X-23720491Y17267636D01*
X-23813605Y17504884D01*
X-23813608Y17504891D01*
X-23903039Y17659790D01*
X-23941041Y17725612D01*
X-23975855Y17769267D01*
X-24099946Y17924873D01*
X-24286359Y18097838D01*
X-24286783Y18098232D01*
X-24497366Y18241805D01*
X-24715151Y18346684D01*
X-24773609Y18396992D01*
X-24799083Y18469792D01*
X-24799500Y18480927D01*
X-24799500Y22669072D01*
X-24779538Y22743572D01*
X-24725000Y22798110D01*
X-24715149Y22803316D01*
X-24497370Y22908192D01*
X-24286780Y23051770D01*
X-24099946Y23225126D01*
X-23941045Y23424382D01*
X-23941040Y23424390D01*
X-23940876Y23424673D01*
X-23897386Y23500001D01*
X-23813608Y23645108D01*
X-23813605Y23645115D01*
X-23720491Y23882363D01*
X-23720490Y23882367D01*
X-23663779Y24130835D01*
X-23663776Y24130855D01*
X-23644732Y24384994D01*
X-23644732Y24385005D01*
X-23663776Y24639144D01*
X-23663779Y24639164D01*
X-23720490Y24887632D01*
X-23720491Y24887636D01*
X-23813605Y25124884D01*
X-23813608Y25124891D01*
X-23933221Y25332067D01*
X-23941041Y25345612D01*
X-24099950Y25544877D01*
X-24257730Y25691275D01*
X-24298764Y25756582D01*
X-24301648Y25833656D01*
X-24265609Y25901846D01*
X-24200302Y25942880D01*
X-24156384Y25949500D01*
X-10143616Y25949500D01*
X-10069116Y25929538D01*
X-10014578Y25875000D01*
X-9994616Y25800500D01*
X-10014578Y25726000D01*
X-10042270Y25691275D01*
X-10200050Y25544877D01*
X-10358959Y25345612D01*
X-10486393Y25124888D01*
X-10579508Y24887637D01*
X-10636222Y24639157D01*
X-10636222Y24639144D01*
X-10636223Y24639144D01*
X-10655268Y24385005D01*
X-10655268Y24384994D01*
X-10636227Y24130907D01*
X-10636222Y24130843D01*
X-10579508Y23882363D01*
X-10486393Y23645112D01*
X-10358959Y23424388D01*
X-10358954Y23424382D01*
X-10200053Y23225126D01*
X-10200050Y23225123D01*
X-10013217Y23051768D01*
X-9802634Y22908195D01*
X-9802631Y22908194D01*
X-9802629Y22908192D01*
X-9584851Y22803316D01*
X-9526390Y22753007D01*
X-9500917Y22680207D01*
X-9500500Y22669072D01*
X-9500500Y18480927D01*
X-9520462Y18406427D01*
X-9575000Y18351889D01*
X-9584824Y18346696D01*
X-9802634Y18241805D01*
X-10013217Y18098232D01*
X-10200050Y17924877D01*
X-10358959Y17725612D01*
X-10486393Y17504888D01*
X-10579508Y17267637D01*
X-10636222Y17019157D01*
X-10636222Y17019144D01*
X-10636223Y17019144D01*
X-10655268Y16765005D01*
X-10655268Y16764994D01*
X-10636227Y16510907D01*
X-10636222Y16510843D01*
X-10579508Y16262363D01*
X-10486393Y16025112D01*
X-10358959Y15804388D01*
X-10358954Y15804382D01*
X-10200053Y15605126D01*
X-10200050Y15605123D01*
X-10013217Y15431768D01*
X-9802634Y15288195D01*
X-9802631Y15288194D01*
X-9802629Y15288192D01*
X-9573013Y15177615D01*
X-9573009Y15177613D01*
X-9573004Y15177611D01*
X-9572996Y15177608D01*
X-9572992Y15177607D01*
X-9329463Y15102488D01*
X-9329461Y15102487D01*
X-9077437Y15064500D01*
X-9077435Y15064500D01*
X-8822562Y15064500D01*
X-8570538Y15102487D01*
X-8570536Y15102488D01*
X-8327007Y15177607D01*
X-8326998Y15177610D01*
X-8326996Y15177611D01*
X-8326994Y15177611D01*
X-8326986Y15177615D01*
X-8097370Y15288192D01*
X-7886780Y15431770D01*
X-7699946Y15605126D01*
X-7541045Y15804382D01*
X-7541040Y15804390D01*
X-7540876Y15804673D01*
X-7527575Y15827710D01*
X-7413608Y16025108D01*
X-7413605Y16025115D01*
X-7320491Y16262363D01*
X-7320490Y16262367D01*
X-7263779Y16510835D01*
X-7263776Y16510855D01*
X-7244732Y16764994D01*
X-7244732Y16765005D01*
X-7263776Y17019144D01*
X-7263779Y17019164D01*
X-7320490Y17267632D01*
X-7320491Y17267636D01*
X-7413605Y17504884D01*
X-7413608Y17504891D01*
X-7503039Y17659790D01*
X-7541041Y17725612D01*
X-7575855Y17769267D01*
X-7699946Y17924873D01*
X-7886359Y18097838D01*
X-7886783Y18098232D01*
X-8097366Y18241805D01*
X-8315151Y18346684D01*
X-8373609Y18396992D01*
X-8399083Y18469792D01*
X-8399500Y18480927D01*
X-8399500Y22669072D01*
X-8379538Y22743572D01*
X-8325000Y22798110D01*
X-8315149Y22803316D01*
X-8097370Y22908192D01*
X-7886780Y23051770D01*
X-7699946Y23225126D01*
X-7541045Y23424382D01*
X-7541040Y23424390D01*
X-7540876Y23424673D01*
X-7497386Y23500001D01*
X-7413608Y23645108D01*
X-7413605Y23645115D01*
X-7320491Y23882363D01*
X-7320490Y23882367D01*
X-7263779Y24130835D01*
X-7263776Y24130855D01*
X-7244732Y24384994D01*
X-7244732Y24385005D01*
X-7263776Y24639144D01*
X-7263779Y24639164D01*
X-7320490Y24887632D01*
X-7320491Y24887636D01*
X-7413605Y25124884D01*
X-7413608Y25124891D01*
X-7533221Y25332067D01*
X-7541041Y25345612D01*
X-7699950Y25544877D01*
X-7857730Y25691275D01*
X-7898764Y25756582D01*
X-7901648Y25833656D01*
X-7865609Y25901846D01*
X-7800302Y25942880D01*
X-7756384Y25949500D01*
X-7489743Y25949500D01*
X-7415243Y25929538D01*
X-7384384Y25905859D01*
X5061985Y13459489D01*
X5072294Y13453538D01*
X5126832Y13399001D01*
X5146795Y13324501D01*
X5126833Y13250001D01*
X5072296Y13195463D01*
X4997796Y13175500D01*
X182584Y13175500D01*
X108084Y13195462D01*
X83779Y13212972D01*
X-49145Y13330732D01*
X-49146Y13330732D01*
X-49148Y13330734D01*
X-199775Y13409790D01*
X-364944Y13450500D01*
X-535056Y13450500D01*
X-700225Y13409790D01*
X-850852Y13330734D01*
X-978183Y13217929D01*
X-1074818Y13077930D01*
X-1135140Y12918872D01*
X-1155645Y12750000D01*
X-1135140Y12581128D01*
X-1074818Y12422070D01*
X-978183Y12282071D01*
X-978180Y12282068D01*
X-978179Y12282067D01*
X-850853Y12169267D01*
X-850854Y12169267D01*
X-700224Y12090209D01*
X-535056Y12049500D01*
X-364944Y12049500D01*
X-199775Y12090209D01*
X-49145Y12169267D01*
X83779Y12287028D01*
X152780Y12321489D01*
X182584Y12324500D01*
X14312034Y12324500D01*
X14386534Y12304538D01*
X14417393Y12280859D01*
X15830859Y10867393D01*
X15869423Y10800598D01*
X15874500Y10762034D01*
X15874500Y193980D01*
X15903498Y85761D01*
X15959512Y-11259D01*
X15959513Y-11260D01*
X15959515Y-11263D01*
X24709515Y-8761263D01*
X24788737Y-8840485D01*
X24788739Y-8840486D01*
X24788740Y-8840487D01*
X24812092Y-8853969D01*
X24885763Y-8896503D01*
X24993982Y-8925500D01*
X45888959Y-8925500D01*
X45963459Y-8945462D01*
X46017997Y-9000000D01*
X46037959Y-9074500D01*
X46017997Y-9149000D01*
X46011589Y-9159131D01*
X45984809Y-9197930D01*
X45930181Y-9277070D01*
X45869860Y-9436125D01*
X45859607Y-9520564D01*
X45849963Y-9599999D01*
X45849355Y-9605003D01*
X45851859Y-9625632D01*
X45841020Y-9701995D01*
X45809304Y-9748946D01*
X43627393Y-11930859D01*
X43560598Y-11969423D01*
X43522034Y-11974500D01*
X-3362034Y-11974500D01*
X-3436534Y-11954538D01*
X-3467393Y-11930859D01*
X-30354304Y14956052D01*
X-30392868Y15022847D01*
X-30396859Y15079365D01*
X-30394355Y15099994D01*
X-30394355Y15099996D01*
X-30394658Y15102488D01*
X-30414860Y15268872D01*
X-30414860Y15268874D01*
X-30475181Y15427929D01*
X-30565919Y15559384D01*
X-30571817Y15567929D01*
X-30613801Y15605123D01*
X-30699146Y15680732D01*
X-30699148Y15680734D01*
X-30849775Y15759790D01*
X-31014944Y15800500D01*
X-31185056Y15800500D01*
X-31350225Y15759790D01*
X-31500852Y15680734D01*
X-31628183Y15567929D01*
X-31724818Y15427930D01*
X-31785140Y15268872D01*
X-31805645Y15100000D01*
X-31785140Y14931128D01*
X-31785139Y14931125D01*
X-31747214Y14831125D01*
X-31724818Y14772070D01*
X-31628183Y14632071D01*
X-31628180Y14632068D01*
X-31628179Y14632067D01*
X-31500853Y14519267D01*
X-31500854Y14519267D01*
X-31350224Y14440209D01*
X-31185056Y14399500D01*
X-31062966Y14399500D01*
X-30988466Y14379538D01*
X-30957607Y14355859D01*
X-3940485Y-12661263D01*
X-3861263Y-12740485D01*
X-3764237Y-12796503D01*
X-3656018Y-12825500D01*
X43816018Y-12825500D01*
X43924237Y-12796503D01*
X44021263Y-12740485D01*
X46412606Y-10349140D01*
X46479401Y-10310577D01*
X46517965Y-10305500D01*
X46640056Y-10305500D01*
X46805225Y-10264790D01*
X46955852Y-10185734D01*
X47083183Y-10072929D01*
X47179818Y-9932930D01*
X47240140Y-9773872D01*
X47260645Y-9605000D01*
X47240140Y-9436128D01*
X47240138Y-9436123D01*
X47240138Y-9436121D01*
X47190429Y-9305048D01*
X47182676Y-9228311D01*
X47214330Y-9157978D01*
X47276910Y-9112895D01*
X47353647Y-9105142D01*
X47423980Y-9136796D01*
X47435105Y-9146853D01*
X49184304Y-10896052D01*
X49222868Y-10962847D01*
X49226859Y-11019365D01*
X49224355Y-11039994D01*
X49224355Y-11039996D01*
X49244860Y-11208874D01*
X49305181Y-11367929D01*
X49305182Y-11367930D01*
X49401817Y-11507929D01*
X49401819Y-11507930D01*
X49401820Y-11507932D01*
X49529146Y-11620732D01*
X49529148Y-11620734D01*
X49679775Y-11699790D01*
X49844944Y-11740500D01*
X50015056Y-11740500D01*
X50180225Y-11699790D01*
X50330852Y-11620734D01*
X50458183Y-11507929D01*
X50554818Y-11367930D01*
X50615140Y-11208872D01*
X50635645Y-11040000D01*
X50615140Y-10871128D01*
X50603518Y-10840484D01*
X50554818Y-10712070D01*
X50458183Y-10572071D01*
X50458180Y-10572068D01*
X50458179Y-10572067D01*
X50330853Y-10459267D01*
X50330854Y-10459267D01*
X50180224Y-10380209D01*
X50015056Y-10339500D01*
X49892966Y-10339500D01*
X49818466Y-10319538D01*
X49787607Y-10295859D01*
X48720059Y-9228311D01*
X47651263Y-8159515D01*
X47651260Y-8159513D01*
X47651259Y-8159512D01*
X47591072Y-8124763D01*
X47554237Y-8103497D01*
X47446018Y-8074500D01*
X25287966Y-8074500D01*
X25213466Y-8054538D01*
X25182607Y-8030859D01*
X16769141Y382607D01*
X16730577Y449402D01*
X16725500Y487966D01*
X16725500Y11056017D01*
X16725500Y11056018D01*
X16696503Y11164237D01*
X16640485Y11261263D01*
X16561263Y11340485D01*
X14811263Y13090485D01*
X14811260Y13090486D01*
X14806606Y13095141D01*
X14768042Y13161936D01*
X14768042Y13239064D01*
X14806606Y13305859D01*
X14873401Y13344423D01*
X14911965Y13349500D01*
X18860257Y13349500D01*
X18934757Y13329538D01*
X18965616Y13305859D01*
X24711984Y7559490D01*
X24815026Y7500000D01*
X24815025Y7499999D01*
X24837512Y7487017D01*
X24837514Y7487016D01*
X24837515Y7487016D01*
X24866069Y7479365D01*
X24977523Y7449500D01*
X24977525Y7449500D01*
X24977526Y7449500D01*
X25122474Y7449500D01*
X36010257Y7449500D01*
X36084757Y7429538D01*
X36115616Y7405859D01*
X42691985Y829489D01*
X42812845Y759711D01*
X42812847Y759711D01*
X42814819Y758572D01*
X42817514Y757016D01*
X42957524Y719500D01*
X42957525Y719500D01*
X50649826Y719500D01*
X50724326Y699538D01*
X50768730Y660293D01*
X50896127Y491593D01*
X51053697Y347948D01*
X51053698Y347947D01*
X51234977Y235703D01*
X51234983Y235700D01*
X51433795Y158681D01*
X51433800Y158679D01*
X51499150Y146463D01*
X51568713Y113150D01*
X51612301Y49519D01*
X51618233Y-27380D01*
X51584920Y-96943D01*
X51521289Y-140531D01*
X51499152Y-146461D01*
X51479454Y-150144D01*
X51433803Y-158677D01*
X51433795Y-158680D01*
X51234983Y-235699D01*
X51234977Y-235702D01*
X51053698Y-347946D01*
X51053697Y-347947D01*
X50896127Y-491592D01*
X50767636Y-661739D01*
X50672594Y-852611D01*
X50672593Y-852613D01*
X50614243Y-1057693D01*
X50594571Y-1269994D01*
X50594571Y-1270003D01*
X50614243Y-1482304D01*
X50672593Y-1687384D01*
X50672594Y-1687386D01*
X50767636Y-1878258D01*
X50896127Y-2048405D01*
X51053697Y-2192050D01*
X51053698Y-2192051D01*
X51234977Y-2304295D01*
X51234983Y-2304298D01*
X51322189Y-2338081D01*
X51433802Y-2381320D01*
X51499153Y-2393536D01*
X51568717Y-2426848D01*
X51612305Y-2490478D01*
X51618238Y-2567377D01*
X51584926Y-2636941D01*
X51521296Y-2680529D01*
X51499155Y-2686462D01*
X51433801Y-2698679D01*
X51433795Y-2698681D01*
X51234983Y-2775700D01*
X51234977Y-2775703D01*
X51053698Y-2887947D01*
X51053697Y-2887948D01*
X50896127Y-3031593D01*
X50767636Y-3201740D01*
X50672594Y-3392612D01*
X50672593Y-3392614D01*
X50614243Y-3597694D01*
X50594571Y-3809995D01*
X50594571Y-3810004D01*
X50614243Y-4022305D01*
X50672593Y-4227385D01*
X50672594Y-4227387D01*
X50767636Y-4418259D01*
X50889876Y-4580128D01*
X50896128Y-4588407D01*
X50914555Y-4605205D01*
X51053697Y-4732051D01*
X51053698Y-4732052D01*
X51234977Y-4844296D01*
X51234983Y-4844299D01*
X51322189Y-4878082D01*
X51433802Y-4921321D01*
X51643390Y-4960500D01*
X51643393Y-4960500D01*
X51856607Y-4960500D01*
X51856610Y-4960500D01*
X52066198Y-4921321D01*
X52265019Y-4844298D01*
X52446302Y-4732052D01*
X52603872Y-4588407D01*
X52732366Y-4418255D01*
X52827405Y-4227389D01*
X52885756Y-4022310D01*
X52896856Y-3902523D01*
X52905429Y-3810004D01*
X52905429Y-3809995D01*
X52885756Y-3597694D01*
X52885756Y-3597690D01*
X52827405Y-3392611D01*
X52732366Y-3201745D01*
X52732364Y-3201743D01*
X52732363Y-3201740D01*
X52603872Y-3031593D01*
X52446302Y-2887948D01*
X52446301Y-2887947D01*
X52265022Y-2775703D01*
X52265016Y-2775700D01*
X52066204Y-2698681D01*
X52066199Y-2698679D01*
X52000844Y-2686462D01*
X51931281Y-2653149D01*
X51887694Y-2589519D01*
X51881761Y-2512619D01*
X51915074Y-2443056D01*
X51978704Y-2399469D01*
X52000840Y-2393537D01*
X52066198Y-2381320D01*
X52265019Y-2304297D01*
X52446302Y-2192051D01*
X52603872Y-2048406D01*
X52732366Y-1878254D01*
X52827405Y-1687388D01*
X52885756Y-1482309D01*
X52905429Y-1269999D01*
X52901806Y-1230904D01*
X52890603Y-1109999D01*
X52885756Y-1057689D01*
X52827405Y-852610D01*
X52732366Y-661744D01*
X52732364Y-661742D01*
X52732363Y-661739D01*
X52603872Y-491592D01*
X52446302Y-347947D01*
X52446301Y-347946D01*
X52265022Y-235702D01*
X52265016Y-235699D01*
X52066204Y-158680D01*
X52066196Y-158677D01*
X52031040Y-152105D01*
X52000849Y-146462D01*
X51931287Y-113152D01*
X51887699Y-49522D01*
X51883878Y0D01*
X57444958Y0D01*
X57465104Y-320223D01*
X57465105Y-320233D01*
X57525230Y-635416D01*
X57624379Y-940565D01*
X57624387Y-940586D01*
X57761001Y-1230904D01*
X57932924Y-1501810D01*
X58137456Y-1749048D01*
X58371351Y-1968690D01*
X58371360Y-1968697D01*
X58630936Y-2157291D01*
X58912108Y-2311867D01*
X58912116Y-2311871D01*
X59210443Y-2429986D01*
X59210452Y-2429989D01*
X59521236Y-2509785D01*
X59839566Y-2549999D01*
X59839568Y-2550000D01*
X60160432Y-2550000D01*
X60160433Y-2549999D01*
X60478763Y-2509785D01*
X60789547Y-2429989D01*
X60789556Y-2429986D01*
X61087883Y-2311871D01*
X61087891Y-2311867D01*
X61369063Y-2157291D01*
X61628639Y-1968697D01*
X61628648Y-1968690D01*
X61862543Y-1749048D01*
X62067075Y-1501810D01*
X62238998Y-1230904D01*
X62375612Y-940586D01*
X62375620Y-940565D01*
X62474769Y-635416D01*
X62534894Y-320233D01*
X62534895Y-320223D01*
X62555042Y0D01*
X62534895Y320223D01*
X62534894Y320233D01*
X62474769Y635416D01*
X62375620Y940565D01*
X62375612Y940586D01*
X62238998Y1230904D01*
X62067075Y1501810D01*
X61862543Y1749048D01*
X61628648Y1968690D01*
X61628639Y1968697D01*
X61369063Y2157291D01*
X61087891Y2311867D01*
X61087883Y2311871D01*
X60789556Y2429986D01*
X60789547Y2429989D01*
X60478763Y2509785D01*
X60160433Y2549999D01*
X60160432Y2550000D01*
X59839568Y2550000D01*
X59839566Y2549999D01*
X59521236Y2509785D01*
X59210452Y2429989D01*
X59210443Y2429986D01*
X58912116Y2311871D01*
X58912108Y2311867D01*
X58630936Y2157291D01*
X58371360Y1968697D01*
X58371351Y1968690D01*
X58137456Y1749048D01*
X57932924Y1501810D01*
X57761001Y1230904D01*
X57624387Y940586D01*
X57624379Y940565D01*
X57525230Y635416D01*
X57465105Y320233D01*
X57465104Y320223D01*
X57444958Y0D01*
X51883878Y0D01*
X51881766Y27378D01*
X51915077Y96942D01*
X51978707Y140530D01*
X52000849Y146463D01*
X52066199Y158679D01*
X52066204Y158681D01*
X52265016Y235700D01*
X52265022Y235703D01*
X52446301Y347947D01*
X52446302Y347948D01*
X52603872Y491593D01*
X52732363Y661740D01*
X52732364Y661743D01*
X52732366Y661745D01*
X52827405Y852611D01*
X52885756Y1057690D01*
X52897496Y1184384D01*
X52905429Y1269995D01*
X52905429Y1270004D01*
X52885756Y1482305D01*
X52885756Y1482310D01*
X52827405Y1687389D01*
X52732366Y1878255D01*
X52731269Y1879707D01*
X52728936Y1882795D01*
X52603872Y2048407D01*
X52446302Y2192052D01*
X52265019Y2304298D01*
X52090094Y2372063D01*
X52027840Y2417588D01*
X51996686Y2488144D01*
X52004983Y2564824D01*
X52050510Y2627082D01*
X52121066Y2658236D01*
X52143922Y2660000D01*
X52644794Y2660000D01*
X52669874Y2662909D01*
X52772477Y2708212D01*
X52851786Y2787521D01*
X52897091Y2890128D01*
X52899999Y2915204D01*
X52899999Y3700000D01*
X61044659Y3700000D01*
X61063976Y3503865D01*
X61121187Y3315268D01*
X61214083Y3141473D01*
X61214088Y3141465D01*
X61214090Y3141462D01*
X61339117Y2989117D01*
X61491462Y2864090D01*
X61491463Y2864089D01*
X61491465Y2864088D01*
X61491473Y2864083D01*
X61665268Y2771187D01*
X61853865Y2713976D01*
X62050000Y2694659D01*
X62246134Y2713976D01*
X62434731Y2771187D01*
X62608526Y2864083D01*
X62608534Y2864088D01*
X62608538Y2864090D01*
X62760883Y2989117D01*
X62885910Y3141462D01*
X62924810Y3214238D01*
X62978812Y3315268D01*
X63001630Y3390486D01*
X63036024Y3503868D01*
X63055341Y3700000D01*
X63036024Y3896132D01*
X62978814Y4084727D01*
X62885910Y4258538D01*
X62760883Y4410883D01*
X62608538Y4535910D01*
X62434727Y4628814D01*
X62246132Y4686024D01*
X62050000Y4705341D01*
X61853868Y4686024D01*
X61665273Y4628814D01*
X61665270Y4628812D01*
X61665268Y4628812D01*
X61491473Y4535916D01*
X61491462Y4535910D01*
X61339117Y4410883D01*
X61214090Y4258538D01*
X61214088Y4258534D01*
X61214083Y4258526D01*
X61121187Y4084731D01*
X61063976Y3896134D01*
X61044659Y3700000D01*
X52899999Y3700000D01*
X52899999Y4704794D01*
X52897090Y4729874D01*
X52851787Y4832477D01*
X52851787Y4832478D01*
X52772478Y4911786D01*
X52669871Y4957091D01*
X52644795Y4959999D01*
X50855205Y4959999D01*
X50830125Y4957090D01*
X50727522Y4911787D01*
X50648213Y4832478D01*
X50602908Y4729871D01*
X50600000Y4704795D01*
X50600000Y2915205D01*
X50602909Y2890125D01*
X50648212Y2787522D01*
X50727522Y2708213D01*
X50727521Y2708213D01*
X50830128Y2662908D01*
X50855204Y2660000D01*
X51356076Y2660000D01*
X51430576Y2640038D01*
X51485114Y2585500D01*
X51505076Y2511000D01*
X51485114Y2436500D01*
X51430576Y2381962D01*
X51409909Y2372065D01*
X51234981Y2304298D01*
X51234978Y2304296D01*
X51234975Y2304295D01*
X51084725Y2211263D01*
X51053698Y2192052D01*
X50952723Y2100000D01*
X50896127Y2048406D01*
X50768730Y1879707D01*
X50707903Y1832285D01*
X50649826Y1820500D01*
X43319743Y1820500D01*
X43245243Y1840462D01*
X43214384Y1864141D01*
X39933063Y5145462D01*
X36638015Y8440510D01*
X36512485Y8512984D01*
X36433650Y8534108D01*
X36372475Y8550500D01*
X25339743Y8550500D01*
X25265243Y8570462D01*
X25234384Y8594141D01*
X22378025Y11450500D01*
X19488015Y14340510D01*
X19362485Y14412984D01*
X19222475Y14450500D01*
X5689743Y14450500D01*
X5615243Y14470462D01*
X5584384Y14494141D01*
X4397791Y15680734D01*
X676341Y19402182D01*
X637779Y19468975D01*
X637779Y19546103D01*
X676343Y19612898D01*
X743138Y19651462D01*
X746044Y19652209D01*
X900226Y19690211D01*
X1050855Y19769268D01*
X1056442Y19773125D01*
X1129095Y19799016D01*
X1141082Y19799499D01*
X17831018Y19799499D01*
X17860015Y19807268D01*
X17939236Y19828496D01*
X17976071Y19849762D01*
X18036258Y19884511D01*
X18036259Y19884512D01*
X18036262Y19884514D01*
X18657606Y20505859D01*
X18724401Y20544423D01*
X18762965Y20549500D01*
X18885056Y20549500D01*
X19050224Y20590209D01*
X19200854Y20669267D01*
X19328179Y20782067D01*
X19328180Y20782068D01*
X19328183Y20782071D01*
X19424818Y20922070D01*
X19485140Y21081128D01*
X19505645Y21250000D01*
X19485140Y21418872D01*
X19424818Y21577930D01*
X19328183Y21717929D01*
X19200852Y21830734D01*
X19050225Y21909790D01*
X18885056Y21950500D01*
X18714944Y21950500D01*
X18549775Y21909790D01*
X18391167Y21826545D01*
X18389943Y21828875D01*
X18330764Y21807779D01*
X18254898Y21821675D01*
X18224673Y21847379D01*
X18257810Y21789985D01*
X18257810Y21712857D01*
X18236512Y21666781D01*
X18199433Y21613064D01*
X18175181Y21577929D01*
X18114860Y21418874D01*
X18114860Y21418872D01*
X18103818Y21327929D01*
X18094355Y21249996D01*
X18094355Y21249994D01*
X18096859Y21229365D01*
X18086019Y21153002D01*
X18054304Y21106052D01*
X17642392Y20694140D01*
X17575597Y20655576D01*
X17537033Y20650499D01*
X17161964Y20650499D01*
X17087464Y20670461D01*
X17032926Y20724999D01*
X17012964Y20799499D01*
X17032926Y20873999D01*
X17056601Y20904853D01*
X18008528Y21856780D01*
X18075323Y21895344D01*
X18152451Y21895344D01*
X18201724Y21866895D01*
X18196144Y21871642D01*
X18170245Y21944292D01*
X18184141Y22020158D01*
X18213402Y22061654D01*
X18657607Y22505859D01*
X18724402Y22544423D01*
X18762966Y22549500D01*
X18885056Y22549500D01*
X19050224Y22590209D01*
X19200854Y22669267D01*
X19328179Y22782067D01*
X19328180Y22782068D01*
X19328183Y22782071D01*
X19424818Y22922070D01*
X19439400Y22960520D01*
X19485139Y23081125D01*
X19485140Y23081128D01*
X19505645Y23250000D01*
X19485140Y23418872D01*
X19424818Y23577930D01*
X19408990Y23600859D01*
X19383099Y23673512D01*
X19397002Y23749376D01*
X19446975Y23808125D01*
X19519628Y23834017D01*
X19531616Y23834500D01*
X22137691Y23834500D01*
X22212191Y23814538D01*
X22266729Y23760000D01*
X22276391Y23739936D01*
X22313605Y23645115D01*
X22313608Y23645108D01*
X22397386Y23500001D01*
X22440876Y23424673D01*
X22441040Y23424390D01*
X22441045Y23424382D01*
X22599946Y23225126D01*
X22786780Y23051770D01*
X22997370Y22908192D01*
X23215149Y22803316D01*
X23273610Y22753007D01*
X23299083Y22680207D01*
X23299500Y22669072D01*
X23299500Y18480927D01*
X23279538Y18406427D01*
X23225000Y18351889D01*
X23215175Y18346696D01*
X22997366Y18241805D01*
X22786783Y18098232D01*
X22786359Y18097838D01*
X22599946Y17924873D01*
X22475855Y17769267D01*
X22441041Y17725612D01*
X22403039Y17659790D01*
X22313608Y17504891D01*
X22313605Y17504884D01*
X22276391Y17410064D01*
X22230591Y17348007D01*
X22159898Y17317164D01*
X22137691Y17315500D01*
X9162309Y17315500D01*
X9087809Y17335462D01*
X9033271Y17390000D01*
X9023609Y17410064D01*
X8986393Y17504888D01*
X8858959Y17725612D01*
X8700050Y17924877D01*
X8513217Y18098232D01*
X8302634Y18241805D01*
X8073004Y18352389D01*
X7829458Y18427513D01*
X7577435Y18465500D01*
X7322565Y18465500D01*
X7070542Y18427513D01*
X7070539Y18427512D01*
X7070538Y18427512D01*
X7070536Y18427511D01*
X6826996Y18352389D01*
X6597366Y18241805D01*
X6386783Y18098232D01*
X6386359Y18097838D01*
X6199946Y17924873D01*
X6075855Y17769267D01*
X6041041Y17725612D01*
X6003039Y17659790D01*
X5913608Y17504891D01*
X5913605Y17504884D01*
X5820491Y17267636D01*
X5820490Y17267632D01*
X5763779Y17019164D01*
X5763776Y17019144D01*
X5744732Y16765005D01*
X5744732Y16764994D01*
X5763776Y16510855D01*
X5763779Y16510835D01*
X5820490Y16262367D01*
X5820491Y16262363D01*
X5913605Y16025115D01*
X5913608Y16025108D01*
X6027575Y15827710D01*
X6040876Y15804673D01*
X6041040Y15804390D01*
X6041045Y15804382D01*
X6199946Y15605126D01*
X6386780Y15431770D01*
X6597370Y15288192D01*
X6826986Y15177615D01*
X6826994Y15177611D01*
X6826996Y15177611D01*
X6826998Y15177610D01*
X6827007Y15177607D01*
X7070536Y15102488D01*
X7070538Y15102487D01*
X7322562Y15064500D01*
X7322565Y15064500D01*
X7577437Y15064500D01*
X7829461Y15102487D01*
X7829463Y15102488D01*
X8072992Y15177607D01*
X8072996Y15177608D01*
X8073004Y15177611D01*
X8073009Y15177613D01*
X8073013Y15177615D01*
X8302629Y15288192D01*
X8302631Y15288194D01*
X8302634Y15288195D01*
X8513217Y15431768D01*
X8700050Y15605123D01*
X8700053Y15605126D01*
X8858954Y15804382D01*
X8858959Y15804388D01*
X8986393Y16025112D01*
X9023609Y16119936D01*
X9069409Y16181993D01*
X9140102Y16212836D01*
X9162309Y16214500D01*
X22137691Y16214500D01*
X22212191Y16194538D01*
X22266729Y16140000D01*
X22276391Y16119936D01*
X22313605Y16025115D01*
X22313608Y16025108D01*
X22427575Y15827710D01*
X22440876Y15804673D01*
X22441040Y15804390D01*
X22441045Y15804382D01*
X22599946Y15605126D01*
X22786780Y15431770D01*
X22997370Y15288192D01*
X23226986Y15177615D01*
X23226994Y15177611D01*
X23226996Y15177611D01*
X23226998Y15177610D01*
X23227007Y15177607D01*
X23470536Y15102488D01*
X23470538Y15102487D01*
X23722562Y15064500D01*
X23722565Y15064500D01*
X23977437Y15064500D01*
X24229461Y15102487D01*
X24229463Y15102488D01*
X24472992Y15177607D01*
X24472996Y15177608D01*
X24473004Y15177611D01*
X24473009Y15177613D01*
X24473013Y15177615D01*
X24702629Y15288192D01*
X24702631Y15288194D01*
X24702634Y15288195D01*
X24913217Y15431768D01*
X25100050Y15605123D01*
X25100053Y15605126D01*
X25258954Y15804382D01*
X25258959Y15804388D01*
X25386393Y16025112D01*
X25479508Y16262363D01*
X25536222Y16510843D01*
X25536227Y16510907D01*
X25555268Y16764994D01*
X25555268Y16765004D01*
X38545233Y16765004D01*
X38545233Y16764995D01*
X38564272Y16510929D01*
X38564275Y16510907D01*
X38620968Y16262518D01*
X38620970Y16262511D01*
X38714056Y16025333D01*
X38714058Y16025328D01*
X38841454Y15804673D01*
X38841459Y15804665D01*
X39000316Y15605463D01*
X39187095Y15432158D01*
X39397618Y15288627D01*
X39627169Y15178081D01*
X39627190Y15178073D01*
X39870648Y15102976D01*
X39870652Y15102975D01*
X40122599Y15065000D01*
X40377400Y15065000D01*
X40629347Y15102975D01*
X40629351Y15102976D01*
X40872812Y15178074D01*
X40872817Y15178075D01*
X41102377Y15288624D01*
X41312907Y15432161D01*
X41499683Y15605463D01*
X41658540Y15804665D01*
X41658545Y15804673D01*
X41785941Y16025328D01*
X41785943Y16025333D01*
X41879029Y16262511D01*
X41879031Y16262518D01*
X41935724Y16510907D01*
X41935727Y16510929D01*
X41954767Y16764995D01*
X41954767Y16765004D01*
X41935727Y17019070D01*
X41935724Y17019092D01*
X41879031Y17267481D01*
X41879029Y17267488D01*
X41785943Y17504666D01*
X41785941Y17504671D01*
X41658545Y17725326D01*
X41658540Y17725334D01*
X41499683Y17924536D01*
X41312907Y18097838D01*
X41102377Y18241375D01*
X40872817Y18351924D01*
X40872812Y18351925D01*
X40629351Y18427023D01*
X40629347Y18427024D01*
X40377400Y18464999D01*
X40377394Y18465000D01*
X40122606Y18465000D01*
X40122599Y18464999D01*
X39870652Y18427024D01*
X39870648Y18427023D01*
X39627190Y18351926D01*
X39627169Y18351918D01*
X39397618Y18241372D01*
X39187095Y18097841D01*
X39000316Y17924536D01*
X38841459Y17725334D01*
X38841454Y17725326D01*
X38714058Y17504671D01*
X38714056Y17504666D01*
X38620970Y17267488D01*
X38620968Y17267481D01*
X38564275Y17019092D01*
X38564272Y17019070D01*
X38545233Y16765004D01*
X25555268Y16765004D01*
X25555268Y16765005D01*
X25536223Y17019144D01*
X25536222Y17019144D01*
X25536222Y17019157D01*
X25479508Y17267637D01*
X25386393Y17504888D01*
X25258959Y17725612D01*
X25100050Y17924877D01*
X24913217Y18098232D01*
X24702634Y18241805D01*
X24484848Y18346684D01*
X24426391Y18396992D01*
X24400917Y18469792D01*
X24400500Y18480927D01*
X24400500Y22669072D01*
X24420462Y22743572D01*
X24475000Y22798110D01*
X24484851Y22803316D01*
X24702629Y22908192D01*
X24702631Y22908194D01*
X24702634Y22908195D01*
X24913217Y23051768D01*
X25100050Y23225123D01*
X25100053Y23225126D01*
X25258954Y23424382D01*
X25258959Y23424388D01*
X25386393Y23645112D01*
X25479508Y23882363D01*
X25536222Y24130843D01*
X25536227Y24130907D01*
X25555268Y24384994D01*
X25555268Y24385004D01*
X38545233Y24385004D01*
X38545233Y24384995D01*
X38564272Y24130929D01*
X38564275Y24130907D01*
X38620968Y23882518D01*
X38620970Y23882511D01*
X38714056Y23645333D01*
X38714058Y23645328D01*
X38841454Y23424673D01*
X38841459Y23424665D01*
X39000316Y23225463D01*
X39187095Y23052158D01*
X39397618Y22908627D01*
X39627169Y22798081D01*
X39627190Y22798073D01*
X39870648Y22722976D01*
X39870652Y22722975D01*
X40122599Y22685000D01*
X40377400Y22685000D01*
X40629347Y22722975D01*
X40629351Y22722976D01*
X40872812Y22798074D01*
X40872817Y22798075D01*
X41102377Y22908624D01*
X41312907Y23052161D01*
X41499683Y23225463D01*
X41658540Y23424665D01*
X41658545Y23424673D01*
X41785941Y23645328D01*
X41785943Y23645333D01*
X41879029Y23882511D01*
X41879031Y23882518D01*
X41935724Y24130907D01*
X41935727Y24130929D01*
X41954767Y24384995D01*
X41954767Y24385004D01*
X41935727Y24639070D01*
X41935724Y24639092D01*
X41879031Y24887481D01*
X41879029Y24887488D01*
X41785943Y25124666D01*
X41785941Y25124671D01*
X41658545Y25345326D01*
X41658540Y25345334D01*
X41499683Y25544536D01*
X41312907Y25717838D01*
X41102377Y25861375D01*
X40872817Y25971924D01*
X40872812Y25971925D01*
X40629351Y26047023D01*
X40629347Y26047024D01*
X40377400Y26084999D01*
X40377394Y26085000D01*
X40122606Y26085000D01*
X40122599Y26084999D01*
X39870652Y26047024D01*
X39870648Y26047023D01*
X39627190Y25971926D01*
X39627169Y25971918D01*
X39397618Y25861372D01*
X39187095Y25717841D01*
X39000316Y25544536D01*
X38841459Y25345334D01*
X38841454Y25345326D01*
X38714058Y25124671D01*
X38714056Y25124666D01*
X38620970Y24887488D01*
X38620968Y24887481D01*
X38564275Y24639092D01*
X38564272Y24639070D01*
X38545233Y24385004D01*
X25555268Y24385004D01*
X25555268Y24385005D01*
X25536223Y24639144D01*
X25536222Y24639144D01*
X25536222Y24639157D01*
X25479508Y24887637D01*
X25386393Y25124888D01*
X25258959Y25345612D01*
X25100050Y25544877D01*
X24913217Y25718232D01*
X24841114Y25767390D01*
X24790805Y25825851D01*
X24776466Y25901634D01*
X24801939Y25974434D01*
X24860400Y26024744D01*
X24925049Y26039500D01*
X28470257Y26039500D01*
X28544757Y26019538D01*
X28575616Y25995858D01*
X28818070Y25753402D01*
X28856634Y25686607D01*
X28860624Y25666007D01*
X28864858Y25631135D01*
X28864860Y25631126D01*
X28925181Y25472071D01*
X29021817Y25332071D01*
X29021820Y25332067D01*
X29149146Y25219267D01*
X29149145Y25219267D01*
X29299775Y25140209D01*
X29464944Y25099500D01*
X29635056Y25099500D01*
X29800224Y25140209D01*
X29950854Y25219267D01*
X30078179Y25332067D01*
X30078180Y25332068D01*
X30078183Y25332071D01*
X30174818Y25472070D01*
X30197214Y25531125D01*
X30235139Y25631125D01*
X30235139Y25631126D01*
X30235140Y25631128D01*
X30255645Y25800000D01*
X30235140Y25968872D01*
X30174818Y26127930D01*
X30078183Y26267929D01*
X29950852Y26380734D01*
X29800225Y26459790D01*
X29666051Y26492860D01*
X29598498Y26530069D01*
X29596403Y26532121D01*
X29098015Y27030510D01*
X28972485Y27102984D01*
X28832475Y27140500D01*
X-4076296Y27140500D01*
X-4145536Y27157565D01*
X-4149775Y27159790D01*
X-4314944Y27200500D01*
X-4485056Y27200500D01*
X-4650225Y27159790D01*
X-4800852Y27080734D01*
X-4928183Y26967929D01*
X-5024818Y26827930D01*
X-5085140Y26668872D01*
X-5105645Y26500000D01*
X-5085140Y26331128D01*
X-5024818Y26172070D01*
X-4928183Y26032071D01*
X-4928180Y26032068D01*
X-4928179Y26032067D01*
X-4800853Y25919267D01*
X-4800854Y25919267D01*
X-4650224Y25840209D01*
X-4485056Y25799500D01*
X-4314944Y25799500D01*
X-4149775Y25840209D01*
X-3999145Y25919267D01*
X-3905728Y26002028D01*
X-3836727Y26036489D01*
X-3806923Y26039500D01*
X6374951Y26039500D01*
X6449451Y26019538D01*
X6503989Y25965000D01*
X6523951Y25890500D01*
X6503989Y25816000D01*
X6458885Y25767390D01*
X6386783Y25718232D01*
X6228305Y25571186D01*
X6199946Y25544873D01*
X6136808Y25465700D01*
X6041041Y25345612D01*
X6033221Y25332067D01*
X5913608Y25124891D01*
X5913605Y25124884D01*
X5820491Y24887636D01*
X5820490Y24887632D01*
X5763779Y24639164D01*
X5763776Y24639144D01*
X5744732Y24385005D01*
X5744732Y24384994D01*
X5763776Y24130855D01*
X5763779Y24130835D01*
X5820490Y23882367D01*
X5820491Y23882363D01*
X5913605Y23645115D01*
X5913608Y23645108D01*
X5997386Y23500001D01*
X6040876Y23424673D01*
X6041040Y23424390D01*
X6041045Y23424382D01*
X6199946Y23225126D01*
X6386780Y23051770D01*
X6597370Y22908192D01*
X6826986Y22797615D01*
X6826994Y22797611D01*
X6826996Y22797611D01*
X6826998Y22797610D01*
X6827007Y22797607D01*
X7070536Y22722488D01*
X7070538Y22722487D01*
X7074017Y22721963D01*
X7074862Y22721835D01*
X7145555Y22690992D01*
X7191355Y22628935D01*
X7199990Y22552292D01*
X7169146Y22481599D01*
X7107089Y22435799D01*
X7052654Y22425500D01*
X6537966Y22425500D01*
X6463466Y22445462D01*
X6432607Y22469141D01*
X5939903Y22961845D01*
X4311263Y24590485D01*
X4214237Y24646503D01*
X4106018Y24675500D01*
X106019Y24675500D01*
X-6018Y24675500D01*
X-114237Y24646503D01*
X-211263Y24590485D01*
X-609061Y24192686D01*
X-807606Y23994141D01*
X-874401Y23955577D01*
X-912965Y23950500D01*
X-1035056Y23950500D01*
X-1200225Y23909790D01*
X-1350852Y23830734D01*
X-1478183Y23717929D01*
X-1574818Y23577930D01*
X-1635140Y23418872D01*
X-1655645Y23250000D01*
X-1635140Y23081128D01*
X-1635139Y23081125D01*
X-1589400Y22960520D01*
X-1574818Y22922070D01*
X-1478183Y22782071D01*
X-1478180Y22782068D01*
X-1478179Y22782067D01*
X-1350853Y22669267D01*
X-1350854Y22669267D01*
X-1200224Y22590209D01*
X-1035056Y22549500D01*
X-864944Y22549500D01*
X-699775Y22590209D01*
X-549145Y22669267D01*
X-421820Y22782067D01*
X-421817Y22782071D01*
X-325181Y22922070D01*
X-264860Y23081125D01*
X-244354Y23250003D01*
X-246859Y23270632D01*
X-236020Y23346995D01*
X-204304Y23393946D01*
X182607Y23780859D01*
X249402Y23819423D01*
X287966Y23824500D01*
X2811482Y23824500D01*
X2885982Y23804538D01*
X2940520Y23750000D01*
X2960482Y23675500D01*
X2940520Y23601000D01*
X2934106Y23590858D01*
X2925181Y23577929D01*
X2864860Y23418874D01*
X2844355Y23250000D01*
X2864860Y23081125D01*
X2925181Y22922070D01*
X3021817Y22782071D01*
X3021820Y22782067D01*
X3149146Y22669267D01*
X3149145Y22669267D01*
X3299773Y22590210D01*
X3336772Y22581091D01*
X3404329Y22543878D01*
X3406470Y22541780D01*
X3757742Y22190509D01*
X5043396Y20904855D01*
X5081959Y20838063D01*
X5081959Y20760935D01*
X5043395Y20694140D01*
X4976600Y20655576D01*
X4938036Y20650499D01*
X1371956Y20650499D01*
X1297456Y20670461D01*
X1249332Y20714857D01*
X1178185Y20817931D01*
X1050854Y20930736D01*
X900227Y21009792D01*
X735058Y21050502D01*
X564946Y21050502D01*
X399777Y21009792D01*
X249150Y20930736D01*
X249148Y20930734D01*
X249147Y20930734D01*
X144543Y20838063D01*
X121819Y20817931D01*
X57672Y20724999D01*
X25183Y20677931D01*
X14780Y20650499D01*
X-35138Y20518874D01*
X-42126Y20461317D01*
X-70921Y20389771D01*
X-131635Y20342205D01*
X-207998Y20331367D01*
X-279549Y20360163D01*
X-295398Y20373922D01*
X-3438092Y23516616D01*
X-6861985Y26940510D01*
X-6987515Y27012984D01*
X-7127525Y27050500D01*
X-43772475Y27050500D01*
X-43912485Y27012984D01*
X-44038014Y26940510D01*
X-45515510Y25463015D01*
X-45558426Y25388681D01*
X-45579079Y25352908D01*
X-45581047Y25349500D01*
X-45587984Y25337485D01*
X-45625500Y25197475D01*
X-45625500Y15302525D01*
X-45595485Y15190510D01*
X-45587984Y15162515D01*
X-45517102Y15039743D01*
X-45515509Y15036984D01*
X-41058884Y10580359D01*
X-41020320Y10513564D01*
X-41020320Y10436436D01*
X-41058884Y10369641D01*
X-43584384Y7844141D01*
X-43651179Y7805577D01*
X-43689743Y7800500D01*
X-46660257Y7800500D01*
X-46734757Y7820462D01*
X-46765616Y7844141D01*
X-47111984Y8190509D01*
X-47111985Y8190510D01*
X-47237515Y8262984D01*
X-47377525Y8300500D01*
X-49814312Y8300500D01*
X-49888812Y8320462D01*
X-49943350Y8375000D01*
X-49963312Y8449500D01*
X-49943350Y8524000D01*
X-49926919Y8547074D01*
X-49795720Y8698485D01*
X-49795719Y8698486D01*
X-49679676Y8879052D01*
X-49679676Y8879053D01*
X-49590515Y9074287D01*
X-49590515Y9074289D01*
X-49530045Y9280226D01*
X-49530043Y9280235D01*
X-49499501Y9492668D01*
X-49499500Y9492686D01*
X-49499500Y23411257D01*
X-49479538Y23485757D01*
X-49425000Y23540295D01*
X-49350500Y23560257D01*
X-49276000Y23540295D01*
X-49245141Y23516616D01*
X-47294141Y21565616D01*
X-47255577Y21498821D01*
X-47250500Y21460257D01*
X-47250500Y14677525D01*
X-47238319Y14632067D01*
X-47220189Y14564402D01*
X-47214648Y14543725D01*
X-47212984Y14537515D01*
X-47141086Y14412982D01*
X-47140509Y14411984D01*
X-44795749Y12067224D01*
X-44757185Y12000429D01*
X-44753197Y11979842D01*
X-44735140Y11831128D01*
X-44674818Y11672070D01*
X-44578183Y11532071D01*
X-44578180Y11532068D01*
X-44578179Y11532067D01*
X-44450853Y11419267D01*
X-44450854Y11419267D01*
X-44300224Y11340209D01*
X-44135056Y11299500D01*
X-43964944Y11299500D01*
X-43799775Y11340209D01*
X-43649145Y11419267D01*
X-43521820Y11532067D01*
X-43521817Y11532071D01*
X-43425181Y11672070D01*
X-43364860Y11831125D01*
X-43344355Y12000000D01*
X-43364860Y12168874D01*
X-43425181Y12327929D01*
X-43490163Y12422070D01*
X-43521817Y12467929D01*
X-43649146Y12580732D01*
X-43649148Y12580734D01*
X-43799775Y12659790D01*
X-43801228Y12660148D01*
X-43802356Y12660769D01*
X-43808206Y12662988D01*
X-43807891Y12663817D01*
X-43868788Y12697356D01*
X-43870936Y12699461D01*
X-46105859Y14934384D01*
X-46144423Y15001179D01*
X-46149500Y15039743D01*
X-46149500Y21822476D01*
X-46187016Y21962487D01*
X-46259488Y22088011D01*
X-46259493Y22088017D01*
X-46361984Y22190509D01*
X-46361985Y22190509D01*
X-49918070Y25746595D01*
X-49956634Y25813390D01*
X-49960624Y25833992D01*
X-49964859Y25868867D01*
X-49964859Y25868870D01*
X-50025181Y26027928D01*
X-50028038Y26032067D01*
X-50121817Y26167929D01*
X-50177038Y26216850D01*
X-50198215Y26235612D01*
X-50249146Y26280732D01*
X-50249148Y26280734D01*
X-50399775Y26359790D01*
X-50564944Y26400500D01*
X-50735056Y26400500D01*
X-50900225Y26359790D01*
X-51050852Y26280734D01*
X-51178183Y26167929D01*
X-51274818Y26027930D01*
X-51335140Y25868872D01*
X-51355645Y25700000D01*
X-51335140Y25531128D01*
X-51335139Y25531125D01*
X-51309308Y25463014D01*
X-51274818Y25372070D01*
X-51179611Y25234140D01*
X-51153719Y25161490D01*
X-51167622Y25085625D01*
X-51217594Y25026876D01*
X-51290246Y25000983D01*
X-51302236Y25000500D01*
X-63388798Y25000500D01*
X-63463298Y25020462D01*
X-63494157Y25044141D01*
X-63555859Y25105843D01*
X-63594423Y25172638D01*
X-63599500Y25211202D01*
X-63599500Y25933305D01*
X-63579538Y26007805D01*
X-63525000Y26062343D01*
X-63450500Y26082305D01*
X-63376000Y26062343D01*
X-63321462Y26007805D01*
X-63319094Y26003543D01*
X-63287493Y25944423D01*
X-63285910Y25941462D01*
X-63160883Y25789117D01*
X-63008538Y25664090D01*
X-63008534Y25664088D01*
X-63008526Y25664083D01*
X-62834731Y25571187D01*
X-62646134Y25513976D01*
X-62450000Y25494659D01*
X-62253865Y25513976D01*
X-62065268Y25571187D01*
X-61891473Y25664083D01*
X-61891465Y25664088D01*
X-61891463Y25664089D01*
X-61891462Y25664090D01*
X-61739117Y25789117D01*
X-61614090Y25941462D01*
X-61614088Y25941465D01*
X-61614083Y25941473D01*
X-61521187Y26115268D01*
X-61463976Y26303865D01*
X-61444659Y26500000D01*
X-61444659Y26500004D01*
X-59615429Y26500004D01*
X-59615429Y26499995D01*
X-59611703Y26459790D01*
X-59595756Y26287690D01*
X-59550299Y26127929D01*
X-59537407Y26082616D01*
X-59537405Y26082611D01*
X-59442366Y25891745D01*
X-59442364Y25891743D01*
X-59442363Y25891740D01*
X-59313872Y25721593D01*
X-59156302Y25577948D01*
X-59156301Y25577947D01*
X-58975022Y25465703D01*
X-58975016Y25465700D01*
X-58776204Y25388681D01*
X-58776200Y25388680D01*
X-58776198Y25388679D01*
X-58734280Y25380843D01*
X-58566614Y25349500D01*
X-58566610Y25349500D01*
X-58353385Y25349500D01*
X-58143802Y25388679D01*
X-58143795Y25388681D01*
X-57944983Y25465700D01*
X-57944977Y25465703D01*
X-57763698Y25577947D01*
X-57763697Y25577948D01*
X-57606127Y25721593D01*
X-57477636Y25891740D01*
X-57382594Y26082612D01*
X-57382592Y26082616D01*
X-57362311Y26153901D01*
X-57322723Y26220095D01*
X-57255343Y26257626D01*
X-57178224Y26256438D01*
X-57112030Y26216850D01*
X-57074499Y26149470D01*
X-57069999Y26113126D01*
X-57069999Y25605205D01*
X-57067090Y25580125D01*
X-57021787Y25477522D01*
X-56942478Y25398213D01*
X-56839871Y25352908D01*
X-56814795Y25350000D01*
X-55025205Y25350000D01*
X-55000125Y25352909D01*
X-54897522Y25398212D01*
X-54897522Y25398213D01*
X-54818213Y25477521D01*
X-54772908Y25580128D01*
X-54770000Y25605204D01*
X-54770000Y27394794D01*
X-54772909Y27419874D01*
X-54818212Y27522477D01*
X-54897521Y27601786D01*
X-55000128Y27647091D01*
X-55025204Y27649999D01*
X-56814794Y27649999D01*
X-56839874Y27647090D01*
X-56942477Y27601787D01*
X-56942478Y27601787D01*
X-57021786Y27522478D01*
X-57067091Y27419871D01*
X-57069999Y27394795D01*
X-57069999Y26886878D01*
X-57089961Y26812378D01*
X-57144499Y26757840D01*
X-57218999Y26737878D01*
X-57293499Y26757840D01*
X-57348037Y26812378D01*
X-57362311Y26846101D01*
X-57382594Y26917387D01*
X-57477636Y27108259D01*
X-57606127Y27278406D01*
X-57669206Y27335911D01*
X-57763698Y27422052D01*
X-57898212Y27505340D01*
X-57944977Y27534296D01*
X-57944983Y27534299D01*
X-58032189Y27568082D01*
X-58143802Y27611321D01*
X-58353390Y27650500D01*
X-58566610Y27650500D01*
X-58776198Y27611321D01*
X-58975019Y27534298D01*
X-59156302Y27422052D01*
X-59313872Y27278407D01*
X-59442366Y27108255D01*
X-59537405Y26917389D01*
X-59595756Y26712310D01*
X-59597255Y26696132D01*
X-59615429Y26500004D01*
X-61444659Y26500004D01*
X-61463976Y26696134D01*
X-61521187Y26884731D01*
X-61614083Y27058526D01*
X-61614088Y27058534D01*
X-61614090Y27058538D01*
X-61739117Y27210883D01*
X-61891462Y27335910D01*
X-61891473Y27335916D01*
X-62065268Y27428812D01*
X-62065270Y27428812D01*
X-62065273Y27428814D01*
X-62253868Y27486024D01*
X-62450000Y27505341D01*
X-62646132Y27486024D01*
X-62834727Y27428814D01*
X-63008538Y27335910D01*
X-63160883Y27210883D01*
X-63285910Y27058538D01*
X-63319094Y26996454D01*
X-63371817Y26940163D01*
X-63445624Y26917774D01*
X-63520738Y26935287D01*
X-63577031Y26988011D01*
X-63599420Y27061818D01*
X-63599500Y27066694D01*
X-63599500Y27788799D01*
X-63579538Y27863299D01*
X-63555859Y27894158D01*
X-63494158Y27955859D01*
X-63427363Y27994423D01*
X-63388799Y27999500D01*
X49490187Y27999500D01*
X49564687Y27979538D01*
G37*
%TD.AperFunction*%
%TA.AperFunction,Conductor*%
G36*
X-12603466Y-20295462D02*
G01*
X-12572607Y-20319141D01*
X-11979141Y-20912607D01*
X-11940577Y-20979402D01*
X-11935500Y-21017966D01*
X-11935500Y-25433982D01*
X-11935500Y-25546018D01*
X-11906503Y-25654237D01*
X-11850485Y-25751263D01*
X-11229678Y-26372070D01*
X-11076607Y-26525141D01*
X-11038043Y-26591936D01*
X-11038043Y-26669064D01*
X-11076607Y-26735859D01*
X-11143402Y-26774423D01*
X-11181966Y-26779500D01*
X-13330258Y-26779500D01*
X-13404758Y-26759538D01*
X-13435617Y-26735859D01*
X-16604250Y-23567223D01*
X-16642814Y-23500428D01*
X-16646805Y-23479825D01*
X-16652356Y-23434107D01*
X-16664860Y-23331128D01*
X-16664861Y-23331125D01*
X-16664861Y-23331124D01*
X-16725181Y-23172070D01*
X-16821817Y-23032071D01*
X-16821820Y-23032067D01*
X-16949146Y-22919267D01*
X-16949145Y-22919267D01*
X-17099775Y-22840209D01*
X-17264944Y-22799500D01*
X-17435056Y-22799500D01*
X-17600224Y-22840209D01*
X-17750854Y-22919267D01*
X-17878179Y-23032067D01*
X-17878180Y-23032068D01*
X-17878183Y-23032071D01*
X-17938099Y-23118874D01*
X-17974818Y-23172070D01*
X-18035138Y-23331124D01*
X-18035140Y-23331128D01*
X-18055645Y-23500000D01*
X-18035140Y-23668872D01*
X-17974818Y-23827930D01*
X-17878183Y-23967929D01*
X-17750852Y-24080734D01*
X-17600225Y-24159790D01*
X-17598774Y-24160147D01*
X-17597647Y-24160768D01*
X-17591792Y-24162989D01*
X-17592106Y-24163819D01*
X-17531215Y-24197351D01*
X-17529112Y-24199411D01*
X-15922761Y-25805763D01*
X-14423383Y-27305141D01*
X-14384819Y-27371936D01*
X-14384819Y-27449064D01*
X-14423383Y-27515859D01*
X-14490178Y-27554423D01*
X-14528742Y-27559500D01*
X-25450257Y-27559500D01*
X-25524757Y-27539538D01*
X-25555616Y-27515859D01*
X-27455859Y-25615616D01*
X-27494423Y-25548821D01*
X-27499500Y-25510257D01*
X-27499500Y-24384994D01*
X-27055268Y-24384994D01*
X-27055268Y-24385005D01*
X-27051588Y-24434108D01*
X-27036222Y-24639157D01*
X-26979508Y-24887637D01*
X-26886393Y-25124888D01*
X-26758959Y-25345612D01*
X-26600050Y-25544877D01*
X-26413217Y-25718232D01*
X-26202634Y-25861805D01*
X-25973004Y-25972389D01*
X-25729458Y-26047513D01*
X-25477435Y-26085500D01*
X-25477433Y-26085500D01*
X-25222567Y-26085500D01*
X-25222565Y-26085500D01*
X-24970542Y-26047513D01*
X-24970539Y-26047512D01*
X-24970538Y-26047512D01*
X-24970536Y-26047511D01*
X-24968957Y-26047024D01*
X-24726996Y-25972389D01*
X-24497366Y-25861805D01*
X-24286783Y-25718232D01*
X-24099950Y-25544877D01*
X-24099949Y-25544875D01*
X-24099946Y-25544873D01*
X-23941045Y-25345617D01*
X-23941041Y-25345612D01*
X-23863448Y-25211216D01*
X-23813608Y-25124891D01*
X-23813605Y-25124884D01*
X-23720491Y-24887636D01*
X-23720490Y-24887632D01*
X-23663779Y-24639164D01*
X-23663776Y-24639144D01*
X-23644732Y-24385005D01*
X-23644732Y-24384994D01*
X-23663776Y-24130855D01*
X-23663779Y-24130835D01*
X-23720490Y-23882367D01*
X-23720491Y-23882363D01*
X-23813605Y-23645115D01*
X-23813608Y-23645108D01*
X-23935430Y-23434107D01*
X-23941041Y-23424388D01*
X-23941042Y-23424386D01*
X-23941045Y-23424382D01*
X-24099946Y-23225126D01*
X-24286780Y-23051770D01*
X-24497370Y-22908192D01*
X-24726986Y-22797615D01*
X-24727007Y-22797607D01*
X-24970536Y-22722488D01*
X-24970538Y-22722487D01*
X-25222562Y-22684500D01*
X-25222565Y-22684500D01*
X-25477435Y-22684500D01*
X-25477437Y-22684500D01*
X-25729461Y-22722487D01*
X-25729463Y-22722488D01*
X-25972992Y-22797607D01*
X-25972996Y-22797608D01*
X-25973004Y-22797611D01*
X-25973009Y-22797613D01*
X-25973013Y-22797615D01*
X-26202629Y-22908192D01*
X-26202631Y-22908194D01*
X-26202634Y-22908195D01*
X-26413217Y-23051768D01*
X-26413640Y-23052161D01*
X-26600053Y-23225126D01*
X-26700296Y-23350827D01*
X-26758959Y-23424388D01*
X-26841424Y-23567223D01*
X-26865999Y-23609789D01*
X-26886393Y-23645112D01*
X-26979508Y-23882363D01*
X-27036222Y-24130843D01*
X-27036222Y-24130853D01*
X-27036223Y-24130855D01*
X-27055268Y-24384994D01*
X-27499500Y-24384994D01*
X-27499500Y-22188277D01*
X-27479538Y-22113777D01*
X-27473133Y-22103648D01*
X-27425182Y-22034180D01*
X-27425181Y-22034179D01*
X-27364860Y-21875124D01*
X-27344355Y-21706250D01*
X-27364860Y-21537375D01*
X-27425181Y-21378320D01*
X-27479242Y-21300000D01*
X-20055645Y-21300000D01*
X-20035140Y-21468872D01*
X-19974818Y-21627930D01*
X-19878183Y-21767929D01*
X-19750852Y-21880734D01*
X-19600225Y-21959790D01*
X-19435056Y-22000500D01*
X-19264944Y-22000500D01*
X-19099775Y-21959790D01*
X-18949150Y-21880735D01*
X-18949148Y-21880734D01*
X-18949146Y-21880732D01*
X-18943563Y-21876878D01*
X-18870911Y-21850984D01*
X-18858917Y-21850500D01*
X-16841083Y-21850500D01*
X-16766583Y-21870462D01*
X-16756437Y-21876878D01*
X-16750857Y-21880729D01*
X-16750852Y-21880734D01*
X-16600225Y-21959790D01*
X-16435056Y-22000500D01*
X-16264944Y-22000500D01*
X-16099775Y-21959790D01*
X-15949150Y-21880735D01*
X-15949148Y-21880734D01*
X-15949146Y-21880732D01*
X-15943563Y-21876878D01*
X-15870911Y-21850984D01*
X-15858917Y-21850500D01*
X-13541083Y-21850500D01*
X-13466583Y-21870462D01*
X-13456437Y-21876878D01*
X-13450857Y-21880729D01*
X-13450852Y-21880734D01*
X-13300225Y-21959790D01*
X-13135056Y-22000500D01*
X-12964944Y-22000500D01*
X-12799775Y-21959790D01*
X-12707316Y-21911263D01*
X-12649148Y-21880734D01*
X-12649146Y-21880732D01*
X-12649145Y-21880732D01*
X-12521820Y-21767932D01*
X-12521819Y-21767930D01*
X-12521817Y-21767929D01*
X-12448188Y-21661260D01*
X-12425181Y-21627929D01*
X-12364860Y-21468874D01*
X-12344355Y-21300000D01*
X-12364860Y-21131125D01*
X-12425181Y-20972070D01*
X-12521817Y-20832071D01*
X-12521820Y-20832067D01*
X-12649146Y-20719267D01*
X-12649145Y-20719267D01*
X-12799775Y-20640209D01*
X-12964944Y-20599500D01*
X-13135056Y-20599500D01*
X-13300224Y-20640209D01*
X-13450849Y-20719264D01*
X-13456437Y-20723122D01*
X-13529089Y-20749016D01*
X-13541083Y-20749500D01*
X-15858917Y-20749500D01*
X-15933417Y-20729538D01*
X-15943563Y-20723122D01*
X-15949150Y-20719264D01*
X-16099775Y-20640209D01*
X-16264944Y-20599500D01*
X-16435056Y-20599500D01*
X-16600224Y-20640209D01*
X-16750849Y-20719264D01*
X-16756437Y-20723122D01*
X-16829089Y-20749016D01*
X-16841083Y-20749500D01*
X-18858917Y-20749500D01*
X-18933417Y-20729538D01*
X-18943563Y-20723122D01*
X-18949150Y-20719264D01*
X-19099775Y-20640209D01*
X-19264944Y-20599500D01*
X-19435056Y-20599500D01*
X-19600224Y-20640209D01*
X-19750854Y-20719267D01*
X-19878179Y-20832067D01*
X-19878180Y-20832068D01*
X-19878183Y-20832071D01*
X-19974818Y-20972070D01*
X-20035140Y-21131128D01*
X-20055645Y-21300000D01*
X-27479242Y-21300000D01*
X-27521817Y-21238321D01*
X-27521820Y-21238317D01*
X-27649146Y-21125517D01*
X-27649145Y-21125517D01*
X-27799775Y-21046459D01*
X-27964944Y-21005750D01*
X-28135056Y-21005750D01*
X-28300224Y-21046459D01*
X-28450854Y-21125517D01*
X-28578179Y-21238317D01*
X-28578180Y-21238318D01*
X-28578183Y-21238321D01*
X-28674818Y-21378320D01*
X-28735140Y-21537378D01*
X-28755645Y-21706250D01*
X-28735140Y-21875122D01*
X-28674818Y-22034180D01*
X-28626875Y-22103636D01*
X-28600983Y-22176286D01*
X-28600500Y-22188277D01*
X-28600500Y-25872475D01*
X-28587102Y-25922475D01*
X-28562984Y-26012485D01*
X-28490510Y-26138015D01*
X-27529259Y-27099266D01*
X-26578384Y-28050141D01*
X-26539820Y-28116936D01*
X-26539820Y-28194064D01*
X-26578384Y-28260859D01*
X-26645179Y-28299423D01*
X-26683743Y-28304500D01*
X-32382034Y-28304500D01*
X-32456534Y-28284538D01*
X-32487393Y-28260859D01*
X-33155023Y-27593228D01*
X-33193587Y-27526433D01*
X-33193587Y-27449305D01*
X-33155023Y-27382510D01*
X-33088228Y-27343946D01*
X-33085322Y-27343199D01*
X-32949775Y-27309790D01*
X-32894414Y-27280734D01*
X-32799148Y-27230734D01*
X-32799146Y-27230732D01*
X-32799145Y-27230732D01*
X-32671820Y-27117932D01*
X-32671819Y-27117930D01*
X-32671817Y-27117929D01*
X-32604365Y-27020209D01*
X-32575181Y-26977929D01*
X-32514860Y-26818874D01*
X-32494355Y-26650000D01*
X-32514860Y-26481125D01*
X-32575181Y-26322070D01*
X-32671817Y-26182071D01*
X-32671820Y-26182067D01*
X-32799146Y-26069267D01*
X-32799145Y-26069267D01*
X-32949775Y-25990209D01*
X-33111158Y-25950433D01*
X-33178716Y-25913222D01*
X-33218617Y-25847218D01*
X-33224500Y-25805763D01*
X-33224500Y-20509830D01*
X-33204538Y-20435330D01*
X-33150000Y-20380792D01*
X-33075500Y-20360830D01*
X-33006255Y-20377898D01*
X-33000852Y-20380733D01*
X-33000852Y-20380734D01*
X-32850225Y-20459790D01*
X-32685056Y-20500500D01*
X-32514944Y-20500500D01*
X-32349775Y-20459790D01*
X-32303171Y-20435330D01*
X-32199148Y-20380734D01*
X-32199146Y-20380732D01*
X-32199145Y-20380732D01*
X-32122660Y-20312972D01*
X-32053659Y-20278511D01*
X-32023855Y-20275500D01*
X-12677966Y-20275500D01*
X-12603466Y-20295462D01*
G37*
%TD.AperFunction*%
%TA.AperFunction,Conductor*%
G36*
X-59061691Y7179538D02*
G01*
X-59007153Y7125000D01*
X-58987191Y7050500D01*
X-59007153Y6976000D01*
X-59013478Y6966533D01*
X-59015507Y6963017D01*
X-59015510Y6963015D01*
X-59086411Y6840210D01*
X-59087984Y6837485D01*
X-59125500Y6697475D01*
X-59125500Y6697474D01*
X-59125500Y6515921D01*
X-59145462Y6441421D01*
X-59174117Y6405811D01*
X-59313872Y6278407D01*
X-59442366Y6108255D01*
X-59537405Y5917389D01*
X-59557689Y5846099D01*
X-59597275Y5779908D01*
X-59664656Y5742377D01*
X-59741775Y5743564D01*
X-59807968Y5783151D01*
X-59845499Y5850532D01*
X-59850000Y5886876D01*
X-59850000Y6394794D01*
X-59852909Y6419874D01*
X-59898212Y6522477D01*
X-59977521Y6601786D01*
X-60080128Y6647091D01*
X-60105204Y6649999D01*
X-61894794Y6649999D01*
X-61919874Y6647090D01*
X-62022477Y6601787D01*
X-62022478Y6601787D01*
X-62101786Y6522478D01*
X-62147091Y6419871D01*
X-62149999Y6394795D01*
X-62149999Y4605205D01*
X-62147090Y4580125D01*
X-62101787Y4477522D01*
X-62022478Y4398213D01*
X-61919871Y4352908D01*
X-61894795Y4350000D01*
X-60105205Y4350000D01*
X-60080125Y4352909D01*
X-59977522Y4398212D01*
X-59977522Y4398213D01*
X-59898213Y4477521D01*
X-59852908Y4580128D01*
X-59850000Y4605204D01*
X-59850000Y5113121D01*
X-59830038Y5187621D01*
X-59775500Y5242159D01*
X-59701000Y5262121D01*
X-59626500Y5242159D01*
X-59571962Y5187621D01*
X-59557688Y5153897D01*
X-59537405Y5082611D01*
X-59442366Y4891745D01*
X-59442364Y4891743D01*
X-59442363Y4891740D01*
X-59313872Y4721593D01*
X-59156302Y4577948D01*
X-59156301Y4577947D01*
X-58975022Y4465703D01*
X-58975016Y4465700D01*
X-58776204Y4388681D01*
X-58776200Y4388680D01*
X-58776198Y4388679D01*
X-58734280Y4380843D01*
X-58566614Y4349500D01*
X-58566610Y4349500D01*
X-58353385Y4349500D01*
X-58143802Y4388679D01*
X-58143795Y4388681D01*
X-57944983Y4465700D01*
X-57944977Y4465703D01*
X-57763698Y4577947D01*
X-57763697Y4577948D01*
X-57606127Y4721593D01*
X-57477636Y4891740D01*
X-57382594Y5082612D01*
X-57333312Y5255819D01*
X-57293723Y5322011D01*
X-57226342Y5359542D01*
X-57149223Y5358354D01*
X-57083031Y5318765D01*
X-57046690Y5255822D01*
X-56997406Y5082611D01*
X-56902367Y4891745D01*
X-56902365Y4891743D01*
X-56902364Y4891740D01*
X-56773873Y4721593D01*
X-56616303Y4577948D01*
X-56616302Y4577947D01*
X-56435023Y4465703D01*
X-56435017Y4465700D01*
X-56236205Y4388681D01*
X-56236201Y4388680D01*
X-56236199Y4388679D01*
X-56194281Y4380843D01*
X-56026615Y4349500D01*
X-56026611Y4349500D01*
X-55813386Y4349500D01*
X-55603803Y4388679D01*
X-55603796Y4388681D01*
X-55404984Y4465700D01*
X-55404978Y4465703D01*
X-55223699Y4577947D01*
X-55223698Y4577948D01*
X-55066128Y4721593D01*
X-54937637Y4891740D01*
X-54842595Y5082612D01*
X-54842594Y5082614D01*
X-54793312Y5255822D01*
X-54753723Y5322015D01*
X-54686342Y5359546D01*
X-54609224Y5358358D01*
X-54543031Y5318769D01*
X-54506689Y5255824D01*
X-54506687Y5255818D01*
X-54464229Y5106592D01*
X-54457405Y5082611D01*
X-54362366Y4891745D01*
X-54362364Y4891743D01*
X-54362363Y4891740D01*
X-54233872Y4721593D01*
X-54076302Y4577948D01*
X-54076301Y4577947D01*
X-53895020Y4465702D01*
X-53888854Y4462632D01*
X-53890083Y4460163D01*
X-53838367Y4422303D01*
X-53807251Y4351730D01*
X-53805500Y4328954D01*
X-53805500Y-442034D01*
X-53825462Y-516534D01*
X-53849141Y-547393D01*
X-56332607Y-3030859D01*
X-56399402Y-3069423D01*
X-56437966Y-3074500D01*
X-60643982Y-3074500D01*
X-60756018Y-3074500D01*
X-60864237Y-3103497D01*
X-60901072Y-3124763D01*
X-60961259Y-3159512D01*
X-60961260Y-3159513D01*
X-60961263Y-3159515D01*
X-61261263Y-3459515D01*
X-61340485Y-3538737D01*
X-61396503Y-3635763D01*
X-61425499Y-3743980D01*
X-61425500Y-3743982D01*
X-61425500Y-4328954D01*
X-61445462Y-4403454D01*
X-61500000Y-4457992D01*
X-61509013Y-4462311D01*
X-61508854Y-4462632D01*
X-61515020Y-4465702D01*
X-61696301Y-4577947D01*
X-61696302Y-4577948D01*
X-61853872Y-4721593D01*
X-61982363Y-4891740D01*
X-61982364Y-4891743D01*
X-61982366Y-4891745D01*
X-62077405Y-5082611D01*
X-62135756Y-5287690D01*
X-62142304Y-5358354D01*
X-62155429Y-5499995D01*
X-62155429Y-5500004D01*
X-62148526Y-5574500D01*
X-62135756Y-5712310D01*
X-62077405Y-5917389D01*
X-61982366Y-6108255D01*
X-61853872Y-6278407D01*
X-61696302Y-6422052D01*
X-61515019Y-6534298D01*
X-61316198Y-6611321D01*
X-61106610Y-6650500D01*
X-61106607Y-6650500D01*
X-60893393Y-6650500D01*
X-60893390Y-6650500D01*
X-60683802Y-6611321D01*
X-60572189Y-6568082D01*
X-60484983Y-6534299D01*
X-60484977Y-6534296D01*
X-60303698Y-6422052D01*
X-60303697Y-6422051D01*
X-60146127Y-6278406D01*
X-60017636Y-6108259D01*
X-59922594Y-5917387D01*
X-59922593Y-5917385D01*
X-59873311Y-5744177D01*
X-59833723Y-5677984D01*
X-59766342Y-5640453D01*
X-59689223Y-5641641D01*
X-59623030Y-5681229D01*
X-59586688Y-5744173D01*
X-59537404Y-5917389D01*
X-59442365Y-6108255D01*
X-59313871Y-6278407D01*
X-59156301Y-6422052D01*
X-58975018Y-6534298D01*
X-58776197Y-6611321D01*
X-58566609Y-6650500D01*
X-58566606Y-6650500D01*
X-58353392Y-6650500D01*
X-58353389Y-6650500D01*
X-58206037Y-6622955D01*
X-58129141Y-6628888D01*
X-58065510Y-6672475D01*
X-58032198Y-6742039D01*
X-58038131Y-6818938D01*
X-58073302Y-6874777D01*
X-58104384Y-6905859D01*
X-58171179Y-6944423D01*
X-58209743Y-6949500D01*
X-61910258Y-6949500D01*
X-61984758Y-6929538D01*
X-62015617Y-6905859D01*
X-62605859Y-6315616D01*
X-62644423Y-6248821D01*
X-62649500Y-6210257D01*
X-62649500Y-1025132D01*
X-62629538Y-950632D01*
X-62575000Y-896094D01*
X-62500500Y-876132D01*
X-62426000Y-896094D01*
X-62371462Y-950632D01*
X-62365681Y-961691D01*
X-62238998Y-1230904D01*
X-62067075Y-1501810D01*
X-61862543Y-1749048D01*
X-61628648Y-1968690D01*
X-61628639Y-1968697D01*
X-61369063Y-2157291D01*
X-61087891Y-2311867D01*
X-61087883Y-2311871D01*
X-60789556Y-2429986D01*
X-60789547Y-2429989D01*
X-60478763Y-2509785D01*
X-60160433Y-2549999D01*
X-60160432Y-2550000D01*
X-59839568Y-2550000D01*
X-59839566Y-2549999D01*
X-59521236Y-2509785D01*
X-59210452Y-2429989D01*
X-59210443Y-2429986D01*
X-58912116Y-2311871D01*
X-58912108Y-2311867D01*
X-58630936Y-2157291D01*
X-58371360Y-1968697D01*
X-58371351Y-1968690D01*
X-58137456Y-1749048D01*
X-57932924Y-1501810D01*
X-57761001Y-1230904D01*
X-57624387Y-940586D01*
X-57624379Y-940565D01*
X-57525230Y-635416D01*
X-57465105Y-320233D01*
X-57465104Y-320223D01*
X-57444958Y0D01*
X-57465104Y320223D01*
X-57465105Y320233D01*
X-57525230Y635416D01*
X-57624379Y940565D01*
X-57624387Y940586D01*
X-57761001Y1230904D01*
X-57932924Y1501810D01*
X-58137456Y1749048D01*
X-58371351Y1968690D01*
X-58371360Y1968697D01*
X-58630936Y2157291D01*
X-58912108Y2311867D01*
X-58912116Y2311871D01*
X-59210443Y2429986D01*
X-59210452Y2429989D01*
X-59521236Y2509785D01*
X-59839566Y2549999D01*
X-59839568Y2550000D01*
X-60160432Y2550000D01*
X-60160433Y2549999D01*
X-60478763Y2509785D01*
X-60789547Y2429989D01*
X-60789556Y2429986D01*
X-61087883Y2311871D01*
X-61087891Y2311867D01*
X-61369063Y2157291D01*
X-61628639Y1968697D01*
X-61628648Y1968690D01*
X-61862543Y1749048D01*
X-62067075Y1501810D01*
X-62238998Y1230904D01*
X-62365681Y961691D01*
X-62415464Y902781D01*
X-62488032Y876655D01*
X-62563941Y890313D01*
X-62622851Y940096D01*
X-62648977Y1012664D01*
X-62649500Y1025132D01*
X-62649500Y6460257D01*
X-62629538Y6534757D01*
X-62605859Y6565616D01*
X-62015617Y7155859D01*
X-61948822Y7194423D01*
X-61910258Y7199500D01*
X-59136191Y7199500D01*
X-59061691Y7179538D01*
G37*
%TD.AperFunction*%
%TA.AperFunction,Conductor*%
G36*
X-42716307Y6944449D02*
G01*
X-42682348Y6891925D01*
X-42674818Y6872070D01*
X-42578183Y6732071D01*
X-42578180Y6732068D01*
X-42578179Y6732067D01*
X-42541418Y6699500D01*
X-42460631Y6627929D01*
X-42450853Y6619267D01*
X-42450854Y6619267D01*
X-42300224Y6540209D01*
X-42135056Y6499500D01*
X-42012966Y6499500D01*
X-41938466Y6479538D01*
X-41907607Y6455859D01*
X-37269141Y1817393D01*
X-37230577Y1750598D01*
X-37225500Y1712034D01*
X-37225500Y1636965D01*
X-37245462Y1562465D01*
X-37300000Y1507927D01*
X-37374500Y1487965D01*
X-37449000Y1507927D01*
X-37479854Y1531602D01*
X-40988737Y5040485D01*
X-41085763Y5096503D01*
X-41193982Y5125500D01*
X-42017416Y5125500D01*
X-42091916Y5145462D01*
X-42116221Y5162972D01*
X-42249145Y5280732D01*
X-42249146Y5280732D01*
X-42249148Y5280734D01*
X-42399775Y5359790D01*
X-42564944Y5400500D01*
X-42735056Y5400500D01*
X-42900225Y5359790D01*
X-43050852Y5280734D01*
X-43151696Y5191393D01*
X-43220696Y5156934D01*
X-43297683Y5161591D01*
X-43362028Y5204117D01*
X-43396489Y5273119D01*
X-43399500Y5302923D01*
X-43399500Y6410257D01*
X-43379538Y6484757D01*
X-43355859Y6515616D01*
X-42927025Y6944449D01*
X-42860230Y6983013D01*
X-42783102Y6983013D01*
X-42716307Y6944449D01*
G37*
%TD.AperFunction*%
%TA.AperFunction,Conductor*%
G36*
X18142884Y23814538D02*
G01*
X18197422Y23760000D01*
X18217384Y23685500D01*
X18197422Y23611000D01*
X18191009Y23600859D01*
X18175181Y23577928D01*
X18114860Y23418874D01*
X18114860Y23418872D01*
X18094356Y23250003D01*
X18094355Y23249996D01*
X18094355Y23249994D01*
X18096859Y23229365D01*
X18086019Y23153002D01*
X18054304Y23106052D01*
X16417393Y21469141D01*
X16350598Y21430577D01*
X16312034Y21425500D01*
X11686965Y21425500D01*
X11612465Y21445462D01*
X11557927Y21500000D01*
X11537965Y21574500D01*
X11557927Y21649000D01*
X11581602Y21679854D01*
X11907607Y22005859D01*
X11974402Y22044423D01*
X12012966Y22049500D01*
X12135056Y22049500D01*
X12300224Y22090209D01*
X12450854Y22169267D01*
X12578179Y22282067D01*
X12578180Y22282068D01*
X12578183Y22282071D01*
X12674818Y22422070D01*
X12706595Y22505859D01*
X12735139Y22581125D01*
X12735140Y22581128D01*
X12755645Y22750000D01*
X12735140Y22918872D01*
X12674818Y23077930D01*
X12578183Y23217929D01*
X12450852Y23330734D01*
X12300225Y23409790D01*
X12135056Y23450500D01*
X11964944Y23450500D01*
X11799775Y23409790D01*
X11649148Y23330734D01*
X11649146Y23330732D01*
X11649145Y23330732D01*
X11521820Y23217932D01*
X11521817Y23217929D01*
X11477001Y23153002D01*
X11425181Y23077929D01*
X11364860Y22918874D01*
X11358025Y22862581D01*
X11344721Y22753007D01*
X11344355Y22749996D01*
X11344355Y22749994D01*
X11346859Y22729365D01*
X11336019Y22653002D01*
X11304304Y22606052D01*
X11167393Y22469141D01*
X11100598Y22430577D01*
X11062034Y22425500D01*
X7847346Y22425500D01*
X7772846Y22445462D01*
X7718308Y22500000D01*
X7698346Y22574500D01*
X7718308Y22649000D01*
X7772846Y22703538D01*
X7825137Y22721835D01*
X7826194Y22721995D01*
X7829461Y22722487D01*
X7829463Y22722488D01*
X8072992Y22797607D01*
X8072996Y22797608D01*
X8073004Y22797611D01*
X8073009Y22797613D01*
X8073013Y22797615D01*
X8302629Y22908192D01*
X8302631Y22908194D01*
X8302634Y22908195D01*
X8513217Y23051768D01*
X8700050Y23225123D01*
X8700053Y23225126D01*
X8858954Y23424382D01*
X8858959Y23424388D01*
X8986393Y23645112D01*
X9023609Y23739936D01*
X9069409Y23801993D01*
X9140102Y23832836D01*
X9162309Y23834500D01*
X18068384Y23834500D01*
X18142884Y23814538D01*
G37*
%TD.AperFunction*%
%TA.AperFunction,Conductor*%
G36*
X22849451Y26019538D02*
G01*
X22903989Y25965000D01*
X22923951Y25890500D01*
X22903989Y25816000D01*
X22858885Y25767390D01*
X22786783Y25718232D01*
X22628305Y25571186D01*
X22599946Y25544873D01*
X22536808Y25465700D01*
X22441041Y25345612D01*
X22433221Y25332067D01*
X22313608Y25124891D01*
X22313605Y25124884D01*
X22276391Y25030064D01*
X22230591Y24968007D01*
X22159898Y24937164D01*
X22137691Y24935500D01*
X9162309Y24935500D01*
X9087809Y24955462D01*
X9033271Y25010000D01*
X9023609Y25030064D01*
X9018084Y25044141D01*
X8986393Y25124888D01*
X8858959Y25345612D01*
X8700050Y25544877D01*
X8513217Y25718232D01*
X8441114Y25767390D01*
X8390805Y25825851D01*
X8376466Y25901634D01*
X8401939Y25974434D01*
X8460400Y26024744D01*
X8525049Y26039500D01*
X22774951Y26039500D01*
X22849451Y26019538D01*
G37*
%TD.AperFunction*%
%TD*%
%TA.AperFunction,Conductor*%
%TO.N,Net-(ANT1-FEED_(50_OHM))*%
G36*
X54244039Y17202315D02*
G01*
X54289794Y17149511D01*
X54301000Y17098000D01*
X54301000Y13622004D01*
X54347728Y11026232D01*
X54329253Y10958849D01*
X54277281Y10912151D01*
X54223748Y10900000D01*
X50474000Y10900000D01*
X50406961Y10919685D01*
X50361206Y10972489D01*
X50350000Y11024000D01*
X50350000Y17098000D01*
X50369685Y17165039D01*
X50422489Y17210794D01*
X50474000Y17222000D01*
X54177000Y17222000D01*
X54244039Y17202315D01*
G37*
%TD.AperFunction*%
%TD*%
M02*
