%TF.GenerationSoftware,KiCad,Pcbnew,8.0.5*%
%TF.CreationDate,2024-10-04T15:08:05+01:00*%
%TF.ProjectId,V3,56332e6b-6963-4616-945f-706362585858,rev?*%
%TF.SameCoordinates,Original*%
%TF.FileFunction,Legend,Bot*%
%TF.FilePolarity,Positive*%
%FSLAX46Y46*%
G04 Gerber Fmt 4.6, Leading zero omitted, Abs format (unit mm)*
G04 Created by KiCad (PCBNEW 8.0.5) date 2024-10-04 15:08:05*
%MOMM*%
%LPD*%
G01*
G04 APERTURE LIST*
%ADD10C,0.300000*%
%ADD11C,0.150000*%
%ADD12C,0.254000*%
%ADD13C,0.000000*%
%ADD14C,0.200000*%
%ADD15C,0.120000*%
%ADD16C,0.508000*%
G04 APERTURE END LIST*
D10*
X27218572Y-8711710D02*
X27361429Y-8854568D01*
X27361429Y-8854568D02*
X27790001Y-8997425D01*
X27790001Y-8997425D02*
X28075715Y-8997425D01*
X28075715Y-8997425D02*
X28504286Y-8854568D01*
X28504286Y-8854568D02*
X28790001Y-8568853D01*
X28790001Y-8568853D02*
X28932858Y-8283139D01*
X28932858Y-8283139D02*
X29075715Y-7711710D01*
X29075715Y-7711710D02*
X29075715Y-7283139D01*
X29075715Y-7283139D02*
X28932858Y-6711710D01*
X28932858Y-6711710D02*
X28790001Y-6425996D01*
X28790001Y-6425996D02*
X28504286Y-6140282D01*
X28504286Y-6140282D02*
X28075715Y-5997425D01*
X28075715Y-5997425D02*
X27790001Y-5997425D01*
X27790001Y-5997425D02*
X27361429Y-6140282D01*
X27361429Y-6140282D02*
X27218572Y-6283139D01*
X25504286Y-8997425D02*
X25790001Y-8854568D01*
X25790001Y-8854568D02*
X25932858Y-8711710D01*
X25932858Y-8711710D02*
X26075715Y-8425996D01*
X26075715Y-8425996D02*
X26075715Y-7568853D01*
X26075715Y-7568853D02*
X25932858Y-7283139D01*
X25932858Y-7283139D02*
X25790001Y-7140282D01*
X25790001Y-7140282D02*
X25504286Y-6997425D01*
X25504286Y-6997425D02*
X25075715Y-6997425D01*
X25075715Y-6997425D02*
X24790001Y-7140282D01*
X24790001Y-7140282D02*
X24647144Y-7283139D01*
X24647144Y-7283139D02*
X24504286Y-7568853D01*
X24504286Y-7568853D02*
X24504286Y-8425996D01*
X24504286Y-8425996D02*
X24647144Y-8711710D01*
X24647144Y-8711710D02*
X24790001Y-8854568D01*
X24790001Y-8854568D02*
X25075715Y-8997425D01*
X25075715Y-8997425D02*
X25504286Y-8997425D01*
X23218572Y-8997425D02*
X23218572Y-6997425D01*
X23218572Y-7283139D02*
X23075715Y-7140282D01*
X23075715Y-7140282D02*
X22790000Y-6997425D01*
X22790000Y-6997425D02*
X22361429Y-6997425D01*
X22361429Y-6997425D02*
X22075715Y-7140282D01*
X22075715Y-7140282D02*
X21932858Y-7425996D01*
X21932858Y-7425996D02*
X21932858Y-8997425D01*
X21932858Y-7425996D02*
X21790000Y-7140282D01*
X21790000Y-7140282D02*
X21504286Y-6997425D01*
X21504286Y-6997425D02*
X21075715Y-6997425D01*
X21075715Y-6997425D02*
X20790000Y-7140282D01*
X20790000Y-7140282D02*
X20647143Y-7425996D01*
X20647143Y-7425996D02*
X20647143Y-8997425D01*
X19218572Y-6997425D02*
X19218572Y-9997425D01*
X19218572Y-7140282D02*
X18932858Y-6997425D01*
X18932858Y-6997425D02*
X18361429Y-6997425D01*
X18361429Y-6997425D02*
X18075715Y-7140282D01*
X18075715Y-7140282D02*
X17932858Y-7283139D01*
X17932858Y-7283139D02*
X17790000Y-7568853D01*
X17790000Y-7568853D02*
X17790000Y-8425996D01*
X17790000Y-8425996D02*
X17932858Y-8711710D01*
X17932858Y-8711710D02*
X18075715Y-8854568D01*
X18075715Y-8854568D02*
X18361429Y-8997425D01*
X18361429Y-8997425D02*
X18932858Y-8997425D01*
X18932858Y-8997425D02*
X19218572Y-8854568D01*
X16075714Y-8997425D02*
X16361429Y-8854568D01*
X16361429Y-8854568D02*
X16504286Y-8568853D01*
X16504286Y-8568853D02*
X16504286Y-5997425D01*
X13790000Y-8854568D02*
X14075714Y-8997425D01*
X14075714Y-8997425D02*
X14647143Y-8997425D01*
X14647143Y-8997425D02*
X14932857Y-8854568D01*
X14932857Y-8854568D02*
X15075714Y-8568853D01*
X15075714Y-8568853D02*
X15075714Y-7425996D01*
X15075714Y-7425996D02*
X14932857Y-7140282D01*
X14932857Y-7140282D02*
X14647143Y-6997425D01*
X14647143Y-6997425D02*
X14075714Y-6997425D01*
X14075714Y-6997425D02*
X13790000Y-7140282D01*
X13790000Y-7140282D02*
X13647143Y-7425996D01*
X13647143Y-7425996D02*
X13647143Y-7711710D01*
X13647143Y-7711710D02*
X15075714Y-7997425D01*
X12647142Y-8997425D02*
X11075714Y-6997425D01*
X12647142Y-6997425D02*
X11075714Y-8997425D01*
X9932857Y-8997425D02*
X9932857Y-6997425D01*
X9932857Y-5997425D02*
X10075714Y-6140282D01*
X10075714Y-6140282D02*
X9932857Y-6283139D01*
X9932857Y-6283139D02*
X9790000Y-6140282D01*
X9790000Y-6140282D02*
X9932857Y-5997425D01*
X9932857Y-5997425D02*
X9932857Y-6283139D01*
X8932857Y-6997425D02*
X7790000Y-6997425D01*
X8504286Y-5997425D02*
X8504286Y-8568853D01*
X8504286Y-8568853D02*
X8361429Y-8854568D01*
X8361429Y-8854568D02*
X8075714Y-8997425D01*
X8075714Y-8997425D02*
X7790000Y-8997425D01*
X7075714Y-6997425D02*
X6361428Y-8997425D01*
X5647143Y-6997425D02*
X6361428Y-8997425D01*
X6361428Y-8997425D02*
X6647143Y-9711710D01*
X6647143Y-9711710D02*
X6790000Y-9854568D01*
X6790000Y-9854568D02*
X7075714Y-9997425D01*
X4504286Y-8997425D02*
X4504286Y-5997425D01*
X4504286Y-5997425D02*
X3504286Y-8140282D01*
X3504286Y-8140282D02*
X2504286Y-5997425D01*
X2504286Y-5997425D02*
X2504286Y-8997425D01*
X-209999Y-8997425D02*
X-209999Y-7425996D01*
X-209999Y-7425996D02*
X-67141Y-7140282D01*
X-67141Y-7140282D02*
X218572Y-6997425D01*
X218572Y-6997425D02*
X790001Y-6997425D01*
X790001Y-6997425D02*
X1075715Y-7140282D01*
X-209999Y-8854568D02*
X75715Y-8997425D01*
X75715Y-8997425D02*
X790001Y-8997425D01*
X790001Y-8997425D02*
X1075715Y-8854568D01*
X1075715Y-8854568D02*
X1218572Y-8568853D01*
X1218572Y-8568853D02*
X1218572Y-8283139D01*
X1218572Y-8283139D02*
X1075715Y-7997425D01*
X1075715Y-7997425D02*
X790001Y-7854568D01*
X790001Y-7854568D02*
X75715Y-7854568D01*
X75715Y-7854568D02*
X-209999Y-7711710D01*
X-2924285Y-8997425D02*
X-2924285Y-5997425D01*
X-2924285Y-8854568D02*
X-2638570Y-8997425D01*
X-2638570Y-8997425D02*
X-2067142Y-8997425D01*
X-2067142Y-8997425D02*
X-1781427Y-8854568D01*
X-1781427Y-8854568D02*
X-1638570Y-8711710D01*
X-1638570Y-8711710D02*
X-1495713Y-8425996D01*
X-1495713Y-8425996D02*
X-1495713Y-7568853D01*
X-1495713Y-7568853D02*
X-1638570Y-7283139D01*
X-1638570Y-7283139D02*
X-1781427Y-7140282D01*
X-1781427Y-7140282D02*
X-2067142Y-6997425D01*
X-2067142Y-6997425D02*
X-2638570Y-6997425D01*
X-2638570Y-6997425D02*
X-2924285Y-7140282D01*
X-5495713Y-8854568D02*
X-5209999Y-8997425D01*
X-5209999Y-8997425D02*
X-4638571Y-8997425D01*
X-4638571Y-8997425D02*
X-4352856Y-8854568D01*
X-4352856Y-8854568D02*
X-4209999Y-8568853D01*
X-4209999Y-8568853D02*
X-4209999Y-7425996D01*
X-4209999Y-7425996D02*
X-4352856Y-7140282D01*
X-4352856Y-7140282D02*
X-4638571Y-6997425D01*
X-4638571Y-6997425D02*
X-5209999Y-6997425D01*
X-5209999Y-6997425D02*
X-5495713Y-7140282D01*
X-5495713Y-7140282D02*
X-5638571Y-7425996D01*
X-5638571Y-7425996D02*
X-5638571Y-7711710D01*
X-5638571Y-7711710D02*
X-4209999Y-7997425D01*
X-6781428Y-8854568D02*
X-7210000Y-8997425D01*
X-7210000Y-8997425D02*
X-7924285Y-8997425D01*
X-7924285Y-8997425D02*
X-8210000Y-8854568D01*
X-8210000Y-8854568D02*
X-8352857Y-8711710D01*
X-8352857Y-8711710D02*
X-8495714Y-8425996D01*
X-8495714Y-8425996D02*
X-8495714Y-8140282D01*
X-8495714Y-8140282D02*
X-8352857Y-7854568D01*
X-8352857Y-7854568D02*
X-8210000Y-7711710D01*
X-8210000Y-7711710D02*
X-7924285Y-7568853D01*
X-7924285Y-7568853D02*
X-7352857Y-7425996D01*
X-7352857Y-7425996D02*
X-7067142Y-7283139D01*
X-7067142Y-7283139D02*
X-6924285Y-7140282D01*
X-6924285Y-7140282D02*
X-6781428Y-6854568D01*
X-6781428Y-6854568D02*
X-6781428Y-6568853D01*
X-6781428Y-6568853D02*
X-6924285Y-6283139D01*
X-6924285Y-6283139D02*
X-7067142Y-6140282D01*
X-7067142Y-6140282D02*
X-7352857Y-5997425D01*
X-7352857Y-5997425D02*
X-8067142Y-5997425D01*
X-8067142Y-5997425D02*
X-8495714Y-6140282D01*
X-9781428Y-8997425D02*
X-9781428Y-6997425D01*
X-9781428Y-5997425D02*
X-9638571Y-6140282D01*
X-9638571Y-6140282D02*
X-9781428Y-6283139D01*
X-9781428Y-6283139D02*
X-9924285Y-6140282D01*
X-9924285Y-6140282D02*
X-9781428Y-5997425D01*
X-9781428Y-5997425D02*
X-9781428Y-6283139D01*
X-11209999Y-8997425D02*
X-11209999Y-6997425D01*
X-11209999Y-7283139D02*
X-11352856Y-7140282D01*
X-11352856Y-7140282D02*
X-11638571Y-6997425D01*
X-11638571Y-6997425D02*
X-12067142Y-6997425D01*
X-12067142Y-6997425D02*
X-12352856Y-7140282D01*
X-12352856Y-7140282D02*
X-12495714Y-7425996D01*
X-12495714Y-7425996D02*
X-12495714Y-8997425D01*
X-12495714Y-7425996D02*
X-12638571Y-7140282D01*
X-12638571Y-7140282D02*
X-12924285Y-6997425D01*
X-12924285Y-6997425D02*
X-13352856Y-6997425D01*
X-13352856Y-6997425D02*
X-13638571Y-7140282D01*
X-13638571Y-7140282D02*
X-13781428Y-7425996D01*
X-13781428Y-7425996D02*
X-13781428Y-8997425D01*
X-15209999Y-6997425D02*
X-15209999Y-9997425D01*
X-15209999Y-7140282D02*
X-15495714Y-6997425D01*
X-15495714Y-6997425D02*
X-16067142Y-6997425D01*
X-16067142Y-6997425D02*
X-16352856Y-7140282D01*
X-16352856Y-7140282D02*
X-16495714Y-7283139D01*
X-16495714Y-7283139D02*
X-16638571Y-7568853D01*
X-16638571Y-7568853D02*
X-16638571Y-8425996D01*
X-16638571Y-8425996D02*
X-16495714Y-8711710D01*
X-16495714Y-8711710D02*
X-16352856Y-8854568D01*
X-16352856Y-8854568D02*
X-16067142Y-8997425D01*
X-16067142Y-8997425D02*
X-15495714Y-8997425D01*
X-15495714Y-8997425D02*
X-15209999Y-8854568D01*
X-18352857Y-8997425D02*
X-18067142Y-8854568D01*
X-18067142Y-8854568D02*
X-17924285Y-8568853D01*
X-17924285Y-8568853D02*
X-17924285Y-5997425D01*
X-20638571Y-8854568D02*
X-20352857Y-8997425D01*
X-20352857Y-8997425D02*
X-19781429Y-8997425D01*
X-19781429Y-8997425D02*
X-19495714Y-8854568D01*
X-19495714Y-8854568D02*
X-19352857Y-8568853D01*
X-19352857Y-8568853D02*
X-19352857Y-7425996D01*
X-19352857Y-7425996D02*
X-19495714Y-7140282D01*
X-19495714Y-7140282D02*
X-19781429Y-6997425D01*
X-19781429Y-6997425D02*
X-20352857Y-6997425D01*
X-20352857Y-6997425D02*
X-20638571Y-7140282D01*
X-20638571Y-7140282D02*
X-20781429Y-7425996D01*
X-20781429Y-7425996D02*
X-20781429Y-7711710D01*
X-20781429Y-7711710D02*
X-19352857Y-7997425D01*
X-22067143Y-8711710D02*
X-22210000Y-8854568D01*
X-22210000Y-8854568D02*
X-22067143Y-8997425D01*
X-22067143Y-8997425D02*
X-21924286Y-8854568D01*
X-21924286Y-8854568D02*
X-22067143Y-8711710D01*
X-22067143Y-8711710D02*
X-22067143Y-8997425D01*
X-24781429Y-8854568D02*
X-24495714Y-8997425D01*
X-24495714Y-8997425D02*
X-23924286Y-8997425D01*
X-23924286Y-8997425D02*
X-23638571Y-8854568D01*
X-23638571Y-8854568D02*
X-23495714Y-8711710D01*
X-23495714Y-8711710D02*
X-23352857Y-8425996D01*
X-23352857Y-8425996D02*
X-23352857Y-7568853D01*
X-23352857Y-7568853D02*
X-23495714Y-7283139D01*
X-23495714Y-7283139D02*
X-23638571Y-7140282D01*
X-23638571Y-7140282D02*
X-23924286Y-6997425D01*
X-23924286Y-6997425D02*
X-24495714Y-6997425D01*
X-24495714Y-6997425D02*
X-24781429Y-7140282D01*
X-26495715Y-8997425D02*
X-26210000Y-8854568D01*
X-26210000Y-8854568D02*
X-26067143Y-8711710D01*
X-26067143Y-8711710D02*
X-25924286Y-8425996D01*
X-25924286Y-8425996D02*
X-25924286Y-7568853D01*
X-25924286Y-7568853D02*
X-26067143Y-7283139D01*
X-26067143Y-7283139D02*
X-26210000Y-7140282D01*
X-26210000Y-7140282D02*
X-26495715Y-6997425D01*
X-26495715Y-6997425D02*
X-26924286Y-6997425D01*
X-26924286Y-6997425D02*
X-27210000Y-7140282D01*
X-27210000Y-7140282D02*
X-27352858Y-7283139D01*
X-27352858Y-7283139D02*
X-27495715Y-7568853D01*
X-27495715Y-7568853D02*
X-27495715Y-8425996D01*
X-27495715Y-8425996D02*
X-27352858Y-8711710D01*
X-27352858Y-8711710D02*
X-27210000Y-8854568D01*
X-27210000Y-8854568D02*
X-26924286Y-8997425D01*
X-26924286Y-8997425D02*
X-26495715Y-8997425D01*
X-28781429Y-8997425D02*
X-28781429Y-6997425D01*
X-28781429Y-7283139D02*
X-28924286Y-7140282D01*
X-28924286Y-7140282D02*
X-29210001Y-6997425D01*
X-29210001Y-6997425D02*
X-29638572Y-6997425D01*
X-29638572Y-6997425D02*
X-29924286Y-7140282D01*
X-29924286Y-7140282D02*
X-30067144Y-7425996D01*
X-30067144Y-7425996D02*
X-30067144Y-8997425D01*
X-30067144Y-7425996D02*
X-30210001Y-7140282D01*
X-30210001Y-7140282D02*
X-30495715Y-6997425D01*
X-30495715Y-6997425D02*
X-30924286Y-6997425D01*
X-30924286Y-6997425D02*
X-31210001Y-7140282D01*
X-31210001Y-7140282D02*
X-31352858Y-7425996D01*
X-31352858Y-7425996D02*
X-31352858Y-8997425D01*
X15789999Y-13827257D02*
X15789999Y-10827257D01*
X15789999Y-10827257D02*
X14789999Y-12970114D01*
X14789999Y-12970114D02*
X13789999Y-10827257D01*
X13789999Y-10827257D02*
X13789999Y-13827257D01*
X11932856Y-13827257D02*
X12218571Y-13684400D01*
X12218571Y-13684400D02*
X12361428Y-13541542D01*
X12361428Y-13541542D02*
X12504285Y-13255828D01*
X12504285Y-13255828D02*
X12504285Y-12398685D01*
X12504285Y-12398685D02*
X12361428Y-12112971D01*
X12361428Y-12112971D02*
X12218571Y-11970114D01*
X12218571Y-11970114D02*
X11932856Y-11827257D01*
X11932856Y-11827257D02*
X11504285Y-11827257D01*
X11504285Y-11827257D02*
X11218571Y-11970114D01*
X11218571Y-11970114D02*
X11075714Y-12112971D01*
X11075714Y-12112971D02*
X10932856Y-12398685D01*
X10932856Y-12398685D02*
X10932856Y-13255828D01*
X10932856Y-13255828D02*
X11075714Y-13541542D01*
X11075714Y-13541542D02*
X11218571Y-13684400D01*
X11218571Y-13684400D02*
X11504285Y-13827257D01*
X11504285Y-13827257D02*
X11932856Y-13827257D01*
X9647142Y-13827257D02*
X9647142Y-11827257D01*
X9647142Y-10827257D02*
X9789999Y-10970114D01*
X9789999Y-10970114D02*
X9647142Y-11112971D01*
X9647142Y-11112971D02*
X9504285Y-10970114D01*
X9504285Y-10970114D02*
X9647142Y-10827257D01*
X9647142Y-10827257D02*
X9647142Y-11112971D01*
X8361428Y-13684400D02*
X8075714Y-13827257D01*
X8075714Y-13827257D02*
X7504285Y-13827257D01*
X7504285Y-13827257D02*
X7218571Y-13684400D01*
X7218571Y-13684400D02*
X7075714Y-13398685D01*
X7075714Y-13398685D02*
X7075714Y-13255828D01*
X7075714Y-13255828D02*
X7218571Y-12970114D01*
X7218571Y-12970114D02*
X7504285Y-12827257D01*
X7504285Y-12827257D02*
X7932857Y-12827257D01*
X7932857Y-12827257D02*
X8218571Y-12684400D01*
X8218571Y-12684400D02*
X8361428Y-12398685D01*
X8361428Y-12398685D02*
X8361428Y-12255828D01*
X8361428Y-12255828D02*
X8218571Y-11970114D01*
X8218571Y-11970114D02*
X7932857Y-11827257D01*
X7932857Y-11827257D02*
X7504285Y-11827257D01*
X7504285Y-11827257D02*
X7218571Y-11970114D01*
X6218571Y-11827257D02*
X5075714Y-11827257D01*
X5790000Y-10827257D02*
X5790000Y-13398685D01*
X5790000Y-13398685D02*
X5647143Y-13684400D01*
X5647143Y-13684400D02*
X5361428Y-13827257D01*
X5361428Y-13827257D02*
X5075714Y-13827257D01*
X2790000Y-11827257D02*
X2790000Y-13827257D01*
X4075714Y-11827257D02*
X4075714Y-13398685D01*
X4075714Y-13398685D02*
X3932857Y-13684400D01*
X3932857Y-13684400D02*
X3647142Y-13827257D01*
X3647142Y-13827257D02*
X3218571Y-13827257D01*
X3218571Y-13827257D02*
X2932857Y-13684400D01*
X2932857Y-13684400D02*
X2790000Y-13541542D01*
X1361428Y-13827257D02*
X1361428Y-11827257D01*
X1361428Y-12398685D02*
X1218571Y-12112971D01*
X1218571Y-12112971D02*
X1075714Y-11970114D01*
X1075714Y-11970114D02*
X789999Y-11827257D01*
X789999Y-11827257D02*
X504285Y-11827257D01*
X-1638571Y-13684400D02*
X-1352857Y-13827257D01*
X-1352857Y-13827257D02*
X-781429Y-13827257D01*
X-781429Y-13827257D02*
X-495714Y-13684400D01*
X-495714Y-13684400D02*
X-352857Y-13398685D01*
X-352857Y-13398685D02*
X-352857Y-12255828D01*
X-352857Y-12255828D02*
X-495714Y-11970114D01*
X-495714Y-11970114D02*
X-781429Y-11827257D01*
X-781429Y-11827257D02*
X-1352857Y-11827257D01*
X-1352857Y-11827257D02*
X-1638571Y-11970114D01*
X-1638571Y-11970114D02*
X-1781429Y-12255828D01*
X-1781429Y-12255828D02*
X-1781429Y-12541542D01*
X-1781429Y-12541542D02*
X-352857Y-12827257D01*
X-3067143Y-13827257D02*
X-3067143Y-10827257D01*
X-6495714Y-14112971D02*
X-6210000Y-13970114D01*
X-6210000Y-13970114D02*
X-5924286Y-13684400D01*
X-5924286Y-13684400D02*
X-5495714Y-13255828D01*
X-5495714Y-13255828D02*
X-5210000Y-13112971D01*
X-5210000Y-13112971D02*
X-4924286Y-13112971D01*
X-5067143Y-13827257D02*
X-4781429Y-13684400D01*
X-4781429Y-13684400D02*
X-4495714Y-13398685D01*
X-4495714Y-13398685D02*
X-4352857Y-12827257D01*
X-4352857Y-12827257D02*
X-4352857Y-11827257D01*
X-4352857Y-11827257D02*
X-4495714Y-11255828D01*
X-4495714Y-11255828D02*
X-4781429Y-10970114D01*
X-4781429Y-10970114D02*
X-5067143Y-10827257D01*
X-5067143Y-10827257D02*
X-5638571Y-10827257D01*
X-5638571Y-10827257D02*
X-5924286Y-10970114D01*
X-5924286Y-10970114D02*
X-6210000Y-11255828D01*
X-6210000Y-11255828D02*
X-6352857Y-11827257D01*
X-6352857Y-11827257D02*
X-6352857Y-12827257D01*
X-6352857Y-12827257D02*
X-6210000Y-13398685D01*
X-6210000Y-13398685D02*
X-5924286Y-13684400D01*
X-5924286Y-13684400D02*
X-5638571Y-13827257D01*
X-5638571Y-13827257D02*
X-5067143Y-13827257D01*
X-9495714Y-10827257D02*
X-10495714Y-13827257D01*
X-10495714Y-13827257D02*
X-11495714Y-10827257D01*
X-14067143Y-13827257D02*
X-12352857Y-13827257D01*
X-13210000Y-13827257D02*
X-13210000Y-10827257D01*
X-13210000Y-10827257D02*
X-12924286Y-11255828D01*
X-12924286Y-11255828D02*
X-12638571Y-11541542D01*
X-12638571Y-11541542D02*
X-12352857Y-11684400D01*
X-15352857Y-13541542D02*
X-15495714Y-13684400D01*
X-15495714Y-13684400D02*
X-15352857Y-13827257D01*
X-15352857Y-13827257D02*
X-15210000Y-13684400D01*
X-15210000Y-13684400D02*
X-15352857Y-13541542D01*
X-15352857Y-13541542D02*
X-15352857Y-13827257D01*
X-17352857Y-10827257D02*
X-17638571Y-10827257D01*
X-17638571Y-10827257D02*
X-17924285Y-10970114D01*
X-17924285Y-10970114D02*
X-18067143Y-11112971D01*
X-18067143Y-11112971D02*
X-18210000Y-11398685D01*
X-18210000Y-11398685D02*
X-18352857Y-11970114D01*
X-18352857Y-11970114D02*
X-18352857Y-12684400D01*
X-18352857Y-12684400D02*
X-18210000Y-13255828D01*
X-18210000Y-13255828D02*
X-18067143Y-13541542D01*
X-18067143Y-13541542D02*
X-17924285Y-13684400D01*
X-17924285Y-13684400D02*
X-17638571Y-13827257D01*
X-17638571Y-13827257D02*
X-17352857Y-13827257D01*
X-17352857Y-13827257D02*
X-17067143Y-13684400D01*
X-17067143Y-13684400D02*
X-16924285Y-13541542D01*
X-16924285Y-13541542D02*
X-16781428Y-13255828D01*
X-16781428Y-13255828D02*
X-16638571Y-12684400D01*
X-16638571Y-12684400D02*
X-16638571Y-11970114D01*
X-16638571Y-11970114D02*
X-16781428Y-11398685D01*
X-16781428Y-11398685D02*
X-16924285Y-11112971D01*
X-16924285Y-11112971D02*
X-17067143Y-10970114D01*
X-17067143Y-10970114D02*
X-17352857Y-10827257D01*
D11*
X-53286779Y26411133D02*
X-54048684Y26411133D01*
X-60486779Y26511133D02*
X-61248684Y26511133D01*
X-60867731Y26130180D02*
X-60867731Y26892085D01*
X-60286779Y-26488866D02*
X-61048684Y-26488866D01*
X-53386779Y-26488866D02*
X-54148684Y-26488866D01*
X-53767731Y-26869819D02*
X-53767731Y-26107914D01*
X-57801064Y7143800D02*
X-57915350Y7105704D01*
X-57915350Y7105704D02*
X-58105826Y7105704D01*
X-58105826Y7105704D02*
X-58182017Y7143800D01*
X-58182017Y7143800D02*
X-58220112Y7181895D01*
X-58220112Y7181895D02*
X-58258207Y7258085D01*
X-58258207Y7258085D02*
X-58258207Y7334276D01*
X-58258207Y7334276D02*
X-58220112Y7410466D01*
X-58220112Y7410466D02*
X-58182017Y7448561D01*
X-58182017Y7448561D02*
X-58105826Y7486657D01*
X-58105826Y7486657D02*
X-57953445Y7524752D01*
X-57953445Y7524752D02*
X-57877255Y7562847D01*
X-57877255Y7562847D02*
X-57839160Y7600942D01*
X-57839160Y7600942D02*
X-57801064Y7677133D01*
X-57801064Y7677133D02*
X-57801064Y7753323D01*
X-57801064Y7753323D02*
X-57839160Y7829514D01*
X-57839160Y7829514D02*
X-57877255Y7867609D01*
X-57877255Y7867609D02*
X-57953445Y7905704D01*
X-57953445Y7905704D02*
X-58143922Y7905704D01*
X-58143922Y7905704D02*
X-58258207Y7867609D01*
X-58601065Y7105704D02*
X-58601065Y7905704D01*
X-58601065Y7905704D02*
X-58791541Y7905704D01*
X-58791541Y7905704D02*
X-58905827Y7867609D01*
X-58905827Y7867609D02*
X-58982017Y7791419D01*
X-58982017Y7791419D02*
X-59020112Y7715228D01*
X-59020112Y7715228D02*
X-59058208Y7562847D01*
X-59058208Y7562847D02*
X-59058208Y7448561D01*
X-59058208Y7448561D02*
X-59020112Y7296180D01*
X-59020112Y7296180D02*
X-58982017Y7219990D01*
X-58982017Y7219990D02*
X-58905827Y7143800D01*
X-58905827Y7143800D02*
X-58791541Y7105704D01*
X-58791541Y7105704D02*
X-58601065Y7105704D01*
X-59362969Y7334276D02*
X-59743922Y7334276D01*
X-59286779Y7105704D02*
X-59553446Y7905704D01*
X-59553446Y7905704D02*
X-59820112Y7105704D01*
X-52258207Y7867609D02*
X-52182017Y7905704D01*
X-52182017Y7905704D02*
X-52067731Y7905704D01*
X-52067731Y7905704D02*
X-51953445Y7867609D01*
X-51953445Y7867609D02*
X-51877255Y7791419D01*
X-51877255Y7791419D02*
X-51839160Y7715228D01*
X-51839160Y7715228D02*
X-51801064Y7562847D01*
X-51801064Y7562847D02*
X-51801064Y7448561D01*
X-51801064Y7448561D02*
X-51839160Y7296180D01*
X-51839160Y7296180D02*
X-51877255Y7219990D01*
X-51877255Y7219990D02*
X-51953445Y7143800D01*
X-51953445Y7143800D02*
X-52067731Y7105704D01*
X-52067731Y7105704D02*
X-52143922Y7105704D01*
X-52143922Y7105704D02*
X-52258207Y7143800D01*
X-52258207Y7143800D02*
X-52296303Y7181895D01*
X-52296303Y7181895D02*
X-52296303Y7448561D01*
X-52296303Y7448561D02*
X-52143922Y7448561D01*
X-52639160Y7105704D02*
X-52639160Y7905704D01*
X-52639160Y7905704D02*
X-53096303Y7105704D01*
X-53096303Y7105704D02*
X-53096303Y7905704D01*
X-53477255Y7105704D02*
X-53477255Y7905704D01*
X-53477255Y7905704D02*
X-53667731Y7905704D01*
X-53667731Y7905704D02*
X-53782017Y7867609D01*
X-53782017Y7867609D02*
X-53858207Y7791419D01*
X-53858207Y7791419D02*
X-53896302Y7715228D01*
X-53896302Y7715228D02*
X-53934398Y7562847D01*
X-53934398Y7562847D02*
X-53934398Y7448561D01*
X-53934398Y7448561D02*
X-53896302Y7296180D01*
X-53896302Y7296180D02*
X-53858207Y7219990D01*
X-53858207Y7219990D02*
X-53782017Y7143800D01*
X-53782017Y7143800D02*
X-53667731Y7105704D01*
X-53667731Y7105704D02*
X-53477255Y7105704D01*
X-54724874Y7905704D02*
X-54991541Y7105704D01*
X-54991541Y7105704D02*
X-55258207Y7905704D01*
X-55982017Y7181895D02*
X-55943921Y7143800D01*
X-55943921Y7143800D02*
X-55829636Y7105704D01*
X-55829636Y7105704D02*
X-55753445Y7105704D01*
X-55753445Y7105704D02*
X-55639159Y7143800D01*
X-55639159Y7143800D02*
X-55562969Y7219990D01*
X-55562969Y7219990D02*
X-55524874Y7296180D01*
X-55524874Y7296180D02*
X-55486778Y7448561D01*
X-55486778Y7448561D02*
X-55486778Y7562847D01*
X-55486778Y7562847D02*
X-55524874Y7715228D01*
X-55524874Y7715228D02*
X-55562969Y7791419D01*
X-55562969Y7791419D02*
X-55639159Y7867609D01*
X-55639159Y7867609D02*
X-55753445Y7905704D01*
X-55753445Y7905704D02*
X-55829636Y7905704D01*
X-55829636Y7905704D02*
X-55943921Y7867609D01*
X-55943921Y7867609D02*
X-55982017Y7829514D01*
X-56782017Y7181895D02*
X-56743921Y7143800D01*
X-56743921Y7143800D02*
X-56629636Y7105704D01*
X-56629636Y7105704D02*
X-56553445Y7105704D01*
X-56553445Y7105704D02*
X-56439159Y7143800D01*
X-56439159Y7143800D02*
X-56362969Y7219990D01*
X-56362969Y7219990D02*
X-56324874Y7296180D01*
X-56324874Y7296180D02*
X-56286778Y7448561D01*
X-56286778Y7448561D02*
X-56286778Y7562847D01*
X-56286778Y7562847D02*
X-56324874Y7715228D01*
X-56324874Y7715228D02*
X-56362969Y7791419D01*
X-56362969Y7791419D02*
X-56439159Y7867609D01*
X-56439159Y7867609D02*
X-56553445Y7905704D01*
X-56553445Y7905704D02*
X-56629636Y7905704D01*
X-56629636Y7905704D02*
X-56743921Y7867609D01*
X-56743921Y7867609D02*
X-56782017Y7829514D01*
X-61001064Y7143800D02*
X-61115350Y7105704D01*
X-61115350Y7105704D02*
X-61305826Y7105704D01*
X-61305826Y7105704D02*
X-61382017Y7143800D01*
X-61382017Y7143800D02*
X-61420112Y7181895D01*
X-61420112Y7181895D02*
X-61458207Y7258085D01*
X-61458207Y7258085D02*
X-61458207Y7334276D01*
X-61458207Y7334276D02*
X-61420112Y7410466D01*
X-61420112Y7410466D02*
X-61382017Y7448561D01*
X-61382017Y7448561D02*
X-61305826Y7486657D01*
X-61305826Y7486657D02*
X-61153445Y7524752D01*
X-61153445Y7524752D02*
X-61077255Y7562847D01*
X-61077255Y7562847D02*
X-61039160Y7600942D01*
X-61039160Y7600942D02*
X-61001064Y7677133D01*
X-61001064Y7677133D02*
X-61001064Y7753323D01*
X-61001064Y7753323D02*
X-61039160Y7829514D01*
X-61039160Y7829514D02*
X-61077255Y7867609D01*
X-61077255Y7867609D02*
X-61153445Y7905704D01*
X-61153445Y7905704D02*
X-61343922Y7905704D01*
X-61343922Y7905704D02*
X-61458207Y7867609D01*
X-62258208Y7181895D02*
X-62220112Y7143800D01*
X-62220112Y7143800D02*
X-62105827Y7105704D01*
X-62105827Y7105704D02*
X-62029636Y7105704D01*
X-62029636Y7105704D02*
X-61915350Y7143800D01*
X-61915350Y7143800D02*
X-61839160Y7219990D01*
X-61839160Y7219990D02*
X-61801065Y7296180D01*
X-61801065Y7296180D02*
X-61762969Y7448561D01*
X-61762969Y7448561D02*
X-61762969Y7562847D01*
X-61762969Y7562847D02*
X-61801065Y7715228D01*
X-61801065Y7715228D02*
X-61839160Y7791419D01*
X-61839160Y7791419D02*
X-61915350Y7867609D01*
X-61915350Y7867609D02*
X-62029636Y7905704D01*
X-62029636Y7905704D02*
X-62105827Y7905704D01*
X-62105827Y7905704D02*
X-62220112Y7867609D01*
X-62220112Y7867609D02*
X-62258208Y7829514D01*
X-62982017Y7105704D02*
X-62601065Y7105704D01*
X-62601065Y7105704D02*
X-62601065Y7905704D01*
X-51901064Y-7856200D02*
X-52015350Y-7894295D01*
X-52015350Y-7894295D02*
X-52205826Y-7894295D01*
X-52205826Y-7894295D02*
X-52282017Y-7856200D01*
X-52282017Y-7856200D02*
X-52320112Y-7818104D01*
X-52320112Y-7818104D02*
X-52358207Y-7741914D01*
X-52358207Y-7741914D02*
X-52358207Y-7665723D01*
X-52358207Y-7665723D02*
X-52320112Y-7589533D01*
X-52320112Y-7589533D02*
X-52282017Y-7551438D01*
X-52282017Y-7551438D02*
X-52205826Y-7513342D01*
X-52205826Y-7513342D02*
X-52053445Y-7475247D01*
X-52053445Y-7475247D02*
X-51977255Y-7437152D01*
X-51977255Y-7437152D02*
X-51939160Y-7399057D01*
X-51939160Y-7399057D02*
X-51901064Y-7322866D01*
X-51901064Y-7322866D02*
X-51901064Y-7246676D01*
X-51901064Y-7246676D02*
X-51939160Y-7170485D01*
X-51939160Y-7170485D02*
X-51977255Y-7132390D01*
X-51977255Y-7132390D02*
X-52053445Y-7094295D01*
X-52053445Y-7094295D02*
X-52243922Y-7094295D01*
X-52243922Y-7094295D02*
X-52358207Y-7132390D01*
X-53158208Y-7818104D02*
X-53120112Y-7856200D01*
X-53120112Y-7856200D02*
X-53005827Y-7894295D01*
X-53005827Y-7894295D02*
X-52929636Y-7894295D01*
X-52929636Y-7894295D02*
X-52815350Y-7856200D01*
X-52815350Y-7856200D02*
X-52739160Y-7780009D01*
X-52739160Y-7780009D02*
X-52701065Y-7703819D01*
X-52701065Y-7703819D02*
X-52662969Y-7551438D01*
X-52662969Y-7551438D02*
X-52662969Y-7437152D01*
X-52662969Y-7437152D02*
X-52701065Y-7284771D01*
X-52701065Y-7284771D02*
X-52739160Y-7208580D01*
X-52739160Y-7208580D02*
X-52815350Y-7132390D01*
X-52815350Y-7132390D02*
X-52929636Y-7094295D01*
X-52929636Y-7094295D02*
X-53005827Y-7094295D01*
X-53005827Y-7094295D02*
X-53120112Y-7132390D01*
X-53120112Y-7132390D02*
X-53158208Y-7170485D01*
X-53882017Y-7894295D02*
X-53501065Y-7894295D01*
X-53501065Y-7894295D02*
X-53501065Y-7094295D01*
X-54601064Y-7856200D02*
X-54715350Y-7894295D01*
X-54715350Y-7894295D02*
X-54905826Y-7894295D01*
X-54905826Y-7894295D02*
X-54982017Y-7856200D01*
X-54982017Y-7856200D02*
X-55020112Y-7818104D01*
X-55020112Y-7818104D02*
X-55058207Y-7741914D01*
X-55058207Y-7741914D02*
X-55058207Y-7665723D01*
X-55058207Y-7665723D02*
X-55020112Y-7589533D01*
X-55020112Y-7589533D02*
X-54982017Y-7551438D01*
X-54982017Y-7551438D02*
X-54905826Y-7513342D01*
X-54905826Y-7513342D02*
X-54753445Y-7475247D01*
X-54753445Y-7475247D02*
X-54677255Y-7437152D01*
X-54677255Y-7437152D02*
X-54639160Y-7399057D01*
X-54639160Y-7399057D02*
X-54601064Y-7322866D01*
X-54601064Y-7322866D02*
X-54601064Y-7246676D01*
X-54601064Y-7246676D02*
X-54639160Y-7170485D01*
X-54639160Y-7170485D02*
X-54677255Y-7132390D01*
X-54677255Y-7132390D02*
X-54753445Y-7094295D01*
X-54753445Y-7094295D02*
X-54943922Y-7094295D01*
X-54943922Y-7094295D02*
X-55058207Y-7132390D01*
X-55401065Y-7894295D02*
X-55401065Y-7094295D01*
X-55401065Y-7094295D02*
X-55591541Y-7094295D01*
X-55591541Y-7094295D02*
X-55705827Y-7132390D01*
X-55705827Y-7132390D02*
X-55782017Y-7208580D01*
X-55782017Y-7208580D02*
X-55820112Y-7284771D01*
X-55820112Y-7284771D02*
X-55858208Y-7437152D01*
X-55858208Y-7437152D02*
X-55858208Y-7551438D01*
X-55858208Y-7551438D02*
X-55820112Y-7703819D01*
X-55820112Y-7703819D02*
X-55782017Y-7780009D01*
X-55782017Y-7780009D02*
X-55705827Y-7856200D01*
X-55705827Y-7856200D02*
X-55591541Y-7894295D01*
X-55591541Y-7894295D02*
X-55401065Y-7894295D01*
X-56162969Y-7665723D02*
X-56543922Y-7665723D01*
X-56086779Y-7894295D02*
X-56353446Y-7094295D01*
X-56353446Y-7094295D02*
X-56620112Y-7894295D01*
X-57424874Y-7094295D02*
X-57691541Y-7894295D01*
X-57691541Y-7894295D02*
X-57958207Y-7094295D01*
X-58682017Y-7818104D02*
X-58643921Y-7856200D01*
X-58643921Y-7856200D02*
X-58529636Y-7894295D01*
X-58529636Y-7894295D02*
X-58453445Y-7894295D01*
X-58453445Y-7894295D02*
X-58339159Y-7856200D01*
X-58339159Y-7856200D02*
X-58262969Y-7780009D01*
X-58262969Y-7780009D02*
X-58224874Y-7703819D01*
X-58224874Y-7703819D02*
X-58186778Y-7551438D01*
X-58186778Y-7551438D02*
X-58186778Y-7437152D01*
X-58186778Y-7437152D02*
X-58224874Y-7284771D01*
X-58224874Y-7284771D02*
X-58262969Y-7208580D01*
X-58262969Y-7208580D02*
X-58339159Y-7132390D01*
X-58339159Y-7132390D02*
X-58453445Y-7094295D01*
X-58453445Y-7094295D02*
X-58529636Y-7094295D01*
X-58529636Y-7094295D02*
X-58643921Y-7132390D01*
X-58643921Y-7132390D02*
X-58682017Y-7170485D01*
X-59482017Y-7818104D02*
X-59443921Y-7856200D01*
X-59443921Y-7856200D02*
X-59329636Y-7894295D01*
X-59329636Y-7894295D02*
X-59253445Y-7894295D01*
X-59253445Y-7894295D02*
X-59139159Y-7856200D01*
X-59139159Y-7856200D02*
X-59062969Y-7780009D01*
X-59062969Y-7780009D02*
X-59024874Y-7703819D01*
X-59024874Y-7703819D02*
X-58986778Y-7551438D01*
X-58986778Y-7551438D02*
X-58986778Y-7437152D01*
X-58986778Y-7437152D02*
X-59024874Y-7284771D01*
X-59024874Y-7284771D02*
X-59062969Y-7208580D01*
X-59062969Y-7208580D02*
X-59139159Y-7132390D01*
X-59139159Y-7132390D02*
X-59253445Y-7094295D01*
X-59253445Y-7094295D02*
X-59329636Y-7094295D01*
X-59329636Y-7094295D02*
X-59443921Y-7132390D01*
X-59443921Y-7132390D02*
X-59482017Y-7170485D01*
X-60858207Y-7132390D02*
X-60782017Y-7094295D01*
X-60782017Y-7094295D02*
X-60667731Y-7094295D01*
X-60667731Y-7094295D02*
X-60553445Y-7132390D01*
X-60553445Y-7132390D02*
X-60477255Y-7208580D01*
X-60477255Y-7208580D02*
X-60439160Y-7284771D01*
X-60439160Y-7284771D02*
X-60401064Y-7437152D01*
X-60401064Y-7437152D02*
X-60401064Y-7551438D01*
X-60401064Y-7551438D02*
X-60439160Y-7703819D01*
X-60439160Y-7703819D02*
X-60477255Y-7780009D01*
X-60477255Y-7780009D02*
X-60553445Y-7856200D01*
X-60553445Y-7856200D02*
X-60667731Y-7894295D01*
X-60667731Y-7894295D02*
X-60743922Y-7894295D01*
X-60743922Y-7894295D02*
X-60858207Y-7856200D01*
X-60858207Y-7856200D02*
X-60896303Y-7818104D01*
X-60896303Y-7818104D02*
X-60896303Y-7551438D01*
X-60896303Y-7551438D02*
X-60743922Y-7551438D01*
X-61239160Y-7894295D02*
X-61239160Y-7094295D01*
X-61239160Y-7094295D02*
X-61696303Y-7894295D01*
X-61696303Y-7894295D02*
X-61696303Y-7094295D01*
X-62077255Y-7894295D02*
X-62077255Y-7094295D01*
X-62077255Y-7094295D02*
X-62267731Y-7094295D01*
X-62267731Y-7094295D02*
X-62382017Y-7132390D01*
X-62382017Y-7132390D02*
X-62458207Y-7208580D01*
X-62458207Y-7208580D02*
X-62496302Y-7284771D01*
X-62496302Y-7284771D02*
X-62534398Y-7437152D01*
X-62534398Y-7437152D02*
X-62534398Y-7551438D01*
X-62534398Y-7551438D02*
X-62496302Y-7703819D01*
X-62496302Y-7703819D02*
X-62458207Y-7780009D01*
X-62458207Y-7780009D02*
X-62382017Y-7856200D01*
X-62382017Y-7856200D02*
X-62267731Y-7894295D01*
X-62267731Y-7894295D02*
X-62077255Y-7894295D01*
X42460000Y5610000D02*
X42460000Y-3990000D01*
X39860000Y-3990000D02*
X38860000Y-3990000D01*
X42460000Y-3990000D02*
X41360000Y-3990000D01*
X38860000Y5610000D02*
X42460000Y5610000D01*
X41360000Y-3990000D02*
X41360000Y-4990000D01*
X40610000Y4810000D02*
X40610000Y3810000D01*
X40660000Y-1940000D02*
X40660000Y-3440000D01*
X41360000Y-4990000D02*
X39860000Y-4990000D01*
X38860000Y-3990000D02*
X38860000Y5610000D01*
X39860000Y-4990000D02*
X39860000Y-3990000D01*
X39960000Y-2690000D02*
X41360000Y-2690000D01*
X21990000Y-4970000D02*
X21990000Y4630000D01*
X24589999Y4630002D02*
X25589999Y4630001D01*
X21990000Y4630000D02*
X23089999Y4630001D01*
X25589999Y-4969999D02*
X21990000Y-4970000D01*
X23089999Y4630001D02*
X23089999Y5630000D01*
X23840000Y-4170000D02*
X23840000Y-3169999D01*
X23789999Y2580001D02*
X23789999Y4080001D01*
X23089999Y5630000D02*
X24589999Y5630001D01*
X25589999Y4630001D02*
X25589999Y-4969999D01*
X24589999Y5630001D02*
X24589999Y4630002D01*
X24489999Y3330000D02*
X23090000Y3330001D01*
X9870000Y5630001D02*
X9870000Y-3969999D01*
X7270000Y-3970001D02*
X6270000Y-3970001D01*
X9870000Y-3969999D02*
X8770000Y-3970001D01*
X6270000Y5629999D02*
X9870000Y5630001D01*
X8770000Y-3970001D02*
X8770000Y-4970000D01*
X8019999Y4830001D02*
X8019999Y3830000D01*
X8070000Y-1920000D02*
X8070000Y-3420000D01*
X8770000Y-4970000D02*
X7270000Y-4970000D01*
X6270000Y-3970001D02*
X6270000Y5629999D01*
X7270000Y-4970000D02*
X7270000Y-3970001D01*
X7370000Y-2670000D02*
X8769999Y-2670000D01*
X-40890000Y4630000D02*
X-39890000Y4630000D01*
X-40890000Y5630000D02*
X-40890000Y4630000D01*
X-9100000Y-4170000D02*
X-9100000Y-3170000D01*
X-42390000Y5630000D02*
X-40890000Y5630000D01*
X-9850000Y5630000D02*
X-8350000Y5630000D01*
X-10950000Y4630000D02*
X-9850000Y4630000D01*
X-40990000Y3330000D02*
X-42390000Y3330000D01*
X-9850000Y4630000D02*
X-9850000Y5630000D01*
X-41690000Y2580000D02*
X-41690000Y4080000D01*
X-41640000Y-4170000D02*
X-41640000Y-3170000D01*
X-8450000Y3330000D02*
X-9850000Y3330000D01*
X-39890000Y-4970000D02*
X-43490000Y-4970000D01*
X-43490000Y4630000D02*
X-42390000Y4630000D01*
X-7350000Y4630000D02*
X-7350000Y-4970000D01*
X-8350000Y5630000D02*
X-8350000Y4630000D01*
X-7350000Y-4970000D02*
X-10950000Y-4970000D01*
X-10950000Y-4970000D02*
X-10950000Y4630000D01*
X-9150000Y2580000D02*
X-9150000Y4080000D01*
X-8350000Y4630000D02*
X-7350000Y4630000D01*
X-42390000Y4630000D02*
X-42390000Y5630000D01*
X-43490000Y-4970000D02*
X-43490000Y4630000D01*
X-39890000Y4630000D02*
X-39890000Y-4970000D01*
X-23060000Y5630000D02*
X-23060000Y-3970000D01*
X-25660000Y-4970000D02*
X-25660000Y-3970000D01*
X-23060000Y-3970000D02*
X-24160000Y-3970000D01*
X-24860000Y-1920000D02*
X-24860000Y-3420000D01*
X-26660000Y5630000D02*
X-23060000Y5630000D01*
X-24160000Y-3970000D02*
X-24160000Y-4970000D01*
X-25560000Y-2670000D02*
X-24160000Y-2670000D01*
X-24910000Y4830000D02*
X-24910000Y3830000D01*
X-24160000Y-4970000D02*
X-25660000Y-4970000D01*
X-26660000Y-3970000D02*
X-26660000Y5630000D01*
X-25660000Y-3970000D02*
X-26660000Y-3970000D01*
D12*
X-43291681Y-18466618D02*
X-42263586Y-18466618D01*
X-42263586Y-18466618D02*
X-42142634Y-18527095D01*
X-42142634Y-18527095D02*
X-42082158Y-18587571D01*
X-42082158Y-18587571D02*
X-42021681Y-18708523D01*
X-42021681Y-18708523D02*
X-42021681Y-18950428D01*
X-42021681Y-18950428D02*
X-42082158Y-19071380D01*
X-42082158Y-19071380D02*
X-42142634Y-19131857D01*
X-42142634Y-19131857D02*
X-42263586Y-19192333D01*
X-42263586Y-19192333D02*
X-43291681Y-19192333D01*
X-42021681Y-20462333D02*
X-42021681Y-19736618D01*
X-42021681Y-20099475D02*
X-43291681Y-20099475D01*
X-43291681Y-20099475D02*
X-43110253Y-19978523D01*
X-43110253Y-19978523D02*
X-42989300Y-19857571D01*
X-42989300Y-19857571D02*
X-42928824Y-19736618D01*
X-43291681Y-20885666D02*
X-43291681Y-21732333D01*
X-43291681Y-21732333D02*
X-42021681Y-21188047D01*
X-26891681Y-18466618D02*
X-25863586Y-18466618D01*
X-25863586Y-18466618D02*
X-25742634Y-18527095D01*
X-25742634Y-18527095D02*
X-25682158Y-18587571D01*
X-25682158Y-18587571D02*
X-25621681Y-18708523D01*
X-25621681Y-18708523D02*
X-25621681Y-18950428D01*
X-25621681Y-18950428D02*
X-25682158Y-19071380D01*
X-25682158Y-19071380D02*
X-25742634Y-19131857D01*
X-25742634Y-19131857D02*
X-25863586Y-19192333D01*
X-25863586Y-19192333D02*
X-26891681Y-19192333D01*
X-25621681Y-20462333D02*
X-25621681Y-19736618D01*
X-25621681Y-20099475D02*
X-26891681Y-20099475D01*
X-26891681Y-20099475D02*
X-26710253Y-19978523D01*
X-26710253Y-19978523D02*
X-26589300Y-19857571D01*
X-26589300Y-19857571D02*
X-26528824Y-19736618D01*
X-26891681Y-21550904D02*
X-26891681Y-21308999D01*
X-26891681Y-21308999D02*
X-26831205Y-21188047D01*
X-26831205Y-21188047D02*
X-26770729Y-21127571D01*
X-26770729Y-21127571D02*
X-26589300Y-21006618D01*
X-26589300Y-21006618D02*
X-26347396Y-20946142D01*
X-26347396Y-20946142D02*
X-25863586Y-20946142D01*
X-25863586Y-20946142D02*
X-25742634Y-21006618D01*
X-25742634Y-21006618D02*
X-25682158Y-21067095D01*
X-25682158Y-21067095D02*
X-25621681Y-21188047D01*
X-25621681Y-21188047D02*
X-25621681Y-21429952D01*
X-25621681Y-21429952D02*
X-25682158Y-21550904D01*
X-25682158Y-21550904D02*
X-25742634Y-21611380D01*
X-25742634Y-21611380D02*
X-25863586Y-21671857D01*
X-25863586Y-21671857D02*
X-26165967Y-21671857D01*
X-26165967Y-21671857D02*
X-26286919Y-21611380D01*
X-26286919Y-21611380D02*
X-26347396Y-21550904D01*
X-26347396Y-21550904D02*
X-26407872Y-21429952D01*
X-26407872Y-21429952D02*
X-26407872Y-21188047D01*
X-26407872Y-21188047D02*
X-26347396Y-21067095D01*
X-26347396Y-21067095D02*
X-26286919Y-21006618D01*
X-26286919Y-21006618D02*
X-26165967Y-20946142D01*
X-10491681Y-18466618D02*
X-9463586Y-18466618D01*
X-9463586Y-18466618D02*
X-9342634Y-18527095D01*
X-9342634Y-18527095D02*
X-9282158Y-18587571D01*
X-9282158Y-18587571D02*
X-9221681Y-18708523D01*
X-9221681Y-18708523D02*
X-9221681Y-18950428D01*
X-9221681Y-18950428D02*
X-9282158Y-19071380D01*
X-9282158Y-19071380D02*
X-9342634Y-19131857D01*
X-9342634Y-19131857D02*
X-9463586Y-19192333D01*
X-9463586Y-19192333D02*
X-10491681Y-19192333D01*
X-9221681Y-20462333D02*
X-9221681Y-19736618D01*
X-9221681Y-20099475D02*
X-10491681Y-20099475D01*
X-10491681Y-20099475D02*
X-10310253Y-19978523D01*
X-10310253Y-19978523D02*
X-10189300Y-19857571D01*
X-10189300Y-19857571D02*
X-10128824Y-19736618D01*
X-10491681Y-21611380D02*
X-10491681Y-21006618D01*
X-10491681Y-21006618D02*
X-9886919Y-20946142D01*
X-9886919Y-20946142D02*
X-9947396Y-21006618D01*
X-9947396Y-21006618D02*
X-10007872Y-21127571D01*
X-10007872Y-21127571D02*
X-10007872Y-21429952D01*
X-10007872Y-21429952D02*
X-9947396Y-21550904D01*
X-9947396Y-21550904D02*
X-9886919Y-21611380D01*
X-9886919Y-21611380D02*
X-9765967Y-21671857D01*
X-9765967Y-21671857D02*
X-9463586Y-21671857D01*
X-9463586Y-21671857D02*
X-9342634Y-21611380D01*
X-9342634Y-21611380D02*
X-9282158Y-21550904D01*
X-9282158Y-21550904D02*
X-9221681Y-21429952D01*
X-9221681Y-21429952D02*
X-9221681Y-21127571D01*
X-9221681Y-21127571D02*
X-9282158Y-21006618D01*
X-9282158Y-21006618D02*
X-9342634Y-20946142D01*
X-41599681Y21611381D02*
X-40571586Y21611381D01*
X-40571586Y21611381D02*
X-40450634Y21550904D01*
X-40450634Y21550904D02*
X-40390158Y21490428D01*
X-40390158Y21490428D02*
X-40329681Y21369476D01*
X-40329681Y21369476D02*
X-40329681Y21127571D01*
X-40329681Y21127571D02*
X-40390158Y21006619D01*
X-40390158Y21006619D02*
X-40450634Y20946142D01*
X-40450634Y20946142D02*
X-40571586Y20885666D01*
X-40571586Y20885666D02*
X-41599681Y20885666D01*
X-40329681Y19615666D02*
X-40329681Y20341381D01*
X-40329681Y19978524D02*
X-41599681Y19978524D01*
X-41599681Y19978524D02*
X-41418253Y20099476D01*
X-41418253Y20099476D02*
X-41297300Y20220428D01*
X-41297300Y20220428D02*
X-41236824Y20341381D01*
X-41176348Y18527095D02*
X-40329681Y18527095D01*
X-41660158Y18829476D02*
X-40753015Y19131857D01*
X-40753015Y19131857D02*
X-40753015Y18345666D01*
X-25199681Y21611381D02*
X-24171586Y21611381D01*
X-24171586Y21611381D02*
X-24050634Y21550904D01*
X-24050634Y21550904D02*
X-23990158Y21490428D01*
X-23990158Y21490428D02*
X-23929681Y21369476D01*
X-23929681Y21369476D02*
X-23929681Y21127571D01*
X-23929681Y21127571D02*
X-23990158Y21006619D01*
X-23990158Y21006619D02*
X-24050634Y20946142D01*
X-24050634Y20946142D02*
X-24171586Y20885666D01*
X-24171586Y20885666D02*
X-25199681Y20885666D01*
X-23929681Y19615666D02*
X-23929681Y20341381D01*
X-23929681Y19978524D02*
X-25199681Y19978524D01*
X-25199681Y19978524D02*
X-25018253Y20099476D01*
X-25018253Y20099476D02*
X-24897300Y20220428D01*
X-24897300Y20220428D02*
X-24836824Y20341381D01*
X-25199681Y19192333D02*
X-25199681Y18406142D01*
X-25199681Y18406142D02*
X-24715872Y18829476D01*
X-24715872Y18829476D02*
X-24715872Y18648047D01*
X-24715872Y18648047D02*
X-24655396Y18527095D01*
X-24655396Y18527095D02*
X-24594919Y18466619D01*
X-24594919Y18466619D02*
X-24473967Y18406142D01*
X-24473967Y18406142D02*
X-24171586Y18406142D01*
X-24171586Y18406142D02*
X-24050634Y18466619D01*
X-24050634Y18466619D02*
X-23990158Y18527095D01*
X-23990158Y18527095D02*
X-23929681Y18648047D01*
X-23929681Y18648047D02*
X-23929681Y19010904D01*
X-23929681Y19010904D02*
X-23990158Y19131857D01*
X-23990158Y19131857D02*
X-24050634Y19192333D01*
X-8799681Y21611381D02*
X-7771586Y21611381D01*
X-7771586Y21611381D02*
X-7650634Y21550904D01*
X-7650634Y21550904D02*
X-7590158Y21490428D01*
X-7590158Y21490428D02*
X-7529681Y21369476D01*
X-7529681Y21369476D02*
X-7529681Y21127571D01*
X-7529681Y21127571D02*
X-7590158Y21006619D01*
X-7590158Y21006619D02*
X-7650634Y20946142D01*
X-7650634Y20946142D02*
X-7771586Y20885666D01*
X-7771586Y20885666D02*
X-8799681Y20885666D01*
X-7529681Y19615666D02*
X-7529681Y20341381D01*
X-7529681Y19978524D02*
X-8799681Y19978524D01*
X-8799681Y19978524D02*
X-8618253Y20099476D01*
X-8618253Y20099476D02*
X-8497300Y20220428D01*
X-8497300Y20220428D02*
X-8436824Y20341381D01*
X-8799681Y18829476D02*
X-8799681Y18708523D01*
X-8799681Y18708523D02*
X-8739205Y18587571D01*
X-8739205Y18587571D02*
X-8678729Y18527095D01*
X-8678729Y18527095D02*
X-8557777Y18466619D01*
X-8557777Y18466619D02*
X-8315872Y18406142D01*
X-8315872Y18406142D02*
X-8013491Y18406142D01*
X-8013491Y18406142D02*
X-7771586Y18466619D01*
X-7771586Y18466619D02*
X-7650634Y18527095D01*
X-7650634Y18527095D02*
X-7590158Y18587571D01*
X-7590158Y18587571D02*
X-7529681Y18708523D01*
X-7529681Y18708523D02*
X-7529681Y18829476D01*
X-7529681Y18829476D02*
X-7590158Y18950428D01*
X-7590158Y18950428D02*
X-7650634Y19010904D01*
X-7650634Y19010904D02*
X-7771586Y19071381D01*
X-7771586Y19071381D02*
X-8013491Y19131857D01*
X-8013491Y19131857D02*
X-8315872Y19131857D01*
X-8315872Y19131857D02*
X-8557777Y19071381D01*
X-8557777Y19071381D02*
X-8678729Y19010904D01*
X-8678729Y19010904D02*
X-8739205Y18950428D01*
X-8739205Y18950428D02*
X-8799681Y18829476D01*
X40400318Y21006619D02*
X41428413Y21006619D01*
X41428413Y21006619D02*
X41549365Y20946142D01*
X41549365Y20946142D02*
X41609842Y20885666D01*
X41609842Y20885666D02*
X41670318Y20764714D01*
X41670318Y20764714D02*
X41670318Y20522809D01*
X41670318Y20522809D02*
X41609842Y20401857D01*
X41609842Y20401857D02*
X41549365Y20341380D01*
X41549365Y20341380D02*
X41428413Y20280904D01*
X41428413Y20280904D02*
X40400318Y20280904D01*
X41670318Y19615666D02*
X41670318Y19373762D01*
X41670318Y19373762D02*
X41609842Y19252809D01*
X41609842Y19252809D02*
X41549365Y19192333D01*
X41549365Y19192333D02*
X41367937Y19071381D01*
X41367937Y19071381D02*
X41126032Y19010904D01*
X41126032Y19010904D02*
X40642222Y19010904D01*
X40642222Y19010904D02*
X40521270Y19071381D01*
X40521270Y19071381D02*
X40460794Y19131857D01*
X40460794Y19131857D02*
X40400318Y19252809D01*
X40400318Y19252809D02*
X40400318Y19494714D01*
X40400318Y19494714D02*
X40460794Y19615666D01*
X40460794Y19615666D02*
X40521270Y19676143D01*
X40521270Y19676143D02*
X40642222Y19736619D01*
X40642222Y19736619D02*
X40944603Y19736619D01*
X40944603Y19736619D02*
X41065556Y19676143D01*
X41065556Y19676143D02*
X41126032Y19615666D01*
X41126032Y19615666D02*
X41186508Y19494714D01*
X41186508Y19494714D02*
X41186508Y19252809D01*
X41186508Y19252809D02*
X41126032Y19131857D01*
X41126032Y19131857D02*
X41065556Y19071381D01*
X41065556Y19071381D02*
X40944603Y19010904D01*
X24000318Y21006619D02*
X25028413Y21006619D01*
X25028413Y21006619D02*
X25149365Y20946142D01*
X25149365Y20946142D02*
X25209842Y20885666D01*
X25209842Y20885666D02*
X25270318Y20764714D01*
X25270318Y20764714D02*
X25270318Y20522809D01*
X25270318Y20522809D02*
X25209842Y20401857D01*
X25209842Y20401857D02*
X25149365Y20341380D01*
X25149365Y20341380D02*
X25028413Y20280904D01*
X25028413Y20280904D02*
X24000318Y20280904D01*
X24544603Y19494714D02*
X24484127Y19615666D01*
X24484127Y19615666D02*
X24423651Y19676143D01*
X24423651Y19676143D02*
X24302699Y19736619D01*
X24302699Y19736619D02*
X24242222Y19736619D01*
X24242222Y19736619D02*
X24121270Y19676143D01*
X24121270Y19676143D02*
X24060794Y19615666D01*
X24060794Y19615666D02*
X24000318Y19494714D01*
X24000318Y19494714D02*
X24000318Y19252809D01*
X24000318Y19252809D02*
X24060794Y19131857D01*
X24060794Y19131857D02*
X24121270Y19071381D01*
X24121270Y19071381D02*
X24242222Y19010904D01*
X24242222Y19010904D02*
X24302699Y19010904D01*
X24302699Y19010904D02*
X24423651Y19071381D01*
X24423651Y19071381D02*
X24484127Y19131857D01*
X24484127Y19131857D02*
X24544603Y19252809D01*
X24544603Y19252809D02*
X24544603Y19494714D01*
X24544603Y19494714D02*
X24605080Y19615666D01*
X24605080Y19615666D02*
X24665556Y19676143D01*
X24665556Y19676143D02*
X24786508Y19736619D01*
X24786508Y19736619D02*
X25028413Y19736619D01*
X25028413Y19736619D02*
X25149365Y19676143D01*
X25149365Y19676143D02*
X25209842Y19615666D01*
X25209842Y19615666D02*
X25270318Y19494714D01*
X25270318Y19494714D02*
X25270318Y19252809D01*
X25270318Y19252809D02*
X25209842Y19131857D01*
X25209842Y19131857D02*
X25149365Y19071381D01*
X25149365Y19071381D02*
X25028413Y19010904D01*
X25028413Y19010904D02*
X24786508Y19010904D01*
X24786508Y19010904D02*
X24665556Y19071381D01*
X24665556Y19071381D02*
X24605080Y19131857D01*
X24605080Y19131857D02*
X24544603Y19252809D01*
X7600318Y21006619D02*
X8628413Y21006619D01*
X8628413Y21006619D02*
X8749365Y20946142D01*
X8749365Y20946142D02*
X8809842Y20885666D01*
X8809842Y20885666D02*
X8870318Y20764714D01*
X8870318Y20764714D02*
X8870318Y20522809D01*
X8870318Y20522809D02*
X8809842Y20401857D01*
X8809842Y20401857D02*
X8749365Y20341380D01*
X8749365Y20341380D02*
X8628413Y20280904D01*
X8628413Y20280904D02*
X7600318Y20280904D01*
X7600318Y19797095D02*
X7600318Y18950428D01*
X7600318Y18950428D02*
X8870318Y19494714D01*
X38708318Y-19071380D02*
X39736413Y-19071380D01*
X39736413Y-19071380D02*
X39857365Y-19131857D01*
X39857365Y-19131857D02*
X39917842Y-19192333D01*
X39917842Y-19192333D02*
X39978318Y-19313285D01*
X39978318Y-19313285D02*
X39978318Y-19555190D01*
X39978318Y-19555190D02*
X39917842Y-19676142D01*
X39917842Y-19676142D02*
X39857365Y-19736619D01*
X39857365Y-19736619D02*
X39736413Y-19797095D01*
X39736413Y-19797095D02*
X38708318Y-19797095D01*
X38708318Y-20946142D02*
X38708318Y-20704237D01*
X38708318Y-20704237D02*
X38768794Y-20583285D01*
X38768794Y-20583285D02*
X38829270Y-20522809D01*
X38829270Y-20522809D02*
X39010699Y-20401856D01*
X39010699Y-20401856D02*
X39252603Y-20341380D01*
X39252603Y-20341380D02*
X39736413Y-20341380D01*
X39736413Y-20341380D02*
X39857365Y-20401856D01*
X39857365Y-20401856D02*
X39917842Y-20462333D01*
X39917842Y-20462333D02*
X39978318Y-20583285D01*
X39978318Y-20583285D02*
X39978318Y-20825190D01*
X39978318Y-20825190D02*
X39917842Y-20946142D01*
X39917842Y-20946142D02*
X39857365Y-21006618D01*
X39857365Y-21006618D02*
X39736413Y-21067095D01*
X39736413Y-21067095D02*
X39434032Y-21067095D01*
X39434032Y-21067095D02*
X39313080Y-21006618D01*
X39313080Y-21006618D02*
X39252603Y-20946142D01*
X39252603Y-20946142D02*
X39192127Y-20825190D01*
X39192127Y-20825190D02*
X39192127Y-20583285D01*
X39192127Y-20583285D02*
X39252603Y-20462333D01*
X39252603Y-20462333D02*
X39313080Y-20401856D01*
X39313080Y-20401856D02*
X39434032Y-20341380D01*
X22308318Y-19071380D02*
X23336413Y-19071380D01*
X23336413Y-19071380D02*
X23457365Y-19131857D01*
X23457365Y-19131857D02*
X23517842Y-19192333D01*
X23517842Y-19192333D02*
X23578318Y-19313285D01*
X23578318Y-19313285D02*
X23578318Y-19555190D01*
X23578318Y-19555190D02*
X23517842Y-19676142D01*
X23517842Y-19676142D02*
X23457365Y-19736619D01*
X23457365Y-19736619D02*
X23336413Y-19797095D01*
X23336413Y-19797095D02*
X22308318Y-19797095D01*
X22308318Y-21006618D02*
X22308318Y-20401856D01*
X22308318Y-20401856D02*
X22913080Y-20341380D01*
X22913080Y-20341380D02*
X22852603Y-20401856D01*
X22852603Y-20401856D02*
X22792127Y-20522809D01*
X22792127Y-20522809D02*
X22792127Y-20825190D01*
X22792127Y-20825190D02*
X22852603Y-20946142D01*
X22852603Y-20946142D02*
X22913080Y-21006618D01*
X22913080Y-21006618D02*
X23034032Y-21067095D01*
X23034032Y-21067095D02*
X23336413Y-21067095D01*
X23336413Y-21067095D02*
X23457365Y-21006618D01*
X23457365Y-21006618D02*
X23517842Y-20946142D01*
X23517842Y-20946142D02*
X23578318Y-20825190D01*
X23578318Y-20825190D02*
X23578318Y-20522809D01*
X23578318Y-20522809D02*
X23517842Y-20401856D01*
X23517842Y-20401856D02*
X23457365Y-20341380D01*
X5908318Y-19071380D02*
X6936413Y-19071380D01*
X6936413Y-19071380D02*
X7057365Y-19131857D01*
X7057365Y-19131857D02*
X7117842Y-19192333D01*
X7117842Y-19192333D02*
X7178318Y-19313285D01*
X7178318Y-19313285D02*
X7178318Y-19555190D01*
X7178318Y-19555190D02*
X7117842Y-19676142D01*
X7117842Y-19676142D02*
X7057365Y-19736619D01*
X7057365Y-19736619D02*
X6936413Y-19797095D01*
X6936413Y-19797095D02*
X5908318Y-19797095D01*
X6331651Y-20946142D02*
X7178318Y-20946142D01*
X5847842Y-20643761D02*
X6754984Y-20341380D01*
X6754984Y-20341380D02*
X6754984Y-21127571D01*
D11*
X-50626666Y-26224819D02*
X-50626666Y-26939104D01*
X-50626666Y-26939104D02*
X-50579047Y-27081961D01*
X-50579047Y-27081961D02*
X-50483809Y-27177200D01*
X-50483809Y-27177200D02*
X-50340952Y-27224819D01*
X-50340952Y-27224819D02*
X-50245714Y-27224819D01*
X-51007619Y-26224819D02*
X-51674285Y-26224819D01*
X-51674285Y-26224819D02*
X-51245714Y-27224819D01*
X-49916666Y6045180D02*
X-49916666Y5330895D01*
X-49916666Y5330895D02*
X-49869047Y5188038D01*
X-49869047Y5188038D02*
X-49773809Y5092800D01*
X-49773809Y5092800D02*
X-49630952Y5045180D01*
X-49630952Y5045180D02*
X-49535714Y5045180D01*
X-50345238Y5949942D02*
X-50392857Y5997561D01*
X-50392857Y5997561D02*
X-50488095Y6045180D01*
X-50488095Y6045180D02*
X-50726190Y6045180D01*
X-50726190Y6045180D02*
X-50821428Y5997561D01*
X-50821428Y5997561D02*
X-50869047Y5949942D01*
X-50869047Y5949942D02*
X-50916666Y5854704D01*
X-50916666Y5854704D02*
X-50916666Y5759466D01*
X-50916666Y5759466D02*
X-50869047Y5616609D01*
X-50869047Y5616609D02*
X-50297619Y5045180D01*
X-50297619Y5045180D02*
X-50916666Y5045180D01*
X-50416666Y-4854819D02*
X-50416666Y-5569104D01*
X-50416666Y-5569104D02*
X-50369047Y-5711961D01*
X-50369047Y-5711961D02*
X-50273809Y-5807200D01*
X-50273809Y-5807200D02*
X-50130952Y-5854819D01*
X-50130952Y-5854819D02*
X-50035714Y-5854819D01*
X-51416666Y-5854819D02*
X-50845238Y-5854819D01*
X-51130952Y-5854819D02*
X-51130952Y-4854819D01*
X-51130952Y-4854819D02*
X-51035714Y-4997676D01*
X-51035714Y-4997676D02*
X-50940476Y-5092914D01*
X-50940476Y-5092914D02*
X-50845238Y-5140533D01*
X-51446666Y27055180D02*
X-51446666Y26340895D01*
X-51446666Y26340895D02*
X-51399047Y26198038D01*
X-51399047Y26198038D02*
X-51303809Y26102800D01*
X-51303809Y26102800D02*
X-51160952Y26055180D01*
X-51160952Y26055180D02*
X-51065714Y26055180D01*
X-52351428Y27055180D02*
X-52160952Y27055180D01*
X-52160952Y27055180D02*
X-52065714Y27007561D01*
X-52065714Y27007561D02*
X-52018095Y26959942D01*
X-52018095Y26959942D02*
X-51922857Y26817085D01*
X-51922857Y26817085D02*
X-51875238Y26626609D01*
X-51875238Y26626609D02*
X-51875238Y26245657D01*
X-51875238Y26245657D02*
X-51922857Y26150419D01*
X-51922857Y26150419D02*
X-51970476Y26102800D01*
X-51970476Y26102800D02*
X-52065714Y26055180D01*
X-52065714Y26055180D02*
X-52256190Y26055180D01*
X-52256190Y26055180D02*
X-52351428Y26102800D01*
X-52351428Y26102800D02*
X-52399047Y26150419D01*
X-52399047Y26150419D02*
X-52446666Y26245657D01*
X-52446666Y26245657D02*
X-52446666Y26483752D01*
X-52446666Y26483752D02*
X-52399047Y26578990D01*
X-52399047Y26578990D02*
X-52351428Y26626609D01*
X-52351428Y26626609D02*
X-52256190Y26674228D01*
X-52256190Y26674228D02*
X-52065714Y26674228D01*
X-52065714Y26674228D02*
X-51970476Y26626609D01*
X-51970476Y26626609D02*
X-51922857Y26578990D01*
X-51922857Y26578990D02*
X-51875238Y26483752D01*
D13*
%TO.C,G\u002A\u002A\u002A*%
G36*
X6173211Y10850000D02*
G01*
X6173211Y6881250D01*
X6173211Y6548062D01*
X6096415Y6482005D01*
X6019620Y6415948D01*
X-820000Y6415948D01*
X-7659620Y6415948D01*
X-7736416Y6482005D01*
X-7813211Y6548062D01*
X-7813211Y7446642D01*
X-7361595Y7446642D01*
X-7361595Y6881250D01*
X-6796203Y6881250D01*
X-6230812Y6881250D01*
X-6433542Y7023352D01*
X-6492070Y7066532D01*
X-6613630Y7164807D01*
X-6741747Y7276897D01*
X-6856831Y7386014D01*
X-6917310Y7448473D01*
X-7030172Y7573348D01*
X-7136495Y7700155D01*
X-7219493Y7809303D01*
X-7361595Y8012033D01*
X-7361595Y7446642D01*
X-7813211Y7446642D01*
X-7813211Y9454095D01*
X-7358153Y9454095D01*
X-7343514Y9351455D01*
X-7265848Y8969333D01*
X-7140357Y8602836D01*
X-6967914Y8263627D01*
X-6747461Y7949637D01*
X-6477942Y7658800D01*
X-6407916Y7594198D01*
X-6097987Y7351400D01*
X-5766586Y7157818D01*
X-5416009Y7014635D01*
X-5048553Y6923033D01*
X-5017603Y6917817D01*
X-4887969Y6899207D01*
X-4766390Y6886165D01*
X-4675682Y6881250D01*
X-4542414Y6881250D01*
X-4542414Y7579203D01*
X-4104483Y7579203D01*
X-4104483Y6881250D01*
X-3974472Y6882717D01*
X-3971691Y6882980D01*
X-2777004Y6882980D01*
X-2619623Y6882115D01*
X-2462241Y6881250D01*
X-2463354Y7038631D01*
X-2464466Y7196013D01*
X-2538623Y7110720D01*
X-2544477Y7104054D01*
X-2619057Y7025624D01*
X-2694892Y6954204D01*
X-2777004Y6882980D01*
X-3971691Y6882980D01*
X-3882496Y6891416D01*
X-3742870Y6919544D01*
X-3590193Y6961722D01*
X-3444148Y7012402D01*
X-3324418Y7066031D01*
X-3313892Y7071728D01*
X-3176479Y7159504D01*
X-3033372Y7271256D01*
X-2903063Y7391407D01*
X-2804047Y7504378D01*
X-2717840Y7634929D01*
X-2625755Y7805463D01*
X-2549952Y7978825D01*
X-2500823Y8133459D01*
X-2467179Y8277155D01*
X-3285831Y8277155D01*
X-4104483Y8277155D01*
X-4104483Y8167672D01*
X-4104483Y7579203D01*
X-4542414Y7579203D01*
X-4542414Y8167672D01*
X-4542414Y8742457D01*
X-4101041Y8742457D01*
X-3856426Y8742457D01*
X-3611810Y8742457D01*
X-3611810Y9072750D01*
X-3611810Y9073741D01*
X-3612070Y9194579D01*
X-3169289Y9194579D01*
X-3168030Y9073741D01*
X-3167976Y9068598D01*
X-3160194Y8756142D01*
X-2822786Y8748440D01*
X-2485378Y8740738D01*
X-2504692Y8803181D01*
X-2509393Y8817839D01*
X-2599072Y9003082D01*
X-2739461Y9174455D01*
X-2778236Y9209911D01*
X-2865131Y9276434D01*
X-2958468Y9335640D01*
X-3045961Y9380793D01*
X-3115330Y9405155D01*
X-3154290Y9401989D01*
X-3161492Y9373405D01*
X-3166966Y9300122D01*
X-3169289Y9194579D01*
X-3612070Y9194579D01*
X-3612108Y9212175D01*
X-3614130Y9304514D01*
X-3619574Y9359352D01*
X-3630135Y9385283D01*
X-3647510Y9390901D01*
X-3673394Y9384800D01*
X-3775437Y9332721D01*
X-3881099Y9238211D01*
X-3975025Y9116328D01*
X-4046774Y8980736D01*
X-4085902Y8845097D01*
X-4101041Y8742457D01*
X-4542414Y8742457D01*
X-4542414Y9454095D01*
X-5950284Y9454095D01*
X-7358153Y9454095D01*
X-7813211Y9454095D01*
X-7813211Y9919396D01*
X-7364949Y9919396D01*
X-4913595Y9919396D01*
X-2462241Y9919396D01*
X-2462241Y10850000D01*
X-1996940Y10850000D01*
X-1996940Y8740738D01*
X-1996940Y8277155D01*
X-1996940Y6881250D01*
X1866571Y6881250D01*
X5730081Y6881250D01*
X5712159Y7254960D01*
X5692402Y7542294D01*
X5627654Y8070677D01*
X5528190Y8602616D01*
X5397543Y9120546D01*
X5239243Y9606900D01*
X5060845Y10042554D01*
X4840532Y10495892D01*
X4588636Y10946480D01*
X4313382Y11379617D01*
X4022996Y11780603D01*
X3958027Y11861679D01*
X3804330Y12040784D01*
X3625030Y12237059D01*
X3431288Y12438999D01*
X3234267Y12635098D01*
X3045131Y12813851D01*
X2875043Y12963754D01*
X2523958Y13241490D01*
X1994258Y13603855D01*
X1436814Y13922960D01*
X856618Y14196523D01*
X258665Y14422261D01*
X-352052Y14597892D01*
X-970539Y14721134D01*
X-1052627Y14733177D01*
X-1208071Y14753474D01*
X-1377447Y14773220D01*
X-1547126Y14791017D01*
X-1703476Y14805466D01*
X-1759737Y14809685D01*
X575905Y14809685D01*
X575933Y14809551D01*
X601373Y14796148D01*
X667740Y14767410D01*
X765176Y14727474D01*
X883825Y14680476D01*
X970692Y14645973D01*
X1561565Y14378006D01*
X2129686Y14062121D01*
X2672143Y13701169D01*
X3186029Y13297999D01*
X3668432Y12855463D01*
X4116443Y12376410D01*
X4527153Y11863692D01*
X4897651Y11320158D01*
X5225028Y10748660D01*
X5506375Y10152047D01*
X5533572Y10087822D01*
X5589909Y9955106D01*
X5638248Y9841659D01*
X5674157Y9757866D01*
X5693204Y9714116D01*
X5695873Y9719467D01*
X5699787Y9771326D01*
X5703428Y9874002D01*
X5706772Y10025114D01*
X5709793Y10222280D01*
X5712466Y10463119D01*
X5714767Y10745250D01*
X5716670Y11066291D01*
X5718150Y11423861D01*
X5719183Y11815578D01*
X5719742Y12239062D01*
X5721595Y14818750D01*
X3148750Y14818750D01*
X3049327Y14818743D01*
X2683048Y14818600D01*
X2333715Y14818281D01*
X2005107Y14817799D01*
X1701004Y14817168D01*
X1425186Y14816401D01*
X1181431Y14815511D01*
X973521Y14814511D01*
X805233Y14813415D01*
X680348Y14812237D01*
X602646Y14810989D01*
X575905Y14809685D01*
X-1759737Y14809685D01*
X-1832867Y14815169D01*
X-1921670Y14818727D01*
X-1996940Y14818750D01*
X-1996940Y12370432D01*
X-1996940Y10850000D01*
X-2462241Y10850000D01*
X-2462241Y12370432D01*
X-2462241Y14821468D01*
X-2510244Y14816914D01*
X-2633308Y14805239D01*
X-2639566Y14804640D01*
X-2936853Y14766833D01*
X-3246398Y14710991D01*
X-3551469Y14640949D01*
X-3835332Y14560539D01*
X-4081253Y14473593D01*
X-4240535Y14406107D01*
X-4636752Y14209984D01*
X-5026375Y13978863D01*
X-5389992Y13723866D01*
X-5425667Y13695884D01*
X-5566458Y13575832D01*
X-5724559Y13429290D01*
X-5887930Y13268356D01*
X-6044529Y13105131D01*
X-6182314Y12951715D01*
X-6289246Y12820208D01*
X-6291066Y12817782D01*
X-6553980Y12432329D01*
X-6785305Y12022029D01*
X-6981260Y11596077D01*
X-7138062Y11163670D01*
X-7251930Y10734003D01*
X-7319081Y10316271D01*
X-7326400Y10247501D01*
X-7339374Y10130775D01*
X-7350560Y10035722D01*
X-7364949Y9919396D01*
X-7813211Y9919396D01*
X-7813211Y10850000D01*
X-7813211Y14818750D01*
X-7361595Y14818750D01*
X-7361595Y13381789D01*
X-7361569Y13264989D01*
X-7361309Y12996878D01*
X-7360789Y12748107D01*
X-7360039Y12523733D01*
X-7359085Y12328813D01*
X-7357955Y12168405D01*
X-7356677Y12047567D01*
X-7355277Y11971355D01*
X-7353784Y11944828D01*
X-7352674Y11945617D01*
X-7334219Y11975875D01*
X-7299604Y12041217D01*
X-7255260Y12129580D01*
X-7091404Y12437427D01*
X-6799417Y12892246D01*
X-6463196Y13319102D01*
X-6086329Y13714357D01*
X-5672399Y14074373D01*
X-5224993Y14395512D01*
X-4747694Y14674136D01*
X-4473987Y14816914D01*
X-5917791Y14817832D01*
X-7361595Y14818750D01*
X-7813211Y14818750D01*
X-7813211Y15151938D01*
X-7736416Y15217995D01*
X-7659620Y15284052D01*
X-820000Y15284052D01*
X6019620Y15284052D01*
X6096415Y15217995D01*
X6173211Y15151938D01*
X6173211Y14818750D01*
X6173211Y10850000D01*
G37*
D14*
%TO.C,U17*%
X-35750000Y-16765000D02*
X-35750000Y-26295000D01*
X-47750000Y-26295000D02*
X-47750000Y-16765000D01*
X-35750000Y-26295000D02*
X-47750000Y-26295000D01*
X-44145000Y-16765000D02*
X-47750000Y-16765000D01*
X-39355000Y-16765000D02*
X-35750000Y-16765000D01*
X-41766000Y-26901000D02*
G75*
G02*
X-41940000Y-26901000I-87000J0D01*
G01*
X-41940000Y-26901000D02*
G75*
G02*
X-41766000Y-26901000I87000J0D01*
G01*
%TO.C,U16*%
X-19350000Y-16765000D02*
X-19350000Y-26295000D01*
X-31350000Y-26295000D02*
X-31350000Y-16765000D01*
X-19350000Y-26295000D02*
X-31350000Y-26295000D01*
X-27745000Y-16765000D02*
X-31350000Y-16765000D01*
X-22955000Y-16765000D02*
X-19350000Y-16765000D01*
X-25366000Y-26901000D02*
G75*
G02*
X-25540000Y-26901000I-87000J0D01*
G01*
X-25540000Y-26901000D02*
G75*
G02*
X-25366000Y-26901000I87000J0D01*
G01*
%TO.C,U15*%
X-2950000Y-16765000D02*
X-2950000Y-26295000D01*
X-14950000Y-26295000D02*
X-14950000Y-16765000D01*
X-2950000Y-26295000D02*
X-14950000Y-26295000D01*
X-11345000Y-16765000D02*
X-14950000Y-16765000D01*
X-6555000Y-16765000D02*
X-2950000Y-16765000D01*
X-8966000Y-26901000D02*
G75*
G02*
X-9140000Y-26901000I-87000J0D01*
G01*
X-9140000Y-26901000D02*
G75*
G02*
X-8966000Y-26901000I87000J0D01*
G01*
%TO.C,U14*%
X-47750000Y16765000D02*
X-47750000Y26295000D01*
X-35750000Y26295000D02*
X-35750000Y16765000D01*
X-47750000Y26295000D02*
X-35750000Y26295000D01*
X-39355000Y16765000D02*
X-35750000Y16765000D01*
X-44145000Y16765000D02*
X-47750000Y16765000D01*
X-41560000Y26901000D02*
G75*
G02*
X-41734000Y26901000I-87000J0D01*
G01*
X-41734000Y26901000D02*
G75*
G02*
X-41560000Y26901000I87000J0D01*
G01*
%TO.C,U13*%
X-31350000Y16765000D02*
X-31350000Y26295000D01*
X-19350000Y26295000D02*
X-19350000Y16765000D01*
X-31350000Y26295000D02*
X-19350000Y26295000D01*
X-22955000Y16765000D02*
X-19350000Y16765000D01*
X-27745000Y16765000D02*
X-31350000Y16765000D01*
X-25160000Y26901000D02*
G75*
G02*
X-25334000Y26901000I-87000J0D01*
G01*
X-25334000Y26901000D02*
G75*
G02*
X-25160000Y26901000I87000J0D01*
G01*
%TO.C,U10*%
X-14950000Y16765000D02*
X-14950000Y26295000D01*
X-2950000Y26295000D02*
X-2950000Y16765000D01*
X-14950000Y26295000D02*
X-2950000Y26295000D01*
X-6555000Y16765000D02*
X-2950000Y16765000D01*
X-11345000Y16765000D02*
X-14950000Y16765000D01*
X-8760000Y26901000D02*
G75*
G02*
X-8934000Y26901000I-87000J0D01*
G01*
X-8934000Y26901000D02*
G75*
G02*
X-8760000Y26901000I87000J0D01*
G01*
%TO.C,U9*%
X34250000Y16765000D02*
X34250000Y26295000D01*
X46250000Y26295000D02*
X46250000Y16765000D01*
X34250000Y26295000D02*
X46250000Y26295000D01*
X42645000Y16765000D02*
X46250000Y16765000D01*
X37855000Y16765000D02*
X34250000Y16765000D01*
X40440000Y26901000D02*
G75*
G02*
X40266000Y26901000I-87000J0D01*
G01*
X40266000Y26901000D02*
G75*
G02*
X40440000Y26901000I87000J0D01*
G01*
%TO.C,U8*%
X17850000Y16765000D02*
X17850000Y26295000D01*
X29850000Y26295000D02*
X29850000Y16765000D01*
X17850000Y26295000D02*
X29850000Y26295000D01*
X26245000Y16765000D02*
X29850000Y16765000D01*
X21455000Y16765000D02*
X17850000Y16765000D01*
X24040000Y26901000D02*
G75*
G02*
X23866000Y26901000I-87000J0D01*
G01*
X23866000Y26901000D02*
G75*
G02*
X24040000Y26901000I87000J0D01*
G01*
%TO.C,U7*%
X1450000Y16765000D02*
X1450000Y26295000D01*
X13450000Y26295000D02*
X13450000Y16765000D01*
X1450000Y26295000D02*
X13450000Y26295000D01*
X9845000Y16765000D02*
X13450000Y16765000D01*
X5055000Y16765000D02*
X1450000Y16765000D01*
X7640000Y26901000D02*
G75*
G02*
X7466000Y26901000I-87000J0D01*
G01*
X7466000Y26901000D02*
G75*
G02*
X7640000Y26901000I87000J0D01*
G01*
%TO.C,U6*%
X46250000Y-16765000D02*
X46250000Y-26295000D01*
X34250000Y-26295000D02*
X34250000Y-16765000D01*
X46250000Y-26295000D02*
X34250000Y-26295000D01*
X37855000Y-16765000D02*
X34250000Y-16765000D01*
X42645000Y-16765000D02*
X46250000Y-16765000D01*
X40234000Y-26901000D02*
G75*
G02*
X40060000Y-26901000I-87000J0D01*
G01*
X40060000Y-26901000D02*
G75*
G02*
X40234000Y-26901000I87000J0D01*
G01*
%TO.C,U5*%
X29850000Y-16765000D02*
X29850000Y-26295000D01*
X17850000Y-26295000D02*
X17850000Y-16765000D01*
X29850000Y-26295000D02*
X17850000Y-26295000D01*
X21455000Y-16765000D02*
X17850000Y-16765000D01*
X26245000Y-16765000D02*
X29850000Y-16765000D01*
X23834000Y-26901000D02*
G75*
G02*
X23660000Y-26901000I-87000J0D01*
G01*
X23660000Y-26901000D02*
G75*
G02*
X23834000Y-26901000I87000J0D01*
G01*
%TO.C,U4*%
X13450000Y-16765000D02*
X13450000Y-26295000D01*
X1450000Y-26295000D02*
X1450000Y-16765000D01*
X13450000Y-26295000D02*
X1450000Y-26295000D01*
X5055000Y-16765000D02*
X1450000Y-16765000D01*
X9845000Y-16765000D02*
X13450000Y-16765000D01*
X7434000Y-26901000D02*
G75*
G02*
X7260000Y-26901000I-87000J0D01*
G01*
X7260000Y-26901000D02*
G75*
G02*
X7434000Y-26901000I87000J0D01*
G01*
D15*
%TO.C,J7*%
X-59790000Y-26500000D02*
X-59790000Y-25170000D01*
X-59790000Y-25170000D02*
X-58460000Y-25170000D01*
X-54590000Y-25170000D02*
X-57189999Y-25170000D01*
X-57189999Y-27830000D02*
X-57189999Y-25170000D01*
X-54590000Y-27830000D02*
X-54590000Y-25170000D01*
X-54590000Y-27830000D02*
X-57189999Y-27830000D01*
%TO.C,J2*%
X-62330000Y4170000D02*
X-54650000Y4170000D01*
X-54650000Y6830000D02*
X-54650000Y4170000D01*
X-62330000Y6830000D02*
X-62330000Y4170000D01*
X-52050000Y6830000D02*
X-52050000Y5500000D01*
X-53380000Y6830000D02*
X-52050000Y6830000D01*
X-62330000Y6830000D02*
X-54650000Y6830000D01*
%TO.C,J1*%
X-52050000Y-4170000D02*
X-59730000Y-4170000D01*
X-59730000Y-6830000D02*
X-59730000Y-4170000D01*
X-52050000Y-6830000D02*
X-52050000Y-4170000D01*
X-62330000Y-6830000D02*
X-62330000Y-5500000D01*
X-61000000Y-6830000D02*
X-62330000Y-6830000D01*
X-52050000Y-6830000D02*
X-59730000Y-6830000D01*
%TO.C,J6*%
X-54590000Y26500000D02*
X-54590000Y25170000D01*
X-54590000Y25170000D02*
X-55920000Y25170000D01*
X-59790000Y25170000D02*
X-57190000Y25170000D01*
X-57190000Y27830000D02*
X-57190000Y25170000D01*
X-59790000Y27830000D02*
X-59790000Y25170000D01*
X-59790000Y27830000D02*
X-57190000Y27830000D01*
D16*
%TO.C,U12*%
X10031000Y24047601D02*
G75*
G02*
X9269000Y24047601I-381000J0D01*
G01*
X9269000Y24047601D02*
G75*
G02*
X10031000Y24047601I381000J0D01*
G01*
%TD*%
M02*
