%TF.GenerationSoftware,KiCad,Pcbnew,8.0.5*%
%TF.CreationDate,2024-10-25T17:11:02+01:00*%
%TF.ProjectId,V3,56332e6b-6963-4616-945f-706362585858,rev?*%
%TF.SameCoordinates,Original*%
%TF.FileFunction,Legend,Bot*%
%TF.FilePolarity,Positive*%
%FSLAX46Y46*%
G04 Gerber Fmt 4.6, Leading zero omitted, Abs format (unit mm)*
G04 Created by KiCad (PCBNEW 8.0.5) date 2024-10-25 17:11:02*
%MOMM*%
%LPD*%
G01*
G04 APERTURE LIST*
%ADD10C,0.150000*%
%ADD11C,0.254000*%
%ADD12C,0.200000*%
%ADD13C,0.508000*%
%ADD14C,0.000000*%
%ADD15C,0.120000*%
G04 APERTURE END LIST*
D10*
X-51210180Y-25556779D02*
X-52210180Y-25556779D01*
X-51210180Y-26032969D02*
X-52210180Y-26032969D01*
X-52210180Y-26032969D02*
X-51210180Y-26604397D01*
X-51210180Y-26604397D02*
X-52210180Y-26604397D01*
X-51210180Y-27080588D02*
X-52210180Y-27080588D01*
X-52210180Y-27080588D02*
X-52210180Y-27461540D01*
X-52210180Y-27461540D02*
X-52162561Y-27556778D01*
X-52162561Y-27556778D02*
X-52114942Y-27604397D01*
X-52114942Y-27604397D02*
X-52019704Y-27652016D01*
X-52019704Y-27652016D02*
X-51876847Y-27652016D01*
X-51876847Y-27652016D02*
X-51781609Y-27604397D01*
X-51781609Y-27604397D02*
X-51733990Y-27556778D01*
X-51733990Y-27556778D02*
X-51686371Y-27461540D01*
X-51686371Y-27461540D02*
X-51686371Y-27080588D01*
X-52210180Y-28080588D02*
X-51400657Y-28080588D01*
X-51400657Y-28080588D02*
X-51305419Y-28128207D01*
X-51305419Y-28128207D02*
X-51257800Y-28175826D01*
X-51257800Y-28175826D02*
X-51210180Y-28271064D01*
X-51210180Y-28271064D02*
X-51210180Y-28461540D01*
X-51210180Y-28461540D02*
X-51257800Y-28556778D01*
X-51257800Y-28556778D02*
X-51305419Y-28604397D01*
X-51305419Y-28604397D02*
X-51400657Y-28652016D01*
X-51400657Y-28652016D02*
X-52210180Y-28652016D01*
X-52210180Y-28985350D02*
X-52210180Y-29556778D01*
X-51210180Y-29271064D02*
X-52210180Y-29271064D01*
X-53860180Y-27242969D02*
X-53860180Y-26766779D01*
X-53860180Y-26766779D02*
X-53383990Y-26719160D01*
X-53383990Y-26719160D02*
X-53431609Y-26766779D01*
X-53431609Y-26766779D02*
X-53479228Y-26862017D01*
X-53479228Y-26862017D02*
X-53479228Y-27100112D01*
X-53479228Y-27100112D02*
X-53431609Y-27195350D01*
X-53431609Y-27195350D02*
X-53383990Y-27242969D01*
X-53383990Y-27242969D02*
X-53288752Y-27290588D01*
X-53288752Y-27290588D02*
X-53050657Y-27290588D01*
X-53050657Y-27290588D02*
X-52955419Y-27242969D01*
X-52955419Y-27242969D02*
X-52907800Y-27195350D01*
X-52907800Y-27195350D02*
X-52860180Y-27100112D01*
X-52860180Y-27100112D02*
X-52860180Y-26862017D01*
X-52860180Y-26862017D02*
X-52907800Y-26766779D01*
X-52907800Y-26766779D02*
X-52955419Y-26719160D01*
X-53860180Y-27576303D02*
X-52860180Y-27909636D01*
X-52860180Y-27909636D02*
X-53860180Y-28242969D01*
X26441429Y13363822D02*
X26298572Y13316203D01*
X26298572Y13316203D02*
X26250953Y13268584D01*
X26250953Y13268584D02*
X26203334Y13173346D01*
X26203334Y13173346D02*
X26203334Y13030489D01*
X26203334Y13030489D02*
X26250953Y12935251D01*
X26250953Y12935251D02*
X26298572Y12887632D01*
X26298572Y12887632D02*
X26393810Y12840012D01*
X26393810Y12840012D02*
X26774762Y12840012D01*
X26774762Y12840012D02*
X26774762Y13840012D01*
X26774762Y13840012D02*
X26441429Y13840012D01*
X26441429Y13840012D02*
X26346191Y13792393D01*
X26346191Y13792393D02*
X26298572Y13744774D01*
X26298572Y13744774D02*
X26250953Y13649536D01*
X26250953Y13649536D02*
X26250953Y13554298D01*
X26250953Y13554298D02*
X26298572Y13459060D01*
X26298572Y13459060D02*
X26346191Y13411441D01*
X26346191Y13411441D02*
X26441429Y13363822D01*
X26441429Y13363822D02*
X26774762Y13363822D01*
X25346191Y12840012D02*
X25346191Y13363822D01*
X25346191Y13363822D02*
X25393810Y13459060D01*
X25393810Y13459060D02*
X25489048Y13506679D01*
X25489048Y13506679D02*
X25679524Y13506679D01*
X25679524Y13506679D02*
X25774762Y13459060D01*
X25346191Y12887632D02*
X25441429Y12840012D01*
X25441429Y12840012D02*
X25679524Y12840012D01*
X25679524Y12840012D02*
X25774762Y12887632D01*
X25774762Y12887632D02*
X25822381Y12982870D01*
X25822381Y12982870D02*
X25822381Y13078108D01*
X25822381Y13078108D02*
X25774762Y13173346D01*
X25774762Y13173346D02*
X25679524Y13220965D01*
X25679524Y13220965D02*
X25441429Y13220965D01*
X25441429Y13220965D02*
X25346191Y13268584D01*
X25012857Y13506679D02*
X24631905Y13506679D01*
X24870000Y13840012D02*
X24870000Y12982870D01*
X24870000Y12982870D02*
X24822381Y12887632D01*
X24822381Y12887632D02*
X24727143Y12840012D01*
X24727143Y12840012D02*
X24631905Y12840012D01*
X24441428Y13506679D02*
X24060476Y13506679D01*
X24298571Y13840012D02*
X24298571Y12982870D01*
X24298571Y12982870D02*
X24250952Y12887632D01*
X24250952Y12887632D02*
X24155714Y12840012D01*
X24155714Y12840012D02*
X24060476Y12840012D01*
X23346190Y12887632D02*
X23441428Y12840012D01*
X23441428Y12840012D02*
X23631904Y12840012D01*
X23631904Y12840012D02*
X23727142Y12887632D01*
X23727142Y12887632D02*
X23774761Y12982870D01*
X23774761Y12982870D02*
X23774761Y13363822D01*
X23774761Y13363822D02*
X23727142Y13459060D01*
X23727142Y13459060D02*
X23631904Y13506679D01*
X23631904Y13506679D02*
X23441428Y13506679D01*
X23441428Y13506679D02*
X23346190Y13459060D01*
X23346190Y13459060D02*
X23298571Y13363822D01*
X23298571Y13363822D02*
X23298571Y13268584D01*
X23298571Y13268584D02*
X23774761Y13173346D01*
X22869999Y12840012D02*
X22869999Y13506679D01*
X22869999Y13316203D02*
X22822380Y13411441D01*
X22822380Y13411441D02*
X22774761Y13459060D01*
X22774761Y13459060D02*
X22679523Y13506679D01*
X22679523Y13506679D02*
X22584285Y13506679D01*
X22346189Y13506679D02*
X22108094Y12840012D01*
X21869999Y13506679D02*
X22108094Y12840012D01*
X22108094Y12840012D02*
X22203332Y12601917D01*
X22203332Y12601917D02*
X22250951Y12554298D01*
X22250951Y12554298D02*
X22346189Y12506679D01*
X26465238Y11753878D02*
X26322381Y11706259D01*
X26322381Y11706259D02*
X26274762Y11658640D01*
X26274762Y11658640D02*
X26227143Y11563402D01*
X26227143Y11563402D02*
X26227143Y11420545D01*
X26227143Y11420545D02*
X26274762Y11325307D01*
X26274762Y11325307D02*
X26322381Y11277688D01*
X26322381Y11277688D02*
X26417619Y11230068D01*
X26417619Y11230068D02*
X26798571Y11230068D01*
X26798571Y11230068D02*
X26798571Y12230068D01*
X26798571Y12230068D02*
X26465238Y12230068D01*
X26465238Y12230068D02*
X26370000Y12182449D01*
X26370000Y12182449D02*
X26322381Y12134830D01*
X26322381Y12134830D02*
X26274762Y12039592D01*
X26274762Y12039592D02*
X26274762Y11944354D01*
X26274762Y11944354D02*
X26322381Y11849116D01*
X26322381Y11849116D02*
X26370000Y11801497D01*
X26370000Y11801497D02*
X26465238Y11753878D01*
X26465238Y11753878D02*
X26798571Y11753878D01*
X25370000Y11230068D02*
X25370000Y11753878D01*
X25370000Y11753878D02*
X25417619Y11849116D01*
X25417619Y11849116D02*
X25512857Y11896735D01*
X25512857Y11896735D02*
X25703333Y11896735D01*
X25703333Y11896735D02*
X25798571Y11849116D01*
X25370000Y11277688D02*
X25465238Y11230068D01*
X25465238Y11230068D02*
X25703333Y11230068D01*
X25703333Y11230068D02*
X25798571Y11277688D01*
X25798571Y11277688D02*
X25846190Y11372926D01*
X25846190Y11372926D02*
X25846190Y11468164D01*
X25846190Y11468164D02*
X25798571Y11563402D01*
X25798571Y11563402D02*
X25703333Y11611021D01*
X25703333Y11611021D02*
X25465238Y11611021D01*
X25465238Y11611021D02*
X25370000Y11658640D01*
X24893809Y11896735D02*
X24893809Y11230068D01*
X24893809Y11801497D02*
X24846190Y11849116D01*
X24846190Y11849116D02*
X24750952Y11896735D01*
X24750952Y11896735D02*
X24608095Y11896735D01*
X24608095Y11896735D02*
X24512857Y11849116D01*
X24512857Y11849116D02*
X24465238Y11753878D01*
X24465238Y11753878D02*
X24465238Y11230068D01*
X23989047Y11230068D02*
X23989047Y12230068D01*
X23893809Y11611021D02*
X23608095Y11230068D01*
X23608095Y11896735D02*
X23989047Y11515783D01*
X22465237Y12134830D02*
X22417618Y12182449D01*
X22417618Y12182449D02*
X22322380Y12230068D01*
X22322380Y12230068D02*
X22084285Y12230068D01*
X22084285Y12230068D02*
X21989047Y12182449D01*
X21989047Y12182449D02*
X21941428Y12134830D01*
X21941428Y12134830D02*
X21893809Y12039592D01*
X21893809Y12039592D02*
X21893809Y11944354D01*
X21893809Y11944354D02*
X21941428Y11801497D01*
X21941428Y11801497D02*
X22512856Y11230068D01*
X22512856Y11230068D02*
X21893809Y11230068D01*
X27036666Y9620124D02*
X27608094Y9620124D01*
X27322380Y9620124D02*
X27322380Y10620124D01*
X27322380Y10620124D02*
X27417618Y10477267D01*
X27417618Y10477267D02*
X27512856Y10382029D01*
X27512856Y10382029D02*
X27608094Y10334410D01*
X26608094Y9715363D02*
X26560475Y9667744D01*
X26560475Y9667744D02*
X26608094Y9620124D01*
X26608094Y9620124D02*
X26655713Y9667744D01*
X26655713Y9667744D02*
X26608094Y9715363D01*
X26608094Y9715363D02*
X26608094Y9620124D01*
X26179523Y10524886D02*
X26131904Y10572505D01*
X26131904Y10572505D02*
X26036666Y10620124D01*
X26036666Y10620124D02*
X25798571Y10620124D01*
X25798571Y10620124D02*
X25703333Y10572505D01*
X25703333Y10572505D02*
X25655714Y10524886D01*
X25655714Y10524886D02*
X25608095Y10429648D01*
X25608095Y10429648D02*
X25608095Y10334410D01*
X25608095Y10334410D02*
X25655714Y10191553D01*
X25655714Y10191553D02*
X26227142Y9620124D01*
X26227142Y9620124D02*
X25608095Y9620124D01*
X25179523Y10001077D02*
X24417619Y10001077D01*
X23417619Y9620124D02*
X23989047Y9620124D01*
X23703333Y9620124D02*
X23703333Y10620124D01*
X23703333Y10620124D02*
X23798571Y10477267D01*
X23798571Y10477267D02*
X23893809Y10382029D01*
X23893809Y10382029D02*
X23989047Y10334410D01*
X22989047Y9715363D02*
X22941428Y9667744D01*
X22941428Y9667744D02*
X22989047Y9620124D01*
X22989047Y9620124D02*
X23036666Y9667744D01*
X23036666Y9667744D02*
X22989047Y9715363D01*
X22989047Y9715363D02*
X22989047Y9620124D01*
X22036667Y10620124D02*
X22512857Y10620124D01*
X22512857Y10620124D02*
X22560476Y10143934D01*
X22560476Y10143934D02*
X22512857Y10191553D01*
X22512857Y10191553D02*
X22417619Y10239172D01*
X22417619Y10239172D02*
X22179524Y10239172D01*
X22179524Y10239172D02*
X22084286Y10191553D01*
X22084286Y10191553D02*
X22036667Y10143934D01*
X22036667Y10143934D02*
X21989048Y10048696D01*
X21989048Y10048696D02*
X21989048Y9810601D01*
X21989048Y9810601D02*
X22036667Y9715363D01*
X22036667Y9715363D02*
X22084286Y9667744D01*
X22084286Y9667744D02*
X22179524Y9620124D01*
X22179524Y9620124D02*
X22417619Y9620124D01*
X22417619Y9620124D02*
X22512857Y9667744D01*
X22512857Y9667744D02*
X22560476Y9715363D01*
X21703333Y10620124D02*
X21370000Y9620124D01*
X21370000Y9620124D02*
X21036667Y10620124D01*
X25036666Y8295895D02*
X24560476Y8295895D01*
X25131904Y8010180D02*
X24798571Y9010180D01*
X24798571Y9010180D02*
X24465238Y8010180D01*
X24179523Y8295895D02*
X23703333Y8295895D01*
X24274761Y8010180D02*
X23941428Y9010180D01*
X23941428Y9010180D02*
X23608095Y8010180D01*
X-22478570Y13363822D02*
X-22621427Y13316203D01*
X-22621427Y13316203D02*
X-22669046Y13268584D01*
X-22669046Y13268584D02*
X-22716665Y13173346D01*
X-22716665Y13173346D02*
X-22716665Y13030489D01*
X-22716665Y13030489D02*
X-22669046Y12935251D01*
X-22669046Y12935251D02*
X-22621427Y12887632D01*
X-22621427Y12887632D02*
X-22526189Y12840012D01*
X-22526189Y12840012D02*
X-22145237Y12840012D01*
X-22145237Y12840012D02*
X-22145237Y13840012D01*
X-22145237Y13840012D02*
X-22478570Y13840012D01*
X-22478570Y13840012D02*
X-22573808Y13792393D01*
X-22573808Y13792393D02*
X-22621427Y13744774D01*
X-22621427Y13744774D02*
X-22669046Y13649536D01*
X-22669046Y13649536D02*
X-22669046Y13554298D01*
X-22669046Y13554298D02*
X-22621427Y13459060D01*
X-22621427Y13459060D02*
X-22573808Y13411441D01*
X-22573808Y13411441D02*
X-22478570Y13363822D01*
X-22478570Y13363822D02*
X-22145237Y13363822D01*
X-23573808Y12840012D02*
X-23573808Y13363822D01*
X-23573808Y13363822D02*
X-23526189Y13459060D01*
X-23526189Y13459060D02*
X-23430951Y13506679D01*
X-23430951Y13506679D02*
X-23240475Y13506679D01*
X-23240475Y13506679D02*
X-23145237Y13459060D01*
X-23573808Y12887632D02*
X-23478570Y12840012D01*
X-23478570Y12840012D02*
X-23240475Y12840012D01*
X-23240475Y12840012D02*
X-23145237Y12887632D01*
X-23145237Y12887632D02*
X-23097618Y12982870D01*
X-23097618Y12982870D02*
X-23097618Y13078108D01*
X-23097618Y13078108D02*
X-23145237Y13173346D01*
X-23145237Y13173346D02*
X-23240475Y13220965D01*
X-23240475Y13220965D02*
X-23478570Y13220965D01*
X-23478570Y13220965D02*
X-23573808Y13268584D01*
X-23907142Y13506679D02*
X-24288094Y13506679D01*
X-24049999Y13840012D02*
X-24049999Y12982870D01*
X-24049999Y12982870D02*
X-24097618Y12887632D01*
X-24097618Y12887632D02*
X-24192856Y12840012D01*
X-24192856Y12840012D02*
X-24288094Y12840012D01*
X-24478571Y13506679D02*
X-24859523Y13506679D01*
X-24621428Y13840012D02*
X-24621428Y12982870D01*
X-24621428Y12982870D02*
X-24669047Y12887632D01*
X-24669047Y12887632D02*
X-24764285Y12840012D01*
X-24764285Y12840012D02*
X-24859523Y12840012D01*
X-25573809Y12887632D02*
X-25478571Y12840012D01*
X-25478571Y12840012D02*
X-25288095Y12840012D01*
X-25288095Y12840012D02*
X-25192857Y12887632D01*
X-25192857Y12887632D02*
X-25145238Y12982870D01*
X-25145238Y12982870D02*
X-25145238Y13363822D01*
X-25145238Y13363822D02*
X-25192857Y13459060D01*
X-25192857Y13459060D02*
X-25288095Y13506679D01*
X-25288095Y13506679D02*
X-25478571Y13506679D01*
X-25478571Y13506679D02*
X-25573809Y13459060D01*
X-25573809Y13459060D02*
X-25621428Y13363822D01*
X-25621428Y13363822D02*
X-25621428Y13268584D01*
X-25621428Y13268584D02*
X-25145238Y13173346D01*
X-26050000Y12840012D02*
X-26050000Y13506679D01*
X-26050000Y13316203D02*
X-26097619Y13411441D01*
X-26097619Y13411441D02*
X-26145238Y13459060D01*
X-26145238Y13459060D02*
X-26240476Y13506679D01*
X-26240476Y13506679D02*
X-26335714Y13506679D01*
X-26573810Y13506679D02*
X-26811905Y12840012D01*
X-27050000Y13506679D02*
X-26811905Y12840012D01*
X-26811905Y12840012D02*
X-26716667Y12601917D01*
X-26716667Y12601917D02*
X-26669048Y12554298D01*
X-26669048Y12554298D02*
X-26573810Y12506679D01*
X-22454761Y11753878D02*
X-22597618Y11706259D01*
X-22597618Y11706259D02*
X-22645237Y11658640D01*
X-22645237Y11658640D02*
X-22692856Y11563402D01*
X-22692856Y11563402D02*
X-22692856Y11420545D01*
X-22692856Y11420545D02*
X-22645237Y11325307D01*
X-22645237Y11325307D02*
X-22597618Y11277688D01*
X-22597618Y11277688D02*
X-22502380Y11230068D01*
X-22502380Y11230068D02*
X-22121428Y11230068D01*
X-22121428Y11230068D02*
X-22121428Y12230068D01*
X-22121428Y12230068D02*
X-22454761Y12230068D01*
X-22454761Y12230068D02*
X-22549999Y12182449D01*
X-22549999Y12182449D02*
X-22597618Y12134830D01*
X-22597618Y12134830D02*
X-22645237Y12039592D01*
X-22645237Y12039592D02*
X-22645237Y11944354D01*
X-22645237Y11944354D02*
X-22597618Y11849116D01*
X-22597618Y11849116D02*
X-22549999Y11801497D01*
X-22549999Y11801497D02*
X-22454761Y11753878D01*
X-22454761Y11753878D02*
X-22121428Y11753878D01*
X-23549999Y11230068D02*
X-23549999Y11753878D01*
X-23549999Y11753878D02*
X-23502380Y11849116D01*
X-23502380Y11849116D02*
X-23407142Y11896735D01*
X-23407142Y11896735D02*
X-23216666Y11896735D01*
X-23216666Y11896735D02*
X-23121428Y11849116D01*
X-23549999Y11277688D02*
X-23454761Y11230068D01*
X-23454761Y11230068D02*
X-23216666Y11230068D01*
X-23216666Y11230068D02*
X-23121428Y11277688D01*
X-23121428Y11277688D02*
X-23073809Y11372926D01*
X-23073809Y11372926D02*
X-23073809Y11468164D01*
X-23073809Y11468164D02*
X-23121428Y11563402D01*
X-23121428Y11563402D02*
X-23216666Y11611021D01*
X-23216666Y11611021D02*
X-23454761Y11611021D01*
X-23454761Y11611021D02*
X-23549999Y11658640D01*
X-24026190Y11896735D02*
X-24026190Y11230068D01*
X-24026190Y11801497D02*
X-24073809Y11849116D01*
X-24073809Y11849116D02*
X-24169047Y11896735D01*
X-24169047Y11896735D02*
X-24311904Y11896735D01*
X-24311904Y11896735D02*
X-24407142Y11849116D01*
X-24407142Y11849116D02*
X-24454761Y11753878D01*
X-24454761Y11753878D02*
X-24454761Y11230068D01*
X-24930952Y11230068D02*
X-24930952Y12230068D01*
X-25026190Y11611021D02*
X-25311904Y11230068D01*
X-25311904Y11896735D02*
X-24930952Y11515783D01*
X-27026190Y11230068D02*
X-26454762Y11230068D01*
X-26740476Y11230068D02*
X-26740476Y12230068D01*
X-26740476Y12230068D02*
X-26645238Y12087211D01*
X-26645238Y12087211D02*
X-26550000Y11991973D01*
X-26550000Y11991973D02*
X-26454762Y11944354D01*
X-21502381Y9620124D02*
X-20930953Y9620124D01*
X-21216667Y9620124D02*
X-21216667Y10620124D01*
X-21216667Y10620124D02*
X-21121429Y10477267D01*
X-21121429Y10477267D02*
X-21026191Y10382029D01*
X-21026191Y10382029D02*
X-20930953Y10334410D01*
X-21930953Y9715363D02*
X-21978572Y9667744D01*
X-21978572Y9667744D02*
X-21930953Y9620124D01*
X-21930953Y9620124D02*
X-21883334Y9667744D01*
X-21883334Y9667744D02*
X-21930953Y9715363D01*
X-21930953Y9715363D02*
X-21930953Y9620124D01*
X-22359524Y10524886D02*
X-22407143Y10572505D01*
X-22407143Y10572505D02*
X-22502381Y10620124D01*
X-22502381Y10620124D02*
X-22740476Y10620124D01*
X-22740476Y10620124D02*
X-22835714Y10572505D01*
X-22835714Y10572505D02*
X-22883333Y10524886D01*
X-22883333Y10524886D02*
X-22930952Y10429648D01*
X-22930952Y10429648D02*
X-22930952Y10334410D01*
X-22930952Y10334410D02*
X-22883333Y10191553D01*
X-22883333Y10191553D02*
X-22311905Y9620124D01*
X-22311905Y9620124D02*
X-22930952Y9620124D01*
X-23359524Y10001077D02*
X-24121429Y10001077D01*
X-25121428Y9620124D02*
X-24550000Y9620124D01*
X-24835714Y9620124D02*
X-24835714Y10620124D01*
X-24835714Y10620124D02*
X-24740476Y10477267D01*
X-24740476Y10477267D02*
X-24645238Y10382029D01*
X-24645238Y10382029D02*
X-24550000Y10334410D01*
X-25550000Y9715363D02*
X-25597619Y9667744D01*
X-25597619Y9667744D02*
X-25550000Y9620124D01*
X-25550000Y9620124D02*
X-25502381Y9667744D01*
X-25502381Y9667744D02*
X-25550000Y9715363D01*
X-25550000Y9715363D02*
X-25550000Y9620124D01*
X-26502380Y10620124D02*
X-26026190Y10620124D01*
X-26026190Y10620124D02*
X-25978571Y10143934D01*
X-25978571Y10143934D02*
X-26026190Y10191553D01*
X-26026190Y10191553D02*
X-26121428Y10239172D01*
X-26121428Y10239172D02*
X-26359523Y10239172D01*
X-26359523Y10239172D02*
X-26454761Y10191553D01*
X-26454761Y10191553D02*
X-26502380Y10143934D01*
X-26502380Y10143934D02*
X-26549999Y10048696D01*
X-26549999Y10048696D02*
X-26549999Y9810601D01*
X-26549999Y9810601D02*
X-26502380Y9715363D01*
X-26502380Y9715363D02*
X-26454761Y9667744D01*
X-26454761Y9667744D02*
X-26359523Y9620124D01*
X-26359523Y9620124D02*
X-26121428Y9620124D01*
X-26121428Y9620124D02*
X-26026190Y9667744D01*
X-26026190Y9667744D02*
X-25978571Y9715363D01*
X-26835714Y10620124D02*
X-27169047Y9620124D01*
X-27169047Y9620124D02*
X-27502380Y10620124D01*
X-23883333Y8295895D02*
X-24359523Y8295895D01*
X-23788095Y8010180D02*
X-24121428Y9010180D01*
X-24121428Y9010180D02*
X-24454761Y8010180D01*
X-24740476Y8295895D02*
X-25216666Y8295895D01*
X-24645238Y8010180D02*
X-24978571Y9010180D01*
X-24978571Y9010180D02*
X-25311904Y8010180D01*
X55947438Y729411D02*
X55899819Y824649D01*
X55899819Y824649D02*
X55899819Y967506D01*
X55899819Y967506D02*
X55947438Y1110363D01*
X55947438Y1110363D02*
X56042676Y1205601D01*
X56042676Y1205601D02*
X56137914Y1253220D01*
X56137914Y1253220D02*
X56328390Y1300839D01*
X56328390Y1300839D02*
X56471247Y1300839D01*
X56471247Y1300839D02*
X56661723Y1253220D01*
X56661723Y1253220D02*
X56756961Y1205601D01*
X56756961Y1205601D02*
X56852200Y1110363D01*
X56852200Y1110363D02*
X56899819Y967506D01*
X56899819Y967506D02*
X56899819Y872268D01*
X56899819Y872268D02*
X56852200Y729411D01*
X56852200Y729411D02*
X56804580Y681792D01*
X56804580Y681792D02*
X56471247Y681792D01*
X56471247Y681792D02*
X56471247Y872268D01*
X56899819Y253220D02*
X55899819Y253220D01*
X55899819Y253220D02*
X56899819Y-318207D01*
X56899819Y-318207D02*
X55899819Y-318207D01*
X56899819Y-794398D02*
X55899819Y-794398D01*
X55899819Y-794398D02*
X55899819Y-1032493D01*
X55899819Y-1032493D02*
X55947438Y-1175350D01*
X55947438Y-1175350D02*
X56042676Y-1270588D01*
X56042676Y-1270588D02*
X56137914Y-1318207D01*
X56137914Y-1318207D02*
X56328390Y-1365826D01*
X56328390Y-1365826D02*
X56471247Y-1365826D01*
X56471247Y-1365826D02*
X56661723Y-1318207D01*
X56661723Y-1318207D02*
X56756961Y-1270588D01*
X56756961Y-1270588D02*
X56852200Y-1175350D01*
X56852200Y-1175350D02*
X56899819Y-1032493D01*
X56899819Y-1032493D02*
X56899819Y-794398D01*
X-56732561Y779411D02*
X-56780180Y874649D01*
X-56780180Y874649D02*
X-56780180Y1017506D01*
X-56780180Y1017506D02*
X-56732561Y1160363D01*
X-56732561Y1160363D02*
X-56637323Y1255601D01*
X-56637323Y1255601D02*
X-56542085Y1303220D01*
X-56542085Y1303220D02*
X-56351609Y1350839D01*
X-56351609Y1350839D02*
X-56208752Y1350839D01*
X-56208752Y1350839D02*
X-56018276Y1303220D01*
X-56018276Y1303220D02*
X-55923038Y1255601D01*
X-55923038Y1255601D02*
X-55827800Y1160363D01*
X-55827800Y1160363D02*
X-55780180Y1017506D01*
X-55780180Y1017506D02*
X-55780180Y922268D01*
X-55780180Y922268D02*
X-55827800Y779411D01*
X-55827800Y779411D02*
X-55875419Y731792D01*
X-55875419Y731792D02*
X-56208752Y731792D01*
X-56208752Y731792D02*
X-56208752Y922268D01*
X-55780180Y303220D02*
X-56780180Y303220D01*
X-56780180Y303220D02*
X-55780180Y-268207D01*
X-55780180Y-268207D02*
X-56780180Y-268207D01*
X-55780180Y-744398D02*
X-56780180Y-744398D01*
X-56780180Y-744398D02*
X-56780180Y-982493D01*
X-56780180Y-982493D02*
X-56732561Y-1125350D01*
X-56732561Y-1125350D02*
X-56637323Y-1220588D01*
X-56637323Y-1220588D02*
X-56542085Y-1268207D01*
X-56542085Y-1268207D02*
X-56351609Y-1315826D01*
X-56351609Y-1315826D02*
X-56208752Y-1315826D01*
X-56208752Y-1315826D02*
X-56018276Y-1268207D01*
X-56018276Y-1268207D02*
X-55923038Y-1220588D01*
X-55923038Y-1220588D02*
X-55827800Y-1125350D01*
X-55827800Y-1125350D02*
X-55780180Y-982493D01*
X-55780180Y-982493D02*
X-55780180Y-744398D01*
X-51170180Y29203220D02*
X-52170180Y29203220D01*
X-51170180Y28727030D02*
X-52170180Y28727030D01*
X-52170180Y28727030D02*
X-51170180Y28155602D01*
X-51170180Y28155602D02*
X-52170180Y28155602D01*
X-51170180Y27679411D02*
X-52170180Y27679411D01*
X-52170180Y27679411D02*
X-52170180Y27298459D01*
X-52170180Y27298459D02*
X-52122561Y27203221D01*
X-52122561Y27203221D02*
X-52074942Y27155602D01*
X-52074942Y27155602D02*
X-51979704Y27107983D01*
X-51979704Y27107983D02*
X-51836847Y27107983D01*
X-51836847Y27107983D02*
X-51741609Y27155602D01*
X-51741609Y27155602D02*
X-51693990Y27203221D01*
X-51693990Y27203221D02*
X-51646371Y27298459D01*
X-51646371Y27298459D02*
X-51646371Y27679411D01*
X-52170180Y26679411D02*
X-51360657Y26679411D01*
X-51360657Y26679411D02*
X-51265419Y26631792D01*
X-51265419Y26631792D02*
X-51217800Y26584173D01*
X-51217800Y26584173D02*
X-51170180Y26488935D01*
X-51170180Y26488935D02*
X-51170180Y26298459D01*
X-51170180Y26298459D02*
X-51217800Y26203221D01*
X-51217800Y26203221D02*
X-51265419Y26155602D01*
X-51265419Y26155602D02*
X-51360657Y26107983D01*
X-51360657Y26107983D02*
X-52170180Y26107983D01*
X-52170180Y25774649D02*
X-52170180Y25203221D01*
X-51170180Y25488935D02*
X-52170180Y25488935D01*
X-53820180Y27517030D02*
X-53820180Y27993220D01*
X-53820180Y27993220D02*
X-53343990Y28040839D01*
X-53343990Y28040839D02*
X-53391609Y27993220D01*
X-53391609Y27993220D02*
X-53439228Y27897982D01*
X-53439228Y27897982D02*
X-53439228Y27659887D01*
X-53439228Y27659887D02*
X-53391609Y27564649D01*
X-53391609Y27564649D02*
X-53343990Y27517030D01*
X-53343990Y27517030D02*
X-53248752Y27469411D01*
X-53248752Y27469411D02*
X-53010657Y27469411D01*
X-53010657Y27469411D02*
X-52915419Y27517030D01*
X-52915419Y27517030D02*
X-52867800Y27564649D01*
X-52867800Y27564649D02*
X-52820180Y27659887D01*
X-52820180Y27659887D02*
X-52820180Y27897982D01*
X-52820180Y27897982D02*
X-52867800Y27993220D01*
X-52867800Y27993220D02*
X-52915419Y28040839D01*
X-53820180Y27183696D02*
X-52820180Y26850363D01*
X-52820180Y26850363D02*
X-53820180Y26517030D01*
X-10150000Y-3140000D02*
X-10150000Y-2140000D01*
X37610000Y6541500D02*
X41210000Y6541500D01*
X-24710000Y-1640000D02*
X-23310000Y-1640000D01*
X38610000Y-4058500D02*
X38610000Y-3058500D01*
X40110000Y-3058500D02*
X40110000Y-4058500D01*
X40110000Y-4058500D02*
X38610000Y-4058500D01*
X23739999Y5561501D02*
X23739999Y6561500D01*
X39410000Y-1008500D02*
X39410000Y-2508500D01*
X24439999Y3511501D02*
X24439999Y5011501D01*
X22640000Y-4038500D02*
X22640000Y5561500D01*
X11320000Y-3948500D02*
X9820000Y-3948500D01*
X-39640000Y6660000D02*
X-38140000Y6660000D01*
X38610000Y-3058500D02*
X37610000Y-3058500D01*
X-10900000Y6660000D02*
X-9400000Y6660000D01*
X-12000000Y5660000D02*
X-10900000Y5660000D01*
X9820000Y-2948501D02*
X8820000Y-2948501D01*
X9920000Y-1648500D02*
X11319999Y-1648500D01*
X39360000Y5741500D02*
X39360000Y4741500D01*
X-37140000Y5660000D02*
X-37140000Y-3940000D01*
X-38240000Y4360000D02*
X-39640000Y4360000D01*
X-24810000Y-3940000D02*
X-24810000Y-2940000D01*
X8820000Y-2948501D02*
X8820000Y6651499D01*
X-10900000Y5660000D02*
X-10900000Y6660000D01*
X10620000Y-898500D02*
X10620000Y-2398500D01*
X-38940000Y3610000D02*
X-38940000Y5110000D01*
X-24010000Y-890000D02*
X-24010000Y-2390000D01*
X41210000Y6541500D02*
X41210000Y-3058500D01*
X-24810000Y-2940000D02*
X-25810000Y-2940000D01*
X12420000Y6651501D02*
X12420000Y-2948499D01*
X-38890000Y-3140000D02*
X-38890000Y-2140000D01*
X23739999Y6561500D02*
X25239999Y6561501D01*
X24490000Y-3238500D02*
X24490000Y-2238499D01*
X-9500000Y4360000D02*
X-10900000Y4360000D01*
X41210000Y-3058500D02*
X40110000Y-3058500D01*
X-37140000Y-3940000D02*
X-40740000Y-3940000D01*
X-25810000Y-2940000D02*
X-25810000Y6660000D01*
X-40740000Y5660000D02*
X-39640000Y5660000D01*
X-8400000Y5660000D02*
X-8400000Y-3940000D01*
X26239999Y5561501D02*
X26239999Y-4038499D01*
X25139999Y4261500D02*
X23740000Y4261501D01*
X-23310000Y-3940000D02*
X-24810000Y-3940000D01*
X-9400000Y6660000D02*
X-9400000Y5660000D01*
X-8400000Y-3940000D02*
X-12000000Y-3940000D01*
X10569999Y5851501D02*
X10569999Y4851500D01*
X-24060000Y5860000D02*
X-24060000Y4860000D01*
X-12000000Y-3940000D02*
X-12000000Y5660000D01*
X38710000Y-1758500D02*
X40110000Y-1758500D01*
X22640000Y5561500D02*
X23739999Y5561501D01*
X-38140000Y5660000D02*
X-37140000Y5660000D01*
X-38140000Y6660000D02*
X-38140000Y5660000D01*
X25239999Y5561502D02*
X26239999Y5561501D01*
X26239999Y-4038499D02*
X22640000Y-4038500D01*
X-23310000Y-2940000D02*
X-23310000Y-3940000D01*
X-10200000Y3610000D02*
X-10200000Y5110000D01*
X-25810000Y6660000D02*
X-22210000Y6660000D01*
X25239999Y6561501D02*
X25239999Y5561502D01*
X-22210000Y-2940000D02*
X-23310000Y-2940000D01*
X-9400000Y5660000D02*
X-8400000Y5660000D01*
X-39640000Y5660000D02*
X-39640000Y6660000D01*
X11320000Y-2948501D02*
X11320000Y-3948500D01*
X9820000Y-3948500D02*
X9820000Y-2948501D01*
X37610000Y-3058500D02*
X37610000Y6541500D01*
X12420000Y-2948499D02*
X11320000Y-2948501D01*
X-40740000Y-3940000D02*
X-40740000Y5660000D01*
X8820000Y6651499D02*
X12420000Y6651501D01*
X-22210000Y6660000D02*
X-22210000Y-2940000D01*
X-57701064Y-7856200D02*
X-57815350Y-7894295D01*
X-57815350Y-7894295D02*
X-58005826Y-7894295D01*
X-58005826Y-7894295D02*
X-58082017Y-7856200D01*
X-58082017Y-7856200D02*
X-58120112Y-7818104D01*
X-58120112Y-7818104D02*
X-58158207Y-7741914D01*
X-58158207Y-7741914D02*
X-58158207Y-7665723D01*
X-58158207Y-7665723D02*
X-58120112Y-7589533D01*
X-58120112Y-7589533D02*
X-58082017Y-7551438D01*
X-58082017Y-7551438D02*
X-58005826Y-7513342D01*
X-58005826Y-7513342D02*
X-57853445Y-7475247D01*
X-57853445Y-7475247D02*
X-57777255Y-7437152D01*
X-57777255Y-7437152D02*
X-57739160Y-7399057D01*
X-57739160Y-7399057D02*
X-57701064Y-7322866D01*
X-57701064Y-7322866D02*
X-57701064Y-7246676D01*
X-57701064Y-7246676D02*
X-57739160Y-7170485D01*
X-57739160Y-7170485D02*
X-57777255Y-7132390D01*
X-57777255Y-7132390D02*
X-57853445Y-7094295D01*
X-57853445Y-7094295D02*
X-58043922Y-7094295D01*
X-58043922Y-7094295D02*
X-58158207Y-7132390D01*
X-58958208Y-7818104D02*
X-58920112Y-7856200D01*
X-58920112Y-7856200D02*
X-58805827Y-7894295D01*
X-58805827Y-7894295D02*
X-58729636Y-7894295D01*
X-58729636Y-7894295D02*
X-58615350Y-7856200D01*
X-58615350Y-7856200D02*
X-58539160Y-7780009D01*
X-58539160Y-7780009D02*
X-58501065Y-7703819D01*
X-58501065Y-7703819D02*
X-58462969Y-7551438D01*
X-58462969Y-7551438D02*
X-58462969Y-7437152D01*
X-58462969Y-7437152D02*
X-58501065Y-7284771D01*
X-58501065Y-7284771D02*
X-58539160Y-7208580D01*
X-58539160Y-7208580D02*
X-58615350Y-7132390D01*
X-58615350Y-7132390D02*
X-58729636Y-7094295D01*
X-58729636Y-7094295D02*
X-58805827Y-7094295D01*
X-58805827Y-7094295D02*
X-58920112Y-7132390D01*
X-58920112Y-7132390D02*
X-58958208Y-7170485D01*
X-59682017Y-7894295D02*
X-59301065Y-7894295D01*
X-59301065Y-7894295D02*
X-59301065Y-7094295D01*
X-52201064Y7143800D02*
X-52315350Y7105704D01*
X-52315350Y7105704D02*
X-52505826Y7105704D01*
X-52505826Y7105704D02*
X-52582017Y7143800D01*
X-52582017Y7143800D02*
X-52620112Y7181895D01*
X-52620112Y7181895D02*
X-52658207Y7258085D01*
X-52658207Y7258085D02*
X-52658207Y7334276D01*
X-52658207Y7334276D02*
X-52620112Y7410466D01*
X-52620112Y7410466D02*
X-52582017Y7448561D01*
X-52582017Y7448561D02*
X-52505826Y7486657D01*
X-52505826Y7486657D02*
X-52353445Y7524752D01*
X-52353445Y7524752D02*
X-52277255Y7562847D01*
X-52277255Y7562847D02*
X-52239160Y7600942D01*
X-52239160Y7600942D02*
X-52201064Y7677133D01*
X-52201064Y7677133D02*
X-52201064Y7753323D01*
X-52201064Y7753323D02*
X-52239160Y7829514D01*
X-52239160Y7829514D02*
X-52277255Y7867609D01*
X-52277255Y7867609D02*
X-52353445Y7905704D01*
X-52353445Y7905704D02*
X-52543922Y7905704D01*
X-52543922Y7905704D02*
X-52658207Y7867609D01*
X-53001065Y7105704D02*
X-53001065Y7905704D01*
X-53001065Y7905704D02*
X-53191541Y7905704D01*
X-53191541Y7905704D02*
X-53305827Y7867609D01*
X-53305827Y7867609D02*
X-53382017Y7791419D01*
X-53382017Y7791419D02*
X-53420112Y7715228D01*
X-53420112Y7715228D02*
X-53458208Y7562847D01*
X-53458208Y7562847D02*
X-53458208Y7448561D01*
X-53458208Y7448561D02*
X-53420112Y7296180D01*
X-53420112Y7296180D02*
X-53382017Y7219990D01*
X-53382017Y7219990D02*
X-53305827Y7143800D01*
X-53305827Y7143800D02*
X-53191541Y7105704D01*
X-53191541Y7105704D02*
X-53001065Y7105704D01*
X-53762969Y7334276D02*
X-54143922Y7334276D01*
X-53686779Y7105704D02*
X-53953446Y7905704D01*
X-53953446Y7905704D02*
X-54220112Y7105704D01*
X-54874874Y-7094295D02*
X-55141541Y-7894295D01*
X-55141541Y-7894295D02*
X-55408207Y-7094295D01*
X-56132017Y-7818104D02*
X-56093921Y-7856200D01*
X-56093921Y-7856200D02*
X-55979636Y-7894295D01*
X-55979636Y-7894295D02*
X-55903445Y-7894295D01*
X-55903445Y-7894295D02*
X-55789159Y-7856200D01*
X-55789159Y-7856200D02*
X-55712969Y-7780009D01*
X-55712969Y-7780009D02*
X-55674874Y-7703819D01*
X-55674874Y-7703819D02*
X-55636778Y-7551438D01*
X-55636778Y-7551438D02*
X-55636778Y-7437152D01*
X-55636778Y-7437152D02*
X-55674874Y-7284771D01*
X-55674874Y-7284771D02*
X-55712969Y-7208580D01*
X-55712969Y-7208580D02*
X-55789159Y-7132390D01*
X-55789159Y-7132390D02*
X-55903445Y-7094295D01*
X-55903445Y-7094295D02*
X-55979636Y-7094295D01*
X-55979636Y-7094295D02*
X-56093921Y-7132390D01*
X-56093921Y-7132390D02*
X-56132017Y-7170485D01*
X-56932017Y-7818104D02*
X-56893921Y-7856200D01*
X-56893921Y-7856200D02*
X-56779636Y-7894295D01*
X-56779636Y-7894295D02*
X-56703445Y-7894295D01*
X-56703445Y-7894295D02*
X-56589159Y-7856200D01*
X-56589159Y-7856200D02*
X-56512969Y-7780009D01*
X-56512969Y-7780009D02*
X-56474874Y-7703819D01*
X-56474874Y-7703819D02*
X-56436778Y-7551438D01*
X-56436778Y-7551438D02*
X-56436778Y-7437152D01*
X-56436778Y-7437152D02*
X-56474874Y-7284771D01*
X-56474874Y-7284771D02*
X-56512969Y-7208580D01*
X-56512969Y-7208580D02*
X-56589159Y-7132390D01*
X-56589159Y-7132390D02*
X-56703445Y-7094295D01*
X-56703445Y-7094295D02*
X-56779636Y-7094295D01*
X-56779636Y-7094295D02*
X-56893921Y-7132390D01*
X-56893921Y-7132390D02*
X-56932017Y-7170485D01*
X53744295Y9475125D02*
X54544295Y9208458D01*
X54544295Y9208458D02*
X53744295Y8941792D01*
X54468104Y8217982D02*
X54506200Y8256078D01*
X54506200Y8256078D02*
X54544295Y8370363D01*
X54544295Y8370363D02*
X54544295Y8446554D01*
X54544295Y8446554D02*
X54506200Y8560840D01*
X54506200Y8560840D02*
X54430009Y8637030D01*
X54430009Y8637030D02*
X54353819Y8675125D01*
X54353819Y8675125D02*
X54201438Y8713221D01*
X54201438Y8713221D02*
X54087152Y8713221D01*
X54087152Y8713221D02*
X53934771Y8675125D01*
X53934771Y8675125D02*
X53858580Y8637030D01*
X53858580Y8637030D02*
X53782390Y8560840D01*
X53782390Y8560840D02*
X53744295Y8446554D01*
X53744295Y8446554D02*
X53744295Y8370363D01*
X53744295Y8370363D02*
X53782390Y8256078D01*
X53782390Y8256078D02*
X53820485Y8217982D01*
X54468104Y7417982D02*
X54506200Y7456078D01*
X54506200Y7456078D02*
X54544295Y7570363D01*
X54544295Y7570363D02*
X54544295Y7646554D01*
X54544295Y7646554D02*
X54506200Y7760840D01*
X54506200Y7760840D02*
X54430009Y7837030D01*
X54430009Y7837030D02*
X54353819Y7875125D01*
X54353819Y7875125D02*
X54201438Y7913221D01*
X54201438Y7913221D02*
X54087152Y7913221D01*
X54087152Y7913221D02*
X53934771Y7875125D01*
X53934771Y7875125D02*
X53858580Y7837030D01*
X53858580Y7837030D02*
X53782390Y7760840D01*
X53782390Y7760840D02*
X53744295Y7646554D01*
X53744295Y7646554D02*
X53744295Y7570363D01*
X53744295Y7570363D02*
X53782390Y7456078D01*
X53782390Y7456078D02*
X53820485Y7417982D01*
X-58126779Y25501133D02*
X-58888684Y25501133D01*
X-58507731Y25120180D02*
X-58507731Y25882085D01*
X56856200Y9298935D02*
X56894295Y9184649D01*
X56894295Y9184649D02*
X56894295Y8994173D01*
X56894295Y8994173D02*
X56856200Y8917982D01*
X56856200Y8917982D02*
X56818104Y8879887D01*
X56818104Y8879887D02*
X56741914Y8841792D01*
X56741914Y8841792D02*
X56665723Y8841792D01*
X56665723Y8841792D02*
X56589533Y8879887D01*
X56589533Y8879887D02*
X56551438Y8917982D01*
X56551438Y8917982D02*
X56513342Y8994173D01*
X56513342Y8994173D02*
X56475247Y9146554D01*
X56475247Y9146554D02*
X56437152Y9222744D01*
X56437152Y9222744D02*
X56399057Y9260839D01*
X56399057Y9260839D02*
X56322866Y9298935D01*
X56322866Y9298935D02*
X56246676Y9298935D01*
X56246676Y9298935D02*
X56170485Y9260839D01*
X56170485Y9260839D02*
X56132390Y9222744D01*
X56132390Y9222744D02*
X56094295Y9146554D01*
X56094295Y9146554D02*
X56094295Y8956077D01*
X56094295Y8956077D02*
X56132390Y8841792D01*
X56818104Y8041791D02*
X56856200Y8079887D01*
X56856200Y8079887D02*
X56894295Y8194172D01*
X56894295Y8194172D02*
X56894295Y8270363D01*
X56894295Y8270363D02*
X56856200Y8384649D01*
X56856200Y8384649D02*
X56780009Y8460839D01*
X56780009Y8460839D02*
X56703819Y8498934D01*
X56703819Y8498934D02*
X56551438Y8537030D01*
X56551438Y8537030D02*
X56437152Y8537030D01*
X56437152Y8537030D02*
X56284771Y8498934D01*
X56284771Y8498934D02*
X56208580Y8460839D01*
X56208580Y8460839D02*
X56132390Y8384649D01*
X56132390Y8384649D02*
X56094295Y8270363D01*
X56094295Y8270363D02*
X56094295Y8194172D01*
X56094295Y8194172D02*
X56132390Y8079887D01*
X56132390Y8079887D02*
X56170485Y8041791D01*
X56894295Y7317982D02*
X56894295Y7698934D01*
X56894295Y7698934D02*
X56094295Y7698934D01*
X-60408207Y7867609D02*
X-60332017Y7905704D01*
X-60332017Y7905704D02*
X-60217731Y7905704D01*
X-60217731Y7905704D02*
X-60103445Y7867609D01*
X-60103445Y7867609D02*
X-60027255Y7791419D01*
X-60027255Y7791419D02*
X-59989160Y7715228D01*
X-59989160Y7715228D02*
X-59951064Y7562847D01*
X-59951064Y7562847D02*
X-59951064Y7448561D01*
X-59951064Y7448561D02*
X-59989160Y7296180D01*
X-59989160Y7296180D02*
X-60027255Y7219990D01*
X-60027255Y7219990D02*
X-60103445Y7143800D01*
X-60103445Y7143800D02*
X-60217731Y7105704D01*
X-60217731Y7105704D02*
X-60293922Y7105704D01*
X-60293922Y7105704D02*
X-60408207Y7143800D01*
X-60408207Y7143800D02*
X-60446303Y7181895D01*
X-60446303Y7181895D02*
X-60446303Y7448561D01*
X-60446303Y7448561D02*
X-60293922Y7448561D01*
X-60789160Y7105704D02*
X-60789160Y7905704D01*
X-60789160Y7905704D02*
X-61246303Y7105704D01*
X-61246303Y7105704D02*
X-61246303Y7905704D01*
X-61627255Y7105704D02*
X-61627255Y7905704D01*
X-61627255Y7905704D02*
X-61817731Y7905704D01*
X-61817731Y7905704D02*
X-61932017Y7867609D01*
X-61932017Y7867609D02*
X-62008207Y7791419D01*
X-62008207Y7791419D02*
X-62046302Y7715228D01*
X-62046302Y7715228D02*
X-62084398Y7562847D01*
X-62084398Y7562847D02*
X-62084398Y7448561D01*
X-62084398Y7448561D02*
X-62046302Y7296180D01*
X-62046302Y7296180D02*
X-62008207Y7219990D01*
X-62008207Y7219990D02*
X-61932017Y7143800D01*
X-61932017Y7143800D02*
X-61817731Y7105704D01*
X-61817731Y7105704D02*
X-61627255Y7105704D01*
X-60201064Y-7856200D02*
X-60315350Y-7894295D01*
X-60315350Y-7894295D02*
X-60505826Y-7894295D01*
X-60505826Y-7894295D02*
X-60582017Y-7856200D01*
X-60582017Y-7856200D02*
X-60620112Y-7818104D01*
X-60620112Y-7818104D02*
X-60658207Y-7741914D01*
X-60658207Y-7741914D02*
X-60658207Y-7665723D01*
X-60658207Y-7665723D02*
X-60620112Y-7589533D01*
X-60620112Y-7589533D02*
X-60582017Y-7551438D01*
X-60582017Y-7551438D02*
X-60505826Y-7513342D01*
X-60505826Y-7513342D02*
X-60353445Y-7475247D01*
X-60353445Y-7475247D02*
X-60277255Y-7437152D01*
X-60277255Y-7437152D02*
X-60239160Y-7399057D01*
X-60239160Y-7399057D02*
X-60201064Y-7322866D01*
X-60201064Y-7322866D02*
X-60201064Y-7246676D01*
X-60201064Y-7246676D02*
X-60239160Y-7170485D01*
X-60239160Y-7170485D02*
X-60277255Y-7132390D01*
X-60277255Y-7132390D02*
X-60353445Y-7094295D01*
X-60353445Y-7094295D02*
X-60543922Y-7094295D01*
X-60543922Y-7094295D02*
X-60658207Y-7132390D01*
X-61001065Y-7894295D02*
X-61001065Y-7094295D01*
X-61001065Y-7094295D02*
X-61191541Y-7094295D01*
X-61191541Y-7094295D02*
X-61305827Y-7132390D01*
X-61305827Y-7132390D02*
X-61382017Y-7208580D01*
X-61382017Y-7208580D02*
X-61420112Y-7284771D01*
X-61420112Y-7284771D02*
X-61458208Y-7437152D01*
X-61458208Y-7437152D02*
X-61458208Y-7551438D01*
X-61458208Y-7551438D02*
X-61420112Y-7703819D01*
X-61420112Y-7703819D02*
X-61382017Y-7780009D01*
X-61382017Y-7780009D02*
X-61305827Y-7856200D01*
X-61305827Y-7856200D02*
X-61191541Y-7894295D01*
X-61191541Y-7894295D02*
X-61001065Y-7894295D01*
X-61762969Y-7665723D02*
X-62143922Y-7665723D01*
X-61686779Y-7894295D02*
X-61953446Y-7094295D01*
X-61953446Y-7094295D02*
X-62220112Y-7894295D01*
X62054580Y-7878207D02*
X62102200Y-7830588D01*
X62102200Y-7830588D02*
X62149819Y-7687731D01*
X62149819Y-7687731D02*
X62149819Y-7592493D01*
X62149819Y-7592493D02*
X62102200Y-7449636D01*
X62102200Y-7449636D02*
X62006961Y-7354398D01*
X62006961Y-7354398D02*
X61911723Y-7306779D01*
X61911723Y-7306779D02*
X61721247Y-7259160D01*
X61721247Y-7259160D02*
X61578390Y-7259160D01*
X61578390Y-7259160D02*
X61387914Y-7306779D01*
X61387914Y-7306779D02*
X61292676Y-7354398D01*
X61292676Y-7354398D02*
X61197438Y-7449636D01*
X61197438Y-7449636D02*
X61149819Y-7592493D01*
X61149819Y-7592493D02*
X61149819Y-7687731D01*
X61149819Y-7687731D02*
X61197438Y-7830588D01*
X61197438Y-7830588D02*
X61245057Y-7878207D01*
X62149819Y-8449636D02*
X62102200Y-8354398D01*
X62102200Y-8354398D02*
X62054580Y-8306779D01*
X62054580Y-8306779D02*
X61959342Y-8259160D01*
X61959342Y-8259160D02*
X61673628Y-8259160D01*
X61673628Y-8259160D02*
X61578390Y-8306779D01*
X61578390Y-8306779D02*
X61530771Y-8354398D01*
X61530771Y-8354398D02*
X61483152Y-8449636D01*
X61483152Y-8449636D02*
X61483152Y-8592493D01*
X61483152Y-8592493D02*
X61530771Y-8687731D01*
X61530771Y-8687731D02*
X61578390Y-8735350D01*
X61578390Y-8735350D02*
X61673628Y-8782969D01*
X61673628Y-8782969D02*
X61959342Y-8782969D01*
X61959342Y-8782969D02*
X62054580Y-8735350D01*
X62054580Y-8735350D02*
X62102200Y-8687731D01*
X62102200Y-8687731D02*
X62149819Y-8592493D01*
X62149819Y-8592493D02*
X62149819Y-8449636D01*
X62149819Y-9211541D02*
X61483152Y-9211541D01*
X61578390Y-9211541D02*
X61530771Y-9259160D01*
X61530771Y-9259160D02*
X61483152Y-9354398D01*
X61483152Y-9354398D02*
X61483152Y-9497255D01*
X61483152Y-9497255D02*
X61530771Y-9592493D01*
X61530771Y-9592493D02*
X61626009Y-9640112D01*
X61626009Y-9640112D02*
X62149819Y-9640112D01*
X61626009Y-9640112D02*
X61530771Y-9687731D01*
X61530771Y-9687731D02*
X61483152Y-9782969D01*
X61483152Y-9782969D02*
X61483152Y-9925826D01*
X61483152Y-9925826D02*
X61530771Y-10021065D01*
X61530771Y-10021065D02*
X61626009Y-10068684D01*
X61626009Y-10068684D02*
X62149819Y-10068684D01*
X61483152Y-10544874D02*
X62483152Y-10544874D01*
X61530771Y-10544874D02*
X61483152Y-10640112D01*
X61483152Y-10640112D02*
X61483152Y-10830588D01*
X61483152Y-10830588D02*
X61530771Y-10925826D01*
X61530771Y-10925826D02*
X61578390Y-10973445D01*
X61578390Y-10973445D02*
X61673628Y-11021064D01*
X61673628Y-11021064D02*
X61959342Y-11021064D01*
X61959342Y-11021064D02*
X62054580Y-10973445D01*
X62054580Y-10973445D02*
X62102200Y-10925826D01*
X62102200Y-10925826D02*
X62149819Y-10830588D01*
X62149819Y-10830588D02*
X62149819Y-10640112D01*
X62149819Y-10640112D02*
X62102200Y-10544874D01*
X62149819Y-11592493D02*
X62102200Y-11497255D01*
X62102200Y-11497255D02*
X62006961Y-11449636D01*
X62006961Y-11449636D02*
X61149819Y-11449636D01*
X62102200Y-12354398D02*
X62149819Y-12259160D01*
X62149819Y-12259160D02*
X62149819Y-12068684D01*
X62149819Y-12068684D02*
X62102200Y-11973446D01*
X62102200Y-11973446D02*
X62006961Y-11925827D01*
X62006961Y-11925827D02*
X61626009Y-11925827D01*
X61626009Y-11925827D02*
X61530771Y-11973446D01*
X61530771Y-11973446D02*
X61483152Y-12068684D01*
X61483152Y-12068684D02*
X61483152Y-12259160D01*
X61483152Y-12259160D02*
X61530771Y-12354398D01*
X61530771Y-12354398D02*
X61626009Y-12402017D01*
X61626009Y-12402017D02*
X61721247Y-12402017D01*
X61721247Y-12402017D02*
X61816485Y-11925827D01*
X62149819Y-12735351D02*
X61483152Y-13259160D01*
X61483152Y-12735351D02*
X62149819Y-13259160D01*
X62149819Y-13640113D02*
X61483152Y-13640113D01*
X61149819Y-13640113D02*
X61197438Y-13592494D01*
X61197438Y-13592494D02*
X61245057Y-13640113D01*
X61245057Y-13640113D02*
X61197438Y-13687732D01*
X61197438Y-13687732D02*
X61149819Y-13640113D01*
X61149819Y-13640113D02*
X61245057Y-13640113D01*
X61483152Y-13973446D02*
X61483152Y-14354398D01*
X61149819Y-14116303D02*
X62006961Y-14116303D01*
X62006961Y-14116303D02*
X62102200Y-14163922D01*
X62102200Y-14163922D02*
X62149819Y-14259160D01*
X62149819Y-14259160D02*
X62149819Y-14354398D01*
X61483152Y-14592494D02*
X62149819Y-14830589D01*
X61483152Y-15068684D02*
X62149819Y-14830589D01*
X62149819Y-14830589D02*
X62387914Y-14735351D01*
X62387914Y-14735351D02*
X62435533Y-14687732D01*
X62435533Y-14687732D02*
X62483152Y-14592494D01*
X62149819Y-15449637D02*
X61149819Y-15449637D01*
X61149819Y-15449637D02*
X61864104Y-15782970D01*
X61864104Y-15782970D02*
X61149819Y-16116303D01*
X61149819Y-16116303D02*
X62149819Y-16116303D01*
X62149819Y-17021065D02*
X61626009Y-17021065D01*
X61626009Y-17021065D02*
X61530771Y-16973446D01*
X61530771Y-16973446D02*
X61483152Y-16878208D01*
X61483152Y-16878208D02*
X61483152Y-16687732D01*
X61483152Y-16687732D02*
X61530771Y-16592494D01*
X62102200Y-17021065D02*
X62149819Y-16925827D01*
X62149819Y-16925827D02*
X62149819Y-16687732D01*
X62149819Y-16687732D02*
X62102200Y-16592494D01*
X62102200Y-16592494D02*
X62006961Y-16544875D01*
X62006961Y-16544875D02*
X61911723Y-16544875D01*
X61911723Y-16544875D02*
X61816485Y-16592494D01*
X61816485Y-16592494D02*
X61768866Y-16687732D01*
X61768866Y-16687732D02*
X61768866Y-16925827D01*
X61768866Y-16925827D02*
X61721247Y-17021065D01*
X62149819Y-17925827D02*
X61149819Y-17925827D01*
X62102200Y-17925827D02*
X62149819Y-17830589D01*
X62149819Y-17830589D02*
X62149819Y-17640113D01*
X62149819Y-17640113D02*
X62102200Y-17544875D01*
X62102200Y-17544875D02*
X62054580Y-17497256D01*
X62054580Y-17497256D02*
X61959342Y-17449637D01*
X61959342Y-17449637D02*
X61673628Y-17449637D01*
X61673628Y-17449637D02*
X61578390Y-17497256D01*
X61578390Y-17497256D02*
X61530771Y-17544875D01*
X61530771Y-17544875D02*
X61483152Y-17640113D01*
X61483152Y-17640113D02*
X61483152Y-17830589D01*
X61483152Y-17830589D02*
X61530771Y-17925827D01*
X62102200Y-18782970D02*
X62149819Y-18687732D01*
X62149819Y-18687732D02*
X62149819Y-18497256D01*
X62149819Y-18497256D02*
X62102200Y-18402018D01*
X62102200Y-18402018D02*
X62006961Y-18354399D01*
X62006961Y-18354399D02*
X61626009Y-18354399D01*
X61626009Y-18354399D02*
X61530771Y-18402018D01*
X61530771Y-18402018D02*
X61483152Y-18497256D01*
X61483152Y-18497256D02*
X61483152Y-18687732D01*
X61483152Y-18687732D02*
X61530771Y-18782970D01*
X61530771Y-18782970D02*
X61626009Y-18830589D01*
X61626009Y-18830589D02*
X61721247Y-18830589D01*
X61721247Y-18830589D02*
X61816485Y-18354399D01*
X62102200Y-19211542D02*
X62149819Y-19354399D01*
X62149819Y-19354399D02*
X62149819Y-19592494D01*
X62149819Y-19592494D02*
X62102200Y-19687732D01*
X62102200Y-19687732D02*
X62054580Y-19735351D01*
X62054580Y-19735351D02*
X61959342Y-19782970D01*
X61959342Y-19782970D02*
X61864104Y-19782970D01*
X61864104Y-19782970D02*
X61768866Y-19735351D01*
X61768866Y-19735351D02*
X61721247Y-19687732D01*
X61721247Y-19687732D02*
X61673628Y-19592494D01*
X61673628Y-19592494D02*
X61626009Y-19402018D01*
X61626009Y-19402018D02*
X61578390Y-19306780D01*
X61578390Y-19306780D02*
X61530771Y-19259161D01*
X61530771Y-19259161D02*
X61435533Y-19211542D01*
X61435533Y-19211542D02*
X61340295Y-19211542D01*
X61340295Y-19211542D02*
X61245057Y-19259161D01*
X61245057Y-19259161D02*
X61197438Y-19306780D01*
X61197438Y-19306780D02*
X61149819Y-19402018D01*
X61149819Y-19402018D02*
X61149819Y-19640113D01*
X61149819Y-19640113D02*
X61197438Y-19782970D01*
X62149819Y-20211542D02*
X61483152Y-20211542D01*
X61149819Y-20211542D02*
X61197438Y-20163923D01*
X61197438Y-20163923D02*
X61245057Y-20211542D01*
X61245057Y-20211542D02*
X61197438Y-20259161D01*
X61197438Y-20259161D02*
X61149819Y-20211542D01*
X61149819Y-20211542D02*
X61245057Y-20211542D01*
X62149819Y-20687732D02*
X61483152Y-20687732D01*
X61578390Y-20687732D02*
X61530771Y-20735351D01*
X61530771Y-20735351D02*
X61483152Y-20830589D01*
X61483152Y-20830589D02*
X61483152Y-20973446D01*
X61483152Y-20973446D02*
X61530771Y-21068684D01*
X61530771Y-21068684D02*
X61626009Y-21116303D01*
X61626009Y-21116303D02*
X62149819Y-21116303D01*
X61626009Y-21116303D02*
X61530771Y-21163922D01*
X61530771Y-21163922D02*
X61483152Y-21259160D01*
X61483152Y-21259160D02*
X61483152Y-21402017D01*
X61483152Y-21402017D02*
X61530771Y-21497256D01*
X61530771Y-21497256D02*
X61626009Y-21544875D01*
X61626009Y-21544875D02*
X62149819Y-21544875D01*
X61483152Y-22021065D02*
X62483152Y-22021065D01*
X61530771Y-22021065D02*
X61483152Y-22116303D01*
X61483152Y-22116303D02*
X61483152Y-22306779D01*
X61483152Y-22306779D02*
X61530771Y-22402017D01*
X61530771Y-22402017D02*
X61578390Y-22449636D01*
X61578390Y-22449636D02*
X61673628Y-22497255D01*
X61673628Y-22497255D02*
X61959342Y-22497255D01*
X61959342Y-22497255D02*
X62054580Y-22449636D01*
X62054580Y-22449636D02*
X62102200Y-22402017D01*
X62102200Y-22402017D02*
X62149819Y-22306779D01*
X62149819Y-22306779D02*
X62149819Y-22116303D01*
X62149819Y-22116303D02*
X62102200Y-22021065D01*
X62149819Y-23068684D02*
X62102200Y-22973446D01*
X62102200Y-22973446D02*
X62006961Y-22925827D01*
X62006961Y-22925827D02*
X61149819Y-22925827D01*
X62102200Y-23830589D02*
X62149819Y-23735351D01*
X62149819Y-23735351D02*
X62149819Y-23544875D01*
X62149819Y-23544875D02*
X62102200Y-23449637D01*
X62102200Y-23449637D02*
X62006961Y-23402018D01*
X62006961Y-23402018D02*
X61626009Y-23402018D01*
X61626009Y-23402018D02*
X61530771Y-23449637D01*
X61530771Y-23449637D02*
X61483152Y-23544875D01*
X61483152Y-23544875D02*
X61483152Y-23735351D01*
X61483152Y-23735351D02*
X61530771Y-23830589D01*
X61530771Y-23830589D02*
X61626009Y-23878208D01*
X61626009Y-23878208D02*
X61721247Y-23878208D01*
X61721247Y-23878208D02*
X61816485Y-23402018D01*
X62054580Y-24306780D02*
X62102200Y-24354399D01*
X62102200Y-24354399D02*
X62149819Y-24306780D01*
X62149819Y-24306780D02*
X62102200Y-24259161D01*
X62102200Y-24259161D02*
X62054580Y-24306780D01*
X62054580Y-24306780D02*
X62149819Y-24306780D01*
X62102200Y-25211541D02*
X62149819Y-25116303D01*
X62149819Y-25116303D02*
X62149819Y-24925827D01*
X62149819Y-24925827D02*
X62102200Y-24830589D01*
X62102200Y-24830589D02*
X62054580Y-24782970D01*
X62054580Y-24782970D02*
X61959342Y-24735351D01*
X61959342Y-24735351D02*
X61673628Y-24735351D01*
X61673628Y-24735351D02*
X61578390Y-24782970D01*
X61578390Y-24782970D02*
X61530771Y-24830589D01*
X61530771Y-24830589D02*
X61483152Y-24925827D01*
X61483152Y-24925827D02*
X61483152Y-25116303D01*
X61483152Y-25116303D02*
X61530771Y-25211541D01*
X62149819Y-25782970D02*
X62102200Y-25687732D01*
X62102200Y-25687732D02*
X62054580Y-25640113D01*
X62054580Y-25640113D02*
X61959342Y-25592494D01*
X61959342Y-25592494D02*
X61673628Y-25592494D01*
X61673628Y-25592494D02*
X61578390Y-25640113D01*
X61578390Y-25640113D02*
X61530771Y-25687732D01*
X61530771Y-25687732D02*
X61483152Y-25782970D01*
X61483152Y-25782970D02*
X61483152Y-25925827D01*
X61483152Y-25925827D02*
X61530771Y-26021065D01*
X61530771Y-26021065D02*
X61578390Y-26068684D01*
X61578390Y-26068684D02*
X61673628Y-26116303D01*
X61673628Y-26116303D02*
X61959342Y-26116303D01*
X61959342Y-26116303D02*
X62054580Y-26068684D01*
X62054580Y-26068684D02*
X62102200Y-26021065D01*
X62102200Y-26021065D02*
X62149819Y-25925827D01*
X62149819Y-25925827D02*
X62149819Y-25782970D01*
X62149819Y-26544875D02*
X61483152Y-26544875D01*
X61578390Y-26544875D02*
X61530771Y-26592494D01*
X61530771Y-26592494D02*
X61483152Y-26687732D01*
X61483152Y-26687732D02*
X61483152Y-26830589D01*
X61483152Y-26830589D02*
X61530771Y-26925827D01*
X61530771Y-26925827D02*
X61626009Y-26973446D01*
X61626009Y-26973446D02*
X62149819Y-26973446D01*
X61626009Y-26973446D02*
X61530771Y-27021065D01*
X61530771Y-27021065D02*
X61483152Y-27116303D01*
X61483152Y-27116303D02*
X61483152Y-27259160D01*
X61483152Y-27259160D02*
X61530771Y-27354399D01*
X61530771Y-27354399D02*
X61626009Y-27402018D01*
X61626009Y-27402018D02*
X62149819Y-27402018D01*
X-54951064Y7143800D02*
X-55065350Y7105704D01*
X-55065350Y7105704D02*
X-55255826Y7105704D01*
X-55255826Y7105704D02*
X-55332017Y7143800D01*
X-55332017Y7143800D02*
X-55370112Y7181895D01*
X-55370112Y7181895D02*
X-55408207Y7258085D01*
X-55408207Y7258085D02*
X-55408207Y7334276D01*
X-55408207Y7334276D02*
X-55370112Y7410466D01*
X-55370112Y7410466D02*
X-55332017Y7448561D01*
X-55332017Y7448561D02*
X-55255826Y7486657D01*
X-55255826Y7486657D02*
X-55103445Y7524752D01*
X-55103445Y7524752D02*
X-55027255Y7562847D01*
X-55027255Y7562847D02*
X-54989160Y7600942D01*
X-54989160Y7600942D02*
X-54951064Y7677133D01*
X-54951064Y7677133D02*
X-54951064Y7753323D01*
X-54951064Y7753323D02*
X-54989160Y7829514D01*
X-54989160Y7829514D02*
X-55027255Y7867609D01*
X-55027255Y7867609D02*
X-55103445Y7905704D01*
X-55103445Y7905704D02*
X-55293922Y7905704D01*
X-55293922Y7905704D02*
X-55408207Y7867609D01*
X-56208208Y7181895D02*
X-56170112Y7143800D01*
X-56170112Y7143800D02*
X-56055827Y7105704D01*
X-56055827Y7105704D02*
X-55979636Y7105704D01*
X-55979636Y7105704D02*
X-55865350Y7143800D01*
X-55865350Y7143800D02*
X-55789160Y7219990D01*
X-55789160Y7219990D02*
X-55751065Y7296180D01*
X-55751065Y7296180D02*
X-55712969Y7448561D01*
X-55712969Y7448561D02*
X-55712969Y7562847D01*
X-55712969Y7562847D02*
X-55751065Y7715228D01*
X-55751065Y7715228D02*
X-55789160Y7791419D01*
X-55789160Y7791419D02*
X-55865350Y7867609D01*
X-55865350Y7867609D02*
X-55979636Y7905704D01*
X-55979636Y7905704D02*
X-56055827Y7905704D01*
X-56055827Y7905704D02*
X-56170112Y7867609D01*
X-56170112Y7867609D02*
X-56208208Y7829514D01*
X-56932017Y7105704D02*
X-56551065Y7105704D01*
X-56551065Y7105704D02*
X-56551065Y7905704D01*
X51182390Y8991792D02*
X51144295Y9067982D01*
X51144295Y9067982D02*
X51144295Y9182268D01*
X51144295Y9182268D02*
X51182390Y9296554D01*
X51182390Y9296554D02*
X51258580Y9372744D01*
X51258580Y9372744D02*
X51334771Y9410839D01*
X51334771Y9410839D02*
X51487152Y9448935D01*
X51487152Y9448935D02*
X51601438Y9448935D01*
X51601438Y9448935D02*
X51753819Y9410839D01*
X51753819Y9410839D02*
X51830009Y9372744D01*
X51830009Y9372744D02*
X51906200Y9296554D01*
X51906200Y9296554D02*
X51944295Y9182268D01*
X51944295Y9182268D02*
X51944295Y9106077D01*
X51944295Y9106077D02*
X51906200Y8991792D01*
X51906200Y8991792D02*
X51868104Y8953696D01*
X51868104Y8953696D02*
X51601438Y8953696D01*
X51601438Y8953696D02*
X51601438Y9106077D01*
X51944295Y8610839D02*
X51144295Y8610839D01*
X51144295Y8610839D02*
X51944295Y8153696D01*
X51944295Y8153696D02*
X51144295Y8153696D01*
X51944295Y7772744D02*
X51144295Y7772744D01*
X51144295Y7772744D02*
X51144295Y7582268D01*
X51144295Y7582268D02*
X51182390Y7467982D01*
X51182390Y7467982D02*
X51258580Y7391792D01*
X51258580Y7391792D02*
X51334771Y7353697D01*
X51334771Y7353697D02*
X51487152Y7315601D01*
X51487152Y7315601D02*
X51601438Y7315601D01*
X51601438Y7315601D02*
X51753819Y7353697D01*
X51753819Y7353697D02*
X51830009Y7391792D01*
X51830009Y7391792D02*
X51906200Y7467982D01*
X51906200Y7467982D02*
X51944295Y7582268D01*
X51944295Y7582268D02*
X51944295Y7772744D01*
X-52658207Y-7132390D02*
X-52582017Y-7094295D01*
X-52582017Y-7094295D02*
X-52467731Y-7094295D01*
X-52467731Y-7094295D02*
X-52353445Y-7132390D01*
X-52353445Y-7132390D02*
X-52277255Y-7208580D01*
X-52277255Y-7208580D02*
X-52239160Y-7284771D01*
X-52239160Y-7284771D02*
X-52201064Y-7437152D01*
X-52201064Y-7437152D02*
X-52201064Y-7551438D01*
X-52201064Y-7551438D02*
X-52239160Y-7703819D01*
X-52239160Y-7703819D02*
X-52277255Y-7780009D01*
X-52277255Y-7780009D02*
X-52353445Y-7856200D01*
X-52353445Y-7856200D02*
X-52467731Y-7894295D01*
X-52467731Y-7894295D02*
X-52543922Y-7894295D01*
X-52543922Y-7894295D02*
X-52658207Y-7856200D01*
X-52658207Y-7856200D02*
X-52696303Y-7818104D01*
X-52696303Y-7818104D02*
X-52696303Y-7551438D01*
X-52696303Y-7551438D02*
X-52543922Y-7551438D01*
X-53039160Y-7894295D02*
X-53039160Y-7094295D01*
X-53039160Y-7094295D02*
X-53496303Y-7894295D01*
X-53496303Y-7894295D02*
X-53496303Y-7094295D01*
X-53877255Y-7894295D02*
X-53877255Y-7094295D01*
X-53877255Y-7094295D02*
X-54067731Y-7094295D01*
X-54067731Y-7094295D02*
X-54182017Y-7132390D01*
X-54182017Y-7132390D02*
X-54258207Y-7208580D01*
X-54258207Y-7208580D02*
X-54296302Y-7284771D01*
X-54296302Y-7284771D02*
X-54334398Y-7437152D01*
X-54334398Y-7437152D02*
X-54334398Y-7551438D01*
X-54334398Y-7551438D02*
X-54296302Y-7703819D01*
X-54296302Y-7703819D02*
X-54258207Y-7780009D01*
X-54258207Y-7780009D02*
X-54182017Y-7856200D01*
X-54182017Y-7856200D02*
X-54067731Y-7894295D01*
X-54067731Y-7894295D02*
X-53877255Y-7894295D01*
X-57374874Y7905704D02*
X-57641541Y7105704D01*
X-57641541Y7105704D02*
X-57908207Y7905704D01*
X-58632017Y7181895D02*
X-58593921Y7143800D01*
X-58593921Y7143800D02*
X-58479636Y7105704D01*
X-58479636Y7105704D02*
X-58403445Y7105704D01*
X-58403445Y7105704D02*
X-58289159Y7143800D01*
X-58289159Y7143800D02*
X-58212969Y7219990D01*
X-58212969Y7219990D02*
X-58174874Y7296180D01*
X-58174874Y7296180D02*
X-58136778Y7448561D01*
X-58136778Y7448561D02*
X-58136778Y7562847D01*
X-58136778Y7562847D02*
X-58174874Y7715228D01*
X-58174874Y7715228D02*
X-58212969Y7791419D01*
X-58212969Y7791419D02*
X-58289159Y7867609D01*
X-58289159Y7867609D02*
X-58403445Y7905704D01*
X-58403445Y7905704D02*
X-58479636Y7905704D01*
X-58479636Y7905704D02*
X-58593921Y7867609D01*
X-58593921Y7867609D02*
X-58632017Y7829514D01*
X-59432017Y7181895D02*
X-59393921Y7143800D01*
X-59393921Y7143800D02*
X-59279636Y7105704D01*
X-59279636Y7105704D02*
X-59203445Y7105704D01*
X-59203445Y7105704D02*
X-59089159Y7143800D01*
X-59089159Y7143800D02*
X-59012969Y7219990D01*
X-59012969Y7219990D02*
X-58974874Y7296180D01*
X-58974874Y7296180D02*
X-58936778Y7448561D01*
X-58936778Y7448561D02*
X-58936778Y7562847D01*
X-58936778Y7562847D02*
X-58974874Y7715228D01*
X-58974874Y7715228D02*
X-59012969Y7791419D01*
X-59012969Y7791419D02*
X-59089159Y7867609D01*
X-59089159Y7867609D02*
X-59203445Y7905704D01*
X-59203445Y7905704D02*
X-59279636Y7905704D01*
X-59279636Y7905704D02*
X-59393921Y7867609D01*
X-59393921Y7867609D02*
X-59432017Y7829514D01*
X-61292561Y-26680588D02*
X-61340180Y-26585350D01*
X-61340180Y-26585350D02*
X-61340180Y-26442493D01*
X-61340180Y-26442493D02*
X-61292561Y-26299636D01*
X-61292561Y-26299636D02*
X-61197323Y-26204398D01*
X-61197323Y-26204398D02*
X-61102085Y-26156779D01*
X-61102085Y-26156779D02*
X-60911609Y-26109160D01*
X-60911609Y-26109160D02*
X-60768752Y-26109160D01*
X-60768752Y-26109160D02*
X-60578276Y-26156779D01*
X-60578276Y-26156779D02*
X-60483038Y-26204398D01*
X-60483038Y-26204398D02*
X-60387800Y-26299636D01*
X-60387800Y-26299636D02*
X-60340180Y-26442493D01*
X-60340180Y-26442493D02*
X-60340180Y-26537731D01*
X-60340180Y-26537731D02*
X-60387800Y-26680588D01*
X-60387800Y-26680588D02*
X-60435419Y-26728207D01*
X-60435419Y-26728207D02*
X-60768752Y-26728207D01*
X-60768752Y-26728207D02*
X-60768752Y-26537731D01*
X-60340180Y-27156779D02*
X-61340180Y-27156779D01*
X-61340180Y-27156779D02*
X-60340180Y-27728207D01*
X-60340180Y-27728207D02*
X-61340180Y-27728207D01*
X-60340180Y-28204398D02*
X-61340180Y-28204398D01*
X-61340180Y-28204398D02*
X-61340180Y-28442493D01*
X-61340180Y-28442493D02*
X-61292561Y-28585350D01*
X-61292561Y-28585350D02*
X-61197323Y-28680588D01*
X-61197323Y-28680588D02*
X-61102085Y-28728207D01*
X-61102085Y-28728207D02*
X-60911609Y-28775826D01*
X-60911609Y-28775826D02*
X-60768752Y-28775826D01*
X-60768752Y-28775826D02*
X-60578276Y-28728207D01*
X-60578276Y-28728207D02*
X-60483038Y-28680588D01*
X-60483038Y-28680588D02*
X-60387800Y-28585350D01*
X-60387800Y-28585350D02*
X-60340180Y-28442493D01*
X-60340180Y-28442493D02*
X-60340180Y-28204398D01*
X59506200Y9348935D02*
X59544295Y9234649D01*
X59544295Y9234649D02*
X59544295Y9044173D01*
X59544295Y9044173D02*
X59506200Y8967982D01*
X59506200Y8967982D02*
X59468104Y8929887D01*
X59468104Y8929887D02*
X59391914Y8891792D01*
X59391914Y8891792D02*
X59315723Y8891792D01*
X59315723Y8891792D02*
X59239533Y8929887D01*
X59239533Y8929887D02*
X59201438Y8967982D01*
X59201438Y8967982D02*
X59163342Y9044173D01*
X59163342Y9044173D02*
X59125247Y9196554D01*
X59125247Y9196554D02*
X59087152Y9272744D01*
X59087152Y9272744D02*
X59049057Y9310839D01*
X59049057Y9310839D02*
X58972866Y9348935D01*
X58972866Y9348935D02*
X58896676Y9348935D01*
X58896676Y9348935D02*
X58820485Y9310839D01*
X58820485Y9310839D02*
X58782390Y9272744D01*
X58782390Y9272744D02*
X58744295Y9196554D01*
X58744295Y9196554D02*
X58744295Y9006077D01*
X58744295Y9006077D02*
X58782390Y8891792D01*
X59544295Y8548934D02*
X58744295Y8548934D01*
X58744295Y8548934D02*
X58744295Y8358458D01*
X58744295Y8358458D02*
X58782390Y8244172D01*
X58782390Y8244172D02*
X58858580Y8167982D01*
X58858580Y8167982D02*
X58934771Y8129887D01*
X58934771Y8129887D02*
X59087152Y8091791D01*
X59087152Y8091791D02*
X59201438Y8091791D01*
X59201438Y8091791D02*
X59353819Y8129887D01*
X59353819Y8129887D02*
X59430009Y8167982D01*
X59430009Y8167982D02*
X59506200Y8244172D01*
X59506200Y8244172D02*
X59544295Y8358458D01*
X59544295Y8358458D02*
X59544295Y8548934D01*
X59315723Y7787030D02*
X59315723Y7406077D01*
X59544295Y7863220D02*
X58744295Y7596553D01*
X58744295Y7596553D02*
X59544295Y7329887D01*
X-55546779Y25411133D02*
X-56308684Y25411133D01*
D11*
X-40541681Y-17436618D02*
X-39513586Y-17436618D01*
X-39513586Y-17436618D02*
X-39392634Y-17497095D01*
X-39392634Y-17497095D02*
X-39332158Y-17557571D01*
X-39332158Y-17557571D02*
X-39271681Y-17678523D01*
X-39271681Y-17678523D02*
X-39271681Y-17920428D01*
X-39271681Y-17920428D02*
X-39332158Y-18041380D01*
X-39332158Y-18041380D02*
X-39392634Y-18101857D01*
X-39392634Y-18101857D02*
X-39513586Y-18162333D01*
X-39513586Y-18162333D02*
X-40541681Y-18162333D01*
X-39271681Y-19432333D02*
X-39271681Y-18706618D01*
X-39271681Y-19069475D02*
X-40541681Y-19069475D01*
X-40541681Y-19069475D02*
X-40360253Y-18948523D01*
X-40360253Y-18948523D02*
X-40239300Y-18827571D01*
X-40239300Y-18827571D02*
X-40178824Y-18706618D01*
X-40541681Y-19855666D02*
X-40541681Y-20702333D01*
X-40541681Y-20702333D02*
X-39271681Y-20158047D01*
X-26041681Y-17436618D02*
X-25013586Y-17436618D01*
X-25013586Y-17436618D02*
X-24892634Y-17497095D01*
X-24892634Y-17497095D02*
X-24832158Y-17557571D01*
X-24832158Y-17557571D02*
X-24771681Y-17678523D01*
X-24771681Y-17678523D02*
X-24771681Y-17920428D01*
X-24771681Y-17920428D02*
X-24832158Y-18041380D01*
X-24832158Y-18041380D02*
X-24892634Y-18101857D01*
X-24892634Y-18101857D02*
X-25013586Y-18162333D01*
X-25013586Y-18162333D02*
X-26041681Y-18162333D01*
X-24771681Y-19432333D02*
X-24771681Y-18706618D01*
X-24771681Y-19069475D02*
X-26041681Y-19069475D01*
X-26041681Y-19069475D02*
X-25860253Y-18948523D01*
X-25860253Y-18948523D02*
X-25739300Y-18827571D01*
X-25739300Y-18827571D02*
X-25678824Y-18706618D01*
X-26041681Y-20520904D02*
X-26041681Y-20278999D01*
X-26041681Y-20278999D02*
X-25981205Y-20158047D01*
X-25981205Y-20158047D02*
X-25920729Y-20097571D01*
X-25920729Y-20097571D02*
X-25739300Y-19976618D01*
X-25739300Y-19976618D02*
X-25497396Y-19916142D01*
X-25497396Y-19916142D02*
X-25013586Y-19916142D01*
X-25013586Y-19916142D02*
X-24892634Y-19976618D01*
X-24892634Y-19976618D02*
X-24832158Y-20037095D01*
X-24832158Y-20037095D02*
X-24771681Y-20158047D01*
X-24771681Y-20158047D02*
X-24771681Y-20399952D01*
X-24771681Y-20399952D02*
X-24832158Y-20520904D01*
X-24832158Y-20520904D02*
X-24892634Y-20581380D01*
X-24892634Y-20581380D02*
X-25013586Y-20641857D01*
X-25013586Y-20641857D02*
X-25315967Y-20641857D01*
X-25315967Y-20641857D02*
X-25436919Y-20581380D01*
X-25436919Y-20581380D02*
X-25497396Y-20520904D01*
X-25497396Y-20520904D02*
X-25557872Y-20399952D01*
X-25557872Y-20399952D02*
X-25557872Y-20158047D01*
X-25557872Y-20158047D02*
X-25497396Y-20037095D01*
X-25497396Y-20037095D02*
X-25436919Y-19976618D01*
X-25436919Y-19976618D02*
X-25315967Y-19916142D01*
X-11541681Y-17436618D02*
X-10513586Y-17436618D01*
X-10513586Y-17436618D02*
X-10392634Y-17497095D01*
X-10392634Y-17497095D02*
X-10332158Y-17557571D01*
X-10332158Y-17557571D02*
X-10271681Y-17678523D01*
X-10271681Y-17678523D02*
X-10271681Y-17920428D01*
X-10271681Y-17920428D02*
X-10332158Y-18041380D01*
X-10332158Y-18041380D02*
X-10392634Y-18101857D01*
X-10392634Y-18101857D02*
X-10513586Y-18162333D01*
X-10513586Y-18162333D02*
X-11541681Y-18162333D01*
X-10271681Y-19432333D02*
X-10271681Y-18706618D01*
X-10271681Y-19069475D02*
X-11541681Y-19069475D01*
X-11541681Y-19069475D02*
X-11360253Y-18948523D01*
X-11360253Y-18948523D02*
X-11239300Y-18827571D01*
X-11239300Y-18827571D02*
X-11178824Y-18706618D01*
X-11541681Y-20581380D02*
X-11541681Y-19976618D01*
X-11541681Y-19976618D02*
X-10936919Y-19916142D01*
X-10936919Y-19916142D02*
X-10997396Y-19976618D01*
X-10997396Y-19976618D02*
X-11057872Y-20097571D01*
X-11057872Y-20097571D02*
X-11057872Y-20399952D01*
X-11057872Y-20399952D02*
X-10997396Y-20520904D01*
X-10997396Y-20520904D02*
X-10936919Y-20581380D01*
X-10936919Y-20581380D02*
X-10815967Y-20641857D01*
X-10815967Y-20641857D02*
X-10513586Y-20641857D01*
X-10513586Y-20641857D02*
X-10392634Y-20581380D01*
X-10392634Y-20581380D02*
X-10332158Y-20520904D01*
X-10332158Y-20520904D02*
X-10271681Y-20399952D01*
X-10271681Y-20399952D02*
X-10271681Y-20097571D01*
X-10271681Y-20097571D02*
X-10332158Y-19976618D01*
X-10332158Y-19976618D02*
X-10392634Y-19916142D01*
X-38849681Y22641381D02*
X-37821586Y22641381D01*
X-37821586Y22641381D02*
X-37700634Y22580904D01*
X-37700634Y22580904D02*
X-37640158Y22520428D01*
X-37640158Y22520428D02*
X-37579681Y22399476D01*
X-37579681Y22399476D02*
X-37579681Y22157571D01*
X-37579681Y22157571D02*
X-37640158Y22036619D01*
X-37640158Y22036619D02*
X-37700634Y21976142D01*
X-37700634Y21976142D02*
X-37821586Y21915666D01*
X-37821586Y21915666D02*
X-38849681Y21915666D01*
X-37579681Y20645666D02*
X-37579681Y21371381D01*
X-37579681Y21008524D02*
X-38849681Y21008524D01*
X-38849681Y21008524D02*
X-38668253Y21129476D01*
X-38668253Y21129476D02*
X-38547300Y21250428D01*
X-38547300Y21250428D02*
X-38486824Y21371381D01*
X-38426348Y19557095D02*
X-37579681Y19557095D01*
X-38910158Y19859476D02*
X-38003015Y20161857D01*
X-38003015Y20161857D02*
X-38003015Y19375666D01*
X-24349681Y22641381D02*
X-23321586Y22641381D01*
X-23321586Y22641381D02*
X-23200634Y22580904D01*
X-23200634Y22580904D02*
X-23140158Y22520428D01*
X-23140158Y22520428D02*
X-23079681Y22399476D01*
X-23079681Y22399476D02*
X-23079681Y22157571D01*
X-23079681Y22157571D02*
X-23140158Y22036619D01*
X-23140158Y22036619D02*
X-23200634Y21976142D01*
X-23200634Y21976142D02*
X-23321586Y21915666D01*
X-23321586Y21915666D02*
X-24349681Y21915666D01*
X-23079681Y20645666D02*
X-23079681Y21371381D01*
X-23079681Y21008524D02*
X-24349681Y21008524D01*
X-24349681Y21008524D02*
X-24168253Y21129476D01*
X-24168253Y21129476D02*
X-24047300Y21250428D01*
X-24047300Y21250428D02*
X-23986824Y21371381D01*
X-24349681Y20222333D02*
X-24349681Y19436142D01*
X-24349681Y19436142D02*
X-23865872Y19859476D01*
X-23865872Y19859476D02*
X-23865872Y19678047D01*
X-23865872Y19678047D02*
X-23805396Y19557095D01*
X-23805396Y19557095D02*
X-23744919Y19496619D01*
X-23744919Y19496619D02*
X-23623967Y19436142D01*
X-23623967Y19436142D02*
X-23321586Y19436142D01*
X-23321586Y19436142D02*
X-23200634Y19496619D01*
X-23200634Y19496619D02*
X-23140158Y19557095D01*
X-23140158Y19557095D02*
X-23079681Y19678047D01*
X-23079681Y19678047D02*
X-23079681Y20040904D01*
X-23079681Y20040904D02*
X-23140158Y20161857D01*
X-23140158Y20161857D02*
X-23200634Y20222333D01*
X-9849681Y22641381D02*
X-8821586Y22641381D01*
X-8821586Y22641381D02*
X-8700634Y22580904D01*
X-8700634Y22580904D02*
X-8640158Y22520428D01*
X-8640158Y22520428D02*
X-8579681Y22399476D01*
X-8579681Y22399476D02*
X-8579681Y22157571D01*
X-8579681Y22157571D02*
X-8640158Y22036619D01*
X-8640158Y22036619D02*
X-8700634Y21976142D01*
X-8700634Y21976142D02*
X-8821586Y21915666D01*
X-8821586Y21915666D02*
X-9849681Y21915666D01*
X-8579681Y20645666D02*
X-8579681Y21371381D01*
X-8579681Y21008524D02*
X-9849681Y21008524D01*
X-9849681Y21008524D02*
X-9668253Y21129476D01*
X-9668253Y21129476D02*
X-9547300Y21250428D01*
X-9547300Y21250428D02*
X-9486824Y21371381D01*
X-9849681Y19859476D02*
X-9849681Y19738523D01*
X-9849681Y19738523D02*
X-9789205Y19617571D01*
X-9789205Y19617571D02*
X-9728729Y19557095D01*
X-9728729Y19557095D02*
X-9607777Y19496619D01*
X-9607777Y19496619D02*
X-9365872Y19436142D01*
X-9365872Y19436142D02*
X-9063491Y19436142D01*
X-9063491Y19436142D02*
X-8821586Y19496619D01*
X-8821586Y19496619D02*
X-8700634Y19557095D01*
X-8700634Y19557095D02*
X-8640158Y19617571D01*
X-8640158Y19617571D02*
X-8579681Y19738523D01*
X-8579681Y19738523D02*
X-8579681Y19859476D01*
X-8579681Y19859476D02*
X-8640158Y19980428D01*
X-8640158Y19980428D02*
X-8700634Y20040904D01*
X-8700634Y20040904D02*
X-8821586Y20101381D01*
X-8821586Y20101381D02*
X-9063491Y20161857D01*
X-9063491Y20161857D02*
X-9365872Y20161857D01*
X-9365872Y20161857D02*
X-9607777Y20101381D01*
X-9607777Y20101381D02*
X-9728729Y20040904D01*
X-9728729Y20040904D02*
X-9789205Y19980428D01*
X-9789205Y19980428D02*
X-9849681Y19859476D01*
X39150318Y21938119D02*
X40178413Y21938119D01*
X40178413Y21938119D02*
X40299365Y21877642D01*
X40299365Y21877642D02*
X40359842Y21817166D01*
X40359842Y21817166D02*
X40420318Y21696214D01*
X40420318Y21696214D02*
X40420318Y21454309D01*
X40420318Y21454309D02*
X40359842Y21333357D01*
X40359842Y21333357D02*
X40299365Y21272880D01*
X40299365Y21272880D02*
X40178413Y21212404D01*
X40178413Y21212404D02*
X39150318Y21212404D01*
X40420318Y20547166D02*
X40420318Y20305262D01*
X40420318Y20305262D02*
X40359842Y20184309D01*
X40359842Y20184309D02*
X40299365Y20123833D01*
X40299365Y20123833D02*
X40117937Y20002881D01*
X40117937Y20002881D02*
X39876032Y19942404D01*
X39876032Y19942404D02*
X39392222Y19942404D01*
X39392222Y19942404D02*
X39271270Y20002881D01*
X39271270Y20002881D02*
X39210794Y20063357D01*
X39210794Y20063357D02*
X39150318Y20184309D01*
X39150318Y20184309D02*
X39150318Y20426214D01*
X39150318Y20426214D02*
X39210794Y20547166D01*
X39210794Y20547166D02*
X39271270Y20607643D01*
X39271270Y20607643D02*
X39392222Y20668119D01*
X39392222Y20668119D02*
X39694603Y20668119D01*
X39694603Y20668119D02*
X39815556Y20607643D01*
X39815556Y20607643D02*
X39876032Y20547166D01*
X39876032Y20547166D02*
X39936508Y20426214D01*
X39936508Y20426214D02*
X39936508Y20184309D01*
X39936508Y20184309D02*
X39876032Y20063357D01*
X39876032Y20063357D02*
X39815556Y20002881D01*
X39815556Y20002881D02*
X39694603Y19942404D01*
X24650318Y21938119D02*
X25678413Y21938119D01*
X25678413Y21938119D02*
X25799365Y21877642D01*
X25799365Y21877642D02*
X25859842Y21817166D01*
X25859842Y21817166D02*
X25920318Y21696214D01*
X25920318Y21696214D02*
X25920318Y21454309D01*
X25920318Y21454309D02*
X25859842Y21333357D01*
X25859842Y21333357D02*
X25799365Y21272880D01*
X25799365Y21272880D02*
X25678413Y21212404D01*
X25678413Y21212404D02*
X24650318Y21212404D01*
X25194603Y20426214D02*
X25134127Y20547166D01*
X25134127Y20547166D02*
X25073651Y20607643D01*
X25073651Y20607643D02*
X24952699Y20668119D01*
X24952699Y20668119D02*
X24892222Y20668119D01*
X24892222Y20668119D02*
X24771270Y20607643D01*
X24771270Y20607643D02*
X24710794Y20547166D01*
X24710794Y20547166D02*
X24650318Y20426214D01*
X24650318Y20426214D02*
X24650318Y20184309D01*
X24650318Y20184309D02*
X24710794Y20063357D01*
X24710794Y20063357D02*
X24771270Y20002881D01*
X24771270Y20002881D02*
X24892222Y19942404D01*
X24892222Y19942404D02*
X24952699Y19942404D01*
X24952699Y19942404D02*
X25073651Y20002881D01*
X25073651Y20002881D02*
X25134127Y20063357D01*
X25134127Y20063357D02*
X25194603Y20184309D01*
X25194603Y20184309D02*
X25194603Y20426214D01*
X25194603Y20426214D02*
X25255080Y20547166D01*
X25255080Y20547166D02*
X25315556Y20607643D01*
X25315556Y20607643D02*
X25436508Y20668119D01*
X25436508Y20668119D02*
X25678413Y20668119D01*
X25678413Y20668119D02*
X25799365Y20607643D01*
X25799365Y20607643D02*
X25859842Y20547166D01*
X25859842Y20547166D02*
X25920318Y20426214D01*
X25920318Y20426214D02*
X25920318Y20184309D01*
X25920318Y20184309D02*
X25859842Y20063357D01*
X25859842Y20063357D02*
X25799365Y20002881D01*
X25799365Y20002881D02*
X25678413Y19942404D01*
X25678413Y19942404D02*
X25436508Y19942404D01*
X25436508Y19942404D02*
X25315556Y20002881D01*
X25315556Y20002881D02*
X25255080Y20063357D01*
X25255080Y20063357D02*
X25194603Y20184309D01*
X10150318Y22028119D02*
X11178413Y22028119D01*
X11178413Y22028119D02*
X11299365Y21967642D01*
X11299365Y21967642D02*
X11359842Y21907166D01*
X11359842Y21907166D02*
X11420318Y21786214D01*
X11420318Y21786214D02*
X11420318Y21544309D01*
X11420318Y21544309D02*
X11359842Y21423357D01*
X11359842Y21423357D02*
X11299365Y21362880D01*
X11299365Y21362880D02*
X11178413Y21302404D01*
X11178413Y21302404D02*
X10150318Y21302404D01*
X10150318Y20818595D02*
X10150318Y19971928D01*
X10150318Y19971928D02*
X11420318Y20516214D01*
X37458318Y-18139880D02*
X38486413Y-18139880D01*
X38486413Y-18139880D02*
X38607365Y-18200357D01*
X38607365Y-18200357D02*
X38667842Y-18260833D01*
X38667842Y-18260833D02*
X38728318Y-18381785D01*
X38728318Y-18381785D02*
X38728318Y-18623690D01*
X38728318Y-18623690D02*
X38667842Y-18744642D01*
X38667842Y-18744642D02*
X38607365Y-18805119D01*
X38607365Y-18805119D02*
X38486413Y-18865595D01*
X38486413Y-18865595D02*
X37458318Y-18865595D01*
X37458318Y-20014642D02*
X37458318Y-19772737D01*
X37458318Y-19772737D02*
X37518794Y-19651785D01*
X37518794Y-19651785D02*
X37579270Y-19591309D01*
X37579270Y-19591309D02*
X37760699Y-19470356D01*
X37760699Y-19470356D02*
X38002603Y-19409880D01*
X38002603Y-19409880D02*
X38486413Y-19409880D01*
X38486413Y-19409880D02*
X38607365Y-19470356D01*
X38607365Y-19470356D02*
X38667842Y-19530833D01*
X38667842Y-19530833D02*
X38728318Y-19651785D01*
X38728318Y-19651785D02*
X38728318Y-19893690D01*
X38728318Y-19893690D02*
X38667842Y-20014642D01*
X38667842Y-20014642D02*
X38607365Y-20075118D01*
X38607365Y-20075118D02*
X38486413Y-20135595D01*
X38486413Y-20135595D02*
X38184032Y-20135595D01*
X38184032Y-20135595D02*
X38063080Y-20075118D01*
X38063080Y-20075118D02*
X38002603Y-20014642D01*
X38002603Y-20014642D02*
X37942127Y-19893690D01*
X37942127Y-19893690D02*
X37942127Y-19651785D01*
X37942127Y-19651785D02*
X38002603Y-19530833D01*
X38002603Y-19530833D02*
X38063080Y-19470356D01*
X38063080Y-19470356D02*
X38184032Y-19409880D01*
X22958318Y-18139880D02*
X23986413Y-18139880D01*
X23986413Y-18139880D02*
X24107365Y-18200357D01*
X24107365Y-18200357D02*
X24167842Y-18260833D01*
X24167842Y-18260833D02*
X24228318Y-18381785D01*
X24228318Y-18381785D02*
X24228318Y-18623690D01*
X24228318Y-18623690D02*
X24167842Y-18744642D01*
X24167842Y-18744642D02*
X24107365Y-18805119D01*
X24107365Y-18805119D02*
X23986413Y-18865595D01*
X23986413Y-18865595D02*
X22958318Y-18865595D01*
X22958318Y-20075118D02*
X22958318Y-19470356D01*
X22958318Y-19470356D02*
X23563080Y-19409880D01*
X23563080Y-19409880D02*
X23502603Y-19470356D01*
X23502603Y-19470356D02*
X23442127Y-19591309D01*
X23442127Y-19591309D02*
X23442127Y-19893690D01*
X23442127Y-19893690D02*
X23502603Y-20014642D01*
X23502603Y-20014642D02*
X23563080Y-20075118D01*
X23563080Y-20075118D02*
X23684032Y-20135595D01*
X23684032Y-20135595D02*
X23986413Y-20135595D01*
X23986413Y-20135595D02*
X24107365Y-20075118D01*
X24107365Y-20075118D02*
X24167842Y-20014642D01*
X24167842Y-20014642D02*
X24228318Y-19893690D01*
X24228318Y-19893690D02*
X24228318Y-19591309D01*
X24228318Y-19591309D02*
X24167842Y-19470356D01*
X24167842Y-19470356D02*
X24107365Y-19409880D01*
X8458318Y-18049880D02*
X9486413Y-18049880D01*
X9486413Y-18049880D02*
X9607365Y-18110357D01*
X9607365Y-18110357D02*
X9667842Y-18170833D01*
X9667842Y-18170833D02*
X9728318Y-18291785D01*
X9728318Y-18291785D02*
X9728318Y-18533690D01*
X9728318Y-18533690D02*
X9667842Y-18654642D01*
X9667842Y-18654642D02*
X9607365Y-18715119D01*
X9607365Y-18715119D02*
X9486413Y-18775595D01*
X9486413Y-18775595D02*
X8458318Y-18775595D01*
X8881651Y-19924642D02*
X9728318Y-19924642D01*
X8397842Y-19622261D02*
X9304984Y-19319880D01*
X9304984Y-19319880D02*
X9304984Y-20106071D01*
D10*
X-62165180Y27883333D02*
X-61450895Y27883333D01*
X-61450895Y27883333D02*
X-61308038Y27930952D01*
X-61308038Y27930952D02*
X-61212800Y28026190D01*
X-61212800Y28026190D02*
X-61165180Y28169047D01*
X-61165180Y28169047D02*
X-61165180Y28264285D01*
X-62165180Y26978571D02*
X-62165180Y27169047D01*
X-62165180Y27169047D02*
X-62117561Y27264285D01*
X-62117561Y27264285D02*
X-62069942Y27311904D01*
X-62069942Y27311904D02*
X-61927085Y27407142D01*
X-61927085Y27407142D02*
X-61736609Y27454761D01*
X-61736609Y27454761D02*
X-61355657Y27454761D01*
X-61355657Y27454761D02*
X-61260419Y27407142D01*
X-61260419Y27407142D02*
X-61212800Y27359523D01*
X-61212800Y27359523D02*
X-61165180Y27264285D01*
X-61165180Y27264285D02*
X-61165180Y27073809D01*
X-61165180Y27073809D02*
X-61212800Y26978571D01*
X-61212800Y26978571D02*
X-61260419Y26930952D01*
X-61260419Y26930952D02*
X-61355657Y26883333D01*
X-61355657Y26883333D02*
X-61593752Y26883333D01*
X-61593752Y26883333D02*
X-61688990Y26930952D01*
X-61688990Y26930952D02*
X-61736609Y26978571D01*
X-61736609Y26978571D02*
X-61784228Y27073809D01*
X-61784228Y27073809D02*
X-61784228Y27264285D01*
X-61784228Y27264285D02*
X-61736609Y27359523D01*
X-61736609Y27359523D02*
X-61688990Y27407142D01*
X-61688990Y27407142D02*
X-61593752Y27454761D01*
X61204819Y5733333D02*
X61919104Y5733333D01*
X61919104Y5733333D02*
X62061961Y5780952D01*
X62061961Y5780952D02*
X62157200Y5876190D01*
X62157200Y5876190D02*
X62204819Y6019047D01*
X62204819Y6019047D02*
X62204819Y6114285D01*
X61538152Y4828571D02*
X62204819Y4828571D01*
X61157200Y5066666D02*
X61871485Y5304761D01*
X61871485Y5304761D02*
X61871485Y4685714D01*
X-51495180Y-5266666D02*
X-50780895Y-5266666D01*
X-50780895Y-5266666D02*
X-50638038Y-5219047D01*
X-50638038Y-5219047D02*
X-50542800Y-5123809D01*
X-50542800Y-5123809D02*
X-50495180Y-4980952D01*
X-50495180Y-4980952D02*
X-50495180Y-4885714D01*
X-50495180Y-6266666D02*
X-50495180Y-5695238D01*
X-50495180Y-5980952D02*
X-51495180Y-5980952D01*
X-51495180Y-5980952D02*
X-51352323Y-5885714D01*
X-51352323Y-5885714D02*
X-51257085Y-5790476D01*
X-51257085Y-5790476D02*
X-51209466Y-5695238D01*
X-51245180Y5833333D02*
X-50530895Y5833333D01*
X-50530895Y5833333D02*
X-50388038Y5880952D01*
X-50388038Y5880952D02*
X-50292800Y5976190D01*
X-50292800Y5976190D02*
X-50245180Y6119047D01*
X-50245180Y6119047D02*
X-50245180Y6214285D01*
X-51149942Y5404761D02*
X-51197561Y5357142D01*
X-51197561Y5357142D02*
X-51245180Y5261904D01*
X-51245180Y5261904D02*
X-51245180Y5023809D01*
X-51245180Y5023809D02*
X-51197561Y4928571D01*
X-51197561Y4928571D02*
X-51149942Y4880952D01*
X-51149942Y4880952D02*
X-51054704Y4833333D01*
X-51054704Y4833333D02*
X-50959466Y4833333D01*
X-50959466Y4833333D02*
X-50816609Y4880952D01*
X-50816609Y4880952D02*
X-50245180Y5452380D01*
X-50245180Y5452380D02*
X-50245180Y4833333D01*
X-62815180Y-27096666D02*
X-62100895Y-27096666D01*
X-62100895Y-27096666D02*
X-61958038Y-27049047D01*
X-61958038Y-27049047D02*
X-61862800Y-26953809D01*
X-61862800Y-26953809D02*
X-61815180Y-26810952D01*
X-61815180Y-26810952D02*
X-61815180Y-26715714D01*
X-62815180Y-27477619D02*
X-62815180Y-28144285D01*
X-62815180Y-28144285D02*
X-61815180Y-27715714D01*
D12*
%TO.C,U17*%
X-33000000Y-15735000D02*
X-33000000Y-25265000D01*
X-45000000Y-25265000D02*
X-45000000Y-15735000D01*
X-33000000Y-25265000D02*
X-45000000Y-25265000D01*
X-41395000Y-15735000D02*
X-45000000Y-15735000D01*
X-36605000Y-15735000D02*
X-33000000Y-15735000D01*
X-39016000Y-25871000D02*
G75*
G02*
X-39190000Y-25871000I-87000J0D01*
G01*
X-39190000Y-25871000D02*
G75*
G02*
X-39016000Y-25871000I87000J0D01*
G01*
%TO.C,U16*%
X-18500000Y-15735000D02*
X-18500000Y-25265000D01*
X-30500000Y-25265000D02*
X-30500000Y-15735000D01*
X-18500000Y-25265000D02*
X-30500000Y-25265000D01*
X-26895000Y-15735000D02*
X-30500000Y-15735000D01*
X-22105000Y-15735000D02*
X-18500000Y-15735000D01*
X-24516000Y-25871000D02*
G75*
G02*
X-24690000Y-25871000I-87000J0D01*
G01*
X-24690000Y-25871000D02*
G75*
G02*
X-24516000Y-25871000I87000J0D01*
G01*
%TO.C,U15*%
X-4000000Y-15735000D02*
X-4000000Y-25265000D01*
X-16000000Y-25265000D02*
X-16000000Y-15735000D01*
X-4000000Y-25265000D02*
X-16000000Y-25265000D01*
X-12395000Y-15735000D02*
X-16000000Y-15735000D01*
X-7605000Y-15735000D02*
X-4000000Y-15735000D01*
X-10016000Y-25871000D02*
G75*
G02*
X-10190000Y-25871000I-87000J0D01*
G01*
X-10190000Y-25871000D02*
G75*
G02*
X-10016000Y-25871000I87000J0D01*
G01*
%TO.C,U14*%
X-45000000Y17795000D02*
X-45000000Y27325000D01*
X-33000000Y27325000D02*
X-33000000Y17795000D01*
X-45000000Y27325000D02*
X-33000000Y27325000D01*
X-36605000Y17795000D02*
X-33000000Y17795000D01*
X-41395000Y17795000D02*
X-45000000Y17795000D01*
X-38810000Y27931000D02*
G75*
G02*
X-38984000Y27931000I-87000J0D01*
G01*
X-38984000Y27931000D02*
G75*
G02*
X-38810000Y27931000I87000J0D01*
G01*
%TO.C,U13*%
X-30500000Y17795000D02*
X-30500000Y27325000D01*
X-18500000Y27325000D02*
X-18500000Y17795000D01*
X-30500000Y27325000D02*
X-18500000Y27325000D01*
X-22105000Y17795000D02*
X-18500000Y17795000D01*
X-26895000Y17795000D02*
X-30500000Y17795000D01*
X-24310000Y27931000D02*
G75*
G02*
X-24484000Y27931000I-87000J0D01*
G01*
X-24484000Y27931000D02*
G75*
G02*
X-24310000Y27931000I87000J0D01*
G01*
%TO.C,U10*%
X-16000000Y17795000D02*
X-16000000Y27325000D01*
X-4000000Y27325000D02*
X-4000000Y17795000D01*
X-16000000Y27325000D02*
X-4000000Y27325000D01*
X-7605000Y17795000D02*
X-4000000Y17795000D01*
X-12395000Y17795000D02*
X-16000000Y17795000D01*
X-9810000Y27931000D02*
G75*
G02*
X-9984000Y27931000I-87000J0D01*
G01*
X-9984000Y27931000D02*
G75*
G02*
X-9810000Y27931000I87000J0D01*
G01*
%TO.C,U9*%
X33000000Y17696500D02*
X33000000Y27226500D01*
X45000000Y27226500D02*
X45000000Y17696500D01*
X33000000Y27226500D02*
X45000000Y27226500D01*
X41395000Y17696500D02*
X45000000Y17696500D01*
X36605000Y17696500D02*
X33000000Y17696500D01*
X39190000Y27832500D02*
G75*
G02*
X39016000Y27832500I-87000J0D01*
G01*
X39016000Y27832500D02*
G75*
G02*
X39190000Y27832500I87000J0D01*
G01*
%TO.C,U8*%
X18500000Y17696500D02*
X18500000Y27226500D01*
X30500000Y27226500D02*
X30500000Y17696500D01*
X18500000Y27226500D02*
X30500000Y27226500D01*
X26895000Y17696500D02*
X30500000Y17696500D01*
X22105000Y17696500D02*
X18500000Y17696500D01*
X24690000Y27832500D02*
G75*
G02*
X24516000Y27832500I-87000J0D01*
G01*
X24516000Y27832500D02*
G75*
G02*
X24690000Y27832500I87000J0D01*
G01*
%TO.C,U7*%
X4000000Y17786500D02*
X4000000Y27316500D01*
X16000000Y27316500D02*
X16000000Y17786500D01*
X4000000Y27316500D02*
X16000000Y27316500D01*
X12395000Y17786500D02*
X16000000Y17786500D01*
X7605000Y17786500D02*
X4000000Y17786500D01*
X10190000Y27922500D02*
G75*
G02*
X10016000Y27922500I-87000J0D01*
G01*
X10016000Y27922500D02*
G75*
G02*
X10190000Y27922500I87000J0D01*
G01*
%TO.C,U6*%
X45000000Y-15833500D02*
X45000000Y-25363500D01*
X33000000Y-25363500D02*
X33000000Y-15833500D01*
X45000000Y-25363500D02*
X33000000Y-25363500D01*
X36605000Y-15833500D02*
X33000000Y-15833500D01*
X41395000Y-15833500D02*
X45000000Y-15833500D01*
X38984000Y-25969500D02*
G75*
G02*
X38810000Y-25969500I-87000J0D01*
G01*
X38810000Y-25969500D02*
G75*
G02*
X38984000Y-25969500I87000J0D01*
G01*
%TO.C,U5*%
X30500000Y-15833500D02*
X30500000Y-25363500D01*
X18500000Y-25363500D02*
X18500000Y-15833500D01*
X30500000Y-25363500D02*
X18500000Y-25363500D01*
X22105000Y-15833500D02*
X18500000Y-15833500D01*
X26895000Y-15833500D02*
X30500000Y-15833500D01*
X24484000Y-25969500D02*
G75*
G02*
X24310000Y-25969500I-87000J0D01*
G01*
X24310000Y-25969500D02*
G75*
G02*
X24484000Y-25969500I87000J0D01*
G01*
%TO.C,U4*%
X16000000Y-15743500D02*
X16000000Y-25273500D01*
X4000000Y-25273500D02*
X4000000Y-15743500D01*
X16000000Y-25273500D02*
X4000000Y-25273500D01*
X7605000Y-15743500D02*
X4000000Y-15743500D01*
X12395000Y-15743500D02*
X16000000Y-15743500D01*
X9984000Y-25879500D02*
G75*
G02*
X9810000Y-25879500I-87000J0D01*
G01*
X9810000Y-25879500D02*
G75*
G02*
X9984000Y-25879500I87000J0D01*
G01*
D13*
%TO.C,U12*%
X-5619000Y25947601D02*
G75*
G02*
X-6381000Y25947601I-381000J0D01*
G01*
X-6381000Y25947601D02*
G75*
G02*
X-5619000Y25947601I381000J0D01*
G01*
D14*
%TO.C,G\u002A\u002A\u002A*%
G36*
X58848750Y-10126789D02*
G01*
X59181938Y-10126790D01*
X59247995Y-10203585D01*
X59314052Y-10280380D01*
X59314052Y-17120000D01*
X59314052Y-23959620D01*
X59247995Y-24036416D01*
X59181938Y-24113210D01*
X54880000Y-24113211D01*
X50578062Y-24113210D01*
X50512005Y-24036416D01*
X50445948Y-23959620D01*
X50445948Y-23661595D01*
X50911250Y-23661595D01*
X52348211Y-23661595D01*
X52465011Y-23661569D01*
X52733122Y-23661309D01*
X52981893Y-23660789D01*
X53206267Y-23660039D01*
X53401187Y-23659085D01*
X53561595Y-23657955D01*
X53682433Y-23656677D01*
X53758645Y-23655277D01*
X53785172Y-23653784D01*
X53784383Y-23652674D01*
X53754125Y-23634219D01*
X53688782Y-23599604D01*
X53600420Y-23555260D01*
X53292573Y-23391404D01*
X52837754Y-23099417D01*
X52410898Y-22763196D01*
X52015643Y-22386329D01*
X51655627Y-21972399D01*
X51334488Y-21524993D01*
X51055864Y-21047695D01*
X50913086Y-20773987D01*
X50912169Y-22217791D01*
X50911250Y-23661595D01*
X50445948Y-23661595D01*
X50445948Y-18762241D01*
X50908532Y-18762241D01*
X50913086Y-18810244D01*
X50924761Y-18933308D01*
X50925360Y-18939566D01*
X50963167Y-19236853D01*
X51019010Y-19546398D01*
X51089051Y-19851469D01*
X51169461Y-20135332D01*
X51256407Y-20381253D01*
X51323893Y-20540535D01*
X51520016Y-20936752D01*
X51751137Y-21326375D01*
X52006134Y-21689992D01*
X52034116Y-21725666D01*
X52154168Y-21866458D01*
X52300710Y-22024558D01*
X52461644Y-22187930D01*
X52624869Y-22344528D01*
X52778285Y-22482315D01*
X52909792Y-22589245D01*
X52912218Y-22591066D01*
X53297671Y-22853981D01*
X53707971Y-23085305D01*
X54133923Y-23281260D01*
X54566330Y-23438062D01*
X54995997Y-23551930D01*
X55413729Y-23619081D01*
X55482500Y-23626400D01*
X55599224Y-23639374D01*
X55694278Y-23650560D01*
X55810604Y-23664949D01*
X55810604Y-23661595D01*
X57717967Y-23661595D01*
X58283358Y-23661595D01*
X58848750Y-23661595D01*
X58848750Y-23096203D01*
X58848750Y-22530812D01*
X58706648Y-22733542D01*
X58663468Y-22792070D01*
X58565193Y-22913630D01*
X58453103Y-23041747D01*
X58343986Y-23156831D01*
X58281527Y-23217310D01*
X58156652Y-23330172D01*
X58029845Y-23436495D01*
X57920697Y-23519492D01*
X57717967Y-23661595D01*
X55810604Y-23661595D01*
X55810604Y-22250284D01*
X56275904Y-22250284D01*
X56275905Y-23658153D01*
X56378545Y-23643514D01*
X56760667Y-23565848D01*
X57127164Y-23440357D01*
X57466373Y-23267914D01*
X57780363Y-23047461D01*
X58071200Y-22777942D01*
X58135802Y-22707916D01*
X58378600Y-22397987D01*
X58572181Y-22066586D01*
X58715365Y-21716010D01*
X58806966Y-21348553D01*
X58812183Y-21317603D01*
X58830793Y-21187969D01*
X58843835Y-21066391D01*
X58848750Y-20975682D01*
X58848750Y-20842414D01*
X57562328Y-20842414D01*
X56275905Y-20842414D01*
X56275904Y-22250284D01*
X55810604Y-22250284D01*
X55810604Y-21213595D01*
X55810604Y-19947510D01*
X56339099Y-19947510D01*
X56345200Y-19973394D01*
X56397279Y-20075437D01*
X56491789Y-20181099D01*
X56613672Y-20275025D01*
X56749264Y-20346774D01*
X56884903Y-20385902D01*
X56987543Y-20401041D01*
X56987543Y-20156425D01*
X56987543Y-19911810D01*
X56657250Y-19911810D01*
X56656259Y-19911810D01*
X56517825Y-19912108D01*
X56425486Y-19914130D01*
X56370648Y-19919574D01*
X56344717Y-19930135D01*
X56339099Y-19947510D01*
X55810604Y-19947510D01*
X55810604Y-19585831D01*
X57452845Y-19585831D01*
X57452845Y-20404483D01*
X57562328Y-20404483D01*
X58150797Y-20404483D01*
X58848750Y-20404483D01*
X58847283Y-20274472D01*
X58838584Y-20182496D01*
X58810456Y-20042870D01*
X58768278Y-19890193D01*
X58717598Y-19744148D01*
X58663969Y-19624418D01*
X58658272Y-19613892D01*
X58570496Y-19476479D01*
X58458744Y-19333372D01*
X58338594Y-19203063D01*
X58225622Y-19104047D01*
X58095071Y-19017840D01*
X57924537Y-18925755D01*
X57751175Y-18849952D01*
X57596541Y-18800823D01*
X57452846Y-18767179D01*
X57452845Y-19585831D01*
X55810604Y-19585831D01*
X55810604Y-19415330D01*
X56324845Y-19415330D01*
X56328011Y-19454290D01*
X56356595Y-19461492D01*
X56429878Y-19466966D01*
X56535421Y-19469289D01*
X56656259Y-19468030D01*
X56661402Y-19467976D01*
X56973858Y-19460194D01*
X56981560Y-19122786D01*
X56989262Y-18785379D01*
X56926819Y-18804693D01*
X56912161Y-18809393D01*
X56726918Y-18899072D01*
X56555545Y-19039461D01*
X56520089Y-19078236D01*
X56453566Y-19165131D01*
X56394360Y-19258468D01*
X56349207Y-19345961D01*
X56324845Y-19415330D01*
X55810604Y-19415330D01*
X55810604Y-18764466D01*
X58533987Y-18764466D01*
X58619280Y-18838623D01*
X58625946Y-18844477D01*
X58704376Y-18919057D01*
X58775796Y-18994892D01*
X58847020Y-19077004D01*
X58847885Y-18919623D01*
X58848750Y-18762241D01*
X58691369Y-18763354D01*
X58533987Y-18764466D01*
X55810604Y-18764466D01*
X55810604Y-18762241D01*
X53359568Y-18762241D01*
X50908532Y-18762241D01*
X50445948Y-18762241D01*
X50445948Y-18296940D01*
X50911250Y-18296940D01*
X53359568Y-18296940D01*
X54880000Y-18296940D01*
X56989262Y-18296940D01*
X57452845Y-18296940D01*
X58848750Y-18296940D01*
X58848750Y-14433428D01*
X58848750Y-10569919D01*
X58475040Y-10587841D01*
X58187706Y-10607598D01*
X57659323Y-10672346D01*
X57127384Y-10771810D01*
X56609454Y-10902457D01*
X56123100Y-11060757D01*
X55687446Y-11239155D01*
X55234108Y-11459468D01*
X54783520Y-11711364D01*
X54350383Y-11986618D01*
X53949397Y-12277004D01*
X53868321Y-12341973D01*
X53689216Y-12495669D01*
X53492941Y-12674970D01*
X53291001Y-12868711D01*
X53094902Y-13065733D01*
X52916149Y-13254869D01*
X52766246Y-13424957D01*
X52488510Y-13776042D01*
X52126145Y-14305743D01*
X51807041Y-14863186D01*
X51533477Y-15443382D01*
X51307739Y-16041335D01*
X51132108Y-16652052D01*
X51008866Y-17270539D01*
X50996823Y-17352627D01*
X50976526Y-17508072D01*
X50956780Y-17677447D01*
X50938983Y-17847126D01*
X50924534Y-18003476D01*
X50914831Y-18132867D01*
X50911273Y-18221670D01*
X50911250Y-18296940D01*
X50445948Y-18296940D01*
X50445948Y-17120000D01*
X50445948Y-13151250D01*
X50911250Y-13151250D01*
X50911257Y-13250674D01*
X50911400Y-13616952D01*
X50911719Y-13966285D01*
X50912201Y-14294893D01*
X50912833Y-14598996D01*
X50913599Y-14874814D01*
X50914489Y-15118569D01*
X50915489Y-15326480D01*
X50916585Y-15494767D01*
X50917763Y-15619652D01*
X50919011Y-15697354D01*
X50920315Y-15724095D01*
X50920449Y-15724067D01*
X50933852Y-15698628D01*
X50962590Y-15632260D01*
X51002526Y-15534824D01*
X51049524Y-15416175D01*
X51084027Y-15329308D01*
X51351994Y-14738435D01*
X51667878Y-14170314D01*
X52028831Y-13627857D01*
X52432001Y-13113971D01*
X52874537Y-12631568D01*
X53353590Y-12183557D01*
X53866308Y-11772846D01*
X54409842Y-11402349D01*
X54981340Y-11074972D01*
X55577953Y-10793625D01*
X55642178Y-10766428D01*
X55774894Y-10710090D01*
X55888341Y-10661752D01*
X55972134Y-10625843D01*
X56015884Y-10606796D01*
X56010534Y-10604127D01*
X55958674Y-10600213D01*
X55855998Y-10596572D01*
X55704886Y-10593228D01*
X55507720Y-10590207D01*
X55266881Y-10587534D01*
X54984749Y-10585233D01*
X54663709Y-10583330D01*
X54306139Y-10581850D01*
X53914422Y-10580817D01*
X53490938Y-10580258D01*
X50911250Y-10578405D01*
X50911250Y-13151250D01*
X50445948Y-13151250D01*
X50445948Y-10280380D01*
X50512005Y-10203585D01*
X50578062Y-10126790D01*
X50911250Y-10126789D01*
X54880000Y-10126789D01*
X58848750Y-10126789D01*
G37*
D15*
%TO.C,J6*%
X-59790000Y28830000D02*
X-59790000Y26170000D01*
X-59790000Y28830000D02*
X-57190000Y28830000D01*
X-59790000Y26170000D02*
X-57190000Y26170000D01*
X-57190000Y28830000D02*
X-57190000Y26170000D01*
X-54590000Y27500000D02*
X-54590000Y26170000D01*
X-54590000Y26170000D02*
X-55920000Y26170000D01*
%TO.C,J4*%
X50220000Y4170000D02*
X50220000Y5500000D01*
X51550000Y4170000D02*
X50220000Y4170000D01*
X52820001Y4170000D02*
X52820001Y6830000D01*
X60500000Y6830000D02*
X52820001Y6830000D01*
X60500000Y4170000D02*
X52820001Y4170000D01*
X60500000Y4170000D02*
X60500000Y6830000D01*
%TO.C,J1*%
X-62330000Y-4170000D02*
X-62330000Y-6830000D01*
X-62330000Y-4170000D02*
X-54650001Y-4170000D01*
X-62330000Y-6830000D02*
X-54650001Y-6830000D01*
X-54650001Y-4170000D02*
X-54650001Y-6830000D01*
X-53380000Y-4170000D02*
X-52050000Y-4170000D01*
X-52050000Y-4170000D02*
X-52050000Y-5500000D01*
%TO.C,J2*%
X-62330000Y4170000D02*
X-62330000Y5500000D01*
X-61000000Y4170000D02*
X-62330000Y4170000D01*
X-59729999Y4170000D02*
X-59729999Y6830000D01*
X-52050000Y6830000D02*
X-59729999Y6830000D01*
X-52050000Y4170000D02*
X-59729999Y4170000D01*
X-52050000Y4170000D02*
X-52050000Y6830000D01*
%TO.C,J7*%
X-59790000Y-26170000D02*
X-58460000Y-26170000D01*
X-59790000Y-27500000D02*
X-59790000Y-26170000D01*
X-57189999Y-28830000D02*
X-57189999Y-26170000D01*
X-54590000Y-26170000D02*
X-57189999Y-26170000D01*
X-54590000Y-28830000D02*
X-57189999Y-28830000D01*
X-54590000Y-28830000D02*
X-54590000Y-26170000D01*
%TD*%
M02*
