%TF.GenerationSoftware,KiCad,Pcbnew,8.0.5*%
%TF.CreationDate,2024-10-22T16:19:58+01:00*%
%TF.ProjectId,V3,56332e6b-6963-4616-945f-706362585858,rev?*%
%TF.SameCoordinates,Original*%
%TF.FileFunction,Legend,Bot*%
%TF.FilePolarity,Positive*%
%FSLAX46Y46*%
G04 Gerber Fmt 4.6, Leading zero omitted, Abs format (unit mm)*
G04 Created by KiCad (PCBNEW 8.0.5) date 2024-10-22 16:19:58*
%MOMM*%
%LPD*%
G01*
G04 APERTURE LIST*
%ADD10C,0.150000*%
%ADD11C,0.254000*%
%ADD12C,0.200000*%
%ADD13C,0.120000*%
%ADD14C,0.508000*%
%ADD15C,0.000000*%
G04 APERTURE END LIST*
D10*
X62324580Y26763792D02*
X62372200Y26811411D01*
X62372200Y26811411D02*
X62419819Y26954268D01*
X62419819Y26954268D02*
X62419819Y27049506D01*
X62419819Y27049506D02*
X62372200Y27192363D01*
X62372200Y27192363D02*
X62276961Y27287601D01*
X62276961Y27287601D02*
X62181723Y27335220D01*
X62181723Y27335220D02*
X61991247Y27382839D01*
X61991247Y27382839D02*
X61848390Y27382839D01*
X61848390Y27382839D02*
X61657914Y27335220D01*
X61657914Y27335220D02*
X61562676Y27287601D01*
X61562676Y27287601D02*
X61467438Y27192363D01*
X61467438Y27192363D02*
X61419819Y27049506D01*
X61419819Y27049506D02*
X61419819Y26954268D01*
X61419819Y26954268D02*
X61467438Y26811411D01*
X61467438Y26811411D02*
X61515057Y26763792D01*
X62419819Y26192363D02*
X62372200Y26287601D01*
X62372200Y26287601D02*
X62324580Y26335220D01*
X62324580Y26335220D02*
X62229342Y26382839D01*
X62229342Y26382839D02*
X61943628Y26382839D01*
X61943628Y26382839D02*
X61848390Y26335220D01*
X61848390Y26335220D02*
X61800771Y26287601D01*
X61800771Y26287601D02*
X61753152Y26192363D01*
X61753152Y26192363D02*
X61753152Y26049506D01*
X61753152Y26049506D02*
X61800771Y25954268D01*
X61800771Y25954268D02*
X61848390Y25906649D01*
X61848390Y25906649D02*
X61943628Y25859030D01*
X61943628Y25859030D02*
X62229342Y25859030D01*
X62229342Y25859030D02*
X62324580Y25906649D01*
X62324580Y25906649D02*
X62372200Y25954268D01*
X62372200Y25954268D02*
X62419819Y26049506D01*
X62419819Y26049506D02*
X62419819Y26192363D01*
X62419819Y25430458D02*
X61753152Y25430458D01*
X61848390Y25430458D02*
X61800771Y25382839D01*
X61800771Y25382839D02*
X61753152Y25287601D01*
X61753152Y25287601D02*
X61753152Y25144744D01*
X61753152Y25144744D02*
X61800771Y25049506D01*
X61800771Y25049506D02*
X61896009Y25001887D01*
X61896009Y25001887D02*
X62419819Y25001887D01*
X61896009Y25001887D02*
X61800771Y24954268D01*
X61800771Y24954268D02*
X61753152Y24859030D01*
X61753152Y24859030D02*
X61753152Y24716173D01*
X61753152Y24716173D02*
X61800771Y24620934D01*
X61800771Y24620934D02*
X61896009Y24573315D01*
X61896009Y24573315D02*
X62419819Y24573315D01*
X61753152Y24097125D02*
X62753152Y24097125D01*
X61800771Y24097125D02*
X61753152Y24001887D01*
X61753152Y24001887D02*
X61753152Y23811411D01*
X61753152Y23811411D02*
X61800771Y23716173D01*
X61800771Y23716173D02*
X61848390Y23668554D01*
X61848390Y23668554D02*
X61943628Y23620935D01*
X61943628Y23620935D02*
X62229342Y23620935D01*
X62229342Y23620935D02*
X62324580Y23668554D01*
X62324580Y23668554D02*
X62372200Y23716173D01*
X62372200Y23716173D02*
X62419819Y23811411D01*
X62419819Y23811411D02*
X62419819Y24001887D01*
X62419819Y24001887D02*
X62372200Y24097125D01*
X62419819Y23049506D02*
X62372200Y23144744D01*
X62372200Y23144744D02*
X62276961Y23192363D01*
X62276961Y23192363D02*
X61419819Y23192363D01*
X62372200Y22287601D02*
X62419819Y22382839D01*
X62419819Y22382839D02*
X62419819Y22573315D01*
X62419819Y22573315D02*
X62372200Y22668553D01*
X62372200Y22668553D02*
X62276961Y22716172D01*
X62276961Y22716172D02*
X61896009Y22716172D01*
X61896009Y22716172D02*
X61800771Y22668553D01*
X61800771Y22668553D02*
X61753152Y22573315D01*
X61753152Y22573315D02*
X61753152Y22382839D01*
X61753152Y22382839D02*
X61800771Y22287601D01*
X61800771Y22287601D02*
X61896009Y22239982D01*
X61896009Y22239982D02*
X61991247Y22239982D01*
X61991247Y22239982D02*
X62086485Y22716172D01*
X62419819Y21906648D02*
X61753152Y21382839D01*
X61753152Y21906648D02*
X62419819Y21382839D01*
X62419819Y21001886D02*
X61753152Y21001886D01*
X61419819Y21001886D02*
X61467438Y21049505D01*
X61467438Y21049505D02*
X61515057Y21001886D01*
X61515057Y21001886D02*
X61467438Y20954267D01*
X61467438Y20954267D02*
X61419819Y21001886D01*
X61419819Y21001886D02*
X61515057Y21001886D01*
X61753152Y20668553D02*
X61753152Y20287601D01*
X61419819Y20525696D02*
X62276961Y20525696D01*
X62276961Y20525696D02*
X62372200Y20478077D01*
X62372200Y20478077D02*
X62419819Y20382839D01*
X62419819Y20382839D02*
X62419819Y20287601D01*
X61753152Y20049505D02*
X62419819Y19811410D01*
X61753152Y19573315D02*
X62419819Y19811410D01*
X62419819Y19811410D02*
X62657914Y19906648D01*
X62657914Y19906648D02*
X62705533Y19954267D01*
X62705533Y19954267D02*
X62753152Y20049505D01*
X62419819Y19192362D02*
X61419819Y19192362D01*
X61419819Y19192362D02*
X62134104Y18859029D01*
X62134104Y18859029D02*
X61419819Y18525696D01*
X61419819Y18525696D02*
X62419819Y18525696D01*
X62419819Y17620934D02*
X61896009Y17620934D01*
X61896009Y17620934D02*
X61800771Y17668553D01*
X61800771Y17668553D02*
X61753152Y17763791D01*
X61753152Y17763791D02*
X61753152Y17954267D01*
X61753152Y17954267D02*
X61800771Y18049505D01*
X62372200Y17620934D02*
X62419819Y17716172D01*
X62419819Y17716172D02*
X62419819Y17954267D01*
X62419819Y17954267D02*
X62372200Y18049505D01*
X62372200Y18049505D02*
X62276961Y18097124D01*
X62276961Y18097124D02*
X62181723Y18097124D01*
X62181723Y18097124D02*
X62086485Y18049505D01*
X62086485Y18049505D02*
X62038866Y17954267D01*
X62038866Y17954267D02*
X62038866Y17716172D01*
X62038866Y17716172D02*
X61991247Y17620934D01*
X62419819Y16716172D02*
X61419819Y16716172D01*
X62372200Y16716172D02*
X62419819Y16811410D01*
X62419819Y16811410D02*
X62419819Y17001886D01*
X62419819Y17001886D02*
X62372200Y17097124D01*
X62372200Y17097124D02*
X62324580Y17144743D01*
X62324580Y17144743D02*
X62229342Y17192362D01*
X62229342Y17192362D02*
X61943628Y17192362D01*
X61943628Y17192362D02*
X61848390Y17144743D01*
X61848390Y17144743D02*
X61800771Y17097124D01*
X61800771Y17097124D02*
X61753152Y17001886D01*
X61753152Y17001886D02*
X61753152Y16811410D01*
X61753152Y16811410D02*
X61800771Y16716172D01*
X62372200Y15859029D02*
X62419819Y15954267D01*
X62419819Y15954267D02*
X62419819Y16144743D01*
X62419819Y16144743D02*
X62372200Y16239981D01*
X62372200Y16239981D02*
X62276961Y16287600D01*
X62276961Y16287600D02*
X61896009Y16287600D01*
X61896009Y16287600D02*
X61800771Y16239981D01*
X61800771Y16239981D02*
X61753152Y16144743D01*
X61753152Y16144743D02*
X61753152Y15954267D01*
X61753152Y15954267D02*
X61800771Y15859029D01*
X61800771Y15859029D02*
X61896009Y15811410D01*
X61896009Y15811410D02*
X61991247Y15811410D01*
X61991247Y15811410D02*
X62086485Y16287600D01*
X62372200Y15430457D02*
X62419819Y15287600D01*
X62419819Y15287600D02*
X62419819Y15049505D01*
X62419819Y15049505D02*
X62372200Y14954267D01*
X62372200Y14954267D02*
X62324580Y14906648D01*
X62324580Y14906648D02*
X62229342Y14859029D01*
X62229342Y14859029D02*
X62134104Y14859029D01*
X62134104Y14859029D02*
X62038866Y14906648D01*
X62038866Y14906648D02*
X61991247Y14954267D01*
X61991247Y14954267D02*
X61943628Y15049505D01*
X61943628Y15049505D02*
X61896009Y15239981D01*
X61896009Y15239981D02*
X61848390Y15335219D01*
X61848390Y15335219D02*
X61800771Y15382838D01*
X61800771Y15382838D02*
X61705533Y15430457D01*
X61705533Y15430457D02*
X61610295Y15430457D01*
X61610295Y15430457D02*
X61515057Y15382838D01*
X61515057Y15382838D02*
X61467438Y15335219D01*
X61467438Y15335219D02*
X61419819Y15239981D01*
X61419819Y15239981D02*
X61419819Y15001886D01*
X61419819Y15001886D02*
X61467438Y14859029D01*
X62419819Y14430457D02*
X61753152Y14430457D01*
X61419819Y14430457D02*
X61467438Y14478076D01*
X61467438Y14478076D02*
X61515057Y14430457D01*
X61515057Y14430457D02*
X61467438Y14382838D01*
X61467438Y14382838D02*
X61419819Y14430457D01*
X61419819Y14430457D02*
X61515057Y14430457D01*
X62419819Y13954267D02*
X61753152Y13954267D01*
X61848390Y13954267D02*
X61800771Y13906648D01*
X61800771Y13906648D02*
X61753152Y13811410D01*
X61753152Y13811410D02*
X61753152Y13668553D01*
X61753152Y13668553D02*
X61800771Y13573315D01*
X61800771Y13573315D02*
X61896009Y13525696D01*
X61896009Y13525696D02*
X62419819Y13525696D01*
X61896009Y13525696D02*
X61800771Y13478077D01*
X61800771Y13478077D02*
X61753152Y13382839D01*
X61753152Y13382839D02*
X61753152Y13239982D01*
X61753152Y13239982D02*
X61800771Y13144743D01*
X61800771Y13144743D02*
X61896009Y13097124D01*
X61896009Y13097124D02*
X62419819Y13097124D01*
X61753152Y12620934D02*
X62753152Y12620934D01*
X61800771Y12620934D02*
X61753152Y12525696D01*
X61753152Y12525696D02*
X61753152Y12335220D01*
X61753152Y12335220D02*
X61800771Y12239982D01*
X61800771Y12239982D02*
X61848390Y12192363D01*
X61848390Y12192363D02*
X61943628Y12144744D01*
X61943628Y12144744D02*
X62229342Y12144744D01*
X62229342Y12144744D02*
X62324580Y12192363D01*
X62324580Y12192363D02*
X62372200Y12239982D01*
X62372200Y12239982D02*
X62419819Y12335220D01*
X62419819Y12335220D02*
X62419819Y12525696D01*
X62419819Y12525696D02*
X62372200Y12620934D01*
X62419819Y11573315D02*
X62372200Y11668553D01*
X62372200Y11668553D02*
X62276961Y11716172D01*
X62276961Y11716172D02*
X61419819Y11716172D01*
X62372200Y10811410D02*
X62419819Y10906648D01*
X62419819Y10906648D02*
X62419819Y11097124D01*
X62419819Y11097124D02*
X62372200Y11192362D01*
X62372200Y11192362D02*
X62276961Y11239981D01*
X62276961Y11239981D02*
X61896009Y11239981D01*
X61896009Y11239981D02*
X61800771Y11192362D01*
X61800771Y11192362D02*
X61753152Y11097124D01*
X61753152Y11097124D02*
X61753152Y10906648D01*
X61753152Y10906648D02*
X61800771Y10811410D01*
X61800771Y10811410D02*
X61896009Y10763791D01*
X61896009Y10763791D02*
X61991247Y10763791D01*
X61991247Y10763791D02*
X62086485Y11239981D01*
X62324580Y10335219D02*
X62372200Y10287600D01*
X62372200Y10287600D02*
X62419819Y10335219D01*
X62419819Y10335219D02*
X62372200Y10382838D01*
X62372200Y10382838D02*
X62324580Y10335219D01*
X62324580Y10335219D02*
X62419819Y10335219D01*
X62372200Y9430458D02*
X62419819Y9525696D01*
X62419819Y9525696D02*
X62419819Y9716172D01*
X62419819Y9716172D02*
X62372200Y9811410D01*
X62372200Y9811410D02*
X62324580Y9859029D01*
X62324580Y9859029D02*
X62229342Y9906648D01*
X62229342Y9906648D02*
X61943628Y9906648D01*
X61943628Y9906648D02*
X61848390Y9859029D01*
X61848390Y9859029D02*
X61800771Y9811410D01*
X61800771Y9811410D02*
X61753152Y9716172D01*
X61753152Y9716172D02*
X61753152Y9525696D01*
X61753152Y9525696D02*
X61800771Y9430458D01*
X62419819Y8859029D02*
X62372200Y8954267D01*
X62372200Y8954267D02*
X62324580Y9001886D01*
X62324580Y9001886D02*
X62229342Y9049505D01*
X62229342Y9049505D02*
X61943628Y9049505D01*
X61943628Y9049505D02*
X61848390Y9001886D01*
X61848390Y9001886D02*
X61800771Y8954267D01*
X61800771Y8954267D02*
X61753152Y8859029D01*
X61753152Y8859029D02*
X61753152Y8716172D01*
X61753152Y8716172D02*
X61800771Y8620934D01*
X61800771Y8620934D02*
X61848390Y8573315D01*
X61848390Y8573315D02*
X61943628Y8525696D01*
X61943628Y8525696D02*
X62229342Y8525696D01*
X62229342Y8525696D02*
X62324580Y8573315D01*
X62324580Y8573315D02*
X62372200Y8620934D01*
X62372200Y8620934D02*
X62419819Y8716172D01*
X62419819Y8716172D02*
X62419819Y8859029D01*
X62419819Y8097124D02*
X61753152Y8097124D01*
X61848390Y8097124D02*
X61800771Y8049505D01*
X61800771Y8049505D02*
X61753152Y7954267D01*
X61753152Y7954267D02*
X61753152Y7811410D01*
X61753152Y7811410D02*
X61800771Y7716172D01*
X61800771Y7716172D02*
X61896009Y7668553D01*
X61896009Y7668553D02*
X62419819Y7668553D01*
X61896009Y7668553D02*
X61800771Y7620934D01*
X61800771Y7620934D02*
X61753152Y7525696D01*
X61753152Y7525696D02*
X61753152Y7382839D01*
X61753152Y7382839D02*
X61800771Y7287600D01*
X61800771Y7287600D02*
X61896009Y7239981D01*
X61896009Y7239981D02*
X62419819Y7239981D01*
X55575125Y1655704D02*
X55308458Y855704D01*
X55308458Y855704D02*
X55041792Y1655704D01*
X54317982Y931895D02*
X54356078Y893800D01*
X54356078Y893800D02*
X54470363Y855704D01*
X54470363Y855704D02*
X54546554Y855704D01*
X54546554Y855704D02*
X54660840Y893800D01*
X54660840Y893800D02*
X54737030Y969990D01*
X54737030Y969990D02*
X54775125Y1046180D01*
X54775125Y1046180D02*
X54813221Y1198561D01*
X54813221Y1198561D02*
X54813221Y1312847D01*
X54813221Y1312847D02*
X54775125Y1465228D01*
X54775125Y1465228D02*
X54737030Y1541419D01*
X54737030Y1541419D02*
X54660840Y1617609D01*
X54660840Y1617609D02*
X54546554Y1655704D01*
X54546554Y1655704D02*
X54470363Y1655704D01*
X54470363Y1655704D02*
X54356078Y1617609D01*
X54356078Y1617609D02*
X54317982Y1579514D01*
X53517982Y931895D02*
X53556078Y893800D01*
X53556078Y893800D02*
X53670363Y855704D01*
X53670363Y855704D02*
X53746554Y855704D01*
X53746554Y855704D02*
X53860840Y893800D01*
X53860840Y893800D02*
X53937030Y969990D01*
X53937030Y969990D02*
X53975125Y1046180D01*
X53975125Y1046180D02*
X54013221Y1198561D01*
X54013221Y1198561D02*
X54013221Y1312847D01*
X54013221Y1312847D02*
X53975125Y1465228D01*
X53975125Y1465228D02*
X53937030Y1541419D01*
X53937030Y1541419D02*
X53860840Y1617609D01*
X53860840Y1617609D02*
X53746554Y1655704D01*
X53746554Y1655704D02*
X53670363Y1655704D01*
X53670363Y1655704D02*
X53556078Y1617609D01*
X53556078Y1617609D02*
X53517982Y1579514D01*
X55498935Y-1356200D02*
X55384649Y-1394295D01*
X55384649Y-1394295D02*
X55194173Y-1394295D01*
X55194173Y-1394295D02*
X55117982Y-1356200D01*
X55117982Y-1356200D02*
X55079887Y-1318104D01*
X55079887Y-1318104D02*
X55041792Y-1241914D01*
X55041792Y-1241914D02*
X55041792Y-1165723D01*
X55041792Y-1165723D02*
X55079887Y-1089533D01*
X55079887Y-1089533D02*
X55117982Y-1051438D01*
X55117982Y-1051438D02*
X55194173Y-1013342D01*
X55194173Y-1013342D02*
X55346554Y-975247D01*
X55346554Y-975247D02*
X55422744Y-937152D01*
X55422744Y-937152D02*
X55460839Y-899057D01*
X55460839Y-899057D02*
X55498935Y-822866D01*
X55498935Y-822866D02*
X55498935Y-746676D01*
X55498935Y-746676D02*
X55460839Y-670485D01*
X55460839Y-670485D02*
X55422744Y-632390D01*
X55422744Y-632390D02*
X55346554Y-594295D01*
X55346554Y-594295D02*
X55156077Y-594295D01*
X55156077Y-594295D02*
X55041792Y-632390D01*
X54241791Y-1318104D02*
X54279887Y-1356200D01*
X54279887Y-1356200D02*
X54394172Y-1394295D01*
X54394172Y-1394295D02*
X54470363Y-1394295D01*
X54470363Y-1394295D02*
X54584649Y-1356200D01*
X54584649Y-1356200D02*
X54660839Y-1280009D01*
X54660839Y-1280009D02*
X54698934Y-1203819D01*
X54698934Y-1203819D02*
X54737030Y-1051438D01*
X54737030Y-1051438D02*
X54737030Y-937152D01*
X54737030Y-937152D02*
X54698934Y-784771D01*
X54698934Y-784771D02*
X54660839Y-708580D01*
X54660839Y-708580D02*
X54584649Y-632390D01*
X54584649Y-632390D02*
X54470363Y-594295D01*
X54470363Y-594295D02*
X54394172Y-594295D01*
X54394172Y-594295D02*
X54279887Y-632390D01*
X54279887Y-632390D02*
X54241791Y-670485D01*
X53517982Y-1394295D02*
X53898934Y-1394295D01*
X53898934Y-1394295D02*
X53898934Y-594295D01*
X55191792Y4267609D02*
X55267982Y4305704D01*
X55267982Y4305704D02*
X55382268Y4305704D01*
X55382268Y4305704D02*
X55496554Y4267609D01*
X55496554Y4267609D02*
X55572744Y4191419D01*
X55572744Y4191419D02*
X55610839Y4115228D01*
X55610839Y4115228D02*
X55648935Y3962847D01*
X55648935Y3962847D02*
X55648935Y3848561D01*
X55648935Y3848561D02*
X55610839Y3696180D01*
X55610839Y3696180D02*
X55572744Y3619990D01*
X55572744Y3619990D02*
X55496554Y3543800D01*
X55496554Y3543800D02*
X55382268Y3505704D01*
X55382268Y3505704D02*
X55306077Y3505704D01*
X55306077Y3505704D02*
X55191792Y3543800D01*
X55191792Y3543800D02*
X55153696Y3581895D01*
X55153696Y3581895D02*
X55153696Y3848561D01*
X55153696Y3848561D02*
X55306077Y3848561D01*
X54810839Y3505704D02*
X54810839Y4305704D01*
X54810839Y4305704D02*
X54353696Y3505704D01*
X54353696Y3505704D02*
X54353696Y4305704D01*
X53972744Y3505704D02*
X53972744Y4305704D01*
X53972744Y4305704D02*
X53782268Y4305704D01*
X53782268Y4305704D02*
X53667982Y4267609D01*
X53667982Y4267609D02*
X53591792Y4191419D01*
X53591792Y4191419D02*
X53553697Y4115228D01*
X53553697Y4115228D02*
X53515601Y3962847D01*
X53515601Y3962847D02*
X53515601Y3848561D01*
X53515601Y3848561D02*
X53553697Y3696180D01*
X53553697Y3696180D02*
X53591792Y3619990D01*
X53591792Y3619990D02*
X53667982Y3543800D01*
X53667982Y3543800D02*
X53782268Y3505704D01*
X53782268Y3505704D02*
X53972744Y3505704D01*
X55498935Y-4106200D02*
X55384649Y-4144295D01*
X55384649Y-4144295D02*
X55194173Y-4144295D01*
X55194173Y-4144295D02*
X55117982Y-4106200D01*
X55117982Y-4106200D02*
X55079887Y-4068104D01*
X55079887Y-4068104D02*
X55041792Y-3991914D01*
X55041792Y-3991914D02*
X55041792Y-3915723D01*
X55041792Y-3915723D02*
X55079887Y-3839533D01*
X55079887Y-3839533D02*
X55117982Y-3801438D01*
X55117982Y-3801438D02*
X55194173Y-3763342D01*
X55194173Y-3763342D02*
X55346554Y-3725247D01*
X55346554Y-3725247D02*
X55422744Y-3687152D01*
X55422744Y-3687152D02*
X55460839Y-3649057D01*
X55460839Y-3649057D02*
X55498935Y-3572866D01*
X55498935Y-3572866D02*
X55498935Y-3496676D01*
X55498935Y-3496676D02*
X55460839Y-3420485D01*
X55460839Y-3420485D02*
X55422744Y-3382390D01*
X55422744Y-3382390D02*
X55346554Y-3344295D01*
X55346554Y-3344295D02*
X55156077Y-3344295D01*
X55156077Y-3344295D02*
X55041792Y-3382390D01*
X54698934Y-4144295D02*
X54698934Y-3344295D01*
X54698934Y-3344295D02*
X54508458Y-3344295D01*
X54508458Y-3344295D02*
X54394172Y-3382390D01*
X54394172Y-3382390D02*
X54317982Y-3458580D01*
X54317982Y-3458580D02*
X54279887Y-3534771D01*
X54279887Y-3534771D02*
X54241791Y-3687152D01*
X54241791Y-3687152D02*
X54241791Y-3801438D01*
X54241791Y-3801438D02*
X54279887Y-3953819D01*
X54279887Y-3953819D02*
X54317982Y-4030009D01*
X54317982Y-4030009D02*
X54394172Y-4106200D01*
X54394172Y-4106200D02*
X54508458Y-4144295D01*
X54508458Y-4144295D02*
X54698934Y-4144295D01*
X53937030Y-3915723D02*
X53556077Y-3915723D01*
X54013220Y-4144295D02*
X53746553Y-3344295D01*
X53746553Y-3344295D02*
X53479887Y-4144295D01*
X-9100000Y-4170000D02*
X-9100000Y-3170000D01*
X38860000Y5610000D02*
X42460000Y5610000D01*
X-25560000Y-2670000D02*
X-24160000Y-2670000D01*
X39860000Y-4990000D02*
X39860000Y-3990000D01*
X41360000Y-3990000D02*
X41360000Y-4990000D01*
X41360000Y-4990000D02*
X39860000Y-4990000D01*
X23089999Y4630001D02*
X23089999Y5630000D01*
X40660000Y-1940000D02*
X40660000Y-3440000D01*
X23789999Y2580001D02*
X23789999Y4080001D01*
X21990000Y-4970000D02*
X21990000Y4630000D01*
X8770000Y-4970000D02*
X7270000Y-4970000D01*
X-42390000Y5630000D02*
X-40890000Y5630000D01*
X39860000Y-3990000D02*
X38860000Y-3990000D01*
X-9850000Y5630000D02*
X-8350000Y5630000D01*
X-10950000Y4630000D02*
X-9850000Y4630000D01*
X7270000Y-3970001D02*
X6270000Y-3970001D01*
X7370000Y-2670000D02*
X8769999Y-2670000D01*
X40610000Y4810000D02*
X40610000Y3810000D01*
X-39890000Y4630000D02*
X-39890000Y-4970000D01*
X-40990000Y3330000D02*
X-42390000Y3330000D01*
X-25660000Y-4970000D02*
X-25660000Y-3970000D01*
X6270000Y-3970001D02*
X6270000Y5629999D01*
X-9850000Y4630000D02*
X-9850000Y5630000D01*
X8070000Y-1920000D02*
X8070000Y-3420000D01*
X-41690000Y2580000D02*
X-41690000Y4080000D01*
X-24860000Y-1920000D02*
X-24860000Y-3420000D01*
X42460000Y5610000D02*
X42460000Y-3990000D01*
X-25660000Y-3970000D02*
X-26660000Y-3970000D01*
X9870000Y5630001D02*
X9870000Y-3969999D01*
X-41640000Y-4170000D02*
X-41640000Y-3170000D01*
X23089999Y5630000D02*
X24589999Y5630001D01*
X23840000Y-4170000D02*
X23840000Y-3169999D01*
X-8450000Y3330000D02*
X-9850000Y3330000D01*
X42460000Y-3990000D02*
X41360000Y-3990000D01*
X-39890000Y-4970000D02*
X-43490000Y-4970000D01*
X-26660000Y-3970000D02*
X-26660000Y5630000D01*
X-43490000Y4630000D02*
X-42390000Y4630000D01*
X-7350000Y4630000D02*
X-7350000Y-4970000D01*
X25589999Y4630001D02*
X25589999Y-4969999D01*
X24489999Y3330000D02*
X23090000Y3330001D01*
X-24160000Y-4970000D02*
X-25660000Y-4970000D01*
X-8350000Y5630000D02*
X-8350000Y4630000D01*
X-7350000Y-4970000D02*
X-10950000Y-4970000D01*
X8019999Y4830001D02*
X8019999Y3830000D01*
X-24910000Y4830000D02*
X-24910000Y3830000D01*
X-10950000Y-4970000D02*
X-10950000Y4630000D01*
X39960000Y-2690000D02*
X41360000Y-2690000D01*
X21990000Y4630000D02*
X23089999Y4630001D01*
X-40890000Y4630000D02*
X-39890000Y4630000D01*
X-40890000Y5630000D02*
X-40890000Y4630000D01*
X24589999Y4630002D02*
X25589999Y4630001D01*
X25589999Y-4969999D02*
X21990000Y-4970000D01*
X-24160000Y-3970000D02*
X-24160000Y-4970000D01*
X-9150000Y2580000D02*
X-9150000Y4080000D01*
X-26660000Y5630000D02*
X-23060000Y5630000D01*
X24589999Y5630001D02*
X24589999Y4630002D01*
X-23060000Y-3970000D02*
X-24160000Y-3970000D01*
X-8350000Y4630000D02*
X-7350000Y4630000D01*
X-42390000Y4630000D02*
X-42390000Y5630000D01*
X8770000Y-3970001D02*
X8770000Y-4970000D01*
X7270000Y-4970000D02*
X7270000Y-3970001D01*
X38860000Y-3990000D02*
X38860000Y5610000D01*
X9870000Y-3969999D02*
X8770000Y-3970001D01*
X-43490000Y-4970000D02*
X-43490000Y4630000D01*
X6270000Y5629999D02*
X9870000Y5630001D01*
X-23060000Y5630000D02*
X-23060000Y-3970000D01*
X-57701064Y-7856200D02*
X-57815350Y-7894295D01*
X-57815350Y-7894295D02*
X-58005826Y-7894295D01*
X-58005826Y-7894295D02*
X-58082017Y-7856200D01*
X-58082017Y-7856200D02*
X-58120112Y-7818104D01*
X-58120112Y-7818104D02*
X-58158207Y-7741914D01*
X-58158207Y-7741914D02*
X-58158207Y-7665723D01*
X-58158207Y-7665723D02*
X-58120112Y-7589533D01*
X-58120112Y-7589533D02*
X-58082017Y-7551438D01*
X-58082017Y-7551438D02*
X-58005826Y-7513342D01*
X-58005826Y-7513342D02*
X-57853445Y-7475247D01*
X-57853445Y-7475247D02*
X-57777255Y-7437152D01*
X-57777255Y-7437152D02*
X-57739160Y-7399057D01*
X-57739160Y-7399057D02*
X-57701064Y-7322866D01*
X-57701064Y-7322866D02*
X-57701064Y-7246676D01*
X-57701064Y-7246676D02*
X-57739160Y-7170485D01*
X-57739160Y-7170485D02*
X-57777255Y-7132390D01*
X-57777255Y-7132390D02*
X-57853445Y-7094295D01*
X-57853445Y-7094295D02*
X-58043922Y-7094295D01*
X-58043922Y-7094295D02*
X-58158207Y-7132390D01*
X-58958208Y-7818104D02*
X-58920112Y-7856200D01*
X-58920112Y-7856200D02*
X-58805827Y-7894295D01*
X-58805827Y-7894295D02*
X-58729636Y-7894295D01*
X-58729636Y-7894295D02*
X-58615350Y-7856200D01*
X-58615350Y-7856200D02*
X-58539160Y-7780009D01*
X-58539160Y-7780009D02*
X-58501065Y-7703819D01*
X-58501065Y-7703819D02*
X-58462969Y-7551438D01*
X-58462969Y-7551438D02*
X-58462969Y-7437152D01*
X-58462969Y-7437152D02*
X-58501065Y-7284771D01*
X-58501065Y-7284771D02*
X-58539160Y-7208580D01*
X-58539160Y-7208580D02*
X-58615350Y-7132390D01*
X-58615350Y-7132390D02*
X-58729636Y-7094295D01*
X-58729636Y-7094295D02*
X-58805827Y-7094295D01*
X-58805827Y-7094295D02*
X-58920112Y-7132390D01*
X-58920112Y-7132390D02*
X-58958208Y-7170485D01*
X-59682017Y-7894295D02*
X-59301065Y-7894295D01*
X-59301065Y-7894295D02*
X-59301065Y-7094295D01*
X-52201064Y7143800D02*
X-52315350Y7105704D01*
X-52315350Y7105704D02*
X-52505826Y7105704D01*
X-52505826Y7105704D02*
X-52582017Y7143800D01*
X-52582017Y7143800D02*
X-52620112Y7181895D01*
X-52620112Y7181895D02*
X-52658207Y7258085D01*
X-52658207Y7258085D02*
X-52658207Y7334276D01*
X-52658207Y7334276D02*
X-52620112Y7410466D01*
X-52620112Y7410466D02*
X-52582017Y7448561D01*
X-52582017Y7448561D02*
X-52505826Y7486657D01*
X-52505826Y7486657D02*
X-52353445Y7524752D01*
X-52353445Y7524752D02*
X-52277255Y7562847D01*
X-52277255Y7562847D02*
X-52239160Y7600942D01*
X-52239160Y7600942D02*
X-52201064Y7677133D01*
X-52201064Y7677133D02*
X-52201064Y7753323D01*
X-52201064Y7753323D02*
X-52239160Y7829514D01*
X-52239160Y7829514D02*
X-52277255Y7867609D01*
X-52277255Y7867609D02*
X-52353445Y7905704D01*
X-52353445Y7905704D02*
X-52543922Y7905704D01*
X-52543922Y7905704D02*
X-52658207Y7867609D01*
X-53001065Y7105704D02*
X-53001065Y7905704D01*
X-53001065Y7905704D02*
X-53191541Y7905704D01*
X-53191541Y7905704D02*
X-53305827Y7867609D01*
X-53305827Y7867609D02*
X-53382017Y7791419D01*
X-53382017Y7791419D02*
X-53420112Y7715228D01*
X-53420112Y7715228D02*
X-53458208Y7562847D01*
X-53458208Y7562847D02*
X-53458208Y7448561D01*
X-53458208Y7448561D02*
X-53420112Y7296180D01*
X-53420112Y7296180D02*
X-53382017Y7219990D01*
X-53382017Y7219990D02*
X-53305827Y7143800D01*
X-53305827Y7143800D02*
X-53191541Y7105704D01*
X-53191541Y7105704D02*
X-53001065Y7105704D01*
X-53762969Y7334276D02*
X-54143922Y7334276D01*
X-53686779Y7105704D02*
X-53953446Y7905704D01*
X-53953446Y7905704D02*
X-54220112Y7105704D01*
X-53286779Y26411133D02*
X-54048684Y26411133D01*
X-54874874Y-7094295D02*
X-55141541Y-7894295D01*
X-55141541Y-7894295D02*
X-55408207Y-7094295D01*
X-56132017Y-7818104D02*
X-56093921Y-7856200D01*
X-56093921Y-7856200D02*
X-55979636Y-7894295D01*
X-55979636Y-7894295D02*
X-55903445Y-7894295D01*
X-55903445Y-7894295D02*
X-55789159Y-7856200D01*
X-55789159Y-7856200D02*
X-55712969Y-7780009D01*
X-55712969Y-7780009D02*
X-55674874Y-7703819D01*
X-55674874Y-7703819D02*
X-55636778Y-7551438D01*
X-55636778Y-7551438D02*
X-55636778Y-7437152D01*
X-55636778Y-7437152D02*
X-55674874Y-7284771D01*
X-55674874Y-7284771D02*
X-55712969Y-7208580D01*
X-55712969Y-7208580D02*
X-55789159Y-7132390D01*
X-55789159Y-7132390D02*
X-55903445Y-7094295D01*
X-55903445Y-7094295D02*
X-55979636Y-7094295D01*
X-55979636Y-7094295D02*
X-56093921Y-7132390D01*
X-56093921Y-7132390D02*
X-56132017Y-7170485D01*
X-56932017Y-7818104D02*
X-56893921Y-7856200D01*
X-56893921Y-7856200D02*
X-56779636Y-7894295D01*
X-56779636Y-7894295D02*
X-56703445Y-7894295D01*
X-56703445Y-7894295D02*
X-56589159Y-7856200D01*
X-56589159Y-7856200D02*
X-56512969Y-7780009D01*
X-56512969Y-7780009D02*
X-56474874Y-7703819D01*
X-56474874Y-7703819D02*
X-56436778Y-7551438D01*
X-56436778Y-7551438D02*
X-56436778Y-7437152D01*
X-56436778Y-7437152D02*
X-56474874Y-7284771D01*
X-56474874Y-7284771D02*
X-56512969Y-7208580D01*
X-56512969Y-7208580D02*
X-56589159Y-7132390D01*
X-56589159Y-7132390D02*
X-56703445Y-7094295D01*
X-56703445Y-7094295D02*
X-56779636Y-7094295D01*
X-56779636Y-7094295D02*
X-56893921Y-7132390D01*
X-56893921Y-7132390D02*
X-56932017Y-7170485D01*
X-60486779Y26511133D02*
X-61248684Y26511133D01*
X-60867731Y26130180D02*
X-60867731Y26892085D01*
X-60408207Y7867609D02*
X-60332017Y7905704D01*
X-60332017Y7905704D02*
X-60217731Y7905704D01*
X-60217731Y7905704D02*
X-60103445Y7867609D01*
X-60103445Y7867609D02*
X-60027255Y7791419D01*
X-60027255Y7791419D02*
X-59989160Y7715228D01*
X-59989160Y7715228D02*
X-59951064Y7562847D01*
X-59951064Y7562847D02*
X-59951064Y7448561D01*
X-59951064Y7448561D02*
X-59989160Y7296180D01*
X-59989160Y7296180D02*
X-60027255Y7219990D01*
X-60027255Y7219990D02*
X-60103445Y7143800D01*
X-60103445Y7143800D02*
X-60217731Y7105704D01*
X-60217731Y7105704D02*
X-60293922Y7105704D01*
X-60293922Y7105704D02*
X-60408207Y7143800D01*
X-60408207Y7143800D02*
X-60446303Y7181895D01*
X-60446303Y7181895D02*
X-60446303Y7448561D01*
X-60446303Y7448561D02*
X-60293922Y7448561D01*
X-60789160Y7105704D02*
X-60789160Y7905704D01*
X-60789160Y7905704D02*
X-61246303Y7105704D01*
X-61246303Y7105704D02*
X-61246303Y7905704D01*
X-61627255Y7105704D02*
X-61627255Y7905704D01*
X-61627255Y7905704D02*
X-61817731Y7905704D01*
X-61817731Y7905704D02*
X-61932017Y7867609D01*
X-61932017Y7867609D02*
X-62008207Y7791419D01*
X-62008207Y7791419D02*
X-62046302Y7715228D01*
X-62046302Y7715228D02*
X-62084398Y7562847D01*
X-62084398Y7562847D02*
X-62084398Y7448561D01*
X-62084398Y7448561D02*
X-62046302Y7296180D01*
X-62046302Y7296180D02*
X-62008207Y7219990D01*
X-62008207Y7219990D02*
X-61932017Y7143800D01*
X-61932017Y7143800D02*
X-61817731Y7105704D01*
X-61817731Y7105704D02*
X-61627255Y7105704D01*
X-60201064Y-7856200D02*
X-60315350Y-7894295D01*
X-60315350Y-7894295D02*
X-60505826Y-7894295D01*
X-60505826Y-7894295D02*
X-60582017Y-7856200D01*
X-60582017Y-7856200D02*
X-60620112Y-7818104D01*
X-60620112Y-7818104D02*
X-60658207Y-7741914D01*
X-60658207Y-7741914D02*
X-60658207Y-7665723D01*
X-60658207Y-7665723D02*
X-60620112Y-7589533D01*
X-60620112Y-7589533D02*
X-60582017Y-7551438D01*
X-60582017Y-7551438D02*
X-60505826Y-7513342D01*
X-60505826Y-7513342D02*
X-60353445Y-7475247D01*
X-60353445Y-7475247D02*
X-60277255Y-7437152D01*
X-60277255Y-7437152D02*
X-60239160Y-7399057D01*
X-60239160Y-7399057D02*
X-60201064Y-7322866D01*
X-60201064Y-7322866D02*
X-60201064Y-7246676D01*
X-60201064Y-7246676D02*
X-60239160Y-7170485D01*
X-60239160Y-7170485D02*
X-60277255Y-7132390D01*
X-60277255Y-7132390D02*
X-60353445Y-7094295D01*
X-60353445Y-7094295D02*
X-60543922Y-7094295D01*
X-60543922Y-7094295D02*
X-60658207Y-7132390D01*
X-61001065Y-7894295D02*
X-61001065Y-7094295D01*
X-61001065Y-7094295D02*
X-61191541Y-7094295D01*
X-61191541Y-7094295D02*
X-61305827Y-7132390D01*
X-61305827Y-7132390D02*
X-61382017Y-7208580D01*
X-61382017Y-7208580D02*
X-61420112Y-7284771D01*
X-61420112Y-7284771D02*
X-61458208Y-7437152D01*
X-61458208Y-7437152D02*
X-61458208Y-7551438D01*
X-61458208Y-7551438D02*
X-61420112Y-7703819D01*
X-61420112Y-7703819D02*
X-61382017Y-7780009D01*
X-61382017Y-7780009D02*
X-61305827Y-7856200D01*
X-61305827Y-7856200D02*
X-61191541Y-7894295D01*
X-61191541Y-7894295D02*
X-61001065Y-7894295D01*
X-61762969Y-7665723D02*
X-62143922Y-7665723D01*
X-61686779Y-7894295D02*
X-61953446Y-7094295D01*
X-61953446Y-7094295D02*
X-62220112Y-7894295D01*
X-53386779Y-26488866D02*
X-54148684Y-26488866D01*
X-53767731Y-26869819D02*
X-53767731Y-26107914D01*
X-54951064Y7143800D02*
X-55065350Y7105704D01*
X-55065350Y7105704D02*
X-55255826Y7105704D01*
X-55255826Y7105704D02*
X-55332017Y7143800D01*
X-55332017Y7143800D02*
X-55370112Y7181895D01*
X-55370112Y7181895D02*
X-55408207Y7258085D01*
X-55408207Y7258085D02*
X-55408207Y7334276D01*
X-55408207Y7334276D02*
X-55370112Y7410466D01*
X-55370112Y7410466D02*
X-55332017Y7448561D01*
X-55332017Y7448561D02*
X-55255826Y7486657D01*
X-55255826Y7486657D02*
X-55103445Y7524752D01*
X-55103445Y7524752D02*
X-55027255Y7562847D01*
X-55027255Y7562847D02*
X-54989160Y7600942D01*
X-54989160Y7600942D02*
X-54951064Y7677133D01*
X-54951064Y7677133D02*
X-54951064Y7753323D01*
X-54951064Y7753323D02*
X-54989160Y7829514D01*
X-54989160Y7829514D02*
X-55027255Y7867609D01*
X-55027255Y7867609D02*
X-55103445Y7905704D01*
X-55103445Y7905704D02*
X-55293922Y7905704D01*
X-55293922Y7905704D02*
X-55408207Y7867609D01*
X-56208208Y7181895D02*
X-56170112Y7143800D01*
X-56170112Y7143800D02*
X-56055827Y7105704D01*
X-56055827Y7105704D02*
X-55979636Y7105704D01*
X-55979636Y7105704D02*
X-55865350Y7143800D01*
X-55865350Y7143800D02*
X-55789160Y7219990D01*
X-55789160Y7219990D02*
X-55751065Y7296180D01*
X-55751065Y7296180D02*
X-55712969Y7448561D01*
X-55712969Y7448561D02*
X-55712969Y7562847D01*
X-55712969Y7562847D02*
X-55751065Y7715228D01*
X-55751065Y7715228D02*
X-55789160Y7791419D01*
X-55789160Y7791419D02*
X-55865350Y7867609D01*
X-55865350Y7867609D02*
X-55979636Y7905704D01*
X-55979636Y7905704D02*
X-56055827Y7905704D01*
X-56055827Y7905704D02*
X-56170112Y7867609D01*
X-56170112Y7867609D02*
X-56208208Y7829514D01*
X-56932017Y7105704D02*
X-56551065Y7105704D01*
X-56551065Y7105704D02*
X-56551065Y7905704D01*
X-52658207Y-7132390D02*
X-52582017Y-7094295D01*
X-52582017Y-7094295D02*
X-52467731Y-7094295D01*
X-52467731Y-7094295D02*
X-52353445Y-7132390D01*
X-52353445Y-7132390D02*
X-52277255Y-7208580D01*
X-52277255Y-7208580D02*
X-52239160Y-7284771D01*
X-52239160Y-7284771D02*
X-52201064Y-7437152D01*
X-52201064Y-7437152D02*
X-52201064Y-7551438D01*
X-52201064Y-7551438D02*
X-52239160Y-7703819D01*
X-52239160Y-7703819D02*
X-52277255Y-7780009D01*
X-52277255Y-7780009D02*
X-52353445Y-7856200D01*
X-52353445Y-7856200D02*
X-52467731Y-7894295D01*
X-52467731Y-7894295D02*
X-52543922Y-7894295D01*
X-52543922Y-7894295D02*
X-52658207Y-7856200D01*
X-52658207Y-7856200D02*
X-52696303Y-7818104D01*
X-52696303Y-7818104D02*
X-52696303Y-7551438D01*
X-52696303Y-7551438D02*
X-52543922Y-7551438D01*
X-53039160Y-7894295D02*
X-53039160Y-7094295D01*
X-53039160Y-7094295D02*
X-53496303Y-7894295D01*
X-53496303Y-7894295D02*
X-53496303Y-7094295D01*
X-53877255Y-7894295D02*
X-53877255Y-7094295D01*
X-53877255Y-7094295D02*
X-54067731Y-7094295D01*
X-54067731Y-7094295D02*
X-54182017Y-7132390D01*
X-54182017Y-7132390D02*
X-54258207Y-7208580D01*
X-54258207Y-7208580D02*
X-54296302Y-7284771D01*
X-54296302Y-7284771D02*
X-54334398Y-7437152D01*
X-54334398Y-7437152D02*
X-54334398Y-7551438D01*
X-54334398Y-7551438D02*
X-54296302Y-7703819D01*
X-54296302Y-7703819D02*
X-54258207Y-7780009D01*
X-54258207Y-7780009D02*
X-54182017Y-7856200D01*
X-54182017Y-7856200D02*
X-54067731Y-7894295D01*
X-54067731Y-7894295D02*
X-53877255Y-7894295D01*
X-57374874Y7905704D02*
X-57641541Y7105704D01*
X-57641541Y7105704D02*
X-57908207Y7905704D01*
X-58632017Y7181895D02*
X-58593921Y7143800D01*
X-58593921Y7143800D02*
X-58479636Y7105704D01*
X-58479636Y7105704D02*
X-58403445Y7105704D01*
X-58403445Y7105704D02*
X-58289159Y7143800D01*
X-58289159Y7143800D02*
X-58212969Y7219990D01*
X-58212969Y7219990D02*
X-58174874Y7296180D01*
X-58174874Y7296180D02*
X-58136778Y7448561D01*
X-58136778Y7448561D02*
X-58136778Y7562847D01*
X-58136778Y7562847D02*
X-58174874Y7715228D01*
X-58174874Y7715228D02*
X-58212969Y7791419D01*
X-58212969Y7791419D02*
X-58289159Y7867609D01*
X-58289159Y7867609D02*
X-58403445Y7905704D01*
X-58403445Y7905704D02*
X-58479636Y7905704D01*
X-58479636Y7905704D02*
X-58593921Y7867609D01*
X-58593921Y7867609D02*
X-58632017Y7829514D01*
X-59432017Y7181895D02*
X-59393921Y7143800D01*
X-59393921Y7143800D02*
X-59279636Y7105704D01*
X-59279636Y7105704D02*
X-59203445Y7105704D01*
X-59203445Y7105704D02*
X-59089159Y7143800D01*
X-59089159Y7143800D02*
X-59012969Y7219990D01*
X-59012969Y7219990D02*
X-58974874Y7296180D01*
X-58974874Y7296180D02*
X-58936778Y7448561D01*
X-58936778Y7448561D02*
X-58936778Y7562847D01*
X-58936778Y7562847D02*
X-58974874Y7715228D01*
X-58974874Y7715228D02*
X-59012969Y7791419D01*
X-59012969Y7791419D02*
X-59089159Y7867609D01*
X-59089159Y7867609D02*
X-59203445Y7905704D01*
X-59203445Y7905704D02*
X-59279636Y7905704D01*
X-59279636Y7905704D02*
X-59393921Y7867609D01*
X-59393921Y7867609D02*
X-59432017Y7829514D01*
X-60286779Y-26488866D02*
X-61048684Y-26488866D01*
D11*
X-43291681Y-18466618D02*
X-42263586Y-18466618D01*
X-42263586Y-18466618D02*
X-42142634Y-18527095D01*
X-42142634Y-18527095D02*
X-42082158Y-18587571D01*
X-42082158Y-18587571D02*
X-42021681Y-18708523D01*
X-42021681Y-18708523D02*
X-42021681Y-18950428D01*
X-42021681Y-18950428D02*
X-42082158Y-19071380D01*
X-42082158Y-19071380D02*
X-42142634Y-19131857D01*
X-42142634Y-19131857D02*
X-42263586Y-19192333D01*
X-42263586Y-19192333D02*
X-43291681Y-19192333D01*
X-42021681Y-20462333D02*
X-42021681Y-19736618D01*
X-42021681Y-20099475D02*
X-43291681Y-20099475D01*
X-43291681Y-20099475D02*
X-43110253Y-19978523D01*
X-43110253Y-19978523D02*
X-42989300Y-19857571D01*
X-42989300Y-19857571D02*
X-42928824Y-19736618D01*
X-43291681Y-20885666D02*
X-43291681Y-21732333D01*
X-43291681Y-21732333D02*
X-42021681Y-21188047D01*
X-26891681Y-18466618D02*
X-25863586Y-18466618D01*
X-25863586Y-18466618D02*
X-25742634Y-18527095D01*
X-25742634Y-18527095D02*
X-25682158Y-18587571D01*
X-25682158Y-18587571D02*
X-25621681Y-18708523D01*
X-25621681Y-18708523D02*
X-25621681Y-18950428D01*
X-25621681Y-18950428D02*
X-25682158Y-19071380D01*
X-25682158Y-19071380D02*
X-25742634Y-19131857D01*
X-25742634Y-19131857D02*
X-25863586Y-19192333D01*
X-25863586Y-19192333D02*
X-26891681Y-19192333D01*
X-25621681Y-20462333D02*
X-25621681Y-19736618D01*
X-25621681Y-20099475D02*
X-26891681Y-20099475D01*
X-26891681Y-20099475D02*
X-26710253Y-19978523D01*
X-26710253Y-19978523D02*
X-26589300Y-19857571D01*
X-26589300Y-19857571D02*
X-26528824Y-19736618D01*
X-26891681Y-21550904D02*
X-26891681Y-21308999D01*
X-26891681Y-21308999D02*
X-26831205Y-21188047D01*
X-26831205Y-21188047D02*
X-26770729Y-21127571D01*
X-26770729Y-21127571D02*
X-26589300Y-21006618D01*
X-26589300Y-21006618D02*
X-26347396Y-20946142D01*
X-26347396Y-20946142D02*
X-25863586Y-20946142D01*
X-25863586Y-20946142D02*
X-25742634Y-21006618D01*
X-25742634Y-21006618D02*
X-25682158Y-21067095D01*
X-25682158Y-21067095D02*
X-25621681Y-21188047D01*
X-25621681Y-21188047D02*
X-25621681Y-21429952D01*
X-25621681Y-21429952D02*
X-25682158Y-21550904D01*
X-25682158Y-21550904D02*
X-25742634Y-21611380D01*
X-25742634Y-21611380D02*
X-25863586Y-21671857D01*
X-25863586Y-21671857D02*
X-26165967Y-21671857D01*
X-26165967Y-21671857D02*
X-26286919Y-21611380D01*
X-26286919Y-21611380D02*
X-26347396Y-21550904D01*
X-26347396Y-21550904D02*
X-26407872Y-21429952D01*
X-26407872Y-21429952D02*
X-26407872Y-21188047D01*
X-26407872Y-21188047D02*
X-26347396Y-21067095D01*
X-26347396Y-21067095D02*
X-26286919Y-21006618D01*
X-26286919Y-21006618D02*
X-26165967Y-20946142D01*
X-10491681Y-18466618D02*
X-9463586Y-18466618D01*
X-9463586Y-18466618D02*
X-9342634Y-18527095D01*
X-9342634Y-18527095D02*
X-9282158Y-18587571D01*
X-9282158Y-18587571D02*
X-9221681Y-18708523D01*
X-9221681Y-18708523D02*
X-9221681Y-18950428D01*
X-9221681Y-18950428D02*
X-9282158Y-19071380D01*
X-9282158Y-19071380D02*
X-9342634Y-19131857D01*
X-9342634Y-19131857D02*
X-9463586Y-19192333D01*
X-9463586Y-19192333D02*
X-10491681Y-19192333D01*
X-9221681Y-20462333D02*
X-9221681Y-19736618D01*
X-9221681Y-20099475D02*
X-10491681Y-20099475D01*
X-10491681Y-20099475D02*
X-10310253Y-19978523D01*
X-10310253Y-19978523D02*
X-10189300Y-19857571D01*
X-10189300Y-19857571D02*
X-10128824Y-19736618D01*
X-10491681Y-21611380D02*
X-10491681Y-21006618D01*
X-10491681Y-21006618D02*
X-9886919Y-20946142D01*
X-9886919Y-20946142D02*
X-9947396Y-21006618D01*
X-9947396Y-21006618D02*
X-10007872Y-21127571D01*
X-10007872Y-21127571D02*
X-10007872Y-21429952D01*
X-10007872Y-21429952D02*
X-9947396Y-21550904D01*
X-9947396Y-21550904D02*
X-9886919Y-21611380D01*
X-9886919Y-21611380D02*
X-9765967Y-21671857D01*
X-9765967Y-21671857D02*
X-9463586Y-21671857D01*
X-9463586Y-21671857D02*
X-9342634Y-21611380D01*
X-9342634Y-21611380D02*
X-9282158Y-21550904D01*
X-9282158Y-21550904D02*
X-9221681Y-21429952D01*
X-9221681Y-21429952D02*
X-9221681Y-21127571D01*
X-9221681Y-21127571D02*
X-9282158Y-21006618D01*
X-9282158Y-21006618D02*
X-9342634Y-20946142D01*
X-41599681Y21611381D02*
X-40571586Y21611381D01*
X-40571586Y21611381D02*
X-40450634Y21550904D01*
X-40450634Y21550904D02*
X-40390158Y21490428D01*
X-40390158Y21490428D02*
X-40329681Y21369476D01*
X-40329681Y21369476D02*
X-40329681Y21127571D01*
X-40329681Y21127571D02*
X-40390158Y21006619D01*
X-40390158Y21006619D02*
X-40450634Y20946142D01*
X-40450634Y20946142D02*
X-40571586Y20885666D01*
X-40571586Y20885666D02*
X-41599681Y20885666D01*
X-40329681Y19615666D02*
X-40329681Y20341381D01*
X-40329681Y19978524D02*
X-41599681Y19978524D01*
X-41599681Y19978524D02*
X-41418253Y20099476D01*
X-41418253Y20099476D02*
X-41297300Y20220428D01*
X-41297300Y20220428D02*
X-41236824Y20341381D01*
X-41176348Y18527095D02*
X-40329681Y18527095D01*
X-41660158Y18829476D02*
X-40753015Y19131857D01*
X-40753015Y19131857D02*
X-40753015Y18345666D01*
X-25199681Y21611381D02*
X-24171586Y21611381D01*
X-24171586Y21611381D02*
X-24050634Y21550904D01*
X-24050634Y21550904D02*
X-23990158Y21490428D01*
X-23990158Y21490428D02*
X-23929681Y21369476D01*
X-23929681Y21369476D02*
X-23929681Y21127571D01*
X-23929681Y21127571D02*
X-23990158Y21006619D01*
X-23990158Y21006619D02*
X-24050634Y20946142D01*
X-24050634Y20946142D02*
X-24171586Y20885666D01*
X-24171586Y20885666D02*
X-25199681Y20885666D01*
X-23929681Y19615666D02*
X-23929681Y20341381D01*
X-23929681Y19978524D02*
X-25199681Y19978524D01*
X-25199681Y19978524D02*
X-25018253Y20099476D01*
X-25018253Y20099476D02*
X-24897300Y20220428D01*
X-24897300Y20220428D02*
X-24836824Y20341381D01*
X-25199681Y19192333D02*
X-25199681Y18406142D01*
X-25199681Y18406142D02*
X-24715872Y18829476D01*
X-24715872Y18829476D02*
X-24715872Y18648047D01*
X-24715872Y18648047D02*
X-24655396Y18527095D01*
X-24655396Y18527095D02*
X-24594919Y18466619D01*
X-24594919Y18466619D02*
X-24473967Y18406142D01*
X-24473967Y18406142D02*
X-24171586Y18406142D01*
X-24171586Y18406142D02*
X-24050634Y18466619D01*
X-24050634Y18466619D02*
X-23990158Y18527095D01*
X-23990158Y18527095D02*
X-23929681Y18648047D01*
X-23929681Y18648047D02*
X-23929681Y19010904D01*
X-23929681Y19010904D02*
X-23990158Y19131857D01*
X-23990158Y19131857D02*
X-24050634Y19192333D01*
X-8799681Y21611381D02*
X-7771586Y21611381D01*
X-7771586Y21611381D02*
X-7650634Y21550904D01*
X-7650634Y21550904D02*
X-7590158Y21490428D01*
X-7590158Y21490428D02*
X-7529681Y21369476D01*
X-7529681Y21369476D02*
X-7529681Y21127571D01*
X-7529681Y21127571D02*
X-7590158Y21006619D01*
X-7590158Y21006619D02*
X-7650634Y20946142D01*
X-7650634Y20946142D02*
X-7771586Y20885666D01*
X-7771586Y20885666D02*
X-8799681Y20885666D01*
X-7529681Y19615666D02*
X-7529681Y20341381D01*
X-7529681Y19978524D02*
X-8799681Y19978524D01*
X-8799681Y19978524D02*
X-8618253Y20099476D01*
X-8618253Y20099476D02*
X-8497300Y20220428D01*
X-8497300Y20220428D02*
X-8436824Y20341381D01*
X-8799681Y18829476D02*
X-8799681Y18708523D01*
X-8799681Y18708523D02*
X-8739205Y18587571D01*
X-8739205Y18587571D02*
X-8678729Y18527095D01*
X-8678729Y18527095D02*
X-8557777Y18466619D01*
X-8557777Y18466619D02*
X-8315872Y18406142D01*
X-8315872Y18406142D02*
X-8013491Y18406142D01*
X-8013491Y18406142D02*
X-7771586Y18466619D01*
X-7771586Y18466619D02*
X-7650634Y18527095D01*
X-7650634Y18527095D02*
X-7590158Y18587571D01*
X-7590158Y18587571D02*
X-7529681Y18708523D01*
X-7529681Y18708523D02*
X-7529681Y18829476D01*
X-7529681Y18829476D02*
X-7590158Y18950428D01*
X-7590158Y18950428D02*
X-7650634Y19010904D01*
X-7650634Y19010904D02*
X-7771586Y19071381D01*
X-7771586Y19071381D02*
X-8013491Y19131857D01*
X-8013491Y19131857D02*
X-8315872Y19131857D01*
X-8315872Y19131857D02*
X-8557777Y19071381D01*
X-8557777Y19071381D02*
X-8678729Y19010904D01*
X-8678729Y19010904D02*
X-8739205Y18950428D01*
X-8739205Y18950428D02*
X-8799681Y18829476D01*
X40400318Y21006619D02*
X41428413Y21006619D01*
X41428413Y21006619D02*
X41549365Y20946142D01*
X41549365Y20946142D02*
X41609842Y20885666D01*
X41609842Y20885666D02*
X41670318Y20764714D01*
X41670318Y20764714D02*
X41670318Y20522809D01*
X41670318Y20522809D02*
X41609842Y20401857D01*
X41609842Y20401857D02*
X41549365Y20341380D01*
X41549365Y20341380D02*
X41428413Y20280904D01*
X41428413Y20280904D02*
X40400318Y20280904D01*
X41670318Y19615666D02*
X41670318Y19373762D01*
X41670318Y19373762D02*
X41609842Y19252809D01*
X41609842Y19252809D02*
X41549365Y19192333D01*
X41549365Y19192333D02*
X41367937Y19071381D01*
X41367937Y19071381D02*
X41126032Y19010904D01*
X41126032Y19010904D02*
X40642222Y19010904D01*
X40642222Y19010904D02*
X40521270Y19071381D01*
X40521270Y19071381D02*
X40460794Y19131857D01*
X40460794Y19131857D02*
X40400318Y19252809D01*
X40400318Y19252809D02*
X40400318Y19494714D01*
X40400318Y19494714D02*
X40460794Y19615666D01*
X40460794Y19615666D02*
X40521270Y19676143D01*
X40521270Y19676143D02*
X40642222Y19736619D01*
X40642222Y19736619D02*
X40944603Y19736619D01*
X40944603Y19736619D02*
X41065556Y19676143D01*
X41065556Y19676143D02*
X41126032Y19615666D01*
X41126032Y19615666D02*
X41186508Y19494714D01*
X41186508Y19494714D02*
X41186508Y19252809D01*
X41186508Y19252809D02*
X41126032Y19131857D01*
X41126032Y19131857D02*
X41065556Y19071381D01*
X41065556Y19071381D02*
X40944603Y19010904D01*
X24000318Y21006619D02*
X25028413Y21006619D01*
X25028413Y21006619D02*
X25149365Y20946142D01*
X25149365Y20946142D02*
X25209842Y20885666D01*
X25209842Y20885666D02*
X25270318Y20764714D01*
X25270318Y20764714D02*
X25270318Y20522809D01*
X25270318Y20522809D02*
X25209842Y20401857D01*
X25209842Y20401857D02*
X25149365Y20341380D01*
X25149365Y20341380D02*
X25028413Y20280904D01*
X25028413Y20280904D02*
X24000318Y20280904D01*
X24544603Y19494714D02*
X24484127Y19615666D01*
X24484127Y19615666D02*
X24423651Y19676143D01*
X24423651Y19676143D02*
X24302699Y19736619D01*
X24302699Y19736619D02*
X24242222Y19736619D01*
X24242222Y19736619D02*
X24121270Y19676143D01*
X24121270Y19676143D02*
X24060794Y19615666D01*
X24060794Y19615666D02*
X24000318Y19494714D01*
X24000318Y19494714D02*
X24000318Y19252809D01*
X24000318Y19252809D02*
X24060794Y19131857D01*
X24060794Y19131857D02*
X24121270Y19071381D01*
X24121270Y19071381D02*
X24242222Y19010904D01*
X24242222Y19010904D02*
X24302699Y19010904D01*
X24302699Y19010904D02*
X24423651Y19071381D01*
X24423651Y19071381D02*
X24484127Y19131857D01*
X24484127Y19131857D02*
X24544603Y19252809D01*
X24544603Y19252809D02*
X24544603Y19494714D01*
X24544603Y19494714D02*
X24605080Y19615666D01*
X24605080Y19615666D02*
X24665556Y19676143D01*
X24665556Y19676143D02*
X24786508Y19736619D01*
X24786508Y19736619D02*
X25028413Y19736619D01*
X25028413Y19736619D02*
X25149365Y19676143D01*
X25149365Y19676143D02*
X25209842Y19615666D01*
X25209842Y19615666D02*
X25270318Y19494714D01*
X25270318Y19494714D02*
X25270318Y19252809D01*
X25270318Y19252809D02*
X25209842Y19131857D01*
X25209842Y19131857D02*
X25149365Y19071381D01*
X25149365Y19071381D02*
X25028413Y19010904D01*
X25028413Y19010904D02*
X24786508Y19010904D01*
X24786508Y19010904D02*
X24665556Y19071381D01*
X24665556Y19071381D02*
X24605080Y19131857D01*
X24605080Y19131857D02*
X24544603Y19252809D01*
X7600318Y21006619D02*
X8628413Y21006619D01*
X8628413Y21006619D02*
X8749365Y20946142D01*
X8749365Y20946142D02*
X8809842Y20885666D01*
X8809842Y20885666D02*
X8870318Y20764714D01*
X8870318Y20764714D02*
X8870318Y20522809D01*
X8870318Y20522809D02*
X8809842Y20401857D01*
X8809842Y20401857D02*
X8749365Y20341380D01*
X8749365Y20341380D02*
X8628413Y20280904D01*
X8628413Y20280904D02*
X7600318Y20280904D01*
X7600318Y19797095D02*
X7600318Y18950428D01*
X7600318Y18950428D02*
X8870318Y19494714D01*
X38708318Y-19071380D02*
X39736413Y-19071380D01*
X39736413Y-19071380D02*
X39857365Y-19131857D01*
X39857365Y-19131857D02*
X39917842Y-19192333D01*
X39917842Y-19192333D02*
X39978318Y-19313285D01*
X39978318Y-19313285D02*
X39978318Y-19555190D01*
X39978318Y-19555190D02*
X39917842Y-19676142D01*
X39917842Y-19676142D02*
X39857365Y-19736619D01*
X39857365Y-19736619D02*
X39736413Y-19797095D01*
X39736413Y-19797095D02*
X38708318Y-19797095D01*
X38708318Y-20946142D02*
X38708318Y-20704237D01*
X38708318Y-20704237D02*
X38768794Y-20583285D01*
X38768794Y-20583285D02*
X38829270Y-20522809D01*
X38829270Y-20522809D02*
X39010699Y-20401856D01*
X39010699Y-20401856D02*
X39252603Y-20341380D01*
X39252603Y-20341380D02*
X39736413Y-20341380D01*
X39736413Y-20341380D02*
X39857365Y-20401856D01*
X39857365Y-20401856D02*
X39917842Y-20462333D01*
X39917842Y-20462333D02*
X39978318Y-20583285D01*
X39978318Y-20583285D02*
X39978318Y-20825190D01*
X39978318Y-20825190D02*
X39917842Y-20946142D01*
X39917842Y-20946142D02*
X39857365Y-21006618D01*
X39857365Y-21006618D02*
X39736413Y-21067095D01*
X39736413Y-21067095D02*
X39434032Y-21067095D01*
X39434032Y-21067095D02*
X39313080Y-21006618D01*
X39313080Y-21006618D02*
X39252603Y-20946142D01*
X39252603Y-20946142D02*
X39192127Y-20825190D01*
X39192127Y-20825190D02*
X39192127Y-20583285D01*
X39192127Y-20583285D02*
X39252603Y-20462333D01*
X39252603Y-20462333D02*
X39313080Y-20401856D01*
X39313080Y-20401856D02*
X39434032Y-20341380D01*
X22308318Y-19071380D02*
X23336413Y-19071380D01*
X23336413Y-19071380D02*
X23457365Y-19131857D01*
X23457365Y-19131857D02*
X23517842Y-19192333D01*
X23517842Y-19192333D02*
X23578318Y-19313285D01*
X23578318Y-19313285D02*
X23578318Y-19555190D01*
X23578318Y-19555190D02*
X23517842Y-19676142D01*
X23517842Y-19676142D02*
X23457365Y-19736619D01*
X23457365Y-19736619D02*
X23336413Y-19797095D01*
X23336413Y-19797095D02*
X22308318Y-19797095D01*
X22308318Y-21006618D02*
X22308318Y-20401856D01*
X22308318Y-20401856D02*
X22913080Y-20341380D01*
X22913080Y-20341380D02*
X22852603Y-20401856D01*
X22852603Y-20401856D02*
X22792127Y-20522809D01*
X22792127Y-20522809D02*
X22792127Y-20825190D01*
X22792127Y-20825190D02*
X22852603Y-20946142D01*
X22852603Y-20946142D02*
X22913080Y-21006618D01*
X22913080Y-21006618D02*
X23034032Y-21067095D01*
X23034032Y-21067095D02*
X23336413Y-21067095D01*
X23336413Y-21067095D02*
X23457365Y-21006618D01*
X23457365Y-21006618D02*
X23517842Y-20946142D01*
X23517842Y-20946142D02*
X23578318Y-20825190D01*
X23578318Y-20825190D02*
X23578318Y-20522809D01*
X23578318Y-20522809D02*
X23517842Y-20401856D01*
X23517842Y-20401856D02*
X23457365Y-20341380D01*
X5908318Y-19071380D02*
X6936413Y-19071380D01*
X6936413Y-19071380D02*
X7057365Y-19131857D01*
X7057365Y-19131857D02*
X7117842Y-19192333D01*
X7117842Y-19192333D02*
X7178318Y-19313285D01*
X7178318Y-19313285D02*
X7178318Y-19555190D01*
X7178318Y-19555190D02*
X7117842Y-19676142D01*
X7117842Y-19676142D02*
X7057365Y-19736619D01*
X7057365Y-19736619D02*
X6936413Y-19797095D01*
X6936413Y-19797095D02*
X5908318Y-19797095D01*
X6331651Y-20946142D02*
X7178318Y-20946142D01*
X5847842Y-20643761D02*
X6754984Y-20341380D01*
X6754984Y-20341380D02*
X6754984Y-21127571D01*
D10*
X49383333Y-224818D02*
X49383333Y-939103D01*
X49383333Y-939103D02*
X49430952Y-1081960D01*
X49430952Y-1081960D02*
X49526190Y-1177199D01*
X49526190Y-1177199D02*
X49669047Y-1224818D01*
X49669047Y-1224818D02*
X49764285Y-1224818D01*
X48478571Y-558151D02*
X48478571Y-1224818D01*
X48716666Y-177199D02*
X48954761Y-891484D01*
X48954761Y-891484D02*
X48335714Y-891484D01*
X-51446666Y27055180D02*
X-51446666Y26340895D01*
X-51446666Y26340895D02*
X-51399047Y26198038D01*
X-51399047Y26198038D02*
X-51303809Y26102800D01*
X-51303809Y26102800D02*
X-51160952Y26055180D01*
X-51160952Y26055180D02*
X-51065714Y26055180D01*
X-52351428Y27055180D02*
X-52160952Y27055180D01*
X-52160952Y27055180D02*
X-52065714Y27007561D01*
X-52065714Y27007561D02*
X-52018095Y26959942D01*
X-52018095Y26959942D02*
X-51922857Y26817085D01*
X-51922857Y26817085D02*
X-51875238Y26626609D01*
X-51875238Y26626609D02*
X-51875238Y26245657D01*
X-51875238Y26245657D02*
X-51922857Y26150419D01*
X-51922857Y26150419D02*
X-51970476Y26102800D01*
X-51970476Y26102800D02*
X-52065714Y26055180D01*
X-52065714Y26055180D02*
X-52256190Y26055180D01*
X-52256190Y26055180D02*
X-52351428Y26102800D01*
X-52351428Y26102800D02*
X-52399047Y26150419D01*
X-52399047Y26150419D02*
X-52446666Y26245657D01*
X-52446666Y26245657D02*
X-52446666Y26483752D01*
X-52446666Y26483752D02*
X-52399047Y26578990D01*
X-52399047Y26578990D02*
X-52351428Y26626609D01*
X-52351428Y26626609D02*
X-52256190Y26674228D01*
X-52256190Y26674228D02*
X-52065714Y26674228D01*
X-52065714Y26674228D02*
X-51970476Y26626609D01*
X-51970476Y26626609D02*
X-51922857Y26578990D01*
X-51922857Y26578990D02*
X-51875238Y26483752D01*
X-50616666Y-5054819D02*
X-50616666Y-5769104D01*
X-50616666Y-5769104D02*
X-50569047Y-5911961D01*
X-50569047Y-5911961D02*
X-50473809Y-6007200D01*
X-50473809Y-6007200D02*
X-50330952Y-6054819D01*
X-50330952Y-6054819D02*
X-50235714Y-6054819D01*
X-51616666Y-6054819D02*
X-51045238Y-6054819D01*
X-51330952Y-6054819D02*
X-51330952Y-5054819D01*
X-51330952Y-5054819D02*
X-51235714Y-5197676D01*
X-51235714Y-5197676D02*
X-51140476Y-5292914D01*
X-51140476Y-5292914D02*
X-51045238Y-5340533D01*
X-50366666Y6045180D02*
X-50366666Y5330895D01*
X-50366666Y5330895D02*
X-50319047Y5188038D01*
X-50319047Y5188038D02*
X-50223809Y5092800D01*
X-50223809Y5092800D02*
X-50080952Y5045180D01*
X-50080952Y5045180D02*
X-49985714Y5045180D01*
X-50795238Y5949942D02*
X-50842857Y5997561D01*
X-50842857Y5997561D02*
X-50938095Y6045180D01*
X-50938095Y6045180D02*
X-51176190Y6045180D01*
X-51176190Y6045180D02*
X-51271428Y5997561D01*
X-51271428Y5997561D02*
X-51319047Y5949942D01*
X-51319047Y5949942D02*
X-51366666Y5854704D01*
X-51366666Y5854704D02*
X-51366666Y5759466D01*
X-51366666Y5759466D02*
X-51319047Y5616609D01*
X-51319047Y5616609D02*
X-50747619Y5045180D01*
X-50747619Y5045180D02*
X-51366666Y5045180D01*
X-50626666Y-26224819D02*
X-50626666Y-26939104D01*
X-50626666Y-26939104D02*
X-50579047Y-27081961D01*
X-50579047Y-27081961D02*
X-50483809Y-27177200D01*
X-50483809Y-27177200D02*
X-50340952Y-27224819D01*
X-50340952Y-27224819D02*
X-50245714Y-27224819D01*
X-51007619Y-26224819D02*
X-51674285Y-26224819D01*
X-51674285Y-26224819D02*
X-51245714Y-27224819D01*
D12*
%TO.C,U17*%
X-35750000Y-16765000D02*
X-35750000Y-26295000D01*
X-47750000Y-26295000D02*
X-47750000Y-16765000D01*
X-35750000Y-26295000D02*
X-47750000Y-26295000D01*
X-44145000Y-16765000D02*
X-47750000Y-16765000D01*
X-39355000Y-16765000D02*
X-35750000Y-16765000D01*
X-41766000Y-26901000D02*
G75*
G02*
X-41940000Y-26901000I-87000J0D01*
G01*
X-41940000Y-26901000D02*
G75*
G02*
X-41766000Y-26901000I87000J0D01*
G01*
%TO.C,U16*%
X-19350000Y-16765000D02*
X-19350000Y-26295000D01*
X-31350000Y-26295000D02*
X-31350000Y-16765000D01*
X-19350000Y-26295000D02*
X-31350000Y-26295000D01*
X-27745000Y-16765000D02*
X-31350000Y-16765000D01*
X-22955000Y-16765000D02*
X-19350000Y-16765000D01*
X-25366000Y-26901000D02*
G75*
G02*
X-25540000Y-26901000I-87000J0D01*
G01*
X-25540000Y-26901000D02*
G75*
G02*
X-25366000Y-26901000I87000J0D01*
G01*
%TO.C,U15*%
X-2950000Y-16765000D02*
X-2950000Y-26295000D01*
X-14950000Y-26295000D02*
X-14950000Y-16765000D01*
X-2950000Y-26295000D02*
X-14950000Y-26295000D01*
X-11345000Y-16765000D02*
X-14950000Y-16765000D01*
X-6555000Y-16765000D02*
X-2950000Y-16765000D01*
X-8966000Y-26901000D02*
G75*
G02*
X-9140000Y-26901000I-87000J0D01*
G01*
X-9140000Y-26901000D02*
G75*
G02*
X-8966000Y-26901000I87000J0D01*
G01*
%TO.C,U14*%
X-47750000Y16765000D02*
X-47750000Y26295000D01*
X-35750000Y26295000D02*
X-35750000Y16765000D01*
X-47750000Y26295000D02*
X-35750000Y26295000D01*
X-39355000Y16765000D02*
X-35750000Y16765000D01*
X-44145000Y16765000D02*
X-47750000Y16765000D01*
X-41560000Y26901000D02*
G75*
G02*
X-41734000Y26901000I-87000J0D01*
G01*
X-41734000Y26901000D02*
G75*
G02*
X-41560000Y26901000I87000J0D01*
G01*
%TO.C,U13*%
X-31350000Y16765000D02*
X-31350000Y26295000D01*
X-19350000Y26295000D02*
X-19350000Y16765000D01*
X-31350000Y26295000D02*
X-19350000Y26295000D01*
X-22955000Y16765000D02*
X-19350000Y16765000D01*
X-27745000Y16765000D02*
X-31350000Y16765000D01*
X-25160000Y26901000D02*
G75*
G02*
X-25334000Y26901000I-87000J0D01*
G01*
X-25334000Y26901000D02*
G75*
G02*
X-25160000Y26901000I87000J0D01*
G01*
%TO.C,U10*%
X-14950000Y16765000D02*
X-14950000Y26295000D01*
X-2950000Y26295000D02*
X-2950000Y16765000D01*
X-14950000Y26295000D02*
X-2950000Y26295000D01*
X-6555000Y16765000D02*
X-2950000Y16765000D01*
X-11345000Y16765000D02*
X-14950000Y16765000D01*
X-8760000Y26901000D02*
G75*
G02*
X-8934000Y26901000I-87000J0D01*
G01*
X-8934000Y26901000D02*
G75*
G02*
X-8760000Y26901000I87000J0D01*
G01*
%TO.C,U9*%
X34250000Y16765000D02*
X34250000Y26295000D01*
X46250000Y26295000D02*
X46250000Y16765000D01*
X34250000Y26295000D02*
X46250000Y26295000D01*
X42645000Y16765000D02*
X46250000Y16765000D01*
X37855000Y16765000D02*
X34250000Y16765000D01*
X40440000Y26901000D02*
G75*
G02*
X40266000Y26901000I-87000J0D01*
G01*
X40266000Y26901000D02*
G75*
G02*
X40440000Y26901000I87000J0D01*
G01*
%TO.C,U8*%
X17850000Y16765000D02*
X17850000Y26295000D01*
X29850000Y26295000D02*
X29850000Y16765000D01*
X17850000Y26295000D02*
X29850000Y26295000D01*
X26245000Y16765000D02*
X29850000Y16765000D01*
X21455000Y16765000D02*
X17850000Y16765000D01*
X24040000Y26901000D02*
G75*
G02*
X23866000Y26901000I-87000J0D01*
G01*
X23866000Y26901000D02*
G75*
G02*
X24040000Y26901000I87000J0D01*
G01*
%TO.C,U7*%
X1450000Y16765000D02*
X1450000Y26295000D01*
X13450000Y26295000D02*
X13450000Y16765000D01*
X1450000Y26295000D02*
X13450000Y26295000D01*
X9845000Y16765000D02*
X13450000Y16765000D01*
X5055000Y16765000D02*
X1450000Y16765000D01*
X7640000Y26901000D02*
G75*
G02*
X7466000Y26901000I-87000J0D01*
G01*
X7466000Y26901000D02*
G75*
G02*
X7640000Y26901000I87000J0D01*
G01*
%TO.C,U6*%
X46250000Y-16765000D02*
X46250000Y-26295000D01*
X34250000Y-26295000D02*
X34250000Y-16765000D01*
X46250000Y-26295000D02*
X34250000Y-26295000D01*
X37855000Y-16765000D02*
X34250000Y-16765000D01*
X42645000Y-16765000D02*
X46250000Y-16765000D01*
X40234000Y-26901000D02*
G75*
G02*
X40060000Y-26901000I-87000J0D01*
G01*
X40060000Y-26901000D02*
G75*
G02*
X40234000Y-26901000I87000J0D01*
G01*
%TO.C,U5*%
X29850000Y-16765000D02*
X29850000Y-26295000D01*
X17850000Y-26295000D02*
X17850000Y-16765000D01*
X29850000Y-26295000D02*
X17850000Y-26295000D01*
X21455000Y-16765000D02*
X17850000Y-16765000D01*
X26245000Y-16765000D02*
X29850000Y-16765000D01*
X23834000Y-26901000D02*
G75*
G02*
X23660000Y-26901000I-87000J0D01*
G01*
X23660000Y-26901000D02*
G75*
G02*
X23834000Y-26901000I87000J0D01*
G01*
%TO.C,U4*%
X13450000Y-16765000D02*
X13450000Y-26295000D01*
X1450000Y-26295000D02*
X1450000Y-16765000D01*
X13450000Y-26295000D02*
X1450000Y-26295000D01*
X5055000Y-16765000D02*
X1450000Y-16765000D01*
X9845000Y-16765000D02*
X13450000Y-16765000D01*
X7434000Y-26901000D02*
G75*
G02*
X7260000Y-26901000I-87000J0D01*
G01*
X7260000Y-26901000D02*
G75*
G02*
X7434000Y-26901000I87000J0D01*
G01*
D13*
%TO.C,J4*%
X50420000Y-5140000D02*
X50420000Y2539999D01*
X50420000Y3810000D02*
X50420000Y5140000D01*
X50420000Y5140000D02*
X51750000Y5140000D01*
X50420000Y-5140000D02*
X53080000Y-5140000D01*
X50420000Y2539999D02*
X53080000Y2539999D01*
X53080000Y-5140000D02*
X53080000Y2539999D01*
D14*
%TO.C,U12*%
X10031000Y24047601D02*
G75*
G02*
X9269000Y24047601I-381000J0D01*
G01*
X9269000Y24047601D02*
G75*
G02*
X10031000Y24047601I381000J0D01*
G01*
D15*
%TO.C,G\u002A\u002A\u002A*%
G36*
X60018750Y23993211D02*
G01*
X60351938Y23993210D01*
X60417995Y23916415D01*
X60484052Y23839620D01*
X60484052Y17000000D01*
X60484052Y10160380D01*
X60417995Y10083584D01*
X60351938Y10006790D01*
X56050000Y10006789D01*
X51748062Y10006790D01*
X51682005Y10083584D01*
X51615948Y10160380D01*
X51615948Y10458405D01*
X52081250Y10458405D01*
X53518211Y10458405D01*
X53635011Y10458431D01*
X53903122Y10458691D01*
X54151893Y10459211D01*
X54376267Y10459961D01*
X54571187Y10460915D01*
X54731595Y10462045D01*
X54852433Y10463323D01*
X54928645Y10464723D01*
X54955172Y10466216D01*
X54954383Y10467326D01*
X54924125Y10485781D01*
X54858782Y10520396D01*
X54770420Y10564740D01*
X54462573Y10728596D01*
X54007754Y11020583D01*
X53580898Y11356804D01*
X53185643Y11733671D01*
X52825627Y12147601D01*
X52504488Y12595007D01*
X52225864Y13072305D01*
X52083086Y13346013D01*
X52082169Y11902209D01*
X52081250Y10458405D01*
X51615948Y10458405D01*
X51615948Y15357759D01*
X52078532Y15357759D01*
X52083086Y15309756D01*
X52094761Y15186692D01*
X52095360Y15180434D01*
X52133167Y14883147D01*
X52189010Y14573602D01*
X52259051Y14268531D01*
X52339461Y13984668D01*
X52426407Y13738747D01*
X52493893Y13579465D01*
X52690016Y13183248D01*
X52921137Y12793625D01*
X53176134Y12430008D01*
X53204116Y12394334D01*
X53324168Y12253542D01*
X53470710Y12095442D01*
X53631644Y11932070D01*
X53794869Y11775472D01*
X53948285Y11637685D01*
X54079792Y11530755D01*
X54082218Y11528934D01*
X54467671Y11266019D01*
X54877971Y11034695D01*
X55303923Y10838740D01*
X55736330Y10681938D01*
X56165997Y10568070D01*
X56583729Y10500919D01*
X56652500Y10493600D01*
X56769224Y10480626D01*
X56864278Y10469440D01*
X56980604Y10455051D01*
X56980604Y10458405D01*
X58887967Y10458405D01*
X59453358Y10458405D01*
X60018750Y10458405D01*
X60018750Y11023797D01*
X60018750Y11589188D01*
X59876648Y11386458D01*
X59833468Y11327930D01*
X59735193Y11206370D01*
X59623103Y11078253D01*
X59513986Y10963169D01*
X59451527Y10902690D01*
X59326652Y10789828D01*
X59199845Y10683505D01*
X59090697Y10600508D01*
X58887967Y10458405D01*
X56980604Y10458405D01*
X56980604Y11869716D01*
X57445904Y11869716D01*
X57445905Y10461847D01*
X57548545Y10476486D01*
X57930667Y10554152D01*
X58297164Y10679643D01*
X58636373Y10852086D01*
X58950363Y11072539D01*
X59241200Y11342058D01*
X59305802Y11412084D01*
X59548600Y11722013D01*
X59742181Y12053414D01*
X59885365Y12403990D01*
X59976966Y12771447D01*
X59982183Y12802397D01*
X60000793Y12932031D01*
X60013835Y13053609D01*
X60018750Y13144318D01*
X60018750Y13277586D01*
X58732328Y13277586D01*
X57445905Y13277586D01*
X57445904Y11869716D01*
X56980604Y11869716D01*
X56980604Y12906405D01*
X56980604Y14172490D01*
X57509099Y14172490D01*
X57515200Y14146606D01*
X57567279Y14044563D01*
X57661789Y13938901D01*
X57783672Y13844975D01*
X57919264Y13773226D01*
X58054903Y13734098D01*
X58157543Y13718959D01*
X58157543Y13963575D01*
X58157543Y14208190D01*
X57827250Y14208190D01*
X57826259Y14208190D01*
X57687825Y14207892D01*
X57595486Y14205870D01*
X57540648Y14200426D01*
X57514717Y14189865D01*
X57509099Y14172490D01*
X56980604Y14172490D01*
X56980604Y14534169D01*
X58622845Y14534169D01*
X58622845Y13715517D01*
X58732328Y13715517D01*
X59320797Y13715517D01*
X60018750Y13715517D01*
X60017283Y13845528D01*
X60008584Y13937504D01*
X59980456Y14077130D01*
X59938278Y14229807D01*
X59887598Y14375852D01*
X59833969Y14495582D01*
X59828272Y14506108D01*
X59740496Y14643521D01*
X59628744Y14786628D01*
X59508594Y14916937D01*
X59395622Y15015953D01*
X59265071Y15102160D01*
X59094537Y15194245D01*
X58921175Y15270048D01*
X58766541Y15319177D01*
X58622846Y15352821D01*
X58622845Y14534169D01*
X56980604Y14534169D01*
X56980604Y14704670D01*
X57494845Y14704670D01*
X57498011Y14665710D01*
X57526595Y14658508D01*
X57599878Y14653034D01*
X57705421Y14650711D01*
X57826259Y14651970D01*
X57831402Y14652024D01*
X58143858Y14659806D01*
X58151560Y14997214D01*
X58159262Y15334621D01*
X58096819Y15315307D01*
X58082161Y15310607D01*
X57896918Y15220928D01*
X57725545Y15080539D01*
X57690089Y15041764D01*
X57623566Y14954869D01*
X57564360Y14861532D01*
X57519207Y14774039D01*
X57494845Y14704670D01*
X56980604Y14704670D01*
X56980604Y15355534D01*
X59703987Y15355534D01*
X59789280Y15281377D01*
X59795946Y15275523D01*
X59874376Y15200943D01*
X59945796Y15125108D01*
X60017020Y15042996D01*
X60017885Y15200377D01*
X60018750Y15357759D01*
X59861369Y15356646D01*
X59703987Y15355534D01*
X56980604Y15355534D01*
X56980604Y15357759D01*
X54529568Y15357759D01*
X52078532Y15357759D01*
X51615948Y15357759D01*
X51615948Y15823060D01*
X52081250Y15823060D01*
X54529568Y15823060D01*
X56050000Y15823060D01*
X58159262Y15823060D01*
X58622845Y15823060D01*
X60018750Y15823060D01*
X60018750Y19686572D01*
X60018750Y23550081D01*
X59645040Y23532159D01*
X59357706Y23512402D01*
X58829323Y23447654D01*
X58297384Y23348190D01*
X57779454Y23217543D01*
X57293100Y23059243D01*
X56857446Y22880845D01*
X56404108Y22660532D01*
X55953520Y22408636D01*
X55520383Y22133382D01*
X55119397Y21842996D01*
X55038321Y21778027D01*
X54859216Y21624331D01*
X54662941Y21445030D01*
X54461001Y21251289D01*
X54264902Y21054267D01*
X54086149Y20865131D01*
X53936246Y20695043D01*
X53658510Y20343958D01*
X53296145Y19814257D01*
X52977041Y19256814D01*
X52703477Y18676618D01*
X52477739Y18078665D01*
X52302108Y17467948D01*
X52178866Y16849461D01*
X52166823Y16767373D01*
X52146526Y16611928D01*
X52126780Y16442553D01*
X52108983Y16272874D01*
X52094534Y16116524D01*
X52084831Y15987133D01*
X52081273Y15898330D01*
X52081250Y15823060D01*
X51615948Y15823060D01*
X51615948Y17000000D01*
X51615948Y20968750D01*
X52081250Y20968750D01*
X52081257Y20869326D01*
X52081400Y20503048D01*
X52081719Y20153715D01*
X52082201Y19825107D01*
X52082833Y19521004D01*
X52083599Y19245186D01*
X52084489Y19001431D01*
X52085489Y18793520D01*
X52086585Y18625233D01*
X52087763Y18500348D01*
X52089011Y18422646D01*
X52090315Y18395905D01*
X52090449Y18395933D01*
X52103852Y18421372D01*
X52132590Y18487740D01*
X52172526Y18585176D01*
X52219524Y18703825D01*
X52254027Y18790692D01*
X52521994Y19381565D01*
X52837878Y19949686D01*
X53198831Y20492143D01*
X53602001Y21006029D01*
X54044537Y21488432D01*
X54523590Y21936443D01*
X55036308Y22347154D01*
X55579842Y22717651D01*
X56151340Y23045028D01*
X56747953Y23326375D01*
X56812178Y23353572D01*
X56944894Y23409910D01*
X57058341Y23458248D01*
X57142134Y23494157D01*
X57185884Y23513204D01*
X57180534Y23515873D01*
X57128674Y23519787D01*
X57025998Y23523428D01*
X56874886Y23526772D01*
X56677720Y23529793D01*
X56436881Y23532466D01*
X56154749Y23534767D01*
X55833709Y23536670D01*
X55476139Y23538150D01*
X55084422Y23539183D01*
X54660938Y23539742D01*
X52081250Y23541595D01*
X52081250Y20968750D01*
X51615948Y20968750D01*
X51615948Y23839620D01*
X51682005Y23916415D01*
X51748062Y23993210D01*
X52081250Y23993211D01*
X56050000Y23993211D01*
X60018750Y23993211D01*
G37*
D13*
%TO.C,J6*%
X-59790000Y27830000D02*
X-59790000Y25170000D01*
X-59790000Y27830000D02*
X-57190000Y27830000D01*
X-59790000Y25170000D02*
X-57190000Y25170000D01*
X-57190000Y27830000D02*
X-57190000Y25170000D01*
X-54590000Y26500000D02*
X-54590000Y25170000D01*
X-54590000Y25170000D02*
X-55920000Y25170000D01*
%TO.C,J1*%
X-52050000Y-4170000D02*
X-52050000Y-5500000D01*
X-53380000Y-4170000D02*
X-52050000Y-4170000D01*
X-54650001Y-4170000D02*
X-54650001Y-6830000D01*
X-62330000Y-6830000D02*
X-54650001Y-6830000D01*
X-62330000Y-4170000D02*
X-54650001Y-4170000D01*
X-62330000Y-4170000D02*
X-62330000Y-6830000D01*
%TO.C,J2*%
X-52050000Y4170000D02*
X-52050000Y6830000D01*
X-52050000Y4170000D02*
X-59729999Y4170000D01*
X-52050000Y6830000D02*
X-59729999Y6830000D01*
X-59729999Y4170000D02*
X-59729999Y6830000D01*
X-61000000Y4170000D02*
X-62330000Y4170000D01*
X-62330000Y4170000D02*
X-62330000Y5500000D01*
%TO.C,J7*%
X-59790000Y-25170000D02*
X-58460000Y-25170000D01*
X-59790000Y-26500000D02*
X-59790000Y-25170000D01*
X-57189999Y-27830000D02*
X-57189999Y-25170000D01*
X-54590000Y-25170000D02*
X-57189999Y-25170000D01*
X-54590000Y-27830000D02*
X-57189999Y-27830000D01*
X-54590000Y-27830000D02*
X-54590000Y-25170000D01*
%TD*%
M02*
