%TF.GenerationSoftware,KiCad,Pcbnew,8.0.5*%
%TF.CreationDate,2024-10-25T17:11:02+01:00*%
%TF.ProjectId,V3,56332e6b-6963-4616-945f-706362585858,rev?*%
%TF.SameCoordinates,Original*%
%TF.FileFunction,Copper,L2,Bot*%
%TF.FilePolarity,Positive*%
%FSLAX46Y46*%
G04 Gerber Fmt 4.6, Leading zero omitted, Abs format (unit mm)*
G04 Created by KiCad (PCBNEW 8.0.5) date 2024-10-25 17:11:02*
%MOMM*%
%LPD*%
G01*
G04 APERTURE LIST*
%TA.AperFunction,ComponentPad*%
%ADD10C,2.800000*%
%TD*%
%TA.AperFunction,ComponentPad*%
%ADD11C,4.500000*%
%TD*%
%TA.AperFunction,SMDPad,CuDef*%
%ADD12C,1.000000*%
%TD*%
%TA.AperFunction,ComponentPad*%
%ADD13R,1.700000X1.700000*%
%TD*%
%TA.AperFunction,ComponentPad*%
%ADD14O,1.700000X1.700000*%
%TD*%
%TA.AperFunction,ViaPad*%
%ADD15C,0.800000*%
%TD*%
%TA.AperFunction,Conductor*%
%ADD16C,0.250000*%
%TD*%
%TA.AperFunction,Conductor*%
%ADD17C,1.000000*%
%TD*%
%TA.AperFunction,Conductor*%
%ADD18C,0.500000*%
%TD*%
G04 APERTURE END LIST*
D10*
%TO.P,U17,1*%
%TO.N,GND*%
X-39000000Y-23355000D03*
%TO.P,U17,2*%
X-39000000Y-15735000D03*
%TD*%
%TO.P,U16,1*%
%TO.N,Net-(U15-Pad1)*%
X-24500000Y-23355000D03*
%TO.P,U16,2*%
X-24500000Y-15735000D03*
%TD*%
%TO.P,U15,1*%
%TO.N,Net-(U15-Pad1)*%
X-10000000Y-23355000D03*
%TO.P,U15,2*%
X-10000000Y-15735000D03*
%TD*%
%TO.P,U14,1*%
%TO.N,Net-(U13-Pad1)*%
X-39000000Y25415000D03*
%TO.P,U14,2*%
X-39000000Y17795000D03*
%TD*%
%TO.P,U13,1*%
%TO.N,Net-(U13-Pad1)*%
X-24500000Y25415000D03*
%TO.P,U13,2*%
X-24500000Y17795000D03*
%TD*%
%TO.P,U10,1*%
%TO.N,unconnected-(U10-Pad1)*%
X-10000000Y25415000D03*
%TO.P,U10,2*%
%TO.N,Vin2*%
X-10000000Y17795000D03*
%TD*%
%TO.P,U9,1*%
%TO.N,GND*%
X39000000Y25316500D03*
%TO.P,U9,2*%
X39000000Y17696500D03*
%TD*%
%TO.P,U8,1*%
%TO.N,Net-(U7-Pad1)*%
X24500000Y25316500D03*
%TO.P,U8,2*%
X24500000Y17696500D03*
%TD*%
%TO.P,U7,1*%
%TO.N,Net-(U7-Pad1)*%
X10000000Y25406500D03*
%TO.P,U7,2*%
X10000000Y17786500D03*
%TD*%
%TO.P,U6,1*%
%TO.N,unconnected-(U6-Pad1)*%
X39000000Y-23453500D03*
%TO.P,U6,2*%
%TO.N,Net-(U5-Pad2)*%
X39000000Y-15833500D03*
%TD*%
%TO.P,U5,1*%
%TO.N,unconnected-(U5-Pad1)*%
X24500000Y-23453500D03*
%TO.P,U5,2*%
%TO.N,Net-(U5-Pad2)*%
X24500000Y-15833500D03*
%TD*%
%TO.P,U4,1*%
%TO.N,unconnected-(U4-Pad1)*%
X10000000Y-23363500D03*
%TO.P,U4,2*%
%TO.N,Vin1*%
X10000000Y-15743500D03*
%TD*%
D11*
%TO.P,H1,1,1*%
%TO.N,GND*%
X60000000Y0D03*
%TD*%
D12*
%TO.P,FID3,*%
%TO.N,*%
X-62930000Y-29350000D03*
%TD*%
%TO.P,FID2,*%
%TO.N,*%
X-62950000Y29360000D03*
%TD*%
D13*
%TO.P,J6,1,Pin_1*%
%TO.N,GND*%
X-55920000Y27500000D03*
D14*
%TO.P,J6,2,Pin_2*%
%TO.N,Net-(D5-A)*%
X-58460000Y27500000D03*
%TD*%
D13*
%TO.P,J4,1,Pin_1*%
%TO.N,GND*%
X51550000Y5500000D03*
D14*
%TO.P,J4,2,Pin_2*%
%TO.N,CO2_VCC*%
X54090000Y5500000D03*
%TO.P,J4,3,Pin_3*%
%TO.N,SCL*%
X56629999Y5500000D03*
%TO.P,J4,4,Pin_4*%
%TO.N,SDA*%
X59170000Y5500000D03*
%TD*%
D12*
%TO.P,FID4,*%
%TO.N,*%
X62960000Y-29390000D03*
%TD*%
D13*
%TO.P,J1,1,Pin_1*%
%TO.N,GND*%
X-53380000Y-5500000D03*
D14*
%TO.P,J1,2,Pin_2*%
%TO.N,CO2_VCC*%
X-55920000Y-5500000D03*
%TO.P,J1,3,Pin_3*%
%TO.N,SCL*%
X-58459999Y-5500000D03*
%TO.P,J1,4,Pin_4*%
%TO.N,SDA*%
X-61000000Y-5500000D03*
%TD*%
D13*
%TO.P,J2,1,Pin_1*%
%TO.N,GND*%
X-61000000Y5500000D03*
D14*
%TO.P,J2,2,Pin_2*%
%TO.N,CO2_VCC*%
X-58460000Y5500000D03*
%TO.P,J2,3,Pin_3*%
%TO.N,SCL*%
X-55920001Y5500000D03*
%TO.P,J2,4,Pin_4*%
%TO.N,SDA*%
X-53380000Y5500000D03*
%TD*%
D11*
%TO.P,H2,1,1*%
%TO.N,GND*%
X-60000000Y0D03*
%TD*%
D13*
%TO.P,J7,1,Pin_1*%
%TO.N,GND*%
X-58460000Y-27500000D03*
D14*
%TO.P,J7,2,Pin_2*%
%TO.N,Net-(D6-A)*%
X-55920000Y-27500000D03*
%TD*%
D15*
%TO.N,GND*%
X-25400000Y10550000D03*
X21950000Y24060000D03*
X21390000Y26810000D03*
X27640000Y14460000D03*
X22410000Y16430000D03*
X25490000Y14280000D03*
X22440000Y14320000D03*
X23880000Y14360000D03*
X11780000Y15190000D03*
X13810000Y16680000D03*
X13530000Y18840000D03*
X16090000Y16630000D03*
X18710000Y16630000D03*
X27550000Y16480000D03*
X9290000Y-2410000D03*
X-37930000Y-9830000D03*
X-32960000Y-9920000D03*
X-32480000Y7650000D03*
X60190000Y-26010000D03*
X18810000Y14370000D03*
X23690000Y-9130000D03*
X20220000Y-4960000D03*
X17270000Y-3750000D03*
X15790000Y-2130000D03*
X16130000Y14490000D03*
X13730000Y14450000D03*
X-22710000Y7870000D03*
X-17440000Y7820000D03*
X13640000Y4420000D03*
X13690000Y6260000D03*
X12750000Y8150000D03*
X11750000Y9100000D03*
X10410000Y10490000D03*
X9540000Y11410000D03*
X8970000Y13410000D03*
X7530000Y13430000D03*
X5570000Y13490000D03*
X3320000Y13440000D03*
X950000Y13410000D03*
X-1610000Y13420000D03*
X-3850000Y13370000D03*
X-6080000Y13440000D03*
X-8670000Y13440000D03*
X-12240000Y13390000D03*
X-16150000Y13460000D03*
%TO.N,GSM_VCC*%
X29225000Y16605000D03*
%TO.N,GND*%
X28500000Y-890000D03*
X22590000Y-4950000D03*
X18500000Y-4940000D03*
X13650000Y900000D03*
%TO.N,DISPLAY_BUSY*%
X-35200000Y-9510000D03*
%TO.N,DISPLAY_SCK*%
X-34110000Y-12120000D03*
%TO.N,MCU_3V3*%
X42290000Y-26565000D03*
%TO.N,USB_5V*%
X45650000Y-26220000D03*
%TO.N,DISPLAY_MOSI*%
X-46970000Y4230000D03*
%TO.N,GND*%
X54320000Y-120000D03*
X15270000Y-10910000D03*
X14610000Y-9200000D03*
X22320000Y-11280000D03*
X19730000Y-8840000D03*
X-31600000Y-22500000D03*
X48540000Y-220000D03*
X30470000Y1080000D03*
X33760000Y-8670000D03*
X28430000Y-8990000D03*
X31260000Y-11230000D03*
X27240000Y-11220000D03*
X7960000Y6090000D03*
X13870000Y-7450000D03*
X45620000Y-190000D03*
X42750000Y-200000D03*
X35760000Y-240000D03*
X33420000Y-2200000D03*
X-38640000Y13170000D03*
X-42360000Y13190000D03*
X-8750000Y7790000D03*
X-12060000Y7760000D03*
%TO.N,GSM_PWR*%
X38260000Y-9930000D03*
%TO.N,GND*%
X-53800000Y-25420000D03*
X-63200000Y-27290000D03*
X-60710000Y25440000D03*
X-63160000Y25480000D03*
X-63200000Y27550000D03*
X12020000Y-6000000D03*
X8390000Y-3730000D03*
X-17320000Y26460000D03*
X-21630000Y26390000D03*
X-25640000Y23010000D03*
X4690000Y-24580000D03*
X4720000Y-19150000D03*
X-4870000Y-18960000D03*
X-1620000Y-15330000D03*
X1670000Y-15360000D03*
X4500000Y-15330000D03*
X-4790000Y-15410000D03*
X-45170000Y8840000D03*
X-23150000Y23490000D03*
X-9000000Y-9490000D03*
X9000000Y-9510000D03*
X-2990000Y-12910000D03*
X0Y-9520000D03*
X-32920000Y-6480000D03*
X-35380000Y-6410000D03*
X-37680000Y-6370000D03*
%TO.N,DISPLAY_DC*%
X52950000Y-3430000D03*
X16870000Y-10840000D03*
X25960000Y-8385000D03*
X-42450000Y9000000D03*
%TO.N,DISPLAY_MOSI*%
X-44150000Y4230000D03*
%TO.N,CO2_PWR*%
X52190000Y-25370000D03*
X54850000Y-20830000D03*
%TO.N,GSM_PWR*%
X-23720000Y10590000D03*
%TO.N,MCU_3V3*%
X53700000Y-27220000D03*
%TO.N,DISPLAY_SCK*%
X-38310000Y5060000D03*
%TO.N,CO2_VCC*%
X-29140000Y14850000D03*
X-45980000Y-4750000D03*
%TO.N,GSM_VCC*%
X-28580000Y18960000D03*
%TO.N,Net-(ANT1-FEED_(50_OHM))*%
X53350000Y16171225D03*
X50950000Y10750000D03*
%TO.N,DISPLAY_RST*%
X27620000Y-6680000D03*
X52990000Y-1920000D03*
X-42200000Y7250000D03*
%TO.N,DISPLAY_BUSY*%
X-38580000Y7490000D03*
%TO.N,GND*%
X-44990000Y-2420000D03*
X5924200Y97200D03*
X3424200Y5047200D03*
X-44890000Y12910000D03*
X-36540000Y20740000D03*
X42050000Y9250000D03*
X32100000Y10050000D03*
X5490000Y8010000D03*
X49650000Y7100000D03*
X-10000Y8010000D03*
X17200000Y-22050000D03*
X-60950000Y3500000D03*
X-41550000Y29600000D03*
X30200000Y10100000D03*
X19850000Y29600000D03*
X5924200Y-2002800D03*
X-50440000Y-25420000D03*
X3724200Y-2002800D03*
X-14050000Y26200000D03*
X-40530000Y20610000D03*
X49583000Y13984600D03*
X-48950000Y29600000D03*
X-49050000Y22600000D03*
X49600000Y29350000D03*
X-3570000Y-29600000D03*
X21950000Y-17500000D03*
X-45030000Y1730000D03*
X-32450000Y-2200000D03*
X-60140000Y-29570000D03*
X-30300000Y-29600000D03*
X46650000Y11700000D03*
X40950000Y29600000D03*
X-6001000Y5144200D03*
X33900000Y10000000D03*
X-24800000Y29600000D03*
X35500000Y-22000000D03*
X42100000Y11750000D03*
X8600000Y-29580000D03*
X-32450000Y5100000D03*
X-41720000Y10440000D03*
X63200000Y4600000D03*
X44800000Y29600000D03*
X34250000Y22800000D03*
X49650000Y9200000D03*
X41450000Y-17500000D03*
X45650000Y4120000D03*
X-6001000Y2144200D03*
X-32550000Y10300000D03*
X-54650000Y29600000D03*
X46600000Y9250000D03*
X33320000Y-11180000D03*
X27550000Y-22050000D03*
X1524200Y-2002800D03*
X-56730000Y29540000D03*
X-50000Y29500000D03*
X12650000Y-22050000D03*
X17150000Y-15700000D03*
X4430000Y-29600000D03*
X5924200Y-902800D03*
X-43050000Y-4000000D03*
X59790000Y-21100000D03*
X-3300000Y21600000D03*
X-15400000Y29600000D03*
X17150000Y-24100000D03*
X-11610000Y-29580000D03*
X2624200Y-902800D03*
X11550000Y29600000D03*
X38000000Y29600000D03*
X-63180000Y-25440000D03*
X-43900000Y29600000D03*
X8300000Y-17400000D03*
X-15330000Y-29570000D03*
X45100000Y9300000D03*
X7450000Y-22050000D03*
X35450000Y-17600000D03*
X-30930000Y12350000D03*
X-23020000Y-29570000D03*
X-43960000Y-29580000D03*
X-49230000Y-8190000D03*
X62550000Y6950000D03*
X42520000Y-29600000D03*
X4670000Y-21100000D03*
X33260000Y3810000D03*
X1524200Y-902800D03*
X-45150000Y7100000D03*
X-37120000Y-29580000D03*
X2300000Y29600000D03*
X-1760000Y8010000D03*
X43650000Y11750000D03*
X-43150000Y-7700000D03*
X-40410000Y-29600000D03*
X43540000Y-22170000D03*
X-8450000Y29600000D03*
X-45130000Y5290000D03*
X33390000Y-29580000D03*
X3724200Y97200D03*
X-3275800Y6397200D03*
X-21700000Y29600000D03*
X46160000Y-18919883D03*
X63170000Y-1970000D03*
X17150000Y-17400000D03*
X52950000Y7100000D03*
X-275800Y5087200D03*
X-49100000Y16850000D03*
X41400000Y-22050000D03*
X1524200Y97200D03*
X-16640000Y18840000D03*
X35800000Y14800000D03*
X63180000Y-26110000D03*
X-21110000Y7780000D03*
X-33750000Y29600000D03*
X-19290000Y-29590000D03*
X4824200Y97200D03*
X-15180000Y7750000D03*
X48200000Y11700000D03*
X27550000Y-17500000D03*
X32750000Y14800000D03*
X42700000Y4110000D03*
X63190000Y-21160000D03*
X29850000Y-29600000D03*
X49600000Y11750000D03*
X63160000Y-30000D03*
X12650000Y-17400000D03*
X-32350000Y1400000D03*
X-49050000Y19700000D03*
X-53950000Y-29580000D03*
X-26850000Y-29600000D03*
X-6001000Y-855800D03*
X-30950000Y29600000D03*
X-58540000Y3430000D03*
X38250000Y-5640000D03*
X15100000Y29600000D03*
X39960000Y-10830000D03*
X-12000000Y29600000D03*
X46130000Y-20960000D03*
X-4850000Y-21840000D03*
X-6001000Y3644200D03*
X19960000Y-29570000D03*
X-7510000Y-29580000D03*
X49583000Y22984600D03*
X-49030000Y-15500000D03*
X12360000Y-29590000D03*
X-18750000Y29600000D03*
X3740000Y8010000D03*
X2624200Y-2002800D03*
X-58190000Y-29590000D03*
X4824200Y-2002800D03*
X-56390000Y-29560000D03*
X-49100000Y13740000D03*
X2624200Y97200D03*
X-51150000Y-4200000D03*
X-6001000Y644200D03*
X27350000Y29600000D03*
X24900000Y-29590000D03*
X-31550000Y-18950000D03*
X-60840000Y-25530000D03*
X-7600000Y26250000D03*
X-60750000Y29600000D03*
X49583000Y18484600D03*
X-34080000Y-29600000D03*
X34050000Y14850000D03*
X4824200Y-902800D03*
X-36600000Y29600000D03*
X22000000Y1250000D03*
X30550000Y29600000D03*
X-2650000Y29600000D03*
X57900000Y7100000D03*
X7900000Y29600000D03*
X23800000Y29600000D03*
X58060000Y-29600000D03*
X49583000Y15484600D03*
X34250000Y25350000D03*
X55350000Y7100000D03*
X-39050000Y29550000D03*
X-6010000Y8010000D03*
X63160000Y1980000D03*
X52350000Y-29600000D03*
X-45040000Y-6900000D03*
X1990000Y8010000D03*
X-49060000Y-11550000D03*
X48680000Y4120000D03*
X-49140000Y-24140000D03*
X-6001000Y6644200D03*
X-20000Y-29600000D03*
X40550000Y11750000D03*
X49583000Y19984600D03*
X37450000Y10450000D03*
X-39000000Y-13250000D03*
X49583000Y25984600D03*
X31700000Y-22000000D03*
X-27900000Y29600000D03*
X15820000Y-29590000D03*
X31450000Y14800000D03*
X-41750000Y-23400000D03*
X37150000Y7300000D03*
X34100000Y29600000D03*
X49583000Y27484600D03*
X49583000Y16984600D03*
X6800000Y21350000D03*
X47060000Y-29600000D03*
X60350000Y7100000D03*
X41990000Y-5650000D03*
X63150000Y-9300000D03*
X-3760000Y8010000D03*
X-23000000Y-5550000D03*
X-50180000Y-29530000D03*
X-46500000Y29600000D03*
X43600000Y9250000D03*
X63180000Y-4510000D03*
X37900000Y-29590000D03*
X60850000Y-29570000D03*
X44150000Y-17500000D03*
X-32450000Y3300000D03*
X31550000Y-17500000D03*
X38900000Y11750000D03*
X49583000Y21484600D03*
X-47380000Y-29570000D03*
X-42850000Y600000D03*
X3724200Y-902800D03*
X-49080000Y-19320000D03*
X22000000Y-22050000D03*
X48200000Y9250000D03*
X-58650000Y29600000D03*
X34200000Y20450000D03*
X45150000Y11750000D03*
%TO.N,USB_5V*%
X61440000Y-28060000D03*
%TO.N,TVS_IO*%
X-495000Y21955000D03*
X1000000Y23450000D03*
%TO.N,TVS_CLK*%
X2660000Y24790000D03*
X3860000Y19000000D03*
%TO.N,GND*%
X6970000Y7010000D03*
X52270000Y-4640000D03*
X54820000Y-4670000D03*
%TD*%
D16*
%TO.N,GSM_PWR*%
X10490000Y5710000D02*
X10490000Y-1640000D01*
X38250000Y-9920000D02*
X38260000Y-9930000D01*
X-23720000Y10590000D02*
X-22550000Y9420000D01*
X-22550000Y9420000D02*
X6780000Y9420000D01*
X6780000Y9420000D02*
X10490000Y5710000D01*
X10490000Y-1640000D02*
X18770000Y-9920000D01*
X18770000Y-9920000D02*
X38250000Y-9920000D01*
D17*
%TO.N,Net-(U7-Pad1)*%
X10000000Y25406500D02*
X10000000Y17786500D01*
D18*
%TO.N,GND*%
X50060000Y5500000D02*
X51550000Y5500000D01*
X48680000Y4120000D02*
X50060000Y5500000D01*
%TO.N,GSM_VCC*%
X29225000Y16605000D02*
X28150000Y15530000D01*
X28150000Y15530000D02*
X13405000Y15530000D01*
X13405000Y15530000D02*
X10280000Y12405000D01*
X10280000Y12405000D02*
X-16851878Y12405000D01*
X-19361878Y14915000D02*
X-26485000Y14915000D01*
X-16851878Y12405000D02*
X-19361878Y14915000D01*
X-26485000Y14915000D02*
X-28580000Y17010000D01*
X-28580000Y17010000D02*
X-28580000Y18960000D01*
D16*
%TO.N,DISPLAY_MOSI*%
X-46970000Y4230000D02*
X-44150000Y4230000D01*
D18*
%TO.N,CO2_VCC*%
X-45980000Y-4750000D02*
X-46030000Y-4800000D01*
X-50950000Y-7500000D02*
X-56200000Y-7500000D01*
X-46030000Y-4800000D02*
X-48250000Y-4800000D01*
X-48250000Y-4800000D02*
X-50950000Y-7500000D01*
%TO.N,USB_5V*%
X61440000Y-28060000D02*
X61160000Y-28340000D01*
X61160000Y-28340000D02*
X56340000Y-28340000D01*
X56340000Y-28340000D02*
X54220000Y-26220000D01*
X54220000Y-26220000D02*
X45650000Y-26220000D01*
%TO.N,MCU_3V3*%
X53700000Y-27220000D02*
X42945000Y-27220000D01*
X42945000Y-27220000D02*
X42290000Y-26565000D01*
D16*
%TO.N,DISPLAY_DC*%
X25960000Y-8385000D02*
X27045000Y-8385000D01*
X27045000Y-8385000D02*
X29430000Y-6000000D01*
X29430000Y-4980000D02*
X35030000Y620000D01*
X29430000Y-6000000D02*
X29430000Y-4980000D01*
X35030000Y620000D02*
X48880000Y620000D01*
X48880000Y620000D02*
X52930000Y-3430000D01*
X52930000Y-3430000D02*
X52950000Y-3430000D01*
%TO.N,DISPLAY_RST*%
X11020000Y-1320000D02*
X11020000Y6030000D01*
X7030000Y10020000D02*
X-19620000Y10020000D01*
X27620000Y-6680000D02*
X26640000Y-7660000D01*
X-19620000Y10020000D02*
X-20925000Y11325000D01*
X28980000Y-4710000D02*
X34840000Y1150000D01*
X11020000Y6030000D02*
X7030000Y10020000D01*
X-20925000Y11325000D02*
X-43005000Y11325000D01*
X34840000Y1150000D02*
X49780000Y1150000D01*
X26640000Y-7660000D02*
X17360000Y-7660000D01*
X17360000Y-7660000D02*
X11020000Y-1320000D01*
X-43550000Y7250000D02*
X-42200000Y7250000D01*
X-43005000Y11325000D02*
X-44360000Y9970000D01*
X28980000Y-5320000D02*
X28980000Y-4710000D01*
X-44360000Y9970000D02*
X-44360000Y8060000D01*
X-44360000Y8060000D02*
X-43550000Y7250000D01*
X27620000Y-6680000D02*
X28980000Y-5320000D01*
X49780000Y1150000D02*
X52850000Y-1920000D01*
X52850000Y-1920000D02*
X52990000Y-1920000D01*
D18*
%TO.N,CO2_VCC*%
X-29140000Y14850000D02*
X-28505000Y14215000D01*
X-19651827Y14215000D02*
X-17141827Y11705000D01*
X-28505000Y14215000D02*
X-19651827Y14215000D01*
X12730000Y6840000D02*
X12730000Y-656828D01*
X52250000Y2900000D02*
X54090000Y4740000D01*
X54090000Y4740000D02*
X54090000Y5500000D01*
X-17141827Y11705000D02*
X7865000Y11705000D01*
X18098172Y-6025000D02*
X25165000Y-6025000D01*
X7865000Y11705000D02*
X12730000Y6840000D01*
X12730000Y-656828D02*
X18098172Y-6025000D01*
X25165000Y-6025000D02*
X34090000Y2900000D01*
X34090000Y2900000D02*
X52250000Y2900000D01*
D16*
%TO.N,TVS_IO*%
X-495000Y21955000D02*
X1000000Y23450000D01*
%TO.N,TVS_CLK*%
X3860000Y19000000D02*
X2630000Y20230000D01*
X2630000Y20230000D02*
X2630000Y24760000D01*
X2630000Y24760000D02*
X2660000Y24790000D01*
%TO.N,DISPLAY_SCK*%
X-34930000Y-12120000D02*
X-36510000Y-10540000D01*
X-34110000Y-12120000D02*
X-34930000Y-12120000D01*
X-36510000Y-10540000D02*
X-36510000Y3260000D01*
X-36510000Y3260000D02*
X-38310000Y5060000D01*
%TO.N,DISPLAY_BUSY*%
X-37570000Y7490000D02*
X-34320000Y4240000D01*
X-35200000Y-9510000D02*
X-34275000Y-8585000D01*
X-34275000Y-8585000D02*
X-34275000Y4195000D01*
X-34275000Y4195000D02*
X-34320000Y4240000D01*
%TO.N,CO2_PWR*%
X52190000Y-25370000D02*
X52190000Y-23440000D01*
X54800000Y-20830000D02*
X54850000Y-20830000D01*
X52190000Y-23440000D02*
X54800000Y-20830000D01*
%TO.N,DISPLAY_BUSY*%
X-38580000Y7490000D02*
X-37570000Y7490000D01*
%TO.N,SDA*%
X-43925000Y11775000D02*
X-50200000Y5500000D01*
X-36095000Y13125000D02*
X-37445000Y11775000D01*
X-20365000Y13125000D02*
X-36095000Y13125000D01*
X-37445000Y11775000D02*
X-43925000Y11775000D01*
X11550000Y6290000D02*
X7260000Y10580000D01*
X59170000Y5500000D02*
X55350000Y1680000D01*
X17640000Y-7140000D02*
X11550000Y-1050000D01*
X11550000Y-1050000D02*
X11550000Y6290000D01*
X25760000Y-7140000D02*
X17640000Y-7140000D01*
X34580000Y1680000D02*
X25760000Y-7140000D01*
X7260000Y10580000D02*
X-17820000Y10580000D01*
X-50200000Y5500000D02*
X-53380000Y5500000D01*
X55350000Y1680000D02*
X34580000Y1680000D01*
X-17820000Y10580000D02*
X-20365000Y13125000D01*
%TO.N,SCL*%
X-44111396Y12225000D02*
X-49051396Y7285000D01*
X-36420000Y13640000D02*
X-37835000Y12225000D01*
X-19890000Y13640000D02*
X-36420000Y13640000D01*
X-17380000Y11130000D02*
X-19890000Y13640000D01*
X-37835000Y12225000D02*
X-44111396Y12225000D01*
X12090000Y6510000D02*
X7470000Y11130000D01*
X7470000Y11130000D02*
X-17380000Y11130000D01*
X-49051396Y7285000D02*
X-54135000Y7285000D01*
X12090000Y-830000D02*
X12090000Y6510000D01*
X17860000Y-6600000D02*
X12090000Y-830000D01*
X34380000Y2250000D02*
X25530000Y-6600000D01*
X53379999Y2250000D02*
X34380000Y2250000D01*
X-54135000Y7285000D02*
X-55920001Y5500000D01*
X25530000Y-6600000D02*
X17860000Y-6600000D01*
X56629999Y5500000D02*
X53379999Y2250000D01*
%TO.N,DISPLAY_DC*%
X16870000Y-10840000D02*
X15710000Y-9680000D01*
X15710000Y-9680000D02*
X15710000Y-7710000D01*
X15710000Y-7710000D02*
X9990000Y-1990000D01*
X-41900000Y9550000D02*
X-42450000Y9000000D01*
X9990000Y-1990000D02*
X9990000Y5410000D01*
X9990000Y5410000D02*
X6510000Y8890000D01*
X6510000Y8890000D02*
X-36890000Y8890000D01*
X-36890000Y8890000D02*
X-37550000Y9550000D01*
X-37550000Y9550000D02*
X-41900000Y9550000D01*
D18*
%TO.N,GND*%
X51550000Y5500000D02*
X51550000Y6790000D01*
X51550000Y6790000D02*
X51240000Y7100000D01*
X51240000Y7100000D02*
X49650000Y7100000D01*
X39000000Y17696500D02*
X36953500Y17696500D01*
X36953500Y17696500D02*
X34200000Y20450000D01*
X39000000Y25316500D02*
X34283500Y25316500D01*
X34283500Y25316500D02*
X34250000Y25350000D01*
X-39000000Y-23355000D02*
X-41705000Y-23355000D01*
X-41705000Y-23355000D02*
X-41750000Y-23400000D01*
X-39000000Y-15735000D02*
X-39000000Y-13250000D01*
X-60000000Y0D02*
X-60000000Y2550000D01*
X-60000000Y2550000D02*
X-60950000Y3500000D01*
X-60050000Y-27500000D02*
X-60880000Y-26670000D01*
X-58460000Y-27500000D02*
X-60050000Y-27500000D01*
X-60880000Y-26670000D02*
X-60840000Y-26630000D01*
X-60840000Y-26630000D02*
X-60840000Y-25530000D01*
X-55920000Y27500000D02*
X-55920000Y28730000D01*
X-55920000Y28730000D02*
X-56730000Y29540000D01*
%TO.N,CO2_VCC*%
X-62200000Y7750000D02*
X-63200000Y6750000D01*
X-55920000Y-7220000D02*
X-55920000Y-5500000D01*
X-59200000Y7750000D02*
X-58460000Y7010000D01*
X-63200000Y6750000D02*
X-63200000Y-6500000D01*
X-59200000Y7750000D02*
X-62200000Y7750000D01*
X-58460000Y7010000D02*
X-58460000Y5500000D01*
X-62200000Y-7500000D02*
X-56200000Y-7500000D01*
X-63200000Y-6500000D02*
X-62200000Y-7500000D01*
X-56200000Y-7500000D02*
X-55920000Y-7220000D01*
%TO.N,GND*%
X63130000Y0D02*
X63160000Y-30000D01*
X-48950000Y29600000D02*
X-48950000Y29500000D01*
X60000000Y0D02*
X63130000Y0D01*
X-61000000Y3550000D02*
X-60950000Y3500000D01*
X-52450000Y-5500000D02*
X-51150000Y-4200000D01*
X-53380000Y-5500000D02*
X-52450000Y-5500000D01*
X-61000000Y5500000D02*
X-61000000Y3550000D01*
D17*
%TO.N,Net-(U7-Pad1)*%
X24160000Y25406500D02*
X10000000Y25406500D01*
D18*
%TO.N,Net-(U13-Pad1)*%
X-39000000Y17795000D02*
X-39000000Y25415000D01*
X-24500000Y17795000D02*
X-24500000Y25415000D01*
%TD*%
%TA.AperFunction,Conductor*%
%TO.N,Net-(ANT1-FEED_(50_OHM))*%
G36*
X54593039Y19280315D02*
G01*
X54638794Y19227511D01*
X54650000Y19176000D01*
X54650000Y10424000D01*
X54630315Y10356961D01*
X54577511Y10311206D01*
X54526000Y10300000D01*
X50674000Y10300000D01*
X50606961Y10319685D01*
X50561206Y10372489D01*
X50550000Y10424000D01*
X50550000Y19176000D01*
X50569685Y19243039D01*
X50622489Y19288794D01*
X50674000Y19300000D01*
X54526000Y19300000D01*
X54593039Y19280315D01*
G37*
%TD.AperFunction*%
%TD*%
%TA.AperFunction,Conductor*%
%TO.N,GND*%
G36*
X49564992Y29979538D02*
G01*
X49595732Y29955976D01*
X49922766Y29629644D01*
X50009067Y29543529D01*
X50047702Y29476775D01*
X50052820Y29438380D01*
X50081624Y16044701D01*
X50097608Y8611837D01*
X50100000Y7500000D01*
X62988282Y7500000D01*
X63062782Y7480038D01*
X63093641Y7456359D01*
X63555859Y6994141D01*
X63594423Y6927346D01*
X63599500Y6888782D01*
X63599500Y-28348773D01*
X63579538Y-28423273D01*
X63525000Y-28477811D01*
X63450500Y-28497773D01*
X63380262Y-28480179D01*
X63344731Y-28461187D01*
X63156134Y-28403976D01*
X62960000Y-28384659D01*
X62763865Y-28403976D01*
X62575268Y-28461187D01*
X62401473Y-28554083D01*
X62401465Y-28554088D01*
X62401463Y-28554089D01*
X62401462Y-28554090D01*
X62249117Y-28679117D01*
X62156909Y-28791473D01*
X62124088Y-28831465D01*
X62124083Y-28831473D01*
X62031187Y-29005268D01*
X61973976Y-29193865D01*
X61954659Y-29390000D01*
X61973976Y-29586134D01*
X62031187Y-29774730D01*
X62034143Y-29780260D01*
X62051658Y-29855373D01*
X62029270Y-29929180D01*
X61972978Y-29981905D01*
X61902738Y-29999500D01*
X-61894118Y-29999500D01*
X-61968618Y-29979538D01*
X-62023156Y-29925000D01*
X-62043118Y-29850500D01*
X-62025525Y-29780262D01*
X-62001186Y-29734727D01*
X-61943976Y-29546134D01*
X-61924659Y-29350000D01*
X-61943976Y-29153865D01*
X-62001187Y-28965268D01*
X-62094083Y-28791473D01*
X-62094088Y-28791465D01*
X-62103079Y-28780510D01*
X-62219117Y-28639117D01*
X-62371462Y-28514090D01*
X-62371463Y-28514089D01*
X-62371465Y-28514088D01*
X-62371473Y-28514083D01*
X-62545268Y-28421187D01*
X-62733865Y-28363976D01*
X-62930000Y-28344659D01*
X-63126134Y-28363976D01*
X-63227725Y-28394794D01*
X-63314727Y-28421186D01*
X-63314728Y-28421186D01*
X-63314729Y-28421187D01*
X-63380263Y-28456215D01*
X-63455376Y-28473728D01*
X-63529183Y-28451339D01*
X-63581907Y-28395045D01*
X-63599500Y-28324808D01*
X-63599500Y-26605204D01*
X-59609999Y-26605204D01*
X-59609999Y-28394794D01*
X-59607090Y-28419874D01*
X-59561787Y-28522477D01*
X-59561787Y-28522478D01*
X-59482478Y-28601786D01*
X-59379871Y-28647091D01*
X-59354795Y-28649999D01*
X-57565205Y-28649999D01*
X-57540125Y-28647090D01*
X-57437522Y-28601787D01*
X-57358213Y-28522478D01*
X-57312908Y-28419871D01*
X-57310000Y-28394795D01*
X-57310000Y-27886878D01*
X-57290038Y-27812378D01*
X-57235500Y-27757840D01*
X-57161000Y-27737878D01*
X-57086500Y-27757840D01*
X-57031962Y-27812378D01*
X-57017688Y-27846100D01*
X-56997405Y-27917389D01*
X-56902366Y-28108255D01*
X-56773872Y-28278407D01*
X-56616302Y-28422052D01*
X-56435019Y-28534298D01*
X-56236198Y-28611321D01*
X-56026610Y-28650500D01*
X-56026607Y-28650500D01*
X-55813393Y-28650500D01*
X-55813390Y-28650500D01*
X-55603802Y-28611321D01*
X-55456052Y-28554083D01*
X-55404983Y-28534299D01*
X-55404977Y-28534296D01*
X-55223698Y-28422052D01*
X-55223697Y-28422051D01*
X-55138802Y-28344659D01*
X-55066128Y-28278407D01*
X-55028722Y-28228874D01*
X-54937636Y-28108259D01*
X-54842594Y-27917387D01*
X-54842593Y-27917385D01*
X-54800801Y-27770500D01*
X-54784244Y-27712310D01*
X-54784243Y-27712307D01*
X-54784243Y-27712305D01*
X-54764571Y-27500004D01*
X-54764571Y-27499995D01*
X-54784243Y-27287694D01*
X-54842593Y-27082614D01*
X-54842594Y-27082612D01*
X-54937636Y-26891740D01*
X-55066127Y-26721593D01*
X-55223697Y-26577948D01*
X-55223698Y-26577947D01*
X-55244608Y-26565000D01*
X41584355Y-26565000D01*
X41604860Y-26733874D01*
X41665181Y-26892929D01*
X41665182Y-26892930D01*
X41761817Y-27032929D01*
X41761819Y-27032930D01*
X41761820Y-27032932D01*
X41889146Y-27145732D01*
X41889148Y-27145734D01*
X42039775Y-27224790D01*
X42173943Y-27257859D01*
X42241501Y-27295069D01*
X42243645Y-27297170D01*
X42606985Y-27660510D01*
X42710892Y-27720500D01*
X42710893Y-27720501D01*
X42732511Y-27732982D01*
X42732515Y-27732984D01*
X42872525Y-27770500D01*
X42872526Y-27770500D01*
X43017474Y-27770500D01*
X53208917Y-27770500D01*
X53283417Y-27790462D01*
X53293563Y-27796878D01*
X53299146Y-27800732D01*
X53299148Y-27800734D01*
X53449775Y-27879790D01*
X53614944Y-27920500D01*
X53785056Y-27920500D01*
X53950225Y-27879790D01*
X54100852Y-27800734D01*
X54228183Y-27687929D01*
X54324818Y-27547930D01*
X54365344Y-27441069D01*
X54410427Y-27378490D01*
X54480760Y-27346835D01*
X54557497Y-27354587D01*
X54610021Y-27388546D01*
X56001985Y-28780510D01*
X56127515Y-28852984D01*
X56267525Y-28890500D01*
X61232475Y-28890500D01*
X61372485Y-28852984D01*
X61498015Y-28780510D01*
X61498019Y-28780505D01*
X61498884Y-28779843D01*
X61500589Y-28779023D01*
X61506472Y-28775627D01*
X61506728Y-28776072D01*
X61553931Y-28753383D01*
X61690225Y-28719790D01*
X61840852Y-28640734D01*
X61968183Y-28527929D01*
X62064818Y-28387930D01*
X62125140Y-28228872D01*
X62145645Y-28060000D01*
X62125140Y-27891128D01*
X62095274Y-27812378D01*
X62064818Y-27732070D01*
X62056831Y-27720499D01*
X61968183Y-27592071D01*
X61968180Y-27592068D01*
X61968179Y-27592067D01*
X61840853Y-27479267D01*
X61840854Y-27479267D01*
X61690224Y-27400209D01*
X61525056Y-27359500D01*
X61354944Y-27359500D01*
X61189775Y-27400209D01*
X61039145Y-27479267D01*
X60911820Y-27592067D01*
X60911817Y-27592071D01*
X60819964Y-27725142D01*
X60761214Y-27775114D01*
X60697340Y-27789500D01*
X56629743Y-27789500D01*
X56555243Y-27769538D01*
X56524384Y-27745859D01*
X54558015Y-25779490D01*
X54432483Y-25707015D01*
X54432484Y-25707015D01*
X54398575Y-25697929D01*
X54292475Y-25669500D01*
X53027465Y-25669500D01*
X52952965Y-25649538D01*
X52898427Y-25595000D01*
X52878465Y-25520500D01*
X52879550Y-25502549D01*
X52895645Y-25370000D01*
X52875140Y-25201128D01*
X52871118Y-25190524D01*
X52814818Y-25042070D01*
X52813999Y-25040884D01*
X52718183Y-24902071D01*
X52665693Y-24855569D01*
X52623168Y-24791225D01*
X52615500Y-24744042D01*
X52615500Y-23677965D01*
X52635462Y-23603465D01*
X52659137Y-23572610D01*
X54657606Y-21574140D01*
X54724401Y-21535577D01*
X54762965Y-21530500D01*
X54935056Y-21530500D01*
X55100225Y-21489790D01*
X55250852Y-21410734D01*
X55378183Y-21297929D01*
X55474818Y-21157930D01*
X55535140Y-20998872D01*
X55555645Y-20830000D01*
X55535140Y-20661128D01*
X55474818Y-20502070D01*
X55378183Y-20362071D01*
X55378180Y-20362068D01*
X55378179Y-20362067D01*
X55250853Y-20249267D01*
X55250854Y-20249267D01*
X55100224Y-20170209D01*
X54935056Y-20129500D01*
X54764944Y-20129500D01*
X54599775Y-20170209D01*
X54449145Y-20249267D01*
X54321820Y-20362067D01*
X54321817Y-20362071D01*
X54225181Y-20502070D01*
X54164860Y-20661125D01*
X54143269Y-20838947D01*
X54139969Y-20838546D01*
X54124393Y-20896678D01*
X54100714Y-20927537D01*
X51928737Y-23099513D01*
X51928738Y-23099514D01*
X51849512Y-23178740D01*
X51793498Y-23275761D01*
X51764500Y-23383980D01*
X51764500Y-24744042D01*
X51744538Y-24818542D01*
X51714306Y-24855570D01*
X51661817Y-24902071D01*
X51565181Y-25042070D01*
X51504860Y-25201125D01*
X51504860Y-25201128D01*
X51484355Y-25370000D01*
X51500448Y-25502542D01*
X51489612Y-25578903D01*
X51442046Y-25639617D01*
X51370495Y-25668414D01*
X51352535Y-25669500D01*
X46141083Y-25669500D01*
X46066583Y-25649538D01*
X46056437Y-25643122D01*
X46050849Y-25639264D01*
X45900224Y-25560209D01*
X45735056Y-25519500D01*
X45564944Y-25519500D01*
X45399775Y-25560209D01*
X45249145Y-25639267D01*
X45121820Y-25752067D01*
X45121817Y-25752071D01*
X45025181Y-25892070D01*
X44964860Y-26051125D01*
X44964860Y-26051128D01*
X44944355Y-26220000D01*
X44964860Y-26388872D01*
X44964860Y-26388873D01*
X44964861Y-26388876D01*
X44994741Y-26467665D01*
X45002493Y-26544402D01*
X44970838Y-26614735D01*
X44908258Y-26659818D01*
X44855423Y-26669500D01*
X43234743Y-26669500D01*
X43160243Y-26649538D01*
X43129384Y-26625859D01*
X43021929Y-26518404D01*
X42983365Y-26451609D01*
X42979375Y-26431013D01*
X42975140Y-26396128D01*
X42914818Y-26237070D01*
X42818183Y-26097071D01*
X42818180Y-26097068D01*
X42818179Y-26097067D01*
X42690853Y-25984267D01*
X42690854Y-25984267D01*
X42540224Y-25905209D01*
X42375056Y-25864500D01*
X42204944Y-25864500D01*
X42039775Y-25905209D01*
X41889145Y-25984267D01*
X41761820Y-26097067D01*
X41761817Y-26097071D01*
X41665181Y-26237070D01*
X41604860Y-26396125D01*
X41584355Y-26565000D01*
X-55244608Y-26565000D01*
X-55404977Y-26465703D01*
X-55404983Y-26465700D01*
X-55603795Y-26388681D01*
X-55603802Y-26388679D01*
X-55813385Y-26349500D01*
X-55813390Y-26349500D01*
X-56026610Y-26349500D01*
X-56026614Y-26349500D01*
X-56194280Y-26380843D01*
X-56236198Y-26388679D01*
X-56236200Y-26388680D01*
X-56236204Y-26388681D01*
X-56435016Y-26465700D01*
X-56435022Y-26465703D01*
X-56616301Y-26577947D01*
X-56616302Y-26577948D01*
X-56773872Y-26721593D01*
X-56902363Y-26891740D01*
X-56902364Y-26891743D01*
X-56902366Y-26891745D01*
X-56972668Y-27032932D01*
X-56997405Y-27082612D01*
X-56997407Y-27082616D01*
X-57017688Y-27153898D01*
X-57057275Y-27220091D01*
X-57124656Y-27257623D01*
X-57201775Y-27256435D01*
X-57267968Y-27216848D01*
X-57305500Y-27149467D01*
X-57310000Y-27113123D01*
X-57310000Y-26605205D01*
X-57312909Y-26580125D01*
X-57358212Y-26477522D01*
X-57437522Y-26398213D01*
X-57437521Y-26398213D01*
X-57540128Y-26352908D01*
X-57565204Y-26350000D01*
X-59354794Y-26350000D01*
X-59379874Y-26352909D01*
X-59482477Y-26398212D01*
X-59561786Y-26477521D01*
X-59607091Y-26580128D01*
X-59609999Y-26605204D01*
X-63599500Y-26605204D01*
X-63599500Y-25190524D01*
X-63579538Y-25116024D01*
X-63556079Y-25085387D01*
X-63515217Y-25044356D01*
X-63448503Y-25005656D01*
X-63409644Y-25000500D01*
X-50892687Y-25000500D01*
X-50892683Y-25000500D01*
X-50892672Y-25000498D01*
X-50892668Y-25000498D01*
X-50680235Y-24969956D01*
X-50680226Y-24969954D01*
X-50598143Y-24945851D01*
X-50474290Y-24909485D01*
X-50474288Y-24909484D01*
X-50474287Y-24909484D01*
X-50376670Y-24864903D01*
X-50279050Y-24820322D01*
X-50098487Y-24704281D01*
X-49936276Y-24563724D01*
X-49795719Y-24401513D01*
X-49679676Y-24220947D01*
X-49679676Y-24220946D01*
X-49590515Y-24025712D01*
X-49590515Y-24025710D01*
X-49530045Y-23819773D01*
X-49530043Y-23819764D01*
X-49499501Y-23607331D01*
X-49499500Y-23607313D01*
X-49499500Y-23354995D01*
X-40704767Y-23354995D01*
X-40704767Y-23355004D01*
X-40685727Y-23609070D01*
X-40685724Y-23609092D01*
X-40629031Y-23857481D01*
X-40629029Y-23857488D01*
X-40535943Y-24094666D01*
X-40535941Y-24094671D01*
X-40408545Y-24315326D01*
X-40408540Y-24315334D01*
X-40249683Y-24514536D01*
X-40062904Y-24687841D01*
X-39852381Y-24831372D01*
X-39622830Y-24941918D01*
X-39622809Y-24941926D01*
X-39379351Y-25017023D01*
X-39379347Y-25017024D01*
X-39127400Y-25054999D01*
X-39127394Y-25055000D01*
X-38872606Y-25055000D01*
X-38872599Y-25054999D01*
X-38620652Y-25017024D01*
X-38620648Y-25017023D01*
X-38377187Y-24941925D01*
X-38377182Y-24941924D01*
X-38147622Y-24831375D01*
X-37937092Y-24687838D01*
X-37750316Y-24514536D01*
X-37591459Y-24315334D01*
X-37591454Y-24315326D01*
X-37464058Y-24094671D01*
X-37464056Y-24094666D01*
X-37370970Y-23857488D01*
X-37370968Y-23857481D01*
X-37314275Y-23609092D01*
X-37314272Y-23609070D01*
X-37295233Y-23355004D01*
X-37295233Y-23354995D01*
X-37295233Y-23354994D01*
X-26205268Y-23354994D01*
X-26205268Y-23355005D01*
X-26203096Y-23383982D01*
X-26186222Y-23609157D01*
X-26129508Y-23857637D01*
X-26036393Y-24094888D01*
X-25908959Y-24315612D01*
X-25750050Y-24514877D01*
X-25563217Y-24688232D01*
X-25352634Y-24831805D01*
X-25123004Y-24942389D01*
X-24879458Y-25017513D01*
X-24627435Y-25055500D01*
X-24627433Y-25055500D01*
X-24372567Y-25055500D01*
X-24372565Y-25055500D01*
X-24120542Y-25017513D01*
X-24120539Y-25017512D01*
X-24120538Y-25017512D01*
X-24120536Y-25017511D01*
X-24118957Y-25017024D01*
X-23876996Y-24942389D01*
X-23712974Y-24863400D01*
X-23647370Y-24831807D01*
X-23647369Y-24831806D01*
X-23647366Y-24831805D01*
X-23436783Y-24688232D01*
X-23249950Y-24514877D01*
X-23249949Y-24514875D01*
X-23249946Y-24514873D01*
X-23091045Y-24315617D01*
X-23091041Y-24315612D01*
X-23020477Y-24193391D01*
X-22963608Y-24094891D01*
X-22963605Y-24094884D01*
X-22870491Y-23857636D01*
X-22870490Y-23857632D01*
X-22813779Y-23609164D01*
X-22813776Y-23609144D01*
X-22794732Y-23355005D01*
X-22794732Y-23354994D01*
X-11705268Y-23354994D01*
X-11705268Y-23355005D01*
X-11703096Y-23383982D01*
X-11686222Y-23609157D01*
X-11629508Y-23857637D01*
X-11536393Y-24094888D01*
X-11408959Y-24315612D01*
X-11250050Y-24514877D01*
X-11063217Y-24688232D01*
X-10852634Y-24831805D01*
X-10623004Y-24942389D01*
X-10379458Y-25017513D01*
X-10127435Y-25055500D01*
X-10127433Y-25055500D01*
X-9872567Y-25055500D01*
X-9872565Y-25055500D01*
X-9836076Y-25050000D01*
X-4200000Y-25050000D01*
X4050000Y-25050000D01*
X4068432Y-23363494D01*
X8294732Y-23363494D01*
X8294732Y-23363505D01*
X8313776Y-23617644D01*
X8313779Y-23617664D01*
X8370490Y-23866132D01*
X8370491Y-23866136D01*
X8463605Y-24103384D01*
X8463608Y-24103391D01*
X8515163Y-24192686D01*
X8591041Y-24324112D01*
X8591045Y-24324117D01*
X8749946Y-24523373D01*
X8749949Y-24523375D01*
X8749950Y-24523377D01*
X8936783Y-24696732D01*
X9147366Y-24840305D01*
X9376996Y-24950889D01*
X9592986Y-25017513D01*
X9620536Y-25026011D01*
X9620538Y-25026012D01*
X9620539Y-25026012D01*
X9620542Y-25026013D01*
X9872565Y-25064000D01*
X9872567Y-25064000D01*
X10127433Y-25064000D01*
X10127435Y-25064000D01*
X10379458Y-25026013D01*
X10623004Y-24950889D01*
X10852634Y-24840305D01*
X11063217Y-24696732D01*
X11250050Y-24523377D01*
X11408959Y-24324112D01*
X11536393Y-24103388D01*
X11629508Y-23866137D01*
X11686222Y-23617657D01*
X11686864Y-23609092D01*
X11698524Y-23453494D01*
X22794732Y-23453494D01*
X22794732Y-23453505D01*
X22813776Y-23707644D01*
X22813779Y-23707664D01*
X22870490Y-23956132D01*
X22870491Y-23956136D01*
X22963605Y-24193384D01*
X22963608Y-24193391D01*
X23027324Y-24303750D01*
X23091041Y-24414112D01*
X23091045Y-24414117D01*
X23249946Y-24613373D01*
X23249949Y-24613375D01*
X23249950Y-24613377D01*
X23436783Y-24786732D01*
X23647366Y-24930305D01*
X23876996Y-25040889D01*
X24120536Y-25116011D01*
X24120538Y-25116012D01*
X24120539Y-25116012D01*
X24120542Y-25116013D01*
X24372565Y-25154000D01*
X24372567Y-25154000D01*
X24627433Y-25154000D01*
X24627435Y-25154000D01*
X24879458Y-25116013D01*
X25123004Y-25040889D01*
X25352634Y-24930305D01*
X25563217Y-24786732D01*
X25750050Y-24613377D01*
X25908959Y-24414112D01*
X26036393Y-24193388D01*
X26129508Y-23956137D01*
X26186222Y-23707657D01*
X26192966Y-23617664D01*
X26205268Y-23453505D01*
X26205268Y-23453494D01*
X37294732Y-23453494D01*
X37294732Y-23453505D01*
X37313776Y-23707644D01*
X37313779Y-23707664D01*
X37370490Y-23956132D01*
X37370491Y-23956136D01*
X37463605Y-24193384D01*
X37463608Y-24193391D01*
X37527324Y-24303750D01*
X37591041Y-24414112D01*
X37591045Y-24414117D01*
X37749946Y-24613373D01*
X37749949Y-24613375D01*
X37749950Y-24613377D01*
X37936783Y-24786732D01*
X38147366Y-24930305D01*
X38376996Y-25040889D01*
X38620536Y-25116011D01*
X38620538Y-25116012D01*
X38620539Y-25116012D01*
X38620542Y-25116013D01*
X38872565Y-25154000D01*
X38872567Y-25154000D01*
X39127433Y-25154000D01*
X39127435Y-25154000D01*
X39379458Y-25116013D01*
X39623004Y-25040889D01*
X39852634Y-24930305D01*
X40063217Y-24786732D01*
X40250050Y-24613377D01*
X40408959Y-24414112D01*
X40536393Y-24193388D01*
X40629508Y-23956137D01*
X40686222Y-23707657D01*
X40692966Y-23617664D01*
X40705268Y-23453505D01*
X40705268Y-23453494D01*
X40686223Y-23199355D01*
X40686222Y-23199353D01*
X40686222Y-23199343D01*
X40629508Y-22950863D01*
X40536393Y-22713612D01*
X40408959Y-22492888D01*
X40337186Y-22402888D01*
X40250053Y-22293626D01*
X40153052Y-22203623D01*
X40063217Y-22120268D01*
X39852634Y-21976695D01*
X39852631Y-21976694D01*
X39852629Y-21976692D01*
X39623013Y-21866115D01*
X39623009Y-21866113D01*
X39623004Y-21866111D01*
X39622996Y-21866108D01*
X39622992Y-21866107D01*
X39379463Y-21790988D01*
X39379461Y-21790987D01*
X39127437Y-21753000D01*
X39127435Y-21753000D01*
X38872565Y-21753000D01*
X38872562Y-21753000D01*
X38620538Y-21790987D01*
X38620536Y-21790988D01*
X38377007Y-21866107D01*
X38376986Y-21866115D01*
X38147370Y-21976692D01*
X37936780Y-22120270D01*
X37749946Y-22293626D01*
X37591045Y-22492882D01*
X37591040Y-22492890D01*
X37463608Y-22713608D01*
X37463605Y-22713615D01*
X37370491Y-22950863D01*
X37370490Y-22950867D01*
X37313779Y-23199335D01*
X37313776Y-23199355D01*
X37294732Y-23453494D01*
X26205268Y-23453494D01*
X26186223Y-23199355D01*
X26186222Y-23199353D01*
X26186222Y-23199343D01*
X26129508Y-22950863D01*
X26036393Y-22713612D01*
X25908959Y-22492888D01*
X25837186Y-22402888D01*
X25750053Y-22293626D01*
X25653052Y-22203623D01*
X25563217Y-22120268D01*
X25352634Y-21976695D01*
X25352631Y-21976694D01*
X25352629Y-21976692D01*
X25123013Y-21866115D01*
X25123009Y-21866113D01*
X25123004Y-21866111D01*
X25122996Y-21866108D01*
X25122992Y-21866107D01*
X24879463Y-21790988D01*
X24879461Y-21790987D01*
X24627437Y-21753000D01*
X24627435Y-21753000D01*
X24372565Y-21753000D01*
X24372562Y-21753000D01*
X24120538Y-21790987D01*
X24120536Y-21790988D01*
X23877007Y-21866107D01*
X23876986Y-21866115D01*
X23647370Y-21976692D01*
X23436780Y-22120270D01*
X23249946Y-22293626D01*
X23091045Y-22492882D01*
X23091040Y-22492890D01*
X22963608Y-22713608D01*
X22963605Y-22713615D01*
X22870491Y-22950863D01*
X22870490Y-22950867D01*
X22813779Y-23199335D01*
X22813776Y-23199355D01*
X22794732Y-23453494D01*
X11698524Y-23453494D01*
X11705268Y-23363505D01*
X11705268Y-23363494D01*
X11686223Y-23109355D01*
X11686222Y-23109353D01*
X11686222Y-23109343D01*
X11629508Y-22860863D01*
X11536393Y-22623612D01*
X11531610Y-22615328D01*
X11460920Y-22492888D01*
X11408959Y-22402888D01*
X11321823Y-22293623D01*
X11250053Y-22203626D01*
X11241255Y-22195463D01*
X11063217Y-22030268D01*
X10852634Y-21886695D01*
X10852631Y-21886694D01*
X10852629Y-21886692D01*
X10623013Y-21776115D01*
X10623009Y-21776113D01*
X10623004Y-21776111D01*
X10622996Y-21776108D01*
X10622992Y-21776107D01*
X10379463Y-21700988D01*
X10379461Y-21700987D01*
X10127437Y-21663000D01*
X10127435Y-21663000D01*
X9872565Y-21663000D01*
X9872562Y-21663000D01*
X9620538Y-21700987D01*
X9620536Y-21700988D01*
X9377007Y-21776107D01*
X9376986Y-21776115D01*
X9147370Y-21886692D01*
X8936780Y-22030270D01*
X8749946Y-22203626D01*
X8591045Y-22402882D01*
X8591040Y-22402890D01*
X8463608Y-22623608D01*
X8463605Y-22623615D01*
X8370491Y-22860863D01*
X8370490Y-22860867D01*
X8313779Y-23109335D01*
X8313776Y-23109355D01*
X8294732Y-23363494D01*
X4068432Y-23363494D01*
X4150000Y-15900000D01*
X-4200000Y-15900000D01*
X-4200000Y-25050000D01*
X-9836076Y-25050000D01*
X-9620542Y-25017513D01*
X-9620539Y-25017512D01*
X-9620538Y-25017512D01*
X-9620536Y-25017511D01*
X-9618957Y-25017024D01*
X-9376996Y-24942389D01*
X-9212974Y-24863400D01*
X-9147370Y-24831807D01*
X-9147369Y-24831806D01*
X-9147366Y-24831805D01*
X-8936783Y-24688232D01*
X-8749950Y-24514877D01*
X-8749949Y-24514875D01*
X-8749946Y-24514873D01*
X-8591045Y-24315617D01*
X-8591041Y-24315612D01*
X-8520477Y-24193391D01*
X-8463608Y-24094891D01*
X-8463605Y-24094884D01*
X-8370491Y-23857636D01*
X-8370490Y-23857632D01*
X-8313779Y-23609164D01*
X-8313776Y-23609144D01*
X-8294732Y-23355005D01*
X-8294732Y-23354994D01*
X-8313776Y-23100855D01*
X-8313779Y-23100835D01*
X-8370490Y-22852367D01*
X-8370491Y-22852363D01*
X-8463605Y-22615115D01*
X-8463608Y-22615108D01*
X-8577575Y-22417710D01*
X-8591041Y-22394388D01*
X-8591042Y-22394386D01*
X-8591045Y-22394382D01*
X-8749946Y-22195126D01*
X-8936780Y-22021770D01*
X-9147370Y-21878192D01*
X-9376986Y-21767615D01*
X-9377007Y-21767607D01*
X-9620536Y-21692488D01*
X-9620538Y-21692487D01*
X-9872562Y-21654500D01*
X-9872565Y-21654500D01*
X-10127435Y-21654500D01*
X-10127437Y-21654500D01*
X-10379461Y-21692487D01*
X-10379463Y-21692488D01*
X-10622992Y-21767607D01*
X-10622996Y-21767608D01*
X-10623004Y-21767611D01*
X-10623009Y-21767613D01*
X-10623013Y-21767615D01*
X-10852629Y-21878192D01*
X-10852631Y-21878194D01*
X-10852634Y-21878195D01*
X-11063217Y-22021768D01*
X-11063640Y-22022161D01*
X-11250053Y-22195126D01*
X-11328604Y-22293626D01*
X-11408959Y-22394388D01*
X-11536393Y-22615112D01*
X-11629508Y-22852363D01*
X-11686222Y-23100843D01*
X-11686222Y-23100853D01*
X-11686223Y-23100855D01*
X-11705268Y-23354994D01*
X-22794732Y-23354994D01*
X-22813776Y-23100855D01*
X-22813779Y-23100835D01*
X-22870490Y-22852367D01*
X-22870491Y-22852363D01*
X-22963605Y-22615115D01*
X-22963608Y-22615108D01*
X-23077575Y-22417710D01*
X-23091041Y-22394388D01*
X-23091042Y-22394386D01*
X-23091045Y-22394382D01*
X-23249946Y-22195126D01*
X-23436780Y-22021770D01*
X-23647370Y-21878192D01*
X-23876986Y-21767615D01*
X-23877007Y-21767607D01*
X-24120536Y-21692488D01*
X-24120538Y-21692487D01*
X-24372562Y-21654500D01*
X-24372565Y-21654500D01*
X-24627435Y-21654500D01*
X-24627437Y-21654500D01*
X-24879461Y-21692487D01*
X-24879463Y-21692488D01*
X-25122992Y-21767607D01*
X-25122996Y-21767608D01*
X-25123004Y-21767611D01*
X-25123009Y-21767613D01*
X-25123013Y-21767615D01*
X-25352629Y-21878192D01*
X-25352631Y-21878194D01*
X-25352634Y-21878195D01*
X-25563217Y-22021768D01*
X-25563640Y-22022161D01*
X-25750053Y-22195126D01*
X-25828604Y-22293626D01*
X-25908959Y-22394388D01*
X-26036393Y-22615112D01*
X-26129508Y-22852363D01*
X-26186222Y-23100843D01*
X-26186222Y-23100853D01*
X-26186223Y-23100855D01*
X-26205268Y-23354994D01*
X-37295233Y-23354994D01*
X-37314272Y-23100929D01*
X-37314275Y-23100907D01*
X-37370968Y-22852518D01*
X-37370970Y-22852511D01*
X-37464056Y-22615333D01*
X-37464058Y-22615328D01*
X-37591454Y-22394673D01*
X-37591459Y-22394665D01*
X-37750316Y-22195463D01*
X-37937092Y-22022161D01*
X-38147622Y-21878624D01*
X-38377182Y-21768075D01*
X-38377187Y-21768074D01*
X-38620648Y-21692976D01*
X-38620652Y-21692975D01*
X-38872599Y-21655000D01*
X-39127400Y-21655000D01*
X-39379347Y-21692975D01*
X-39379351Y-21692976D01*
X-39622809Y-21768073D01*
X-39622830Y-21768081D01*
X-39852381Y-21878627D01*
X-40062904Y-22022158D01*
X-40249683Y-22195463D01*
X-40408540Y-22394665D01*
X-40408545Y-22394673D01*
X-40535941Y-22615328D01*
X-40535943Y-22615333D01*
X-40629029Y-22852511D01*
X-40629031Y-22852518D01*
X-40685724Y-23100907D01*
X-40685727Y-23100929D01*
X-40704767Y-23354995D01*
X-49499500Y-23354995D01*
X-49499500Y-15734995D01*
X-40704767Y-15734995D01*
X-40704767Y-15735004D01*
X-40685727Y-15989070D01*
X-40685724Y-15989092D01*
X-40629031Y-16237481D01*
X-40629029Y-16237488D01*
X-40535943Y-16474666D01*
X-40535941Y-16474671D01*
X-40408545Y-16695326D01*
X-40408540Y-16695334D01*
X-40249683Y-16894536D01*
X-40062904Y-17067841D01*
X-39852381Y-17211372D01*
X-39622830Y-17321918D01*
X-39622809Y-17321926D01*
X-39379351Y-17397023D01*
X-39379347Y-17397024D01*
X-39127400Y-17434999D01*
X-39127394Y-17435000D01*
X-38872606Y-17435000D01*
X-38872599Y-17434999D01*
X-38620652Y-17397024D01*
X-38620648Y-17397023D01*
X-38377187Y-17321925D01*
X-38377182Y-17321924D01*
X-38147622Y-17211375D01*
X-37937092Y-17067838D01*
X-37750316Y-16894536D01*
X-37591459Y-16695334D01*
X-37591454Y-16695326D01*
X-37464058Y-16474671D01*
X-37464056Y-16474666D01*
X-37370970Y-16237488D01*
X-37370968Y-16237481D01*
X-37314275Y-15989092D01*
X-37314272Y-15989070D01*
X-37295233Y-15735004D01*
X-37295233Y-15734995D01*
X-37295233Y-15734994D01*
X-26205268Y-15734994D01*
X-26205268Y-15735005D01*
X-26204631Y-15743500D01*
X-26186222Y-15989157D01*
X-26129508Y-16237637D01*
X-26036393Y-16474888D01*
X-25908959Y-16695612D01*
X-25750050Y-16894877D01*
X-25563217Y-17068232D01*
X-25352634Y-17211805D01*
X-25123004Y-17322389D01*
X-24879458Y-17397513D01*
X-24627435Y-17435500D01*
X-24627433Y-17435500D01*
X-24372567Y-17435500D01*
X-24372565Y-17435500D01*
X-24120542Y-17397513D01*
X-24120539Y-17397512D01*
X-24120538Y-17397512D01*
X-24120536Y-17397511D01*
X-24118957Y-17397024D01*
X-23876996Y-17322389D01*
X-23712974Y-17243400D01*
X-23647370Y-17211807D01*
X-23647369Y-17211806D01*
X-23647366Y-17211805D01*
X-23436783Y-17068232D01*
X-23249950Y-16894877D01*
X-23249949Y-16894875D01*
X-23249946Y-16894873D01*
X-23091045Y-16695617D01*
X-23091041Y-16695612D01*
X-23020477Y-16573391D01*
X-22963608Y-16474891D01*
X-22963605Y-16474884D01*
X-22870491Y-16237636D01*
X-22870490Y-16237632D01*
X-22813779Y-15989164D01*
X-22813776Y-15989144D01*
X-22794732Y-15735005D01*
X-22794732Y-15734994D01*
X-11705268Y-15734994D01*
X-11705268Y-15735005D01*
X-11704631Y-15743500D01*
X-11686222Y-15989157D01*
X-11629508Y-16237637D01*
X-11536393Y-16474888D01*
X-11408959Y-16695612D01*
X-11250050Y-16894877D01*
X-11063217Y-17068232D01*
X-10852634Y-17211805D01*
X-10623004Y-17322389D01*
X-10379458Y-17397513D01*
X-10127435Y-17435500D01*
X-10127433Y-17435500D01*
X-9872567Y-17435500D01*
X-9872565Y-17435500D01*
X-9620542Y-17397513D01*
X-9620539Y-17397512D01*
X-9620538Y-17397512D01*
X-9620536Y-17397511D01*
X-9618957Y-17397024D01*
X-9376996Y-17322389D01*
X-9212974Y-17243400D01*
X-9147370Y-17211807D01*
X-9147369Y-17211806D01*
X-9147366Y-17211805D01*
X-8936783Y-17068232D01*
X-8749950Y-16894877D01*
X-8749949Y-16894875D01*
X-8749946Y-16894873D01*
X-8591045Y-16695617D01*
X-8591041Y-16695612D01*
X-8520477Y-16573391D01*
X-8463608Y-16474891D01*
X-8463605Y-16474884D01*
X-8370491Y-16237636D01*
X-8370490Y-16237632D01*
X-8313779Y-15989164D01*
X-8313776Y-15989144D01*
X-8295368Y-15743494D01*
X8294732Y-15743494D01*
X8294732Y-15743505D01*
X8313776Y-15997644D01*
X8313779Y-15997664D01*
X8370490Y-16246132D01*
X8370491Y-16246136D01*
X8463605Y-16483384D01*
X8463608Y-16483391D01*
X8515566Y-16573384D01*
X8591041Y-16704112D01*
X8591045Y-16704117D01*
X8749946Y-16903373D01*
X8749949Y-16903375D01*
X8749950Y-16903377D01*
X8936783Y-17076732D01*
X9147366Y-17220305D01*
X9376996Y-17330889D01*
X9592986Y-17397513D01*
X9620536Y-17406011D01*
X9620538Y-17406012D01*
X9620539Y-17406012D01*
X9620542Y-17406013D01*
X9872565Y-17444000D01*
X9872567Y-17444000D01*
X10127433Y-17444000D01*
X10127435Y-17444000D01*
X10379458Y-17406013D01*
X10623004Y-17330889D01*
X10852634Y-17220305D01*
X11063217Y-17076732D01*
X11250050Y-16903377D01*
X11408959Y-16704112D01*
X11536393Y-16483388D01*
X11629508Y-16246137D01*
X11686222Y-15997657D01*
X11686864Y-15989092D01*
X11698524Y-15833494D01*
X22794732Y-15833494D01*
X22794732Y-15833505D01*
X22813776Y-16087644D01*
X22813779Y-16087664D01*
X22870490Y-16336132D01*
X22870491Y-16336136D01*
X22963605Y-16573384D01*
X22963608Y-16573391D01*
X23027324Y-16683750D01*
X23091041Y-16794112D01*
X23091045Y-16794117D01*
X23249946Y-16993373D01*
X23249949Y-16993375D01*
X23249950Y-16993377D01*
X23436783Y-17166732D01*
X23647366Y-17310305D01*
X23876996Y-17420889D01*
X24120536Y-17496011D01*
X24120538Y-17496012D01*
X24120539Y-17496012D01*
X24120542Y-17496013D01*
X24372565Y-17534000D01*
X24372567Y-17534000D01*
X24627433Y-17534000D01*
X24627435Y-17534000D01*
X24879458Y-17496013D01*
X25123004Y-17420889D01*
X25352634Y-17310305D01*
X25563217Y-17166732D01*
X25750050Y-16993377D01*
X25908959Y-16794112D01*
X26036393Y-16573388D01*
X26129508Y-16336137D01*
X26186222Y-16087657D01*
X26192966Y-15997664D01*
X26205268Y-15833505D01*
X26205268Y-15833494D01*
X37294732Y-15833494D01*
X37294732Y-15833505D01*
X37313776Y-16087644D01*
X37313779Y-16087664D01*
X37370490Y-16336132D01*
X37370491Y-16336136D01*
X37463605Y-16573384D01*
X37463608Y-16573391D01*
X37527324Y-16683750D01*
X37591041Y-16794112D01*
X37591045Y-16794117D01*
X37749946Y-16993373D01*
X37749949Y-16993375D01*
X37749950Y-16993377D01*
X37936783Y-17166732D01*
X38147366Y-17310305D01*
X38376996Y-17420889D01*
X38620536Y-17496011D01*
X38620538Y-17496012D01*
X38620539Y-17496012D01*
X38620542Y-17496013D01*
X38872565Y-17534000D01*
X38872567Y-17534000D01*
X39127433Y-17534000D01*
X39127435Y-17534000D01*
X39379458Y-17496013D01*
X39623004Y-17420889D01*
X39852634Y-17310305D01*
X40063217Y-17166732D01*
X40250050Y-16993377D01*
X40408959Y-16794112D01*
X40536393Y-16573388D01*
X40629508Y-16336137D01*
X40686222Y-16087657D01*
X40692966Y-15997664D01*
X40705268Y-15833505D01*
X40705268Y-15833494D01*
X40686223Y-15579355D01*
X40686222Y-15579353D01*
X40686222Y-15579343D01*
X40629508Y-15330863D01*
X40536393Y-15093612D01*
X40408959Y-14872888D01*
X40337186Y-14782888D01*
X40250053Y-14673626D01*
X40153052Y-14583623D01*
X40063217Y-14500268D01*
X39852634Y-14356695D01*
X39852631Y-14356694D01*
X39852629Y-14356692D01*
X39623013Y-14246115D01*
X39623009Y-14246113D01*
X39623004Y-14246111D01*
X39622996Y-14246108D01*
X39622992Y-14246107D01*
X39379463Y-14170988D01*
X39379461Y-14170987D01*
X39127437Y-14133000D01*
X39127435Y-14133000D01*
X38872565Y-14133000D01*
X38872562Y-14133000D01*
X38620538Y-14170987D01*
X38620536Y-14170988D01*
X38377007Y-14246107D01*
X38376986Y-14246115D01*
X38147370Y-14356692D01*
X37936780Y-14500270D01*
X37749946Y-14673626D01*
X37591045Y-14872882D01*
X37591040Y-14872890D01*
X37463608Y-15093608D01*
X37463605Y-15093615D01*
X37370491Y-15330863D01*
X37370490Y-15330867D01*
X37313779Y-15579335D01*
X37313776Y-15579355D01*
X37294732Y-15833494D01*
X26205268Y-15833494D01*
X26186223Y-15579355D01*
X26186222Y-15579353D01*
X26186222Y-15579343D01*
X26129508Y-15330863D01*
X26036393Y-15093612D01*
X25908959Y-14872888D01*
X25837186Y-14782888D01*
X25750053Y-14673626D01*
X25653052Y-14583623D01*
X25563217Y-14500268D01*
X25352634Y-14356695D01*
X25352631Y-14356694D01*
X25352629Y-14356692D01*
X25123013Y-14246115D01*
X25123009Y-14246113D01*
X25123004Y-14246111D01*
X25122996Y-14246108D01*
X25122992Y-14246107D01*
X24879463Y-14170988D01*
X24879461Y-14170987D01*
X24627437Y-14133000D01*
X24627435Y-14133000D01*
X24372565Y-14133000D01*
X24372562Y-14133000D01*
X24120538Y-14170987D01*
X24120536Y-14170988D01*
X23877007Y-14246107D01*
X23876986Y-14246115D01*
X23647370Y-14356692D01*
X23436780Y-14500270D01*
X23249946Y-14673626D01*
X23091045Y-14872882D01*
X23091040Y-14872890D01*
X22963608Y-15093608D01*
X22963605Y-15093615D01*
X22870491Y-15330863D01*
X22870490Y-15330867D01*
X22813779Y-15579335D01*
X22813776Y-15579355D01*
X22794732Y-15833494D01*
X11698524Y-15833494D01*
X11705268Y-15743505D01*
X11705268Y-15743494D01*
X11686223Y-15489355D01*
X11686222Y-15489353D01*
X11686222Y-15489343D01*
X11629508Y-15240863D01*
X11536393Y-15003612D01*
X11531610Y-14995328D01*
X11460920Y-14872888D01*
X11408959Y-14782888D01*
X11321823Y-14673623D01*
X11250053Y-14583626D01*
X11241255Y-14575463D01*
X11063217Y-14410268D01*
X10852634Y-14266695D01*
X10852631Y-14266694D01*
X10852629Y-14266692D01*
X10623013Y-14156115D01*
X10623009Y-14156113D01*
X10623004Y-14156111D01*
X10622996Y-14156108D01*
X10622992Y-14156107D01*
X10379463Y-14080988D01*
X10379461Y-14080987D01*
X10127437Y-14043000D01*
X10127435Y-14043000D01*
X9872565Y-14043000D01*
X9872562Y-14043000D01*
X9620538Y-14080987D01*
X9620536Y-14080988D01*
X9377007Y-14156107D01*
X9376986Y-14156115D01*
X9147370Y-14266692D01*
X8936780Y-14410270D01*
X8749946Y-14583626D01*
X8591045Y-14782882D01*
X8591040Y-14782890D01*
X8463608Y-15003608D01*
X8463605Y-15003615D01*
X8370491Y-15240863D01*
X8370490Y-15240867D01*
X8313779Y-15489335D01*
X8313776Y-15489355D01*
X8294732Y-15743494D01*
X-8295368Y-15743494D01*
X-8294732Y-15735005D01*
X-8294732Y-15734994D01*
X-8313776Y-15480855D01*
X-8313779Y-15480835D01*
X-8370490Y-15232367D01*
X-8370491Y-15232363D01*
X-8463605Y-14995115D01*
X-8463608Y-14995108D01*
X-8577575Y-14797710D01*
X-8591041Y-14774388D01*
X-8591042Y-14774386D01*
X-8591045Y-14774382D01*
X-8749946Y-14575126D01*
X-8936780Y-14401770D01*
X-9147370Y-14258192D01*
X-9376986Y-14147615D01*
X-9377007Y-14147607D01*
X-9620536Y-14072488D01*
X-9620538Y-14072487D01*
X-9872562Y-14034500D01*
X-9872565Y-14034500D01*
X-10127435Y-14034500D01*
X-10127437Y-14034500D01*
X-10379461Y-14072487D01*
X-10379463Y-14072488D01*
X-10622992Y-14147607D01*
X-10622996Y-14147608D01*
X-10623004Y-14147611D01*
X-10623009Y-14147613D01*
X-10623013Y-14147615D01*
X-10852629Y-14258192D01*
X-10852631Y-14258194D01*
X-10852634Y-14258195D01*
X-11063217Y-14401768D01*
X-11063640Y-14402161D01*
X-11250053Y-14575126D01*
X-11328604Y-14673626D01*
X-11408959Y-14774388D01*
X-11536393Y-14995112D01*
X-11629508Y-15232363D01*
X-11686222Y-15480843D01*
X-11686222Y-15480853D01*
X-11686223Y-15480855D01*
X-11705268Y-15734994D01*
X-22794732Y-15734994D01*
X-22813776Y-15480855D01*
X-22813779Y-15480835D01*
X-22870490Y-15232367D01*
X-22870491Y-15232363D01*
X-22963605Y-14995115D01*
X-22963608Y-14995108D01*
X-23077575Y-14797710D01*
X-23091041Y-14774388D01*
X-23091042Y-14774386D01*
X-23091045Y-14774382D01*
X-23249946Y-14575126D01*
X-23436780Y-14401770D01*
X-23647370Y-14258192D01*
X-23876986Y-14147615D01*
X-23877007Y-14147607D01*
X-24120536Y-14072488D01*
X-24120538Y-14072487D01*
X-24372562Y-14034500D01*
X-24372565Y-14034500D01*
X-24627435Y-14034500D01*
X-24627437Y-14034500D01*
X-24879461Y-14072487D01*
X-24879463Y-14072488D01*
X-25122992Y-14147607D01*
X-25122996Y-14147608D01*
X-25123004Y-14147611D01*
X-25123009Y-14147613D01*
X-25123013Y-14147615D01*
X-25352629Y-14258192D01*
X-25352631Y-14258194D01*
X-25352634Y-14258195D01*
X-25563217Y-14401768D01*
X-25563640Y-14402161D01*
X-25750053Y-14575126D01*
X-25828604Y-14673626D01*
X-25908959Y-14774388D01*
X-26036393Y-14995112D01*
X-26129508Y-15232363D01*
X-26186222Y-15480843D01*
X-26186222Y-15480853D01*
X-26186223Y-15480855D01*
X-26205268Y-15734994D01*
X-37295233Y-15734994D01*
X-37314272Y-15480929D01*
X-37314275Y-15480907D01*
X-37370968Y-15232518D01*
X-37370970Y-15232511D01*
X-37464056Y-14995333D01*
X-37464058Y-14995328D01*
X-37591454Y-14774673D01*
X-37591459Y-14774665D01*
X-37750316Y-14575463D01*
X-37937092Y-14402161D01*
X-38147622Y-14258624D01*
X-38377182Y-14148075D01*
X-38377187Y-14148074D01*
X-38620648Y-14072976D01*
X-38620652Y-14072975D01*
X-38872599Y-14035000D01*
X-39127400Y-14035000D01*
X-39379347Y-14072975D01*
X-39379351Y-14072976D01*
X-39622809Y-14148073D01*
X-39622830Y-14148081D01*
X-39852381Y-14258627D01*
X-40062904Y-14402158D01*
X-40249683Y-14575463D01*
X-40408540Y-14774665D01*
X-40408545Y-14774673D01*
X-40535941Y-14995328D01*
X-40535943Y-14995333D01*
X-40629029Y-15232511D01*
X-40629031Y-15232518D01*
X-40685724Y-15480907D01*
X-40685727Y-15480929D01*
X-40704767Y-15734995D01*
X-49499500Y-15734995D01*
X-49499500Y-9492686D01*
X-49499501Y-9492668D01*
X-49530043Y-9280235D01*
X-49530045Y-9280226D01*
X-49590515Y-9074289D01*
X-49590515Y-9074287D01*
X-49679676Y-8879053D01*
X-49679676Y-8879052D01*
X-49795719Y-8698486D01*
X-49795720Y-8698485D01*
X-49936275Y-8536276D01*
X-49936276Y-8536275D01*
X-50098485Y-8395720D01*
X-50098486Y-8395719D01*
X-50279052Y-8279676D01*
X-50474288Y-8190515D01*
X-50533037Y-8173265D01*
X-50598895Y-8133122D01*
X-50635858Y-8065428D01*
X-50634022Y-7988322D01*
X-50596417Y-7924942D01*
X-49351475Y-6680000D01*
X-48065616Y-5394140D01*
X-47998822Y-5355577D01*
X-47960258Y-5350500D01*
X-46379918Y-5350500D01*
X-46310674Y-5367567D01*
X-46270963Y-5388408D01*
X-46230225Y-5409790D01*
X-46065056Y-5450500D01*
X-45894944Y-5450500D01*
X-45729775Y-5409790D01*
X-45649327Y-5367567D01*
X-45579148Y-5330734D01*
X-45579146Y-5330732D01*
X-45579145Y-5330732D01*
X-45451820Y-5217932D01*
X-45451819Y-5217930D01*
X-45451817Y-5217929D01*
X-45379118Y-5112607D01*
X-45355181Y-5077929D01*
X-45294860Y-4918874D01*
X-45274355Y-4750000D01*
X-45294860Y-4581125D01*
X-45355181Y-4422070D01*
X-45448404Y-4287016D01*
X-45451817Y-4282071D01*
X-45451818Y-4282070D01*
X-45451820Y-4282067D01*
X-45579146Y-4169267D01*
X-45579145Y-4169267D01*
X-45729775Y-4090209D01*
X-45894944Y-4049500D01*
X-46065056Y-4049500D01*
X-46230224Y-4090209D01*
X-46380854Y-4169267D01*
X-46429121Y-4212028D01*
X-46498122Y-4246489D01*
X-46527926Y-4249500D01*
X-48322475Y-4249500D01*
X-48444030Y-4282071D01*
X-48444030Y-4282070D01*
X-48462483Y-4287015D01*
X-48588014Y-4359490D01*
X-51134384Y-6905859D01*
X-51201179Y-6944423D01*
X-51239743Y-6949500D01*
X-55220500Y-6949500D01*
X-55295000Y-6929538D01*
X-55349538Y-6875000D01*
X-55369500Y-6800500D01*
X-55369500Y-6595321D01*
X-55349538Y-6520821D01*
X-55298938Y-6468639D01*
X-55223702Y-6422055D01*
X-55223697Y-6422051D01*
X-55066127Y-6278406D01*
X-54937636Y-6108259D01*
X-54842594Y-5917387D01*
X-54842593Y-5917385D01*
X-54822311Y-5846100D01*
X-54782723Y-5779907D01*
X-54715342Y-5742376D01*
X-54638223Y-5743564D01*
X-54572030Y-5783152D01*
X-54534499Y-5850533D01*
X-54529999Y-5886876D01*
X-54529999Y-6394794D01*
X-54527090Y-6419874D01*
X-54481787Y-6522477D01*
X-54481787Y-6522478D01*
X-54402478Y-6601786D01*
X-54299871Y-6647091D01*
X-54274795Y-6649999D01*
X-52485205Y-6649999D01*
X-52460125Y-6647090D01*
X-52357522Y-6601787D01*
X-52278213Y-6522478D01*
X-52232908Y-6419871D01*
X-52230000Y-6394795D01*
X-52230000Y-4605205D01*
X-52232909Y-4580125D01*
X-52278212Y-4477522D01*
X-52357522Y-4398213D01*
X-52357521Y-4398213D01*
X-52460128Y-4352908D01*
X-52485204Y-4350000D01*
X-54274794Y-4350000D01*
X-54299874Y-4352909D01*
X-54402477Y-4398212D01*
X-54481786Y-4477521D01*
X-54527091Y-4580128D01*
X-54529999Y-4605204D01*
X-54529999Y-5113121D01*
X-54549961Y-5187621D01*
X-54604499Y-5242159D01*
X-54678999Y-5262121D01*
X-54753499Y-5242159D01*
X-54808037Y-5187621D01*
X-54822310Y-5153899D01*
X-54842591Y-5082619D01*
X-54842594Y-5082612D01*
X-54937636Y-4891740D01*
X-55066127Y-4721593D01*
X-55223697Y-4577948D01*
X-55223698Y-4577947D01*
X-55404977Y-4465703D01*
X-55404983Y-4465700D01*
X-55603795Y-4388681D01*
X-55603802Y-4388679D01*
X-55813385Y-4349500D01*
X-55813390Y-4349500D01*
X-56026610Y-4349500D01*
X-56026614Y-4349500D01*
X-56194280Y-4380843D01*
X-56236198Y-4388679D01*
X-56236200Y-4388680D01*
X-56236204Y-4388681D01*
X-56435016Y-4465700D01*
X-56435022Y-4465703D01*
X-56616301Y-4577947D01*
X-56616302Y-4577948D01*
X-56773872Y-4721593D01*
X-56902363Y-4891740D01*
X-56902364Y-4891743D01*
X-56902366Y-4891745D01*
X-56997405Y-5082611D01*
X-57035907Y-5217932D01*
X-57046687Y-5255818D01*
X-57086275Y-5322011D01*
X-57153656Y-5359542D01*
X-57230775Y-5358354D01*
X-57296968Y-5318766D01*
X-57333311Y-5255819D01*
X-57382593Y-5082612D01*
X-57477635Y-4891740D01*
X-57606126Y-4721593D01*
X-57763696Y-4577948D01*
X-57763697Y-4577947D01*
X-57944976Y-4465703D01*
X-57944982Y-4465700D01*
X-58143794Y-4388681D01*
X-58143801Y-4388679D01*
X-58353384Y-4349500D01*
X-58353389Y-4349500D01*
X-58566609Y-4349500D01*
X-58566613Y-4349500D01*
X-58734279Y-4380843D01*
X-58776197Y-4388679D01*
X-58776199Y-4388680D01*
X-58776203Y-4388681D01*
X-58975015Y-4465700D01*
X-58975021Y-4465703D01*
X-59156300Y-4577947D01*
X-59156301Y-4577948D01*
X-59313871Y-4721593D01*
X-59442362Y-4891740D01*
X-59442363Y-4891743D01*
X-59442365Y-4891745D01*
X-59535073Y-5077930D01*
X-59537404Y-5082612D01*
X-59537405Y-5082613D01*
X-59545939Y-5112607D01*
X-59586688Y-5255823D01*
X-59626275Y-5322015D01*
X-59693656Y-5359546D01*
X-59770775Y-5358358D01*
X-59836968Y-5318770D01*
X-59873311Y-5255822D01*
X-59922593Y-5082614D01*
X-59922594Y-5082612D01*
X-60017636Y-4891740D01*
X-60146127Y-4721593D01*
X-60303697Y-4577948D01*
X-60303698Y-4577947D01*
X-60484977Y-4465703D01*
X-60484983Y-4465700D01*
X-60683795Y-4388681D01*
X-60683802Y-4388679D01*
X-60893385Y-4349500D01*
X-60893390Y-4349500D01*
X-61106610Y-4349500D01*
X-61106614Y-4349500D01*
X-61274280Y-4380843D01*
X-61316198Y-4388679D01*
X-61316200Y-4388680D01*
X-61316204Y-4388681D01*
X-61515016Y-4465700D01*
X-61515022Y-4465703D01*
X-61696301Y-4577947D01*
X-61696302Y-4577948D01*
X-61853872Y-4721593D01*
X-61982363Y-4891740D01*
X-61982364Y-4891743D01*
X-61982366Y-4891745D01*
X-62077405Y-5082611D01*
X-62135756Y-5287690D01*
X-62144499Y-5382050D01*
X-62151216Y-5454538D01*
X-62155429Y-5500000D01*
X-62135756Y-5712310D01*
X-62077405Y-5917389D01*
X-61982366Y-6108255D01*
X-61853872Y-6278407D01*
X-61696302Y-6422052D01*
X-61515019Y-6534298D01*
X-61316198Y-6611321D01*
X-61106610Y-6650500D01*
X-61106607Y-6650500D01*
X-60893393Y-6650500D01*
X-60893390Y-6650500D01*
X-60683802Y-6611321D01*
X-60572189Y-6568082D01*
X-60484983Y-6534299D01*
X-60484977Y-6534296D01*
X-60303698Y-6422052D01*
X-60303697Y-6422051D01*
X-60146127Y-6278406D01*
X-60017636Y-6108259D01*
X-59922594Y-5917387D01*
X-59922593Y-5917385D01*
X-59873311Y-5744177D01*
X-59833723Y-5677984D01*
X-59766342Y-5640453D01*
X-59689223Y-5641641D01*
X-59623030Y-5681229D01*
X-59586688Y-5744173D01*
X-59537404Y-5917389D01*
X-59442365Y-6108255D01*
X-59313871Y-6278407D01*
X-59156301Y-6422052D01*
X-58975018Y-6534298D01*
X-58776197Y-6611321D01*
X-58566609Y-6650500D01*
X-58566606Y-6650500D01*
X-58353392Y-6650500D01*
X-58353389Y-6650500D01*
X-58143801Y-6611321D01*
X-58032188Y-6568082D01*
X-57944982Y-6534299D01*
X-57944976Y-6534296D01*
X-57763697Y-6422052D01*
X-57763696Y-6422051D01*
X-57606126Y-6278406D01*
X-57477635Y-6108259D01*
X-57382593Y-5917387D01*
X-57382592Y-5917385D01*
X-57333311Y-5744181D01*
X-57293723Y-5677988D01*
X-57226342Y-5640457D01*
X-57149223Y-5641645D01*
X-57083030Y-5681233D01*
X-57046689Y-5744177D01*
X-56997405Y-5917389D01*
X-56902366Y-6108255D01*
X-56773872Y-6278407D01*
X-56616302Y-6422052D01*
X-56616297Y-6422055D01*
X-56541062Y-6468639D01*
X-56488229Y-6524830D01*
X-56470500Y-6595321D01*
X-56470500Y-6800500D01*
X-56490462Y-6875000D01*
X-56545000Y-6929538D01*
X-56619500Y-6949500D01*
X-61910258Y-6949500D01*
X-61984758Y-6929538D01*
X-62015617Y-6905859D01*
X-62605859Y-6315616D01*
X-62644423Y-6248821D01*
X-62649500Y-6210257D01*
X-62649500Y-1025132D01*
X-62629538Y-950632D01*
X-62575000Y-896094D01*
X-62500500Y-876132D01*
X-62426000Y-896094D01*
X-62371462Y-950632D01*
X-62365681Y-961691D01*
X-62238998Y-1230904D01*
X-62067075Y-1501810D01*
X-61862543Y-1749048D01*
X-61628648Y-1968690D01*
X-61628639Y-1968697D01*
X-61369063Y-2157291D01*
X-61087891Y-2311867D01*
X-61087883Y-2311871D01*
X-60789556Y-2429986D01*
X-60789547Y-2429989D01*
X-60478763Y-2509785D01*
X-60160433Y-2549999D01*
X-60160432Y-2550000D01*
X-59839568Y-2550000D01*
X-59839566Y-2549999D01*
X-59521236Y-2509785D01*
X-59210452Y-2429989D01*
X-59210443Y-2429986D01*
X-58912116Y-2311871D01*
X-58912108Y-2311867D01*
X-58630936Y-2157291D01*
X-58371360Y-1968697D01*
X-58371351Y-1968690D01*
X-58137456Y-1749048D01*
X-57932924Y-1501810D01*
X-57761001Y-1230904D01*
X-57624387Y-940586D01*
X-57624379Y-940565D01*
X-57525230Y-635416D01*
X-57465105Y-320233D01*
X-57465104Y-320223D01*
X-57444958Y0D01*
X-57465104Y320223D01*
X-57465105Y320233D01*
X-57525230Y635416D01*
X-57624379Y940565D01*
X-57624387Y940586D01*
X-57761001Y1230904D01*
X-57932924Y1501810D01*
X-58137456Y1749048D01*
X-58371351Y1968690D01*
X-58371360Y1968697D01*
X-58630936Y2157291D01*
X-58912108Y2311867D01*
X-58912116Y2311871D01*
X-59210443Y2429986D01*
X-59210452Y2429989D01*
X-59521236Y2509785D01*
X-59839566Y2549999D01*
X-59839568Y2550000D01*
X-60160432Y2550000D01*
X-60160433Y2549999D01*
X-60478763Y2509785D01*
X-60789547Y2429989D01*
X-60789556Y2429986D01*
X-61087883Y2311871D01*
X-61087891Y2311867D01*
X-61369063Y2157291D01*
X-61628639Y1968697D01*
X-61628648Y1968690D01*
X-61862543Y1749048D01*
X-62067075Y1501810D01*
X-62238998Y1230904D01*
X-62365681Y961691D01*
X-62415464Y902781D01*
X-62488032Y876655D01*
X-62563941Y890313D01*
X-62622851Y940096D01*
X-62648977Y1012664D01*
X-62649500Y1025132D01*
X-62649500Y4230000D01*
X-47675645Y4230000D01*
X-47655140Y4061128D01*
X-47594818Y3902070D01*
X-47498183Y3762071D01*
X-47498180Y3762068D01*
X-47498179Y3762067D01*
X-47370853Y3649267D01*
X-47370854Y3649267D01*
X-47220224Y3570209D01*
X-47055056Y3529500D01*
X-46884944Y3529500D01*
X-46719775Y3570209D01*
X-46569145Y3649267D01*
X-46436221Y3767028D01*
X-46367220Y3801489D01*
X-46337416Y3804500D01*
X-44782584Y3804500D01*
X-44708084Y3784538D01*
X-44683779Y3767028D01*
X-44550854Y3649267D01*
X-44400224Y3570209D01*
X-44235056Y3529500D01*
X-44064944Y3529500D01*
X-43899775Y3570209D01*
X-43749145Y3649267D01*
X-43621820Y3762067D01*
X-43621817Y3762071D01*
X-43525181Y3902070D01*
X-43464860Y4061125D01*
X-43444355Y4230000D01*
X-43464860Y4398874D01*
X-43525181Y4557929D01*
X-43585111Y4644751D01*
X-43621817Y4697929D01*
X-43749146Y4810732D01*
X-43749148Y4810734D01*
X-43899775Y4889790D01*
X-44064944Y4930500D01*
X-44235056Y4930500D01*
X-44400225Y4889790D01*
X-44550852Y4810734D01*
X-44550854Y4810732D01*
X-44683779Y4692972D01*
X-44752780Y4658511D01*
X-44782584Y4655500D01*
X-46337416Y4655500D01*
X-46411916Y4675462D01*
X-46436221Y4692972D01*
X-46569145Y4810732D01*
X-46569146Y4810732D01*
X-46569148Y4810734D01*
X-46719775Y4889790D01*
X-46884944Y4930500D01*
X-47055056Y4930500D01*
X-47220225Y4889790D01*
X-47370852Y4810734D01*
X-47498183Y4697929D01*
X-47594818Y4557930D01*
X-47655140Y4398872D01*
X-47675645Y4230000D01*
X-62649500Y4230000D01*
X-62649500Y6460257D01*
X-62629538Y6534757D01*
X-62605859Y6565616D01*
X-62015617Y7155859D01*
X-61948822Y7194423D01*
X-61910258Y7199500D01*
X-59489743Y7199500D01*
X-59415243Y7179538D01*
X-59384384Y7155859D01*
X-59054141Y6825616D01*
X-59015577Y6758821D01*
X-59010500Y6720257D01*
X-59010500Y6595321D01*
X-59030462Y6520821D01*
X-59081062Y6468639D01*
X-59156302Y6422052D01*
X-59313872Y6278407D01*
X-59442366Y6108255D01*
X-59537405Y5917389D01*
X-59557689Y5846100D01*
X-59597275Y5779908D01*
X-59664656Y5742377D01*
X-59741775Y5743564D01*
X-59807968Y5783151D01*
X-59845499Y5850532D01*
X-59850000Y5886876D01*
X-59850000Y6394794D01*
X-59852909Y6419874D01*
X-59898212Y6522477D01*
X-59977521Y6601786D01*
X-60080128Y6647091D01*
X-60105204Y6649999D01*
X-61894794Y6649999D01*
X-61919874Y6647090D01*
X-62022477Y6601787D01*
X-62022478Y6601787D01*
X-62101786Y6522478D01*
X-62147091Y6419871D01*
X-62149999Y6394795D01*
X-62149999Y4605205D01*
X-62147090Y4580125D01*
X-62101787Y4477522D01*
X-62022478Y4398213D01*
X-61919871Y4352908D01*
X-61894795Y4350000D01*
X-60105205Y4350000D01*
X-60080125Y4352909D01*
X-59977522Y4398212D01*
X-59977522Y4398213D01*
X-59898213Y4477521D01*
X-59852908Y4580128D01*
X-59850000Y4605204D01*
X-59850000Y5113121D01*
X-59830038Y5187621D01*
X-59775500Y5242159D01*
X-59701000Y5262121D01*
X-59626500Y5242159D01*
X-59571962Y5187621D01*
X-59557689Y5153899D01*
X-59537405Y5082611D01*
X-59442366Y4891745D01*
X-59442364Y4891743D01*
X-59442363Y4891740D01*
X-59313872Y4721593D01*
X-59156302Y4577948D01*
X-59156301Y4577947D01*
X-58975022Y4465703D01*
X-58975016Y4465700D01*
X-58776204Y4388681D01*
X-58776200Y4388680D01*
X-58776198Y4388679D01*
X-58734280Y4380843D01*
X-58566614Y4349500D01*
X-58566610Y4349500D01*
X-58353385Y4349500D01*
X-58143802Y4388679D01*
X-58143795Y4388681D01*
X-57944983Y4465700D01*
X-57944977Y4465703D01*
X-57763698Y4577947D01*
X-57763697Y4577948D01*
X-57606127Y4721593D01*
X-57477636Y4891740D01*
X-57382594Y5082612D01*
X-57333312Y5255819D01*
X-57293723Y5322011D01*
X-57226342Y5359542D01*
X-57149223Y5358354D01*
X-57083031Y5318765D01*
X-57046690Y5255822D01*
X-56997406Y5082611D01*
X-56902367Y4891745D01*
X-56902365Y4891743D01*
X-56902364Y4891740D01*
X-56773873Y4721593D01*
X-56616303Y4577948D01*
X-56616302Y4577947D01*
X-56435023Y4465703D01*
X-56435017Y4465700D01*
X-56236205Y4388681D01*
X-56236201Y4388680D01*
X-56236199Y4388679D01*
X-56194281Y4380843D01*
X-56026615Y4349500D01*
X-56026611Y4349500D01*
X-55813386Y4349500D01*
X-55603803Y4388679D01*
X-55603796Y4388681D01*
X-55404984Y4465700D01*
X-55404978Y4465703D01*
X-55223699Y4577947D01*
X-55223698Y4577948D01*
X-55066128Y4721593D01*
X-54937637Y4891740D01*
X-54842595Y5082612D01*
X-54842594Y5082614D01*
X-54793312Y5255822D01*
X-54753723Y5322015D01*
X-54686342Y5359546D01*
X-54609224Y5358358D01*
X-54543031Y5318769D01*
X-54506689Y5255824D01*
X-54493821Y5210598D01*
X-54457408Y5082619D01*
X-54457405Y5082611D01*
X-54362366Y4891745D01*
X-54362364Y4891743D01*
X-54362363Y4891740D01*
X-54233872Y4721593D01*
X-54076302Y4577948D01*
X-54076301Y4577947D01*
X-53895022Y4465703D01*
X-53895016Y4465700D01*
X-53696204Y4388681D01*
X-53696200Y4388680D01*
X-53696198Y4388679D01*
X-53654280Y4380843D01*
X-53486614Y4349500D01*
X-53486610Y4349500D01*
X-53273385Y4349500D01*
X-53063802Y4388679D01*
X-53063795Y4388681D01*
X-52864983Y4465700D01*
X-52864977Y4465703D01*
X-52683698Y4577947D01*
X-52683697Y4577948D01*
X-52526127Y4721593D01*
X-52397636Y4891740D01*
X-52359987Y4967352D01*
X-52347755Y4991915D01*
X-52296680Y5049706D01*
X-52223551Y5074217D01*
X-52214377Y5074500D01*
X-50143980Y5074500D01*
X-50085986Y5090039D01*
X-50035763Y5103497D01*
X-50035761Y5103498D01*
X-49938740Y5159512D01*
X-45039859Y10058393D01*
X-44973064Y10096957D01*
X-44895936Y10096957D01*
X-44829141Y10058393D01*
X-44790577Y9991598D01*
X-44785500Y9953034D01*
X-44785500Y8116018D01*
X-44785500Y8003982D01*
X-44756503Y7895763D01*
X-44700485Y7798737D01*
X-43811263Y6909515D01*
X-43811260Y6909513D01*
X-43811259Y6909512D01*
X-43751072Y6874763D01*
X-43714237Y6853497D01*
X-43635016Y6832269D01*
X-43606019Y6824500D01*
X-43606018Y6824500D01*
X-43493982Y6824500D01*
X-42832584Y6824500D01*
X-42758084Y6804538D01*
X-42733779Y6787028D01*
X-42600854Y6669267D01*
X-42450224Y6590209D01*
X-42285056Y6549500D01*
X-42114944Y6549500D01*
X-41949775Y6590209D01*
X-41799145Y6669267D01*
X-41671820Y6782067D01*
X-41671817Y6782071D01*
X-41575181Y6922070D01*
X-41514860Y7081125D01*
X-41494355Y7250000D01*
X-41514860Y7418874D01*
X-41541834Y7490000D01*
X-39285645Y7490000D01*
X-39265140Y7321128D01*
X-39204818Y7162070D01*
X-39108183Y7022071D01*
X-39108180Y7022068D01*
X-39108179Y7022067D01*
X-38980853Y6909267D01*
X-38980854Y6909267D01*
X-38830224Y6830209D01*
X-38665056Y6789500D01*
X-38494944Y6789500D01*
X-38329775Y6830209D01*
X-38179145Y6909267D01*
X-38046221Y7027028D01*
X-37977220Y7061489D01*
X-37947416Y7064500D01*
X-37807966Y7064500D01*
X-37733466Y7044538D01*
X-37702607Y7020859D01*
X-34744141Y4062393D01*
X-34705577Y3995598D01*
X-34700500Y3957034D01*
X-34700500Y-8347034D01*
X-34720462Y-8421534D01*
X-34744141Y-8452393D01*
X-35057607Y-8765859D01*
X-35124402Y-8804423D01*
X-35162966Y-8809500D01*
X-35285056Y-8809500D01*
X-35450224Y-8850209D01*
X-35600854Y-8929267D01*
X-35728179Y-9042067D01*
X-35728180Y-9042068D01*
X-35728183Y-9042071D01*
X-35777158Y-9113023D01*
X-35812876Y-9164769D01*
X-35871626Y-9214741D01*
X-35947490Y-9228644D01*
X-36020142Y-9202751D01*
X-36070114Y-9144001D01*
X-36084500Y-9080127D01*
X-36084500Y3316021D01*
X-36091063Y3340510D01*
X-36113497Y3424237D01*
X-36113497Y3424238D01*
X-36169513Y3521260D01*
X-36169514Y3521261D01*
X-36169516Y3521264D01*
X-37564304Y4916052D01*
X-37602868Y4982847D01*
X-37606859Y5039365D01*
X-37604355Y5059994D01*
X-37604355Y5059996D01*
X-37606082Y5074217D01*
X-37624860Y5228872D01*
X-37624860Y5228874D01*
X-37685181Y5387929D01*
X-37715113Y5431293D01*
X-37781817Y5527929D01*
X-37909146Y5640732D01*
X-37909148Y5640734D01*
X-38059775Y5719790D01*
X-38224944Y5760500D01*
X-38395056Y5760500D01*
X-38560225Y5719790D01*
X-38710852Y5640734D01*
X-38838183Y5527929D01*
X-38934818Y5387930D01*
X-38995140Y5228872D01*
X-39015645Y5060000D01*
X-38995140Y4891128D01*
X-38934818Y4732070D01*
X-38838183Y4592071D01*
X-38838180Y4592068D01*
X-38838179Y4592067D01*
X-38710853Y4479267D01*
X-38710854Y4479267D01*
X-38560224Y4400209D01*
X-38395056Y4359500D01*
X-38272966Y4359500D01*
X-38198466Y4339538D01*
X-38167607Y4315859D01*
X-36979141Y3127393D01*
X-36940577Y3060598D01*
X-36935500Y3022034D01*
X-36935500Y-10483982D01*
X-36935500Y-10596018D01*
X-36906503Y-10704237D01*
X-36850485Y-10801263D01*
X-35270485Y-12381263D01*
X-35191263Y-12460485D01*
X-35119109Y-12502143D01*
X-35094237Y-12516503D01*
X-34986019Y-12545500D01*
X-34986018Y-12545500D01*
X-34742584Y-12545500D01*
X-34668084Y-12565462D01*
X-34643779Y-12582972D01*
X-34638180Y-12587932D01*
X-34510852Y-12700734D01*
X-34360225Y-12779790D01*
X-34195056Y-12820500D01*
X-34024944Y-12820500D01*
X-33859775Y-12779790D01*
X-33709148Y-12700734D01*
X-33709146Y-12700732D01*
X-33709145Y-12700732D01*
X-33581820Y-12587932D01*
X-33581819Y-12587930D01*
X-33581817Y-12587929D01*
X-33485182Y-12447930D01*
X-33485181Y-12447929D01*
X-33424860Y-12288874D01*
X-33404355Y-12120000D01*
X-33424860Y-11951125D01*
X-33485181Y-11792070D01*
X-33581817Y-11652071D01*
X-33581820Y-11652067D01*
X-33709146Y-11539267D01*
X-33709145Y-11539267D01*
X-33859775Y-11460209D01*
X-34024944Y-11419500D01*
X-34195056Y-11419500D01*
X-34360224Y-11460209D01*
X-34510851Y-11539265D01*
X-34616975Y-11633282D01*
X-34685977Y-11667742D01*
X-34762964Y-11663085D01*
X-34821139Y-11627112D01*
X-36040859Y-10407393D01*
X-36079423Y-10340598D01*
X-36084500Y-10302034D01*
X-36084500Y-9939872D01*
X-36064538Y-9865372D01*
X-36010000Y-9810834D01*
X-35935500Y-9790872D01*
X-35861000Y-9810834D01*
X-35812877Y-9855228D01*
X-35728183Y-9977929D01*
X-35600852Y-10090734D01*
X-35450225Y-10169790D01*
X-35285056Y-10210500D01*
X-35114944Y-10210500D01*
X-34949775Y-10169790D01*
X-34799148Y-10090734D01*
X-34799146Y-10090732D01*
X-34799145Y-10090732D01*
X-34671820Y-9977932D01*
X-34671819Y-9977930D01*
X-34671817Y-9977929D01*
X-34575182Y-9837930D01*
X-34575181Y-9837929D01*
X-34514860Y-9678874D01*
X-34508025Y-9622581D01*
X-34494355Y-9510000D01*
X-34494355Y-9509996D01*
X-34494355Y-9509994D01*
X-34496859Y-9489365D01*
X-34486019Y-9413002D01*
X-34454304Y-9366052D01*
X-34201275Y-9113023D01*
X-33934515Y-8846263D01*
X-33934513Y-8846260D01*
X-33934512Y-8846259D01*
X-33878498Y-8749238D01*
X-33878497Y-8749237D01*
X-33849500Y-8641018D01*
X-33849500Y-8528981D01*
X-33849500Y-3302800D01*
X-5475800Y-3302800D01*
X-675800Y-3312800D01*
X-675800Y5987200D01*
X-5475800Y5987200D01*
X-5475800Y-3302800D01*
X-33849500Y-3302800D01*
X-33849500Y2100000D01*
X-30350000Y2100000D01*
X-25250000Y2100000D01*
X-25250000Y7100000D01*
X-30350000Y7100000D01*
X-30350000Y2100000D01*
X-33849500Y2100000D01*
X-33849500Y4251018D01*
X-33878497Y4359237D01*
X-33926669Y4442674D01*
X-33934512Y4456259D01*
X-33934514Y4456261D01*
X-33934515Y4456263D01*
X-34013737Y4535485D01*
X-34058737Y4580485D01*
X-37308737Y7830485D01*
X-37309165Y7830732D01*
X-37334122Y7845141D01*
X-37405763Y7886503D01*
X-37513982Y7915500D01*
X-37947416Y7915500D01*
X-38021916Y7935462D01*
X-38046221Y7952972D01*
X-38179145Y8070732D01*
X-38179146Y8070732D01*
X-38179148Y8070734D01*
X-38329775Y8149790D01*
X-38494944Y8190500D01*
X-38665056Y8190500D01*
X-38830225Y8149790D01*
X-38980852Y8070734D01*
X-39108183Y7957929D01*
X-39204818Y7817930D01*
X-39265140Y7658872D01*
X-39285645Y7490000D01*
X-41541834Y7490000D01*
X-41575181Y7577929D01*
X-41631054Y7658874D01*
X-41671817Y7717929D01*
X-41799146Y7830732D01*
X-41799148Y7830734D01*
X-41949775Y7909790D01*
X-42114944Y7950500D01*
X-42285056Y7950500D01*
X-42450225Y7909790D01*
X-42600852Y7830734D01*
X-42600854Y7830732D01*
X-42733779Y7712972D01*
X-42802780Y7678511D01*
X-42832584Y7675500D01*
X-43312034Y7675500D01*
X-43386534Y7695462D01*
X-43417393Y7719141D01*
X-43890859Y8192607D01*
X-43929423Y8259402D01*
X-43934500Y8297966D01*
X-43934500Y9732034D01*
X-43914538Y9806534D01*
X-43890859Y9837393D01*
X-42872394Y10855859D01*
X-42805599Y10894423D01*
X-42767035Y10899500D01*
X-24556251Y10899500D01*
X-24481751Y10879538D01*
X-24427213Y10825000D01*
X-24407251Y10750500D01*
X-24408336Y10732545D01*
X-24425645Y10590000D01*
X-24405140Y10421128D01*
X-24344818Y10262070D01*
X-24248183Y10122071D01*
X-24248180Y10122068D01*
X-24248179Y10122067D01*
X-24120853Y10009267D01*
X-24120854Y10009267D01*
X-23970224Y9930209D01*
X-23805056Y9889500D01*
X-23682966Y9889500D01*
X-23608466Y9869538D01*
X-23577607Y9845859D01*
X-23301607Y9569859D01*
X-23263043Y9503064D01*
X-23263043Y9425936D01*
X-23301607Y9359141D01*
X-23368402Y9320577D01*
X-23406966Y9315500D01*
X-36652034Y9315500D01*
X-36726534Y9335462D01*
X-36757393Y9359141D01*
X-36998253Y9600001D01*
X-37288737Y9890485D01*
X-37385763Y9946503D01*
X-37493982Y9975500D01*
X-41843982Y9975500D01*
X-41956019Y9975500D01*
X-41999008Y9963981D01*
X-42064237Y9946503D01*
X-42161263Y9890485D01*
X-42161264Y9890484D01*
X-42245213Y9806534D01*
X-42307606Y9744141D01*
X-42374400Y9705577D01*
X-42412965Y9700500D01*
X-42535056Y9700500D01*
X-42700225Y9659790D01*
X-42850852Y9580734D01*
X-42978183Y9467929D01*
X-43074818Y9327930D01*
X-43135140Y9168872D01*
X-43155645Y9000000D01*
X-43135140Y8831128D01*
X-43074818Y8672070D01*
X-42978183Y8532071D01*
X-42978180Y8532068D01*
X-42978179Y8532067D01*
X-42850853Y8419267D01*
X-42850854Y8419267D01*
X-42700224Y8340209D01*
X-42535056Y8299500D01*
X-42364944Y8299500D01*
X-42199775Y8340209D01*
X-42049145Y8419267D01*
X-41921820Y8532067D01*
X-41921817Y8532071D01*
X-41825181Y8672070D01*
X-41764860Y8831125D01*
X-41755609Y8907314D01*
X-41745148Y8993463D01*
X-41716353Y9065011D01*
X-41655639Y9112577D01*
X-41597236Y9124500D01*
X-37787966Y9124500D01*
X-37713466Y9104538D01*
X-37682607Y9080859D01*
X-37151263Y8549515D01*
X-37151260Y8549513D01*
X-37151259Y8549512D01*
X-37091072Y8514763D01*
X-37054237Y8493497D01*
X-36975016Y8472269D01*
X-36946019Y8464500D01*
X-36946018Y8464500D01*
X-36833982Y8464500D01*
X6272034Y8464500D01*
X6346534Y8444538D01*
X6377393Y8420859D01*
X9520859Y5277393D01*
X9559423Y5210598D01*
X9564500Y5172034D01*
X9564500Y-1933982D01*
X9564500Y-2046018D01*
X9593497Y-2154237D01*
X9614763Y-2191072D01*
X9649512Y-2251259D01*
X9649513Y-2251260D01*
X9649515Y-2251263D01*
X15240860Y-7842608D01*
X15279423Y-7909401D01*
X15284500Y-7947965D01*
X15284500Y-9623982D01*
X15284500Y-9736018D01*
X15313497Y-9844237D01*
X15313498Y-9844238D01*
X15369512Y-9941259D01*
X15369513Y-9941260D01*
X15369515Y-9941263D01*
X15768850Y-10340598D01*
X16124304Y-10696052D01*
X16162868Y-10762847D01*
X16166859Y-10819365D01*
X16164355Y-10839994D01*
X16164355Y-10839996D01*
X16184860Y-11008874D01*
X16245181Y-11167929D01*
X16245182Y-11167930D01*
X16341817Y-11307929D01*
X16341819Y-11307930D01*
X16341820Y-11307932D01*
X16469146Y-11420732D01*
X16469148Y-11420734D01*
X16619775Y-11499790D01*
X16784944Y-11540500D01*
X16955056Y-11540500D01*
X17120225Y-11499790D01*
X17270852Y-11420734D01*
X17398183Y-11307929D01*
X17494818Y-11167930D01*
X17555140Y-11008872D01*
X17575645Y-10840000D01*
X17555140Y-10671128D01*
X17494818Y-10512070D01*
X17398183Y-10372071D01*
X17398180Y-10372068D01*
X17398179Y-10372067D01*
X17270853Y-10259267D01*
X17270854Y-10259267D01*
X17120224Y-10180209D01*
X16955056Y-10139500D01*
X16832966Y-10139500D01*
X16758466Y-10119538D01*
X16727607Y-10095859D01*
X16179141Y-9547393D01*
X16140577Y-9480598D01*
X16135500Y-9442034D01*
X16135500Y-8246965D01*
X16155462Y-8172465D01*
X16210000Y-8117927D01*
X16284500Y-8097965D01*
X16359000Y-8117927D01*
X16389859Y-8141606D01*
X18429513Y-10181260D01*
X18429515Y-10181263D01*
X18508737Y-10260485D01*
X18508739Y-10260486D01*
X18508743Y-10260489D01*
X18598209Y-10312142D01*
X18598211Y-10312143D01*
X18605763Y-10316503D01*
X18713981Y-10345500D01*
X18713982Y-10345500D01*
X37618309Y-10345500D01*
X37692809Y-10365462D01*
X37729834Y-10395691D01*
X37731817Y-10397930D01*
X37859146Y-10510732D01*
X37859148Y-10510734D01*
X38009775Y-10589790D01*
X38174944Y-10630500D01*
X38345056Y-10630500D01*
X38510225Y-10589790D01*
X38660852Y-10510734D01*
X38788183Y-10397929D01*
X38884818Y-10257930D01*
X38945140Y-10098872D01*
X38965645Y-9930000D01*
X38945140Y-9761128D01*
X38884818Y-9602070D01*
X38788183Y-9462071D01*
X38788180Y-9462068D01*
X38788179Y-9462067D01*
X38660853Y-9349267D01*
X38660854Y-9349267D01*
X38510224Y-9270209D01*
X38345056Y-9229500D01*
X38174944Y-9229500D01*
X38009775Y-9270209D01*
X37859145Y-9349267D01*
X37737509Y-9457028D01*
X37668508Y-9491489D01*
X37638704Y-9494500D01*
X19007965Y-9494500D01*
X18933465Y-9474538D01*
X18902606Y-9450859D01*
X17791606Y-8339859D01*
X17753042Y-8273064D01*
X17753042Y-8195936D01*
X17791606Y-8129141D01*
X17858401Y-8090577D01*
X17896965Y-8085500D01*
X25122535Y-8085500D01*
X25197035Y-8105462D01*
X25251573Y-8160000D01*
X25271535Y-8234500D01*
X25270449Y-8252450D01*
X25267947Y-8273064D01*
X25254355Y-8384999D01*
X25274860Y-8553874D01*
X25335181Y-8712929D01*
X25360243Y-8749237D01*
X25431817Y-8852929D01*
X25431819Y-8852930D01*
X25431820Y-8852932D01*
X25559146Y-8965732D01*
X25559148Y-8965734D01*
X25709775Y-9044790D01*
X25874944Y-9085500D01*
X26045056Y-9085500D01*
X26210225Y-9044790D01*
X26360852Y-8965734D01*
X26458695Y-8879053D01*
X26493779Y-8847972D01*
X26562780Y-8813511D01*
X26592584Y-8810500D01*
X27101018Y-8810500D01*
X27209237Y-8781503D01*
X27306263Y-8725485D01*
X29678994Y-6352751D01*
X29679004Y-6352744D01*
X29716132Y-6315616D01*
X29770485Y-6261263D01*
X29826503Y-6164237D01*
X29855500Y-6056018D01*
X29855500Y-5217966D01*
X29875462Y-5143466D01*
X29899141Y-5112607D01*
X35162607Y150859D01*
X35229402Y189423D01*
X35267966Y194500D01*
X48642034Y194500D01*
X48716534Y174538D01*
X48747393Y150859D01*
X52202139Y-3303887D01*
X52240703Y-3370682D01*
X52244256Y-3420987D01*
X52244355Y-3420987D01*
X52244355Y-3422384D01*
X52244695Y-3427198D01*
X52244355Y-3429998D01*
X52264860Y-3598874D01*
X52325181Y-3757929D01*
X52325182Y-3757930D01*
X52421817Y-3897929D01*
X52421819Y-3897930D01*
X52421820Y-3897932D01*
X52549146Y-4010732D01*
X52549148Y-4010734D01*
X52699775Y-4089790D01*
X52864944Y-4130500D01*
X53035056Y-4130500D01*
X53200225Y-4089790D01*
X53350852Y-4010734D01*
X53478183Y-3897929D01*
X53574818Y-3757930D01*
X53635140Y-3598872D01*
X53655645Y-3430000D01*
X53635140Y-3261128D01*
X53574818Y-3102070D01*
X53478183Y-2962071D01*
X53478180Y-2962068D01*
X53478179Y-2962067D01*
X53350853Y-2849267D01*
X53350851Y-2849265D01*
X53290192Y-2817428D01*
X53233503Y-2765130D01*
X53210558Y-2691494D01*
X53227505Y-2616251D01*
X53279803Y-2559562D01*
X53290175Y-2553573D01*
X53390852Y-2500734D01*
X53518183Y-2387929D01*
X53614818Y-2247930D01*
X53675140Y-2088872D01*
X53695645Y-1920000D01*
X53675140Y-1751128D01*
X53614818Y-1592070D01*
X53518183Y-1452071D01*
X53518180Y-1452068D01*
X53518179Y-1452067D01*
X53390853Y-1339267D01*
X53390854Y-1339267D01*
X53240224Y-1260209D01*
X53075056Y-1219500D01*
X52904944Y-1219500D01*
X52863231Y-1229780D01*
X52786120Y-1228227D01*
X52722217Y-1190469D01*
X51531748Y0D01*
X57444958Y0D01*
X57465104Y-320223D01*
X57465105Y-320233D01*
X57525230Y-635416D01*
X57624379Y-940565D01*
X57624387Y-940586D01*
X57761001Y-1230904D01*
X57932924Y-1501810D01*
X58137456Y-1749048D01*
X58371351Y-1968690D01*
X58371360Y-1968697D01*
X58630936Y-2157291D01*
X58912108Y-2311867D01*
X58912116Y-2311871D01*
X59210443Y-2429986D01*
X59210452Y-2429989D01*
X59521236Y-2509785D01*
X59839566Y-2549999D01*
X59839568Y-2550000D01*
X60160432Y-2550000D01*
X60160433Y-2549999D01*
X60478763Y-2509785D01*
X60789547Y-2429989D01*
X60789556Y-2429986D01*
X61087883Y-2311871D01*
X61087891Y-2311867D01*
X61369063Y-2157291D01*
X61628639Y-1968697D01*
X61628648Y-1968690D01*
X61862543Y-1749048D01*
X62067075Y-1501810D01*
X62238998Y-1230904D01*
X62375612Y-940586D01*
X62375620Y-940565D01*
X62474769Y-635416D01*
X62534894Y-320233D01*
X62534895Y-320223D01*
X62555042Y0D01*
X62534895Y320223D01*
X62534894Y320233D01*
X62474769Y635416D01*
X62375620Y940565D01*
X62375612Y940586D01*
X62238998Y1230904D01*
X62067075Y1501810D01*
X61862543Y1749048D01*
X61628648Y1968690D01*
X61628639Y1968697D01*
X61369063Y2157291D01*
X61087891Y2311867D01*
X61087883Y2311871D01*
X60789556Y2429986D01*
X60789547Y2429989D01*
X60478763Y2509785D01*
X60160433Y2549999D01*
X60160432Y2550000D01*
X59839568Y2550000D01*
X59839566Y2549999D01*
X59521236Y2509785D01*
X59210452Y2429989D01*
X59210443Y2429986D01*
X58912116Y2311871D01*
X58912108Y2311867D01*
X58630936Y2157291D01*
X58371360Y1968697D01*
X58371351Y1968690D01*
X58137456Y1749048D01*
X57932924Y1501810D01*
X57761001Y1230904D01*
X57624387Y940586D01*
X57624379Y940565D01*
X57525230Y635416D01*
X57465105Y320233D01*
X57465104Y320223D01*
X57444958Y0D01*
X51531748Y0D01*
X50531607Y1000141D01*
X50493043Y1066936D01*
X50493043Y1144064D01*
X50531607Y1210859D01*
X50598402Y1249423D01*
X50636966Y1254500D01*
X55406019Y1254500D01*
X55435016Y1262269D01*
X55514237Y1283497D01*
X55551072Y1304763D01*
X55611259Y1339512D01*
X55611260Y1339513D01*
X55611263Y1339515D01*
X58645770Y4374022D01*
X58712565Y4412586D01*
X58789693Y4412586D01*
X58804951Y4407603D01*
X58853802Y4388679D01*
X59063385Y4349500D01*
X59063390Y4349500D01*
X59276614Y4349500D01*
X59444280Y4380843D01*
X59486198Y4388679D01*
X59486200Y4388680D01*
X59486204Y4388681D01*
X59685016Y4465700D01*
X59685022Y4465703D01*
X59866301Y4577947D01*
X59866302Y4577948D01*
X60023872Y4721593D01*
X60152363Y4891740D01*
X60152364Y4891743D01*
X60152366Y4891745D01*
X60247405Y5082611D01*
X60305756Y5287690D01*
X60325429Y5500000D01*
X60305756Y5712310D01*
X60247405Y5917389D01*
X60152366Y6108255D01*
X60023872Y6278407D01*
X59866302Y6422052D01*
X59685019Y6534298D01*
X59486198Y6611321D01*
X59276610Y6650500D01*
X59063390Y6650500D01*
X58853802Y6611321D01*
X58751169Y6571561D01*
X58654983Y6534299D01*
X58654977Y6534296D01*
X58473698Y6422052D01*
X58473697Y6422051D01*
X58316127Y6278406D01*
X58187636Y6108259D01*
X58092594Y5917387D01*
X58092593Y5917385D01*
X58043311Y5744177D01*
X58003723Y5677984D01*
X57936342Y5640453D01*
X57859223Y5641641D01*
X57793030Y5681229D01*
X57756688Y5744173D01*
X57707404Y5917389D01*
X57612365Y6108255D01*
X57483871Y6278407D01*
X57326301Y6422052D01*
X57145018Y6534298D01*
X56946197Y6611321D01*
X56736609Y6650500D01*
X56523389Y6650500D01*
X56313801Y6611321D01*
X56211168Y6571561D01*
X56114982Y6534299D01*
X56114976Y6534296D01*
X55933697Y6422052D01*
X55933696Y6422051D01*
X55776126Y6278406D01*
X55647635Y6108259D01*
X55552593Y5917387D01*
X55552592Y5917385D01*
X55503311Y5744181D01*
X55463723Y5677988D01*
X55396342Y5640457D01*
X55319223Y5641645D01*
X55253030Y5681233D01*
X55216688Y5744178D01*
X55167405Y5917389D01*
X55072366Y6108255D01*
X54943872Y6278407D01*
X54786302Y6422052D01*
X54605019Y6534298D01*
X54406198Y6611321D01*
X54196610Y6650500D01*
X53983390Y6650500D01*
X53773802Y6611321D01*
X53671169Y6571561D01*
X53574983Y6534299D01*
X53574977Y6534296D01*
X53393698Y6422052D01*
X53393697Y6422051D01*
X53236127Y6278406D01*
X53107636Y6108259D01*
X53012594Y5917387D01*
X53012593Y5917385D01*
X52992311Y5846100D01*
X52952723Y5779907D01*
X52885342Y5742376D01*
X52808223Y5743564D01*
X52742030Y5783152D01*
X52704499Y5850533D01*
X52699999Y5886876D01*
X52699999Y6394794D01*
X52697090Y6419874D01*
X52651787Y6522477D01*
X52651787Y6522478D01*
X52572478Y6601786D01*
X52469871Y6647091D01*
X52444795Y6649999D01*
X50655205Y6649999D01*
X50630125Y6647090D01*
X50527522Y6601787D01*
X50448213Y6522478D01*
X50402908Y6419871D01*
X50400000Y6394795D01*
X50400000Y4605205D01*
X50402909Y4580125D01*
X50448212Y4477522D01*
X50527522Y4398213D01*
X50527521Y4398213D01*
X50630128Y4352908D01*
X50655204Y4350000D01*
X52444794Y4350000D01*
X52469874Y4352909D01*
X52554578Y4390309D01*
X52630794Y4402139D01*
X52654136Y4393095D01*
X52652071Y4396673D01*
X52652071Y4473801D01*
X52659689Y4495420D01*
X52697091Y4580128D01*
X52699999Y4605204D01*
X52699999Y5113121D01*
X52719961Y5187621D01*
X52774499Y5242159D01*
X52848999Y5262121D01*
X52923499Y5242159D01*
X52978037Y5187621D01*
X52992310Y5153899D01*
X53012591Y5082619D01*
X53012594Y5082612D01*
X53107636Y4891740D01*
X53182489Y4792621D01*
X53211456Y4721139D01*
X53200800Y4644751D01*
X53168944Y4597469D01*
X52901353Y4329878D01*
X52834558Y4291314D01*
X52757430Y4291314D01*
X52754339Y4293098D01*
X52762896Y4237971D01*
X52735033Y4166052D01*
X52720120Y4148645D01*
X52065616Y3494141D01*
X51998821Y3455577D01*
X51960257Y3450500D01*
X34017525Y3450500D01*
X33877515Y3412984D01*
X33751985Y3340510D01*
X33751984Y3340509D01*
X24980616Y-5430859D01*
X24913821Y-5469423D01*
X24875257Y-5474500D01*
X18387914Y-5474500D01*
X18313414Y-5454538D01*
X18282555Y-5430859D01*
X13324141Y-472444D01*
X13285577Y-405649D01*
X13280500Y-367085D01*
X13280500Y6912474D01*
X13280500Y6912475D01*
X13242984Y7052485D01*
X13215551Y7100000D01*
X13170510Y7178015D01*
X8748384Y11600141D01*
X8709820Y11666936D01*
X8709820Y11744064D01*
X8748384Y11810859D01*
X8815179Y11849423D01*
X8853743Y11854500D01*
X10352475Y11854500D01*
X10492485Y11892016D01*
X10618015Y11964490D01*
X13589384Y14935859D01*
X13656179Y14974423D01*
X13694743Y14979500D01*
X28222476Y14979500D01*
X28362483Y15017015D01*
X28362485Y15017016D01*
X28365700Y15018872D01*
X28398470Y15037792D01*
X28488014Y15089489D01*
X28864025Y15465500D01*
X29271353Y15872829D01*
X29338148Y15911393D01*
X29341054Y15912140D01*
X29475224Y15945209D01*
X29625854Y16024267D01*
X29753179Y16137067D01*
X29753180Y16137068D01*
X29753183Y16137071D01*
X29849818Y16277070D01*
X29910140Y16436128D01*
X29930645Y16605000D01*
X29910140Y16773872D01*
X29849818Y16932930D01*
X29753183Y17072929D01*
X29625852Y17185734D01*
X29475225Y17264790D01*
X29310056Y17305500D01*
X29139944Y17305500D01*
X28974775Y17264790D01*
X28824148Y17185734D01*
X28824146Y17185732D01*
X28824145Y17185732D01*
X28696820Y17072932D01*
X28696817Y17072929D01*
X28600182Y16932930D01*
X28600181Y16932928D01*
X28539859Y16773870D01*
X28539859Y16773868D01*
X28535624Y16738991D01*
X28506827Y16667441D01*
X28493070Y16651594D01*
X27965616Y16124141D01*
X27898821Y16085577D01*
X27860257Y16080500D01*
X25631519Y16080500D01*
X25557019Y16100462D01*
X25502481Y16155000D01*
X25482519Y16229500D01*
X25502481Y16304000D01*
X25547583Y16352609D01*
X25563217Y16363268D01*
X25750053Y16536626D01*
X25908954Y16735882D01*
X25908959Y16735888D01*
X26036393Y16956612D01*
X26129508Y17193863D01*
X26186222Y17442343D01*
X26186227Y17442407D01*
X26205268Y17696494D01*
X26205268Y17696504D01*
X37295233Y17696504D01*
X37295233Y17696495D01*
X37314272Y17442429D01*
X37314275Y17442407D01*
X37370968Y17194018D01*
X37370970Y17194011D01*
X37464056Y16956833D01*
X37464058Y16956828D01*
X37591454Y16736173D01*
X37591459Y16736165D01*
X37750316Y16536963D01*
X37937095Y16363658D01*
X38147618Y16220127D01*
X38377169Y16109581D01*
X38377190Y16109573D01*
X38620648Y16034476D01*
X38620652Y16034475D01*
X38872599Y15996500D01*
X39127400Y15996500D01*
X39379347Y16034475D01*
X39379351Y16034476D01*
X39622812Y16109574D01*
X39622817Y16109575D01*
X39852377Y16220124D01*
X40062907Y16363661D01*
X40249683Y16536963D01*
X40408540Y16736165D01*
X40408545Y16736173D01*
X40535941Y16956828D01*
X40535943Y16956833D01*
X40629029Y17194011D01*
X40629031Y17194018D01*
X40685724Y17442407D01*
X40685727Y17442429D01*
X40704767Y17696495D01*
X40704767Y17696504D01*
X40685727Y17950570D01*
X40685724Y17950592D01*
X40629031Y18198981D01*
X40629029Y18198988D01*
X40535943Y18436166D01*
X40535941Y18436171D01*
X40408545Y18656826D01*
X40408540Y18656834D01*
X40249683Y18856036D01*
X40062907Y19029338D01*
X39852377Y19172875D01*
X39622817Y19283424D01*
X39622812Y19283425D01*
X39379351Y19358523D01*
X39379347Y19358524D01*
X39127400Y19396499D01*
X39127394Y19396500D01*
X38872606Y19396500D01*
X38872599Y19396499D01*
X38620652Y19358524D01*
X38620648Y19358523D01*
X38377190Y19283426D01*
X38377169Y19283418D01*
X38147618Y19172872D01*
X37937095Y19029341D01*
X37750316Y18856036D01*
X37591459Y18656834D01*
X37591454Y18656826D01*
X37464058Y18436171D01*
X37464056Y18436166D01*
X37370970Y18198988D01*
X37370968Y18198981D01*
X37314275Y17950592D01*
X37314272Y17950570D01*
X37295233Y17696504D01*
X26205268Y17696504D01*
X26205268Y17696505D01*
X26186223Y17950644D01*
X26186222Y17950644D01*
X26186222Y17950657D01*
X26129508Y18199137D01*
X26036393Y18436388D01*
X25908959Y18657112D01*
X25750050Y18856377D01*
X25563217Y19029732D01*
X25352634Y19173305D01*
X25123004Y19283889D01*
X24879458Y19359013D01*
X24627435Y19397000D01*
X24372565Y19397000D01*
X24120542Y19359013D01*
X24120539Y19359012D01*
X24120538Y19359012D01*
X24120536Y19359011D01*
X23876996Y19283889D01*
X23647366Y19173305D01*
X23436783Y19029732D01*
X23346948Y18946377D01*
X23249946Y18856373D01*
X23162811Y18747109D01*
X23091041Y18657112D01*
X23036481Y18562611D01*
X22963608Y18436391D01*
X22963605Y18436384D01*
X22870491Y18199136D01*
X22870490Y18199132D01*
X22813779Y17950664D01*
X22813776Y17950644D01*
X22794732Y17696505D01*
X22794732Y17696494D01*
X22813776Y17442355D01*
X22813779Y17442335D01*
X22870490Y17193867D01*
X22870491Y17193863D01*
X22963605Y16956615D01*
X22963608Y16956608D01*
X23039083Y16825882D01*
X23090876Y16736173D01*
X23091040Y16735890D01*
X23091045Y16735882D01*
X23249946Y16536626D01*
X23436782Y16363268D01*
X23452417Y16352609D01*
X23502726Y16294147D01*
X23517064Y16218364D01*
X23491590Y16145564D01*
X23433128Y16095255D01*
X23368481Y16080500D01*
X13332525Y16080500D01*
X13192515Y16042984D01*
X13066985Y15970510D01*
X13066984Y15970509D01*
X10095616Y12999141D01*
X10028821Y12960577D01*
X9990257Y12955500D01*
X-16562135Y12955500D01*
X-16636635Y12975462D01*
X-16667494Y12999141D01*
X-19023862Y15355509D01*
X-19023863Y15355510D01*
X-19149393Y15427984D01*
X-19159656Y15430734D01*
X-19289403Y15465500D01*
X-26195257Y15465500D01*
X-26269757Y15485462D01*
X-26300616Y15509141D01*
X-27985859Y17194384D01*
X-28024423Y17261179D01*
X-28029500Y17299743D01*
X-28029500Y18477970D01*
X-28009538Y18552470D01*
X-28003125Y18562611D01*
X-27955182Y18632068D01*
X-27894860Y18791125D01*
X-27874355Y18960000D01*
X-27894860Y19128874D01*
X-27955181Y19287929D01*
X-28004247Y19359012D01*
X-28051817Y19427929D01*
X-28085211Y19457513D01*
X-28179146Y19540732D01*
X-28179148Y19540734D01*
X-28329775Y19619790D01*
X-28494944Y19660500D01*
X-28665056Y19660500D01*
X-28830225Y19619790D01*
X-28980852Y19540734D01*
X-29108183Y19427929D01*
X-29204818Y19287930D01*
X-29265140Y19128872D01*
X-29285645Y18960000D01*
X-29265140Y18791128D01*
X-29214207Y18656826D01*
X-29204817Y18632068D01*
X-29156875Y18562611D01*
X-29130983Y18489959D01*
X-29130500Y18477970D01*
X-29130500Y16937525D01*
X-29107514Y16851741D01*
X-29092984Y16797515D01*
X-29057401Y16735882D01*
X-29020509Y16671984D01*
X-27368384Y15019859D01*
X-27329820Y14953064D01*
X-27329820Y14875936D01*
X-27368384Y14809141D01*
X-27435179Y14770577D01*
X-27473743Y14765500D01*
X-28215258Y14765500D01*
X-28289758Y14785462D01*
X-28320617Y14809141D01*
X-28408070Y14896594D01*
X-28446634Y14963389D01*
X-28450624Y14983991D01*
X-28454860Y15018871D01*
X-28455235Y15019859D01*
X-28515182Y15177930D01*
X-28611817Y15317929D01*
X-28739148Y15430734D01*
X-28889775Y15509790D01*
X-29054944Y15550500D01*
X-29225056Y15550500D01*
X-29390225Y15509790D01*
X-29540852Y15430734D01*
X-29668183Y15317929D01*
X-29764818Y15177930D01*
X-29825140Y15018872D01*
X-29845645Y14850000D01*
X-29825140Y14681128D01*
X-29764818Y14522070D01*
X-29668183Y14382071D01*
X-29668180Y14382068D01*
X-29668179Y14382067D01*
X-29604924Y14326028D01*
X-29562397Y14261684D01*
X-29557740Y14184696D01*
X-29592201Y14115695D01*
X-29656545Y14073168D01*
X-29703729Y14065500D01*
X-36363982Y14065500D01*
X-36476019Y14065500D01*
X-36584237Y14036503D01*
X-36681263Y13980485D01*
X-37662607Y12999141D01*
X-37967607Y12694141D01*
X-38034402Y12655577D01*
X-38072966Y12650500D01*
X-44055378Y12650500D01*
X-44167414Y12650500D01*
X-44275633Y12621503D01*
X-44372659Y12565485D01*
X-48030830Y8907314D01*
X-49184003Y7754141D01*
X-49250798Y7715577D01*
X-49289362Y7710500D01*
X-54078981Y7710500D01*
X-54191018Y7710500D01*
X-54299237Y7681503D01*
X-54396263Y7625485D01*
X-55395773Y6625974D01*
X-55462566Y6587412D01*
X-55539694Y6587412D01*
X-55554946Y6592393D01*
X-55603803Y6611321D01*
X-55813391Y6650500D01*
X-56026611Y6650500D01*
X-56236199Y6611321D01*
X-56435020Y6534298D01*
X-56616303Y6422052D01*
X-56773873Y6278407D01*
X-56902367Y6108255D01*
X-56997406Y5917389D01*
X-57046689Y5744178D01*
X-57086276Y5677988D01*
X-57153657Y5640457D01*
X-57230776Y5641645D01*
X-57296969Y5681233D01*
X-57333312Y5744181D01*
X-57382593Y5917385D01*
X-57382594Y5917387D01*
X-57477636Y6108259D01*
X-57606127Y6278406D01*
X-57763697Y6422051D01*
X-57763702Y6422055D01*
X-57838938Y6468639D01*
X-57891771Y6524830D01*
X-57909500Y6595321D01*
X-57909500Y7082475D01*
X-57947016Y7222485D01*
X-57950767Y7228982D01*
X-58003967Y7321128D01*
X-58019489Y7348014D01*
X-58516616Y7845141D01*
X-58555180Y7911936D01*
X-58555180Y7989064D01*
X-58516616Y8055859D01*
X-58449821Y8094423D01*
X-58411257Y8099500D01*
X-50892687Y8099500D01*
X-50892683Y8099500D01*
X-50892680Y8099500D01*
X-50892668Y8099501D01*
X-50680235Y8130043D01*
X-50680226Y8130045D01*
X-50474289Y8190515D01*
X-50474287Y8190515D01*
X-50279053Y8279676D01*
X-50279052Y8279676D01*
X-50098486Y8395719D01*
X-50098485Y8395720D01*
X-49936276Y8536275D01*
X-49936275Y8536276D01*
X-49795720Y8698485D01*
X-49795719Y8698486D01*
X-49679676Y8879052D01*
X-49679676Y8879053D01*
X-49590515Y9074287D01*
X-49590515Y9074289D01*
X-49530045Y9280226D01*
X-49530043Y9280235D01*
X-49499501Y9492668D01*
X-49499500Y9492686D01*
X-49499500Y23607313D01*
X-49499501Y23607331D01*
X-49530043Y23819764D01*
X-49530045Y23819773D01*
X-49590515Y24025710D01*
X-49590515Y24025712D01*
X-49679676Y24220946D01*
X-49679676Y24220947D01*
X-49795719Y24401513D01*
X-49795720Y24401514D01*
X-49936275Y24563723D01*
X-49936276Y24563724D01*
X-50064820Y24675108D01*
X-50098487Y24704281D01*
X-50279050Y24820322D01*
X-50474290Y24909485D01*
X-50570781Y24937817D01*
X-50680226Y24969954D01*
X-50680235Y24969956D01*
X-50892668Y25000498D01*
X-50892672Y25000498D01*
X-50892683Y25000500D01*
X-50892687Y25000500D01*
X-63450500Y25000500D01*
X-63525000Y25020462D01*
X-63579538Y25075000D01*
X-63599500Y25149500D01*
X-63599500Y25415005D01*
X-40705268Y25415005D01*
X-40705268Y25414994D01*
X-40686223Y25160855D01*
X-40686222Y25160843D01*
X-40686220Y25160835D01*
X-40629509Y24912367D01*
X-40629508Y24912363D01*
X-40536394Y24675115D01*
X-40536391Y24675108D01*
X-40509462Y24628466D01*
X-40408959Y24454388D01*
X-40392786Y24434108D01*
X-40250053Y24255126D01*
X-40250050Y24255123D01*
X-40063217Y24081768D01*
X-39852634Y23938195D01*
X-39852631Y23938194D01*
X-39852629Y23938192D01*
X-39634851Y23833316D01*
X-39576390Y23783007D01*
X-39550917Y23710207D01*
X-39550500Y23699072D01*
X-39550500Y19510927D01*
X-39570462Y19436427D01*
X-39625000Y19381889D01*
X-39634824Y19376696D01*
X-39852634Y19271805D01*
X-40063217Y19128232D01*
X-40250050Y18954877D01*
X-40408959Y18755612D01*
X-40536393Y18534888D01*
X-40629508Y18297637D01*
X-40686222Y18049157D01*
X-40686222Y18049144D01*
X-40686223Y18049144D01*
X-40705268Y17795005D01*
X-40705268Y17794994D01*
X-40697886Y17696494D01*
X-40686222Y17540843D01*
X-40686220Y17540835D01*
X-40629509Y17292367D01*
X-40629508Y17292363D01*
X-40536394Y17055115D01*
X-40536391Y17055108D01*
X-40509462Y17008466D01*
X-40408959Y16834388D01*
X-40379554Y16797515D01*
X-40250053Y16635126D01*
X-40250050Y16635123D01*
X-40063217Y16461768D01*
X-39852634Y16318195D01*
X-39852631Y16318194D01*
X-39852629Y16318192D01*
X-39623013Y16207615D01*
X-39623009Y16207613D01*
X-39623004Y16207611D01*
X-39622996Y16207608D01*
X-39622992Y16207607D01*
X-39379463Y16132488D01*
X-39379461Y16132487D01*
X-39127437Y16094500D01*
X-39127435Y16094500D01*
X-38872562Y16094500D01*
X-38620538Y16132487D01*
X-38620536Y16132488D01*
X-38377007Y16207607D01*
X-38376998Y16207610D01*
X-38376996Y16207611D01*
X-38376994Y16207611D01*
X-38376986Y16207615D01*
X-38147370Y16318192D01*
X-37936780Y16461770D01*
X-37749946Y16635126D01*
X-37591045Y16834382D01*
X-37591040Y16834390D01*
X-37463608Y17055108D01*
X-37463605Y17055115D01*
X-37370491Y17292363D01*
X-37370490Y17292367D01*
X-37313779Y17540835D01*
X-37313776Y17540855D01*
X-37294732Y17794994D01*
X-37294732Y17795005D01*
X-37313776Y18049144D01*
X-37313779Y18049164D01*
X-37370490Y18297632D01*
X-37370491Y18297636D01*
X-37463605Y18534884D01*
X-37463608Y18534891D01*
X-37534171Y18657109D01*
X-37591041Y18755612D01*
X-37619364Y18791128D01*
X-37749946Y18954873D01*
X-37755472Y18960000D01*
X-37936783Y19128232D01*
X-38147366Y19271805D01*
X-38365151Y19376684D01*
X-38423609Y19426992D01*
X-38449083Y19499792D01*
X-38449500Y19510927D01*
X-38449500Y23699072D01*
X-38429538Y23773572D01*
X-38375000Y23828110D01*
X-38365149Y23833316D01*
X-38147370Y23938192D01*
X-37936780Y24081770D01*
X-37749946Y24255126D01*
X-37591045Y24454382D01*
X-37591040Y24454390D01*
X-37463608Y24675108D01*
X-37463605Y24675115D01*
X-37370491Y24912363D01*
X-37370490Y24912367D01*
X-37313779Y25160835D01*
X-37313776Y25160855D01*
X-37294732Y25414994D01*
X-37294732Y25415005D01*
X-26205268Y25415005D01*
X-26205268Y25414994D01*
X-26186223Y25160855D01*
X-26186222Y25160843D01*
X-26186220Y25160835D01*
X-26129509Y24912367D01*
X-26129508Y24912363D01*
X-26036394Y24675115D01*
X-26036391Y24675108D01*
X-26009462Y24628466D01*
X-25908959Y24454388D01*
X-25892786Y24434108D01*
X-25750053Y24255126D01*
X-25750050Y24255123D01*
X-25563217Y24081768D01*
X-25352634Y23938195D01*
X-25352631Y23938194D01*
X-25352629Y23938192D01*
X-25134851Y23833316D01*
X-25076390Y23783007D01*
X-25050917Y23710207D01*
X-25050500Y23699072D01*
X-25050500Y19510927D01*
X-25070462Y19436427D01*
X-25125000Y19381889D01*
X-25134824Y19376696D01*
X-25352634Y19271805D01*
X-25563217Y19128232D01*
X-25750050Y18954877D01*
X-25908959Y18755612D01*
X-26036393Y18534888D01*
X-26129508Y18297637D01*
X-26186222Y18049157D01*
X-26186222Y18049144D01*
X-26186223Y18049144D01*
X-26205268Y17795005D01*
X-26205268Y17794994D01*
X-26197886Y17696494D01*
X-26186222Y17540843D01*
X-26186220Y17540835D01*
X-26129509Y17292367D01*
X-26129508Y17292363D01*
X-26036394Y17055115D01*
X-26036391Y17055108D01*
X-26009462Y17008466D01*
X-25908959Y16834388D01*
X-25879554Y16797515D01*
X-25750053Y16635126D01*
X-25750050Y16635123D01*
X-25563217Y16461768D01*
X-25352634Y16318195D01*
X-25352631Y16318194D01*
X-25352629Y16318192D01*
X-25123013Y16207615D01*
X-25123009Y16207613D01*
X-25123004Y16207611D01*
X-25122996Y16207608D01*
X-25122992Y16207607D01*
X-24879463Y16132488D01*
X-24879461Y16132487D01*
X-24627437Y16094500D01*
X-24627435Y16094500D01*
X-24372562Y16094500D01*
X-24120538Y16132487D01*
X-24120536Y16132488D01*
X-23877007Y16207607D01*
X-23876998Y16207610D01*
X-23876996Y16207611D01*
X-23876994Y16207611D01*
X-23876986Y16207615D01*
X-23647370Y16318192D01*
X-23436780Y16461770D01*
X-23249946Y16635126D01*
X-23091045Y16834382D01*
X-23091040Y16834390D01*
X-22963608Y17055108D01*
X-22963605Y17055115D01*
X-22870491Y17292363D01*
X-22870490Y17292367D01*
X-22813779Y17540835D01*
X-22813776Y17540855D01*
X-22794732Y17794994D01*
X-22794732Y17795005D01*
X-11705268Y17795005D01*
X-11705268Y17794994D01*
X-11697886Y17696494D01*
X-11686222Y17540843D01*
X-11686220Y17540835D01*
X-11629509Y17292367D01*
X-11629508Y17292363D01*
X-11536394Y17055115D01*
X-11536391Y17055108D01*
X-11509462Y17008466D01*
X-11408959Y16834388D01*
X-11379554Y16797515D01*
X-11250053Y16635126D01*
X-11250050Y16635123D01*
X-11063217Y16461768D01*
X-10852634Y16318195D01*
X-10852631Y16318194D01*
X-10852629Y16318192D01*
X-10623013Y16207615D01*
X-10623009Y16207613D01*
X-10623004Y16207611D01*
X-10622996Y16207608D01*
X-10622992Y16207607D01*
X-10379463Y16132488D01*
X-10379461Y16132487D01*
X-10127437Y16094500D01*
X-10127435Y16094500D01*
X-9872562Y16094500D01*
X-9620538Y16132487D01*
X-9620536Y16132488D01*
X-9377007Y16207607D01*
X-9376998Y16207610D01*
X-9376996Y16207611D01*
X-9376994Y16207611D01*
X-9376986Y16207615D01*
X-9147370Y16318192D01*
X-8936780Y16461770D01*
X-8749946Y16635126D01*
X-8591045Y16834382D01*
X-8591040Y16834390D01*
X-8463608Y17055108D01*
X-8463605Y17055115D01*
X-8370491Y17292363D01*
X-8370490Y17292367D01*
X-8313779Y17540835D01*
X-8313776Y17540855D01*
X-8294732Y17794994D01*
X-8294732Y17795005D01*
X-8313776Y18049144D01*
X-8313779Y18049164D01*
X-8370490Y18297632D01*
X-8370491Y18297636D01*
X-8463605Y18534884D01*
X-8463608Y18534891D01*
X-8534171Y18657109D01*
X-8591041Y18755612D01*
X-8619364Y18791128D01*
X-8749946Y18954873D01*
X-8755472Y18960000D01*
X-8936783Y19128232D01*
X-9147366Y19271805D01*
X-9376996Y19382389D01*
X-9620536Y19457511D01*
X-9620538Y19457512D01*
X-9620539Y19457512D01*
X-9620542Y19457513D01*
X-9872565Y19495500D01*
X-10127435Y19495500D01*
X-10379458Y19457513D01*
X-10623004Y19382389D01*
X-10852634Y19271805D01*
X-11063217Y19128232D01*
X-11250050Y18954877D01*
X-11408959Y18755612D01*
X-11536393Y18534888D01*
X-11629508Y18297637D01*
X-11686222Y18049157D01*
X-11686222Y18049144D01*
X-11686223Y18049144D01*
X-11705268Y17795005D01*
X-22794732Y17795005D01*
X-22813776Y18049144D01*
X-22813779Y18049164D01*
X-22870490Y18297632D01*
X-22870491Y18297636D01*
X-22963605Y18534884D01*
X-22963608Y18534891D01*
X-23034171Y18657109D01*
X-23091041Y18755612D01*
X-23119364Y18791128D01*
X-23249946Y18954873D01*
X-23255472Y18960000D01*
X-23436783Y19128232D01*
X-23647366Y19271805D01*
X-23865151Y19376684D01*
X-23923609Y19426992D01*
X-23949083Y19499792D01*
X-23949500Y19510927D01*
X-23949500Y21955000D01*
X-1200645Y21955000D01*
X-1180140Y21786128D01*
X-1119818Y21627070D01*
X-1023183Y21487071D01*
X-1023180Y21487068D01*
X-1023179Y21487067D01*
X-895853Y21374267D01*
X-895854Y21374267D01*
X-745224Y21295209D01*
X-580056Y21254500D01*
X-409944Y21254500D01*
X-244775Y21295209D01*
X-94145Y21374267D01*
X33179Y21487067D01*
X33180Y21487068D01*
X33183Y21487071D01*
X129818Y21627070D01*
X190140Y21786128D01*
X210645Y21955000D01*
X208140Y21975625D01*
X218974Y22051986D01*
X250692Y22098944D01*
X857606Y22705859D01*
X924401Y22744423D01*
X962965Y22749500D01*
X1085056Y22749500D01*
X1250224Y22790209D01*
X1400854Y22869267D01*
X1528179Y22982067D01*
X1528180Y22982068D01*
X1528183Y22982071D01*
X1624818Y23122070D01*
X1685140Y23281128D01*
X1705645Y23450000D01*
X1685140Y23618872D01*
X1624818Y23777930D01*
X1528183Y23917929D01*
X1400852Y24030734D01*
X1250225Y24109790D01*
X1085056Y24150500D01*
X914944Y24150500D01*
X749775Y24109790D01*
X599148Y24030734D01*
X599146Y24030732D01*
X599145Y24030732D01*
X494689Y23938192D01*
X471817Y23917929D01*
X409819Y23828110D01*
X375181Y23777929D01*
X314860Y23618874D01*
X294355Y23449998D01*
X296860Y23429368D01*
X286022Y23353005D01*
X254306Y23306053D01*
X-69675Y22982071D01*
X-352605Y22699141D01*
X-419400Y22660577D01*
X-457964Y22655500D01*
X-580056Y22655500D01*
X-745225Y22614790D01*
X-895852Y22535734D01*
X-1023183Y22422929D01*
X-1119818Y22282930D01*
X-1180140Y22123872D01*
X-1200645Y21955000D01*
X-23949500Y21955000D01*
X-23949500Y23699072D01*
X-23929538Y23773572D01*
X-23875000Y23828110D01*
X-23865149Y23833316D01*
X-23647370Y23938192D01*
X-23436780Y24081770D01*
X-23249946Y24255126D01*
X-23091045Y24454382D01*
X-23091040Y24454390D01*
X-22963608Y24675108D01*
X-22963605Y24675115D01*
X-22870491Y24912363D01*
X-22870490Y24912367D01*
X-22813779Y25160835D01*
X-22813776Y25160855D01*
X-22794732Y25414994D01*
X-22794732Y25415005D01*
X-11705268Y25415005D01*
X-11705268Y25414994D01*
X-11686223Y25160855D01*
X-11686222Y25160843D01*
X-11686220Y25160835D01*
X-11629509Y24912367D01*
X-11629508Y24912363D01*
X-11536394Y24675115D01*
X-11536391Y24675108D01*
X-11509462Y24628466D01*
X-11408959Y24454388D01*
X-11392786Y24434108D01*
X-11250053Y24255126D01*
X-11250050Y24255123D01*
X-11063217Y24081768D01*
X-10852634Y23938195D01*
X-10852631Y23938194D01*
X-10852629Y23938192D01*
X-10623013Y23827615D01*
X-10623009Y23827613D01*
X-10623004Y23827611D01*
X-10622996Y23827608D01*
X-10622992Y23827607D01*
X-10379463Y23752488D01*
X-10379461Y23752487D01*
X-10127437Y23714500D01*
X-10127435Y23714500D01*
X-9872562Y23714500D01*
X-9620538Y23752487D01*
X-9620536Y23752488D01*
X-9377007Y23827607D01*
X-9376998Y23827610D01*
X-9376996Y23827611D01*
X-9376994Y23827611D01*
X-9376986Y23827615D01*
X-9147370Y23938192D01*
X-8936780Y24081770D01*
X-8749946Y24255126D01*
X-8591045Y24454382D01*
X-8591040Y24454390D01*
X-8463608Y24675108D01*
X-8463605Y24675115D01*
X-8418515Y24790000D01*
X1954355Y24790000D01*
X1974860Y24621125D01*
X2035180Y24462073D01*
X2131817Y24322070D01*
X2131818Y24322069D01*
X2154308Y24302145D01*
X2196833Y24237800D01*
X2204500Y24190619D01*
X2204500Y20173980D01*
X2233498Y20065761D01*
X2289513Y19968738D01*
X2289515Y19968736D01*
X3114304Y19143946D01*
X3152868Y19077151D01*
X3156859Y19020632D01*
X3154355Y19000003D01*
X3154355Y19000000D01*
X3160866Y18946377D01*
X3174860Y18831125D01*
X3235181Y18672070D01*
X3331817Y18532071D01*
X3331820Y18532067D01*
X3459146Y18419267D01*
X3459145Y18419267D01*
X3609775Y18340209D01*
X3774944Y18299500D01*
X3945056Y18299500D01*
X4110224Y18340209D01*
X4260854Y18419267D01*
X4388179Y18532067D01*
X4388180Y18532068D01*
X4388183Y18532071D01*
X4484818Y18672070D01*
X4545140Y18831128D01*
X4565645Y19000000D01*
X4545140Y19168872D01*
X4484818Y19327930D01*
X4388183Y19467929D01*
X4260852Y19580734D01*
X4110225Y19659790D01*
X3945056Y19700500D01*
X3822965Y19700500D01*
X3748465Y19720462D01*
X3717606Y19744141D01*
X3493009Y19968738D01*
X3099139Y20362608D01*
X3060577Y20429401D01*
X3055500Y20467965D01*
X3055500Y24137464D01*
X3075462Y24211964D01*
X3105694Y24248992D01*
X3170961Y24306814D01*
X3188183Y24322071D01*
X3284818Y24462070D01*
X3311149Y24531500D01*
X3345139Y24621125D01*
X3345140Y24621128D01*
X3365645Y24790000D01*
X3345140Y24958872D01*
X3284818Y25117930D01*
X3188183Y25257929D01*
X3060852Y25370734D01*
X2992697Y25406505D01*
X8294732Y25406505D01*
X8294732Y25406494D01*
X8313776Y25152355D01*
X8313779Y25152335D01*
X8370490Y24903867D01*
X8370491Y24903863D01*
X8463605Y24666615D01*
X8463608Y24666608D01*
X8577575Y24469210D01*
X8586132Y24454390D01*
X8591040Y24445890D01*
X8591045Y24445882D01*
X8749946Y24246626D01*
X8936785Y24073266D01*
X9134435Y23938510D01*
X9184745Y23880049D01*
X9199500Y23815401D01*
X9199500Y19377597D01*
X9179538Y19303097D01*
X9134436Y19254490D01*
X8936783Y19119732D01*
X8807746Y19000003D01*
X8749946Y18946373D01*
X8658039Y18831125D01*
X8591041Y18747112D01*
X8538915Y18656826D01*
X8463608Y18526391D01*
X8463605Y18526384D01*
X8370491Y18289136D01*
X8370490Y18289132D01*
X8313779Y18040664D01*
X8313776Y18040644D01*
X8294732Y17786505D01*
X8294732Y17786494D01*
X8313776Y17532355D01*
X8313779Y17532335D01*
X8370490Y17283867D01*
X8370491Y17283863D01*
X8463605Y17046615D01*
X8463608Y17046608D01*
X8576114Y16851742D01*
X8586132Y16834390D01*
X8591040Y16825890D01*
X8591045Y16825882D01*
X8749946Y16626626D01*
X8936780Y16453270D01*
X9147370Y16309692D01*
X9376986Y16199115D01*
X9376994Y16199111D01*
X9376996Y16199111D01*
X9376998Y16199110D01*
X9377007Y16199107D01*
X9620536Y16123988D01*
X9620538Y16123987D01*
X9872562Y16086000D01*
X9872565Y16086000D01*
X10127437Y16086000D01*
X10379461Y16123987D01*
X10379463Y16123988D01*
X10622992Y16199107D01*
X10622996Y16199108D01*
X10623004Y16199111D01*
X10623009Y16199113D01*
X10623013Y16199115D01*
X10852629Y16309692D01*
X10852631Y16309694D01*
X10852634Y16309695D01*
X11063217Y16453268D01*
X11250050Y16626623D01*
X11250053Y16626626D01*
X11408954Y16825882D01*
X11408959Y16825888D01*
X11536393Y17046612D01*
X11629508Y17283863D01*
X11686222Y17532343D01*
X11698523Y17696494D01*
X11705268Y17786494D01*
X11705268Y17786505D01*
X11686223Y18040644D01*
X11686222Y18040644D01*
X11686222Y18040657D01*
X11629508Y18289137D01*
X11536393Y18526388D01*
X11408959Y18747112D01*
X11250050Y18946377D01*
X11063217Y19119732D01*
X10865563Y19254489D01*
X10815256Y19312948D01*
X10800500Y19377597D01*
X10800500Y23815401D01*
X10820462Y23889901D01*
X10865565Y23938510D01*
X11063214Y24073266D01*
X11063217Y24073268D01*
X11250050Y24246623D01*
X11250053Y24246626D01*
X11408954Y24445882D01*
X11408959Y24445888D01*
X11458387Y24531500D01*
X11512923Y24586037D01*
X11587423Y24606000D01*
X22860614Y24606000D01*
X22935114Y24586038D01*
X22989652Y24531500D01*
X23090876Y24356173D01*
X23091040Y24355890D01*
X23091045Y24355882D01*
X23249946Y24156626D01*
X23436780Y23983270D01*
X23647370Y23839692D01*
X23876986Y23729115D01*
X23876994Y23729111D01*
X23876996Y23729111D01*
X23876998Y23729110D01*
X23877007Y23729107D01*
X24120536Y23653988D01*
X24120538Y23653987D01*
X24372562Y23616000D01*
X24372565Y23616000D01*
X24627437Y23616000D01*
X24879461Y23653987D01*
X24879463Y23653988D01*
X25122992Y23729107D01*
X25122996Y23729108D01*
X25123004Y23729111D01*
X25123009Y23729113D01*
X25123013Y23729115D01*
X25352629Y23839692D01*
X25352631Y23839694D01*
X25352634Y23839695D01*
X25563217Y23983268D01*
X25750050Y24156623D01*
X25750053Y24156626D01*
X25908954Y24355882D01*
X25908959Y24355888D01*
X26036393Y24576612D01*
X26129508Y24813863D01*
X26130983Y24820323D01*
X26186220Y25062335D01*
X26186222Y25062343D01*
X26186227Y25062407D01*
X26205268Y25316494D01*
X26205268Y25316504D01*
X37295233Y25316504D01*
X37295233Y25316495D01*
X37314272Y25062429D01*
X37314275Y25062407D01*
X37370968Y24814018D01*
X37370970Y24814011D01*
X37464056Y24576833D01*
X37464058Y24576828D01*
X37591454Y24356173D01*
X37591459Y24356165D01*
X37750316Y24156963D01*
X37937095Y23983658D01*
X38147618Y23840127D01*
X38377169Y23729581D01*
X38377190Y23729573D01*
X38620648Y23654476D01*
X38620652Y23654475D01*
X38872599Y23616500D01*
X39127400Y23616500D01*
X39379347Y23654475D01*
X39379351Y23654476D01*
X39622812Y23729574D01*
X39622817Y23729575D01*
X39852377Y23840124D01*
X40062907Y23983661D01*
X40249683Y24156963D01*
X40408540Y24356165D01*
X40408545Y24356173D01*
X40535941Y24576828D01*
X40535943Y24576833D01*
X40629029Y24814011D01*
X40629031Y24814018D01*
X40685724Y25062407D01*
X40685727Y25062429D01*
X40704767Y25316495D01*
X40704767Y25316504D01*
X40685727Y25570570D01*
X40685724Y25570592D01*
X40629031Y25818981D01*
X40629029Y25818988D01*
X40535943Y26056166D01*
X40535941Y26056171D01*
X40408545Y26276826D01*
X40408540Y26276834D01*
X40249683Y26476036D01*
X40062907Y26649338D01*
X39852377Y26792875D01*
X39622817Y26903424D01*
X39622812Y26903425D01*
X39379351Y26978523D01*
X39379347Y26978524D01*
X39127400Y27016499D01*
X39127394Y27016500D01*
X38872606Y27016500D01*
X38872599Y27016499D01*
X38620652Y26978524D01*
X38620648Y26978523D01*
X38377190Y26903426D01*
X38377169Y26903418D01*
X38147618Y26792872D01*
X37937095Y26649341D01*
X37750316Y26476036D01*
X37591459Y26276834D01*
X37591454Y26276826D01*
X37464058Y26056171D01*
X37464056Y26056166D01*
X37370970Y25818988D01*
X37370968Y25818981D01*
X37314275Y25570592D01*
X37314272Y25570570D01*
X37295233Y25316504D01*
X26205268Y25316504D01*
X26205268Y25316505D01*
X26186223Y25570644D01*
X26186222Y25570644D01*
X26186222Y25570657D01*
X26129508Y25819137D01*
X26036393Y26056388D01*
X25908959Y26277112D01*
X25750050Y26476377D01*
X25563217Y26649732D01*
X25352634Y26793305D01*
X25123004Y26903889D01*
X24879458Y26979013D01*
X24627435Y27017000D01*
X24372565Y27017000D01*
X24120542Y26979013D01*
X24120539Y26979012D01*
X24120538Y26979012D01*
X24120536Y26979011D01*
X23876996Y26903889D01*
X23647366Y26793305D01*
X23436783Y26649732D01*
X23346948Y26566377D01*
X23249946Y26476373D01*
X23094541Y26281501D01*
X23091041Y26277112D01*
X23091037Y26277106D01*
X23087903Y26272508D01*
X23085927Y26273855D01*
X23039045Y26226967D01*
X22964546Y26207000D01*
X11587424Y26207000D01*
X11512924Y26226962D01*
X11458387Y26281498D01*
X11408959Y26367112D01*
X11250050Y26566377D01*
X11063217Y26739732D01*
X10852634Y26883305D01*
X10623004Y26993889D01*
X10379458Y27069013D01*
X10127435Y27107000D01*
X9872565Y27107000D01*
X9620542Y27069013D01*
X9620539Y27069012D01*
X9620538Y27069012D01*
X9620536Y27069011D01*
X9376996Y26993889D01*
X9345088Y26978523D01*
X9165021Y26891807D01*
X9147366Y26883305D01*
X8936783Y26739732D01*
X8839365Y26649341D01*
X8749946Y26566373D01*
X8615843Y26398213D01*
X8591041Y26367112D01*
X8536422Y26272508D01*
X8463608Y26146391D01*
X8463605Y26146384D01*
X8370491Y25909136D01*
X8370490Y25909132D01*
X8313779Y25660664D01*
X8313776Y25660644D01*
X8294732Y25406505D01*
X2992697Y25406505D01*
X2910225Y25449790D01*
X2745056Y25490500D01*
X2574944Y25490500D01*
X2409775Y25449790D01*
X2259148Y25370734D01*
X2259146Y25370732D01*
X2259145Y25370732D01*
X2197923Y25316494D01*
X2131817Y25257929D01*
X2065113Y25161293D01*
X2035181Y25117929D01*
X1974860Y24958874D01*
X1954355Y24790000D01*
X-8418515Y24790000D01*
X-8370491Y24912363D01*
X-8370490Y24912367D01*
X-8313779Y25160835D01*
X-8313776Y25160855D01*
X-8294732Y25414994D01*
X-8294732Y25415005D01*
X-8313776Y25669144D01*
X-8313779Y25669164D01*
X-8370490Y25917632D01*
X-8370491Y25917636D01*
X-8463605Y26154884D01*
X-8463608Y26154891D01*
X-8534171Y26277109D01*
X-8591041Y26375612D01*
X-8662884Y26465700D01*
X-8749946Y26574873D01*
X-8755610Y26580128D01*
X-8936783Y26748232D01*
X-9147366Y26891805D01*
X-9376996Y27002389D01*
X-9620536Y27077511D01*
X-9620538Y27077512D01*
X-9620539Y27077512D01*
X-9620542Y27077513D01*
X-9872565Y27115500D01*
X-10127435Y27115500D01*
X-10379458Y27077513D01*
X-10623004Y27002389D01*
X-10852634Y26891805D01*
X-11063217Y26748232D01*
X-11250050Y26574877D01*
X-11408959Y26375612D01*
X-11536393Y26154888D01*
X-11629508Y25917637D01*
X-11686222Y25669157D01*
X-11686222Y25669144D01*
X-11686223Y25669144D01*
X-11705268Y25415005D01*
X-22794732Y25415005D01*
X-22813776Y25669144D01*
X-22813779Y25669164D01*
X-22870490Y25917632D01*
X-22870491Y25917636D01*
X-22963605Y26154884D01*
X-22963608Y26154891D01*
X-23034171Y26277109D01*
X-23091041Y26375612D01*
X-23162884Y26465700D01*
X-23249946Y26574873D01*
X-23255610Y26580128D01*
X-23436783Y26748232D01*
X-23647366Y26891805D01*
X-23876996Y27002389D01*
X-24120536Y27077511D01*
X-24120538Y27077512D01*
X-24120539Y27077512D01*
X-24120542Y27077513D01*
X-24372565Y27115500D01*
X-24627435Y27115500D01*
X-24879458Y27077513D01*
X-25123004Y27002389D01*
X-25352634Y26891805D01*
X-25563217Y26748232D01*
X-25750050Y26574877D01*
X-25908959Y26375612D01*
X-26036393Y26154888D01*
X-26129508Y25917637D01*
X-26186222Y25669157D01*
X-26186222Y25669144D01*
X-26186223Y25669144D01*
X-26205268Y25415005D01*
X-37294732Y25415005D01*
X-37313776Y25669144D01*
X-37313779Y25669164D01*
X-37370490Y25917632D01*
X-37370491Y25917636D01*
X-37463605Y26154884D01*
X-37463608Y26154891D01*
X-37534171Y26277109D01*
X-37591041Y26375612D01*
X-37662884Y26465700D01*
X-37749946Y26574873D01*
X-37755610Y26580128D01*
X-37936783Y26748232D01*
X-38147366Y26891805D01*
X-38376996Y27002389D01*
X-38620536Y27077511D01*
X-38620538Y27077512D01*
X-38620539Y27077512D01*
X-38620542Y27077513D01*
X-38872565Y27115500D01*
X-39127435Y27115500D01*
X-39379458Y27077513D01*
X-39623004Y27002389D01*
X-39852634Y26891805D01*
X-40063217Y26748232D01*
X-40250050Y26574877D01*
X-40408959Y26375612D01*
X-40536393Y26154888D01*
X-40629508Y25917637D01*
X-40686222Y25669157D01*
X-40686222Y25669144D01*
X-40686223Y25669144D01*
X-40705268Y25415005D01*
X-63599500Y25415005D01*
X-63599500Y27500000D01*
X-59615429Y27500000D01*
X-59595756Y27287690D01*
X-59537405Y27082611D01*
X-59442366Y26891745D01*
X-59442364Y26891743D01*
X-59442363Y26891740D01*
X-59313872Y26721593D01*
X-59156302Y26577948D01*
X-59156301Y26577947D01*
X-58975022Y26465703D01*
X-58975016Y26465700D01*
X-58776204Y26388681D01*
X-58776200Y26388680D01*
X-58776198Y26388679D01*
X-58734280Y26380843D01*
X-58566614Y26349500D01*
X-58566610Y26349500D01*
X-58353385Y26349500D01*
X-58143802Y26388679D01*
X-58143795Y26388681D01*
X-57944983Y26465700D01*
X-57944977Y26465703D01*
X-57763698Y26577947D01*
X-57763697Y26577948D01*
X-57606127Y26721593D01*
X-57477636Y26891740D01*
X-57382594Y27082612D01*
X-57362311Y27153900D01*
X-57322722Y27220093D01*
X-57255341Y27257623D01*
X-57178222Y27256435D01*
X-57112029Y27216846D01*
X-57074499Y27149465D01*
X-57069999Y27113123D01*
X-57069999Y26605205D01*
X-57067090Y26580125D01*
X-57021787Y26477522D01*
X-56942478Y26398213D01*
X-56839871Y26352908D01*
X-56814795Y26350000D01*
X-55025205Y26350000D01*
X-55000125Y26352909D01*
X-54897522Y26398212D01*
X-54897522Y26398213D01*
X-54818213Y26477521D01*
X-54772908Y26580128D01*
X-54770000Y26605204D01*
X-54770000Y28394794D01*
X-54772909Y28419874D01*
X-54818212Y28522477D01*
X-54897521Y28601786D01*
X-55000128Y28647091D01*
X-55025204Y28649999D01*
X-56814794Y28649999D01*
X-56839874Y28647090D01*
X-56942477Y28601787D01*
X-56942478Y28601787D01*
X-57021786Y28522478D01*
X-57067091Y28419871D01*
X-57069999Y28394795D01*
X-57069999Y27886878D01*
X-57089961Y27812378D01*
X-57144499Y27757840D01*
X-57218999Y27737878D01*
X-57293499Y27757840D01*
X-57348037Y27812378D01*
X-57362311Y27846101D01*
X-57382594Y27917387D01*
X-57477636Y28108259D01*
X-57606127Y28278406D01*
X-57710961Y28373976D01*
X-57763698Y28422052D01*
X-57778451Y28431187D01*
X-57944977Y28534296D01*
X-57944983Y28534299D01*
X-58032189Y28568082D01*
X-58143802Y28611321D01*
X-58353390Y28650500D01*
X-58566610Y28650500D01*
X-58776198Y28611321D01*
X-58975019Y28534298D01*
X-59156302Y28422052D01*
X-59313872Y28278407D01*
X-59442366Y28108255D01*
X-59537405Y27917389D01*
X-59595756Y27712310D01*
X-59615429Y27500000D01*
X-63599500Y27500000D01*
X-63599500Y28324118D01*
X-63579538Y28398618D01*
X-63525000Y28453156D01*
X-63450500Y28473118D01*
X-63380262Y28455525D01*
X-63334727Y28431186D01*
X-63146134Y28373976D01*
X-62950000Y28354659D01*
X-62753865Y28373976D01*
X-62565268Y28431187D01*
X-62391473Y28524083D01*
X-62391465Y28524088D01*
X-62391463Y28524089D01*
X-62391462Y28524090D01*
X-62239117Y28649117D01*
X-62114090Y28801462D01*
X-62114088Y28801465D01*
X-62114083Y28801473D01*
X-62021187Y28975268D01*
X-61963976Y29163865D01*
X-61944659Y29360000D01*
X-61963976Y29556134D01*
X-62021187Y29744731D01*
X-62040179Y29780262D01*
X-62057693Y29855375D01*
X-62035304Y29929182D01*
X-61979011Y29981906D01*
X-61908773Y29999500D01*
X49490492Y29999500D01*
X49564992Y29979538D01*
G37*
%TD.AperFunction*%
%TA.AperFunction,Conductor*%
G36*
X-20528466Y12679538D02*
G01*
X-20497607Y12655859D01*
X-18541607Y10699859D01*
X-18503043Y10633064D01*
X-18503043Y10555936D01*
X-18541607Y10489141D01*
X-18608402Y10450577D01*
X-18646966Y10445500D01*
X-19382034Y10445500D01*
X-19456534Y10465462D01*
X-19487393Y10489141D01*
X-19897752Y10899500D01*
X-20663737Y11665485D01*
X-20760763Y11721503D01*
X-20868982Y11750500D01*
X-36508034Y11750500D01*
X-36582534Y11770462D01*
X-36637072Y11825000D01*
X-36657034Y11899500D01*
X-36637072Y11974000D01*
X-36613393Y12004859D01*
X-35962394Y12655859D01*
X-35895599Y12694423D01*
X-35857035Y12699500D01*
X-20602966Y12699500D01*
X-20528466Y12679538D01*
G37*
%TD.AperFunction*%
%TD*%
M02*
