%TF.GenerationSoftware,KiCad,Pcbnew,8.0.5*%
%TF.CreationDate,2024-10-22T16:19:58+01:00*%
%TF.ProjectId,V3,56332e6b-6963-4616-945f-706362585858,rev?*%
%TF.SameCoordinates,Original*%
%TF.FileFunction,Soldermask,Top*%
%TF.FilePolarity,Negative*%
%FSLAX46Y46*%
G04 Gerber Fmt 4.6, Leading zero omitted, Abs format (unit mm)*
G04 Created by KiCad (PCBNEW 8.0.5) date 2024-10-22 16:19:58*
%MOMM*%
%LPD*%
G01*
G04 APERTURE LIST*
G04 Aperture macros list*
%AMRoundRect*
0 Rectangle with rounded corners*
0 $1 Rounding radius*
0 $2 $3 $4 $5 $6 $7 $8 $9 X,Y pos of 4 corners*
0 Add a 4 corners polygon primitive as box body*
4,1,4,$2,$3,$4,$5,$6,$7,$8,$9,$2,$3,0*
0 Add four circle primitives for the rounded corners*
1,1,$1+$1,$2,$3*
1,1,$1+$1,$4,$5*
1,1,$1+$1,$6,$7*
1,1,$1+$1,$8,$9*
0 Add four rect primitives between the rounded corners*
20,1,$1+$1,$2,$3,$4,$5,0*
20,1,$1+$1,$4,$5,$6,$7,0*
20,1,$1+$1,$6,$7,$8,$9,0*
20,1,$1+$1,$8,$9,$2,$3,0*%
G04 Aperture macros list end*
%ADD10C,2.800000*%
%ADD11R,1.016000X1.400000*%
%ADD12O,1.700000X1.700000*%
%ADD13R,1.700000X1.700000*%
%ADD14RoundRect,0.150000X0.150000X-0.512500X0.150000X0.512500X-0.150000X0.512500X-0.150000X-0.512500X0*%
%ADD15R,0.889000X0.889000*%
%ADD16RoundRect,0.150000X-0.150000X0.587500X-0.150000X-0.587500X0.150000X-0.587500X0.150000X0.587500X0*%
%ADD17RoundRect,1.102000X-0.000010X0.375000X-0.000010X-0.375000X0.000010X-0.375000X0.000010X0.375000X0*%
%ADD18RoundRect,0.305000X-0.813000X-0.305000X0.813000X-0.305000X0.813000X0.305000X-0.813000X0.305000X0*%
%ADD19R,0.900000X0.900000*%
%ADD20R,1.000000X1.000000*%
%ADD21R,0.850000X0.300000*%
%ADD22RoundRect,0.150000X-0.200000X0.150000X-0.200000X-0.150000X0.200000X-0.150000X0.200000X0.150000X0*%
%ADD23R,0.838200X0.711200*%
%ADD24R,1.092200X1.803400*%
%ADD25RoundRect,0.150000X0.150000X-0.587500X0.150000X0.587500X-0.150000X0.587500X-0.150000X-0.587500X0*%
%ADD26C,2.000000*%
%ADD27RoundRect,0.218750X0.218750X0.256250X-0.218750X0.256250X-0.218750X-0.256250X0.218750X-0.256250X0*%
%ADD28RoundRect,0.225000X0.225000X0.375000X-0.225000X0.375000X-0.225000X-0.375000X0.225000X-0.375000X0*%
%ADD29R,1.400000X1.016000*%
%ADD30RoundRect,0.150000X0.200000X-0.150000X0.200000X0.150000X-0.200000X0.150000X-0.200000X-0.150000X0*%
%ADD31RoundRect,0.102000X-0.400000X0.150000X-0.400000X-0.150000X0.400000X-0.150000X0.400000X0.150000X0*%
%ADD32RoundRect,0.102000X-0.400000X0.200000X-0.400000X-0.200000X0.400000X-0.200000X0.400000X0.200000X0*%
%ADD33RoundRect,0.218750X-0.256250X0.218750X-0.256250X-0.218750X0.256250X-0.218750X0.256250X0.218750X0*%
%ADD34R,0.800000X0.900000*%
%ADD35R,1.200000X1.000000*%
%ADD36R,1.200000X0.900000*%
%ADD37R,1.000000X0.900000*%
%ADD38R,7.493000X2.489200*%
%ADD39C,4.500000*%
%ADD40R,1.092200X0.990600*%
%ADD41R,0.990600X2.311400*%
%ADD42R,0.990600X0.812800*%
%ADD43R,1.803400X1.092200*%
%ADD44R,0.711200X0.838200*%
%ADD45R,2.489200X0.711200*%
%ADD46R,0.711200X2.489200*%
%ADD47R,0.990600X0.990600*%
%ADD48R,3.708400X1.193800*%
%ADD49R,1.524000X1.016000*%
%ADD50RoundRect,0.218750X-0.218750X-0.256250X0.218750X-0.256250X0.218750X0.256250X-0.218750X0.256250X0*%
%ADD51R,1.016000X0.457200*%
G04 APERTURE END LIST*
D10*
%TO.C,U17*%
X-41750000Y-24385000D03*
X-41750000Y-16765000D03*
%TD*%
%TO.C,U16*%
X-25350000Y-24385000D03*
X-25350000Y-16765000D03*
%TD*%
%TO.C,U15*%
X-8950000Y-24385000D03*
X-8950000Y-16765000D03*
%TD*%
%TO.C,U14*%
X-41750000Y24385000D03*
X-41750000Y16765000D03*
%TD*%
%TO.C,U13*%
X-25350000Y24385000D03*
X-25350000Y16765000D03*
%TD*%
%TO.C,U10*%
X-8950000Y24385000D03*
X-8950000Y16765000D03*
%TD*%
%TO.C,U9*%
X40250000Y24385000D03*
X40250000Y16765000D03*
%TD*%
%TO.C,U8*%
X23850000Y24385000D03*
X23850000Y16765000D03*
%TD*%
%TO.C,U7*%
X7450000Y24385000D03*
X7450000Y16765000D03*
%TD*%
%TO.C,U6*%
X40250000Y-24385000D03*
X40250000Y-16765000D03*
%TD*%
%TO.C,U5*%
X23850000Y-24385000D03*
X23850000Y-16765000D03*
%TD*%
%TO.C,U4*%
X7450000Y-24385000D03*
X7450000Y-16765000D03*
%TD*%
D11*
%TO.C,C7*%
X7079000Y20500000D03*
X5300000Y20500000D03*
%TD*%
%TO.C,C5*%
X56461000Y-26100000D03*
X58240000Y-26100000D03*
%TD*%
D12*
%TO.C,J4*%
X51750000Y-3810000D03*
X51750000Y-1269999D03*
X51750000Y1270000D03*
D13*
X51750000Y3810000D03*
%TD*%
D14*
%TO.C,D2*%
X650002Y22312500D03*
X1600001Y22312500D03*
X2550000Y22312500D03*
X2550000Y24587500D03*
X650002Y24587500D03*
%TD*%
D15*
%TO.C,R18*%
X-2950000Y19000000D03*
X-2950000Y17476002D03*
%TD*%
%TO.C,R17*%
X-950000Y19000000D03*
X-950000Y17476002D03*
%TD*%
%TO.C,R16*%
X1050000Y17476002D03*
X1050000Y19000000D03*
%TD*%
%TO.C,R9*%
X3050000Y17500000D03*
X3050000Y19023998D03*
%TD*%
%TO.C,R7*%
X-21300000Y-22324998D03*
X-21300000Y-23848998D03*
%TD*%
D16*
%TO.C,Q7*%
X-18800000Y20275001D03*
X-20700000Y20275001D03*
X-19750000Y18400001D03*
%TD*%
D17*
%TO.C,U2*%
X61070000Y-7135000D03*
X58530000Y-7135000D03*
X55990000Y-7135000D03*
X53450000Y-7135000D03*
X50910000Y-7135000D03*
X48370000Y-7135000D03*
X45830000Y-7135000D03*
X45830000Y-23300000D03*
X48370000Y-23300000D03*
X50910000Y-23300000D03*
X53450000Y-23300000D03*
X55990000Y-23300000D03*
X58530000Y-23300000D03*
X61070000Y-23300000D03*
D18*
X44220000Y-19000000D03*
X44220000Y-20905000D03*
%TD*%
D15*
%TO.C,R4*%
X650000Y8451600D03*
X-874000Y8451600D03*
%TD*%
D19*
%TO.C,C10*%
X17200000Y-19300001D03*
X17200000Y-17776001D03*
%TD*%
%TO.C,C29*%
X-35695000Y-3100000D03*
X-34171000Y-3100000D03*
%TD*%
%TO.C,C9*%
X14150000Y-22038000D03*
X14150000Y-23562000D03*
%TD*%
D20*
%TO.C,RESET1*%
X25300000Y-10250000D03*
%TD*%
D21*
%TO.C,IC1*%
X-366000Y4768400D03*
X-366000Y5268400D03*
X-366000Y5768400D03*
X-366000Y6268400D03*
X1034000Y6268400D03*
X1034000Y5768400D03*
X1034000Y5268400D03*
X1034000Y4768400D03*
%TD*%
D22*
%TO.C,D4*%
X-15050000Y23161999D03*
X-15050000Y24561999D03*
%TD*%
D23*
%TO.C,CR2*%
X8560400Y3327900D03*
D24*
X8560400Y5177000D03*
%TD*%
D15*
%TO.C,R15*%
X-34136999Y11300001D03*
X-35660999Y11300001D03*
%TD*%
D25*
%TO.C,Q5*%
X-14950000Y-19800000D03*
X-13050000Y-19800000D03*
X-14000000Y-17925000D03*
%TD*%
D11*
%TO.C,C14*%
X33261000Y23200000D03*
X35040000Y23200000D03*
%TD*%
D20*
%TO.C,RxD1*%
X39960000Y-10000000D03*
%TD*%
D26*
%TO.C,FID5*%
X62050000Y3700000D03*
%TD*%
D19*
%TO.C,C22*%
X-35673999Y9400000D03*
X-34149999Y9400000D03*
%TD*%
D11*
%TO.C,C15*%
X31039000Y20700000D03*
X29260000Y20700000D03*
%TD*%
D16*
%TO.C,Q2*%
X-13000000Y20237000D03*
X-14900000Y20237000D03*
X-13950000Y18362000D03*
%TD*%
D20*
%TO.C,BOOT1*%
X44420000Y-1110000D03*
%TD*%
D27*
%TO.C,L3*%
X51870500Y24584600D03*
X50295500Y24584600D03*
%TD*%
D28*
%TO.C,D9*%
X-26450000Y-600000D03*
X-29750000Y-600000D03*
%TD*%
D15*
%TO.C,R3*%
X31150000Y-7200000D03*
X32674000Y-7200000D03*
%TD*%
D28*
%TO.C,D7*%
X-26450000Y-3100000D03*
X-29750000Y-3100000D03*
%TD*%
D15*
%TO.C,R12*%
X-34136999Y13200001D03*
X-35660999Y13200001D03*
%TD*%
D29*
%TO.C,C1*%
X3545600Y5490000D03*
X3545600Y3711000D03*
%TD*%
D19*
%TO.C,C11*%
X17200000Y-22038000D03*
X17200000Y-23562000D03*
%TD*%
D30*
%TO.C,D3*%
X-13050000Y-22300000D03*
X-13050000Y-23700000D03*
%TD*%
D25*
%TO.C,Q3*%
X-46900000Y-19899499D03*
X-45000000Y-19899499D03*
X-45950000Y-18024499D03*
%TD*%
D15*
%TO.C,R13*%
X-46850000Y-21999999D03*
X-46850000Y-23523999D03*
%TD*%
%TO.C,R6*%
X-12850000Y23199999D03*
X-12850000Y24723999D03*
%TD*%
D19*
%TO.C,C33*%
X-35686999Y7650000D03*
X-34162999Y7650000D03*
%TD*%
D11*
%TO.C,C2*%
X1311400Y2872800D03*
X-467600Y2872800D03*
%TD*%
D15*
%TO.C,R11*%
X-31350000Y-22506249D03*
X-31350000Y-24030249D03*
%TD*%
%TO.C,R1*%
X-34188000Y17000000D03*
X-35712000Y17000000D03*
%TD*%
D11*
%TO.C,C3*%
X1284400Y386000D03*
X-494600Y386000D03*
%TD*%
D19*
%TO.C,C21*%
X-35687999Y500000D03*
X-34163999Y500000D03*
%TD*%
D30*
%TO.C,D6*%
X-29350000Y-22406250D03*
X-29350000Y-23806250D03*
%TD*%
D28*
%TO.C,D8*%
X-26450000Y-5600000D03*
X-29750000Y-5600000D03*
%TD*%
D11*
%TO.C,C17*%
X31039000Y18200000D03*
X29260000Y18200000D03*
%TD*%
D19*
%TO.C,C20*%
X47574000Y11400000D03*
X46050000Y11400000D03*
%TD*%
D29*
%TO.C,C4*%
X6009400Y5490000D03*
X6009400Y3711000D03*
%TD*%
D31*
%TO.C,J3*%
X-40300000Y10800000D03*
X-40300000Y10300000D03*
X-40300000Y9800000D03*
X-40300000Y9300000D03*
X-40300000Y8800000D03*
X-40300000Y8300000D03*
X-40300000Y7800000D03*
X-40300000Y7300000D03*
X-40300000Y6800000D03*
X-40300000Y6300000D03*
X-40300000Y5800000D03*
X-40300000Y5300000D03*
X-40300000Y4800000D03*
X-40300000Y4300000D03*
X-40300000Y3800000D03*
X-40300000Y3300000D03*
X-40300000Y2800000D03*
X-40300000Y2300000D03*
X-40300000Y1800000D03*
X-40300000Y1300000D03*
X-40300000Y800000D03*
X-40300000Y300000D03*
X-40300000Y-200000D03*
X-40300000Y-700000D03*
D32*
X-42800000Y11750000D03*
X-42800000Y-1650000D03*
%TD*%
D15*
%TO.C,R10*%
X-15050000Y-22338000D03*
X-15050000Y-23862000D03*
%TD*%
D33*
%TO.C,L2*%
X56501000Y11659500D03*
X56501000Y10084500D03*
%TD*%
D19*
%TO.C,C26*%
X-35698999Y2350000D03*
X-34174999Y2350000D03*
%TD*%
D22*
%TO.C,D5*%
X-20750000Y23200000D03*
X-20750000Y24600000D03*
%TD*%
D19*
%TO.C,C25*%
X-27149999Y9300000D03*
X-28673999Y9300000D03*
%TD*%
D11*
%TO.C,C12*%
X33261000Y18200000D03*
X35040000Y18200000D03*
%TD*%
D19*
%TO.C,C8*%
X14150000Y-19300001D03*
X14150000Y-17776001D03*
%TD*%
D34*
%TO.C,ANT1*%
X55119400Y14022000D03*
D35*
X55519400Y21622000D03*
X55519400Y26972000D03*
X62219400Y26972000D03*
D20*
X62219400Y21622000D03*
D36*
X62219400Y14022000D03*
D37*
X56509400Y14022000D03*
%TD*%
D15*
%TO.C,R14*%
X-4950000Y19000000D03*
X-4950000Y17476002D03*
%TD*%
D38*
%TO.C,L5*%
X-150000Y-17800002D03*
X-150000Y-23400000D03*
%TD*%
D11*
%TO.C,C13*%
X33261000Y20700000D03*
X35040000Y20700000D03*
%TD*%
D26*
%TO.C,FID1*%
X-62450000Y26500000D03*
%TD*%
D39*
%TO.C,H1*%
X60000000Y0D03*
%TD*%
D15*
%TO.C,R2*%
X-34188000Y15100000D03*
X-35712000Y15100000D03*
%TD*%
D19*
%TO.C,C23*%
X-35686999Y5900000D03*
X-34162999Y5900000D03*
%TD*%
D25*
%TO.C,Q4*%
X-5350000Y23000000D03*
X-3450000Y23000000D03*
X-4400000Y24875001D03*
%TD*%
D40*
%TO.C,U12*%
X17470000Y15675000D03*
X13830000Y15675000D03*
D41*
X20750000Y26800000D03*
X20750000Y19600002D03*
X10550000Y19600002D03*
X10550000Y26800000D03*
D42*
X10750000Y23950000D03*
X10750000Y22750000D03*
X20550000Y23950000D03*
X10750000Y21550000D03*
X20550000Y22750000D03*
X20550000Y21550000D03*
%TD*%
D15*
%TO.C,R8*%
X-18750000Y23199999D03*
X-18750000Y24723999D03*
%TD*%
D19*
%TO.C,C24*%
X-35698999Y4150000D03*
X-34174999Y4150000D03*
%TD*%
D26*
%TO.C,FID6*%
X-62450000Y-26400000D03*
%TD*%
D20*
%TO.C,VDD1*%
X-26950000Y-11500000D03*
%TD*%
D11*
%TO.C,C16*%
X31039000Y23200000D03*
X29260000Y23200000D03*
%TD*%
D43*
%TO.C,CR1*%
X32300900Y25700001D03*
D44*
X34150000Y25700001D03*
%TD*%
D45*
%TO.C,U11*%
X24450000Y11399997D03*
X24450001Y10299997D03*
X24450001Y9199999D03*
X24450000Y8099999D03*
X24450000Y7000000D03*
X24450001Y5899998D03*
X24450000Y4799998D03*
X24450001Y3699998D03*
X24450000Y2599996D03*
X24450000Y1499997D03*
X24450001Y399997D03*
X24450000Y-700004D03*
X24450000Y-1800004D03*
D46*
X27699999Y-3799999D03*
X28799999Y-3800000D03*
X29899998Y-3800000D03*
X31000000Y-3799999D03*
X32100000Y-3800000D03*
X33200000Y-3799999D03*
X34300002Y-3800000D03*
X35400001Y-3800000D03*
X36500001Y-3799999D03*
D45*
X39750000Y-1800001D03*
X39749999Y-700001D03*
X39750000Y399999D03*
X39750000Y1499997D03*
X39750000Y2599996D03*
X39749999Y3699998D03*
X39750000Y4799998D03*
X39749999Y5899998D03*
X39750000Y7000000D03*
X39750000Y8099999D03*
X39749999Y9199999D03*
X39750000Y10300000D03*
X39750000Y11400000D03*
D46*
X36500001Y13399995D03*
X35400001Y13399996D03*
X34300002Y13399996D03*
X33200000Y13399995D03*
X32100000Y13399996D03*
X31000000Y13399995D03*
X29899998Y13399996D03*
X28799999Y13399996D03*
X27699999Y13399995D03*
D47*
X28500000Y7499998D03*
X28500000Y5699999D03*
X28500000Y3899997D03*
X28500000Y2099998D03*
X30300000Y299998D03*
X32100000Y299997D03*
X33900000Y299998D03*
X35700000Y2099998D03*
X35700000Y3899997D03*
X35700000Y5699999D03*
X35700000Y7499998D03*
X33900000Y9299998D03*
X32100000Y9299999D03*
X30300000Y9299998D03*
%TD*%
D48*
%TO.C,L6*%
X-27850000Y5900000D03*
X-27850000Y3106000D03*
%TD*%
D30*
%TO.C,D1*%
X-19280000Y-22324999D03*
X-19280000Y-23724999D03*
%TD*%
D15*
%TO.C,R5*%
X38273999Y-7100000D03*
X36749999Y-7100000D03*
%TD*%
D25*
%TO.C,Q6*%
X-31300000Y-19943750D03*
X-29400000Y-19943750D03*
X-30350000Y-18068750D03*
%TD*%
D19*
%TO.C,C30*%
X-35687999Y-4800000D03*
X-34163999Y-4800000D03*
%TD*%
D49*
%TO.C,L1*%
X-2766000Y3240400D03*
X-2766000Y5018400D03*
%TD*%
D19*
%TO.C,C28*%
X-35662999Y-1300000D03*
X-34138999Y-1300000D03*
%TD*%
D25*
%TO.C,Q1*%
X-21250000Y-19900000D03*
X-19350000Y-19900000D03*
X-20300000Y-18025000D03*
%TD*%
D50*
%TO.C,L4*%
X42520500Y11380000D03*
X44095500Y11380000D03*
%TD*%
D51*
%TO.C,Q8*%
X-29032800Y12849999D03*
X-29032800Y11550001D03*
X-26950000Y12200000D03*
%TD*%
D20*
%TO.C,TxD1*%
X31140000Y-10150000D03*
%TD*%
%TO.C,GSM_VCC1*%
X27050000Y25500000D03*
%TD*%
D13*
%TO.C,J6*%
X-55920000Y26500000D03*
D12*
X-58460000Y26500000D03*
%TD*%
D13*
%TO.C,J1*%
X-53380000Y-5500000D03*
D12*
X-55920000Y-5500000D03*
X-58459999Y-5500000D03*
X-61000000Y-5500000D03*
%TD*%
D13*
%TO.C,J2*%
X-61000000Y5500000D03*
D12*
X-58460000Y5500000D03*
X-55920001Y5500000D03*
X-53380000Y5500000D03*
%TD*%
D39*
%TO.C,H2*%
X-60000000Y0D03*
%TD*%
D13*
%TO.C,J7*%
X-58460000Y-26500000D03*
D12*
X-55920000Y-26500000D03*
%TD*%
M02*
