%TF.GenerationSoftware,KiCad,Pcbnew,8.0.5*%
%TF.CreationDate,2024-10-04T15:08:05+01:00*%
%TF.ProjectId,V3,56332e6b-6963-4616-945f-706362585858,rev?*%
%TF.SameCoordinates,Original*%
%TF.FileFunction,Legend,Top*%
%TF.FilePolarity,Positive*%
%FSLAX46Y46*%
G04 Gerber Fmt 4.6, Leading zero omitted, Abs format (unit mm)*
G04 Created by KiCad (PCBNEW 8.0.5) date 2024-10-04 15:08:05*
%MOMM*%
%LPD*%
G01*
G04 APERTURE LIST*
%ADD10C,0.150000*%
%ADD11C,0.254000*%
%ADD12C,0.127000*%
%ADD13C,0.120000*%
%ADD14C,0.152400*%
%ADD15C,0.200000*%
%ADD16C,0.250000*%
%ADD17C,0.508000*%
G04 APERTURE END LIST*
D10*
X43428095Y-4389819D02*
X43428095Y-5199342D01*
X43428095Y-5199342D02*
X43475714Y-5294580D01*
X43475714Y-5294580D02*
X43523333Y-5342200D01*
X43523333Y-5342200D02*
X43618571Y-5389819D01*
X43618571Y-5389819D02*
X43809047Y-5389819D01*
X43809047Y-5389819D02*
X43904285Y-5342200D01*
X43904285Y-5342200D02*
X43951904Y-5294580D01*
X43951904Y-5294580D02*
X43999523Y-5199342D01*
X43999523Y-5199342D02*
X43999523Y-4389819D01*
X44428095Y-4485057D02*
X44475714Y-4437438D01*
X44475714Y-4437438D02*
X44570952Y-4389819D01*
X44570952Y-4389819D02*
X44809047Y-4389819D01*
X44809047Y-4389819D02*
X44904285Y-4437438D01*
X44904285Y-4437438D02*
X44951904Y-4485057D01*
X44951904Y-4485057D02*
X44999523Y-4580295D01*
X44999523Y-4580295D02*
X44999523Y-4675533D01*
X44999523Y-4675533D02*
X44951904Y-4818390D01*
X44951904Y-4818390D02*
X44380476Y-5389819D01*
X44380476Y-5389819D02*
X44999523Y-5389819D01*
X-28839523Y-11316819D02*
X-28506190Y-12316819D01*
X-28506190Y-12316819D02*
X-28172857Y-11316819D01*
X-27839523Y-12316819D02*
X-27839523Y-11316819D01*
X-27839523Y-11316819D02*
X-27601428Y-11316819D01*
X-27601428Y-11316819D02*
X-27458571Y-11364438D01*
X-27458571Y-11364438D02*
X-27363333Y-11459676D01*
X-27363333Y-11459676D02*
X-27315714Y-11554914D01*
X-27315714Y-11554914D02*
X-27268095Y-11745390D01*
X-27268095Y-11745390D02*
X-27268095Y-11888247D01*
X-27268095Y-11888247D02*
X-27315714Y-12078723D01*
X-27315714Y-12078723D02*
X-27363333Y-12173961D01*
X-27363333Y-12173961D02*
X-27458571Y-12269200D01*
X-27458571Y-12269200D02*
X-27601428Y-12316819D01*
X-27601428Y-12316819D02*
X-27839523Y-12316819D01*
X-26839523Y-12316819D02*
X-26839523Y-11316819D01*
X-26839523Y-11316819D02*
X-26601428Y-11316819D01*
X-26601428Y-11316819D02*
X-26458571Y-11364438D01*
X-26458571Y-11364438D02*
X-26363333Y-11459676D01*
X-26363333Y-11459676D02*
X-26315714Y-11554914D01*
X-26315714Y-11554914D02*
X-26268095Y-11745390D01*
X-26268095Y-11745390D02*
X-26268095Y-11888247D01*
X-26268095Y-11888247D02*
X-26315714Y-12078723D01*
X-26315714Y-12078723D02*
X-26363333Y-12173961D01*
X-26363333Y-12173961D02*
X-26458571Y-12269200D01*
X-26458571Y-12269200D02*
X-26601428Y-12316819D01*
X-26601428Y-12316819D02*
X-26839523Y-12316819D01*
X-25315714Y-12316819D02*
X-25887142Y-12316819D01*
X-25601428Y-12316819D02*
X-25601428Y-11316819D01*
X-25601428Y-11316819D02*
X-25696666Y-11459676D01*
X-25696666Y-11459676D02*
X-25791904Y-11554914D01*
X-25791904Y-11554914D02*
X-25887142Y-11602533D01*
X29583333Y-11354819D02*
X30154761Y-11354819D01*
X29869047Y-12354819D02*
X29869047Y-11354819D01*
X30392857Y-12354819D02*
X30916666Y-11688152D01*
X30392857Y-11688152D02*
X30916666Y-12354819D01*
X31297619Y-12354819D02*
X31297619Y-11354819D01*
X31297619Y-11354819D02*
X31535714Y-11354819D01*
X31535714Y-11354819D02*
X31678571Y-11402438D01*
X31678571Y-11402438D02*
X31773809Y-11497676D01*
X31773809Y-11497676D02*
X31821428Y-11592914D01*
X31821428Y-11592914D02*
X31869047Y-11783390D01*
X31869047Y-11783390D02*
X31869047Y-11926247D01*
X31869047Y-11926247D02*
X31821428Y-12116723D01*
X31821428Y-12116723D02*
X31773809Y-12211961D01*
X31773809Y-12211961D02*
X31678571Y-12307200D01*
X31678571Y-12307200D02*
X31535714Y-12354819D01*
X31535714Y-12354819D02*
X31297619Y-12354819D01*
X32821428Y-12354819D02*
X32250000Y-12354819D01*
X32535714Y-12354819D02*
X32535714Y-11354819D01*
X32535714Y-11354819D02*
X32440476Y-11497676D01*
X32440476Y-11497676D02*
X32345238Y-11592914D01*
X32345238Y-11592914D02*
X32250000Y-11640533D01*
X35778571Y-12354819D02*
X35445238Y-11878628D01*
X35207143Y-12354819D02*
X35207143Y-11354819D01*
X35207143Y-11354819D02*
X35588095Y-11354819D01*
X35588095Y-11354819D02*
X35683333Y-11402438D01*
X35683333Y-11402438D02*
X35730952Y-11450057D01*
X35730952Y-11450057D02*
X35778571Y-11545295D01*
X35778571Y-11545295D02*
X35778571Y-11688152D01*
X35778571Y-11688152D02*
X35730952Y-11783390D01*
X35730952Y-11783390D02*
X35683333Y-11831009D01*
X35683333Y-11831009D02*
X35588095Y-11878628D01*
X35588095Y-11878628D02*
X35207143Y-11878628D01*
X36111905Y-12354819D02*
X36635714Y-11688152D01*
X36111905Y-11688152D02*
X36635714Y-12354819D01*
X37016667Y-12354819D02*
X37016667Y-11354819D01*
X37016667Y-11354819D02*
X37254762Y-11354819D01*
X37254762Y-11354819D02*
X37397619Y-11402438D01*
X37397619Y-11402438D02*
X37492857Y-11497676D01*
X37492857Y-11497676D02*
X37540476Y-11592914D01*
X37540476Y-11592914D02*
X37588095Y-11783390D01*
X37588095Y-11783390D02*
X37588095Y-11926247D01*
X37588095Y-11926247D02*
X37540476Y-12116723D01*
X37540476Y-12116723D02*
X37492857Y-12211961D01*
X37492857Y-12211961D02*
X37397619Y-12307200D01*
X37397619Y-12307200D02*
X37254762Y-12354819D01*
X37254762Y-12354819D02*
X37016667Y-12354819D01*
X38540476Y-12354819D02*
X37969048Y-12354819D01*
X38254762Y-12354819D02*
X38254762Y-11354819D01*
X38254762Y-11354819D02*
X38159524Y-11497676D01*
X38159524Y-11497676D02*
X38064286Y-11592914D01*
X38064286Y-11592914D02*
X37969048Y-11640533D01*
X15971428Y-4674819D02*
X15638095Y-4198628D01*
X15400000Y-4674819D02*
X15400000Y-3674819D01*
X15400000Y-3674819D02*
X15780952Y-3674819D01*
X15780952Y-3674819D02*
X15876190Y-3722438D01*
X15876190Y-3722438D02*
X15923809Y-3770057D01*
X15923809Y-3770057D02*
X15971428Y-3865295D01*
X15971428Y-3865295D02*
X15971428Y-4008152D01*
X15971428Y-4008152D02*
X15923809Y-4103390D01*
X15923809Y-4103390D02*
X15876190Y-4151009D01*
X15876190Y-4151009D02*
X15780952Y-4198628D01*
X15780952Y-4198628D02*
X15400000Y-4198628D01*
X16400000Y-4151009D02*
X16733333Y-4151009D01*
X16876190Y-4674819D02*
X16400000Y-4674819D01*
X16400000Y-4674819D02*
X16400000Y-3674819D01*
X16400000Y-3674819D02*
X16876190Y-3674819D01*
X17257143Y-4627200D02*
X17400000Y-4674819D01*
X17400000Y-4674819D02*
X17638095Y-4674819D01*
X17638095Y-4674819D02*
X17733333Y-4627200D01*
X17733333Y-4627200D02*
X17780952Y-4579580D01*
X17780952Y-4579580D02*
X17828571Y-4484342D01*
X17828571Y-4484342D02*
X17828571Y-4389104D01*
X17828571Y-4389104D02*
X17780952Y-4293866D01*
X17780952Y-4293866D02*
X17733333Y-4246247D01*
X17733333Y-4246247D02*
X17638095Y-4198628D01*
X17638095Y-4198628D02*
X17447619Y-4151009D01*
X17447619Y-4151009D02*
X17352381Y-4103390D01*
X17352381Y-4103390D02*
X17304762Y-4055771D01*
X17304762Y-4055771D02*
X17257143Y-3960533D01*
X17257143Y-3960533D02*
X17257143Y-3865295D01*
X17257143Y-3865295D02*
X17304762Y-3770057D01*
X17304762Y-3770057D02*
X17352381Y-3722438D01*
X17352381Y-3722438D02*
X17447619Y-3674819D01*
X17447619Y-3674819D02*
X17685714Y-3674819D01*
X17685714Y-3674819D02*
X17828571Y-3722438D01*
X18257143Y-4151009D02*
X18590476Y-4151009D01*
X18733333Y-4674819D02*
X18257143Y-4674819D01*
X18257143Y-4674819D02*
X18257143Y-3674819D01*
X18257143Y-3674819D02*
X18733333Y-3674819D01*
X19019048Y-3674819D02*
X19590476Y-3674819D01*
X19304762Y-4674819D02*
X19304762Y-3674819D01*
X20447619Y-4674819D02*
X19876191Y-4674819D01*
X20161905Y-4674819D02*
X20161905Y-3674819D01*
X20161905Y-3674819D02*
X20066667Y-3817676D01*
X20066667Y-3817676D02*
X19971429Y-3912914D01*
X19971429Y-3912914D02*
X19876191Y-3960533D01*
X-6171428Y27555561D02*
X-6266666Y27603180D01*
X-6266666Y27603180D02*
X-6409523Y27603180D01*
X-6409523Y27603180D02*
X-6552380Y27555561D01*
X-6552380Y27555561D02*
X-6647618Y27460323D01*
X-6647618Y27460323D02*
X-6695237Y27365085D01*
X-6695237Y27365085D02*
X-6742856Y27174609D01*
X-6742856Y27174609D02*
X-6742856Y27031752D01*
X-6742856Y27031752D02*
X-6695237Y26841276D01*
X-6695237Y26841276D02*
X-6647618Y26746038D01*
X-6647618Y26746038D02*
X-6552380Y26650800D01*
X-6552380Y26650800D02*
X-6409523Y26603180D01*
X-6409523Y26603180D02*
X-6314285Y26603180D01*
X-6314285Y26603180D02*
X-6171428Y26650800D01*
X-6171428Y26650800D02*
X-6123809Y26698419D01*
X-6123809Y26698419D02*
X-6123809Y27031752D01*
X-6123809Y27031752D02*
X-6314285Y27031752D01*
X-5742856Y26650800D02*
X-5599999Y26603180D01*
X-5599999Y26603180D02*
X-5361904Y26603180D01*
X-5361904Y26603180D02*
X-5266666Y26650800D01*
X-5266666Y26650800D02*
X-5219047Y26698419D01*
X-5219047Y26698419D02*
X-5171428Y26793657D01*
X-5171428Y26793657D02*
X-5171428Y26888895D01*
X-5171428Y26888895D02*
X-5219047Y26984133D01*
X-5219047Y26984133D02*
X-5266666Y27031752D01*
X-5266666Y27031752D02*
X-5361904Y27079371D01*
X-5361904Y27079371D02*
X-5552380Y27126990D01*
X-5552380Y27126990D02*
X-5647618Y27174609D01*
X-5647618Y27174609D02*
X-5695237Y27222228D01*
X-5695237Y27222228D02*
X-5742856Y27317466D01*
X-5742856Y27317466D02*
X-5742856Y27412704D01*
X-5742856Y27412704D02*
X-5695237Y27507942D01*
X-5695237Y27507942D02*
X-5647618Y27555561D01*
X-5647618Y27555561D02*
X-5552380Y27603180D01*
X-5552380Y27603180D02*
X-5314285Y27603180D01*
X-5314285Y27603180D02*
X-5171428Y27555561D01*
X-4742856Y26603180D02*
X-4742856Y27603180D01*
X-4742856Y27603180D02*
X-4409523Y26888895D01*
X-4409523Y26888895D02*
X-4076190Y27603180D01*
X-4076190Y27603180D02*
X-4076190Y26603180D01*
X-3838095Y26507942D02*
X-3076190Y26507942D01*
X-2980951Y27603180D02*
X-2647618Y26603180D01*
X-2647618Y26603180D02*
X-2314285Y27603180D01*
X-1409523Y26698419D02*
X-1457142Y26650800D01*
X-1457142Y26650800D02*
X-1599999Y26603180D01*
X-1599999Y26603180D02*
X-1695237Y26603180D01*
X-1695237Y26603180D02*
X-1838094Y26650800D01*
X-1838094Y26650800D02*
X-1933332Y26746038D01*
X-1933332Y26746038D02*
X-1980951Y26841276D01*
X-1980951Y26841276D02*
X-2028570Y27031752D01*
X-2028570Y27031752D02*
X-2028570Y27174609D01*
X-2028570Y27174609D02*
X-1980951Y27365085D01*
X-1980951Y27365085D02*
X-1933332Y27460323D01*
X-1933332Y27460323D02*
X-1838094Y27555561D01*
X-1838094Y27555561D02*
X-1695237Y27603180D01*
X-1695237Y27603180D02*
X-1599999Y27603180D01*
X-1599999Y27603180D02*
X-1457142Y27555561D01*
X-1457142Y27555561D02*
X-1409523Y27507942D01*
X-409523Y26698419D02*
X-457142Y26650800D01*
X-457142Y26650800D02*
X-599999Y26603180D01*
X-599999Y26603180D02*
X-695237Y26603180D01*
X-695237Y26603180D02*
X-838094Y26650800D01*
X-838094Y26650800D02*
X-933332Y26746038D01*
X-933332Y26746038D02*
X-980951Y26841276D01*
X-980951Y26841276D02*
X-1028570Y27031752D01*
X-1028570Y27031752D02*
X-1028570Y27174609D01*
X-1028570Y27174609D02*
X-980951Y27365085D01*
X-980951Y27365085D02*
X-933332Y27460323D01*
X-933332Y27460323D02*
X-838094Y27555561D01*
X-838094Y27555561D02*
X-695237Y27603180D01*
X-695237Y27603180D02*
X-599999Y27603180D01*
X-599999Y27603180D02*
X-457142Y27555561D01*
X-457142Y27555561D02*
X-409523Y27507942D01*
X542857Y26603180D02*
X-28570Y26603180D01*
X257143Y26603180D02*
X257143Y27603180D01*
X257143Y27603180D02*
X161905Y27460323D01*
X161905Y27460323D02*
X66667Y27365085D01*
X66667Y27365085D02*
X-28570Y27317466D01*
X42586666Y406990D02*
X42729523Y359371D01*
X42729523Y359371D02*
X42777142Y311752D01*
X42777142Y311752D02*
X42824761Y216514D01*
X42824761Y216514D02*
X42824761Y73657D01*
X42824761Y73657D02*
X42777142Y-21580D01*
X42777142Y-21580D02*
X42729523Y-69200D01*
X42729523Y-69200D02*
X42634285Y-116819D01*
X42634285Y-116819D02*
X42253333Y-116819D01*
X42253333Y-116819D02*
X42253333Y883180D01*
X42253333Y883180D02*
X42586666Y883180D01*
X42586666Y883180D02*
X42681904Y835561D01*
X42681904Y835561D02*
X42729523Y787942D01*
X42729523Y787942D02*
X42777142Y692704D01*
X42777142Y692704D02*
X42777142Y597466D01*
X42777142Y597466D02*
X42729523Y502228D01*
X42729523Y502228D02*
X42681904Y454609D01*
X42681904Y454609D02*
X42586666Y406990D01*
X42586666Y406990D02*
X42253333Y406990D01*
X43443809Y883180D02*
X43634285Y883180D01*
X43634285Y883180D02*
X43729523Y835561D01*
X43729523Y835561D02*
X43824761Y740323D01*
X43824761Y740323D02*
X43872380Y549847D01*
X43872380Y549847D02*
X43872380Y216514D01*
X43872380Y216514D02*
X43824761Y26038D01*
X43824761Y26038D02*
X43729523Y-69200D01*
X43729523Y-69200D02*
X43634285Y-116819D01*
X43634285Y-116819D02*
X43443809Y-116819D01*
X43443809Y-116819D02*
X43348571Y-69200D01*
X43348571Y-69200D02*
X43253333Y26038D01*
X43253333Y26038D02*
X43205714Y216514D01*
X43205714Y216514D02*
X43205714Y549847D01*
X43205714Y549847D02*
X43253333Y740323D01*
X43253333Y740323D02*
X43348571Y835561D01*
X43348571Y835561D02*
X43443809Y883180D01*
X44491428Y883180D02*
X44681904Y883180D01*
X44681904Y883180D02*
X44777142Y835561D01*
X44777142Y835561D02*
X44872380Y740323D01*
X44872380Y740323D02*
X44919999Y549847D01*
X44919999Y549847D02*
X44919999Y216514D01*
X44919999Y216514D02*
X44872380Y26038D01*
X44872380Y26038D02*
X44777142Y-69200D01*
X44777142Y-69200D02*
X44681904Y-116819D01*
X44681904Y-116819D02*
X44491428Y-116819D01*
X44491428Y-116819D02*
X44396190Y-69200D01*
X44396190Y-69200D02*
X44300952Y26038D01*
X44300952Y26038D02*
X44253333Y216514D01*
X44253333Y216514D02*
X44253333Y549847D01*
X44253333Y549847D02*
X44300952Y740323D01*
X44300952Y740323D02*
X44396190Y835561D01*
X44396190Y835561D02*
X44491428Y883180D01*
X45205714Y883180D02*
X45777142Y883180D01*
X45491428Y-116819D02*
X45491428Y883180D01*
X46634285Y-116819D02*
X46062857Y-116819D01*
X46348571Y-116819D02*
X46348571Y883180D01*
X46348571Y883180D02*
X46253333Y740323D01*
X46253333Y740323D02*
X46158095Y645085D01*
X46158095Y645085D02*
X46062857Y597466D01*
X29007333Y-7654819D02*
X28674000Y-7178628D01*
X28435905Y-7654819D02*
X28435905Y-6654819D01*
X28435905Y-6654819D02*
X28816857Y-6654819D01*
X28816857Y-6654819D02*
X28912095Y-6702438D01*
X28912095Y-6702438D02*
X28959714Y-6750057D01*
X28959714Y-6750057D02*
X29007333Y-6845295D01*
X29007333Y-6845295D02*
X29007333Y-6988152D01*
X29007333Y-6988152D02*
X28959714Y-7083390D01*
X28959714Y-7083390D02*
X28912095Y-7131009D01*
X28912095Y-7131009D02*
X28816857Y-7178628D01*
X28816857Y-7178628D02*
X28435905Y-7178628D01*
X29340667Y-6654819D02*
X29959714Y-6654819D01*
X29959714Y-6654819D02*
X29626381Y-7035771D01*
X29626381Y-7035771D02*
X29769238Y-7035771D01*
X29769238Y-7035771D02*
X29864476Y-7083390D01*
X29864476Y-7083390D02*
X29912095Y-7131009D01*
X29912095Y-7131009D02*
X29959714Y-7226247D01*
X29959714Y-7226247D02*
X29959714Y-7464342D01*
X29959714Y-7464342D02*
X29912095Y-7559580D01*
X29912095Y-7559580D02*
X29864476Y-7607200D01*
X29864476Y-7607200D02*
X29769238Y-7654819D01*
X29769238Y-7654819D02*
X29483524Y-7654819D01*
X29483524Y-7654819D02*
X29388286Y-7607200D01*
X29388286Y-7607200D02*
X29340667Y-7559580D01*
X46107142Y13150419D02*
X46059523Y13102800D01*
X46059523Y13102800D02*
X45916666Y13055180D01*
X45916666Y13055180D02*
X45821428Y13055180D01*
X45821428Y13055180D02*
X45678571Y13102800D01*
X45678571Y13102800D02*
X45583333Y13198038D01*
X45583333Y13198038D02*
X45535714Y13293276D01*
X45535714Y13293276D02*
X45488095Y13483752D01*
X45488095Y13483752D02*
X45488095Y13626609D01*
X45488095Y13626609D02*
X45535714Y13817085D01*
X45535714Y13817085D02*
X45583333Y13912323D01*
X45583333Y13912323D02*
X45678571Y14007561D01*
X45678571Y14007561D02*
X45821428Y14055180D01*
X45821428Y14055180D02*
X45916666Y14055180D01*
X45916666Y14055180D02*
X46059523Y14007561D01*
X46059523Y14007561D02*
X46107142Y13959942D01*
X46488095Y13959942D02*
X46535714Y14007561D01*
X46535714Y14007561D02*
X46630952Y14055180D01*
X46630952Y14055180D02*
X46869047Y14055180D01*
X46869047Y14055180D02*
X46964285Y14007561D01*
X46964285Y14007561D02*
X47011904Y13959942D01*
X47011904Y13959942D02*
X47059523Y13864704D01*
X47059523Y13864704D02*
X47059523Y13769466D01*
X47059523Y13769466D02*
X47011904Y13626609D01*
X47011904Y13626609D02*
X46440476Y13055180D01*
X46440476Y13055180D02*
X47059523Y13055180D01*
X47678571Y14055180D02*
X47773809Y14055180D01*
X47773809Y14055180D02*
X47869047Y14007561D01*
X47869047Y14007561D02*
X47916666Y13959942D01*
X47916666Y13959942D02*
X47964285Y13864704D01*
X47964285Y13864704D02*
X48011904Y13674228D01*
X48011904Y13674228D02*
X48011904Y13436133D01*
X48011904Y13436133D02*
X47964285Y13245657D01*
X47964285Y13245657D02*
X47916666Y13150419D01*
X47916666Y13150419D02*
X47869047Y13102800D01*
X47869047Y13102800D02*
X47773809Y13055180D01*
X47773809Y13055180D02*
X47678571Y13055180D01*
X47678571Y13055180D02*
X47583333Y13102800D01*
X47583333Y13102800D02*
X47535714Y13150419D01*
X47535714Y13150419D02*
X47488095Y13245657D01*
X47488095Y13245657D02*
X47440476Y13436133D01*
X47440476Y13436133D02*
X47440476Y13674228D01*
X47440476Y13674228D02*
X47488095Y13864704D01*
X47488095Y13864704D02*
X47535714Y13959942D01*
X47535714Y13959942D02*
X47583333Y14007561D01*
X47583333Y14007561D02*
X47678571Y14055180D01*
X34607332Y-7654819D02*
X34273999Y-7178628D01*
X34035904Y-7654819D02*
X34035904Y-6654819D01*
X34035904Y-6654819D02*
X34416856Y-6654819D01*
X34416856Y-6654819D02*
X34512094Y-6702438D01*
X34512094Y-6702438D02*
X34559713Y-6750057D01*
X34559713Y-6750057D02*
X34607332Y-6845295D01*
X34607332Y-6845295D02*
X34607332Y-6988152D01*
X34607332Y-6988152D02*
X34559713Y-7083390D01*
X34559713Y-7083390D02*
X34512094Y-7131009D01*
X34512094Y-7131009D02*
X34416856Y-7178628D01*
X34416856Y-7178628D02*
X34035904Y-7178628D01*
X35512094Y-6654819D02*
X35035904Y-6654819D01*
X35035904Y-6654819D02*
X34988285Y-7131009D01*
X34988285Y-7131009D02*
X35035904Y-7083390D01*
X35035904Y-7083390D02*
X35131142Y-7035771D01*
X35131142Y-7035771D02*
X35369237Y-7035771D01*
X35369237Y-7035771D02*
X35464475Y-7083390D01*
X35464475Y-7083390D02*
X35512094Y-7131009D01*
X35512094Y-7131009D02*
X35559713Y-7226247D01*
X35559713Y-7226247D02*
X35559713Y-7464342D01*
X35559713Y-7464342D02*
X35512094Y-7559580D01*
X35512094Y-7559580D02*
X35464475Y-7607200D01*
X35464475Y-7607200D02*
X35369237Y-7654819D01*
X35369237Y-7654819D02*
X35131142Y-7654819D01*
X35131142Y-7654819D02*
X35035904Y-7607200D01*
X35035904Y-7607200D02*
X34988285Y-7559580D01*
X43003333Y13075180D02*
X42527143Y13075180D01*
X42527143Y13075180D02*
X42527143Y14075180D01*
X43765238Y13741847D02*
X43765238Y13075180D01*
X43527143Y14122800D02*
X43289048Y13408514D01*
X43289048Y13408514D02*
X43908095Y13408514D01*
X11951905Y10225180D02*
X11951905Y11225180D01*
X11951905Y11225180D02*
X12190000Y11225180D01*
X12190000Y11225180D02*
X12332857Y11177561D01*
X12332857Y11177561D02*
X12428095Y11082323D01*
X12428095Y11082323D02*
X12475714Y10987085D01*
X12475714Y10987085D02*
X12523333Y10796609D01*
X12523333Y10796609D02*
X12523333Y10653752D01*
X12523333Y10653752D02*
X12475714Y10463276D01*
X12475714Y10463276D02*
X12428095Y10368038D01*
X12428095Y10368038D02*
X12332857Y10272800D01*
X12332857Y10272800D02*
X12190000Y10225180D01*
X12190000Y10225180D02*
X11951905Y10225180D01*
X12904286Y11129942D02*
X12951905Y11177561D01*
X12951905Y11177561D02*
X13047143Y11225180D01*
X13047143Y11225180D02*
X13285238Y11225180D01*
X13285238Y11225180D02*
X13380476Y11177561D01*
X13380476Y11177561D02*
X13428095Y11129942D01*
X13428095Y11129942D02*
X13475714Y11034704D01*
X13475714Y11034704D02*
X13475714Y10939466D01*
X13475714Y10939466D02*
X13428095Y10796609D01*
X13428095Y10796609D02*
X12856667Y10225180D01*
X12856667Y10225180D02*
X13475714Y10225180D01*
X16657142Y-25397581D02*
X16609523Y-25445201D01*
X16609523Y-25445201D02*
X16466666Y-25492820D01*
X16466666Y-25492820D02*
X16371428Y-25492820D01*
X16371428Y-25492820D02*
X16228571Y-25445201D01*
X16228571Y-25445201D02*
X16133333Y-25349962D01*
X16133333Y-25349962D02*
X16085714Y-25254724D01*
X16085714Y-25254724D02*
X16038095Y-25064248D01*
X16038095Y-25064248D02*
X16038095Y-24921391D01*
X16038095Y-24921391D02*
X16085714Y-24730915D01*
X16085714Y-24730915D02*
X16133333Y-24635677D01*
X16133333Y-24635677D02*
X16228571Y-24540439D01*
X16228571Y-24540439D02*
X16371428Y-24492820D01*
X16371428Y-24492820D02*
X16466666Y-24492820D01*
X16466666Y-24492820D02*
X16609523Y-24540439D01*
X16609523Y-24540439D02*
X16657142Y-24588058D01*
X17609523Y-25492820D02*
X17038095Y-25492820D01*
X17323809Y-25492820D02*
X17323809Y-24492820D01*
X17323809Y-24492820D02*
X17228571Y-24635677D01*
X17228571Y-24635677D02*
X17133333Y-24730915D01*
X17133333Y-24730915D02*
X17038095Y-24778534D01*
X18561904Y-25492820D02*
X17990476Y-25492820D01*
X18276190Y-25492820D02*
X18276190Y-24492820D01*
X18276190Y-24492820D02*
X18180952Y-24635677D01*
X18180952Y-24635677D02*
X18085714Y-24730915D01*
X18085714Y-24730915D02*
X17990476Y-24778534D01*
X16557142Y-16597581D02*
X16509523Y-16645201D01*
X16509523Y-16645201D02*
X16366666Y-16692820D01*
X16366666Y-16692820D02*
X16271428Y-16692820D01*
X16271428Y-16692820D02*
X16128571Y-16645201D01*
X16128571Y-16645201D02*
X16033333Y-16549962D01*
X16033333Y-16549962D02*
X15985714Y-16454724D01*
X15985714Y-16454724D02*
X15938095Y-16264248D01*
X15938095Y-16264248D02*
X15938095Y-16121391D01*
X15938095Y-16121391D02*
X15985714Y-15930915D01*
X15985714Y-15930915D02*
X16033333Y-15835677D01*
X16033333Y-15835677D02*
X16128571Y-15740439D01*
X16128571Y-15740439D02*
X16271428Y-15692820D01*
X16271428Y-15692820D02*
X16366666Y-15692820D01*
X16366666Y-15692820D02*
X16509523Y-15740439D01*
X16509523Y-15740439D02*
X16557142Y-15788058D01*
X17509523Y-16692820D02*
X16938095Y-16692820D01*
X17223809Y-16692820D02*
X17223809Y-15692820D01*
X17223809Y-15692820D02*
X17128571Y-15835677D01*
X17128571Y-15835677D02*
X17033333Y-15930915D01*
X17033333Y-15930915D02*
X16938095Y-15978534D01*
X18128571Y-15692820D02*
X18223809Y-15692820D01*
X18223809Y-15692820D02*
X18319047Y-15740439D01*
X18319047Y-15740439D02*
X18366666Y-15788058D01*
X18366666Y-15788058D02*
X18414285Y-15883296D01*
X18414285Y-15883296D02*
X18461904Y-16073772D01*
X18461904Y-16073772D02*
X18461904Y-16311867D01*
X18461904Y-16311867D02*
X18414285Y-16502343D01*
X18414285Y-16502343D02*
X18366666Y-16597581D01*
X18366666Y-16597581D02*
X18319047Y-16645201D01*
X18319047Y-16645201D02*
X18223809Y-16692820D01*
X18223809Y-16692820D02*
X18128571Y-16692820D01*
X18128571Y-16692820D02*
X18033333Y-16645201D01*
X18033333Y-16645201D02*
X17985714Y-16597581D01*
X17985714Y-16597581D02*
X17938095Y-16502343D01*
X17938095Y-16502343D02*
X17890476Y-16311867D01*
X17890476Y-16311867D02*
X17890476Y-16073772D01*
X17890476Y-16073772D02*
X17938095Y-15883296D01*
X17938095Y-15883296D02*
X17985714Y-15788058D01*
X17985714Y-15788058D02*
X18033333Y-15740439D01*
X18033333Y-15740439D02*
X18128571Y-15692820D01*
X14083333Y-25497581D02*
X14035714Y-25545201D01*
X14035714Y-25545201D02*
X13892857Y-25592820D01*
X13892857Y-25592820D02*
X13797619Y-25592820D01*
X13797619Y-25592820D02*
X13654762Y-25545201D01*
X13654762Y-25545201D02*
X13559524Y-25449962D01*
X13559524Y-25449962D02*
X13511905Y-25354724D01*
X13511905Y-25354724D02*
X13464286Y-25164248D01*
X13464286Y-25164248D02*
X13464286Y-25021391D01*
X13464286Y-25021391D02*
X13511905Y-24830915D01*
X13511905Y-24830915D02*
X13559524Y-24735677D01*
X13559524Y-24735677D02*
X13654762Y-24640439D01*
X13654762Y-24640439D02*
X13797619Y-24592820D01*
X13797619Y-24592820D02*
X13892857Y-24592820D01*
X13892857Y-24592820D02*
X14035714Y-24640439D01*
X14035714Y-24640439D02*
X14083333Y-24688058D01*
X14559524Y-25592820D02*
X14750000Y-25592820D01*
X14750000Y-25592820D02*
X14845238Y-25545201D01*
X14845238Y-25545201D02*
X14892857Y-25497581D01*
X14892857Y-25497581D02*
X14988095Y-25354724D01*
X14988095Y-25354724D02*
X15035714Y-25164248D01*
X15035714Y-25164248D02*
X15035714Y-24783296D01*
X15035714Y-24783296D02*
X14988095Y-24688058D01*
X14988095Y-24688058D02*
X14940476Y-24640439D01*
X14940476Y-24640439D02*
X14845238Y-24592820D01*
X14845238Y-24592820D02*
X14654762Y-24592820D01*
X14654762Y-24592820D02*
X14559524Y-24640439D01*
X14559524Y-24640439D02*
X14511905Y-24688058D01*
X14511905Y-24688058D02*
X14464286Y-24783296D01*
X14464286Y-24783296D02*
X14464286Y-25021391D01*
X14464286Y-25021391D02*
X14511905Y-25116629D01*
X14511905Y-25116629D02*
X14559524Y-25164248D01*
X14559524Y-25164248D02*
X14654762Y-25211867D01*
X14654762Y-25211867D02*
X14845238Y-25211867D01*
X14845238Y-25211867D02*
X14940476Y-25164248D01*
X14940476Y-25164248D02*
X14988095Y-25116629D01*
X14988095Y-25116629D02*
X15035714Y-25021391D01*
X13983333Y-16535582D02*
X13935714Y-16583202D01*
X13935714Y-16583202D02*
X13792857Y-16630821D01*
X13792857Y-16630821D02*
X13697619Y-16630821D01*
X13697619Y-16630821D02*
X13554762Y-16583202D01*
X13554762Y-16583202D02*
X13459524Y-16487963D01*
X13459524Y-16487963D02*
X13411905Y-16392725D01*
X13411905Y-16392725D02*
X13364286Y-16202249D01*
X13364286Y-16202249D02*
X13364286Y-16059392D01*
X13364286Y-16059392D02*
X13411905Y-15868916D01*
X13411905Y-15868916D02*
X13459524Y-15773678D01*
X13459524Y-15773678D02*
X13554762Y-15678440D01*
X13554762Y-15678440D02*
X13697619Y-15630821D01*
X13697619Y-15630821D02*
X13792857Y-15630821D01*
X13792857Y-15630821D02*
X13935714Y-15678440D01*
X13935714Y-15678440D02*
X13983333Y-15726059D01*
X14554762Y-16059392D02*
X14459524Y-16011773D01*
X14459524Y-16011773D02*
X14411905Y-15964154D01*
X14411905Y-15964154D02*
X14364286Y-15868916D01*
X14364286Y-15868916D02*
X14364286Y-15821297D01*
X14364286Y-15821297D02*
X14411905Y-15726059D01*
X14411905Y-15726059D02*
X14459524Y-15678440D01*
X14459524Y-15678440D02*
X14554762Y-15630821D01*
X14554762Y-15630821D02*
X14745238Y-15630821D01*
X14745238Y-15630821D02*
X14840476Y-15678440D01*
X14840476Y-15678440D02*
X14888095Y-15726059D01*
X14888095Y-15726059D02*
X14935714Y-15821297D01*
X14935714Y-15821297D02*
X14935714Y-15868916D01*
X14935714Y-15868916D02*
X14888095Y-15964154D01*
X14888095Y-15964154D02*
X14840476Y-16011773D01*
X14840476Y-16011773D02*
X14745238Y-16059392D01*
X14745238Y-16059392D02*
X14554762Y-16059392D01*
X14554762Y-16059392D02*
X14459524Y-16107011D01*
X14459524Y-16107011D02*
X14411905Y-16154630D01*
X14411905Y-16154630D02*
X14364286Y-16249868D01*
X14364286Y-16249868D02*
X14364286Y-16440344D01*
X14364286Y-16440344D02*
X14411905Y-16535582D01*
X14411905Y-16535582D02*
X14459524Y-16583202D01*
X14459524Y-16583202D02*
X14554762Y-16630821D01*
X14554762Y-16630821D02*
X14745238Y-16630821D01*
X14745238Y-16630821D02*
X14840476Y-16583202D01*
X14840476Y-16583202D02*
X14888095Y-16535582D01*
X14888095Y-16535582D02*
X14935714Y-16440344D01*
X14935714Y-16440344D02*
X14935714Y-16249868D01*
X14935714Y-16249868D02*
X14888095Y-16154630D01*
X14888095Y-16154630D02*
X14840476Y-16107011D01*
X14840476Y-16107011D02*
X14745238Y-16059392D01*
X-21866666Y-25979818D02*
X-22199999Y-25503627D01*
X-22438094Y-25979818D02*
X-22438094Y-24979818D01*
X-22438094Y-24979818D02*
X-22057142Y-24979818D01*
X-22057142Y-24979818D02*
X-21961904Y-25027437D01*
X-21961904Y-25027437D02*
X-21914285Y-25075056D01*
X-21914285Y-25075056D02*
X-21866666Y-25170294D01*
X-21866666Y-25170294D02*
X-21866666Y-25313151D01*
X-21866666Y-25313151D02*
X-21914285Y-25408389D01*
X-21914285Y-25408389D02*
X-21961904Y-25456008D01*
X-21961904Y-25456008D02*
X-22057142Y-25503627D01*
X-22057142Y-25503627D02*
X-22438094Y-25503627D01*
X-21533332Y-24979818D02*
X-20866666Y-24979818D01*
X-20866666Y-24979818D02*
X-21295237Y-25979818D01*
X-19845238Y15574942D02*
X-19940476Y15622561D01*
X-19940476Y15622561D02*
X-20035714Y15717800D01*
X-20035714Y15717800D02*
X-20178571Y15860657D01*
X-20178571Y15860657D02*
X-20273809Y15908276D01*
X-20273809Y15908276D02*
X-20369047Y15908276D01*
X-20321428Y15670180D02*
X-20416666Y15717800D01*
X-20416666Y15717800D02*
X-20511904Y15813038D01*
X-20511904Y15813038D02*
X-20559523Y16003514D01*
X-20559523Y16003514D02*
X-20559523Y16336847D01*
X-20559523Y16336847D02*
X-20511904Y16527323D01*
X-20511904Y16527323D02*
X-20416666Y16622561D01*
X-20416666Y16622561D02*
X-20321428Y16670180D01*
X-20321428Y16670180D02*
X-20130952Y16670180D01*
X-20130952Y16670180D02*
X-20035714Y16622561D01*
X-20035714Y16622561D02*
X-19940476Y16527323D01*
X-19940476Y16527323D02*
X-19892857Y16336847D01*
X-19892857Y16336847D02*
X-19892857Y16003514D01*
X-19892857Y16003514D02*
X-19940476Y15813038D01*
X-19940476Y15813038D02*
X-20035714Y15717800D01*
X-20035714Y15717800D02*
X-20130952Y15670180D01*
X-20130952Y15670180D02*
X-20321428Y15670180D01*
X-19559523Y16670180D02*
X-18892857Y16670180D01*
X-18892857Y16670180D02*
X-19321428Y15670180D01*
X2342733Y8645180D02*
X2009400Y9121371D01*
X1771305Y8645180D02*
X1771305Y9645180D01*
X1771305Y9645180D02*
X2152257Y9645180D01*
X2152257Y9645180D02*
X2247495Y9597561D01*
X2247495Y9597561D02*
X2295114Y9549942D01*
X2295114Y9549942D02*
X2342733Y9454704D01*
X2342733Y9454704D02*
X2342733Y9311847D01*
X2342733Y9311847D02*
X2295114Y9216609D01*
X2295114Y9216609D02*
X2247495Y9168990D01*
X2247495Y9168990D02*
X2152257Y9121371D01*
X2152257Y9121371D02*
X1771305Y9121371D01*
X3199876Y9311847D02*
X3199876Y8645180D01*
X2961781Y9692800D02*
X2723686Y8978514D01*
X2723686Y8978514D02*
X3342733Y8978514D01*
X-32592857Y-3559580D02*
X-32640476Y-3607200D01*
X-32640476Y-3607200D02*
X-32783333Y-3654819D01*
X-32783333Y-3654819D02*
X-32878571Y-3654819D01*
X-32878571Y-3654819D02*
X-33021428Y-3607200D01*
X-33021428Y-3607200D02*
X-33116666Y-3511961D01*
X-33116666Y-3511961D02*
X-33164285Y-3416723D01*
X-33164285Y-3416723D02*
X-33211904Y-3226247D01*
X-33211904Y-3226247D02*
X-33211904Y-3083390D01*
X-33211904Y-3083390D02*
X-33164285Y-2892914D01*
X-33164285Y-2892914D02*
X-33116666Y-2797676D01*
X-33116666Y-2797676D02*
X-33021428Y-2702438D01*
X-33021428Y-2702438D02*
X-32878571Y-2654819D01*
X-32878571Y-2654819D02*
X-32783333Y-2654819D01*
X-32783333Y-2654819D02*
X-32640476Y-2702438D01*
X-32640476Y-2702438D02*
X-32592857Y-2750057D01*
X-32211904Y-2750057D02*
X-32164285Y-2702438D01*
X-32164285Y-2702438D02*
X-32069047Y-2654819D01*
X-32069047Y-2654819D02*
X-31830952Y-2654819D01*
X-31830952Y-2654819D02*
X-31735714Y-2702438D01*
X-31735714Y-2702438D02*
X-31688095Y-2750057D01*
X-31688095Y-2750057D02*
X-31640476Y-2845295D01*
X-31640476Y-2845295D02*
X-31640476Y-2940533D01*
X-31640476Y-2940533D02*
X-31688095Y-3083390D01*
X-31688095Y-3083390D02*
X-32259523Y-3654819D01*
X-32259523Y-3654819D02*
X-31640476Y-3654819D01*
X-31164285Y-3654819D02*
X-30973809Y-3654819D01*
X-30973809Y-3654819D02*
X-30878571Y-3607200D01*
X-30878571Y-3607200D02*
X-30830952Y-3559580D01*
X-30830952Y-3559580D02*
X-30735714Y-3416723D01*
X-30735714Y-3416723D02*
X-30688095Y-3226247D01*
X-30688095Y-3226247D02*
X-30688095Y-2845295D01*
X-30688095Y-2845295D02*
X-30735714Y-2750057D01*
X-30735714Y-2750057D02*
X-30783333Y-2702438D01*
X-30783333Y-2702438D02*
X-30878571Y-2654819D01*
X-30878571Y-2654819D02*
X-31069047Y-2654819D01*
X-31069047Y-2654819D02*
X-31164285Y-2702438D01*
X-31164285Y-2702438D02*
X-31211904Y-2750057D01*
X-31211904Y-2750057D02*
X-31259523Y-2845295D01*
X-31259523Y-2845295D02*
X-31259523Y-3083390D01*
X-31259523Y-3083390D02*
X-31211904Y-3178628D01*
X-31211904Y-3178628D02*
X-31164285Y-3226247D01*
X-31164285Y-3226247D02*
X-31069047Y-3273866D01*
X-31069047Y-3273866D02*
X-30878571Y-3273866D01*
X-30878571Y-3273866D02*
X-30783333Y-3226247D01*
X-30783333Y-3226247D02*
X-30735714Y-3178628D01*
X-30735714Y-3178628D02*
X-30688095Y-3083390D01*
X-15988094Y25907179D02*
X-15988094Y26907179D01*
X-15988094Y26907179D02*
X-15749999Y26907179D01*
X-15749999Y26907179D02*
X-15607142Y26859560D01*
X-15607142Y26859560D02*
X-15511904Y26764322D01*
X-15511904Y26764322D02*
X-15464285Y26669084D01*
X-15464285Y26669084D02*
X-15416666Y26478608D01*
X-15416666Y26478608D02*
X-15416666Y26335751D01*
X-15416666Y26335751D02*
X-15464285Y26145275D01*
X-15464285Y26145275D02*
X-15511904Y26050037D01*
X-15511904Y26050037D02*
X-15607142Y25954799D01*
X-15607142Y25954799D02*
X-15749999Y25907179D01*
X-15749999Y25907179D02*
X-15988094Y25907179D01*
X-14559523Y26573846D02*
X-14559523Y25907179D01*
X-14797618Y26954799D02*
X-15035713Y26240513D01*
X-15035713Y26240513D02*
X-14416666Y26240513D01*
X10592733Y4490419D02*
X10545114Y4442800D01*
X10545114Y4442800D02*
X10402257Y4395180D01*
X10402257Y4395180D02*
X10307019Y4395180D01*
X10307019Y4395180D02*
X10164162Y4442800D01*
X10164162Y4442800D02*
X10068924Y4538038D01*
X10068924Y4538038D02*
X10021305Y4633276D01*
X10021305Y4633276D02*
X9973686Y4823752D01*
X9973686Y4823752D02*
X9973686Y4966609D01*
X9973686Y4966609D02*
X10021305Y5157085D01*
X10021305Y5157085D02*
X10068924Y5252323D01*
X10068924Y5252323D02*
X10164162Y5347561D01*
X10164162Y5347561D02*
X10307019Y5395180D01*
X10307019Y5395180D02*
X10402257Y5395180D01*
X10402257Y5395180D02*
X10545114Y5347561D01*
X10545114Y5347561D02*
X10592733Y5299942D01*
X11592733Y4395180D02*
X11259400Y4871371D01*
X11021305Y4395180D02*
X11021305Y5395180D01*
X11021305Y5395180D02*
X11402257Y5395180D01*
X11402257Y5395180D02*
X11497495Y5347561D01*
X11497495Y5347561D02*
X11545114Y5299942D01*
X11545114Y5299942D02*
X11592733Y5204704D01*
X11592733Y5204704D02*
X11592733Y5061847D01*
X11592733Y5061847D02*
X11545114Y4966609D01*
X11545114Y4966609D02*
X11497495Y4918990D01*
X11497495Y4918990D02*
X11402257Y4871371D01*
X11402257Y4871371D02*
X11021305Y4871371D01*
X11973686Y5299942D02*
X12021305Y5347561D01*
X12021305Y5347561D02*
X12116543Y5395180D01*
X12116543Y5395180D02*
X12354638Y5395180D01*
X12354638Y5395180D02*
X12449876Y5347561D01*
X12449876Y5347561D02*
X12497495Y5299942D01*
X12497495Y5299942D02*
X12545114Y5204704D01*
X12545114Y5204704D02*
X12545114Y5109466D01*
X12545114Y5109466D02*
X12497495Y4966609D01*
X12497495Y4966609D02*
X11926067Y4395180D01*
X11926067Y4395180D02*
X12545114Y4395180D01*
X8015219Y6459700D02*
X8253314Y6459700D01*
X8158076Y6221605D02*
X8253314Y6459700D01*
X8253314Y6459700D02*
X8158076Y6697795D01*
X8443790Y6316843D02*
X8253314Y6459700D01*
X8253314Y6459700D02*
X8443790Y6602557D01*
X9105580Y6459699D02*
X8867485Y6459699D01*
X8962723Y6697794D02*
X8867485Y6459699D01*
X8867485Y6459699D02*
X8962723Y6221604D01*
X8677009Y6602556D02*
X8867485Y6459699D01*
X8867485Y6459699D02*
X8677009Y6316842D01*
X-32592857Y10745180D02*
X-32926190Y11221371D01*
X-33164285Y10745180D02*
X-33164285Y11745180D01*
X-33164285Y11745180D02*
X-32783333Y11745180D01*
X-32783333Y11745180D02*
X-32688095Y11697561D01*
X-32688095Y11697561D02*
X-32640476Y11649942D01*
X-32640476Y11649942D02*
X-32592857Y11554704D01*
X-32592857Y11554704D02*
X-32592857Y11411847D01*
X-32592857Y11411847D02*
X-32640476Y11316609D01*
X-32640476Y11316609D02*
X-32688095Y11268990D01*
X-32688095Y11268990D02*
X-32783333Y11221371D01*
X-32783333Y11221371D02*
X-33164285Y11221371D01*
X-31640476Y10745180D02*
X-32211904Y10745180D01*
X-31926190Y10745180D02*
X-31926190Y11745180D01*
X-31926190Y11745180D02*
X-32021428Y11602323D01*
X-32021428Y11602323D02*
X-32116666Y11507085D01*
X-32116666Y11507085D02*
X-32211904Y11459466D01*
X-30735714Y11745180D02*
X-31211904Y11745180D01*
X-31211904Y11745180D02*
X-31259523Y11268990D01*
X-31259523Y11268990D02*
X-31211904Y11316609D01*
X-31211904Y11316609D02*
X-31116666Y11364228D01*
X-31116666Y11364228D02*
X-30878571Y11364228D01*
X-30878571Y11364228D02*
X-30783333Y11316609D01*
X-30783333Y11316609D02*
X-30735714Y11268990D01*
X-30735714Y11268990D02*
X-30688095Y11173752D01*
X-30688095Y11173752D02*
X-30688095Y10935657D01*
X-30688095Y10935657D02*
X-30735714Y10840419D01*
X-30735714Y10840419D02*
X-30783333Y10792800D01*
X-30783333Y10792800D02*
X-30878571Y10745180D01*
X-30878571Y10745180D02*
X-31116666Y10745180D01*
X-31116666Y10745180D02*
X-31211904Y10792800D01*
X-31211904Y10792800D02*
X-31259523Y10840419D01*
X-14095238Y-16350056D02*
X-14190476Y-16302437D01*
X-14190476Y-16302437D02*
X-14285714Y-16207199D01*
X-14285714Y-16207199D02*
X-14428571Y-16064341D01*
X-14428571Y-16064341D02*
X-14523809Y-16016722D01*
X-14523809Y-16016722D02*
X-14619047Y-16016722D01*
X-14571428Y-16254818D02*
X-14666666Y-16207199D01*
X-14666666Y-16207199D02*
X-14761904Y-16111960D01*
X-14761904Y-16111960D02*
X-14809523Y-15921484D01*
X-14809523Y-15921484D02*
X-14809523Y-15588151D01*
X-14809523Y-15588151D02*
X-14761904Y-15397675D01*
X-14761904Y-15397675D02*
X-14666666Y-15302437D01*
X-14666666Y-15302437D02*
X-14571428Y-15254818D01*
X-14571428Y-15254818D02*
X-14380952Y-15254818D01*
X-14380952Y-15254818D02*
X-14285714Y-15302437D01*
X-14285714Y-15302437D02*
X-14190476Y-15397675D01*
X-14190476Y-15397675D02*
X-14142857Y-15588151D01*
X-14142857Y-15588151D02*
X-14142857Y-15921484D01*
X-14142857Y-15921484D02*
X-14190476Y-16111960D01*
X-14190476Y-16111960D02*
X-14285714Y-16207199D01*
X-14285714Y-16207199D02*
X-14380952Y-16254818D01*
X-14380952Y-16254818D02*
X-14571428Y-16254818D01*
X-13238095Y-15254818D02*
X-13714285Y-15254818D01*
X-13714285Y-15254818D02*
X-13761904Y-15731008D01*
X-13761904Y-15731008D02*
X-13714285Y-15683389D01*
X-13714285Y-15683389D02*
X-13619047Y-15635770D01*
X-13619047Y-15635770D02*
X-13380952Y-15635770D01*
X-13380952Y-15635770D02*
X-13285714Y-15683389D01*
X-13285714Y-15683389D02*
X-13238095Y-15731008D01*
X-13238095Y-15731008D02*
X-13190476Y-15826246D01*
X-13190476Y-15826246D02*
X-13190476Y-16064341D01*
X-13190476Y-16064341D02*
X-13238095Y-16159579D01*
X-13238095Y-16159579D02*
X-13285714Y-16207199D01*
X-13285714Y-16207199D02*
X-13380952Y-16254818D01*
X-13380952Y-16254818D02*
X-13619047Y-16254818D01*
X-13619047Y-16254818D02*
X-13714285Y-16207199D01*
X-13714285Y-16207199D02*
X-13761904Y-16159579D01*
X37007142Y22840419D02*
X36959523Y22792800D01*
X36959523Y22792800D02*
X36816666Y22745180D01*
X36816666Y22745180D02*
X36721428Y22745180D01*
X36721428Y22745180D02*
X36578571Y22792800D01*
X36578571Y22792800D02*
X36483333Y22888038D01*
X36483333Y22888038D02*
X36435714Y22983276D01*
X36435714Y22983276D02*
X36388095Y23173752D01*
X36388095Y23173752D02*
X36388095Y23316609D01*
X36388095Y23316609D02*
X36435714Y23507085D01*
X36435714Y23507085D02*
X36483333Y23602323D01*
X36483333Y23602323D02*
X36578571Y23697561D01*
X36578571Y23697561D02*
X36721428Y23745180D01*
X36721428Y23745180D02*
X36816666Y23745180D01*
X36816666Y23745180D02*
X36959523Y23697561D01*
X36959523Y23697561D02*
X37007142Y23649942D01*
X37959523Y22745180D02*
X37388095Y22745180D01*
X37673809Y22745180D02*
X37673809Y23745180D01*
X37673809Y23745180D02*
X37578571Y23602323D01*
X37578571Y23602323D02*
X37483333Y23507085D01*
X37483333Y23507085D02*
X37388095Y23459466D01*
X38816666Y23411847D02*
X38816666Y22745180D01*
X38578571Y23792800D02*
X38340476Y23078514D01*
X38340476Y23078514D02*
X38959523Y23078514D01*
X-32592857Y8940419D02*
X-32640476Y8892800D01*
X-32640476Y8892800D02*
X-32783333Y8845180D01*
X-32783333Y8845180D02*
X-32878571Y8845180D01*
X-32878571Y8845180D02*
X-33021428Y8892800D01*
X-33021428Y8892800D02*
X-33116666Y8988038D01*
X-33116666Y8988038D02*
X-33164285Y9083276D01*
X-33164285Y9083276D02*
X-33211904Y9273752D01*
X-33211904Y9273752D02*
X-33211904Y9416609D01*
X-33211904Y9416609D02*
X-33164285Y9607085D01*
X-33164285Y9607085D02*
X-33116666Y9702323D01*
X-33116666Y9702323D02*
X-33021428Y9797561D01*
X-33021428Y9797561D02*
X-32878571Y9845180D01*
X-32878571Y9845180D02*
X-32783333Y9845180D01*
X-32783333Y9845180D02*
X-32640476Y9797561D01*
X-32640476Y9797561D02*
X-32592857Y9749942D01*
X-32211904Y9749942D02*
X-32164285Y9797561D01*
X-32164285Y9797561D02*
X-32069047Y9845180D01*
X-32069047Y9845180D02*
X-31830952Y9845180D01*
X-31830952Y9845180D02*
X-31735714Y9797561D01*
X-31735714Y9797561D02*
X-31688095Y9749942D01*
X-31688095Y9749942D02*
X-31640476Y9654704D01*
X-31640476Y9654704D02*
X-31640476Y9559466D01*
X-31640476Y9559466D02*
X-31688095Y9416609D01*
X-31688095Y9416609D02*
X-32259523Y8845180D01*
X-32259523Y8845180D02*
X-31640476Y8845180D01*
X-31259523Y9749942D02*
X-31211904Y9797561D01*
X-31211904Y9797561D02*
X-31116666Y9845180D01*
X-31116666Y9845180D02*
X-30878571Y9845180D01*
X-30878571Y9845180D02*
X-30783333Y9797561D01*
X-30783333Y9797561D02*
X-30735714Y9749942D01*
X-30735714Y9749942D02*
X-30688095Y9654704D01*
X-30688095Y9654704D02*
X-30688095Y9559466D01*
X-30688095Y9559466D02*
X-30735714Y9416609D01*
X-30735714Y9416609D02*
X-31307142Y8845180D01*
X-31307142Y8845180D02*
X-30688095Y8845180D01*
X-14095238Y15449942D02*
X-14190476Y15497561D01*
X-14190476Y15497561D02*
X-14285714Y15592800D01*
X-14285714Y15592800D02*
X-14428571Y15735657D01*
X-14428571Y15735657D02*
X-14523809Y15783276D01*
X-14523809Y15783276D02*
X-14619047Y15783276D01*
X-14571428Y15545180D02*
X-14666666Y15592800D01*
X-14666666Y15592800D02*
X-14761904Y15688038D01*
X-14761904Y15688038D02*
X-14809523Y15878514D01*
X-14809523Y15878514D02*
X-14809523Y16211847D01*
X-14809523Y16211847D02*
X-14761904Y16402323D01*
X-14761904Y16402323D02*
X-14666666Y16497561D01*
X-14666666Y16497561D02*
X-14571428Y16545180D01*
X-14571428Y16545180D02*
X-14380952Y16545180D01*
X-14380952Y16545180D02*
X-14285714Y16497561D01*
X-14285714Y16497561D02*
X-14190476Y16402323D01*
X-14190476Y16402323D02*
X-14142857Y16211847D01*
X-14142857Y16211847D02*
X-14142857Y15878514D01*
X-14142857Y15878514D02*
X-14190476Y15688038D01*
X-14190476Y15688038D02*
X-14285714Y15592800D01*
X-14285714Y15592800D02*
X-14380952Y15545180D01*
X-14380952Y15545180D02*
X-14571428Y15545180D01*
X-13761904Y16449942D02*
X-13714285Y16497561D01*
X-13714285Y16497561D02*
X-13619047Y16545180D01*
X-13619047Y16545180D02*
X-13380952Y16545180D01*
X-13380952Y16545180D02*
X-13285714Y16497561D01*
X-13285714Y16497561D02*
X-13238095Y16449942D01*
X-13238095Y16449942D02*
X-13190476Y16354704D01*
X-13190476Y16354704D02*
X-13190476Y16259466D01*
X-13190476Y16259466D02*
X-13238095Y16116609D01*
X-13238095Y16116609D02*
X-13809523Y15545180D01*
X-13809523Y15545180D02*
X-13190476Y15545180D01*
X51416333Y25629780D02*
X50940143Y25629780D01*
X50940143Y25629780D02*
X50940143Y26629780D01*
X51654429Y26629780D02*
X52273476Y26629780D01*
X52273476Y26629780D02*
X51940143Y26248828D01*
X51940143Y26248828D02*
X52083000Y26248828D01*
X52083000Y26248828D02*
X52178238Y26201209D01*
X52178238Y26201209D02*
X52225857Y26153590D01*
X52225857Y26153590D02*
X52273476Y26058352D01*
X52273476Y26058352D02*
X52273476Y25820257D01*
X52273476Y25820257D02*
X52225857Y25725019D01*
X52225857Y25725019D02*
X52178238Y25677400D01*
X52178238Y25677400D02*
X52083000Y25629780D01*
X52083000Y25629780D02*
X51797286Y25629780D01*
X51797286Y25629780D02*
X51702048Y25677400D01*
X51702048Y25677400D02*
X51654429Y25725019D01*
X-25440475Y-1062295D02*
X-25440475Y-262295D01*
X-25440475Y-262295D02*
X-25249999Y-262295D01*
X-25249999Y-262295D02*
X-25135713Y-300390D01*
X-25135713Y-300390D02*
X-25059523Y-376580D01*
X-25059523Y-376580D02*
X-25021428Y-452771D01*
X-25021428Y-452771D02*
X-24983332Y-605152D01*
X-24983332Y-605152D02*
X-24983332Y-719438D01*
X-24983332Y-719438D02*
X-25021428Y-871819D01*
X-25021428Y-871819D02*
X-25059523Y-948009D01*
X-25059523Y-948009D02*
X-25135713Y-1024200D01*
X-25135713Y-1024200D02*
X-25249999Y-1062295D01*
X-25249999Y-1062295D02*
X-25440475Y-1062295D01*
X-24602380Y-1062295D02*
X-24449999Y-1062295D01*
X-24449999Y-1062295D02*
X-24373809Y-1024200D01*
X-24373809Y-1024200D02*
X-24335713Y-986104D01*
X-24335713Y-986104D02*
X-24259523Y-871819D01*
X-24259523Y-871819D02*
X-24221428Y-719438D01*
X-24221428Y-719438D02*
X-24221428Y-414676D01*
X-24221428Y-414676D02*
X-24259523Y-338485D01*
X-24259523Y-338485D02*
X-24297618Y-300390D01*
X-24297618Y-300390D02*
X-24373809Y-262295D01*
X-24373809Y-262295D02*
X-24526190Y-262295D01*
X-24526190Y-262295D02*
X-24602380Y-300390D01*
X-24602380Y-300390D02*
X-24640475Y-338485D01*
X-24640475Y-338485D02*
X-24678571Y-414676D01*
X-24678571Y-414676D02*
X-24678571Y-605152D01*
X-24678571Y-605152D02*
X-24640475Y-681342D01*
X-24640475Y-681342D02*
X-24602380Y-719438D01*
X-24602380Y-719438D02*
X-24526190Y-757533D01*
X-24526190Y-757533D02*
X-24373809Y-757533D01*
X-24373809Y-757533D02*
X-24297618Y-719438D01*
X-24297618Y-719438D02*
X-24259523Y-681342D01*
X-24259523Y-681342D02*
X-24221428Y-605152D01*
X-25420475Y-3612295D02*
X-25420475Y-2812295D01*
X-25420475Y-2812295D02*
X-25229999Y-2812295D01*
X-25229999Y-2812295D02*
X-25115713Y-2850390D01*
X-25115713Y-2850390D02*
X-25039523Y-2926580D01*
X-25039523Y-2926580D02*
X-25001428Y-3002771D01*
X-25001428Y-3002771D02*
X-24963332Y-3155152D01*
X-24963332Y-3155152D02*
X-24963332Y-3269438D01*
X-24963332Y-3269438D02*
X-25001428Y-3421819D01*
X-25001428Y-3421819D02*
X-25039523Y-3498009D01*
X-25039523Y-3498009D02*
X-25115713Y-3574200D01*
X-25115713Y-3574200D02*
X-25229999Y-3612295D01*
X-25229999Y-3612295D02*
X-25420475Y-3612295D01*
X-24696666Y-2812295D02*
X-24163332Y-2812295D01*
X-24163332Y-2812295D02*
X-24506190Y-3612295D01*
X-32592857Y12645180D02*
X-32926190Y13121371D01*
X-33164285Y12645180D02*
X-33164285Y13645180D01*
X-33164285Y13645180D02*
X-32783333Y13645180D01*
X-32783333Y13645180D02*
X-32688095Y13597561D01*
X-32688095Y13597561D02*
X-32640476Y13549942D01*
X-32640476Y13549942D02*
X-32592857Y13454704D01*
X-32592857Y13454704D02*
X-32592857Y13311847D01*
X-32592857Y13311847D02*
X-32640476Y13216609D01*
X-32640476Y13216609D02*
X-32688095Y13168990D01*
X-32688095Y13168990D02*
X-32783333Y13121371D01*
X-32783333Y13121371D02*
X-33164285Y13121371D01*
X-31640476Y12645180D02*
X-32211904Y12645180D01*
X-31926190Y12645180D02*
X-31926190Y13645180D01*
X-31926190Y13645180D02*
X-32021428Y13502323D01*
X-32021428Y13502323D02*
X-32116666Y13407085D01*
X-32116666Y13407085D02*
X-32211904Y13359466D01*
X-31259523Y13549942D02*
X-31211904Y13597561D01*
X-31211904Y13597561D02*
X-31116666Y13645180D01*
X-31116666Y13645180D02*
X-30878571Y13645180D01*
X-30878571Y13645180D02*
X-30783333Y13597561D01*
X-30783333Y13597561D02*
X-30735714Y13549942D01*
X-30735714Y13549942D02*
X-30688095Y13454704D01*
X-30688095Y13454704D02*
X-30688095Y13359466D01*
X-30688095Y13359466D02*
X-30735714Y13216609D01*
X-30735714Y13216609D02*
X-31307142Y12645180D01*
X-31307142Y12645180D02*
X-30688095Y12645180D01*
X3342733Y6740419D02*
X3295114Y6692800D01*
X3295114Y6692800D02*
X3152257Y6645180D01*
X3152257Y6645180D02*
X3057019Y6645180D01*
X3057019Y6645180D02*
X2914162Y6692800D01*
X2914162Y6692800D02*
X2818924Y6788038D01*
X2818924Y6788038D02*
X2771305Y6883276D01*
X2771305Y6883276D02*
X2723686Y7073752D01*
X2723686Y7073752D02*
X2723686Y7216609D01*
X2723686Y7216609D02*
X2771305Y7407085D01*
X2771305Y7407085D02*
X2818924Y7502323D01*
X2818924Y7502323D02*
X2914162Y7597561D01*
X2914162Y7597561D02*
X3057019Y7645180D01*
X3057019Y7645180D02*
X3152257Y7645180D01*
X3152257Y7645180D02*
X3295114Y7597561D01*
X3295114Y7597561D02*
X3342733Y7549942D01*
X4295114Y6645180D02*
X3723686Y6645180D01*
X4009400Y6645180D02*
X4009400Y7645180D01*
X4009400Y7645180D02*
X3914162Y7502323D01*
X3914162Y7502323D02*
X3818924Y7407085D01*
X3818924Y7407085D02*
X3723686Y7359466D01*
X-13388094Y-26054819D02*
X-13388094Y-25054819D01*
X-13388094Y-25054819D02*
X-13149999Y-25054819D01*
X-13149999Y-25054819D02*
X-13007142Y-25102438D01*
X-13007142Y-25102438D02*
X-12911904Y-25197676D01*
X-12911904Y-25197676D02*
X-12864285Y-25292914D01*
X-12864285Y-25292914D02*
X-12816666Y-25483390D01*
X-12816666Y-25483390D02*
X-12816666Y-25626247D01*
X-12816666Y-25626247D02*
X-12864285Y-25816723D01*
X-12864285Y-25816723D02*
X-12911904Y-25911961D01*
X-12911904Y-25911961D02*
X-13007142Y-26007200D01*
X-13007142Y-26007200D02*
X-13149999Y-26054819D01*
X-13149999Y-26054819D02*
X-13388094Y-26054819D01*
X-12483332Y-25054819D02*
X-11864285Y-25054819D01*
X-11864285Y-25054819D02*
X-12197618Y-25435771D01*
X-12197618Y-25435771D02*
X-12054761Y-25435771D01*
X-12054761Y-25435771D02*
X-11959523Y-25483390D01*
X-11959523Y-25483390D02*
X-11911904Y-25531009D01*
X-11911904Y-25531009D02*
X-11864285Y-25626247D01*
X-11864285Y-25626247D02*
X-11864285Y-25864342D01*
X-11864285Y-25864342D02*
X-11911904Y-25959580D01*
X-11911904Y-25959580D02*
X-11959523Y-26007200D01*
X-11959523Y-26007200D02*
X-12054761Y-26054819D01*
X-12054761Y-26054819D02*
X-12340475Y-26054819D01*
X-12340475Y-26054819D02*
X-12435713Y-26007200D01*
X-12435713Y-26007200D02*
X-12483332Y-25959580D01*
X-46095238Y-15849556D02*
X-46190476Y-15801937D01*
X-46190476Y-15801937D02*
X-46285714Y-15706699D01*
X-46285714Y-15706699D02*
X-46428571Y-15563841D01*
X-46428571Y-15563841D02*
X-46523809Y-15516222D01*
X-46523809Y-15516222D02*
X-46619047Y-15516222D01*
X-46571428Y-15754318D02*
X-46666666Y-15706699D01*
X-46666666Y-15706699D02*
X-46761904Y-15611460D01*
X-46761904Y-15611460D02*
X-46809523Y-15420984D01*
X-46809523Y-15420984D02*
X-46809523Y-15087651D01*
X-46809523Y-15087651D02*
X-46761904Y-14897175D01*
X-46761904Y-14897175D02*
X-46666666Y-14801937D01*
X-46666666Y-14801937D02*
X-46571428Y-14754318D01*
X-46571428Y-14754318D02*
X-46380952Y-14754318D01*
X-46380952Y-14754318D02*
X-46285714Y-14801937D01*
X-46285714Y-14801937D02*
X-46190476Y-14897175D01*
X-46190476Y-14897175D02*
X-46142857Y-15087651D01*
X-46142857Y-15087651D02*
X-46142857Y-15420984D01*
X-46142857Y-15420984D02*
X-46190476Y-15611460D01*
X-46190476Y-15611460D02*
X-46285714Y-15706699D01*
X-46285714Y-15706699D02*
X-46380952Y-15754318D01*
X-46380952Y-15754318D02*
X-46571428Y-15754318D01*
X-45809523Y-14754318D02*
X-45190476Y-14754318D01*
X-45190476Y-14754318D02*
X-45523809Y-15135270D01*
X-45523809Y-15135270D02*
X-45380952Y-15135270D01*
X-45380952Y-15135270D02*
X-45285714Y-15182889D01*
X-45285714Y-15182889D02*
X-45238095Y-15230508D01*
X-45238095Y-15230508D02*
X-45190476Y-15325746D01*
X-45190476Y-15325746D02*
X-45190476Y-15563841D01*
X-45190476Y-15563841D02*
X-45238095Y-15659079D01*
X-45238095Y-15659079D02*
X-45285714Y-15706699D01*
X-45285714Y-15706699D02*
X-45380952Y-15754318D01*
X-45380952Y-15754318D02*
X-45666666Y-15754318D01*
X-45666666Y-15754318D02*
X-45761904Y-15706699D01*
X-45761904Y-15706699D02*
X-45809523Y-15659079D01*
X-47392857Y-25916818D02*
X-47726190Y-25440627D01*
X-47964285Y-25916818D02*
X-47964285Y-24916818D01*
X-47964285Y-24916818D02*
X-47583333Y-24916818D01*
X-47583333Y-24916818D02*
X-47488095Y-24964437D01*
X-47488095Y-24964437D02*
X-47440476Y-25012056D01*
X-47440476Y-25012056D02*
X-47392857Y-25107294D01*
X-47392857Y-25107294D02*
X-47392857Y-25250151D01*
X-47392857Y-25250151D02*
X-47440476Y-25345389D01*
X-47440476Y-25345389D02*
X-47488095Y-25393008D01*
X-47488095Y-25393008D02*
X-47583333Y-25440627D01*
X-47583333Y-25440627D02*
X-47964285Y-25440627D01*
X-46440476Y-25916818D02*
X-47011904Y-25916818D01*
X-46726190Y-25916818D02*
X-46726190Y-24916818D01*
X-46726190Y-24916818D02*
X-46821428Y-25059675D01*
X-46821428Y-25059675D02*
X-46916666Y-25154913D01*
X-46916666Y-25154913D02*
X-47011904Y-25202532D01*
X-46107142Y-24916818D02*
X-45488095Y-24916818D01*
X-45488095Y-24916818D02*
X-45821428Y-25297770D01*
X-45821428Y-25297770D02*
X-45678571Y-25297770D01*
X-45678571Y-25297770D02*
X-45583333Y-25345389D01*
X-45583333Y-25345389D02*
X-45535714Y-25393008D01*
X-45535714Y-25393008D02*
X-45488095Y-25488246D01*
X-45488095Y-25488246D02*
X-45488095Y-25726341D01*
X-45488095Y-25726341D02*
X-45535714Y-25821579D01*
X-45535714Y-25821579D02*
X-45583333Y-25869199D01*
X-45583333Y-25869199D02*
X-45678571Y-25916818D01*
X-45678571Y-25916818D02*
X-45964285Y-25916818D01*
X-45964285Y-25916818D02*
X-46059523Y-25869199D01*
X-46059523Y-25869199D02*
X-46107142Y-25821579D01*
X-12816666Y25945180D02*
X-13149999Y26421371D01*
X-13388094Y25945180D02*
X-13388094Y26945180D01*
X-13388094Y26945180D02*
X-13007142Y26945180D01*
X-13007142Y26945180D02*
X-12911904Y26897561D01*
X-12911904Y26897561D02*
X-12864285Y26849942D01*
X-12864285Y26849942D02*
X-12816666Y26754704D01*
X-12816666Y26754704D02*
X-12816666Y26611847D01*
X-12816666Y26611847D02*
X-12864285Y26516609D01*
X-12864285Y26516609D02*
X-12911904Y26468990D01*
X-12911904Y26468990D02*
X-13007142Y26421371D01*
X-13007142Y26421371D02*
X-13388094Y26421371D01*
X-11959523Y26945180D02*
X-12149999Y26945180D01*
X-12149999Y26945180D02*
X-12245237Y26897561D01*
X-12245237Y26897561D02*
X-12292856Y26849942D01*
X-12292856Y26849942D02*
X-12388094Y26707085D01*
X-12388094Y26707085D02*
X-12435713Y26516609D01*
X-12435713Y26516609D02*
X-12435713Y26135657D01*
X-12435713Y26135657D02*
X-12388094Y26040419D01*
X-12388094Y26040419D02*
X-12340475Y25992800D01*
X-12340475Y25992800D02*
X-12245237Y25945180D01*
X-12245237Y25945180D02*
X-12054761Y25945180D01*
X-12054761Y25945180D02*
X-11959523Y25992800D01*
X-11959523Y25992800D02*
X-11911904Y26040419D01*
X-11911904Y26040419D02*
X-11864285Y26135657D01*
X-11864285Y26135657D02*
X-11864285Y26373752D01*
X-11864285Y26373752D02*
X-11911904Y26468990D01*
X-11911904Y26468990D02*
X-11959523Y26516609D01*
X-11959523Y26516609D02*
X-12054761Y26564228D01*
X-12054761Y26564228D02*
X-12245237Y26564228D01*
X-12245237Y26564228D02*
X-12340475Y26516609D01*
X-12340475Y26516609D02*
X-12388094Y26468990D01*
X-12388094Y26468990D02*
X-12435713Y26373752D01*
X-32592857Y7240419D02*
X-32640476Y7192800D01*
X-32640476Y7192800D02*
X-32783333Y7145180D01*
X-32783333Y7145180D02*
X-32878571Y7145180D01*
X-32878571Y7145180D02*
X-33021428Y7192800D01*
X-33021428Y7192800D02*
X-33116666Y7288038D01*
X-33116666Y7288038D02*
X-33164285Y7383276D01*
X-33164285Y7383276D02*
X-33211904Y7573752D01*
X-33211904Y7573752D02*
X-33211904Y7716609D01*
X-33211904Y7716609D02*
X-33164285Y7907085D01*
X-33164285Y7907085D02*
X-33116666Y8002323D01*
X-33116666Y8002323D02*
X-33021428Y8097561D01*
X-33021428Y8097561D02*
X-32878571Y8145180D01*
X-32878571Y8145180D02*
X-32783333Y8145180D01*
X-32783333Y8145180D02*
X-32640476Y8097561D01*
X-32640476Y8097561D02*
X-32592857Y8049942D01*
X-32259523Y8145180D02*
X-31640476Y8145180D01*
X-31640476Y8145180D02*
X-31973809Y7764228D01*
X-31973809Y7764228D02*
X-31830952Y7764228D01*
X-31830952Y7764228D02*
X-31735714Y7716609D01*
X-31735714Y7716609D02*
X-31688095Y7668990D01*
X-31688095Y7668990D02*
X-31640476Y7573752D01*
X-31640476Y7573752D02*
X-31640476Y7335657D01*
X-31640476Y7335657D02*
X-31688095Y7240419D01*
X-31688095Y7240419D02*
X-31735714Y7192800D01*
X-31735714Y7192800D02*
X-31830952Y7145180D01*
X-31830952Y7145180D02*
X-32116666Y7145180D01*
X-32116666Y7145180D02*
X-32211904Y7192800D01*
X-32211904Y7192800D02*
X-32259523Y7240419D01*
X-31307142Y8145180D02*
X-30688095Y8145180D01*
X-30688095Y8145180D02*
X-31021428Y7764228D01*
X-31021428Y7764228D02*
X-30878571Y7764228D01*
X-30878571Y7764228D02*
X-30783333Y7716609D01*
X-30783333Y7716609D02*
X-30735714Y7668990D01*
X-30735714Y7668990D02*
X-30688095Y7573752D01*
X-30688095Y7573752D02*
X-30688095Y7335657D01*
X-30688095Y7335657D02*
X-30735714Y7240419D01*
X-30735714Y7240419D02*
X-30783333Y7192800D01*
X-30783333Y7192800D02*
X-30878571Y7145180D01*
X-30878571Y7145180D02*
X-31164285Y7145180D01*
X-31164285Y7145180D02*
X-31259523Y7192800D01*
X-31259523Y7192800D02*
X-31307142Y7240419D01*
X-2907266Y1240419D02*
X-2954885Y1192800D01*
X-2954885Y1192800D02*
X-3097742Y1145180D01*
X-3097742Y1145180D02*
X-3192980Y1145180D01*
X-3192980Y1145180D02*
X-3335837Y1192800D01*
X-3335837Y1192800D02*
X-3431075Y1288038D01*
X-3431075Y1288038D02*
X-3478694Y1383276D01*
X-3478694Y1383276D02*
X-3526313Y1573752D01*
X-3526313Y1573752D02*
X-3526313Y1716609D01*
X-3526313Y1716609D02*
X-3478694Y1907085D01*
X-3478694Y1907085D02*
X-3431075Y2002323D01*
X-3431075Y2002323D02*
X-3335837Y2097561D01*
X-3335837Y2097561D02*
X-3192980Y2145180D01*
X-3192980Y2145180D02*
X-3097742Y2145180D01*
X-3097742Y2145180D02*
X-2954885Y2097561D01*
X-2954885Y2097561D02*
X-2907266Y2049942D01*
X-2526313Y2049942D02*
X-2478694Y2097561D01*
X-2478694Y2097561D02*
X-2383456Y2145180D01*
X-2383456Y2145180D02*
X-2145361Y2145180D01*
X-2145361Y2145180D02*
X-2050123Y2097561D01*
X-2050123Y2097561D02*
X-2002504Y2049942D01*
X-2002504Y2049942D02*
X-1954885Y1954704D01*
X-1954885Y1954704D02*
X-1954885Y1859466D01*
X-1954885Y1859466D02*
X-2002504Y1716609D01*
X-2002504Y1716609D02*
X-2573932Y1145180D01*
X-2573932Y1145180D02*
X-1954885Y1145180D01*
X-32492857Y-26261069D02*
X-32826190Y-25784878D01*
X-33064285Y-26261069D02*
X-33064285Y-25261069D01*
X-33064285Y-25261069D02*
X-32683333Y-25261069D01*
X-32683333Y-25261069D02*
X-32588095Y-25308688D01*
X-32588095Y-25308688D02*
X-32540476Y-25356307D01*
X-32540476Y-25356307D02*
X-32492857Y-25451545D01*
X-32492857Y-25451545D02*
X-32492857Y-25594402D01*
X-32492857Y-25594402D02*
X-32540476Y-25689640D01*
X-32540476Y-25689640D02*
X-32588095Y-25737259D01*
X-32588095Y-25737259D02*
X-32683333Y-25784878D01*
X-32683333Y-25784878D02*
X-33064285Y-25784878D01*
X-31540476Y-26261069D02*
X-32111904Y-26261069D01*
X-31826190Y-26261069D02*
X-31826190Y-25261069D01*
X-31826190Y-25261069D02*
X-31921428Y-25403926D01*
X-31921428Y-25403926D02*
X-32016666Y-25499164D01*
X-32016666Y-25499164D02*
X-32111904Y-25546783D01*
X-30588095Y-26261069D02*
X-31159523Y-26261069D01*
X-30873809Y-26261069D02*
X-30873809Y-25261069D01*
X-30873809Y-25261069D02*
X-30969047Y-25403926D01*
X-30969047Y-25403926D02*
X-31064285Y-25499164D01*
X-31064285Y-25499164D02*
X-31159523Y-25546783D01*
X-32616666Y16545180D02*
X-32949999Y17021371D01*
X-33188094Y16545180D02*
X-33188094Y17545180D01*
X-33188094Y17545180D02*
X-32807142Y17545180D01*
X-32807142Y17545180D02*
X-32711904Y17497561D01*
X-32711904Y17497561D02*
X-32664285Y17449942D01*
X-32664285Y17449942D02*
X-32616666Y17354704D01*
X-32616666Y17354704D02*
X-32616666Y17211847D01*
X-32616666Y17211847D02*
X-32664285Y17116609D01*
X-32664285Y17116609D02*
X-32711904Y17068990D01*
X-32711904Y17068990D02*
X-32807142Y17021371D01*
X-32807142Y17021371D02*
X-33188094Y17021371D01*
X-31664285Y16545180D02*
X-32235713Y16545180D01*
X-31949999Y16545180D02*
X-31949999Y17545180D01*
X-31949999Y17545180D02*
X-32045237Y17402323D01*
X-32045237Y17402323D02*
X-32140475Y17307085D01*
X-32140475Y17307085D02*
X-32235713Y17259466D01*
X-2907266Y-509580D02*
X-2954885Y-557200D01*
X-2954885Y-557200D02*
X-3097742Y-604819D01*
X-3097742Y-604819D02*
X-3192980Y-604819D01*
X-3192980Y-604819D02*
X-3335837Y-557200D01*
X-3335837Y-557200D02*
X-3431075Y-461961D01*
X-3431075Y-461961D02*
X-3478694Y-366723D01*
X-3478694Y-366723D02*
X-3526313Y-176247D01*
X-3526313Y-176247D02*
X-3526313Y-33390D01*
X-3526313Y-33390D02*
X-3478694Y157085D01*
X-3478694Y157085D02*
X-3431075Y252323D01*
X-3431075Y252323D02*
X-3335837Y347561D01*
X-3335837Y347561D02*
X-3192980Y395180D01*
X-3192980Y395180D02*
X-3097742Y395180D01*
X-3097742Y395180D02*
X-2954885Y347561D01*
X-2954885Y347561D02*
X-2907266Y299942D01*
X-2573932Y395180D02*
X-1954885Y395180D01*
X-1954885Y395180D02*
X-2288218Y14228D01*
X-2288218Y14228D02*
X-2145361Y14228D01*
X-2145361Y14228D02*
X-2050123Y-33390D01*
X-2050123Y-33390D02*
X-2002504Y-81009D01*
X-2002504Y-81009D02*
X-1954885Y-176247D01*
X-1954885Y-176247D02*
X-1954885Y-414342D01*
X-1954885Y-414342D02*
X-2002504Y-509580D01*
X-2002504Y-509580D02*
X-2050123Y-557200D01*
X-2050123Y-557200D02*
X-2145361Y-604819D01*
X-2145361Y-604819D02*
X-2431075Y-604819D01*
X-2431075Y-604819D02*
X-2526313Y-557200D01*
X-2526313Y-557200D02*
X-2573932Y-509580D01*
X-32592857Y140419D02*
X-32640476Y92800D01*
X-32640476Y92800D02*
X-32783333Y45180D01*
X-32783333Y45180D02*
X-32878571Y45180D01*
X-32878571Y45180D02*
X-33021428Y92800D01*
X-33021428Y92800D02*
X-33116666Y188038D01*
X-33116666Y188038D02*
X-33164285Y283276D01*
X-33164285Y283276D02*
X-33211904Y473752D01*
X-33211904Y473752D02*
X-33211904Y616609D01*
X-33211904Y616609D02*
X-33164285Y807085D01*
X-33164285Y807085D02*
X-33116666Y902323D01*
X-33116666Y902323D02*
X-33021428Y997561D01*
X-33021428Y997561D02*
X-32878571Y1045180D01*
X-32878571Y1045180D02*
X-32783333Y1045180D01*
X-32783333Y1045180D02*
X-32640476Y997561D01*
X-32640476Y997561D02*
X-32592857Y949942D01*
X-32211904Y949942D02*
X-32164285Y997561D01*
X-32164285Y997561D02*
X-32069047Y1045180D01*
X-32069047Y1045180D02*
X-31830952Y1045180D01*
X-31830952Y1045180D02*
X-31735714Y997561D01*
X-31735714Y997561D02*
X-31688095Y949942D01*
X-31688095Y949942D02*
X-31640476Y854704D01*
X-31640476Y854704D02*
X-31640476Y759466D01*
X-31640476Y759466D02*
X-31688095Y616609D01*
X-31688095Y616609D02*
X-32259523Y45180D01*
X-32259523Y45180D02*
X-31640476Y45180D01*
X-30688095Y45180D02*
X-31259523Y45180D01*
X-30973809Y45180D02*
X-30973809Y1045180D01*
X-30973809Y1045180D02*
X-31069047Y902323D01*
X-31069047Y902323D02*
X-31164285Y807085D01*
X-31164285Y807085D02*
X-31259523Y759466D01*
X-29788094Y-26261069D02*
X-29788094Y-25261069D01*
X-29788094Y-25261069D02*
X-29549999Y-25261069D01*
X-29549999Y-25261069D02*
X-29407142Y-25308688D01*
X-29407142Y-25308688D02*
X-29311904Y-25403926D01*
X-29311904Y-25403926D02*
X-29264285Y-25499164D01*
X-29264285Y-25499164D02*
X-29216666Y-25689640D01*
X-29216666Y-25689640D02*
X-29216666Y-25832497D01*
X-29216666Y-25832497D02*
X-29264285Y-26022973D01*
X-29264285Y-26022973D02*
X-29311904Y-26118211D01*
X-29311904Y-26118211D02*
X-29407142Y-26213450D01*
X-29407142Y-26213450D02*
X-29549999Y-26261069D01*
X-29549999Y-26261069D02*
X-29788094Y-26261069D01*
X-28359523Y-25261069D02*
X-28549999Y-25261069D01*
X-28549999Y-25261069D02*
X-28645237Y-25308688D01*
X-28645237Y-25308688D02*
X-28692856Y-25356307D01*
X-28692856Y-25356307D02*
X-28788094Y-25499164D01*
X-28788094Y-25499164D02*
X-28835713Y-25689640D01*
X-28835713Y-25689640D02*
X-28835713Y-26070592D01*
X-28835713Y-26070592D02*
X-28788094Y-26165830D01*
X-28788094Y-26165830D02*
X-28740475Y-26213450D01*
X-28740475Y-26213450D02*
X-28645237Y-26261069D01*
X-28645237Y-26261069D02*
X-28454761Y-26261069D01*
X-28454761Y-26261069D02*
X-28359523Y-26213450D01*
X-28359523Y-26213450D02*
X-28311904Y-26165830D01*
X-28311904Y-26165830D02*
X-28264285Y-26070592D01*
X-28264285Y-26070592D02*
X-28264285Y-25832497D01*
X-28264285Y-25832497D02*
X-28311904Y-25737259D01*
X-28311904Y-25737259D02*
X-28359523Y-25689640D01*
X-28359523Y-25689640D02*
X-28454761Y-25642021D01*
X-28454761Y-25642021D02*
X-28645237Y-25642021D01*
X-28645237Y-25642021D02*
X-28740475Y-25689640D01*
X-28740475Y-25689640D02*
X-28788094Y-25737259D01*
X-28788094Y-25737259D02*
X-28835713Y-25832497D01*
X-25380475Y-6052295D02*
X-25380475Y-5252295D01*
X-25380475Y-5252295D02*
X-25189999Y-5252295D01*
X-25189999Y-5252295D02*
X-25075713Y-5290390D01*
X-25075713Y-5290390D02*
X-24999523Y-5366580D01*
X-24999523Y-5366580D02*
X-24961428Y-5442771D01*
X-24961428Y-5442771D02*
X-24923332Y-5595152D01*
X-24923332Y-5595152D02*
X-24923332Y-5709438D01*
X-24923332Y-5709438D02*
X-24961428Y-5861819D01*
X-24961428Y-5861819D02*
X-24999523Y-5938009D01*
X-24999523Y-5938009D02*
X-25075713Y-6014200D01*
X-25075713Y-6014200D02*
X-25189999Y-6052295D01*
X-25189999Y-6052295D02*
X-25380475Y-6052295D01*
X-24466190Y-5595152D02*
X-24542380Y-5557057D01*
X-24542380Y-5557057D02*
X-24580475Y-5518961D01*
X-24580475Y-5518961D02*
X-24618571Y-5442771D01*
X-24618571Y-5442771D02*
X-24618571Y-5404676D01*
X-24618571Y-5404676D02*
X-24580475Y-5328485D01*
X-24580475Y-5328485D02*
X-24542380Y-5290390D01*
X-24542380Y-5290390D02*
X-24466190Y-5252295D01*
X-24466190Y-5252295D02*
X-24313809Y-5252295D01*
X-24313809Y-5252295D02*
X-24237618Y-5290390D01*
X-24237618Y-5290390D02*
X-24199523Y-5328485D01*
X-24199523Y-5328485D02*
X-24161428Y-5404676D01*
X-24161428Y-5404676D02*
X-24161428Y-5442771D01*
X-24161428Y-5442771D02*
X-24199523Y-5518961D01*
X-24199523Y-5518961D02*
X-24237618Y-5557057D01*
X-24237618Y-5557057D02*
X-24313809Y-5595152D01*
X-24313809Y-5595152D02*
X-24466190Y-5595152D01*
X-24466190Y-5595152D02*
X-24542380Y-5633247D01*
X-24542380Y-5633247D02*
X-24580475Y-5671342D01*
X-24580475Y-5671342D02*
X-24618571Y-5747533D01*
X-24618571Y-5747533D02*
X-24618571Y-5899914D01*
X-24618571Y-5899914D02*
X-24580475Y-5976104D01*
X-24580475Y-5976104D02*
X-24542380Y-6014200D01*
X-24542380Y-6014200D02*
X-24466190Y-6052295D01*
X-24466190Y-6052295D02*
X-24313809Y-6052295D01*
X-24313809Y-6052295D02*
X-24237618Y-6014200D01*
X-24237618Y-6014200D02*
X-24199523Y-5976104D01*
X-24199523Y-5976104D02*
X-24161428Y-5899914D01*
X-24161428Y-5899914D02*
X-24161428Y-5747533D01*
X-24161428Y-5747533D02*
X-24199523Y-5671342D01*
X-24199523Y-5671342D02*
X-24237618Y-5633247D01*
X-24237618Y-5633247D02*
X-24313809Y-5595152D01*
X5842733Y6740419D02*
X5795114Y6692800D01*
X5795114Y6692800D02*
X5652257Y6645180D01*
X5652257Y6645180D02*
X5557019Y6645180D01*
X5557019Y6645180D02*
X5414162Y6692800D01*
X5414162Y6692800D02*
X5318924Y6788038D01*
X5318924Y6788038D02*
X5271305Y6883276D01*
X5271305Y6883276D02*
X5223686Y7073752D01*
X5223686Y7073752D02*
X5223686Y7216609D01*
X5223686Y7216609D02*
X5271305Y7407085D01*
X5271305Y7407085D02*
X5318924Y7502323D01*
X5318924Y7502323D02*
X5414162Y7597561D01*
X5414162Y7597561D02*
X5557019Y7645180D01*
X5557019Y7645180D02*
X5652257Y7645180D01*
X5652257Y7645180D02*
X5795114Y7597561D01*
X5795114Y7597561D02*
X5842733Y7549942D01*
X6699876Y7311847D02*
X6699876Y6645180D01*
X6461781Y7692800D02*
X6223686Y6978514D01*
X6223686Y6978514D02*
X6842733Y6978514D01*
X-41916666Y-2712295D02*
X-41916666Y-3283723D01*
X-41916666Y-3283723D02*
X-41954761Y-3398009D01*
X-41954761Y-3398009D02*
X-42030952Y-3474200D01*
X-42030952Y-3474200D02*
X-42145237Y-3512295D01*
X-42145237Y-3512295D02*
X-42221428Y-3512295D01*
X-41611904Y-2712295D02*
X-41116666Y-2712295D01*
X-41116666Y-2712295D02*
X-41383332Y-3017057D01*
X-41383332Y-3017057D02*
X-41269047Y-3017057D01*
X-41269047Y-3017057D02*
X-41192856Y-3055152D01*
X-41192856Y-3055152D02*
X-41154761Y-3093247D01*
X-41154761Y-3093247D02*
X-41116666Y-3169438D01*
X-41116666Y-3169438D02*
X-41116666Y-3359914D01*
X-41116666Y-3359914D02*
X-41154761Y-3436104D01*
X-41154761Y-3436104D02*
X-41192856Y-3474200D01*
X-41192856Y-3474200D02*
X-41269047Y-3512295D01*
X-41269047Y-3512295D02*
X-41497618Y-3512295D01*
X-41497618Y-3512295D02*
X-41573809Y-3474200D01*
X-41573809Y-3474200D02*
X-41611904Y-3436104D01*
X-16292857Y-26054819D02*
X-16626190Y-25578628D01*
X-16864285Y-26054819D02*
X-16864285Y-25054819D01*
X-16864285Y-25054819D02*
X-16483333Y-25054819D01*
X-16483333Y-25054819D02*
X-16388095Y-25102438D01*
X-16388095Y-25102438D02*
X-16340476Y-25150057D01*
X-16340476Y-25150057D02*
X-16292857Y-25245295D01*
X-16292857Y-25245295D02*
X-16292857Y-25388152D01*
X-16292857Y-25388152D02*
X-16340476Y-25483390D01*
X-16340476Y-25483390D02*
X-16388095Y-25531009D01*
X-16388095Y-25531009D02*
X-16483333Y-25578628D01*
X-16483333Y-25578628D02*
X-16864285Y-25578628D01*
X-15340476Y-26054819D02*
X-15911904Y-26054819D01*
X-15626190Y-26054819D02*
X-15626190Y-25054819D01*
X-15626190Y-25054819D02*
X-15721428Y-25197676D01*
X-15721428Y-25197676D02*
X-15816666Y-25292914D01*
X-15816666Y-25292914D02*
X-15911904Y-25340533D01*
X-14721428Y-25054819D02*
X-14626190Y-25054819D01*
X-14626190Y-25054819D02*
X-14530952Y-25102438D01*
X-14530952Y-25102438D02*
X-14483333Y-25150057D01*
X-14483333Y-25150057D02*
X-14435714Y-25245295D01*
X-14435714Y-25245295D02*
X-14388095Y-25435771D01*
X-14388095Y-25435771D02*
X-14388095Y-25673866D01*
X-14388095Y-25673866D02*
X-14435714Y-25864342D01*
X-14435714Y-25864342D02*
X-14483333Y-25959580D01*
X-14483333Y-25959580D02*
X-14530952Y-26007200D01*
X-14530952Y-26007200D02*
X-14626190Y-26054819D01*
X-14626190Y-26054819D02*
X-14721428Y-26054819D01*
X-14721428Y-26054819D02*
X-14816666Y-26007200D01*
X-14816666Y-26007200D02*
X-14864285Y-25959580D01*
X-14864285Y-25959580D02*
X-14911904Y-25864342D01*
X-14911904Y-25864342D02*
X-14959523Y-25673866D01*
X-14959523Y-25673866D02*
X-14959523Y-25435771D01*
X-14959523Y-25435771D02*
X-14911904Y-25245295D01*
X-14911904Y-25245295D02*
X-14864285Y-25150057D01*
X-14864285Y-25150057D02*
X-14816666Y-25102438D01*
X-14816666Y-25102438D02*
X-14721428Y-25054819D01*
X58352733Y10417180D02*
X57876543Y10417180D01*
X57876543Y10417180D02*
X57876543Y11417180D01*
X58638448Y11321942D02*
X58686067Y11369561D01*
X58686067Y11369561D02*
X58781305Y11417180D01*
X58781305Y11417180D02*
X59019400Y11417180D01*
X59019400Y11417180D02*
X59114638Y11369561D01*
X59114638Y11369561D02*
X59162257Y11321942D01*
X59162257Y11321942D02*
X59209876Y11226704D01*
X59209876Y11226704D02*
X59209876Y11131466D01*
X59209876Y11131466D02*
X59162257Y10988609D01*
X59162257Y10988609D02*
X58590829Y10417180D01*
X58590829Y10417180D02*
X59209876Y10417180D01*
X-32592857Y1940419D02*
X-32640476Y1892800D01*
X-32640476Y1892800D02*
X-32783333Y1845180D01*
X-32783333Y1845180D02*
X-32878571Y1845180D01*
X-32878571Y1845180D02*
X-33021428Y1892800D01*
X-33021428Y1892800D02*
X-33116666Y1988038D01*
X-33116666Y1988038D02*
X-33164285Y2083276D01*
X-33164285Y2083276D02*
X-33211904Y2273752D01*
X-33211904Y2273752D02*
X-33211904Y2416609D01*
X-33211904Y2416609D02*
X-33164285Y2607085D01*
X-33164285Y2607085D02*
X-33116666Y2702323D01*
X-33116666Y2702323D02*
X-33021428Y2797561D01*
X-33021428Y2797561D02*
X-32878571Y2845180D01*
X-32878571Y2845180D02*
X-32783333Y2845180D01*
X-32783333Y2845180D02*
X-32640476Y2797561D01*
X-32640476Y2797561D02*
X-32592857Y2749942D01*
X-32211904Y2749942D02*
X-32164285Y2797561D01*
X-32164285Y2797561D02*
X-32069047Y2845180D01*
X-32069047Y2845180D02*
X-31830952Y2845180D01*
X-31830952Y2845180D02*
X-31735714Y2797561D01*
X-31735714Y2797561D02*
X-31688095Y2749942D01*
X-31688095Y2749942D02*
X-31640476Y2654704D01*
X-31640476Y2654704D02*
X-31640476Y2559466D01*
X-31640476Y2559466D02*
X-31688095Y2416609D01*
X-31688095Y2416609D02*
X-32259523Y1845180D01*
X-32259523Y1845180D02*
X-31640476Y1845180D01*
X-30783333Y2845180D02*
X-30973809Y2845180D01*
X-30973809Y2845180D02*
X-31069047Y2797561D01*
X-31069047Y2797561D02*
X-31116666Y2749942D01*
X-31116666Y2749942D02*
X-31211904Y2607085D01*
X-31211904Y2607085D02*
X-31259523Y2416609D01*
X-31259523Y2416609D02*
X-31259523Y2035657D01*
X-31259523Y2035657D02*
X-31211904Y1940419D01*
X-31211904Y1940419D02*
X-31164285Y1892800D01*
X-31164285Y1892800D02*
X-31069047Y1845180D01*
X-31069047Y1845180D02*
X-30878571Y1845180D01*
X-30878571Y1845180D02*
X-30783333Y1892800D01*
X-30783333Y1892800D02*
X-30735714Y1940419D01*
X-30735714Y1940419D02*
X-30688095Y2035657D01*
X-30688095Y2035657D02*
X-30688095Y2273752D01*
X-30688095Y2273752D02*
X-30735714Y2368990D01*
X-30735714Y2368990D02*
X-30783333Y2416609D01*
X-30783333Y2416609D02*
X-30878571Y2464228D01*
X-30878571Y2464228D02*
X-31069047Y2464228D01*
X-31069047Y2464228D02*
X-31164285Y2416609D01*
X-31164285Y2416609D02*
X-31211904Y2368990D01*
X-31211904Y2368990D02*
X-31259523Y2273752D01*
X-21588094Y25945180D02*
X-21588094Y26945180D01*
X-21588094Y26945180D02*
X-21349999Y26945180D01*
X-21349999Y26945180D02*
X-21207142Y26897561D01*
X-21207142Y26897561D02*
X-21111904Y26802323D01*
X-21111904Y26802323D02*
X-21064285Y26707085D01*
X-21064285Y26707085D02*
X-21016666Y26516609D01*
X-21016666Y26516609D02*
X-21016666Y26373752D01*
X-21016666Y26373752D02*
X-21064285Y26183276D01*
X-21064285Y26183276D02*
X-21111904Y26088038D01*
X-21111904Y26088038D02*
X-21207142Y25992800D01*
X-21207142Y25992800D02*
X-21349999Y25945180D01*
X-21349999Y25945180D02*
X-21588094Y25945180D01*
X-20111904Y26945180D02*
X-20588094Y26945180D01*
X-20588094Y26945180D02*
X-20635713Y26468990D01*
X-20635713Y26468990D02*
X-20588094Y26516609D01*
X-20588094Y26516609D02*
X-20492856Y26564228D01*
X-20492856Y26564228D02*
X-20254761Y26564228D01*
X-20254761Y26564228D02*
X-20159523Y26516609D01*
X-20159523Y26516609D02*
X-20111904Y26468990D01*
X-20111904Y26468990D02*
X-20064285Y26373752D01*
X-20064285Y26373752D02*
X-20064285Y26135657D01*
X-20064285Y26135657D02*
X-20111904Y26040419D01*
X-20111904Y26040419D02*
X-20159523Y25992800D01*
X-20159523Y25992800D02*
X-20254761Y25945180D01*
X-20254761Y25945180D02*
X-20492856Y25945180D01*
X-20492856Y25945180D02*
X-20588094Y25992800D01*
X-20588094Y25992800D02*
X-20635713Y26040419D01*
X-25154856Y8940419D02*
X-25202475Y8892800D01*
X-25202475Y8892800D02*
X-25345332Y8845180D01*
X-25345332Y8845180D02*
X-25440570Y8845180D01*
X-25440570Y8845180D02*
X-25583427Y8892800D01*
X-25583427Y8892800D02*
X-25678665Y8988038D01*
X-25678665Y8988038D02*
X-25726284Y9083276D01*
X-25726284Y9083276D02*
X-25773903Y9273752D01*
X-25773903Y9273752D02*
X-25773903Y9416609D01*
X-25773903Y9416609D02*
X-25726284Y9607085D01*
X-25726284Y9607085D02*
X-25678665Y9702323D01*
X-25678665Y9702323D02*
X-25583427Y9797561D01*
X-25583427Y9797561D02*
X-25440570Y9845180D01*
X-25440570Y9845180D02*
X-25345332Y9845180D01*
X-25345332Y9845180D02*
X-25202475Y9797561D01*
X-25202475Y9797561D02*
X-25154856Y9749942D01*
X-24773903Y9749942D02*
X-24726284Y9797561D01*
X-24726284Y9797561D02*
X-24631046Y9845180D01*
X-24631046Y9845180D02*
X-24392951Y9845180D01*
X-24392951Y9845180D02*
X-24297713Y9797561D01*
X-24297713Y9797561D02*
X-24250094Y9749942D01*
X-24250094Y9749942D02*
X-24202475Y9654704D01*
X-24202475Y9654704D02*
X-24202475Y9559466D01*
X-24202475Y9559466D02*
X-24250094Y9416609D01*
X-24250094Y9416609D02*
X-24821522Y8845180D01*
X-24821522Y8845180D02*
X-24202475Y8845180D01*
X-23297713Y9845180D02*
X-23773903Y9845180D01*
X-23773903Y9845180D02*
X-23821522Y9368990D01*
X-23821522Y9368990D02*
X-23773903Y9416609D01*
X-23773903Y9416609D02*
X-23678665Y9464228D01*
X-23678665Y9464228D02*
X-23440570Y9464228D01*
X-23440570Y9464228D02*
X-23345332Y9416609D01*
X-23345332Y9416609D02*
X-23297713Y9368990D01*
X-23297713Y9368990D02*
X-23250094Y9273752D01*
X-23250094Y9273752D02*
X-23250094Y9035657D01*
X-23250094Y9035657D02*
X-23297713Y8940419D01*
X-23297713Y8940419D02*
X-23345332Y8892800D01*
X-23345332Y8892800D02*
X-23440570Y8845180D01*
X-23440570Y8845180D02*
X-23678665Y8845180D01*
X-23678665Y8845180D02*
X-23773903Y8892800D01*
X-23773903Y8892800D02*
X-23821522Y8940419D01*
X37007142Y17840419D02*
X36959523Y17792800D01*
X36959523Y17792800D02*
X36816666Y17745180D01*
X36816666Y17745180D02*
X36721428Y17745180D01*
X36721428Y17745180D02*
X36578571Y17792800D01*
X36578571Y17792800D02*
X36483333Y17888038D01*
X36483333Y17888038D02*
X36435714Y17983276D01*
X36435714Y17983276D02*
X36388095Y18173752D01*
X36388095Y18173752D02*
X36388095Y18316609D01*
X36388095Y18316609D02*
X36435714Y18507085D01*
X36435714Y18507085D02*
X36483333Y18602323D01*
X36483333Y18602323D02*
X36578571Y18697561D01*
X36578571Y18697561D02*
X36721428Y18745180D01*
X36721428Y18745180D02*
X36816666Y18745180D01*
X36816666Y18745180D02*
X36959523Y18697561D01*
X36959523Y18697561D02*
X37007142Y18649942D01*
X37959523Y17745180D02*
X37388095Y17745180D01*
X37673809Y17745180D02*
X37673809Y18745180D01*
X37673809Y18745180D02*
X37578571Y18602323D01*
X37578571Y18602323D02*
X37483333Y18507085D01*
X37483333Y18507085D02*
X37388095Y18459466D01*
X38340476Y18649942D02*
X38388095Y18697561D01*
X38388095Y18697561D02*
X38483333Y18745180D01*
X38483333Y18745180D02*
X38721428Y18745180D01*
X38721428Y18745180D02*
X38816666Y18697561D01*
X38816666Y18697561D02*
X38864285Y18649942D01*
X38864285Y18649942D02*
X38911904Y18554704D01*
X38911904Y18554704D02*
X38911904Y18459466D01*
X38911904Y18459466D02*
X38864285Y18316609D01*
X38864285Y18316609D02*
X38292857Y17745180D01*
X38292857Y17745180D02*
X38911904Y17745180D01*
D11*
X56526809Y24073138D02*
X57131571Y24073138D01*
X56405857Y23710281D02*
X56829190Y24980281D01*
X56829190Y24980281D02*
X57252524Y23710281D01*
X57675856Y23710281D02*
X57675856Y24980281D01*
X57675856Y24980281D02*
X58401571Y23710281D01*
X58401571Y23710281D02*
X58401571Y24980281D01*
X58824904Y24980281D02*
X59550618Y24980281D01*
X59187761Y23710281D02*
X59187761Y24980281D01*
X60639190Y23710281D02*
X59913475Y23710281D01*
X60276332Y23710281D02*
X60276332Y24980281D01*
X60276332Y24980281D02*
X60155380Y24798853D01*
X60155380Y24798853D02*
X60034428Y24677900D01*
X60034428Y24677900D02*
X59913475Y24617424D01*
D10*
X-954857Y16995180D02*
X-1288190Y17471371D01*
X-1526285Y16995180D02*
X-1526285Y17995180D01*
X-1526285Y17995180D02*
X-1145333Y17995180D01*
X-1145333Y17995180D02*
X-1050095Y17947561D01*
X-1050095Y17947561D02*
X-1002476Y17899942D01*
X-1002476Y17899942D02*
X-954857Y17804704D01*
X-954857Y17804704D02*
X-954857Y17661847D01*
X-954857Y17661847D02*
X-1002476Y17566609D01*
X-1002476Y17566609D02*
X-1050095Y17518990D01*
X-1050095Y17518990D02*
X-1145333Y17471371D01*
X-1145333Y17471371D02*
X-1526285Y17471371D01*
X-2476Y16995180D02*
X-573904Y16995180D01*
X-288190Y16995180D02*
X-288190Y17995180D01*
X-288190Y17995180D02*
X-383428Y17852323D01*
X-383428Y17852323D02*
X-478666Y17757085D01*
X-478666Y17757085D02*
X-573904Y17709466D01*
X854666Y17661847D02*
X854666Y16995180D01*
X616571Y18042800D02*
X378476Y17328514D01*
X378476Y17328514D02*
X997523Y17328514D01*
X-296666Y-14364819D02*
X-772856Y-14364819D01*
X-772856Y-14364819D02*
X-772856Y-13364819D01*
X512857Y-13364819D02*
X36667Y-13364819D01*
X36667Y-13364819D02*
X-10951Y-13841009D01*
X-10951Y-13841009D02*
X36667Y-13793390D01*
X36667Y-13793390D02*
X131905Y-13745771D01*
X131905Y-13745771D02*
X370000Y-13745771D01*
X370000Y-13745771D02*
X465238Y-13793390D01*
X465238Y-13793390D02*
X512857Y-13841009D01*
X512857Y-13841009D02*
X560476Y-13936247D01*
X560476Y-13936247D02*
X560476Y-14174342D01*
X560476Y-14174342D02*
X512857Y-14269580D01*
X512857Y-14269580D02*
X465238Y-14317200D01*
X465238Y-14317200D02*
X370000Y-14364819D01*
X370000Y-14364819D02*
X131905Y-14364819D01*
X131905Y-14364819D02*
X36667Y-14317200D01*
X36667Y-14317200D02*
X-10951Y-14269580D01*
X-3124819Y-25610000D02*
X-3362914Y-25610000D01*
X-3267676Y-25371905D02*
X-3362914Y-25610000D01*
X-3362914Y-25610000D02*
X-3267676Y-25848095D01*
X-3553390Y-25467143D02*
X-3362914Y-25610000D01*
X-3362914Y-25610000D02*
X-3553390Y-25752857D01*
X395180Y-15532701D02*
X157085Y-15532701D01*
X252323Y-15294606D02*
X157085Y-15532701D01*
X157085Y-15532701D02*
X252323Y-15770796D01*
X-33390Y-15389844D02*
X157085Y-15532701D01*
X157085Y-15532701D02*
X-33390Y-15675558D01*
X36896142Y20340419D02*
X36848523Y20292800D01*
X36848523Y20292800D02*
X36705666Y20245180D01*
X36705666Y20245180D02*
X36610428Y20245180D01*
X36610428Y20245180D02*
X36467571Y20292800D01*
X36467571Y20292800D02*
X36372333Y20388038D01*
X36372333Y20388038D02*
X36324714Y20483276D01*
X36324714Y20483276D02*
X36277095Y20673752D01*
X36277095Y20673752D02*
X36277095Y20816609D01*
X36277095Y20816609D02*
X36324714Y21007085D01*
X36324714Y21007085D02*
X36372333Y21102323D01*
X36372333Y21102323D02*
X36467571Y21197561D01*
X36467571Y21197561D02*
X36610428Y21245180D01*
X36610428Y21245180D02*
X36705666Y21245180D01*
X36705666Y21245180D02*
X36848523Y21197561D01*
X36848523Y21197561D02*
X36896142Y21149942D01*
X37848523Y20245180D02*
X37277095Y20245180D01*
X37562809Y20245180D02*
X37562809Y21245180D01*
X37562809Y21245180D02*
X37467571Y21102323D01*
X37467571Y21102323D02*
X37372333Y21007085D01*
X37372333Y21007085D02*
X37277095Y20959466D01*
X38181857Y21245180D02*
X38800904Y21245180D01*
X38800904Y21245180D02*
X38467571Y20864228D01*
X38467571Y20864228D02*
X38610428Y20864228D01*
X38610428Y20864228D02*
X38705666Y20816609D01*
X38705666Y20816609D02*
X38753285Y20768990D01*
X38753285Y20768990D02*
X38800904Y20673752D01*
X38800904Y20673752D02*
X38800904Y20435657D01*
X38800904Y20435657D02*
X38753285Y20340419D01*
X38753285Y20340419D02*
X38705666Y20292800D01*
X38705666Y20292800D02*
X38610428Y20245180D01*
X38610428Y20245180D02*
X38324714Y20245180D01*
X38324714Y20245180D02*
X38229476Y20292800D01*
X38229476Y20292800D02*
X38181857Y20340419D01*
X-32616666Y14545180D02*
X-32949999Y15021371D01*
X-33188094Y14545180D02*
X-33188094Y15545180D01*
X-33188094Y15545180D02*
X-32807142Y15545180D01*
X-32807142Y15545180D02*
X-32711904Y15497561D01*
X-32711904Y15497561D02*
X-32664285Y15449942D01*
X-32664285Y15449942D02*
X-32616666Y15354704D01*
X-32616666Y15354704D02*
X-32616666Y15211847D01*
X-32616666Y15211847D02*
X-32664285Y15116609D01*
X-32664285Y15116609D02*
X-32711904Y15068990D01*
X-32711904Y15068990D02*
X-32807142Y15021371D01*
X-32807142Y15021371D02*
X-33188094Y15021371D01*
X-32235713Y15449942D02*
X-32188094Y15497561D01*
X-32188094Y15497561D02*
X-32092856Y15545180D01*
X-32092856Y15545180D02*
X-31854761Y15545180D01*
X-31854761Y15545180D02*
X-31759523Y15497561D01*
X-31759523Y15497561D02*
X-31711904Y15449942D01*
X-31711904Y15449942D02*
X-31664285Y15354704D01*
X-31664285Y15354704D02*
X-31664285Y15259466D01*
X-31664285Y15259466D02*
X-31711904Y15116609D01*
X-31711904Y15116609D02*
X-32283332Y14545180D01*
X-32283332Y14545180D02*
X-31664285Y14545180D01*
X-32592857Y5440419D02*
X-32640476Y5392800D01*
X-32640476Y5392800D02*
X-32783333Y5345180D01*
X-32783333Y5345180D02*
X-32878571Y5345180D01*
X-32878571Y5345180D02*
X-33021428Y5392800D01*
X-33021428Y5392800D02*
X-33116666Y5488038D01*
X-33116666Y5488038D02*
X-33164285Y5583276D01*
X-33164285Y5583276D02*
X-33211904Y5773752D01*
X-33211904Y5773752D02*
X-33211904Y5916609D01*
X-33211904Y5916609D02*
X-33164285Y6107085D01*
X-33164285Y6107085D02*
X-33116666Y6202323D01*
X-33116666Y6202323D02*
X-33021428Y6297561D01*
X-33021428Y6297561D02*
X-32878571Y6345180D01*
X-32878571Y6345180D02*
X-32783333Y6345180D01*
X-32783333Y6345180D02*
X-32640476Y6297561D01*
X-32640476Y6297561D02*
X-32592857Y6249942D01*
X-32211904Y6249942D02*
X-32164285Y6297561D01*
X-32164285Y6297561D02*
X-32069047Y6345180D01*
X-32069047Y6345180D02*
X-31830952Y6345180D01*
X-31830952Y6345180D02*
X-31735714Y6297561D01*
X-31735714Y6297561D02*
X-31688095Y6249942D01*
X-31688095Y6249942D02*
X-31640476Y6154704D01*
X-31640476Y6154704D02*
X-31640476Y6059466D01*
X-31640476Y6059466D02*
X-31688095Y5916609D01*
X-31688095Y5916609D02*
X-32259523Y5345180D01*
X-32259523Y5345180D02*
X-31640476Y5345180D01*
X-31307142Y6345180D02*
X-30688095Y6345180D01*
X-30688095Y6345180D02*
X-31021428Y5964228D01*
X-31021428Y5964228D02*
X-30878571Y5964228D01*
X-30878571Y5964228D02*
X-30783333Y5916609D01*
X-30783333Y5916609D02*
X-30735714Y5868990D01*
X-30735714Y5868990D02*
X-30688095Y5773752D01*
X-30688095Y5773752D02*
X-30688095Y5535657D01*
X-30688095Y5535657D02*
X-30735714Y5440419D01*
X-30735714Y5440419D02*
X-30783333Y5392800D01*
X-30783333Y5392800D02*
X-30878571Y5345180D01*
X-30878571Y5345180D02*
X-31164285Y5345180D01*
X-31164285Y5345180D02*
X-31259523Y5392800D01*
X-31259523Y5392800D02*
X-31307142Y5440419D01*
X-345738Y24799942D02*
X-440976Y24847561D01*
X-440976Y24847561D02*
X-536214Y24942800D01*
X-536214Y24942800D02*
X-679071Y25085657D01*
X-679071Y25085657D02*
X-774309Y25133276D01*
X-774309Y25133276D02*
X-869547Y25133276D01*
X-821928Y24895180D02*
X-917166Y24942800D01*
X-917166Y24942800D02*
X-1012404Y25038038D01*
X-1012404Y25038038D02*
X-1060023Y25228514D01*
X-1060023Y25228514D02*
X-1060023Y25561847D01*
X-1060023Y25561847D02*
X-1012404Y25752323D01*
X-1012404Y25752323D02*
X-917166Y25847561D01*
X-917166Y25847561D02*
X-821928Y25895180D01*
X-821928Y25895180D02*
X-631452Y25895180D01*
X-631452Y25895180D02*
X-536214Y25847561D01*
X-536214Y25847561D02*
X-440976Y25752323D01*
X-440976Y25752323D02*
X-393357Y25561847D01*
X-393357Y25561847D02*
X-393357Y25228514D01*
X-393357Y25228514D02*
X-440976Y25038038D01*
X-440976Y25038038D02*
X-536214Y24942800D01*
X-536214Y24942800D02*
X-631452Y24895180D01*
X-631452Y24895180D02*
X-821928Y24895180D01*
X463785Y25561847D02*
X463785Y24895180D01*
X225690Y25942800D02*
X-12404Y25228514D01*
X-12404Y25228514D02*
X606642Y25228514D01*
X-18916666Y25945180D02*
X-19249999Y26421371D01*
X-19488094Y25945180D02*
X-19488094Y26945180D01*
X-19488094Y26945180D02*
X-19107142Y26945180D01*
X-19107142Y26945180D02*
X-19011904Y26897561D01*
X-19011904Y26897561D02*
X-18964285Y26849942D01*
X-18964285Y26849942D02*
X-18916666Y26754704D01*
X-18916666Y26754704D02*
X-18916666Y26611847D01*
X-18916666Y26611847D02*
X-18964285Y26516609D01*
X-18964285Y26516609D02*
X-19011904Y26468990D01*
X-19011904Y26468990D02*
X-19107142Y26421371D01*
X-19107142Y26421371D02*
X-19488094Y26421371D01*
X-18345237Y26516609D02*
X-18440475Y26564228D01*
X-18440475Y26564228D02*
X-18488094Y26611847D01*
X-18488094Y26611847D02*
X-18535713Y26707085D01*
X-18535713Y26707085D02*
X-18535713Y26754704D01*
X-18535713Y26754704D02*
X-18488094Y26849942D01*
X-18488094Y26849942D02*
X-18440475Y26897561D01*
X-18440475Y26897561D02*
X-18345237Y26945180D01*
X-18345237Y26945180D02*
X-18154761Y26945180D01*
X-18154761Y26945180D02*
X-18059523Y26897561D01*
X-18059523Y26897561D02*
X-18011904Y26849942D01*
X-18011904Y26849942D02*
X-17964285Y26754704D01*
X-17964285Y26754704D02*
X-17964285Y26707085D01*
X-17964285Y26707085D02*
X-18011904Y26611847D01*
X-18011904Y26611847D02*
X-18059523Y26564228D01*
X-18059523Y26564228D02*
X-18154761Y26516609D01*
X-18154761Y26516609D02*
X-18345237Y26516609D01*
X-18345237Y26516609D02*
X-18440475Y26468990D01*
X-18440475Y26468990D02*
X-18488094Y26421371D01*
X-18488094Y26421371D02*
X-18535713Y26326133D01*
X-18535713Y26326133D02*
X-18535713Y26135657D01*
X-18535713Y26135657D02*
X-18488094Y26040419D01*
X-18488094Y26040419D02*
X-18440475Y25992800D01*
X-18440475Y25992800D02*
X-18345237Y25945180D01*
X-18345237Y25945180D02*
X-18154761Y25945180D01*
X-18154761Y25945180D02*
X-18059523Y25992800D01*
X-18059523Y25992800D02*
X-18011904Y26040419D01*
X-18011904Y26040419D02*
X-17964285Y26135657D01*
X-17964285Y26135657D02*
X-17964285Y26326133D01*
X-17964285Y26326133D02*
X-18011904Y26421371D01*
X-18011904Y26421371D02*
X-18059523Y26468990D01*
X-18059523Y26468990D02*
X-18154761Y26516609D01*
X-32592857Y3790419D02*
X-32640476Y3742800D01*
X-32640476Y3742800D02*
X-32783333Y3695180D01*
X-32783333Y3695180D02*
X-32878571Y3695180D01*
X-32878571Y3695180D02*
X-33021428Y3742800D01*
X-33021428Y3742800D02*
X-33116666Y3838038D01*
X-33116666Y3838038D02*
X-33164285Y3933276D01*
X-33164285Y3933276D02*
X-33211904Y4123752D01*
X-33211904Y4123752D02*
X-33211904Y4266609D01*
X-33211904Y4266609D02*
X-33164285Y4457085D01*
X-33164285Y4457085D02*
X-33116666Y4552323D01*
X-33116666Y4552323D02*
X-33021428Y4647561D01*
X-33021428Y4647561D02*
X-32878571Y4695180D01*
X-32878571Y4695180D02*
X-32783333Y4695180D01*
X-32783333Y4695180D02*
X-32640476Y4647561D01*
X-32640476Y4647561D02*
X-32592857Y4599942D01*
X-32211904Y4599942D02*
X-32164285Y4647561D01*
X-32164285Y4647561D02*
X-32069047Y4695180D01*
X-32069047Y4695180D02*
X-31830952Y4695180D01*
X-31830952Y4695180D02*
X-31735714Y4647561D01*
X-31735714Y4647561D02*
X-31688095Y4599942D01*
X-31688095Y4599942D02*
X-31640476Y4504704D01*
X-31640476Y4504704D02*
X-31640476Y4409466D01*
X-31640476Y4409466D02*
X-31688095Y4266609D01*
X-31688095Y4266609D02*
X-32259523Y3695180D01*
X-32259523Y3695180D02*
X-31640476Y3695180D01*
X-30783333Y4361847D02*
X-30783333Y3695180D01*
X-31021428Y4742800D02*
X-31259523Y4028514D01*
X-31259523Y4028514D02*
X-30640476Y4028514D01*
X35983333Y25340420D02*
X35935714Y25292801D01*
X35935714Y25292801D02*
X35792857Y25245181D01*
X35792857Y25245181D02*
X35697619Y25245181D01*
X35697619Y25245181D02*
X35554762Y25292801D01*
X35554762Y25292801D02*
X35459524Y25388039D01*
X35459524Y25388039D02*
X35411905Y25483277D01*
X35411905Y25483277D02*
X35364286Y25673753D01*
X35364286Y25673753D02*
X35364286Y25816610D01*
X35364286Y25816610D02*
X35411905Y26007086D01*
X35411905Y26007086D02*
X35459524Y26102324D01*
X35459524Y26102324D02*
X35554762Y26197562D01*
X35554762Y26197562D02*
X35697619Y26245181D01*
X35697619Y26245181D02*
X35792857Y26245181D01*
X35792857Y26245181D02*
X35935714Y26197562D01*
X35935714Y26197562D02*
X35983333Y26149943D01*
X36983333Y25245181D02*
X36650000Y25721372D01*
X36411905Y25245181D02*
X36411905Y26245181D01*
X36411905Y26245181D02*
X36792857Y26245181D01*
X36792857Y26245181D02*
X36888095Y26197562D01*
X36888095Y26197562D02*
X36935714Y26149943D01*
X36935714Y26149943D02*
X36983333Y26054705D01*
X36983333Y26054705D02*
X36983333Y25911848D01*
X36983333Y25911848D02*
X36935714Y25816610D01*
X36935714Y25816610D02*
X36888095Y25768991D01*
X36888095Y25768991D02*
X36792857Y25721372D01*
X36792857Y25721372D02*
X36411905Y25721372D01*
X37935714Y25245181D02*
X37364286Y25245181D01*
X37650000Y25245181D02*
X37650000Y26245181D01*
X37650000Y26245181D02*
X37554762Y26102324D01*
X37554762Y26102324D02*
X37459524Y26007086D01*
X37459524Y26007086D02*
X37364286Y25959467D01*
X31000000Y26445180D02*
X31000000Y26207085D01*
X30761905Y26302323D02*
X31000000Y26207085D01*
X31000000Y26207085D02*
X31238095Y26302323D01*
X30857143Y26016609D02*
X31000000Y26207085D01*
X31000000Y26207085D02*
X31142857Y26016609D01*
X31000000Y25645180D02*
X31000000Y25407085D01*
X30761905Y25502323D02*
X31000000Y25407085D01*
X31000000Y25407085D02*
X31238095Y25502323D01*
X30857143Y25216609D02*
X31000000Y25407085D01*
X31000000Y25407085D02*
X31142857Y25216609D01*
X-24716666Y4048180D02*
X-25192856Y4048180D01*
X-25192856Y4048180D02*
X-25192856Y5048180D01*
X-23954761Y5048180D02*
X-24145237Y5048180D01*
X-24145237Y5048180D02*
X-24240475Y5000561D01*
X-24240475Y5000561D02*
X-24288094Y4952942D01*
X-24288094Y4952942D02*
X-24383332Y4810085D01*
X-24383332Y4810085D02*
X-24430951Y4619609D01*
X-24430951Y4619609D02*
X-24430951Y4238657D01*
X-24430951Y4238657D02*
X-24383332Y4143419D01*
X-24383332Y4143419D02*
X-24335713Y4095800D01*
X-24335713Y4095800D02*
X-24240475Y4048180D01*
X-24240475Y4048180D02*
X-24049999Y4048180D01*
X-24049999Y4048180D02*
X-23954761Y4095800D01*
X-23954761Y4095800D02*
X-23907142Y4143419D01*
X-23907142Y4143419D02*
X-23859523Y4238657D01*
X-23859523Y4238657D02*
X-23859523Y4476752D01*
X-23859523Y4476752D02*
X-23907142Y4571990D01*
X-23907142Y4571990D02*
X-23954761Y4619609D01*
X-23954761Y4619609D02*
X-24049999Y4667228D01*
X-24049999Y4667228D02*
X-24240475Y4667228D01*
X-24240475Y4667228D02*
X-24335713Y4619609D01*
X-24335713Y4619609D02*
X-24383332Y4571990D01*
X-24383332Y4571990D02*
X-24430951Y4476752D01*
X-19818095Y-25979818D02*
X-19818095Y-24979818D01*
X-19818095Y-24979818D02*
X-19580000Y-24979818D01*
X-19580000Y-24979818D02*
X-19437143Y-25027437D01*
X-19437143Y-25027437D02*
X-19341905Y-25122675D01*
X-19341905Y-25122675D02*
X-19294286Y-25217913D01*
X-19294286Y-25217913D02*
X-19246667Y-25408389D01*
X-19246667Y-25408389D02*
X-19246667Y-25551246D01*
X-19246667Y-25551246D02*
X-19294286Y-25741722D01*
X-19294286Y-25741722D02*
X-19341905Y-25836960D01*
X-19341905Y-25836960D02*
X-19437143Y-25932199D01*
X-19437143Y-25932199D02*
X-19580000Y-25979818D01*
X-19580000Y-25979818D02*
X-19818095Y-25979818D01*
X-18294286Y-25979818D02*
X-18865714Y-25979818D01*
X-18580000Y-25979818D02*
X-18580000Y-24979818D01*
X-18580000Y-24979818D02*
X-18675238Y-25122675D01*
X-18675238Y-25122675D02*
X-18770476Y-25217913D01*
X-18770476Y-25217913D02*
X-18865714Y-25265532D01*
X-30525238Y-16633807D02*
X-30620476Y-16586188D01*
X-30620476Y-16586188D02*
X-30715714Y-16490950D01*
X-30715714Y-16490950D02*
X-30858571Y-16348092D01*
X-30858571Y-16348092D02*
X-30953809Y-16300473D01*
X-30953809Y-16300473D02*
X-31049047Y-16300473D01*
X-31001428Y-16538569D02*
X-31096666Y-16490950D01*
X-31096666Y-16490950D02*
X-31191904Y-16395711D01*
X-31191904Y-16395711D02*
X-31239523Y-16205235D01*
X-31239523Y-16205235D02*
X-31239523Y-15871902D01*
X-31239523Y-15871902D02*
X-31191904Y-15681426D01*
X-31191904Y-15681426D02*
X-31096666Y-15586188D01*
X-31096666Y-15586188D02*
X-31001428Y-15538569D01*
X-31001428Y-15538569D02*
X-30810952Y-15538569D01*
X-30810952Y-15538569D02*
X-30715714Y-15586188D01*
X-30715714Y-15586188D02*
X-30620476Y-15681426D01*
X-30620476Y-15681426D02*
X-30572857Y-15871902D01*
X-30572857Y-15871902D02*
X-30572857Y-16205235D01*
X-30572857Y-16205235D02*
X-30620476Y-16395711D01*
X-30620476Y-16395711D02*
X-30715714Y-16490950D01*
X-30715714Y-16490950D02*
X-30810952Y-16538569D01*
X-30810952Y-16538569D02*
X-31001428Y-16538569D01*
X-29715714Y-15538569D02*
X-29906190Y-15538569D01*
X-29906190Y-15538569D02*
X-30001428Y-15586188D01*
X-30001428Y-15586188D02*
X-30049047Y-15633807D01*
X-30049047Y-15633807D02*
X-30144285Y-15776664D01*
X-30144285Y-15776664D02*
X-30191904Y-15967140D01*
X-30191904Y-15967140D02*
X-30191904Y-16348092D01*
X-30191904Y-16348092D02*
X-30144285Y-16443330D01*
X-30144285Y-16443330D02*
X-30096666Y-16490950D01*
X-30096666Y-16490950D02*
X-30001428Y-16538569D01*
X-30001428Y-16538569D02*
X-29810952Y-16538569D01*
X-29810952Y-16538569D02*
X-29715714Y-16490950D01*
X-29715714Y-16490950D02*
X-29668095Y-16443330D01*
X-29668095Y-16443330D02*
X-29620476Y-16348092D01*
X-29620476Y-16348092D02*
X-29620476Y-16109997D01*
X-29620476Y-16109997D02*
X-29668095Y-16014759D01*
X-29668095Y-16014759D02*
X-29715714Y-15967140D01*
X-29715714Y-15967140D02*
X-29810952Y-15919521D01*
X-29810952Y-15919521D02*
X-30001428Y-15919521D01*
X-30001428Y-15919521D02*
X-30096666Y-15967140D01*
X-30096666Y-15967140D02*
X-30144285Y-16014759D01*
X-30144285Y-16014759D02*
X-30191904Y-16109997D01*
X-32592857Y-5259580D02*
X-32640476Y-5307200D01*
X-32640476Y-5307200D02*
X-32783333Y-5354819D01*
X-32783333Y-5354819D02*
X-32878571Y-5354819D01*
X-32878571Y-5354819D02*
X-33021428Y-5307200D01*
X-33021428Y-5307200D02*
X-33116666Y-5211961D01*
X-33116666Y-5211961D02*
X-33164285Y-5116723D01*
X-33164285Y-5116723D02*
X-33211904Y-4926247D01*
X-33211904Y-4926247D02*
X-33211904Y-4783390D01*
X-33211904Y-4783390D02*
X-33164285Y-4592914D01*
X-33164285Y-4592914D02*
X-33116666Y-4497676D01*
X-33116666Y-4497676D02*
X-33021428Y-4402438D01*
X-33021428Y-4402438D02*
X-32878571Y-4354819D01*
X-32878571Y-4354819D02*
X-32783333Y-4354819D01*
X-32783333Y-4354819D02*
X-32640476Y-4402438D01*
X-32640476Y-4402438D02*
X-32592857Y-4450057D01*
X-32259523Y-4354819D02*
X-31640476Y-4354819D01*
X-31640476Y-4354819D02*
X-31973809Y-4735771D01*
X-31973809Y-4735771D02*
X-31830952Y-4735771D01*
X-31830952Y-4735771D02*
X-31735714Y-4783390D01*
X-31735714Y-4783390D02*
X-31688095Y-4831009D01*
X-31688095Y-4831009D02*
X-31640476Y-4926247D01*
X-31640476Y-4926247D02*
X-31640476Y-5164342D01*
X-31640476Y-5164342D02*
X-31688095Y-5259580D01*
X-31688095Y-5259580D02*
X-31735714Y-5307200D01*
X-31735714Y-5307200D02*
X-31830952Y-5354819D01*
X-31830952Y-5354819D02*
X-32116666Y-5354819D01*
X-32116666Y-5354819D02*
X-32211904Y-5307200D01*
X-32211904Y-5307200D02*
X-32259523Y-5259580D01*
X-31021428Y-4354819D02*
X-30926190Y-4354819D01*
X-30926190Y-4354819D02*
X-30830952Y-4402438D01*
X-30830952Y-4402438D02*
X-30783333Y-4450057D01*
X-30783333Y-4450057D02*
X-30735714Y-4545295D01*
X-30735714Y-4545295D02*
X-30688095Y-4735771D01*
X-30688095Y-4735771D02*
X-30688095Y-4973866D01*
X-30688095Y-4973866D02*
X-30735714Y-5164342D01*
X-30735714Y-5164342D02*
X-30783333Y-5259580D01*
X-30783333Y-5259580D02*
X-30830952Y-5307200D01*
X-30830952Y-5307200D02*
X-30926190Y-5354819D01*
X-30926190Y-5354819D02*
X-31021428Y-5354819D01*
X-31021428Y-5354819D02*
X-31116666Y-5307200D01*
X-31116666Y-5307200D02*
X-31164285Y-5259580D01*
X-31164285Y-5259580D02*
X-31211904Y-5164342D01*
X-31211904Y-5164342D02*
X-31259523Y-4973866D01*
X-31259523Y-4973866D02*
X-31259523Y-4735771D01*
X-31259523Y-4735771D02*
X-31211904Y-4545295D01*
X-31211904Y-4545295D02*
X-31164285Y-4450057D01*
X-31164285Y-4450057D02*
X-31116666Y-4402438D01*
X-31116666Y-4402438D02*
X-31021428Y-4354819D01*
X-32592857Y-1659580D02*
X-32640476Y-1707200D01*
X-32640476Y-1707200D02*
X-32783333Y-1754819D01*
X-32783333Y-1754819D02*
X-32878571Y-1754819D01*
X-32878571Y-1754819D02*
X-33021428Y-1707200D01*
X-33021428Y-1707200D02*
X-33116666Y-1611961D01*
X-33116666Y-1611961D02*
X-33164285Y-1516723D01*
X-33164285Y-1516723D02*
X-33211904Y-1326247D01*
X-33211904Y-1326247D02*
X-33211904Y-1183390D01*
X-33211904Y-1183390D02*
X-33164285Y-992914D01*
X-33164285Y-992914D02*
X-33116666Y-897676D01*
X-33116666Y-897676D02*
X-33021428Y-802438D01*
X-33021428Y-802438D02*
X-32878571Y-754819D01*
X-32878571Y-754819D02*
X-32783333Y-754819D01*
X-32783333Y-754819D02*
X-32640476Y-802438D01*
X-32640476Y-802438D02*
X-32592857Y-850057D01*
X-32211904Y-850057D02*
X-32164285Y-802438D01*
X-32164285Y-802438D02*
X-32069047Y-754819D01*
X-32069047Y-754819D02*
X-31830952Y-754819D01*
X-31830952Y-754819D02*
X-31735714Y-802438D01*
X-31735714Y-802438D02*
X-31688095Y-850057D01*
X-31688095Y-850057D02*
X-31640476Y-945295D01*
X-31640476Y-945295D02*
X-31640476Y-1040533D01*
X-31640476Y-1040533D02*
X-31688095Y-1183390D01*
X-31688095Y-1183390D02*
X-32259523Y-1754819D01*
X-32259523Y-1754819D02*
X-31640476Y-1754819D01*
X-31069047Y-1183390D02*
X-31164285Y-1135771D01*
X-31164285Y-1135771D02*
X-31211904Y-1088152D01*
X-31211904Y-1088152D02*
X-31259523Y-992914D01*
X-31259523Y-992914D02*
X-31259523Y-945295D01*
X-31259523Y-945295D02*
X-31211904Y-850057D01*
X-31211904Y-850057D02*
X-31164285Y-802438D01*
X-31164285Y-802438D02*
X-31069047Y-754819D01*
X-31069047Y-754819D02*
X-30878571Y-754819D01*
X-30878571Y-754819D02*
X-30783333Y-802438D01*
X-30783333Y-802438D02*
X-30735714Y-850057D01*
X-30735714Y-850057D02*
X-30688095Y-945295D01*
X-30688095Y-945295D02*
X-30688095Y-992914D01*
X-30688095Y-992914D02*
X-30735714Y-1088152D01*
X-30735714Y-1088152D02*
X-30783333Y-1135771D01*
X-30783333Y-1135771D02*
X-30878571Y-1183390D01*
X-30878571Y-1183390D02*
X-31069047Y-1183390D01*
X-31069047Y-1183390D02*
X-31164285Y-1231009D01*
X-31164285Y-1231009D02*
X-31211904Y-1278628D01*
X-31211904Y-1278628D02*
X-31259523Y-1373866D01*
X-31259523Y-1373866D02*
X-31259523Y-1564342D01*
X-31259523Y-1564342D02*
X-31211904Y-1659580D01*
X-31211904Y-1659580D02*
X-31164285Y-1707200D01*
X-31164285Y-1707200D02*
X-31069047Y-1754819D01*
X-31069047Y-1754819D02*
X-30878571Y-1754819D01*
X-30878571Y-1754819D02*
X-30783333Y-1707200D01*
X-30783333Y-1707200D02*
X-30735714Y-1659580D01*
X-30735714Y-1659580D02*
X-30688095Y-1564342D01*
X-30688095Y-1564342D02*
X-30688095Y-1373866D01*
X-30688095Y-1373866D02*
X-30735714Y-1278628D01*
X-30735714Y-1278628D02*
X-30783333Y-1231009D01*
X-30783333Y-1231009D02*
X-30878571Y-1183390D01*
X-20575238Y-16790057D02*
X-20670476Y-16742438D01*
X-20670476Y-16742438D02*
X-20765714Y-16647200D01*
X-20765714Y-16647200D02*
X-20908571Y-16504342D01*
X-20908571Y-16504342D02*
X-21003809Y-16456723D01*
X-21003809Y-16456723D02*
X-21099047Y-16456723D01*
X-21051428Y-16694819D02*
X-21146666Y-16647200D01*
X-21146666Y-16647200D02*
X-21241904Y-16551961D01*
X-21241904Y-16551961D02*
X-21289523Y-16361485D01*
X-21289523Y-16361485D02*
X-21289523Y-16028152D01*
X-21289523Y-16028152D02*
X-21241904Y-15837676D01*
X-21241904Y-15837676D02*
X-21146666Y-15742438D01*
X-21146666Y-15742438D02*
X-21051428Y-15694819D01*
X-21051428Y-15694819D02*
X-20860952Y-15694819D01*
X-20860952Y-15694819D02*
X-20765714Y-15742438D01*
X-20765714Y-15742438D02*
X-20670476Y-15837676D01*
X-20670476Y-15837676D02*
X-20622857Y-16028152D01*
X-20622857Y-16028152D02*
X-20622857Y-16361485D01*
X-20622857Y-16361485D02*
X-20670476Y-16551961D01*
X-20670476Y-16551961D02*
X-20765714Y-16647200D01*
X-20765714Y-16647200D02*
X-20860952Y-16694819D01*
X-20860952Y-16694819D02*
X-21051428Y-16694819D01*
X-19670476Y-16694819D02*
X-20241904Y-16694819D01*
X-19956190Y-16694819D02*
X-19956190Y-15694819D01*
X-19956190Y-15694819D02*
X-20051428Y-15837676D01*
X-20051428Y-15837676D02*
X-20146666Y-15932914D01*
X-20146666Y-15932914D02*
X-20241904Y-15980533D01*
X-26028038Y12949942D02*
X-26123276Y12997561D01*
X-26123276Y12997561D02*
X-26218514Y13092800D01*
X-26218514Y13092800D02*
X-26361371Y13235657D01*
X-26361371Y13235657D02*
X-26456609Y13283276D01*
X-26456609Y13283276D02*
X-26551847Y13283276D01*
X-26504228Y13045180D02*
X-26599466Y13092800D01*
X-26599466Y13092800D02*
X-26694704Y13188038D01*
X-26694704Y13188038D02*
X-26742323Y13378514D01*
X-26742323Y13378514D02*
X-26742323Y13711847D01*
X-26742323Y13711847D02*
X-26694704Y13902323D01*
X-26694704Y13902323D02*
X-26599466Y13997561D01*
X-26599466Y13997561D02*
X-26504228Y14045180D01*
X-26504228Y14045180D02*
X-26313752Y14045180D01*
X-26313752Y14045180D02*
X-26218514Y13997561D01*
X-26218514Y13997561D02*
X-26123276Y13902323D01*
X-26123276Y13902323D02*
X-26075657Y13711847D01*
X-26075657Y13711847D02*
X-26075657Y13378514D01*
X-26075657Y13378514D02*
X-26123276Y13188038D01*
X-26123276Y13188038D02*
X-26218514Y13092800D01*
X-26218514Y13092800D02*
X-26313752Y13045180D01*
X-26313752Y13045180D02*
X-26504228Y13045180D01*
X-25504228Y13616609D02*
X-25599466Y13664228D01*
X-25599466Y13664228D02*
X-25647085Y13711847D01*
X-25647085Y13711847D02*
X-25694704Y13807085D01*
X-25694704Y13807085D02*
X-25694704Y13854704D01*
X-25694704Y13854704D02*
X-25647085Y13949942D01*
X-25647085Y13949942D02*
X-25599466Y13997561D01*
X-25599466Y13997561D02*
X-25504228Y14045180D01*
X-25504228Y14045180D02*
X-25313752Y14045180D01*
X-25313752Y14045180D02*
X-25218514Y13997561D01*
X-25218514Y13997561D02*
X-25170895Y13949942D01*
X-25170895Y13949942D02*
X-25123276Y13854704D01*
X-25123276Y13854704D02*
X-25123276Y13807085D01*
X-25123276Y13807085D02*
X-25170895Y13711847D01*
X-25170895Y13711847D02*
X-25218514Y13664228D01*
X-25218514Y13664228D02*
X-25313752Y13616609D01*
X-25313752Y13616609D02*
X-25504228Y13616609D01*
X-25504228Y13616609D02*
X-25599466Y13568990D01*
X-25599466Y13568990D02*
X-25647085Y13521371D01*
X-25647085Y13521371D02*
X-25694704Y13426133D01*
X-25694704Y13426133D02*
X-25694704Y13235657D01*
X-25694704Y13235657D02*
X-25647085Y13140419D01*
X-25647085Y13140419D02*
X-25599466Y13092800D01*
X-25599466Y13092800D02*
X-25504228Y13045180D01*
X-25504228Y13045180D02*
X-25313752Y13045180D01*
X-25313752Y13045180D02*
X-25218514Y13092800D01*
X-25218514Y13092800D02*
X-25170895Y13140419D01*
X-25170895Y13140419D02*
X-25123276Y13235657D01*
X-25123276Y13235657D02*
X-25123276Y13426133D01*
X-25123276Y13426133D02*
X-25170895Y13521371D01*
X-25170895Y13521371D02*
X-25218514Y13568990D01*
X-25218514Y13568990D02*
X-25313752Y13616609D01*
X26007142Y20340419D02*
X25959523Y20292800D01*
X25959523Y20292800D02*
X25816666Y20245180D01*
X25816666Y20245180D02*
X25721428Y20245180D01*
X25721428Y20245180D02*
X25578571Y20292800D01*
X25578571Y20292800D02*
X25483333Y20388038D01*
X25483333Y20388038D02*
X25435714Y20483276D01*
X25435714Y20483276D02*
X25388095Y20673752D01*
X25388095Y20673752D02*
X25388095Y20816609D01*
X25388095Y20816609D02*
X25435714Y21007085D01*
X25435714Y21007085D02*
X25483333Y21102323D01*
X25483333Y21102323D02*
X25578571Y21197561D01*
X25578571Y21197561D02*
X25721428Y21245180D01*
X25721428Y21245180D02*
X25816666Y21245180D01*
X25816666Y21245180D02*
X25959523Y21197561D01*
X25959523Y21197561D02*
X26007142Y21149942D01*
X26959523Y20245180D02*
X26388095Y20245180D01*
X26673809Y20245180D02*
X26673809Y21245180D01*
X26673809Y21245180D02*
X26578571Y21102323D01*
X26578571Y21102323D02*
X26483333Y21007085D01*
X26483333Y21007085D02*
X26388095Y20959466D01*
X27864285Y21245180D02*
X27388095Y21245180D01*
X27388095Y21245180D02*
X27340476Y20768990D01*
X27340476Y20768990D02*
X27388095Y20816609D01*
X27388095Y20816609D02*
X27483333Y20864228D01*
X27483333Y20864228D02*
X27721428Y20864228D01*
X27721428Y20864228D02*
X27816666Y20816609D01*
X27816666Y20816609D02*
X27864285Y20768990D01*
X27864285Y20768990D02*
X27911904Y20673752D01*
X27911904Y20673752D02*
X27911904Y20435657D01*
X27911904Y20435657D02*
X27864285Y20340419D01*
X27864285Y20340419D02*
X27816666Y20292800D01*
X27816666Y20292800D02*
X27721428Y20245180D01*
X27721428Y20245180D02*
X27483333Y20245180D01*
X27483333Y20245180D02*
X27388095Y20292800D01*
X27388095Y20292800D02*
X27340476Y20340419D01*
X25857142Y17840419D02*
X25809523Y17792800D01*
X25809523Y17792800D02*
X25666666Y17745180D01*
X25666666Y17745180D02*
X25571428Y17745180D01*
X25571428Y17745180D02*
X25428571Y17792800D01*
X25428571Y17792800D02*
X25333333Y17888038D01*
X25333333Y17888038D02*
X25285714Y17983276D01*
X25285714Y17983276D02*
X25238095Y18173752D01*
X25238095Y18173752D02*
X25238095Y18316609D01*
X25238095Y18316609D02*
X25285714Y18507085D01*
X25285714Y18507085D02*
X25333333Y18602323D01*
X25333333Y18602323D02*
X25428571Y18697561D01*
X25428571Y18697561D02*
X25571428Y18745180D01*
X25571428Y18745180D02*
X25666666Y18745180D01*
X25666666Y18745180D02*
X25809523Y18697561D01*
X25809523Y18697561D02*
X25857142Y18649942D01*
X26809523Y17745180D02*
X26238095Y17745180D01*
X26523809Y17745180D02*
X26523809Y18745180D01*
X26523809Y18745180D02*
X26428571Y18602323D01*
X26428571Y18602323D02*
X26333333Y18507085D01*
X26333333Y18507085D02*
X26238095Y18459466D01*
X27142857Y18745180D02*
X27809523Y18745180D01*
X27809523Y18745180D02*
X27380952Y17745180D01*
X26007142Y22840419D02*
X25959523Y22792800D01*
X25959523Y22792800D02*
X25816666Y22745180D01*
X25816666Y22745180D02*
X25721428Y22745180D01*
X25721428Y22745180D02*
X25578571Y22792800D01*
X25578571Y22792800D02*
X25483333Y22888038D01*
X25483333Y22888038D02*
X25435714Y22983276D01*
X25435714Y22983276D02*
X25388095Y23173752D01*
X25388095Y23173752D02*
X25388095Y23316609D01*
X25388095Y23316609D02*
X25435714Y23507085D01*
X25435714Y23507085D02*
X25483333Y23602323D01*
X25483333Y23602323D02*
X25578571Y23697561D01*
X25578571Y23697561D02*
X25721428Y23745180D01*
X25721428Y23745180D02*
X25816666Y23745180D01*
X25816666Y23745180D02*
X25959523Y23697561D01*
X25959523Y23697561D02*
X26007142Y23649942D01*
X26959523Y22745180D02*
X26388095Y22745180D01*
X26673809Y22745180D02*
X26673809Y23745180D01*
X26673809Y23745180D02*
X26578571Y23602323D01*
X26578571Y23602323D02*
X26483333Y23507085D01*
X26483333Y23507085D02*
X26388095Y23459466D01*
X27816666Y23745180D02*
X27626190Y23745180D01*
X27626190Y23745180D02*
X27530952Y23697561D01*
X27530952Y23697561D02*
X27483333Y23649942D01*
X27483333Y23649942D02*
X27388095Y23507085D01*
X27388095Y23507085D02*
X27340476Y23316609D01*
X27340476Y23316609D02*
X27340476Y22935657D01*
X27340476Y22935657D02*
X27388095Y22840419D01*
X27388095Y22840419D02*
X27435714Y22792800D01*
X27435714Y22792800D02*
X27530952Y22745180D01*
X27530952Y22745180D02*
X27721428Y22745180D01*
X27721428Y22745180D02*
X27816666Y22792800D01*
X27816666Y22792800D02*
X27864285Y22840419D01*
X27864285Y22840419D02*
X27911904Y22935657D01*
X27911904Y22935657D02*
X27911904Y23173752D01*
X27911904Y23173752D02*
X27864285Y23268990D01*
X27864285Y23268990D02*
X27816666Y23316609D01*
X27816666Y23316609D02*
X27721428Y23364228D01*
X27721428Y23364228D02*
X27530952Y23364228D01*
X27530952Y23364228D02*
X27435714Y23316609D01*
X27435714Y23316609D02*
X27388095Y23268990D01*
X27388095Y23268990D02*
X27340476Y23173752D01*
D11*
X-3994162Y6425681D02*
X-3994162Y7695681D01*
X-2663685Y6546634D02*
X-2724161Y6486158D01*
X-2724161Y6486158D02*
X-2905590Y6425681D01*
X-2905590Y6425681D02*
X-3026542Y6425681D01*
X-3026542Y6425681D02*
X-3207971Y6486158D01*
X-3207971Y6486158D02*
X-3328923Y6607110D01*
X-3328923Y6607110D02*
X-3389400Y6728062D01*
X-3389400Y6728062D02*
X-3449876Y6969967D01*
X-3449876Y6969967D02*
X-3449876Y7151396D01*
X-3449876Y7151396D02*
X-3389400Y7393300D01*
X-3389400Y7393300D02*
X-3328923Y7514253D01*
X-3328923Y7514253D02*
X-3207971Y7635205D01*
X-3207971Y7635205D02*
X-3026542Y7695681D01*
X-3026542Y7695681D02*
X-2905590Y7695681D01*
X-2905590Y7695681D02*
X-2724161Y7635205D01*
X-2724161Y7635205D02*
X-2663685Y7574729D01*
X-1454161Y6425681D02*
X-2179876Y6425681D01*
X-1817019Y6425681D02*
X-1817019Y7695681D01*
X-1817019Y7695681D02*
X-1937971Y7514253D01*
X-1937971Y7514253D02*
X-2058923Y7393300D01*
X-2058923Y7393300D02*
X-2179876Y7332824D01*
D10*
X57343333Y-28279580D02*
X57295714Y-28327200D01*
X57295714Y-28327200D02*
X57152857Y-28374819D01*
X57152857Y-28374819D02*
X57057619Y-28374819D01*
X57057619Y-28374819D02*
X56914762Y-28327200D01*
X56914762Y-28327200D02*
X56819524Y-28231961D01*
X56819524Y-28231961D02*
X56771905Y-28136723D01*
X56771905Y-28136723D02*
X56724286Y-27946247D01*
X56724286Y-27946247D02*
X56724286Y-27803390D01*
X56724286Y-27803390D02*
X56771905Y-27612914D01*
X56771905Y-27612914D02*
X56819524Y-27517676D01*
X56819524Y-27517676D02*
X56914762Y-27422438D01*
X56914762Y-27422438D02*
X57057619Y-27374819D01*
X57057619Y-27374819D02*
X57152857Y-27374819D01*
X57152857Y-27374819D02*
X57295714Y-27422438D01*
X57295714Y-27422438D02*
X57343333Y-27470057D01*
X58248095Y-27374819D02*
X57771905Y-27374819D01*
X57771905Y-27374819D02*
X57724286Y-27851009D01*
X57724286Y-27851009D02*
X57771905Y-27803390D01*
X57771905Y-27803390D02*
X57867143Y-27755771D01*
X57867143Y-27755771D02*
X58105238Y-27755771D01*
X58105238Y-27755771D02*
X58200476Y-27803390D01*
X58200476Y-27803390D02*
X58248095Y-27851009D01*
X58248095Y-27851009D02*
X58295714Y-27946247D01*
X58295714Y-27946247D02*
X58295714Y-28184342D01*
X58295714Y-28184342D02*
X58248095Y-28279580D01*
X58248095Y-28279580D02*
X58200476Y-28327200D01*
X58200476Y-28327200D02*
X58105238Y-28374819D01*
X58105238Y-28374819D02*
X57867143Y-28374819D01*
X57867143Y-28374819D02*
X57771905Y-28327200D01*
X57771905Y-28327200D02*
X57724286Y-28279580D01*
X3883333Y20240419D02*
X3835714Y20192800D01*
X3835714Y20192800D02*
X3692857Y20145180D01*
X3692857Y20145180D02*
X3597619Y20145180D01*
X3597619Y20145180D02*
X3454762Y20192800D01*
X3454762Y20192800D02*
X3359524Y20288038D01*
X3359524Y20288038D02*
X3311905Y20383276D01*
X3311905Y20383276D02*
X3264286Y20573752D01*
X3264286Y20573752D02*
X3264286Y20716609D01*
X3264286Y20716609D02*
X3311905Y20907085D01*
X3311905Y20907085D02*
X3359524Y21002323D01*
X3359524Y21002323D02*
X3454762Y21097561D01*
X3454762Y21097561D02*
X3597619Y21145180D01*
X3597619Y21145180D02*
X3692857Y21145180D01*
X3692857Y21145180D02*
X3835714Y21097561D01*
X3835714Y21097561D02*
X3883333Y21049942D01*
X4216667Y21145180D02*
X4883333Y21145180D01*
X4883333Y21145180D02*
X4454762Y20145180D01*
X31061905Y16745176D02*
X31061905Y15935653D01*
X31061905Y15935653D02*
X31109524Y15840415D01*
X31109524Y15840415D02*
X31157143Y15792796D01*
X31157143Y15792796D02*
X31252381Y15745176D01*
X31252381Y15745176D02*
X31442857Y15745176D01*
X31442857Y15745176D02*
X31538095Y15792796D01*
X31538095Y15792796D02*
X31585714Y15840415D01*
X31585714Y15840415D02*
X31633333Y15935653D01*
X31633333Y15935653D02*
X31633333Y16745176D01*
X32633333Y15745176D02*
X32061905Y15745176D01*
X32347619Y15745176D02*
X32347619Y16745176D01*
X32347619Y16745176D02*
X32252381Y16602319D01*
X32252381Y16602319D02*
X32157143Y16507081D01*
X32157143Y16507081D02*
X32061905Y16459462D01*
X33585714Y15745176D02*
X33014286Y15745176D01*
X33300000Y15745176D02*
X33300000Y16745176D01*
X33300000Y16745176D02*
X33204762Y16602319D01*
X33204762Y16602319D02*
X33109524Y16507081D01*
X33109524Y16507081D02*
X33014286Y16459462D01*
X22400000Y11645179D02*
X22400000Y11407084D01*
X22161905Y11502322D02*
X22400000Y11407084D01*
X22400000Y11407084D02*
X22638095Y11502322D01*
X22257143Y11216608D02*
X22400000Y11407084D01*
X22400000Y11407084D02*
X22542857Y11216608D01*
X-5971066Y3745180D02*
X-6447256Y3745180D01*
X-6447256Y3745180D02*
X-6447256Y4745180D01*
X-5113923Y3745180D02*
X-5685351Y3745180D01*
X-5399637Y3745180D02*
X-5399637Y4745180D01*
X-5399637Y4745180D02*
X-5494875Y4602323D01*
X-5494875Y4602323D02*
X-5590113Y4507085D01*
X-5590113Y4507085D02*
X-5685351Y4459466D01*
D12*
%TO.C,U2*%
X42950000Y-6300000D02*
X42950000Y-24100000D01*
X42950000Y-24100000D02*
X63950000Y-24100000D01*
X63950000Y-24100000D02*
X63950000Y-6971541D01*
X63950000Y-6971541D02*
X63278500Y-6300000D01*
X63278500Y-6300000D02*
X42950000Y-6300000D01*
X65374000Y-10700000D02*
X65374000Y-19695000D01*
X65374000Y-19695000D02*
X58022000Y-19695000D01*
X58022000Y-19695000D02*
X58022000Y-10696000D01*
X58022000Y-10696000D02*
X65375000Y-10696000D01*
D13*
%TO.C,VDD1*%
X-27730000Y-12610000D02*
X-26330000Y-12610000D01*
X-27730000Y-14010000D02*
X-27730000Y-12610000D01*
X-26330000Y-12610000D02*
X-26330000Y-14010000D01*
X-26330000Y-14010000D02*
X-27730000Y-14010000D01*
%TO.C,TxD1*%
X30440000Y-9450000D02*
X31840000Y-9450000D01*
X30440000Y-10850000D02*
X30440000Y-9450000D01*
X31840000Y-9450000D02*
X31840000Y-10850000D01*
X31840000Y-10850000D02*
X30440000Y-10850000D01*
%TO.C,RxD1*%
X36070000Y-9380000D02*
X37470000Y-9380000D01*
X36070000Y-10780000D02*
X36070000Y-9380000D01*
X37470000Y-9380000D02*
X37470000Y-10780000D01*
X37470000Y-10780000D02*
X36070000Y-10780000D01*
%TO.C,RESET1*%
X17260000Y-5250000D02*
X18660000Y-5250000D01*
X17260000Y-6650000D02*
X17260000Y-5250000D01*
X18660000Y-5250000D02*
X18660000Y-6650000D01*
X18660000Y-6650000D02*
X17260000Y-6650000D01*
%TO.C,GSM_VCC1*%
X-3800000Y26310000D02*
X-2400000Y26310000D01*
X-3800000Y24910000D02*
X-3800000Y26310000D01*
X-2400000Y26310000D02*
X-2400000Y24910000D01*
X-2400000Y24910000D02*
X-3800000Y24910000D01*
%TO.C,BOOT1*%
X43720000Y-410000D02*
X45120000Y-410000D01*
X43720000Y-1810000D02*
X43720000Y-410000D01*
X45120000Y-410000D02*
X45120000Y-1810000D01*
X45120000Y-1810000D02*
X43720000Y-1810000D01*
D12*
%TO.C,R3*%
X30515000Y-6565000D02*
X33309000Y-6565000D01*
X33309000Y-6565000D02*
X33309000Y-7835000D01*
X33309000Y-7835000D02*
X30515000Y-7835000D01*
X30515000Y-7835000D02*
X30515000Y-6565000D01*
%TO.C,C20*%
X48209000Y10765000D02*
X45415000Y10765000D01*
X45415000Y10765000D02*
X45415000Y12035000D01*
X45415000Y12035000D02*
X48209000Y12035000D01*
X48209000Y12035000D02*
X48209000Y10765000D01*
%TO.C,R5*%
X38908999Y-7735000D02*
X36114999Y-7735000D01*
X36114999Y-7735000D02*
X36114999Y-6465000D01*
X36114999Y-6465000D02*
X38908999Y-6465000D01*
X38908999Y-6465000D02*
X38908999Y-7735000D01*
D13*
%TO.C,L4*%
X43145221Y11890000D02*
X43470779Y11890000D01*
X43145221Y10870000D02*
X43470779Y10870000D01*
%TO.C,D2*%
X14090000Y10700000D02*
X14090000Y9900000D01*
X14090000Y10700000D02*
X14090000Y11500000D01*
X17210000Y10700000D02*
X17210000Y9900000D01*
X17210000Y10700000D02*
X17210000Y11500000D01*
X14140000Y9400000D02*
X13810000Y9160000D01*
X13810000Y9640000D01*
X14140000Y9400000D01*
G36*
X14140000Y9400000D02*
G01*
X13810000Y9160000D01*
X13810000Y9640000D01*
X14140000Y9400000D01*
G37*
D12*
%TO.C,C11*%
X17835000Y-21403000D02*
X17835000Y-24197000D01*
X17835000Y-24197000D02*
X16565000Y-24197000D01*
X16565000Y-24197000D02*
X16565000Y-21403000D01*
X16565000Y-21403000D02*
X17835000Y-21403000D01*
%TO.C,C10*%
X16565000Y-19935001D02*
X16565000Y-17141001D01*
X16565000Y-17141001D02*
X17835000Y-17141001D01*
X17835000Y-17141001D02*
X17835000Y-19935001D01*
X17835000Y-19935001D02*
X16565000Y-19935001D01*
%TO.C,C9*%
X14785000Y-21403000D02*
X14785000Y-24197000D01*
X14785000Y-24197000D02*
X13515000Y-24197000D01*
X13515000Y-24197000D02*
X13515000Y-21403000D01*
X13515000Y-21403000D02*
X14785000Y-21403000D01*
%TO.C,C8*%
X13515000Y-19935001D02*
X13515000Y-17141001D01*
X13515000Y-17141001D02*
X14785000Y-17141001D01*
X14785000Y-17141001D02*
X14785000Y-19935001D01*
X14785000Y-19935001D02*
X13515000Y-19935001D01*
%TO.C,R7*%
X-20665000Y-21689998D02*
X-20665000Y-24483998D01*
X-20665000Y-24483998D02*
X-21935000Y-24483998D01*
X-21935000Y-24483998D02*
X-21935000Y-21689998D01*
X-21935000Y-21689998D02*
X-20665000Y-21689998D01*
D13*
%TO.C,Q7*%
X-18190000Y19337501D02*
X-18190000Y19987501D01*
X-18190000Y19337501D02*
X-18190000Y18687501D01*
X-21310000Y19337501D02*
X-21310000Y19987501D01*
X-21310000Y19337501D02*
X-21310000Y18687501D01*
X-17910000Y20260001D02*
X-18240000Y20500001D01*
X-17910000Y20740001D01*
X-17910000Y20260001D01*
G36*
X-17910000Y20260001D02*
G01*
X-18240000Y20500001D01*
X-17910000Y20740001D01*
X-17910000Y20260001D01*
G37*
D12*
%TO.C,R4*%
X-1509000Y9086600D02*
X1285000Y9086600D01*
X1285000Y9086600D02*
X1285000Y7816600D01*
X1285000Y7816600D02*
X-1509000Y7816600D01*
X-1509000Y7816600D02*
X-1509000Y9086600D01*
%TO.C,C29*%
X-36330000Y-2465000D02*
X-33536000Y-2465000D01*
X-33536000Y-2465000D02*
X-33536000Y-3735000D01*
X-33536000Y-3735000D02*
X-36330000Y-3735000D01*
X-36330000Y-3735000D02*
X-36330000Y-2465000D01*
D13*
%TO.C,D4*%
X-15650000Y22601999D02*
X-14450000Y22601999D01*
X-15650000Y24561999D02*
X-15650000Y22601999D01*
X-14450000Y24561999D02*
X-14450000Y22601999D01*
D14*
%TO.C,CR2*%
X7684100Y4234265D02*
X7684100Y3344400D01*
X9436700Y3344400D02*
X9436700Y4234265D01*
D12*
%TO.C,R15*%
X-33501999Y10665001D02*
X-36295999Y10665001D01*
X-36295999Y10665001D02*
X-36295999Y11935001D01*
X-36295999Y11935001D02*
X-33501999Y11935001D01*
X-33501999Y11935001D02*
X-33501999Y10665001D01*
D13*
%TO.C,Q5*%
X-15560000Y-18862500D02*
X-15560000Y-19512500D01*
X-15560000Y-18862500D02*
X-15560000Y-18212500D01*
X-12440000Y-18862500D02*
X-12440000Y-19512500D01*
X-12440000Y-18862500D02*
X-12440000Y-18212500D01*
X-15510000Y-20025000D02*
X-15840000Y-20265000D01*
X-15840000Y-19785000D01*
X-15510000Y-20025000D01*
G36*
X-15510000Y-20025000D02*
G01*
X-15840000Y-20265000D01*
X-15840000Y-19785000D01*
X-15510000Y-20025000D01*
G37*
D12*
%TO.C,C14*%
X35801000Y24089000D02*
X35801000Y22311000D01*
X35801000Y22311000D02*
X32499000Y22311000D01*
X32499000Y22311000D02*
X32499000Y24089000D01*
X32499000Y24089000D02*
X35801000Y24089000D01*
%TO.C,C22*%
X-36308999Y10035000D02*
X-33514999Y10035000D01*
X-33514999Y10035000D02*
X-33514999Y8765000D01*
X-33514999Y8765000D02*
X-36308999Y8765000D01*
X-36308999Y8765000D02*
X-36308999Y10035000D01*
D13*
%TO.C,Q2*%
X-12390000Y19299500D02*
X-12390000Y19949500D01*
X-12390000Y19299500D02*
X-12390000Y18649500D01*
X-15510000Y19299500D02*
X-15510000Y19949500D01*
X-15510000Y19299500D02*
X-15510000Y18649500D01*
X-12110000Y20222000D02*
X-12440000Y20462000D01*
X-12110000Y20702000D01*
X-12110000Y20222000D01*
G36*
X-12110000Y20222000D02*
G01*
X-12440000Y20462000D01*
X-12110000Y20702000D01*
X-12110000Y20222000D01*
G37*
%TO.C,L3*%
X51245779Y24074600D02*
X50920221Y24074600D01*
X51245779Y25094600D02*
X50920221Y25094600D01*
%TO.C,D9*%
X-25740000Y-1600000D02*
X-25740000Y400000D01*
X-25740000Y-1600000D02*
X-29750000Y-1600000D01*
X-25740000Y400000D02*
X-29750000Y400000D01*
%TO.C,D7*%
X-25740000Y-4100000D02*
X-25740000Y-2100000D01*
X-25740000Y-4100000D02*
X-29750000Y-4100000D01*
X-25740000Y-2100000D02*
X-29750000Y-2100000D01*
D12*
%TO.C,R12*%
X-33501999Y12565001D02*
X-36295999Y12565001D01*
X-36295999Y12565001D02*
X-36295999Y13835001D01*
X-36295999Y13835001D02*
X-33501999Y13835001D01*
X-33501999Y13835001D02*
X-33501999Y12565001D01*
%TO.C,C1*%
X2656600Y6251000D02*
X4434600Y6251000D01*
X4434600Y6251000D02*
X4434600Y2949000D01*
X4434600Y2949000D02*
X2656600Y2949000D01*
X2656600Y2949000D02*
X2656600Y6251000D01*
D13*
%TO.C,D3*%
X-12450000Y-21740000D02*
X-13650000Y-21740000D01*
X-12450000Y-23700000D02*
X-12450000Y-21740000D01*
X-13650000Y-23700000D02*
X-13650000Y-21740000D01*
%TO.C,Q3*%
X-47510000Y-18961999D02*
X-47510000Y-19611999D01*
X-47510000Y-18961999D02*
X-47510000Y-18311999D01*
X-44390000Y-18961999D02*
X-44390000Y-19611999D01*
X-44390000Y-18961999D02*
X-44390000Y-18311999D01*
X-47460000Y-20124499D02*
X-47790000Y-20364499D01*
X-47790000Y-19884499D01*
X-47460000Y-20124499D01*
G36*
X-47460000Y-20124499D02*
G01*
X-47790000Y-20364499D01*
X-47790000Y-19884499D01*
X-47460000Y-20124499D01*
G37*
D12*
%TO.C,R13*%
X-46215000Y-21364999D02*
X-46215000Y-24158999D01*
X-46215000Y-24158999D02*
X-47485000Y-24158999D01*
X-47485000Y-24158999D02*
X-47485000Y-21364999D01*
X-47485000Y-21364999D02*
X-46215000Y-21364999D01*
%TO.C,R6*%
X-13485000Y22564999D02*
X-13485000Y25358999D01*
X-13485000Y25358999D02*
X-12215000Y25358999D01*
X-12215000Y25358999D02*
X-12215000Y22564999D01*
X-12215000Y22564999D02*
X-13485000Y22564999D01*
%TO.C,C33*%
X-36321999Y8285000D02*
X-33527999Y8285000D01*
X-33527999Y8285000D02*
X-33527999Y7015000D01*
X-33527999Y7015000D02*
X-36321999Y7015000D01*
X-36321999Y7015000D02*
X-36321999Y8285000D01*
%TO.C,C2*%
X2072400Y3761800D02*
X2072400Y1983800D01*
X2072400Y1983800D02*
X-1229600Y1983800D01*
X-1229600Y1983800D02*
X-1229600Y3761800D01*
X-1229600Y3761800D02*
X2072400Y3761800D01*
%TO.C,R11*%
X-30715000Y-21871249D02*
X-30715000Y-24665249D01*
X-30715000Y-24665249D02*
X-31985000Y-24665249D01*
X-31985000Y-24665249D02*
X-31985000Y-21871249D01*
X-31985000Y-21871249D02*
X-30715000Y-21871249D01*
%TO.C,R1*%
X-33553000Y16365000D02*
X-36347000Y16365000D01*
X-36347000Y16365000D02*
X-36347000Y17635000D01*
X-36347000Y17635000D02*
X-33553000Y17635000D01*
X-33553000Y17635000D02*
X-33553000Y16365000D01*
%TO.C,C3*%
X2045400Y1275000D02*
X2045400Y-503000D01*
X2045400Y-503000D02*
X-1256600Y-503000D01*
X-1256600Y-503000D02*
X-1256600Y1275000D01*
X-1256600Y1275000D02*
X2045400Y1275000D01*
%TO.C,C21*%
X-36322999Y1135000D02*
X-33528999Y1135000D01*
X-33528999Y1135000D02*
X-33528999Y-135000D01*
X-33528999Y-135000D02*
X-36322999Y-135000D01*
X-36322999Y-135000D02*
X-36322999Y1135000D01*
D13*
%TO.C,D6*%
X-28750000Y-21846250D02*
X-29950000Y-21846250D01*
X-28750000Y-23806250D02*
X-28750000Y-21846250D01*
X-29950000Y-23806250D02*
X-29950000Y-21846250D01*
%TO.C,D8*%
X-25740000Y-6600000D02*
X-25740000Y-4600000D01*
X-25740000Y-6600000D02*
X-29750000Y-6600000D01*
X-25740000Y-4600000D02*
X-29750000Y-4600000D01*
D12*
%TO.C,C4*%
X5120400Y6251000D02*
X6898400Y6251000D01*
X6898400Y6251000D02*
X6898400Y2949000D01*
X6898400Y2949000D02*
X5120400Y2949000D01*
X5120400Y2949000D02*
X5120400Y6251000D01*
D15*
%TO.C,J3*%
X-39050000Y10800000D02*
G75*
G02*
X-39250000Y10800000I-100000J0D01*
G01*
X-39250000Y10800000D02*
G75*
G02*
X-39050000Y10800000I100000J0D01*
G01*
X-42050000Y12050000D02*
X-39650000Y12050000D01*
X-39650000Y12050000D02*
X-39650000Y11350000D01*
X-39650000Y-1250000D02*
X-39650000Y-1950000D01*
X-39650000Y-1950000D02*
X-42050000Y-1950000D01*
X-43450000Y11200000D02*
X-43450000Y-1100000D01*
D12*
%TO.C,R10*%
X-14415000Y-21703000D02*
X-14415000Y-24497000D01*
X-14415000Y-24497000D02*
X-15685000Y-24497000D01*
X-15685000Y-24497000D02*
X-15685000Y-21703000D01*
X-15685000Y-21703000D02*
X-14415000Y-21703000D01*
D13*
%TO.C,L2*%
X57011000Y11034779D02*
X57011000Y10709221D01*
X55991000Y11034779D02*
X55991000Y10709221D01*
D12*
%TO.C,C26*%
X-36333999Y2985000D02*
X-33539999Y2985000D01*
X-33539999Y2985000D02*
X-33539999Y1715000D01*
X-33539999Y1715000D02*
X-36333999Y1715000D01*
X-36333999Y1715000D02*
X-36333999Y2985000D01*
D13*
%TO.C,D5*%
X-21350000Y22640000D02*
X-20150000Y22640000D01*
X-21350000Y24600000D02*
X-21350000Y22640000D01*
X-20150000Y24600000D02*
X-20150000Y22640000D01*
D12*
%TO.C,C25*%
X-26514999Y8665000D02*
X-29308999Y8665000D01*
X-29308999Y8665000D02*
X-29308999Y9935000D01*
X-29308999Y9935000D02*
X-26514999Y9935000D01*
X-26514999Y9935000D02*
X-26514999Y8665000D01*
%TO.C,C12*%
X35801000Y19089000D02*
X35801000Y17311000D01*
X35801000Y17311000D02*
X32499000Y17311000D01*
X32499000Y17311000D02*
X32499000Y19089000D01*
X32499000Y19089000D02*
X35801000Y19089000D01*
D15*
%TO.C,ANT1*%
X62969400Y14822000D02*
X62969400Y20822000D01*
X54669400Y14822000D02*
X54669400Y20822000D01*
X61219400Y27672000D02*
X56509400Y27672000D01*
X62969400Y26022000D02*
X62969400Y22622000D01*
X54669400Y26022000D02*
X54669400Y22622000D01*
X54019400Y14022000D02*
X54019400Y14022000D01*
X54119400Y14022000D02*
X54119400Y14022000D01*
X54019400Y14022000D02*
X54019400Y14022000D01*
X54119400Y14022000D02*
G75*
G02*
X54019400Y14022000I-50000J0D01*
G01*
X54019400Y14022000D02*
G75*
G02*
X54119400Y14022000I50000J0D01*
G01*
X54119400Y14022000D02*
G75*
G02*
X54019400Y14022000I-50000J0D01*
G01*
D12*
%TO.C,R14*%
X-1709000Y19785000D02*
X1085000Y19785000D01*
X1085000Y19785000D02*
X1085000Y18515000D01*
X1085000Y18515000D02*
X-1709000Y18515000D01*
X-1709000Y18515000D02*
X-1709000Y19785000D01*
D14*
%TO.C,L5*%
X-3921900Y-19376371D02*
X-3921900Y-21823631D01*
X3621900Y-21823631D02*
X3621900Y-19376371D01*
D12*
%TO.C,C13*%
X35801000Y21589000D02*
X35801000Y19811000D01*
X35801000Y19811000D02*
X32499000Y19811000D01*
X32499000Y19811000D02*
X32499000Y21589000D01*
X32499000Y21589000D02*
X35801000Y21589000D01*
%TO.C,R2*%
X-33553000Y14465000D02*
X-36347000Y14465000D01*
X-36347000Y14465000D02*
X-36347000Y15735000D01*
X-36347000Y15735000D02*
X-33553000Y15735000D01*
X-33553000Y15735000D02*
X-33553000Y14465000D01*
%TO.C,C23*%
X-36321999Y6535000D02*
X-33527999Y6535000D01*
X-33527999Y6535000D02*
X-33527999Y5265000D01*
X-33527999Y5265000D02*
X-36321999Y5265000D01*
X-36321999Y5265000D02*
X-36321999Y6535000D01*
D13*
%TO.C,Q4*%
X-550000Y20940000D02*
X100000Y20940000D01*
X-550000Y20940000D02*
X-1200000Y20940000D01*
X-550000Y24060000D02*
X100000Y24060000D01*
X-550000Y24060000D02*
X-1200000Y24060000D01*
X852500Y20660000D02*
X372500Y20660000D01*
X612500Y20990000D01*
X852500Y20660000D01*
G36*
X852500Y20660000D02*
G01*
X372500Y20660000D01*
X612500Y20990000D01*
X852500Y20660000D01*
G37*
D12*
%TO.C,R8*%
X-19385000Y22564999D02*
X-19385000Y25358999D01*
X-19385000Y25358999D02*
X-18115000Y25358999D01*
X-18115000Y25358999D02*
X-18115000Y22564999D01*
X-18115000Y22564999D02*
X-19385000Y22564999D01*
%TO.C,C24*%
X-36333999Y4785000D02*
X-33539999Y4785000D01*
X-33539999Y4785000D02*
X-33539999Y3515000D01*
X-33539999Y3515000D02*
X-36333999Y3515000D01*
X-36333999Y3515000D02*
X-36333999Y4785000D01*
D14*
%TO.C,CR1*%
X33243635Y24823701D02*
X34133500Y24823701D01*
X34133500Y26576301D02*
X33243635Y26576301D01*
%TO.C,L6*%
X-27773800Y7258900D02*
G75*
G02*
X-27926200Y7258900I-76200J0D01*
G01*
X-27926200Y7258900D02*
G75*
G02*
X-27773800Y7258900I76200J0D01*
G01*
X-30072500Y6725500D02*
X-30072500Y2280500D01*
X-25627500Y2280500D02*
X-25627500Y6725500D01*
D13*
%TO.C,D1*%
X-18680000Y-21764999D02*
X-19880000Y-21764999D01*
X-18680000Y-23724999D02*
X-18680000Y-21764999D01*
X-19880000Y-23724999D02*
X-19880000Y-21764999D01*
%TO.C,Q6*%
X-31910000Y-19006250D02*
X-31910000Y-19656250D01*
X-31910000Y-19006250D02*
X-31910000Y-18356250D01*
X-28790000Y-19006250D02*
X-28790000Y-19656250D01*
X-28790000Y-19006250D02*
X-28790000Y-18356250D01*
X-31860000Y-20168750D02*
X-32190000Y-20408750D01*
X-32190000Y-19928750D01*
X-31860000Y-20168750D01*
G36*
X-31860000Y-20168750D02*
G01*
X-32190000Y-20408750D01*
X-32190000Y-19928750D01*
X-31860000Y-20168750D01*
G37*
D12*
%TO.C,C30*%
X-36322999Y-4165000D02*
X-33528999Y-4165000D01*
X-33528999Y-4165000D02*
X-33528999Y-5435000D01*
X-33528999Y-5435000D02*
X-36322999Y-5435000D01*
X-36322999Y-5435000D02*
X-36322999Y-4165000D01*
%TO.C,C28*%
X-36297999Y-665000D02*
X-33503999Y-665000D01*
X-33503999Y-665000D02*
X-33503999Y-1935000D01*
X-33503999Y-1935000D02*
X-36297999Y-1935000D01*
X-36297999Y-1935000D02*
X-36297999Y-665000D01*
D13*
%TO.C,Q1*%
X-21860000Y-18962500D02*
X-21860000Y-19612500D01*
X-21860000Y-18962500D02*
X-21860000Y-18312500D01*
X-18740000Y-18962500D02*
X-18740000Y-19612500D01*
X-18740000Y-18962500D02*
X-18740000Y-18312500D01*
X-21810000Y-20125000D02*
X-22140000Y-20365000D01*
X-22140000Y-19885000D01*
X-21810000Y-20125000D01*
G36*
X-21810000Y-20125000D02*
G01*
X-22140000Y-20365000D01*
X-22140000Y-19885000D01*
X-21810000Y-20125000D01*
G37*
D14*
%TO.C,Q8*%
X-30226600Y12850000D02*
G75*
G02*
X-30379000Y12850000I-76200J0D01*
G01*
X-30379000Y12850000D02*
G75*
G02*
X-30226600Y12850000I76200J0D01*
G01*
X-28791500Y10968100D02*
X-27191300Y10968100D01*
X-27191300Y10968100D02*
X-27191300Y11638660D01*
X-27191300Y13431900D02*
X-28791500Y13431900D01*
X-27191300Y12761340D02*
X-27191300Y13431900D01*
D12*
%TO.C,C15*%
X28499000Y19811000D02*
X28499000Y21589000D01*
X28499000Y21589000D02*
X31801000Y21589000D01*
X31801000Y21589000D02*
X31801000Y19811000D01*
X31801000Y19811000D02*
X28499000Y19811000D01*
%TO.C,C17*%
X28499000Y17311000D02*
X28499000Y19089000D01*
X28499000Y19089000D02*
X31801000Y19089000D01*
X31801000Y19089000D02*
X31801000Y17311000D01*
X31801000Y17311000D02*
X28499000Y17311000D01*
%TO.C,C16*%
X28499000Y22311000D02*
X28499000Y24089000D01*
X28499000Y24089000D02*
X31801000Y24089000D01*
X31801000Y24089000D02*
X31801000Y22311000D01*
X31801000Y22311000D02*
X28499000Y22311000D01*
D16*
%TO.C,IC1*%
X1584000Y4118400D02*
G75*
G02*
X1334000Y4118400I-125000J0D01*
G01*
X1334000Y4118400D02*
G75*
G02*
X1584000Y4118400I125000J0D01*
G01*
D12*
%TO.C,C5*%
X55699000Y-26989000D02*
X55699000Y-25211000D01*
X59001000Y-26989000D02*
X55699000Y-26989000D01*
X55699000Y-25211000D02*
X59001000Y-25211000D01*
X59001000Y-25211000D02*
X59001000Y-26989000D01*
%TO.C,C7*%
X8691000Y21689000D02*
X8691000Y19911000D01*
X5389000Y21689000D02*
X8691000Y21689000D01*
X8691000Y19911000D02*
X5389000Y19911000D01*
X5389000Y19911000D02*
X5389000Y21689000D01*
D17*
%TO.C,U12*%
X9366240Y24361291D02*
G75*
G02*
X9366241Y23733912I-216240J-313690D01*
G01*
D14*
X10595400Y25311560D02*
X10595400Y24689140D01*
X10595400Y18111561D02*
X10595401Y15773001D01*
X10595401Y15773001D02*
X12951159Y15773001D01*
X14708840Y15773001D02*
X16591160Y15773001D01*
X18348841Y15773001D02*
X20704599Y15773001D01*
X20704599Y28422201D02*
X10595401Y28422201D01*
X20704600Y24689140D02*
X20704600Y25311560D01*
X20704599Y15773001D02*
X20704600Y18111561D01*
%TO.C,U11*%
X40202600Y-4255102D02*
X40202600Y-2488342D01*
X40202599Y12088340D02*
X40202600Y13855098D01*
X40202600Y13855098D02*
X37188341Y13855098D01*
X37188341Y-4255102D02*
X40202600Y-4255102D01*
X27011659Y13855098D02*
X23997400Y13855098D01*
X23997400Y-4255102D02*
X27011659Y-4255102D01*
X23997401Y-2488344D02*
X23997400Y-4255102D01*
X23997400Y13855098D02*
X23997400Y12088338D01*
D12*
%TO.C,L1*%
X-3782000Y5780400D02*
X-1750000Y5780400D01*
X-3782000Y2478400D02*
X-3782000Y5780400D01*
X-1750000Y5780400D02*
X-1750000Y2478400D01*
X-1750000Y2478400D02*
X-3782000Y2478400D01*
X-3274000Y4002400D02*
G75*
G02*
X-2766000Y4002400I254000J0D01*
G01*
X-2766000Y4002400D02*
G75*
G02*
X-2258000Y4002400I254000J0D01*
G01*
%TD*%
M02*
