%TF.GenerationSoftware,KiCad,Pcbnew,8.0.5*%
%TF.CreationDate,2024-10-24T13:20:48+01:00*%
%TF.ProjectId,V3,56332e6b-6963-4616-945f-706362585858,rev?*%
%TF.SameCoordinates,Original*%
%TF.FileFunction,Legend,Top*%
%TF.FilePolarity,Positive*%
%FSLAX46Y46*%
G04 Gerber Fmt 4.6, Leading zero omitted, Abs format (unit mm)*
G04 Created by KiCad (PCBNEW 8.0.5) date 2024-10-24 13:20:48*
%MOMM*%
%LPD*%
G01*
G04 APERTURE LIST*
%ADD10C,0.500000*%
%ADD11C,0.150000*%
%ADD12C,0.254000*%
%ADD13C,0.127000*%
%ADD14C,0.120000*%
%ADD15C,0.250000*%
%ADD16C,0.152400*%
%ADD17C,0.200000*%
%ADD18C,0.508000*%
G04 APERTURE END LIST*
D10*
X37050000Y-9500000D02*
X37049999Y-14000000D01*
D11*
X-20000000Y14500000D02*
X-10000000Y14500000D01*
X-10000000Y-5400000D01*
X-20000000Y-5400000D01*
X-20000000Y14500000D01*
D10*
X-43450000Y-14000000D02*
X-43450000Y-9500000D01*
X-41050000Y-14000000D02*
X-43450000Y-14000000D01*
D11*
X11000000Y14500000D02*
X21000000Y14500000D01*
X21000000Y-5500000D01*
X11000000Y-5500000D01*
X11000000Y14500000D01*
D10*
X37050000Y-14000000D02*
X34650000Y-14000000D01*
X-43450000Y24000000D02*
X-43450000Y13600000D01*
X-43450000Y24000000D02*
X-41000000Y24000000D01*
D11*
X43428095Y-4389819D02*
X43428095Y-5199342D01*
X43428095Y-5199342D02*
X43475714Y-5294580D01*
X43475714Y-5294580D02*
X43523333Y-5342200D01*
X43523333Y-5342200D02*
X43618571Y-5389819D01*
X43618571Y-5389819D02*
X43809047Y-5389819D01*
X43809047Y-5389819D02*
X43904285Y-5342200D01*
X43904285Y-5342200D02*
X43951904Y-5294580D01*
X43951904Y-5294580D02*
X43999523Y-5199342D01*
X43999523Y-5199342D02*
X43999523Y-4389819D01*
X44428095Y-4485057D02*
X44475714Y-4437438D01*
X44475714Y-4437438D02*
X44570952Y-4389819D01*
X44570952Y-4389819D02*
X44809047Y-4389819D01*
X44809047Y-4389819D02*
X44904285Y-4437438D01*
X44904285Y-4437438D02*
X44951904Y-4485057D01*
X44951904Y-4485057D02*
X44999523Y-4580295D01*
X44999523Y-4580295D02*
X44999523Y-4675533D01*
X44999523Y-4675533D02*
X44951904Y-4818390D01*
X44951904Y-4818390D02*
X44380476Y-5389819D01*
X44380476Y-5389819D02*
X44999523Y-5389819D01*
X858733Y4370780D02*
X525400Y4846971D01*
X287305Y4370780D02*
X287305Y5370780D01*
X287305Y5370780D02*
X668257Y5370780D01*
X668257Y5370780D02*
X763495Y5323161D01*
X763495Y5323161D02*
X811114Y5275542D01*
X811114Y5275542D02*
X858733Y5180304D01*
X858733Y5180304D02*
X858733Y5037447D01*
X858733Y5037447D02*
X811114Y4942209D01*
X811114Y4942209D02*
X763495Y4894590D01*
X763495Y4894590D02*
X668257Y4846971D01*
X668257Y4846971D02*
X287305Y4846971D01*
X1715876Y5037447D02*
X1715876Y4370780D01*
X1477781Y5418400D02*
X1239686Y4704114D01*
X1239686Y4704114D02*
X1858733Y4704114D01*
X18057142Y-14759580D02*
X18009523Y-14807200D01*
X18009523Y-14807200D02*
X17866666Y-14854819D01*
X17866666Y-14854819D02*
X17771428Y-14854819D01*
X17771428Y-14854819D02*
X17628571Y-14807200D01*
X17628571Y-14807200D02*
X17533333Y-14711961D01*
X17533333Y-14711961D02*
X17485714Y-14616723D01*
X17485714Y-14616723D02*
X17438095Y-14426247D01*
X17438095Y-14426247D02*
X17438095Y-14283390D01*
X17438095Y-14283390D02*
X17485714Y-14092914D01*
X17485714Y-14092914D02*
X17533333Y-13997676D01*
X17533333Y-13997676D02*
X17628571Y-13902438D01*
X17628571Y-13902438D02*
X17771428Y-13854819D01*
X17771428Y-13854819D02*
X17866666Y-13854819D01*
X17866666Y-13854819D02*
X18009523Y-13902438D01*
X18009523Y-13902438D02*
X18057142Y-13950057D01*
X19009523Y-14854819D02*
X18438095Y-14854819D01*
X18723809Y-14854819D02*
X18723809Y-13854819D01*
X18723809Y-13854819D02*
X18628571Y-13997676D01*
X18628571Y-13997676D02*
X18533333Y-14092914D01*
X18533333Y-14092914D02*
X18438095Y-14140533D01*
X19628571Y-13854819D02*
X19723809Y-13854819D01*
X19723809Y-13854819D02*
X19819047Y-13902438D01*
X19819047Y-13902438D02*
X19866666Y-13950057D01*
X19866666Y-13950057D02*
X19914285Y-14045295D01*
X19914285Y-14045295D02*
X19961904Y-14235771D01*
X19961904Y-14235771D02*
X19961904Y-14473866D01*
X19961904Y-14473866D02*
X19914285Y-14664342D01*
X19914285Y-14664342D02*
X19866666Y-14759580D01*
X19866666Y-14759580D02*
X19819047Y-14807200D01*
X19819047Y-14807200D02*
X19723809Y-14854819D01*
X19723809Y-14854819D02*
X19628571Y-14854819D01*
X19628571Y-14854819D02*
X19533333Y-14807200D01*
X19533333Y-14807200D02*
X19485714Y-14759580D01*
X19485714Y-14759580D02*
X19438095Y-14664342D01*
X19438095Y-14664342D02*
X19390476Y-14473866D01*
X19390476Y-14473866D02*
X19390476Y-14235771D01*
X19390476Y-14235771D02*
X19438095Y-14045295D01*
X19438095Y-14045295D02*
X19485714Y-13950057D01*
X19485714Y-13950057D02*
X19533333Y-13902438D01*
X19533333Y-13902438D02*
X19628571Y-13854819D01*
X-32464285Y-3486104D02*
X-32502381Y-3524200D01*
X-32502381Y-3524200D02*
X-32616666Y-3562295D01*
X-32616666Y-3562295D02*
X-32692857Y-3562295D01*
X-32692857Y-3562295D02*
X-32807143Y-3524200D01*
X-32807143Y-3524200D02*
X-32883333Y-3448009D01*
X-32883333Y-3448009D02*
X-32921428Y-3371819D01*
X-32921428Y-3371819D02*
X-32959524Y-3219438D01*
X-32959524Y-3219438D02*
X-32959524Y-3105152D01*
X-32959524Y-3105152D02*
X-32921428Y-2952771D01*
X-32921428Y-2952771D02*
X-32883333Y-2876580D01*
X-32883333Y-2876580D02*
X-32807143Y-2800390D01*
X-32807143Y-2800390D02*
X-32692857Y-2762295D01*
X-32692857Y-2762295D02*
X-32616666Y-2762295D01*
X-32616666Y-2762295D02*
X-32502381Y-2800390D01*
X-32502381Y-2800390D02*
X-32464285Y-2838485D01*
X-32159524Y-2838485D02*
X-32121428Y-2800390D01*
X-32121428Y-2800390D02*
X-32045238Y-2762295D01*
X-32045238Y-2762295D02*
X-31854762Y-2762295D01*
X-31854762Y-2762295D02*
X-31778571Y-2800390D01*
X-31778571Y-2800390D02*
X-31740476Y-2838485D01*
X-31740476Y-2838485D02*
X-31702381Y-2914676D01*
X-31702381Y-2914676D02*
X-31702381Y-2990866D01*
X-31702381Y-2990866D02*
X-31740476Y-3105152D01*
X-31740476Y-3105152D02*
X-32197619Y-3562295D01*
X-32197619Y-3562295D02*
X-31702381Y-3562295D01*
X-31321428Y-3562295D02*
X-31169047Y-3562295D01*
X-31169047Y-3562295D02*
X-31092857Y-3524200D01*
X-31092857Y-3524200D02*
X-31054761Y-3486104D01*
X-31054761Y-3486104D02*
X-30978571Y-3371819D01*
X-30978571Y-3371819D02*
X-30940476Y-3219438D01*
X-30940476Y-3219438D02*
X-30940476Y-2914676D01*
X-30940476Y-2914676D02*
X-30978571Y-2838485D01*
X-30978571Y-2838485D02*
X-31016666Y-2800390D01*
X-31016666Y-2800390D02*
X-31092857Y-2762295D01*
X-31092857Y-2762295D02*
X-31245238Y-2762295D01*
X-31245238Y-2762295D02*
X-31321428Y-2800390D01*
X-31321428Y-2800390D02*
X-31359523Y-2838485D01*
X-31359523Y-2838485D02*
X-31397619Y-2914676D01*
X-31397619Y-2914676D02*
X-31397619Y-3105152D01*
X-31397619Y-3105152D02*
X-31359523Y-3181342D01*
X-31359523Y-3181342D02*
X-31321428Y-3219438D01*
X-31321428Y-3219438D02*
X-31245238Y-3257533D01*
X-31245238Y-3257533D02*
X-31092857Y-3257533D01*
X-31092857Y-3257533D02*
X-31016666Y-3219438D01*
X-31016666Y-3219438D02*
X-30978571Y-3181342D01*
X-30978571Y-3181342D02*
X-30940476Y-3105152D01*
X15483333Y-25985581D02*
X15435714Y-26033201D01*
X15435714Y-26033201D02*
X15292857Y-26080820D01*
X15292857Y-26080820D02*
X15197619Y-26080820D01*
X15197619Y-26080820D02*
X15054762Y-26033201D01*
X15054762Y-26033201D02*
X14959524Y-25937962D01*
X14959524Y-25937962D02*
X14911905Y-25842724D01*
X14911905Y-25842724D02*
X14864286Y-25652248D01*
X14864286Y-25652248D02*
X14864286Y-25509391D01*
X14864286Y-25509391D02*
X14911905Y-25318915D01*
X14911905Y-25318915D02*
X14959524Y-25223677D01*
X14959524Y-25223677D02*
X15054762Y-25128439D01*
X15054762Y-25128439D02*
X15197619Y-25080820D01*
X15197619Y-25080820D02*
X15292857Y-25080820D01*
X15292857Y-25080820D02*
X15435714Y-25128439D01*
X15435714Y-25128439D02*
X15483333Y-25176058D01*
X15959524Y-26080820D02*
X16150000Y-26080820D01*
X16150000Y-26080820D02*
X16245238Y-26033201D01*
X16245238Y-26033201D02*
X16292857Y-25985581D01*
X16292857Y-25985581D02*
X16388095Y-25842724D01*
X16388095Y-25842724D02*
X16435714Y-25652248D01*
X16435714Y-25652248D02*
X16435714Y-25271296D01*
X16435714Y-25271296D02*
X16388095Y-25176058D01*
X16388095Y-25176058D02*
X16340476Y-25128439D01*
X16340476Y-25128439D02*
X16245238Y-25080820D01*
X16245238Y-25080820D02*
X16054762Y-25080820D01*
X16054762Y-25080820D02*
X15959524Y-25128439D01*
X15959524Y-25128439D02*
X15911905Y-25176058D01*
X15911905Y-25176058D02*
X15864286Y-25271296D01*
X15864286Y-25271296D02*
X15864286Y-25509391D01*
X15864286Y-25509391D02*
X15911905Y-25604629D01*
X15911905Y-25604629D02*
X15959524Y-25652248D01*
X15959524Y-25652248D02*
X16054762Y-25699867D01*
X16054762Y-25699867D02*
X16245238Y-25699867D01*
X16245238Y-25699867D02*
X16340476Y-25652248D01*
X16340476Y-25652248D02*
X16388095Y-25604629D01*
X16388095Y-25604629D02*
X16435714Y-25509391D01*
X22321428Y-12954819D02*
X21988095Y-12478628D01*
X21750000Y-12954819D02*
X21750000Y-11954819D01*
X21750000Y-11954819D02*
X22130952Y-11954819D01*
X22130952Y-11954819D02*
X22226190Y-12002438D01*
X22226190Y-12002438D02*
X22273809Y-12050057D01*
X22273809Y-12050057D02*
X22321428Y-12145295D01*
X22321428Y-12145295D02*
X22321428Y-12288152D01*
X22321428Y-12288152D02*
X22273809Y-12383390D01*
X22273809Y-12383390D02*
X22226190Y-12431009D01*
X22226190Y-12431009D02*
X22130952Y-12478628D01*
X22130952Y-12478628D02*
X21750000Y-12478628D01*
X22750000Y-12431009D02*
X23083333Y-12431009D01*
X23226190Y-12954819D02*
X22750000Y-12954819D01*
X22750000Y-12954819D02*
X22750000Y-11954819D01*
X22750000Y-11954819D02*
X23226190Y-11954819D01*
X23607143Y-12907200D02*
X23750000Y-12954819D01*
X23750000Y-12954819D02*
X23988095Y-12954819D01*
X23988095Y-12954819D02*
X24083333Y-12907200D01*
X24083333Y-12907200D02*
X24130952Y-12859580D01*
X24130952Y-12859580D02*
X24178571Y-12764342D01*
X24178571Y-12764342D02*
X24178571Y-12669104D01*
X24178571Y-12669104D02*
X24130952Y-12573866D01*
X24130952Y-12573866D02*
X24083333Y-12526247D01*
X24083333Y-12526247D02*
X23988095Y-12478628D01*
X23988095Y-12478628D02*
X23797619Y-12431009D01*
X23797619Y-12431009D02*
X23702381Y-12383390D01*
X23702381Y-12383390D02*
X23654762Y-12335771D01*
X23654762Y-12335771D02*
X23607143Y-12240533D01*
X23607143Y-12240533D02*
X23607143Y-12145295D01*
X23607143Y-12145295D02*
X23654762Y-12050057D01*
X23654762Y-12050057D02*
X23702381Y-12002438D01*
X23702381Y-12002438D02*
X23797619Y-11954819D01*
X23797619Y-11954819D02*
X24035714Y-11954819D01*
X24035714Y-11954819D02*
X24178571Y-12002438D01*
X24607143Y-12431009D02*
X24940476Y-12431009D01*
X25083333Y-12954819D02*
X24607143Y-12954819D01*
X24607143Y-12954819D02*
X24607143Y-11954819D01*
X24607143Y-11954819D02*
X25083333Y-11954819D01*
X25369048Y-11954819D02*
X25940476Y-11954819D01*
X25654762Y-12954819D02*
X25654762Y-11954819D01*
X26797619Y-12954819D02*
X26226191Y-12954819D01*
X26511905Y-12954819D02*
X26511905Y-11954819D01*
X26511905Y-11954819D02*
X26416667Y-12097676D01*
X26416667Y-12097676D02*
X26321429Y-12192914D01*
X26321429Y-12192914D02*
X26226191Y-12240533D01*
D12*
X-5478162Y2151281D02*
X-5478162Y3421281D01*
X-4147685Y2272234D02*
X-4208161Y2211758D01*
X-4208161Y2211758D02*
X-4389590Y2151281D01*
X-4389590Y2151281D02*
X-4510542Y2151281D01*
X-4510542Y2151281D02*
X-4691971Y2211758D01*
X-4691971Y2211758D02*
X-4812923Y2332710D01*
X-4812923Y2332710D02*
X-4873400Y2453662D01*
X-4873400Y2453662D02*
X-4933876Y2695567D01*
X-4933876Y2695567D02*
X-4933876Y2876996D01*
X-4933876Y2876996D02*
X-4873400Y3118900D01*
X-4873400Y3118900D02*
X-4812923Y3239853D01*
X-4812923Y3239853D02*
X-4691971Y3360805D01*
X-4691971Y3360805D02*
X-4510542Y3421281D01*
X-4510542Y3421281D02*
X-4389590Y3421281D01*
X-4389590Y3421281D02*
X-4208161Y3360805D01*
X-4208161Y3360805D02*
X-4147685Y3300329D01*
X-2938161Y2151281D02*
X-3663876Y2151281D01*
X-3301019Y2151281D02*
X-3301019Y3421281D01*
X-3301019Y3421281D02*
X-3421971Y3239853D01*
X-3421971Y3239853D02*
X-3542923Y3118900D01*
X-3542923Y3118900D02*
X-3663876Y3058424D01*
D11*
X2111905Y-9754819D02*
X2111905Y-8754819D01*
X2111905Y-8754819D02*
X2350000Y-8754819D01*
X2350000Y-8754819D02*
X2492857Y-8802438D01*
X2492857Y-8802438D02*
X2588095Y-8897676D01*
X2588095Y-8897676D02*
X2635714Y-8992914D01*
X2635714Y-8992914D02*
X2683333Y-9183390D01*
X2683333Y-9183390D02*
X2683333Y-9326247D01*
X2683333Y-9326247D02*
X2635714Y-9516723D01*
X2635714Y-9516723D02*
X2588095Y-9611961D01*
X2588095Y-9611961D02*
X2492857Y-9707200D01*
X2492857Y-9707200D02*
X2350000Y-9754819D01*
X2350000Y-9754819D02*
X2111905Y-9754819D01*
X3540476Y-9088152D02*
X3540476Y-9754819D01*
X3302381Y-8707200D02*
X3064286Y-9421485D01*
X3064286Y-9421485D02*
X3683333Y-9421485D01*
X4411905Y-9804819D02*
X4411905Y-8804819D01*
X4411905Y-8804819D02*
X4650000Y-8804819D01*
X4650000Y-8804819D02*
X4792857Y-8852438D01*
X4792857Y-8852438D02*
X4888095Y-8947676D01*
X4888095Y-8947676D02*
X4935714Y-9042914D01*
X4935714Y-9042914D02*
X4983333Y-9233390D01*
X4983333Y-9233390D02*
X4983333Y-9376247D01*
X4983333Y-9376247D02*
X4935714Y-9566723D01*
X4935714Y-9566723D02*
X4888095Y-9661961D01*
X4888095Y-9661961D02*
X4792857Y-9757200D01*
X4792857Y-9757200D02*
X4650000Y-9804819D01*
X4650000Y-9804819D02*
X4411905Y-9804819D01*
X5888095Y-8804819D02*
X5411905Y-8804819D01*
X5411905Y-8804819D02*
X5364286Y-9281009D01*
X5364286Y-9281009D02*
X5411905Y-9233390D01*
X5411905Y-9233390D02*
X5507143Y-9185771D01*
X5507143Y-9185771D02*
X5745238Y-9185771D01*
X5745238Y-9185771D02*
X5840476Y-9233390D01*
X5840476Y-9233390D02*
X5888095Y-9281009D01*
X5888095Y-9281009D02*
X5935714Y-9376247D01*
X5935714Y-9376247D02*
X5935714Y-9614342D01*
X5935714Y-9614342D02*
X5888095Y-9709580D01*
X5888095Y-9709580D02*
X5840476Y-9757200D01*
X5840476Y-9757200D02*
X5745238Y-9804819D01*
X5745238Y-9804819D02*
X5507143Y-9804819D01*
X5507143Y-9804819D02*
X5411905Y-9757200D01*
X5411905Y-9757200D02*
X5364286Y-9709580D01*
X7039333Y-2733980D02*
X6991714Y-2781600D01*
X6991714Y-2781600D02*
X6848857Y-2829219D01*
X6848857Y-2829219D02*
X6753619Y-2829219D01*
X6753619Y-2829219D02*
X6610762Y-2781600D01*
X6610762Y-2781600D02*
X6515524Y-2686361D01*
X6515524Y-2686361D02*
X6467905Y-2591123D01*
X6467905Y-2591123D02*
X6420286Y-2400647D01*
X6420286Y-2400647D02*
X6420286Y-2257790D01*
X6420286Y-2257790D02*
X6467905Y-2067314D01*
X6467905Y-2067314D02*
X6515524Y-1972076D01*
X6515524Y-1972076D02*
X6610762Y-1876838D01*
X6610762Y-1876838D02*
X6753619Y-1829219D01*
X6753619Y-1829219D02*
X6848857Y-1829219D01*
X6848857Y-1829219D02*
X6991714Y-1876838D01*
X6991714Y-1876838D02*
X7039333Y-1924457D01*
X8039333Y-2829219D02*
X7706000Y-2353028D01*
X7467905Y-2829219D02*
X7467905Y-1829219D01*
X7467905Y-1829219D02*
X7848857Y-1829219D01*
X7848857Y-1829219D02*
X7944095Y-1876838D01*
X7944095Y-1876838D02*
X7991714Y-1924457D01*
X7991714Y-1924457D02*
X8039333Y-2019695D01*
X8039333Y-2019695D02*
X8039333Y-2162552D01*
X8039333Y-2162552D02*
X7991714Y-2257790D01*
X7991714Y-2257790D02*
X7944095Y-2305409D01*
X7944095Y-2305409D02*
X7848857Y-2353028D01*
X7848857Y-2353028D02*
X7467905Y-2353028D01*
X8420286Y-1924457D02*
X8467905Y-1876838D01*
X8467905Y-1876838D02*
X8563143Y-1829219D01*
X8563143Y-1829219D02*
X8801238Y-1829219D01*
X8801238Y-1829219D02*
X8896476Y-1876838D01*
X8896476Y-1876838D02*
X8944095Y-1924457D01*
X8944095Y-1924457D02*
X8991714Y-2019695D01*
X8991714Y-2019695D02*
X8991714Y-2114933D01*
X8991714Y-2114933D02*
X8944095Y-2257790D01*
X8944095Y-2257790D02*
X8372667Y-2829219D01*
X8372667Y-2829219D02*
X8991714Y-2829219D01*
X6531219Y2185300D02*
X6769314Y2185300D01*
X6674076Y1947205D02*
X6769314Y2185300D01*
X6769314Y2185300D02*
X6674076Y2423395D01*
X6959790Y2042443D02*
X6769314Y2185300D01*
X6769314Y2185300D02*
X6959790Y2328157D01*
X7621580Y2185299D02*
X7383485Y2185299D01*
X7478723Y2423394D02*
X7383485Y2185299D01*
X7383485Y2185299D02*
X7478723Y1947204D01*
X7193009Y2328156D02*
X7383485Y2185299D01*
X7383485Y2185299D02*
X7193009Y2042442D01*
X-32464285Y10837704D02*
X-32730952Y11218657D01*
X-32921428Y10837704D02*
X-32921428Y11637704D01*
X-32921428Y11637704D02*
X-32616666Y11637704D01*
X-32616666Y11637704D02*
X-32540476Y11599609D01*
X-32540476Y11599609D02*
X-32502381Y11561514D01*
X-32502381Y11561514D02*
X-32464285Y11485323D01*
X-32464285Y11485323D02*
X-32464285Y11371038D01*
X-32464285Y11371038D02*
X-32502381Y11294847D01*
X-32502381Y11294847D02*
X-32540476Y11256752D01*
X-32540476Y11256752D02*
X-32616666Y11218657D01*
X-32616666Y11218657D02*
X-32921428Y11218657D01*
X-31702381Y10837704D02*
X-32159524Y10837704D01*
X-31930952Y10837704D02*
X-31930952Y11637704D01*
X-31930952Y11637704D02*
X-32007143Y11523419D01*
X-32007143Y11523419D02*
X-32083333Y11447228D01*
X-32083333Y11447228D02*
X-32159524Y11409133D01*
X-30978571Y11637704D02*
X-31359523Y11637704D01*
X-31359523Y11637704D02*
X-31397619Y11256752D01*
X-31397619Y11256752D02*
X-31359523Y11294847D01*
X-31359523Y11294847D02*
X-31283333Y11332942D01*
X-31283333Y11332942D02*
X-31092857Y11332942D01*
X-31092857Y11332942D02*
X-31016666Y11294847D01*
X-31016666Y11294847D02*
X-30978571Y11256752D01*
X-30978571Y11256752D02*
X-30940476Y11180561D01*
X-30940476Y11180561D02*
X-30940476Y10990085D01*
X-30940476Y10990085D02*
X-30978571Y10913895D01*
X-30978571Y10913895D02*
X-31016666Y10875800D01*
X-31016666Y10875800D02*
X-31092857Y10837704D01*
X-31092857Y10837704D02*
X-31283333Y10837704D01*
X-31283333Y10837704D02*
X-31359523Y10875800D01*
X-31359523Y10875800D02*
X-31397619Y10913895D01*
X34707142Y26140419D02*
X34659523Y26092800D01*
X34659523Y26092800D02*
X34516666Y26045180D01*
X34516666Y26045180D02*
X34421428Y26045180D01*
X34421428Y26045180D02*
X34278571Y26092800D01*
X34278571Y26092800D02*
X34183333Y26188038D01*
X34183333Y26188038D02*
X34135714Y26283276D01*
X34135714Y26283276D02*
X34088095Y26473752D01*
X34088095Y26473752D02*
X34088095Y26616609D01*
X34088095Y26616609D02*
X34135714Y26807085D01*
X34135714Y26807085D02*
X34183333Y26902323D01*
X34183333Y26902323D02*
X34278571Y26997561D01*
X34278571Y26997561D02*
X34421428Y27045180D01*
X34421428Y27045180D02*
X34516666Y27045180D01*
X34516666Y27045180D02*
X34659523Y26997561D01*
X34659523Y26997561D02*
X34707142Y26949942D01*
X35659523Y26045180D02*
X35088095Y26045180D01*
X35373809Y26045180D02*
X35373809Y27045180D01*
X35373809Y27045180D02*
X35278571Y26902323D01*
X35278571Y26902323D02*
X35183333Y26807085D01*
X35183333Y26807085D02*
X35088095Y26759466D01*
X36516666Y26711847D02*
X36516666Y26045180D01*
X36278571Y27092800D02*
X36040476Y26378514D01*
X36040476Y26378514D02*
X36659523Y26378514D01*
X33778571Y-13004819D02*
X33445238Y-12528628D01*
X33207143Y-13004819D02*
X33207143Y-12004819D01*
X33207143Y-12004819D02*
X33588095Y-12004819D01*
X33588095Y-12004819D02*
X33683333Y-12052438D01*
X33683333Y-12052438D02*
X33730952Y-12100057D01*
X33730952Y-12100057D02*
X33778571Y-12195295D01*
X33778571Y-12195295D02*
X33778571Y-12338152D01*
X33778571Y-12338152D02*
X33730952Y-12433390D01*
X33730952Y-12433390D02*
X33683333Y-12481009D01*
X33683333Y-12481009D02*
X33588095Y-12528628D01*
X33588095Y-12528628D02*
X33207143Y-12528628D01*
X34111905Y-13004819D02*
X34635714Y-12338152D01*
X34111905Y-12338152D02*
X34635714Y-13004819D01*
X35016667Y-13004819D02*
X35016667Y-12004819D01*
X35016667Y-12004819D02*
X35254762Y-12004819D01*
X35254762Y-12004819D02*
X35397619Y-12052438D01*
X35397619Y-12052438D02*
X35492857Y-12147676D01*
X35492857Y-12147676D02*
X35540476Y-12242914D01*
X35540476Y-12242914D02*
X35588095Y-12433390D01*
X35588095Y-12433390D02*
X35588095Y-12576247D01*
X35588095Y-12576247D02*
X35540476Y-12766723D01*
X35540476Y-12766723D02*
X35492857Y-12861961D01*
X35492857Y-12861961D02*
X35397619Y-12957200D01*
X35397619Y-12957200D02*
X35254762Y-13004819D01*
X35254762Y-13004819D02*
X35016667Y-13004819D01*
X36540476Y-13004819D02*
X35969048Y-13004819D01*
X36254762Y-13004819D02*
X36254762Y-12004819D01*
X36254762Y-12004819D02*
X36159524Y-12147676D01*
X36159524Y-12147676D02*
X36064286Y-12242914D01*
X36064286Y-12242914D02*
X35969048Y-12290533D01*
X19645142Y23545180D02*
X19311809Y24021371D01*
X19073714Y23545180D02*
X19073714Y24545180D01*
X19073714Y24545180D02*
X19454666Y24545180D01*
X19454666Y24545180D02*
X19549904Y24497561D01*
X19549904Y24497561D02*
X19597523Y24449942D01*
X19597523Y24449942D02*
X19645142Y24354704D01*
X19645142Y24354704D02*
X19645142Y24211847D01*
X19645142Y24211847D02*
X19597523Y24116609D01*
X19597523Y24116609D02*
X19549904Y24068990D01*
X19549904Y24068990D02*
X19454666Y24021371D01*
X19454666Y24021371D02*
X19073714Y24021371D01*
X20597523Y23545180D02*
X20026095Y23545180D01*
X20311809Y23545180D02*
X20311809Y24545180D01*
X20311809Y24545180D02*
X20216571Y24402323D01*
X20216571Y24402323D02*
X20121333Y24307085D01*
X20121333Y24307085D02*
X20026095Y24259466D01*
X21454666Y24545180D02*
X21264190Y24545180D01*
X21264190Y24545180D02*
X21168952Y24497561D01*
X21168952Y24497561D02*
X21121333Y24449942D01*
X21121333Y24449942D02*
X21026095Y24307085D01*
X21026095Y24307085D02*
X20978476Y24116609D01*
X20978476Y24116609D02*
X20978476Y23735657D01*
X20978476Y23735657D02*
X21026095Y23640419D01*
X21026095Y23640419D02*
X21073714Y23592800D01*
X21073714Y23592800D02*
X21168952Y23545180D01*
X21168952Y23545180D02*
X21359428Y23545180D01*
X21359428Y23545180D02*
X21454666Y23592800D01*
X21454666Y23592800D02*
X21502285Y23640419D01*
X21502285Y23640419D02*
X21549904Y23735657D01*
X21549904Y23735657D02*
X21549904Y23973752D01*
X21549904Y23973752D02*
X21502285Y24068990D01*
X21502285Y24068990D02*
X21454666Y24116609D01*
X21454666Y24116609D02*
X21359428Y24164228D01*
X21359428Y24164228D02*
X21168952Y24164228D01*
X21168952Y24164228D02*
X21073714Y24116609D01*
X21073714Y24116609D02*
X21026095Y24068990D01*
X21026095Y24068990D02*
X20978476Y23973752D01*
X-32464285Y9013895D02*
X-32502381Y8975800D01*
X-32502381Y8975800D02*
X-32616666Y8937704D01*
X-32616666Y8937704D02*
X-32692857Y8937704D01*
X-32692857Y8937704D02*
X-32807143Y8975800D01*
X-32807143Y8975800D02*
X-32883333Y9051990D01*
X-32883333Y9051990D02*
X-32921428Y9128180D01*
X-32921428Y9128180D02*
X-32959524Y9280561D01*
X-32959524Y9280561D02*
X-32959524Y9394847D01*
X-32959524Y9394847D02*
X-32921428Y9547228D01*
X-32921428Y9547228D02*
X-32883333Y9623419D01*
X-32883333Y9623419D02*
X-32807143Y9699609D01*
X-32807143Y9699609D02*
X-32692857Y9737704D01*
X-32692857Y9737704D02*
X-32616666Y9737704D01*
X-32616666Y9737704D02*
X-32502381Y9699609D01*
X-32502381Y9699609D02*
X-32464285Y9661514D01*
X-32159524Y9661514D02*
X-32121428Y9699609D01*
X-32121428Y9699609D02*
X-32045238Y9737704D01*
X-32045238Y9737704D02*
X-31854762Y9737704D01*
X-31854762Y9737704D02*
X-31778571Y9699609D01*
X-31778571Y9699609D02*
X-31740476Y9661514D01*
X-31740476Y9661514D02*
X-31702381Y9585323D01*
X-31702381Y9585323D02*
X-31702381Y9509133D01*
X-31702381Y9509133D02*
X-31740476Y9394847D01*
X-31740476Y9394847D02*
X-32197619Y8937704D01*
X-32197619Y8937704D02*
X-31702381Y8937704D01*
X-31397619Y9661514D02*
X-31359523Y9699609D01*
X-31359523Y9699609D02*
X-31283333Y9737704D01*
X-31283333Y9737704D02*
X-31092857Y9737704D01*
X-31092857Y9737704D02*
X-31016666Y9699609D01*
X-31016666Y9699609D02*
X-30978571Y9661514D01*
X-30978571Y9661514D02*
X-30940476Y9585323D01*
X-30940476Y9585323D02*
X-30940476Y9509133D01*
X-30940476Y9509133D02*
X-30978571Y9394847D01*
X-30978571Y9394847D02*
X-31435714Y8937704D01*
X-31435714Y8937704D02*
X-30940476Y8937704D01*
X34707142Y18690419D02*
X34659523Y18642800D01*
X34659523Y18642800D02*
X34516666Y18595180D01*
X34516666Y18595180D02*
X34421428Y18595180D01*
X34421428Y18595180D02*
X34278571Y18642800D01*
X34278571Y18642800D02*
X34183333Y18738038D01*
X34183333Y18738038D02*
X34135714Y18833276D01*
X34135714Y18833276D02*
X34088095Y19023752D01*
X34088095Y19023752D02*
X34088095Y19166609D01*
X34088095Y19166609D02*
X34135714Y19357085D01*
X34135714Y19357085D02*
X34183333Y19452323D01*
X34183333Y19452323D02*
X34278571Y19547561D01*
X34278571Y19547561D02*
X34421428Y19595180D01*
X34421428Y19595180D02*
X34516666Y19595180D01*
X34516666Y19595180D02*
X34659523Y19547561D01*
X34659523Y19547561D02*
X34707142Y19499942D01*
X35659523Y18595180D02*
X35088095Y18595180D01*
X35373809Y18595180D02*
X35373809Y19595180D01*
X35373809Y19595180D02*
X35278571Y19452323D01*
X35278571Y19452323D02*
X35183333Y19357085D01*
X35183333Y19357085D02*
X35088095Y19309466D01*
X36564285Y19595180D02*
X36088095Y19595180D01*
X36088095Y19595180D02*
X36040476Y19118990D01*
X36040476Y19118990D02*
X36088095Y19166609D01*
X36088095Y19166609D02*
X36183333Y19214228D01*
X36183333Y19214228D02*
X36421428Y19214228D01*
X36421428Y19214228D02*
X36516666Y19166609D01*
X36516666Y19166609D02*
X36564285Y19118990D01*
X36564285Y19118990D02*
X36611904Y19023752D01*
X36611904Y19023752D02*
X36611904Y18785657D01*
X36611904Y18785657D02*
X36564285Y18690419D01*
X36564285Y18690419D02*
X36516666Y18642800D01*
X36516666Y18642800D02*
X36421428Y18595180D01*
X36421428Y18595180D02*
X36183333Y18595180D01*
X36183333Y18595180D02*
X36088095Y18642800D01*
X36088095Y18642800D02*
X36040476Y18690419D01*
X17116666Y-12431009D02*
X17259523Y-12478628D01*
X17259523Y-12478628D02*
X17307142Y-12526247D01*
X17307142Y-12526247D02*
X17354761Y-12621485D01*
X17354761Y-12621485D02*
X17354761Y-12764342D01*
X17354761Y-12764342D02*
X17307142Y-12859580D01*
X17307142Y-12859580D02*
X17259523Y-12907200D01*
X17259523Y-12907200D02*
X17164285Y-12954819D01*
X17164285Y-12954819D02*
X16783333Y-12954819D01*
X16783333Y-12954819D02*
X16783333Y-11954819D01*
X16783333Y-11954819D02*
X17116666Y-11954819D01*
X17116666Y-11954819D02*
X17211904Y-12002438D01*
X17211904Y-12002438D02*
X17259523Y-12050057D01*
X17259523Y-12050057D02*
X17307142Y-12145295D01*
X17307142Y-12145295D02*
X17307142Y-12240533D01*
X17307142Y-12240533D02*
X17259523Y-12335771D01*
X17259523Y-12335771D02*
X17211904Y-12383390D01*
X17211904Y-12383390D02*
X17116666Y-12431009D01*
X17116666Y-12431009D02*
X16783333Y-12431009D01*
X17973809Y-11954819D02*
X18164285Y-11954819D01*
X18164285Y-11954819D02*
X18259523Y-12002438D01*
X18259523Y-12002438D02*
X18354761Y-12097676D01*
X18354761Y-12097676D02*
X18402380Y-12288152D01*
X18402380Y-12288152D02*
X18402380Y-12621485D01*
X18402380Y-12621485D02*
X18354761Y-12811961D01*
X18354761Y-12811961D02*
X18259523Y-12907200D01*
X18259523Y-12907200D02*
X18164285Y-12954819D01*
X18164285Y-12954819D02*
X17973809Y-12954819D01*
X17973809Y-12954819D02*
X17878571Y-12907200D01*
X17878571Y-12907200D02*
X17783333Y-12811961D01*
X17783333Y-12811961D02*
X17735714Y-12621485D01*
X17735714Y-12621485D02*
X17735714Y-12288152D01*
X17735714Y-12288152D02*
X17783333Y-12097676D01*
X17783333Y-12097676D02*
X17878571Y-12002438D01*
X17878571Y-12002438D02*
X17973809Y-11954819D01*
X19021428Y-11954819D02*
X19211904Y-11954819D01*
X19211904Y-11954819D02*
X19307142Y-12002438D01*
X19307142Y-12002438D02*
X19402380Y-12097676D01*
X19402380Y-12097676D02*
X19449999Y-12288152D01*
X19449999Y-12288152D02*
X19449999Y-12621485D01*
X19449999Y-12621485D02*
X19402380Y-12811961D01*
X19402380Y-12811961D02*
X19307142Y-12907200D01*
X19307142Y-12907200D02*
X19211904Y-12954819D01*
X19211904Y-12954819D02*
X19021428Y-12954819D01*
X19021428Y-12954819D02*
X18926190Y-12907200D01*
X18926190Y-12907200D02*
X18830952Y-12811961D01*
X18830952Y-12811961D02*
X18783333Y-12621485D01*
X18783333Y-12621485D02*
X18783333Y-12288152D01*
X18783333Y-12288152D02*
X18830952Y-12097676D01*
X18830952Y-12097676D02*
X18926190Y-12002438D01*
X18926190Y-12002438D02*
X19021428Y-11954819D01*
X19735714Y-11954819D02*
X20307142Y-11954819D01*
X20021428Y-12954819D02*
X20021428Y-11954819D01*
X21164285Y-12954819D02*
X20592857Y-12954819D01*
X20878571Y-12954819D02*
X20878571Y-11954819D01*
X20878571Y-11954819D02*
X20783333Y-12097676D01*
X20783333Y-12097676D02*
X20688095Y-12192914D01*
X20688095Y-12192914D02*
X20592857Y-12240533D01*
X51416333Y25629780D02*
X50940143Y25629780D01*
X50940143Y25629780D02*
X50940143Y26629780D01*
X51654429Y26629780D02*
X52273476Y26629780D01*
X52273476Y26629780D02*
X51940143Y26248828D01*
X51940143Y26248828D02*
X52083000Y26248828D01*
X52083000Y26248828D02*
X52178238Y26201209D01*
X52178238Y26201209D02*
X52225857Y26153590D01*
X52225857Y26153590D02*
X52273476Y26058352D01*
X52273476Y26058352D02*
X52273476Y25820257D01*
X52273476Y25820257D02*
X52225857Y25725019D01*
X52225857Y25725019D02*
X52178238Y25677400D01*
X52178238Y25677400D02*
X52083000Y25629780D01*
X52083000Y25629780D02*
X51797286Y25629780D01*
X51797286Y25629780D02*
X51702048Y25677400D01*
X51702048Y25677400D02*
X51654429Y25725019D01*
X-25440475Y-1062295D02*
X-25440475Y-262295D01*
X-25440475Y-262295D02*
X-25249999Y-262295D01*
X-25249999Y-262295D02*
X-25135713Y-300390D01*
X-25135713Y-300390D02*
X-25059523Y-376580D01*
X-25059523Y-376580D02*
X-25021428Y-452771D01*
X-25021428Y-452771D02*
X-24983332Y-605152D01*
X-24983332Y-605152D02*
X-24983332Y-719438D01*
X-24983332Y-719438D02*
X-25021428Y-871819D01*
X-25021428Y-871819D02*
X-25059523Y-948009D01*
X-25059523Y-948009D02*
X-25135713Y-1024200D01*
X-25135713Y-1024200D02*
X-25249999Y-1062295D01*
X-25249999Y-1062295D02*
X-25440475Y-1062295D01*
X-24602380Y-1062295D02*
X-24449999Y-1062295D01*
X-24449999Y-1062295D02*
X-24373809Y-1024200D01*
X-24373809Y-1024200D02*
X-24335713Y-986104D01*
X-24335713Y-986104D02*
X-24259523Y-871819D01*
X-24259523Y-871819D02*
X-24221428Y-719438D01*
X-24221428Y-719438D02*
X-24221428Y-414676D01*
X-24221428Y-414676D02*
X-24259523Y-338485D01*
X-24259523Y-338485D02*
X-24297618Y-300390D01*
X-24297618Y-300390D02*
X-24373809Y-262295D01*
X-24373809Y-262295D02*
X-24526190Y-262295D01*
X-24526190Y-262295D02*
X-24602380Y-300390D01*
X-24602380Y-300390D02*
X-24640475Y-338485D01*
X-24640475Y-338485D02*
X-24678571Y-414676D01*
X-24678571Y-414676D02*
X-24678571Y-605152D01*
X-24678571Y-605152D02*
X-24640475Y-681342D01*
X-24640475Y-681342D02*
X-24602380Y-719438D01*
X-24602380Y-719438D02*
X-24526190Y-757533D01*
X-24526190Y-757533D02*
X-24373809Y-757533D01*
X-24373809Y-757533D02*
X-24297618Y-719438D01*
X-24297618Y-719438D02*
X-24259523Y-681342D01*
X-24259523Y-681342D02*
X-24221428Y-605152D01*
X28795333Y-9054819D02*
X28462000Y-8578628D01*
X28223905Y-9054819D02*
X28223905Y-8054819D01*
X28223905Y-8054819D02*
X28604857Y-8054819D01*
X28604857Y-8054819D02*
X28700095Y-8102438D01*
X28700095Y-8102438D02*
X28747714Y-8150057D01*
X28747714Y-8150057D02*
X28795333Y-8245295D01*
X28795333Y-8245295D02*
X28795333Y-8388152D01*
X28795333Y-8388152D02*
X28747714Y-8483390D01*
X28747714Y-8483390D02*
X28700095Y-8531009D01*
X28700095Y-8531009D02*
X28604857Y-8578628D01*
X28604857Y-8578628D02*
X28223905Y-8578628D01*
X29128667Y-8054819D02*
X29747714Y-8054819D01*
X29747714Y-8054819D02*
X29414381Y-8435771D01*
X29414381Y-8435771D02*
X29557238Y-8435771D01*
X29557238Y-8435771D02*
X29652476Y-8483390D01*
X29652476Y-8483390D02*
X29700095Y-8531009D01*
X29700095Y-8531009D02*
X29747714Y-8626247D01*
X29747714Y-8626247D02*
X29747714Y-8864342D01*
X29747714Y-8864342D02*
X29700095Y-8959580D01*
X29700095Y-8959580D02*
X29652476Y-9007200D01*
X29652476Y-9007200D02*
X29557238Y-9054819D01*
X29557238Y-9054819D02*
X29271524Y-9054819D01*
X29271524Y-9054819D02*
X29176286Y-9007200D01*
X29176286Y-9007200D02*
X29128667Y-8959580D01*
X-25420475Y-3612295D02*
X-25420475Y-2812295D01*
X-25420475Y-2812295D02*
X-25229999Y-2812295D01*
X-25229999Y-2812295D02*
X-25115713Y-2850390D01*
X-25115713Y-2850390D02*
X-25039523Y-2926580D01*
X-25039523Y-2926580D02*
X-25001428Y-3002771D01*
X-25001428Y-3002771D02*
X-24963332Y-3155152D01*
X-24963332Y-3155152D02*
X-24963332Y-3269438D01*
X-24963332Y-3269438D02*
X-25001428Y-3421819D01*
X-25001428Y-3421819D02*
X-25039523Y-3498009D01*
X-25039523Y-3498009D02*
X-25115713Y-3574200D01*
X-25115713Y-3574200D02*
X-25229999Y-3612295D01*
X-25229999Y-3612295D02*
X-25420475Y-3612295D01*
X-24696666Y-2812295D02*
X-24163332Y-2812295D01*
X-24163332Y-2812295D02*
X-24506190Y-3612295D01*
X-32464285Y12737704D02*
X-32730952Y13118657D01*
X-32921428Y12737704D02*
X-32921428Y13537704D01*
X-32921428Y13537704D02*
X-32616666Y13537704D01*
X-32616666Y13537704D02*
X-32540476Y13499609D01*
X-32540476Y13499609D02*
X-32502381Y13461514D01*
X-32502381Y13461514D02*
X-32464285Y13385323D01*
X-32464285Y13385323D02*
X-32464285Y13271038D01*
X-32464285Y13271038D02*
X-32502381Y13194847D01*
X-32502381Y13194847D02*
X-32540476Y13156752D01*
X-32540476Y13156752D02*
X-32616666Y13118657D01*
X-32616666Y13118657D02*
X-32921428Y13118657D01*
X-31702381Y12737704D02*
X-32159524Y12737704D01*
X-31930952Y12737704D02*
X-31930952Y13537704D01*
X-31930952Y13537704D02*
X-32007143Y13423419D01*
X-32007143Y13423419D02*
X-32083333Y13347228D01*
X-32083333Y13347228D02*
X-32159524Y13309133D01*
X-31397619Y13461514D02*
X-31359523Y13499609D01*
X-31359523Y13499609D02*
X-31283333Y13537704D01*
X-31283333Y13537704D02*
X-31092857Y13537704D01*
X-31092857Y13537704D02*
X-31016666Y13499609D01*
X-31016666Y13499609D02*
X-30978571Y13461514D01*
X-30978571Y13461514D02*
X-30940476Y13385323D01*
X-30940476Y13385323D02*
X-30940476Y13309133D01*
X-30940476Y13309133D02*
X-30978571Y13194847D01*
X-30978571Y13194847D02*
X-31435714Y12737704D01*
X-31435714Y12737704D02*
X-30940476Y12737704D01*
X1858733Y2466019D02*
X1811114Y2418400D01*
X1811114Y2418400D02*
X1668257Y2370780D01*
X1668257Y2370780D02*
X1573019Y2370780D01*
X1573019Y2370780D02*
X1430162Y2418400D01*
X1430162Y2418400D02*
X1334924Y2513638D01*
X1334924Y2513638D02*
X1287305Y2608876D01*
X1287305Y2608876D02*
X1239686Y2799352D01*
X1239686Y2799352D02*
X1239686Y2942209D01*
X1239686Y2942209D02*
X1287305Y3132685D01*
X1287305Y3132685D02*
X1334924Y3227923D01*
X1334924Y3227923D02*
X1430162Y3323161D01*
X1430162Y3323161D02*
X1573019Y3370780D01*
X1573019Y3370780D02*
X1668257Y3370780D01*
X1668257Y3370780D02*
X1811114Y3323161D01*
X1811114Y3323161D02*
X1858733Y3275542D01*
X2811114Y2370780D02*
X2239686Y2370780D01*
X2525400Y2370780D02*
X2525400Y3370780D01*
X2525400Y3370780D02*
X2430162Y3227923D01*
X2430162Y3227923D02*
X2334924Y3132685D01*
X2334924Y3132685D02*
X2239686Y3085066D01*
X57883333Y-28359580D02*
X57835714Y-28407200D01*
X57835714Y-28407200D02*
X57692857Y-28454819D01*
X57692857Y-28454819D02*
X57597619Y-28454819D01*
X57597619Y-28454819D02*
X57454762Y-28407200D01*
X57454762Y-28407200D02*
X57359524Y-28311961D01*
X57359524Y-28311961D02*
X57311905Y-28216723D01*
X57311905Y-28216723D02*
X57264286Y-28026247D01*
X57264286Y-28026247D02*
X57264286Y-27883390D01*
X57264286Y-27883390D02*
X57311905Y-27692914D01*
X57311905Y-27692914D02*
X57359524Y-27597676D01*
X57359524Y-27597676D02*
X57454762Y-27502438D01*
X57454762Y-27502438D02*
X57597619Y-27454819D01*
X57597619Y-27454819D02*
X57692857Y-27454819D01*
X57692857Y-27454819D02*
X57835714Y-27502438D01*
X57835714Y-27502438D02*
X57883333Y-27550057D01*
X58788095Y-27454819D02*
X58311905Y-27454819D01*
X58311905Y-27454819D02*
X58264286Y-27931009D01*
X58264286Y-27931009D02*
X58311905Y-27883390D01*
X58311905Y-27883390D02*
X58407143Y-27835771D01*
X58407143Y-27835771D02*
X58645238Y-27835771D01*
X58645238Y-27835771D02*
X58740476Y-27883390D01*
X58740476Y-27883390D02*
X58788095Y-27931009D01*
X58788095Y-27931009D02*
X58835714Y-28026247D01*
X58835714Y-28026247D02*
X58835714Y-28264342D01*
X58835714Y-28264342D02*
X58788095Y-28359580D01*
X58788095Y-28359580D02*
X58740476Y-28407200D01*
X58740476Y-28407200D02*
X58645238Y-28454819D01*
X58645238Y-28454819D02*
X58407143Y-28454819D01*
X58407143Y-28454819D02*
X58311905Y-28407200D01*
X58311905Y-28407200D02*
X58264286Y-28359580D01*
X18107142Y-25959580D02*
X18059523Y-26007200D01*
X18059523Y-26007200D02*
X17916666Y-26054819D01*
X17916666Y-26054819D02*
X17821428Y-26054819D01*
X17821428Y-26054819D02*
X17678571Y-26007200D01*
X17678571Y-26007200D02*
X17583333Y-25911961D01*
X17583333Y-25911961D02*
X17535714Y-25816723D01*
X17535714Y-25816723D02*
X17488095Y-25626247D01*
X17488095Y-25626247D02*
X17488095Y-25483390D01*
X17488095Y-25483390D02*
X17535714Y-25292914D01*
X17535714Y-25292914D02*
X17583333Y-25197676D01*
X17583333Y-25197676D02*
X17678571Y-25102438D01*
X17678571Y-25102438D02*
X17821428Y-25054819D01*
X17821428Y-25054819D02*
X17916666Y-25054819D01*
X17916666Y-25054819D02*
X18059523Y-25102438D01*
X18059523Y-25102438D02*
X18107142Y-25150057D01*
X19059523Y-26054819D02*
X18488095Y-26054819D01*
X18773809Y-26054819D02*
X18773809Y-25054819D01*
X18773809Y-25054819D02*
X18678571Y-25197676D01*
X18678571Y-25197676D02*
X18583333Y-25292914D01*
X18583333Y-25292914D02*
X18488095Y-25340533D01*
X20011904Y-26054819D02*
X19440476Y-26054819D01*
X19726190Y-26054819D02*
X19726190Y-25054819D01*
X19726190Y-25054819D02*
X19630952Y-25197676D01*
X19630952Y-25197676D02*
X19535714Y-25292914D01*
X19535714Y-25292914D02*
X19440476Y-25340533D01*
X-42295238Y-18350057D02*
X-42390476Y-18302438D01*
X-42390476Y-18302438D02*
X-42485714Y-18207200D01*
X-42485714Y-18207200D02*
X-42628571Y-18064342D01*
X-42628571Y-18064342D02*
X-42723809Y-18016723D01*
X-42723809Y-18016723D02*
X-42819047Y-18016723D01*
X-42771428Y-18254819D02*
X-42866666Y-18207200D01*
X-42866666Y-18207200D02*
X-42961904Y-18111961D01*
X-42961904Y-18111961D02*
X-43009523Y-17921485D01*
X-43009523Y-17921485D02*
X-43009523Y-17588152D01*
X-43009523Y-17588152D02*
X-42961904Y-17397676D01*
X-42961904Y-17397676D02*
X-42866666Y-17302438D01*
X-42866666Y-17302438D02*
X-42771428Y-17254819D01*
X-42771428Y-17254819D02*
X-42580952Y-17254819D01*
X-42580952Y-17254819D02*
X-42485714Y-17302438D01*
X-42485714Y-17302438D02*
X-42390476Y-17397676D01*
X-42390476Y-17397676D02*
X-42342857Y-17588152D01*
X-42342857Y-17588152D02*
X-42342857Y-17921485D01*
X-42342857Y-17921485D02*
X-42390476Y-18111961D01*
X-42390476Y-18111961D02*
X-42485714Y-18207200D01*
X-42485714Y-18207200D02*
X-42580952Y-18254819D01*
X-42580952Y-18254819D02*
X-42771428Y-18254819D01*
X-42009523Y-17254819D02*
X-41390476Y-17254819D01*
X-41390476Y-17254819D02*
X-41723809Y-17635771D01*
X-41723809Y-17635771D02*
X-41580952Y-17635771D01*
X-41580952Y-17635771D02*
X-41485714Y-17683390D01*
X-41485714Y-17683390D02*
X-41438095Y-17731009D01*
X-41438095Y-17731009D02*
X-41390476Y-17826247D01*
X-41390476Y-17826247D02*
X-41390476Y-18064342D01*
X-41390476Y-18064342D02*
X-41438095Y-18159580D01*
X-41438095Y-18159580D02*
X-41485714Y-18207200D01*
X-41485714Y-18207200D02*
X-41580952Y-18254819D01*
X-41580952Y-18254819D02*
X-41866666Y-18254819D01*
X-41866666Y-18254819D02*
X-41961904Y-18207200D01*
X-41961904Y-18207200D02*
X-42009523Y-18159580D01*
X-42504856Y-21954819D02*
X-42838189Y-21478628D01*
X-43076284Y-21954819D02*
X-43076284Y-20954819D01*
X-43076284Y-20954819D02*
X-42695332Y-20954819D01*
X-42695332Y-20954819D02*
X-42600094Y-21002438D01*
X-42600094Y-21002438D02*
X-42552475Y-21050057D01*
X-42552475Y-21050057D02*
X-42504856Y-21145295D01*
X-42504856Y-21145295D02*
X-42504856Y-21288152D01*
X-42504856Y-21288152D02*
X-42552475Y-21383390D01*
X-42552475Y-21383390D02*
X-42600094Y-21431009D01*
X-42600094Y-21431009D02*
X-42695332Y-21478628D01*
X-42695332Y-21478628D02*
X-43076284Y-21478628D01*
X-41552475Y-21954819D02*
X-42123903Y-21954819D01*
X-41838189Y-21954819D02*
X-41838189Y-20954819D01*
X-41838189Y-20954819D02*
X-41933427Y-21097676D01*
X-41933427Y-21097676D02*
X-42028665Y-21192914D01*
X-42028665Y-21192914D02*
X-42123903Y-21240533D01*
X-41219141Y-20954819D02*
X-40600094Y-20954819D01*
X-40600094Y-20954819D02*
X-40933427Y-21335771D01*
X-40933427Y-21335771D02*
X-40790570Y-21335771D01*
X-40790570Y-21335771D02*
X-40695332Y-21383390D01*
X-40695332Y-21383390D02*
X-40647713Y-21431009D01*
X-40647713Y-21431009D02*
X-40600094Y-21526247D01*
X-40600094Y-21526247D02*
X-40600094Y-21764342D01*
X-40600094Y-21764342D02*
X-40647713Y-21859580D01*
X-40647713Y-21859580D02*
X-40695332Y-21907200D01*
X-40695332Y-21907200D02*
X-40790570Y-21954819D01*
X-40790570Y-21954819D02*
X-41076284Y-21954819D01*
X-41076284Y-21954819D02*
X-41171522Y-21907200D01*
X-41171522Y-21907200D02*
X-41219141Y-21859580D01*
X19883333Y26045180D02*
X19550000Y26521371D01*
X19311905Y26045180D02*
X19311905Y27045180D01*
X19311905Y27045180D02*
X19692857Y27045180D01*
X19692857Y27045180D02*
X19788095Y26997561D01*
X19788095Y26997561D02*
X19835714Y26949942D01*
X19835714Y26949942D02*
X19883333Y26854704D01*
X19883333Y26854704D02*
X19883333Y26711847D01*
X19883333Y26711847D02*
X19835714Y26616609D01*
X19835714Y26616609D02*
X19788095Y26568990D01*
X19788095Y26568990D02*
X19692857Y26521371D01*
X19692857Y26521371D02*
X19311905Y26521371D01*
X20359524Y26045180D02*
X20550000Y26045180D01*
X20550000Y26045180D02*
X20645238Y26092800D01*
X20645238Y26092800D02*
X20692857Y26140419D01*
X20692857Y26140419D02*
X20788095Y26283276D01*
X20788095Y26283276D02*
X20835714Y26473752D01*
X20835714Y26473752D02*
X20835714Y26854704D01*
X20835714Y26854704D02*
X20788095Y26949942D01*
X20788095Y26949942D02*
X20740476Y26997561D01*
X20740476Y26997561D02*
X20645238Y27045180D01*
X20645238Y27045180D02*
X20454762Y27045180D01*
X20454762Y27045180D02*
X20359524Y26997561D01*
X20359524Y26997561D02*
X20311905Y26949942D01*
X20311905Y26949942D02*
X20264286Y26854704D01*
X20264286Y26854704D02*
X20264286Y26616609D01*
X20264286Y26616609D02*
X20311905Y26521371D01*
X20311905Y26521371D02*
X20359524Y26473752D01*
X20359524Y26473752D02*
X20454762Y26426133D01*
X20454762Y26426133D02*
X20645238Y26426133D01*
X20645238Y26426133D02*
X20740476Y26473752D01*
X20740476Y26473752D02*
X20788095Y26521371D01*
X20788095Y26521371D02*
X20835714Y26616609D01*
X-32464285Y7313895D02*
X-32502381Y7275800D01*
X-32502381Y7275800D02*
X-32616666Y7237704D01*
X-32616666Y7237704D02*
X-32692857Y7237704D01*
X-32692857Y7237704D02*
X-32807143Y7275800D01*
X-32807143Y7275800D02*
X-32883333Y7351990D01*
X-32883333Y7351990D02*
X-32921428Y7428180D01*
X-32921428Y7428180D02*
X-32959524Y7580561D01*
X-32959524Y7580561D02*
X-32959524Y7694847D01*
X-32959524Y7694847D02*
X-32921428Y7847228D01*
X-32921428Y7847228D02*
X-32883333Y7923419D01*
X-32883333Y7923419D02*
X-32807143Y7999609D01*
X-32807143Y7999609D02*
X-32692857Y8037704D01*
X-32692857Y8037704D02*
X-32616666Y8037704D01*
X-32616666Y8037704D02*
X-32502381Y7999609D01*
X-32502381Y7999609D02*
X-32464285Y7961514D01*
X-32197619Y8037704D02*
X-31702381Y8037704D01*
X-31702381Y8037704D02*
X-31969047Y7732942D01*
X-31969047Y7732942D02*
X-31854762Y7732942D01*
X-31854762Y7732942D02*
X-31778571Y7694847D01*
X-31778571Y7694847D02*
X-31740476Y7656752D01*
X-31740476Y7656752D02*
X-31702381Y7580561D01*
X-31702381Y7580561D02*
X-31702381Y7390085D01*
X-31702381Y7390085D02*
X-31740476Y7313895D01*
X-31740476Y7313895D02*
X-31778571Y7275800D01*
X-31778571Y7275800D02*
X-31854762Y7237704D01*
X-31854762Y7237704D02*
X-32083333Y7237704D01*
X-32083333Y7237704D02*
X-32159524Y7275800D01*
X-32159524Y7275800D02*
X-32197619Y7313895D01*
X-31435714Y8037704D02*
X-30940476Y8037704D01*
X-30940476Y8037704D02*
X-31207142Y7732942D01*
X-31207142Y7732942D02*
X-31092857Y7732942D01*
X-31092857Y7732942D02*
X-31016666Y7694847D01*
X-31016666Y7694847D02*
X-30978571Y7656752D01*
X-30978571Y7656752D02*
X-30940476Y7580561D01*
X-30940476Y7580561D02*
X-30940476Y7390085D01*
X-30940476Y7390085D02*
X-30978571Y7313895D01*
X-30978571Y7313895D02*
X-31016666Y7275800D01*
X-31016666Y7275800D02*
X-31092857Y7237704D01*
X-31092857Y7237704D02*
X-31321428Y7237704D01*
X-31321428Y7237704D02*
X-31397619Y7275800D01*
X-31397619Y7275800D02*
X-31435714Y7313895D01*
X-4391266Y-3033980D02*
X-4438885Y-3081600D01*
X-4438885Y-3081600D02*
X-4581742Y-3129219D01*
X-4581742Y-3129219D02*
X-4676980Y-3129219D01*
X-4676980Y-3129219D02*
X-4819837Y-3081600D01*
X-4819837Y-3081600D02*
X-4915075Y-2986361D01*
X-4915075Y-2986361D02*
X-4962694Y-2891123D01*
X-4962694Y-2891123D02*
X-5010313Y-2700647D01*
X-5010313Y-2700647D02*
X-5010313Y-2557790D01*
X-5010313Y-2557790D02*
X-4962694Y-2367314D01*
X-4962694Y-2367314D02*
X-4915075Y-2272076D01*
X-4915075Y-2272076D02*
X-4819837Y-2176838D01*
X-4819837Y-2176838D02*
X-4676980Y-2129219D01*
X-4676980Y-2129219D02*
X-4581742Y-2129219D01*
X-4581742Y-2129219D02*
X-4438885Y-2176838D01*
X-4438885Y-2176838D02*
X-4391266Y-2224457D01*
X-4010313Y-2224457D02*
X-3962694Y-2176838D01*
X-3962694Y-2176838D02*
X-3867456Y-2129219D01*
X-3867456Y-2129219D02*
X-3629361Y-2129219D01*
X-3629361Y-2129219D02*
X-3534123Y-2176838D01*
X-3534123Y-2176838D02*
X-3486504Y-2224457D01*
X-3486504Y-2224457D02*
X-3438885Y-2319695D01*
X-3438885Y-2319695D02*
X-3438885Y-2414933D01*
X-3438885Y-2414933D02*
X-3486504Y-2557790D01*
X-3486504Y-2557790D02*
X-4057932Y-3129219D01*
X-4057932Y-3129219D02*
X-3438885Y-3129219D01*
X-14392857Y-23567319D02*
X-14726190Y-23091128D01*
X-14964285Y-23567319D02*
X-14964285Y-22567319D01*
X-14964285Y-22567319D02*
X-14583333Y-22567319D01*
X-14583333Y-22567319D02*
X-14488095Y-22614938D01*
X-14488095Y-22614938D02*
X-14440476Y-22662557D01*
X-14440476Y-22662557D02*
X-14392857Y-22757795D01*
X-14392857Y-22757795D02*
X-14392857Y-22900652D01*
X-14392857Y-22900652D02*
X-14440476Y-22995890D01*
X-14440476Y-22995890D02*
X-14488095Y-23043509D01*
X-14488095Y-23043509D02*
X-14583333Y-23091128D01*
X-14583333Y-23091128D02*
X-14964285Y-23091128D01*
X-13440476Y-23567319D02*
X-14011904Y-23567319D01*
X-13726190Y-23567319D02*
X-13726190Y-22567319D01*
X-13726190Y-22567319D02*
X-13821428Y-22710176D01*
X-13821428Y-22710176D02*
X-13916666Y-22805414D01*
X-13916666Y-22805414D02*
X-14011904Y-22853033D01*
X-12488095Y-23567319D02*
X-13059523Y-23567319D01*
X-12773809Y-23567319D02*
X-12773809Y-22567319D01*
X-12773809Y-22567319D02*
X-12869047Y-22710176D01*
X-12869047Y-22710176D02*
X-12964285Y-22805414D01*
X-12964285Y-22805414D02*
X-13059523Y-22853033D01*
X-54266666Y-2854819D02*
X-54599999Y-2378628D01*
X-54838094Y-2854819D02*
X-54838094Y-1854819D01*
X-54838094Y-1854819D02*
X-54457142Y-1854819D01*
X-54457142Y-1854819D02*
X-54361904Y-1902438D01*
X-54361904Y-1902438D02*
X-54314285Y-1950057D01*
X-54314285Y-1950057D02*
X-54266666Y-2045295D01*
X-54266666Y-2045295D02*
X-54266666Y-2188152D01*
X-54266666Y-2188152D02*
X-54314285Y-2283390D01*
X-54314285Y-2283390D02*
X-54361904Y-2331009D01*
X-54361904Y-2331009D02*
X-54457142Y-2378628D01*
X-54457142Y-2378628D02*
X-54838094Y-2378628D01*
X-53314285Y-2854819D02*
X-53885713Y-2854819D01*
X-53599999Y-2854819D02*
X-53599999Y-1854819D01*
X-53599999Y-1854819D02*
X-53695237Y-1997676D01*
X-53695237Y-1997676D02*
X-53790475Y-2092914D01*
X-53790475Y-2092914D02*
X-53885713Y-2140533D01*
X-4391266Y-4783980D02*
X-4438885Y-4831600D01*
X-4438885Y-4831600D02*
X-4581742Y-4879219D01*
X-4581742Y-4879219D02*
X-4676980Y-4879219D01*
X-4676980Y-4879219D02*
X-4819837Y-4831600D01*
X-4819837Y-4831600D02*
X-4915075Y-4736361D01*
X-4915075Y-4736361D02*
X-4962694Y-4641123D01*
X-4962694Y-4641123D02*
X-5010313Y-4450647D01*
X-5010313Y-4450647D02*
X-5010313Y-4307790D01*
X-5010313Y-4307790D02*
X-4962694Y-4117314D01*
X-4962694Y-4117314D02*
X-4915075Y-4022076D01*
X-4915075Y-4022076D02*
X-4819837Y-3926838D01*
X-4819837Y-3926838D02*
X-4676980Y-3879219D01*
X-4676980Y-3879219D02*
X-4581742Y-3879219D01*
X-4581742Y-3879219D02*
X-4438885Y-3926838D01*
X-4438885Y-3926838D02*
X-4391266Y-3974457D01*
X-4057932Y-3879219D02*
X-3438885Y-3879219D01*
X-3438885Y-3879219D02*
X-3772218Y-4260171D01*
X-3772218Y-4260171D02*
X-3629361Y-4260171D01*
X-3629361Y-4260171D02*
X-3534123Y-4307790D01*
X-3534123Y-4307790D02*
X-3486504Y-4355409D01*
X-3486504Y-4355409D02*
X-3438885Y-4450647D01*
X-3438885Y-4450647D02*
X-3438885Y-4688742D01*
X-3438885Y-4688742D02*
X-3486504Y-4783980D01*
X-3486504Y-4783980D02*
X-3534123Y-4831600D01*
X-3534123Y-4831600D02*
X-3629361Y-4879219D01*
X-3629361Y-4879219D02*
X-3915075Y-4879219D01*
X-3915075Y-4879219D02*
X-4010313Y-4831600D01*
X-4010313Y-4831600D02*
X-4057932Y-4783980D01*
X19645143Y18583181D02*
X19311810Y19059372D01*
X19073715Y18583181D02*
X19073715Y19583181D01*
X19073715Y19583181D02*
X19454667Y19583181D01*
X19454667Y19583181D02*
X19549905Y19535562D01*
X19549905Y19535562D02*
X19597524Y19487943D01*
X19597524Y19487943D02*
X19645143Y19392705D01*
X19645143Y19392705D02*
X19645143Y19249848D01*
X19645143Y19249848D02*
X19597524Y19154610D01*
X19597524Y19154610D02*
X19549905Y19106991D01*
X19549905Y19106991D02*
X19454667Y19059372D01*
X19454667Y19059372D02*
X19073715Y19059372D01*
X20597524Y18583181D02*
X20026096Y18583181D01*
X20311810Y18583181D02*
X20311810Y19583181D01*
X20311810Y19583181D02*
X20216572Y19440324D01*
X20216572Y19440324D02*
X20121334Y19345086D01*
X20121334Y19345086D02*
X20026096Y19297467D01*
X21168953Y19154610D02*
X21073715Y19202229D01*
X21073715Y19202229D02*
X21026096Y19249848D01*
X21026096Y19249848D02*
X20978477Y19345086D01*
X20978477Y19345086D02*
X20978477Y19392705D01*
X20978477Y19392705D02*
X21026096Y19487943D01*
X21026096Y19487943D02*
X21073715Y19535562D01*
X21073715Y19535562D02*
X21168953Y19583181D01*
X21168953Y19583181D02*
X21359429Y19583181D01*
X21359429Y19583181D02*
X21454667Y19535562D01*
X21454667Y19535562D02*
X21502286Y19487943D01*
X21502286Y19487943D02*
X21549905Y19392705D01*
X21549905Y19392705D02*
X21549905Y19345086D01*
X21549905Y19345086D02*
X21502286Y19249848D01*
X21502286Y19249848D02*
X21454667Y19202229D01*
X21454667Y19202229D02*
X21359429Y19154610D01*
X21359429Y19154610D02*
X21168953Y19154610D01*
X21168953Y19154610D02*
X21073715Y19106991D01*
X21073715Y19106991D02*
X21026096Y19059372D01*
X21026096Y19059372D02*
X20978477Y18964134D01*
X20978477Y18964134D02*
X20978477Y18773658D01*
X20978477Y18773658D02*
X21026096Y18678420D01*
X21026096Y18678420D02*
X21073715Y18630801D01*
X21073715Y18630801D02*
X21168953Y18583181D01*
X21168953Y18583181D02*
X21359429Y18583181D01*
X21359429Y18583181D02*
X21454667Y18630801D01*
X21454667Y18630801D02*
X21502286Y18678420D01*
X21502286Y18678420D02*
X21549905Y18773658D01*
X21549905Y18773658D02*
X21549905Y18964134D01*
X21549905Y18964134D02*
X21502286Y19059372D01*
X21502286Y19059372D02*
X21454667Y19106991D01*
X21454667Y19106991D02*
X21359429Y19154610D01*
X-32464285Y213895D02*
X-32502381Y175800D01*
X-32502381Y175800D02*
X-32616666Y137704D01*
X-32616666Y137704D02*
X-32692857Y137704D01*
X-32692857Y137704D02*
X-32807143Y175800D01*
X-32807143Y175800D02*
X-32883333Y251990D01*
X-32883333Y251990D02*
X-32921428Y328180D01*
X-32921428Y328180D02*
X-32959524Y480561D01*
X-32959524Y480561D02*
X-32959524Y594847D01*
X-32959524Y594847D02*
X-32921428Y747228D01*
X-32921428Y747228D02*
X-32883333Y823419D01*
X-32883333Y823419D02*
X-32807143Y899609D01*
X-32807143Y899609D02*
X-32692857Y937704D01*
X-32692857Y937704D02*
X-32616666Y937704D01*
X-32616666Y937704D02*
X-32502381Y899609D01*
X-32502381Y899609D02*
X-32464285Y861514D01*
X-32159524Y861514D02*
X-32121428Y899609D01*
X-32121428Y899609D02*
X-32045238Y937704D01*
X-32045238Y937704D02*
X-31854762Y937704D01*
X-31854762Y937704D02*
X-31778571Y899609D01*
X-31778571Y899609D02*
X-31740476Y861514D01*
X-31740476Y861514D02*
X-31702381Y785323D01*
X-31702381Y785323D02*
X-31702381Y709133D01*
X-31702381Y709133D02*
X-31740476Y594847D01*
X-31740476Y594847D02*
X-32197619Y137704D01*
X-32197619Y137704D02*
X-31702381Y137704D01*
X-30940476Y137704D02*
X-31397619Y137704D01*
X-31169047Y137704D02*
X-31169047Y937704D01*
X-31169047Y937704D02*
X-31245238Y823419D01*
X-31245238Y823419D02*
X-31321428Y747228D01*
X-31321428Y747228D02*
X-31397619Y709133D01*
X-25380475Y-6052295D02*
X-25380475Y-5252295D01*
X-25380475Y-5252295D02*
X-25189999Y-5252295D01*
X-25189999Y-5252295D02*
X-25075713Y-5290390D01*
X-25075713Y-5290390D02*
X-24999523Y-5366580D01*
X-24999523Y-5366580D02*
X-24961428Y-5442771D01*
X-24961428Y-5442771D02*
X-24923332Y-5595152D01*
X-24923332Y-5595152D02*
X-24923332Y-5709438D01*
X-24923332Y-5709438D02*
X-24961428Y-5861819D01*
X-24961428Y-5861819D02*
X-24999523Y-5938009D01*
X-24999523Y-5938009D02*
X-25075713Y-6014200D01*
X-25075713Y-6014200D02*
X-25189999Y-6052295D01*
X-25189999Y-6052295D02*
X-25380475Y-6052295D01*
X-24466190Y-5595152D02*
X-24542380Y-5557057D01*
X-24542380Y-5557057D02*
X-24580475Y-5518961D01*
X-24580475Y-5518961D02*
X-24618571Y-5442771D01*
X-24618571Y-5442771D02*
X-24618571Y-5404676D01*
X-24618571Y-5404676D02*
X-24580475Y-5328485D01*
X-24580475Y-5328485D02*
X-24542380Y-5290390D01*
X-24542380Y-5290390D02*
X-24466190Y-5252295D01*
X-24466190Y-5252295D02*
X-24313809Y-5252295D01*
X-24313809Y-5252295D02*
X-24237618Y-5290390D01*
X-24237618Y-5290390D02*
X-24199523Y-5328485D01*
X-24199523Y-5328485D02*
X-24161428Y-5404676D01*
X-24161428Y-5404676D02*
X-24161428Y-5442771D01*
X-24161428Y-5442771D02*
X-24199523Y-5518961D01*
X-24199523Y-5518961D02*
X-24237618Y-5557057D01*
X-24237618Y-5557057D02*
X-24313809Y-5595152D01*
X-24313809Y-5595152D02*
X-24466190Y-5595152D01*
X-24466190Y-5595152D02*
X-24542380Y-5633247D01*
X-24542380Y-5633247D02*
X-24580475Y-5671342D01*
X-24580475Y-5671342D02*
X-24618571Y-5747533D01*
X-24618571Y-5747533D02*
X-24618571Y-5899914D01*
X-24618571Y-5899914D02*
X-24580475Y-5976104D01*
X-24580475Y-5976104D02*
X-24542380Y-6014200D01*
X-24542380Y-6014200D02*
X-24466190Y-6052295D01*
X-24466190Y-6052295D02*
X-24313809Y-6052295D01*
X-24313809Y-6052295D02*
X-24237618Y-6014200D01*
X-24237618Y-6014200D02*
X-24199523Y-5976104D01*
X-24199523Y-5976104D02*
X-24161428Y-5899914D01*
X-24161428Y-5899914D02*
X-24161428Y-5747533D01*
X-24161428Y-5747533D02*
X-24199523Y-5671342D01*
X-24199523Y-5671342D02*
X-24237618Y-5633247D01*
X-24237618Y-5633247D02*
X-24313809Y-5595152D01*
X34857142Y16140419D02*
X34809523Y16092800D01*
X34809523Y16092800D02*
X34666666Y16045180D01*
X34666666Y16045180D02*
X34571428Y16045180D01*
X34571428Y16045180D02*
X34428571Y16092800D01*
X34428571Y16092800D02*
X34333333Y16188038D01*
X34333333Y16188038D02*
X34285714Y16283276D01*
X34285714Y16283276D02*
X34238095Y16473752D01*
X34238095Y16473752D02*
X34238095Y16616609D01*
X34238095Y16616609D02*
X34285714Y16807085D01*
X34285714Y16807085D02*
X34333333Y16902323D01*
X34333333Y16902323D02*
X34428571Y16997561D01*
X34428571Y16997561D02*
X34571428Y17045180D01*
X34571428Y17045180D02*
X34666666Y17045180D01*
X34666666Y17045180D02*
X34809523Y16997561D01*
X34809523Y16997561D02*
X34857142Y16949942D01*
X35809523Y16045180D02*
X35238095Y16045180D01*
X35523809Y16045180D02*
X35523809Y17045180D01*
X35523809Y17045180D02*
X35428571Y16902323D01*
X35428571Y16902323D02*
X35333333Y16807085D01*
X35333333Y16807085D02*
X35238095Y16759466D01*
X36142857Y17045180D02*
X36809523Y17045180D01*
X36809523Y17045180D02*
X36380952Y16045180D01*
X46095142Y12250419D02*
X46047523Y12202800D01*
X46047523Y12202800D02*
X45904666Y12155180D01*
X45904666Y12155180D02*
X45809428Y12155180D01*
X45809428Y12155180D02*
X45666571Y12202800D01*
X45666571Y12202800D02*
X45571333Y12298038D01*
X45571333Y12298038D02*
X45523714Y12393276D01*
X45523714Y12393276D02*
X45476095Y12583752D01*
X45476095Y12583752D02*
X45476095Y12726609D01*
X45476095Y12726609D02*
X45523714Y12917085D01*
X45523714Y12917085D02*
X45571333Y13012323D01*
X45571333Y13012323D02*
X45666571Y13107561D01*
X45666571Y13107561D02*
X45809428Y13155180D01*
X45809428Y13155180D02*
X45904666Y13155180D01*
X45904666Y13155180D02*
X46047523Y13107561D01*
X46047523Y13107561D02*
X46095142Y13059942D01*
X46476095Y13059942D02*
X46523714Y13107561D01*
X46523714Y13107561D02*
X46618952Y13155180D01*
X46618952Y13155180D02*
X46857047Y13155180D01*
X46857047Y13155180D02*
X46952285Y13107561D01*
X46952285Y13107561D02*
X46999904Y13059942D01*
X46999904Y13059942D02*
X47047523Y12964704D01*
X47047523Y12964704D02*
X47047523Y12869466D01*
X47047523Y12869466D02*
X46999904Y12726609D01*
X46999904Y12726609D02*
X46428476Y12155180D01*
X46428476Y12155180D02*
X47047523Y12155180D01*
X47666571Y13155180D02*
X47761809Y13155180D01*
X47761809Y13155180D02*
X47857047Y13107561D01*
X47857047Y13107561D02*
X47904666Y13059942D01*
X47904666Y13059942D02*
X47952285Y12964704D01*
X47952285Y12964704D02*
X47999904Y12774228D01*
X47999904Y12774228D02*
X47999904Y12536133D01*
X47999904Y12536133D02*
X47952285Y12345657D01*
X47952285Y12345657D02*
X47904666Y12250419D01*
X47904666Y12250419D02*
X47857047Y12202800D01*
X47857047Y12202800D02*
X47761809Y12155180D01*
X47761809Y12155180D02*
X47666571Y12155180D01*
X47666571Y12155180D02*
X47571333Y12202800D01*
X47571333Y12202800D02*
X47523714Y12250419D01*
X47523714Y12250419D02*
X47476095Y12345657D01*
X47476095Y12345657D02*
X47428476Y12536133D01*
X47428476Y12536133D02*
X47428476Y12774228D01*
X47428476Y12774228D02*
X47476095Y12964704D01*
X47476095Y12964704D02*
X47523714Y13059942D01*
X47523714Y13059942D02*
X47571333Y13107561D01*
X47571333Y13107561D02*
X47666571Y13155180D01*
X4358733Y2466019D02*
X4311114Y2418400D01*
X4311114Y2418400D02*
X4168257Y2370780D01*
X4168257Y2370780D02*
X4073019Y2370780D01*
X4073019Y2370780D02*
X3930162Y2418400D01*
X3930162Y2418400D02*
X3834924Y2513638D01*
X3834924Y2513638D02*
X3787305Y2608876D01*
X3787305Y2608876D02*
X3739686Y2799352D01*
X3739686Y2799352D02*
X3739686Y2942209D01*
X3739686Y2942209D02*
X3787305Y3132685D01*
X3787305Y3132685D02*
X3834924Y3227923D01*
X3834924Y3227923D02*
X3930162Y3323161D01*
X3930162Y3323161D02*
X4073019Y3370780D01*
X4073019Y3370780D02*
X4168257Y3370780D01*
X4168257Y3370780D02*
X4311114Y3323161D01*
X4311114Y3323161D02*
X4358733Y3275542D01*
X5215876Y3037447D02*
X5215876Y2370780D01*
X4977781Y3418400D02*
X4739686Y2704114D01*
X4739686Y2704114D02*
X5358733Y2704114D01*
X-12916666Y21029419D02*
X-12964285Y20981800D01*
X-12964285Y20981800D02*
X-13107142Y20934180D01*
X-13107142Y20934180D02*
X-13202380Y20934180D01*
X-13202380Y20934180D02*
X-13345237Y20981800D01*
X-13345237Y20981800D02*
X-13440475Y21077038D01*
X-13440475Y21077038D02*
X-13488094Y21172276D01*
X-13488094Y21172276D02*
X-13535713Y21362752D01*
X-13535713Y21362752D02*
X-13535713Y21505609D01*
X-13535713Y21505609D02*
X-13488094Y21696085D01*
X-13488094Y21696085D02*
X-13440475Y21791323D01*
X-13440475Y21791323D02*
X-13345237Y21886561D01*
X-13345237Y21886561D02*
X-13202380Y21934180D01*
X-13202380Y21934180D02*
X-13107142Y21934180D01*
X-13107142Y21934180D02*
X-12964285Y21886561D01*
X-12964285Y21886561D02*
X-12916666Y21838942D01*
X-12583332Y21934180D02*
X-11916666Y21934180D01*
X-11916666Y21934180D02*
X-12345237Y20934180D01*
X19645142Y21045180D02*
X19311809Y21521371D01*
X19073714Y21045180D02*
X19073714Y22045180D01*
X19073714Y22045180D02*
X19454666Y22045180D01*
X19454666Y22045180D02*
X19549904Y21997561D01*
X19549904Y21997561D02*
X19597523Y21949942D01*
X19597523Y21949942D02*
X19645142Y21854704D01*
X19645142Y21854704D02*
X19645142Y21711847D01*
X19645142Y21711847D02*
X19597523Y21616609D01*
X19597523Y21616609D02*
X19549904Y21568990D01*
X19549904Y21568990D02*
X19454666Y21521371D01*
X19454666Y21521371D02*
X19073714Y21521371D01*
X20597523Y21045180D02*
X20026095Y21045180D01*
X20311809Y21045180D02*
X20311809Y22045180D01*
X20311809Y22045180D02*
X20216571Y21902323D01*
X20216571Y21902323D02*
X20121333Y21807085D01*
X20121333Y21807085D02*
X20026095Y21759466D01*
X20930857Y22045180D02*
X21597523Y22045180D01*
X21597523Y22045180D02*
X21168952Y21045180D01*
X-41916666Y-2712295D02*
X-41916666Y-3283723D01*
X-41916666Y-3283723D02*
X-41954761Y-3398009D01*
X-41954761Y-3398009D02*
X-42030952Y-3474200D01*
X-42030952Y-3474200D02*
X-42145237Y-3512295D01*
X-42145237Y-3512295D02*
X-42221428Y-3512295D01*
X-41611904Y-2712295D02*
X-41116666Y-2712295D01*
X-41116666Y-2712295D02*
X-41383332Y-3017057D01*
X-41383332Y-3017057D02*
X-41269047Y-3017057D01*
X-41269047Y-3017057D02*
X-41192856Y-3055152D01*
X-41192856Y-3055152D02*
X-41154761Y-3093247D01*
X-41154761Y-3093247D02*
X-41116666Y-3169438D01*
X-41116666Y-3169438D02*
X-41116666Y-3359914D01*
X-41116666Y-3359914D02*
X-41154761Y-3436104D01*
X-41154761Y-3436104D02*
X-41192856Y-3474200D01*
X-41192856Y-3474200D02*
X-41269047Y-3512295D01*
X-41269047Y-3512295D02*
X-41497618Y-3512295D01*
X-41497618Y-3512295D02*
X-41573809Y-3474200D01*
X-41573809Y-3474200D02*
X-41611904Y-3436104D01*
X58683333Y12545180D02*
X58207143Y12545180D01*
X58207143Y12545180D02*
X58207143Y13545180D01*
X58969048Y13449942D02*
X59016667Y13497561D01*
X59016667Y13497561D02*
X59111905Y13545180D01*
X59111905Y13545180D02*
X59350000Y13545180D01*
X59350000Y13545180D02*
X59445238Y13497561D01*
X59445238Y13497561D02*
X59492857Y13449942D01*
X59492857Y13449942D02*
X59540476Y13354704D01*
X59540476Y13354704D02*
X59540476Y13259466D01*
X59540476Y13259466D02*
X59492857Y13116609D01*
X59492857Y13116609D02*
X58921429Y12545180D01*
X58921429Y12545180D02*
X59540476Y12545180D01*
X-32464285Y2013895D02*
X-32502381Y1975800D01*
X-32502381Y1975800D02*
X-32616666Y1937704D01*
X-32616666Y1937704D02*
X-32692857Y1937704D01*
X-32692857Y1937704D02*
X-32807143Y1975800D01*
X-32807143Y1975800D02*
X-32883333Y2051990D01*
X-32883333Y2051990D02*
X-32921428Y2128180D01*
X-32921428Y2128180D02*
X-32959524Y2280561D01*
X-32959524Y2280561D02*
X-32959524Y2394847D01*
X-32959524Y2394847D02*
X-32921428Y2547228D01*
X-32921428Y2547228D02*
X-32883333Y2623419D01*
X-32883333Y2623419D02*
X-32807143Y2699609D01*
X-32807143Y2699609D02*
X-32692857Y2737704D01*
X-32692857Y2737704D02*
X-32616666Y2737704D01*
X-32616666Y2737704D02*
X-32502381Y2699609D01*
X-32502381Y2699609D02*
X-32464285Y2661514D01*
X-32159524Y2661514D02*
X-32121428Y2699609D01*
X-32121428Y2699609D02*
X-32045238Y2737704D01*
X-32045238Y2737704D02*
X-31854762Y2737704D01*
X-31854762Y2737704D02*
X-31778571Y2699609D01*
X-31778571Y2699609D02*
X-31740476Y2661514D01*
X-31740476Y2661514D02*
X-31702381Y2585323D01*
X-31702381Y2585323D02*
X-31702381Y2509133D01*
X-31702381Y2509133D02*
X-31740476Y2394847D01*
X-31740476Y2394847D02*
X-32197619Y1937704D01*
X-32197619Y1937704D02*
X-31702381Y1937704D01*
X-31016666Y2737704D02*
X-31169047Y2737704D01*
X-31169047Y2737704D02*
X-31245238Y2699609D01*
X-31245238Y2699609D02*
X-31283333Y2661514D01*
X-31283333Y2661514D02*
X-31359523Y2547228D01*
X-31359523Y2547228D02*
X-31397619Y2394847D01*
X-31397619Y2394847D02*
X-31397619Y2090085D01*
X-31397619Y2090085D02*
X-31359523Y2013895D01*
X-31359523Y2013895D02*
X-31321428Y1975800D01*
X-31321428Y1975800D02*
X-31245238Y1937704D01*
X-31245238Y1937704D02*
X-31092857Y1937704D01*
X-31092857Y1937704D02*
X-31016666Y1975800D01*
X-31016666Y1975800D02*
X-30978571Y2013895D01*
X-30978571Y2013895D02*
X-30940476Y2090085D01*
X-30940476Y2090085D02*
X-30940476Y2280561D01*
X-30940476Y2280561D02*
X-30978571Y2356752D01*
X-30978571Y2356752D02*
X-31016666Y2394847D01*
X-31016666Y2394847D02*
X-31092857Y2432942D01*
X-31092857Y2432942D02*
X-31245238Y2432942D01*
X-31245238Y2432942D02*
X-31321428Y2394847D01*
X-31321428Y2394847D02*
X-31359523Y2356752D01*
X-31359523Y2356752D02*
X-31397619Y2280561D01*
X-25154856Y8940419D02*
X-25202475Y8892800D01*
X-25202475Y8892800D02*
X-25345332Y8845180D01*
X-25345332Y8845180D02*
X-25440570Y8845180D01*
X-25440570Y8845180D02*
X-25583427Y8892800D01*
X-25583427Y8892800D02*
X-25678665Y8988038D01*
X-25678665Y8988038D02*
X-25726284Y9083276D01*
X-25726284Y9083276D02*
X-25773903Y9273752D01*
X-25773903Y9273752D02*
X-25773903Y9416609D01*
X-25773903Y9416609D02*
X-25726284Y9607085D01*
X-25726284Y9607085D02*
X-25678665Y9702323D01*
X-25678665Y9702323D02*
X-25583427Y9797561D01*
X-25583427Y9797561D02*
X-25440570Y9845180D01*
X-25440570Y9845180D02*
X-25345332Y9845180D01*
X-25345332Y9845180D02*
X-25202475Y9797561D01*
X-25202475Y9797561D02*
X-25154856Y9749942D01*
X-24773903Y9749942D02*
X-24726284Y9797561D01*
X-24726284Y9797561D02*
X-24631046Y9845180D01*
X-24631046Y9845180D02*
X-24392951Y9845180D01*
X-24392951Y9845180D02*
X-24297713Y9797561D01*
X-24297713Y9797561D02*
X-24250094Y9749942D01*
X-24250094Y9749942D02*
X-24202475Y9654704D01*
X-24202475Y9654704D02*
X-24202475Y9559466D01*
X-24202475Y9559466D02*
X-24250094Y9416609D01*
X-24250094Y9416609D02*
X-24821522Y8845180D01*
X-24821522Y8845180D02*
X-24202475Y8845180D01*
X-23297713Y9845180D02*
X-23773903Y9845180D01*
X-23773903Y9845180D02*
X-23821522Y9368990D01*
X-23821522Y9368990D02*
X-23773903Y9416609D01*
X-23773903Y9416609D02*
X-23678665Y9464228D01*
X-23678665Y9464228D02*
X-23440570Y9464228D01*
X-23440570Y9464228D02*
X-23345332Y9416609D01*
X-23345332Y9416609D02*
X-23297713Y9368990D01*
X-23297713Y9368990D02*
X-23250094Y9273752D01*
X-23250094Y9273752D02*
X-23250094Y9035657D01*
X-23250094Y9035657D02*
X-23297713Y8940419D01*
X-23297713Y8940419D02*
X-23345332Y8892800D01*
X-23345332Y8892800D02*
X-23440570Y8845180D01*
X-23440570Y8845180D02*
X-23678665Y8845180D01*
X-23678665Y8845180D02*
X-23773903Y8892800D01*
X-23773903Y8892800D02*
X-23821522Y8940419D01*
X15483333Y-14759580D02*
X15435714Y-14807200D01*
X15435714Y-14807200D02*
X15292857Y-14854819D01*
X15292857Y-14854819D02*
X15197619Y-14854819D01*
X15197619Y-14854819D02*
X15054762Y-14807200D01*
X15054762Y-14807200D02*
X14959524Y-14711961D01*
X14959524Y-14711961D02*
X14911905Y-14616723D01*
X14911905Y-14616723D02*
X14864286Y-14426247D01*
X14864286Y-14426247D02*
X14864286Y-14283390D01*
X14864286Y-14283390D02*
X14911905Y-14092914D01*
X14911905Y-14092914D02*
X14959524Y-13997676D01*
X14959524Y-13997676D02*
X15054762Y-13902438D01*
X15054762Y-13902438D02*
X15197619Y-13854819D01*
X15197619Y-13854819D02*
X15292857Y-13854819D01*
X15292857Y-13854819D02*
X15435714Y-13902438D01*
X15435714Y-13902438D02*
X15483333Y-13950057D01*
X16054762Y-14283390D02*
X15959524Y-14235771D01*
X15959524Y-14235771D02*
X15911905Y-14188152D01*
X15911905Y-14188152D02*
X15864286Y-14092914D01*
X15864286Y-14092914D02*
X15864286Y-14045295D01*
X15864286Y-14045295D02*
X15911905Y-13950057D01*
X15911905Y-13950057D02*
X15959524Y-13902438D01*
X15959524Y-13902438D02*
X16054762Y-13854819D01*
X16054762Y-13854819D02*
X16245238Y-13854819D01*
X16245238Y-13854819D02*
X16340476Y-13902438D01*
X16340476Y-13902438D02*
X16388095Y-13950057D01*
X16388095Y-13950057D02*
X16435714Y-14045295D01*
X16435714Y-14045295D02*
X16435714Y-14092914D01*
X16435714Y-14092914D02*
X16388095Y-14188152D01*
X16388095Y-14188152D02*
X16340476Y-14235771D01*
X16340476Y-14235771D02*
X16245238Y-14283390D01*
X16245238Y-14283390D02*
X16054762Y-14283390D01*
X16054762Y-14283390D02*
X15959524Y-14331009D01*
X15959524Y-14331009D02*
X15911905Y-14378628D01*
X15911905Y-14378628D02*
X15864286Y-14473866D01*
X15864286Y-14473866D02*
X15864286Y-14664342D01*
X15864286Y-14664342D02*
X15911905Y-14759580D01*
X15911905Y-14759580D02*
X15959524Y-14807200D01*
X15959524Y-14807200D02*
X16054762Y-14854819D01*
X16054762Y-14854819D02*
X16245238Y-14854819D01*
X16245238Y-14854819D02*
X16340476Y-14807200D01*
X16340476Y-14807200D02*
X16388095Y-14759580D01*
X16388095Y-14759580D02*
X16435714Y-14664342D01*
X16435714Y-14664342D02*
X16435714Y-14473866D01*
X16435714Y-14473866D02*
X16388095Y-14378628D01*
X16388095Y-14378628D02*
X16340476Y-14331009D01*
X16340476Y-14331009D02*
X16245238Y-14283390D01*
D12*
X56857409Y26201138D02*
X57462171Y26201138D01*
X56736457Y25838281D02*
X57159790Y27108281D01*
X57159790Y27108281D02*
X57583124Y25838281D01*
X58006456Y25838281D02*
X58006456Y27108281D01*
X58006456Y27108281D02*
X58732171Y25838281D01*
X58732171Y25838281D02*
X58732171Y27108281D01*
X59155504Y27108281D02*
X59881218Y27108281D01*
X59518361Y25838281D02*
X59518361Y27108281D01*
X60969790Y25838281D02*
X60244075Y25838281D01*
X60606932Y25838281D02*
X60606932Y27108281D01*
X60606932Y27108281D02*
X60485980Y26926853D01*
X60485980Y26926853D02*
X60365028Y26805900D01*
X60365028Y26805900D02*
X60244075Y26745424D01*
D11*
X-29104857Y18045180D02*
X-29438190Y18521371D01*
X-29676285Y18045180D02*
X-29676285Y19045180D01*
X-29676285Y19045180D02*
X-29295333Y19045180D01*
X-29295333Y19045180D02*
X-29200095Y18997561D01*
X-29200095Y18997561D02*
X-29152476Y18949942D01*
X-29152476Y18949942D02*
X-29104857Y18854704D01*
X-29104857Y18854704D02*
X-29104857Y18711847D01*
X-29104857Y18711847D02*
X-29152476Y18616609D01*
X-29152476Y18616609D02*
X-29200095Y18568990D01*
X-29200095Y18568990D02*
X-29295333Y18521371D01*
X-29295333Y18521371D02*
X-29676285Y18521371D01*
X-28152476Y18045180D02*
X-28723904Y18045180D01*
X-28438190Y18045180D02*
X-28438190Y19045180D01*
X-28438190Y19045180D02*
X-28533428Y18902323D01*
X-28533428Y18902323D02*
X-28628666Y18807085D01*
X-28628666Y18807085D02*
X-28723904Y18759466D01*
X-27295333Y18711847D02*
X-27295333Y18045180D01*
X-27533428Y19092800D02*
X-27771523Y18378514D01*
X-27771523Y18378514D02*
X-27152476Y18378514D01*
X13333Y-27594818D02*
X-462856Y-27594818D01*
X-462856Y-27594818D02*
X-462856Y-26594818D01*
X822857Y-26594818D02*
X346667Y-26594818D01*
X346667Y-26594818D02*
X299048Y-27071008D01*
X299048Y-27071008D02*
X346667Y-27023389D01*
X346667Y-27023389D02*
X441905Y-26975770D01*
X441905Y-26975770D02*
X680000Y-26975770D01*
X680000Y-26975770D02*
X775238Y-27023389D01*
X775238Y-27023389D02*
X822857Y-27071008D01*
X822857Y-27071008D02*
X870476Y-27166246D01*
X870476Y-27166246D02*
X870476Y-27404341D01*
X870476Y-27404341D02*
X822857Y-27499579D01*
X822857Y-27499579D02*
X775238Y-27547199D01*
X775238Y-27547199D02*
X680000Y-27594818D01*
X680000Y-27594818D02*
X441905Y-27594818D01*
X441905Y-27594818D02*
X346667Y-27547199D01*
X346667Y-27547199D02*
X299048Y-27499579D01*
X545180Y-15432700D02*
X307085Y-15432700D01*
X402323Y-15194605D02*
X307085Y-15432700D01*
X307085Y-15432700D02*
X402323Y-15670795D01*
X116609Y-15289843D02*
X307085Y-15432700D01*
X307085Y-15432700D02*
X116609Y-15575557D01*
X-2974819Y-25509999D02*
X-3212914Y-25509999D01*
X-3117676Y-25271904D02*
X-3212914Y-25509999D01*
X-3212914Y-25509999D02*
X-3117676Y-25748094D01*
X-3403390Y-25367142D02*
X-3212914Y-25509999D01*
X-3212914Y-25509999D02*
X-3403390Y-25652856D01*
X34596142Y23640419D02*
X34548523Y23592800D01*
X34548523Y23592800D02*
X34405666Y23545180D01*
X34405666Y23545180D02*
X34310428Y23545180D01*
X34310428Y23545180D02*
X34167571Y23592800D01*
X34167571Y23592800D02*
X34072333Y23688038D01*
X34072333Y23688038D02*
X34024714Y23783276D01*
X34024714Y23783276D02*
X33977095Y23973752D01*
X33977095Y23973752D02*
X33977095Y24116609D01*
X33977095Y24116609D02*
X34024714Y24307085D01*
X34024714Y24307085D02*
X34072333Y24402323D01*
X34072333Y24402323D02*
X34167571Y24497561D01*
X34167571Y24497561D02*
X34310428Y24545180D01*
X34310428Y24545180D02*
X34405666Y24545180D01*
X34405666Y24545180D02*
X34548523Y24497561D01*
X34548523Y24497561D02*
X34596142Y24449942D01*
X35548523Y23545180D02*
X34977095Y23545180D01*
X35262809Y23545180D02*
X35262809Y24545180D01*
X35262809Y24545180D02*
X35167571Y24402323D01*
X35167571Y24402323D02*
X35072333Y24307085D01*
X35072333Y24307085D02*
X34977095Y24259466D01*
X35881857Y24545180D02*
X36500904Y24545180D01*
X36500904Y24545180D02*
X36167571Y24164228D01*
X36167571Y24164228D02*
X36310428Y24164228D01*
X36310428Y24164228D02*
X36405666Y24116609D01*
X36405666Y24116609D02*
X36453285Y24068990D01*
X36453285Y24068990D02*
X36500904Y23973752D01*
X36500904Y23973752D02*
X36500904Y23735657D01*
X36500904Y23735657D02*
X36453285Y23640419D01*
X36453285Y23640419D02*
X36405666Y23592800D01*
X36405666Y23592800D02*
X36310428Y23545180D01*
X36310428Y23545180D02*
X36024714Y23545180D01*
X36024714Y23545180D02*
X35929476Y23592800D01*
X35929476Y23592800D02*
X35881857Y23640419D01*
X-588094Y-9704819D02*
X-588094Y-8704819D01*
X-588094Y-8704819D02*
X-349999Y-8704819D01*
X-349999Y-8704819D02*
X-207142Y-8752438D01*
X-207142Y-8752438D02*
X-111904Y-8847676D01*
X-111904Y-8847676D02*
X-64285Y-8942914D01*
X-64285Y-8942914D02*
X-16666Y-9133390D01*
X-16666Y-9133390D02*
X-16666Y-9276247D01*
X-16666Y-9276247D02*
X-64285Y-9466723D01*
X-64285Y-9466723D02*
X-111904Y-9561961D01*
X-111904Y-9561961D02*
X-207142Y-9657200D01*
X-207142Y-9657200D02*
X-349999Y-9704819D01*
X-349999Y-9704819D02*
X-588094Y-9704819D01*
X316667Y-8704819D02*
X935714Y-8704819D01*
X935714Y-8704819D02*
X602381Y-9085771D01*
X602381Y-9085771D02*
X745238Y-9085771D01*
X745238Y-9085771D02*
X840476Y-9133390D01*
X840476Y-9133390D02*
X888095Y-9181009D01*
X888095Y-9181009D02*
X935714Y-9276247D01*
X935714Y-9276247D02*
X935714Y-9514342D01*
X935714Y-9514342D02*
X888095Y-9609580D01*
X888095Y-9609580D02*
X840476Y-9657200D01*
X840476Y-9657200D02*
X745238Y-9704819D01*
X745238Y-9704819D02*
X459524Y-9704819D01*
X459524Y-9704819D02*
X364286Y-9657200D01*
X364286Y-9657200D02*
X316667Y-9609580D01*
X-51116666Y-2884593D02*
X-51449999Y-2408402D01*
X-51688094Y-2884593D02*
X-51688094Y-1884593D01*
X-51688094Y-1884593D02*
X-51307142Y-1884593D01*
X-51307142Y-1884593D02*
X-51211904Y-1932212D01*
X-51211904Y-1932212D02*
X-51164285Y-1979831D01*
X-51164285Y-1979831D02*
X-51116666Y-2075069D01*
X-51116666Y-2075069D02*
X-51116666Y-2217926D01*
X-51116666Y-2217926D02*
X-51164285Y-2313164D01*
X-51164285Y-2313164D02*
X-51211904Y-2360783D01*
X-51211904Y-2360783D02*
X-51307142Y-2408402D01*
X-51307142Y-2408402D02*
X-51688094Y-2408402D01*
X-50735713Y-1979831D02*
X-50688094Y-1932212D01*
X-50688094Y-1932212D02*
X-50592856Y-1884593D01*
X-50592856Y-1884593D02*
X-50354761Y-1884593D01*
X-50354761Y-1884593D02*
X-50259523Y-1932212D01*
X-50259523Y-1932212D02*
X-50211904Y-1979831D01*
X-50211904Y-1979831D02*
X-50164285Y-2075069D01*
X-50164285Y-2075069D02*
X-50164285Y-2170307D01*
X-50164285Y-2170307D02*
X-50211904Y-2313164D01*
X-50211904Y-2313164D02*
X-50783332Y-2884593D01*
X-50783332Y-2884593D02*
X-50164285Y-2884593D01*
X-32464285Y5613895D02*
X-32502381Y5575800D01*
X-32502381Y5575800D02*
X-32616666Y5537704D01*
X-32616666Y5537704D02*
X-32692857Y5537704D01*
X-32692857Y5537704D02*
X-32807143Y5575800D01*
X-32807143Y5575800D02*
X-32883333Y5651990D01*
X-32883333Y5651990D02*
X-32921428Y5728180D01*
X-32921428Y5728180D02*
X-32959524Y5880561D01*
X-32959524Y5880561D02*
X-32959524Y5994847D01*
X-32959524Y5994847D02*
X-32921428Y6147228D01*
X-32921428Y6147228D02*
X-32883333Y6223419D01*
X-32883333Y6223419D02*
X-32807143Y6299609D01*
X-32807143Y6299609D02*
X-32692857Y6337704D01*
X-32692857Y6337704D02*
X-32616666Y6337704D01*
X-32616666Y6337704D02*
X-32502381Y6299609D01*
X-32502381Y6299609D02*
X-32464285Y6261514D01*
X-32159524Y6261514D02*
X-32121428Y6299609D01*
X-32121428Y6299609D02*
X-32045238Y6337704D01*
X-32045238Y6337704D02*
X-31854762Y6337704D01*
X-31854762Y6337704D02*
X-31778571Y6299609D01*
X-31778571Y6299609D02*
X-31740476Y6261514D01*
X-31740476Y6261514D02*
X-31702381Y6185323D01*
X-31702381Y6185323D02*
X-31702381Y6109133D01*
X-31702381Y6109133D02*
X-31740476Y5994847D01*
X-31740476Y5994847D02*
X-32197619Y5537704D01*
X-32197619Y5537704D02*
X-31702381Y5537704D01*
X-31435714Y6337704D02*
X-30940476Y6337704D01*
X-30940476Y6337704D02*
X-31207142Y6032942D01*
X-31207142Y6032942D02*
X-31092857Y6032942D01*
X-31092857Y6032942D02*
X-31016666Y5994847D01*
X-31016666Y5994847D02*
X-30978571Y5956752D01*
X-30978571Y5956752D02*
X-30940476Y5880561D01*
X-30940476Y5880561D02*
X-30940476Y5690085D01*
X-30940476Y5690085D02*
X-30978571Y5613895D01*
X-30978571Y5613895D02*
X-31016666Y5575800D01*
X-31016666Y5575800D02*
X-31092857Y5537704D01*
X-31092857Y5537704D02*
X-31321428Y5537704D01*
X-31321428Y5537704D02*
X-31397619Y5575800D01*
X-31397619Y5575800D02*
X-31435714Y5613895D01*
X-31845238Y24512442D02*
X-31940476Y24560061D01*
X-31940476Y24560061D02*
X-32035714Y24655300D01*
X-32035714Y24655300D02*
X-32178571Y24798157D01*
X-32178571Y24798157D02*
X-32273809Y24845776D01*
X-32273809Y24845776D02*
X-32369047Y24845776D01*
X-32321428Y24607680D02*
X-32416666Y24655300D01*
X-32416666Y24655300D02*
X-32511904Y24750538D01*
X-32511904Y24750538D02*
X-32559523Y24941014D01*
X-32559523Y24941014D02*
X-32559523Y25274347D01*
X-32559523Y25274347D02*
X-32511904Y25464823D01*
X-32511904Y25464823D02*
X-32416666Y25560061D01*
X-32416666Y25560061D02*
X-32321428Y25607680D01*
X-32321428Y25607680D02*
X-32130952Y25607680D01*
X-32130952Y25607680D02*
X-32035714Y25560061D01*
X-32035714Y25560061D02*
X-31940476Y25464823D01*
X-31940476Y25464823D02*
X-31892857Y25274347D01*
X-31892857Y25274347D02*
X-31892857Y24941014D01*
X-31892857Y24941014D02*
X-31940476Y24750538D01*
X-31940476Y24750538D02*
X-32035714Y24655300D01*
X-32035714Y24655300D02*
X-32130952Y24607680D01*
X-32130952Y24607680D02*
X-32321428Y24607680D01*
X-31035714Y25274347D02*
X-31035714Y24607680D01*
X-31273809Y25655300D02*
X-31511904Y24941014D01*
X-31511904Y24941014D02*
X-30892857Y24941014D01*
X-32464285Y3863895D02*
X-32502381Y3825800D01*
X-32502381Y3825800D02*
X-32616666Y3787704D01*
X-32616666Y3787704D02*
X-32692857Y3787704D01*
X-32692857Y3787704D02*
X-32807143Y3825800D01*
X-32807143Y3825800D02*
X-32883333Y3901990D01*
X-32883333Y3901990D02*
X-32921428Y3978180D01*
X-32921428Y3978180D02*
X-32959524Y4130561D01*
X-32959524Y4130561D02*
X-32959524Y4244847D01*
X-32959524Y4244847D02*
X-32921428Y4397228D01*
X-32921428Y4397228D02*
X-32883333Y4473419D01*
X-32883333Y4473419D02*
X-32807143Y4549609D01*
X-32807143Y4549609D02*
X-32692857Y4587704D01*
X-32692857Y4587704D02*
X-32616666Y4587704D01*
X-32616666Y4587704D02*
X-32502381Y4549609D01*
X-32502381Y4549609D02*
X-32464285Y4511514D01*
X-32159524Y4511514D02*
X-32121428Y4549609D01*
X-32121428Y4549609D02*
X-32045238Y4587704D01*
X-32045238Y4587704D02*
X-31854762Y4587704D01*
X-31854762Y4587704D02*
X-31778571Y4549609D01*
X-31778571Y4549609D02*
X-31740476Y4511514D01*
X-31740476Y4511514D02*
X-31702381Y4435323D01*
X-31702381Y4435323D02*
X-31702381Y4359133D01*
X-31702381Y4359133D02*
X-31740476Y4244847D01*
X-31740476Y4244847D02*
X-32197619Y3787704D01*
X-32197619Y3787704D02*
X-31702381Y3787704D01*
X-31016666Y4321038D02*
X-31016666Y3787704D01*
X-31207142Y4625800D02*
X-31397619Y4054371D01*
X-31397619Y4054371D02*
X-30902380Y4054371D01*
X-19059523Y-12254819D02*
X-18726190Y-13254819D01*
X-18726190Y-13254819D02*
X-18392857Y-12254819D01*
X-18059523Y-13254819D02*
X-18059523Y-12254819D01*
X-18059523Y-12254819D02*
X-17821428Y-12254819D01*
X-17821428Y-12254819D02*
X-17678571Y-12302438D01*
X-17678571Y-12302438D02*
X-17583333Y-12397676D01*
X-17583333Y-12397676D02*
X-17535714Y-12492914D01*
X-17535714Y-12492914D02*
X-17488095Y-12683390D01*
X-17488095Y-12683390D02*
X-17488095Y-12826247D01*
X-17488095Y-12826247D02*
X-17535714Y-13016723D01*
X-17535714Y-13016723D02*
X-17583333Y-13111961D01*
X-17583333Y-13111961D02*
X-17678571Y-13207200D01*
X-17678571Y-13207200D02*
X-17821428Y-13254819D01*
X-17821428Y-13254819D02*
X-18059523Y-13254819D01*
X-17059523Y-13254819D02*
X-17059523Y-12254819D01*
X-17059523Y-12254819D02*
X-16821428Y-12254819D01*
X-16821428Y-12254819D02*
X-16678571Y-12302438D01*
X-16678571Y-12302438D02*
X-16583333Y-12397676D01*
X-16583333Y-12397676D02*
X-16535714Y-12492914D01*
X-16535714Y-12492914D02*
X-16488095Y-12683390D01*
X-16488095Y-12683390D02*
X-16488095Y-12826247D01*
X-16488095Y-12826247D02*
X-16535714Y-13016723D01*
X-16535714Y-13016723D02*
X-16583333Y-13111961D01*
X-16583333Y-13111961D02*
X-16678571Y-13207200D01*
X-16678571Y-13207200D02*
X-16821428Y-13254819D01*
X-16821428Y-13254819D02*
X-17059523Y-13254819D01*
X-15535714Y-13254819D02*
X-16107142Y-13254819D01*
X-15821428Y-13254819D02*
X-15821428Y-12254819D01*
X-15821428Y-12254819D02*
X-15916666Y-12397676D01*
X-15916666Y-12397676D02*
X-16011904Y-12492914D01*
X-16011904Y-12492914D02*
X-16107142Y-12540533D01*
X34707142Y21140419D02*
X34659523Y21092800D01*
X34659523Y21092800D02*
X34516666Y21045180D01*
X34516666Y21045180D02*
X34421428Y21045180D01*
X34421428Y21045180D02*
X34278571Y21092800D01*
X34278571Y21092800D02*
X34183333Y21188038D01*
X34183333Y21188038D02*
X34135714Y21283276D01*
X34135714Y21283276D02*
X34088095Y21473752D01*
X34088095Y21473752D02*
X34088095Y21616609D01*
X34088095Y21616609D02*
X34135714Y21807085D01*
X34135714Y21807085D02*
X34183333Y21902323D01*
X34183333Y21902323D02*
X34278571Y21997561D01*
X34278571Y21997561D02*
X34421428Y22045180D01*
X34421428Y22045180D02*
X34516666Y22045180D01*
X34516666Y22045180D02*
X34659523Y21997561D01*
X34659523Y21997561D02*
X34707142Y21949942D01*
X35659523Y21045180D02*
X35088095Y21045180D01*
X35373809Y21045180D02*
X35373809Y22045180D01*
X35373809Y22045180D02*
X35278571Y21902323D01*
X35278571Y21902323D02*
X35183333Y21807085D01*
X35183333Y21807085D02*
X35088095Y21759466D01*
X36516666Y22045180D02*
X36326190Y22045180D01*
X36326190Y22045180D02*
X36230952Y21997561D01*
X36230952Y21997561D02*
X36183333Y21949942D01*
X36183333Y21949942D02*
X36088095Y21807085D01*
X36088095Y21807085D02*
X36040476Y21616609D01*
X36040476Y21616609D02*
X36040476Y21235657D01*
X36040476Y21235657D02*
X36088095Y21140419D01*
X36088095Y21140419D02*
X36135714Y21092800D01*
X36135714Y21092800D02*
X36230952Y21045180D01*
X36230952Y21045180D02*
X36421428Y21045180D01*
X36421428Y21045180D02*
X36516666Y21092800D01*
X36516666Y21092800D02*
X36564285Y21140419D01*
X36564285Y21140419D02*
X36611904Y21235657D01*
X36611904Y21235657D02*
X36611904Y21473752D01*
X36611904Y21473752D02*
X36564285Y21568990D01*
X36564285Y21568990D02*
X36516666Y21616609D01*
X36516666Y21616609D02*
X36421428Y21664228D01*
X36421428Y21664228D02*
X36230952Y21664228D01*
X36230952Y21664228D02*
X36135714Y21616609D01*
X36135714Y21616609D02*
X36088095Y21568990D01*
X36088095Y21568990D02*
X36040476Y21473752D01*
X45735733Y20090419D02*
X45688114Y20042800D01*
X45688114Y20042800D02*
X45545257Y19995180D01*
X45545257Y19995180D02*
X45450019Y19995180D01*
X45450019Y19995180D02*
X45307162Y20042800D01*
X45307162Y20042800D02*
X45211924Y20138038D01*
X45211924Y20138038D02*
X45164305Y20233276D01*
X45164305Y20233276D02*
X45116686Y20423752D01*
X45116686Y20423752D02*
X45116686Y20566609D01*
X45116686Y20566609D02*
X45164305Y20757085D01*
X45164305Y20757085D02*
X45211924Y20852323D01*
X45211924Y20852323D02*
X45307162Y20947561D01*
X45307162Y20947561D02*
X45450019Y20995180D01*
X45450019Y20995180D02*
X45545257Y20995180D01*
X45545257Y20995180D02*
X45688114Y20947561D01*
X45688114Y20947561D02*
X45735733Y20899942D01*
X46735733Y19995180D02*
X46402400Y20471371D01*
X46164305Y19995180D02*
X46164305Y20995180D01*
X46164305Y20995180D02*
X46545257Y20995180D01*
X46545257Y20995180D02*
X46640495Y20947561D01*
X46640495Y20947561D02*
X46688114Y20899942D01*
X46688114Y20899942D02*
X46735733Y20804704D01*
X46735733Y20804704D02*
X46735733Y20661847D01*
X46735733Y20661847D02*
X46688114Y20566609D01*
X46688114Y20566609D02*
X46640495Y20518990D01*
X46640495Y20518990D02*
X46545257Y20471371D01*
X46545257Y20471371D02*
X46164305Y20471371D01*
X47688114Y19995180D02*
X47116686Y19995180D01*
X47402400Y19995180D02*
X47402400Y20995180D01*
X47402400Y20995180D02*
X47307162Y20852323D01*
X47307162Y20852323D02*
X47211924Y20757085D01*
X47211924Y20757085D02*
X47116686Y20709466D01*
X44400000Y22445179D02*
X44400000Y22207084D01*
X44161905Y22302322D02*
X44400000Y22207084D01*
X44400000Y22207084D02*
X44638095Y22302322D01*
X44257143Y22016608D02*
X44400000Y22207084D01*
X44400000Y22207084D02*
X44542857Y22016608D01*
X44400000Y23245179D02*
X44400000Y23007084D01*
X44161905Y23102322D02*
X44400000Y23007084D01*
X44400000Y23007084D02*
X44638095Y23102322D01*
X44257143Y22816608D02*
X44400000Y23007084D01*
X44400000Y23007084D02*
X44542857Y22816608D01*
X-2788094Y-9704819D02*
X-2788094Y-8704819D01*
X-2788094Y-8704819D02*
X-2549999Y-8704819D01*
X-2549999Y-8704819D02*
X-2407142Y-8752438D01*
X-2407142Y-8752438D02*
X-2311904Y-8847676D01*
X-2311904Y-8847676D02*
X-2264285Y-8942914D01*
X-2264285Y-8942914D02*
X-2216666Y-9133390D01*
X-2216666Y-9133390D02*
X-2216666Y-9276247D01*
X-2216666Y-9276247D02*
X-2264285Y-9466723D01*
X-2264285Y-9466723D02*
X-2311904Y-9561961D01*
X-2311904Y-9561961D02*
X-2407142Y-9657200D01*
X-2407142Y-9657200D02*
X-2549999Y-9704819D01*
X-2549999Y-9704819D02*
X-2788094Y-9704819D01*
X-1264285Y-9704819D02*
X-1835713Y-9704819D01*
X-1549999Y-9704819D02*
X-1549999Y-8704819D01*
X-1549999Y-8704819D02*
X-1645237Y-8847676D01*
X-1645237Y-8847676D02*
X-1740475Y-8942914D01*
X-1740475Y-8942914D02*
X-1835713Y-8990533D01*
X30711905Y2845185D02*
X30711905Y2035662D01*
X30711905Y2035662D02*
X30759524Y1940424D01*
X30759524Y1940424D02*
X30807143Y1892805D01*
X30807143Y1892805D02*
X30902381Y1845185D01*
X30902381Y1845185D02*
X31092857Y1845185D01*
X31092857Y1845185D02*
X31188095Y1892805D01*
X31188095Y1892805D02*
X31235714Y1940424D01*
X31235714Y1940424D02*
X31283333Y2035662D01*
X31283333Y2035662D02*
X31283333Y2845185D01*
X32283333Y1845185D02*
X31711905Y1845185D01*
X31997619Y1845185D02*
X31997619Y2845185D01*
X31997619Y2845185D02*
X31902381Y2702328D01*
X31902381Y2702328D02*
X31807143Y2607090D01*
X31807143Y2607090D02*
X31711905Y2559471D01*
X33235714Y1845185D02*
X32664286Y1845185D01*
X32950000Y1845185D02*
X32950000Y2845185D01*
X32950000Y2845185D02*
X32854762Y2702328D01*
X32854762Y2702328D02*
X32759524Y2607090D01*
X32759524Y2607090D02*
X32664286Y2559471D01*
X22300000Y10745184D02*
X22300000Y10507089D01*
X22061905Y10602327D02*
X22300000Y10507089D01*
X22300000Y10507089D02*
X22538095Y10602327D01*
X22157143Y10316613D02*
X22300000Y10507089D01*
X22300000Y10507089D02*
X22442857Y10316613D01*
X-24716666Y4048180D02*
X-25192856Y4048180D01*
X-25192856Y4048180D02*
X-25192856Y5048180D01*
X-23954761Y5048180D02*
X-24145237Y5048180D01*
X-24145237Y5048180D02*
X-24240475Y5000561D01*
X-24240475Y5000561D02*
X-24288094Y4952942D01*
X-24288094Y4952942D02*
X-24383332Y4810085D01*
X-24383332Y4810085D02*
X-24430951Y4619609D01*
X-24430951Y4619609D02*
X-24430951Y4238657D01*
X-24430951Y4238657D02*
X-24383332Y4143419D01*
X-24383332Y4143419D02*
X-24335713Y4095800D01*
X-24335713Y4095800D02*
X-24240475Y4048180D01*
X-24240475Y4048180D02*
X-24049999Y4048180D01*
X-24049999Y4048180D02*
X-23954761Y4095800D01*
X-23954761Y4095800D02*
X-23907142Y4143419D01*
X-23907142Y4143419D02*
X-23859523Y4238657D01*
X-23859523Y4238657D02*
X-23859523Y4476752D01*
X-23859523Y4476752D02*
X-23907142Y4571990D01*
X-23907142Y4571990D02*
X-23954761Y4619609D01*
X-23954761Y4619609D02*
X-24049999Y4667228D01*
X-24049999Y4667228D02*
X-24240475Y4667228D01*
X-24240475Y4667228D02*
X-24335713Y4619609D01*
X-24335713Y4619609D02*
X-24383332Y4571990D01*
X-24383332Y4571990D02*
X-24430951Y4476752D01*
X34395332Y-9054819D02*
X34061999Y-8578628D01*
X33823904Y-9054819D02*
X33823904Y-8054819D01*
X33823904Y-8054819D02*
X34204856Y-8054819D01*
X34204856Y-8054819D02*
X34300094Y-8102438D01*
X34300094Y-8102438D02*
X34347713Y-8150057D01*
X34347713Y-8150057D02*
X34395332Y-8245295D01*
X34395332Y-8245295D02*
X34395332Y-8388152D01*
X34395332Y-8388152D02*
X34347713Y-8483390D01*
X34347713Y-8483390D02*
X34300094Y-8531009D01*
X34300094Y-8531009D02*
X34204856Y-8578628D01*
X34204856Y-8578628D02*
X33823904Y-8578628D01*
X35300094Y-8054819D02*
X34823904Y-8054819D01*
X34823904Y-8054819D02*
X34776285Y-8531009D01*
X34776285Y-8531009D02*
X34823904Y-8483390D01*
X34823904Y-8483390D02*
X34919142Y-8435771D01*
X34919142Y-8435771D02*
X35157237Y-8435771D01*
X35157237Y-8435771D02*
X35252475Y-8483390D01*
X35252475Y-8483390D02*
X35300094Y-8531009D01*
X35300094Y-8531009D02*
X35347713Y-8626247D01*
X35347713Y-8626247D02*
X35347713Y-8864342D01*
X35347713Y-8864342D02*
X35300094Y-8959580D01*
X35300094Y-8959580D02*
X35252475Y-9007200D01*
X35252475Y-9007200D02*
X35157237Y-9054819D01*
X35157237Y-9054819D02*
X34919142Y-9054819D01*
X34919142Y-9054819D02*
X34823904Y-9007200D01*
X34823904Y-9007200D02*
X34776285Y-8959580D01*
X-14345238Y-18212557D02*
X-14440476Y-18164938D01*
X-14440476Y-18164938D02*
X-14535714Y-18069700D01*
X-14535714Y-18069700D02*
X-14678571Y-17926842D01*
X-14678571Y-17926842D02*
X-14773809Y-17879223D01*
X-14773809Y-17879223D02*
X-14869047Y-17879223D01*
X-14821428Y-18117319D02*
X-14916666Y-18069700D01*
X-14916666Y-18069700D02*
X-15011904Y-17974461D01*
X-15011904Y-17974461D02*
X-15059523Y-17783985D01*
X-15059523Y-17783985D02*
X-15059523Y-17450652D01*
X-15059523Y-17450652D02*
X-15011904Y-17260176D01*
X-15011904Y-17260176D02*
X-14916666Y-17164938D01*
X-14916666Y-17164938D02*
X-14821428Y-17117319D01*
X-14821428Y-17117319D02*
X-14630952Y-17117319D01*
X-14630952Y-17117319D02*
X-14535714Y-17164938D01*
X-14535714Y-17164938D02*
X-14440476Y-17260176D01*
X-14440476Y-17260176D02*
X-14392857Y-17450652D01*
X-14392857Y-17450652D02*
X-14392857Y-17783985D01*
X-14392857Y-17783985D02*
X-14440476Y-17974461D01*
X-14440476Y-17974461D02*
X-14535714Y-18069700D01*
X-14535714Y-18069700D02*
X-14630952Y-18117319D01*
X-14630952Y-18117319D02*
X-14821428Y-18117319D01*
X-13535714Y-17117319D02*
X-13726190Y-17117319D01*
X-13726190Y-17117319D02*
X-13821428Y-17164938D01*
X-13821428Y-17164938D02*
X-13869047Y-17212557D01*
X-13869047Y-17212557D02*
X-13964285Y-17355414D01*
X-13964285Y-17355414D02*
X-14011904Y-17545890D01*
X-14011904Y-17545890D02*
X-14011904Y-17926842D01*
X-14011904Y-17926842D02*
X-13964285Y-18022080D01*
X-13964285Y-18022080D02*
X-13916666Y-18069700D01*
X-13916666Y-18069700D02*
X-13821428Y-18117319D01*
X-13821428Y-18117319D02*
X-13630952Y-18117319D01*
X-13630952Y-18117319D02*
X-13535714Y-18069700D01*
X-13535714Y-18069700D02*
X-13488095Y-18022080D01*
X-13488095Y-18022080D02*
X-13440476Y-17926842D01*
X-13440476Y-17926842D02*
X-13440476Y-17688747D01*
X-13440476Y-17688747D02*
X-13488095Y-17593509D01*
X-13488095Y-17593509D02*
X-13535714Y-17545890D01*
X-13535714Y-17545890D02*
X-13630952Y-17498271D01*
X-13630952Y-17498271D02*
X-13821428Y-17498271D01*
X-13821428Y-17498271D02*
X-13916666Y-17545890D01*
X-13916666Y-17545890D02*
X-13964285Y-17593509D01*
X-13964285Y-17593509D02*
X-14011904Y-17688747D01*
X-32464285Y-5186104D02*
X-32502381Y-5224200D01*
X-32502381Y-5224200D02*
X-32616666Y-5262295D01*
X-32616666Y-5262295D02*
X-32692857Y-5262295D01*
X-32692857Y-5262295D02*
X-32807143Y-5224200D01*
X-32807143Y-5224200D02*
X-32883333Y-5148009D01*
X-32883333Y-5148009D02*
X-32921428Y-5071819D01*
X-32921428Y-5071819D02*
X-32959524Y-4919438D01*
X-32959524Y-4919438D02*
X-32959524Y-4805152D01*
X-32959524Y-4805152D02*
X-32921428Y-4652771D01*
X-32921428Y-4652771D02*
X-32883333Y-4576580D01*
X-32883333Y-4576580D02*
X-32807143Y-4500390D01*
X-32807143Y-4500390D02*
X-32692857Y-4462295D01*
X-32692857Y-4462295D02*
X-32616666Y-4462295D01*
X-32616666Y-4462295D02*
X-32502381Y-4500390D01*
X-32502381Y-4500390D02*
X-32464285Y-4538485D01*
X-32197619Y-4462295D02*
X-31702381Y-4462295D01*
X-31702381Y-4462295D02*
X-31969047Y-4767057D01*
X-31969047Y-4767057D02*
X-31854762Y-4767057D01*
X-31854762Y-4767057D02*
X-31778571Y-4805152D01*
X-31778571Y-4805152D02*
X-31740476Y-4843247D01*
X-31740476Y-4843247D02*
X-31702381Y-4919438D01*
X-31702381Y-4919438D02*
X-31702381Y-5109914D01*
X-31702381Y-5109914D02*
X-31740476Y-5186104D01*
X-31740476Y-5186104D02*
X-31778571Y-5224200D01*
X-31778571Y-5224200D02*
X-31854762Y-5262295D01*
X-31854762Y-5262295D02*
X-32083333Y-5262295D01*
X-32083333Y-5262295D02*
X-32159524Y-5224200D01*
X-32159524Y-5224200D02*
X-32197619Y-5186104D01*
X-31207142Y-4462295D02*
X-31130952Y-4462295D01*
X-31130952Y-4462295D02*
X-31054761Y-4500390D01*
X-31054761Y-4500390D02*
X-31016666Y-4538485D01*
X-31016666Y-4538485D02*
X-30978571Y-4614676D01*
X-30978571Y-4614676D02*
X-30940476Y-4767057D01*
X-30940476Y-4767057D02*
X-30940476Y-4957533D01*
X-30940476Y-4957533D02*
X-30978571Y-5109914D01*
X-30978571Y-5109914D02*
X-31016666Y-5186104D01*
X-31016666Y-5186104D02*
X-31054761Y-5224200D01*
X-31054761Y-5224200D02*
X-31130952Y-5262295D01*
X-31130952Y-5262295D02*
X-31207142Y-5262295D01*
X-31207142Y-5262295D02*
X-31283333Y-5224200D01*
X-31283333Y-5224200D02*
X-31321428Y-5186104D01*
X-31321428Y-5186104D02*
X-31359523Y-5109914D01*
X-31359523Y-5109914D02*
X-31397619Y-4957533D01*
X-31397619Y-4957533D02*
X-31397619Y-4767057D01*
X-31397619Y-4767057D02*
X-31359523Y-4614676D01*
X-31359523Y-4614676D02*
X-31321428Y-4538485D01*
X-31321428Y-4538485D02*
X-31283333Y-4500390D01*
X-31283333Y-4500390D02*
X-31207142Y-4462295D01*
X-7455066Y-529219D02*
X-7931256Y-529219D01*
X-7931256Y-529219D02*
X-7931256Y470780D01*
X-6597923Y-529219D02*
X-7169351Y-529219D01*
X-6883637Y-529219D02*
X-6883637Y470780D01*
X-6883637Y470780D02*
X-6978875Y327923D01*
X-6978875Y327923D02*
X-7074113Y232685D01*
X-7074113Y232685D02*
X-7169351Y185066D01*
X-32464285Y-1586104D02*
X-32502381Y-1624200D01*
X-32502381Y-1624200D02*
X-32616666Y-1662295D01*
X-32616666Y-1662295D02*
X-32692857Y-1662295D01*
X-32692857Y-1662295D02*
X-32807143Y-1624200D01*
X-32807143Y-1624200D02*
X-32883333Y-1548009D01*
X-32883333Y-1548009D02*
X-32921428Y-1471819D01*
X-32921428Y-1471819D02*
X-32959524Y-1319438D01*
X-32959524Y-1319438D02*
X-32959524Y-1205152D01*
X-32959524Y-1205152D02*
X-32921428Y-1052771D01*
X-32921428Y-1052771D02*
X-32883333Y-976580D01*
X-32883333Y-976580D02*
X-32807143Y-900390D01*
X-32807143Y-900390D02*
X-32692857Y-862295D01*
X-32692857Y-862295D02*
X-32616666Y-862295D01*
X-32616666Y-862295D02*
X-32502381Y-900390D01*
X-32502381Y-900390D02*
X-32464285Y-938485D01*
X-32159524Y-938485D02*
X-32121428Y-900390D01*
X-32121428Y-900390D02*
X-32045238Y-862295D01*
X-32045238Y-862295D02*
X-31854762Y-862295D01*
X-31854762Y-862295D02*
X-31778571Y-900390D01*
X-31778571Y-900390D02*
X-31740476Y-938485D01*
X-31740476Y-938485D02*
X-31702381Y-1014676D01*
X-31702381Y-1014676D02*
X-31702381Y-1090866D01*
X-31702381Y-1090866D02*
X-31740476Y-1205152D01*
X-31740476Y-1205152D02*
X-32197619Y-1662295D01*
X-32197619Y-1662295D02*
X-31702381Y-1662295D01*
X-31245238Y-1205152D02*
X-31321428Y-1167057D01*
X-31321428Y-1167057D02*
X-31359523Y-1128961D01*
X-31359523Y-1128961D02*
X-31397619Y-1052771D01*
X-31397619Y-1052771D02*
X-31397619Y-1014676D01*
X-31397619Y-1014676D02*
X-31359523Y-938485D01*
X-31359523Y-938485D02*
X-31321428Y-900390D01*
X-31321428Y-900390D02*
X-31245238Y-862295D01*
X-31245238Y-862295D02*
X-31092857Y-862295D01*
X-31092857Y-862295D02*
X-31016666Y-900390D01*
X-31016666Y-900390D02*
X-30978571Y-938485D01*
X-30978571Y-938485D02*
X-30940476Y-1014676D01*
X-30940476Y-1014676D02*
X-30940476Y-1052771D01*
X-30940476Y-1052771D02*
X-30978571Y-1128961D01*
X-30978571Y-1128961D02*
X-31016666Y-1167057D01*
X-31016666Y-1167057D02*
X-31092857Y-1205152D01*
X-31092857Y-1205152D02*
X-31245238Y-1205152D01*
X-31245238Y-1205152D02*
X-31321428Y-1243247D01*
X-31321428Y-1243247D02*
X-31359523Y-1281342D01*
X-31359523Y-1281342D02*
X-31397619Y-1357533D01*
X-31397619Y-1357533D02*
X-31397619Y-1509914D01*
X-31397619Y-1509914D02*
X-31359523Y-1586104D01*
X-31359523Y-1586104D02*
X-31321428Y-1624200D01*
X-31321428Y-1624200D02*
X-31245238Y-1662295D01*
X-31245238Y-1662295D02*
X-31092857Y-1662295D01*
X-31092857Y-1662295D02*
X-31016666Y-1624200D01*
X-31016666Y-1624200D02*
X-30978571Y-1586104D01*
X-30978571Y-1586104D02*
X-30940476Y-1509914D01*
X-30940476Y-1509914D02*
X-30940476Y-1357533D01*
X-30940476Y-1357533D02*
X-30978571Y-1281342D01*
X-30978571Y-1281342D02*
X-31016666Y-1243247D01*
X-31016666Y-1243247D02*
X-31092857Y-1205152D01*
X-14988094Y-21167319D02*
X-14988094Y-20167319D01*
X-14988094Y-20167319D02*
X-14749999Y-20167319D01*
X-14749999Y-20167319D02*
X-14607142Y-20214938D01*
X-14607142Y-20214938D02*
X-14511904Y-20310176D01*
X-14511904Y-20310176D02*
X-14464285Y-20405414D01*
X-14464285Y-20405414D02*
X-14416666Y-20595890D01*
X-14416666Y-20595890D02*
X-14416666Y-20738747D01*
X-14416666Y-20738747D02*
X-14464285Y-20929223D01*
X-14464285Y-20929223D02*
X-14511904Y-21024461D01*
X-14511904Y-21024461D02*
X-14607142Y-21119700D01*
X-14607142Y-21119700D02*
X-14749999Y-21167319D01*
X-14749999Y-21167319D02*
X-14988094Y-21167319D01*
X-13559523Y-20167319D02*
X-13749999Y-20167319D01*
X-13749999Y-20167319D02*
X-13845237Y-20214938D01*
X-13845237Y-20214938D02*
X-13892856Y-20262557D01*
X-13892856Y-20262557D02*
X-13988094Y-20405414D01*
X-13988094Y-20405414D02*
X-14035713Y-20595890D01*
X-14035713Y-20595890D02*
X-14035713Y-20976842D01*
X-14035713Y-20976842D02*
X-13988094Y-21072080D01*
X-13988094Y-21072080D02*
X-13940475Y-21119700D01*
X-13940475Y-21119700D02*
X-13845237Y-21167319D01*
X-13845237Y-21167319D02*
X-13654761Y-21167319D01*
X-13654761Y-21167319D02*
X-13559523Y-21119700D01*
X-13559523Y-21119700D02*
X-13511904Y-21072080D01*
X-13511904Y-21072080D02*
X-13464285Y-20976842D01*
X-13464285Y-20976842D02*
X-13464285Y-20738747D01*
X-13464285Y-20738747D02*
X-13511904Y-20643509D01*
X-13511904Y-20643509D02*
X-13559523Y-20595890D01*
X-13559523Y-20595890D02*
X-13654761Y-20548271D01*
X-13654761Y-20548271D02*
X-13845237Y-20548271D01*
X-13845237Y-20548271D02*
X-13940475Y-20595890D01*
X-13940475Y-20595890D02*
X-13988094Y-20643509D01*
X-13988094Y-20643509D02*
X-14035713Y-20738747D01*
X-19188094Y23957680D02*
X-19188094Y24957680D01*
X-19188094Y24957680D02*
X-18949999Y24957680D01*
X-18949999Y24957680D02*
X-18807142Y24910061D01*
X-18807142Y24910061D02*
X-18711904Y24814823D01*
X-18711904Y24814823D02*
X-18664285Y24719585D01*
X-18664285Y24719585D02*
X-18616666Y24529109D01*
X-18616666Y24529109D02*
X-18616666Y24386252D01*
X-18616666Y24386252D02*
X-18664285Y24195776D01*
X-18664285Y24195776D02*
X-18711904Y24100538D01*
X-18711904Y24100538D02*
X-18807142Y24005300D01*
X-18807142Y24005300D02*
X-18949999Y23957680D01*
X-18949999Y23957680D02*
X-19188094Y23957680D01*
X-18235713Y24862442D02*
X-18188094Y24910061D01*
X-18188094Y24910061D02*
X-18092856Y24957680D01*
X-18092856Y24957680D02*
X-17854761Y24957680D01*
X-17854761Y24957680D02*
X-17759523Y24910061D01*
X-17759523Y24910061D02*
X-17711904Y24862442D01*
X-17711904Y24862442D02*
X-17664285Y24767204D01*
X-17664285Y24767204D02*
X-17664285Y24671966D01*
X-17664285Y24671966D02*
X-17711904Y24529109D01*
X-17711904Y24529109D02*
X-18283332Y23957680D01*
X-18283332Y23957680D02*
X-17664285Y23957680D01*
X42991333Y12175180D02*
X42515143Y12175180D01*
X42515143Y12175180D02*
X42515143Y13175180D01*
X43753238Y12841847D02*
X43753238Y12175180D01*
X43515143Y13222800D02*
X43277048Y12508514D01*
X43277048Y12508514D02*
X43896095Y12508514D01*
X-26028038Y12949942D02*
X-26123276Y12997561D01*
X-26123276Y12997561D02*
X-26218514Y13092800D01*
X-26218514Y13092800D02*
X-26361371Y13235657D01*
X-26361371Y13235657D02*
X-26456609Y13283276D01*
X-26456609Y13283276D02*
X-26551847Y13283276D01*
X-26504228Y13045180D02*
X-26599466Y13092800D01*
X-26599466Y13092800D02*
X-26694704Y13188038D01*
X-26694704Y13188038D02*
X-26742323Y13378514D01*
X-26742323Y13378514D02*
X-26742323Y13711847D01*
X-26742323Y13711847D02*
X-26694704Y13902323D01*
X-26694704Y13902323D02*
X-26599466Y13997561D01*
X-26599466Y13997561D02*
X-26504228Y14045180D01*
X-26504228Y14045180D02*
X-26313752Y14045180D01*
X-26313752Y14045180D02*
X-26218514Y13997561D01*
X-26218514Y13997561D02*
X-26123276Y13902323D01*
X-26123276Y13902323D02*
X-26075657Y13711847D01*
X-26075657Y13711847D02*
X-26075657Y13378514D01*
X-26075657Y13378514D02*
X-26123276Y13188038D01*
X-26123276Y13188038D02*
X-26218514Y13092800D01*
X-26218514Y13092800D02*
X-26313752Y13045180D01*
X-26313752Y13045180D02*
X-26504228Y13045180D01*
X-25504228Y13616609D02*
X-25599466Y13664228D01*
X-25599466Y13664228D02*
X-25647085Y13711847D01*
X-25647085Y13711847D02*
X-25694704Y13807085D01*
X-25694704Y13807085D02*
X-25694704Y13854704D01*
X-25694704Y13854704D02*
X-25647085Y13949942D01*
X-25647085Y13949942D02*
X-25599466Y13997561D01*
X-25599466Y13997561D02*
X-25504228Y14045180D01*
X-25504228Y14045180D02*
X-25313752Y14045180D01*
X-25313752Y14045180D02*
X-25218514Y13997561D01*
X-25218514Y13997561D02*
X-25170895Y13949942D01*
X-25170895Y13949942D02*
X-25123276Y13854704D01*
X-25123276Y13854704D02*
X-25123276Y13807085D01*
X-25123276Y13807085D02*
X-25170895Y13711847D01*
X-25170895Y13711847D02*
X-25218514Y13664228D01*
X-25218514Y13664228D02*
X-25313752Y13616609D01*
X-25313752Y13616609D02*
X-25504228Y13616609D01*
X-25504228Y13616609D02*
X-25599466Y13568990D01*
X-25599466Y13568990D02*
X-25647085Y13521371D01*
X-25647085Y13521371D02*
X-25694704Y13426133D01*
X-25694704Y13426133D02*
X-25694704Y13235657D01*
X-25694704Y13235657D02*
X-25647085Y13140419D01*
X-25647085Y13140419D02*
X-25599466Y13092800D01*
X-25599466Y13092800D02*
X-25504228Y13045180D01*
X-25504228Y13045180D02*
X-25313752Y13045180D01*
X-25313752Y13045180D02*
X-25218514Y13092800D01*
X-25218514Y13092800D02*
X-25170895Y13140419D01*
X-25170895Y13140419D02*
X-25123276Y13235657D01*
X-25123276Y13235657D02*
X-25123276Y13426133D01*
X-25123276Y13426133D02*
X-25170895Y13521371D01*
X-25170895Y13521371D02*
X-25218514Y13568990D01*
X-25218514Y13568990D02*
X-25313752Y13616609D01*
X27893333Y-11954819D02*
X28464761Y-11954819D01*
X28179047Y-12954819D02*
X28179047Y-11954819D01*
X28702857Y-12954819D02*
X29226666Y-12288152D01*
X28702857Y-12288152D02*
X29226666Y-12954819D01*
X29607619Y-12954819D02*
X29607619Y-11954819D01*
X29607619Y-11954819D02*
X29845714Y-11954819D01*
X29845714Y-11954819D02*
X29988571Y-12002438D01*
X29988571Y-12002438D02*
X30083809Y-12097676D01*
X30083809Y-12097676D02*
X30131428Y-12192914D01*
X30131428Y-12192914D02*
X30179047Y-12383390D01*
X30179047Y-12383390D02*
X30179047Y-12526247D01*
X30179047Y-12526247D02*
X30131428Y-12716723D01*
X30131428Y-12716723D02*
X30083809Y-12811961D01*
X30083809Y-12811961D02*
X29988571Y-12907200D01*
X29988571Y-12907200D02*
X29845714Y-12954819D01*
X29845714Y-12954819D02*
X29607619Y-12954819D01*
X31131428Y-12954819D02*
X30560000Y-12954819D01*
X30845714Y-12954819D02*
X30845714Y-11954819D01*
X30845714Y-11954819D02*
X30750476Y-12097676D01*
X30750476Y-12097676D02*
X30655238Y-12192914D01*
X30655238Y-12192914D02*
X30560000Y-12240533D01*
X42228571Y26597561D02*
X42133333Y26645180D01*
X42133333Y26645180D02*
X41990476Y26645180D01*
X41990476Y26645180D02*
X41847619Y26597561D01*
X41847619Y26597561D02*
X41752381Y26502323D01*
X41752381Y26502323D02*
X41704762Y26407085D01*
X41704762Y26407085D02*
X41657143Y26216609D01*
X41657143Y26216609D02*
X41657143Y26073752D01*
X41657143Y26073752D02*
X41704762Y25883276D01*
X41704762Y25883276D02*
X41752381Y25788038D01*
X41752381Y25788038D02*
X41847619Y25692800D01*
X41847619Y25692800D02*
X41990476Y25645180D01*
X41990476Y25645180D02*
X42085714Y25645180D01*
X42085714Y25645180D02*
X42228571Y25692800D01*
X42228571Y25692800D02*
X42276190Y25740419D01*
X42276190Y25740419D02*
X42276190Y26073752D01*
X42276190Y26073752D02*
X42085714Y26073752D01*
X42657143Y25692800D02*
X42800000Y25645180D01*
X42800000Y25645180D02*
X43038095Y25645180D01*
X43038095Y25645180D02*
X43133333Y25692800D01*
X43133333Y25692800D02*
X43180952Y25740419D01*
X43180952Y25740419D02*
X43228571Y25835657D01*
X43228571Y25835657D02*
X43228571Y25930895D01*
X43228571Y25930895D02*
X43180952Y26026133D01*
X43180952Y26026133D02*
X43133333Y26073752D01*
X43133333Y26073752D02*
X43038095Y26121371D01*
X43038095Y26121371D02*
X42847619Y26168990D01*
X42847619Y26168990D02*
X42752381Y26216609D01*
X42752381Y26216609D02*
X42704762Y26264228D01*
X42704762Y26264228D02*
X42657143Y26359466D01*
X42657143Y26359466D02*
X42657143Y26454704D01*
X42657143Y26454704D02*
X42704762Y26549942D01*
X42704762Y26549942D02*
X42752381Y26597561D01*
X42752381Y26597561D02*
X42847619Y26645180D01*
X42847619Y26645180D02*
X43085714Y26645180D01*
X43085714Y26645180D02*
X43228571Y26597561D01*
X43657143Y25645180D02*
X43657143Y26645180D01*
X43657143Y26645180D02*
X43990476Y25930895D01*
X43990476Y25930895D02*
X44323809Y26645180D01*
X44323809Y26645180D02*
X44323809Y25645180D01*
X44561905Y25549942D02*
X45323809Y25549942D01*
X45419048Y26645180D02*
X45752381Y25645180D01*
X45752381Y25645180D02*
X46085714Y26645180D01*
X46990476Y25740419D02*
X46942857Y25692800D01*
X46942857Y25692800D02*
X46800000Y25645180D01*
X46800000Y25645180D02*
X46704762Y25645180D01*
X46704762Y25645180D02*
X46561905Y25692800D01*
X46561905Y25692800D02*
X46466667Y25788038D01*
X46466667Y25788038D02*
X46419048Y25883276D01*
X46419048Y25883276D02*
X46371429Y26073752D01*
X46371429Y26073752D02*
X46371429Y26216609D01*
X46371429Y26216609D02*
X46419048Y26407085D01*
X46419048Y26407085D02*
X46466667Y26502323D01*
X46466667Y26502323D02*
X46561905Y26597561D01*
X46561905Y26597561D02*
X46704762Y26645180D01*
X46704762Y26645180D02*
X46800000Y26645180D01*
X46800000Y26645180D02*
X46942857Y26597561D01*
X46942857Y26597561D02*
X46990476Y26549942D01*
X47990476Y25740419D02*
X47942857Y25692800D01*
X47942857Y25692800D02*
X47800000Y25645180D01*
X47800000Y25645180D02*
X47704762Y25645180D01*
X47704762Y25645180D02*
X47561905Y25692800D01*
X47561905Y25692800D02*
X47466667Y25788038D01*
X47466667Y25788038D02*
X47419048Y25883276D01*
X47419048Y25883276D02*
X47371429Y26073752D01*
X47371429Y26073752D02*
X47371429Y26216609D01*
X47371429Y26216609D02*
X47419048Y26407085D01*
X47419048Y26407085D02*
X47466667Y26502323D01*
X47466667Y26502323D02*
X47561905Y26597561D01*
X47561905Y26597561D02*
X47704762Y26645180D01*
X47704762Y26645180D02*
X47800000Y26645180D01*
X47800000Y26645180D02*
X47942857Y26597561D01*
X47942857Y26597561D02*
X47990476Y26549942D01*
X48942857Y25645180D02*
X48371429Y25645180D01*
X48657143Y25645180D02*
X48657143Y26645180D01*
X48657143Y26645180D02*
X48561905Y26502323D01*
X48561905Y26502323D02*
X48466667Y26407085D01*
X48466667Y26407085D02*
X48371429Y26359466D01*
D13*
%TO.C,U2*%
X42950000Y-6300000D02*
X42950000Y-24100000D01*
X42950000Y-24100000D02*
X63950000Y-24100000D01*
X58022000Y-10696000D02*
X65375000Y-10696000D01*
X58022000Y-19695000D02*
X58022000Y-10696000D01*
X63278500Y-6300000D02*
X42950000Y-6300000D01*
X63950000Y-6971541D02*
X63278500Y-6300000D01*
X63950000Y-24100000D02*
X63950000Y-6971541D01*
X65374000Y-10700000D02*
X65374000Y-19695000D01*
X65374000Y-19695000D02*
X58022000Y-19695000D01*
%TO.C,R4*%
X-2993000Y4812200D02*
X-199000Y4812200D01*
X-2993000Y3542200D02*
X-2993000Y4812200D01*
X-199000Y4812200D02*
X-199000Y3542200D01*
X-199000Y3542200D02*
X-2993000Y3542200D01*
%TO.C,C10*%
X18065000Y-15165000D02*
X19335000Y-15165000D01*
X18065000Y-17959000D02*
X18065000Y-15165000D01*
X19335000Y-15165000D02*
X19335000Y-17959000D01*
X19335000Y-17959000D02*
X18065000Y-17959000D01*
%TO.C,C29*%
X-36330000Y-2465000D02*
X-33536000Y-2465000D01*
X-36330000Y-3735000D02*
X-36330000Y-2465000D01*
X-33536000Y-2465000D02*
X-33536000Y-3735000D01*
X-33536000Y-3735000D02*
X-36330000Y-3735000D01*
%TO.C,C9*%
X15015000Y-21891000D02*
X16285000Y-21891000D01*
X15015000Y-24685000D02*
X15015000Y-21891000D01*
X16285000Y-21891000D02*
X16285000Y-24685000D01*
X16285000Y-24685000D02*
X15015000Y-24685000D01*
D14*
%TO.C,RESET1*%
X23700000Y-10150000D02*
X25100000Y-10150000D01*
X23700000Y-11550000D02*
X23700000Y-10150000D01*
X25100000Y-10150000D02*
X25100000Y-11550000D01*
X25100000Y-11550000D02*
X23700000Y-11550000D01*
D15*
%TO.C,IC1*%
X100000Y-156000D02*
G75*
G02*
X-150000Y-156000I-125000J0D01*
G01*
X-150000Y-156000D02*
G75*
G02*
X100000Y-156000I125000J0D01*
G01*
D14*
%TO.C,D4*%
X2200000Y-7850000D02*
X2199999Y-5890000D01*
X3400000Y-7850000D02*
X3400001Y-5890000D01*
X3400001Y-5890000D02*
X2199999Y-5890000D01*
%TO.C,D5*%
X4550000Y-7850000D02*
X4549999Y-5890000D01*
X5750000Y-7850000D02*
X5750001Y-5890000D01*
X5750001Y-5890000D02*
X4549999Y-5890000D01*
D16*
%TO.C,CR2*%
X6200100Y-40135D02*
X6200100Y-930000D01*
X7952700Y-930000D02*
X7952700Y-40135D01*
D13*
%TO.C,R15*%
X-36295999Y11935001D02*
X-33501999Y11935001D01*
X-36295999Y10665001D02*
X-36295999Y11935001D01*
X-33501999Y11935001D02*
X-33501999Y10665001D01*
X-33501999Y10665001D02*
X-36295999Y10665001D01*
%TO.C,C14*%
X30199000Y27389000D02*
X33501000Y27389000D01*
X30199000Y25611000D02*
X30199000Y27389000D01*
X33501000Y27389000D02*
X33501000Y25611000D01*
X33501000Y25611000D02*
X30199000Y25611000D01*
D14*
%TO.C,RxD1*%
X33900000Y-10000000D02*
X35300000Y-10000000D01*
X33900000Y-11400000D02*
X33900000Y-10000000D01*
X35300000Y-10000000D02*
X35300000Y-11400000D01*
X35300000Y-11400000D02*
X33900000Y-11400000D01*
D13*
%TO.C,R16*%
X15653000Y24635000D02*
X18447000Y24635000D01*
X15653000Y23365000D02*
X15653000Y24635000D01*
X18447000Y24635000D02*
X18447000Y23365000D01*
X18447000Y23365000D02*
X15653000Y23365000D01*
%TO.C,C22*%
X-36308999Y10035000D02*
X-33514999Y10035000D01*
X-36308999Y8765000D02*
X-36308999Y10035000D01*
X-33514999Y10035000D02*
X-33514999Y8765000D01*
X-33514999Y8765000D02*
X-36308999Y8765000D01*
%TO.C,C15*%
X30199000Y19939000D02*
X33501000Y19939000D01*
X30199000Y18161000D02*
X30199000Y19939000D01*
X33501000Y19939000D02*
X33501000Y18161000D01*
X33501000Y18161000D02*
X30199000Y18161000D01*
D14*
%TO.C,BOOT1*%
X18400000Y-10250000D02*
X19800000Y-10250000D01*
X18400000Y-11650000D02*
X18400000Y-10250000D01*
X19800000Y-10250000D02*
X19800000Y-11650000D01*
X19800000Y-11650000D02*
X18400000Y-11650000D01*
%TO.C,L3*%
X51245779Y25094600D02*
X50920221Y25094600D01*
X51245779Y24074600D02*
X50920221Y24074600D01*
%TO.C,D9*%
X-25740000Y400000D02*
X-29750000Y400000D01*
X-25740000Y-1600000D02*
X-29750000Y-1600000D01*
X-25740000Y-1600000D02*
X-25740000Y400000D01*
D13*
%TO.C,R3*%
X30303000Y-7965000D02*
X33097000Y-7965000D01*
X30303000Y-9235000D02*
X30303000Y-7965000D01*
X33097000Y-7965000D02*
X33097000Y-9235000D01*
X33097000Y-9235000D02*
X30303000Y-9235000D01*
D14*
%TO.C,D7*%
X-25740000Y-2100000D02*
X-29750000Y-2100000D01*
X-25740000Y-4100000D02*
X-29750000Y-4100000D01*
X-25740000Y-4100000D02*
X-25740000Y-2100000D01*
D13*
%TO.C,R12*%
X-36295999Y13835001D02*
X-33501999Y13835001D01*
X-36295999Y12565001D02*
X-36295999Y13835001D01*
X-33501999Y13835001D02*
X-33501999Y12565001D01*
X-33501999Y12565001D02*
X-36295999Y12565001D01*
%TO.C,C1*%
X1172600Y1976600D02*
X2950600Y1976600D01*
X1172600Y-1325400D02*
X1172600Y1976600D01*
X2950600Y1976600D02*
X2950600Y-1325400D01*
X2950600Y-1325400D02*
X1172600Y-1325400D01*
%TO.C,C5*%
X55699000Y-25211000D02*
X59001000Y-25211000D01*
X55699000Y-26989000D02*
X55699000Y-25211000D01*
X59001000Y-25211000D02*
X59001000Y-26989000D01*
X59001000Y-26989000D02*
X55699000Y-26989000D01*
%TO.C,C11*%
X18065000Y-21891000D02*
X19335000Y-21891000D01*
X18065000Y-24685000D02*
X18065000Y-21891000D01*
X19335000Y-21891000D02*
X19335000Y-24685000D01*
X19335000Y-24685000D02*
X18065000Y-24685000D01*
D14*
%TO.C,Q3*%
X-47160000Y-17500000D02*
X-47160000Y-16850000D01*
X-47160000Y-17500000D02*
X-47160000Y-18150000D01*
X-44040000Y-17500000D02*
X-44040000Y-16850000D01*
X-44040000Y-17500000D02*
X-44040000Y-18150000D01*
X-47110000Y-18662500D02*
X-47440000Y-18902500D01*
X-47440000Y-18422500D01*
X-47110000Y-18662500D01*
G36*
X-47110000Y-18662500D02*
G01*
X-47440000Y-18902500D01*
X-47440000Y-18422500D01*
X-47110000Y-18662500D01*
G37*
D13*
%TO.C,R13*%
X-47058999Y-20865000D02*
X-44264999Y-20865000D01*
X-47058999Y-22135000D02*
X-47058999Y-20865000D01*
X-44264999Y-20865000D02*
X-44264999Y-22135000D01*
X-44264999Y-22135000D02*
X-47058999Y-22135000D01*
%TO.C,R9*%
X15653000Y27135000D02*
X18447000Y27135000D01*
X15653000Y25865000D02*
X15653000Y27135000D01*
X18447000Y27135000D02*
X18447000Y25865000D01*
X18447000Y25865000D02*
X15653000Y25865000D01*
%TO.C,C33*%
X-36321999Y8285000D02*
X-33527999Y8285000D01*
X-36321999Y7015000D02*
X-36321999Y8285000D01*
X-33527999Y8285000D02*
X-33527999Y7015000D01*
X-33527999Y7015000D02*
X-36321999Y7015000D01*
%TO.C,C2*%
X-2713600Y-512600D02*
X588400Y-512600D01*
X-2713600Y-2290600D02*
X-2713600Y-512600D01*
X588400Y-512600D02*
X588400Y-2290600D01*
X588400Y-2290600D02*
X-2713600Y-2290600D01*
%TO.C,R11*%
X-18508999Y-22577500D02*
X-15714999Y-22577500D01*
X-18508999Y-23847500D02*
X-18508999Y-22577500D01*
X-15714999Y-22577500D02*
X-15714999Y-23847500D01*
X-15714999Y-23847500D02*
X-18508999Y-23847500D01*
%TO.C,R1*%
X-54535000Y1397000D02*
X-53265000Y1397000D01*
X-54535000Y-1397000D02*
X-54535000Y1397000D01*
X-53265000Y1397000D02*
X-53265000Y-1397000D01*
X-53265000Y-1397000D02*
X-54535000Y-1397000D01*
%TO.C,C3*%
X-2740600Y-2999400D02*
X561400Y-2999400D01*
X-2740600Y-4777400D02*
X-2740600Y-2999400D01*
X561400Y-2999400D02*
X561400Y-4777400D01*
X561400Y-4777400D02*
X-2740600Y-4777400D01*
%TO.C,R18*%
X15653000Y19635000D02*
X18447000Y19635000D01*
X15653000Y18365000D02*
X15653000Y19635000D01*
X18447000Y19635000D02*
X18447000Y18365000D01*
X18447000Y18365000D02*
X15653000Y18365000D01*
%TO.C,C21*%
X-36322999Y1135000D02*
X-33528999Y1135000D01*
X-36322999Y-135000D02*
X-36322999Y1135000D01*
X-33528999Y1135000D02*
X-33528999Y-135000D01*
X-33528999Y-135000D02*
X-36322999Y-135000D01*
D14*
%TO.C,D8*%
X-25740000Y-4600000D02*
X-29750000Y-4600000D01*
X-25740000Y-6600000D02*
X-29750000Y-6600000D01*
X-25740000Y-6600000D02*
X-25740000Y-4600000D01*
D13*
%TO.C,C17*%
X30199000Y17389000D02*
X33501000Y17389000D01*
X30199000Y15611000D02*
X30199000Y17389000D01*
X33501000Y17389000D02*
X33501000Y15611000D01*
X33501000Y15611000D02*
X30199000Y15611000D01*
%TO.C,C20*%
X45403000Y11135000D02*
X48197000Y11135000D01*
X45403000Y9865000D02*
X45403000Y11135000D01*
X48197000Y11135000D02*
X48197000Y9865000D01*
X48197000Y9865000D02*
X45403000Y9865000D01*
%TO.C,C4*%
X3636400Y1976600D02*
X5414400Y1976600D01*
X3636400Y-1325400D02*
X3636400Y1976600D01*
X5414400Y1976600D02*
X5414400Y-1325400D01*
X5414400Y-1325400D02*
X3636400Y-1325400D01*
%TO.C,C7*%
X-15839000Y23151000D02*
X-14061000Y23151000D01*
X-15839000Y19849000D02*
X-15839000Y23151000D01*
X-14061000Y23151000D02*
X-14061000Y19849000D01*
X-14061000Y19849000D02*
X-15839000Y19849000D01*
%TO.C,R17*%
X15653000Y22135000D02*
X18447000Y22135000D01*
X15653000Y20865000D02*
X15653000Y22135000D01*
X18447000Y22135000D02*
X18447000Y20865000D01*
X18447000Y20865000D02*
X15653000Y20865000D01*
D17*
%TO.C,J3*%
X-43450000Y11200000D02*
X-43450000Y-1100000D01*
X-42050000Y12050000D02*
X-39650000Y12050000D01*
X-39650000Y12050000D02*
X-39650000Y11350000D01*
X-39650000Y-1250000D02*
X-39650000Y-1950000D01*
X-39650000Y-1950000D02*
X-42050000Y-1950000D01*
X-39050000Y10800000D02*
G75*
G02*
X-39250000Y10800000I-100000J0D01*
G01*
X-39250000Y10800000D02*
G75*
G02*
X-39050000Y10800000I100000J0D01*
G01*
D14*
%TO.C,L2*%
X56321600Y13162779D02*
X56321600Y12837221D01*
X57341600Y13162779D02*
X57341600Y12837221D01*
D13*
%TO.C,C26*%
X-36333999Y2985000D02*
X-33539999Y2985000D01*
X-36333999Y1715000D02*
X-36333999Y2985000D01*
X-33539999Y2985000D02*
X-33539999Y1715000D01*
X-33539999Y1715000D02*
X-36333999Y1715000D01*
%TO.C,C25*%
X-29308999Y9935000D02*
X-26514999Y9935000D01*
X-29308999Y8665000D02*
X-29308999Y9935000D01*
X-26514999Y9935000D02*
X-26514999Y8665000D01*
X-26514999Y8665000D02*
X-29308999Y8665000D01*
%TO.C,C8*%
X15015000Y-15165000D02*
X16285000Y-15165000D01*
X15015000Y-17959000D02*
X15015000Y-15165000D01*
X16285000Y-15165000D02*
X16285000Y-17959000D01*
X16285000Y-17959000D02*
X15015000Y-17959000D01*
D17*
%TO.C,ANT1*%
X54350000Y16150000D02*
X54350000Y16150000D01*
X54350000Y16150000D02*
X54350000Y16150000D01*
X54450000Y16150000D02*
X54450000Y16150000D01*
X55000000Y28150000D02*
X55000000Y24750000D01*
X55000000Y16950000D02*
X55000000Y22950000D01*
X61550000Y29800000D02*
X56840000Y29800000D01*
X63300000Y28150000D02*
X63300000Y24750000D01*
X63300000Y16950000D02*
X63300000Y22950000D01*
X54350000Y16150000D02*
G75*
G02*
X54450000Y16150000I50000J0D01*
G01*
X54450000Y16150000D02*
G75*
G02*
X54350000Y16150000I-50000J0D01*
G01*
X54450000Y16150000D02*
G75*
G02*
X54350000Y16150000I-50000J0D01*
G01*
D13*
%TO.C,R14*%
X-33097000Y19135000D02*
X-30303000Y19135000D01*
X-33097000Y17865000D02*
X-33097000Y19135000D01*
X-30303000Y19135000D02*
X-30303000Y17865000D01*
X-30303000Y17865000D02*
X-33097000Y17865000D01*
D16*
%TO.C,L5*%
X-3771900Y-19276370D02*
X-3771900Y-21723630D01*
X3771900Y-21723630D02*
X3771900Y-19276370D01*
D13*
%TO.C,C13*%
X30199000Y24889000D02*
X33501000Y24889000D01*
X30199000Y23111000D02*
X30199000Y24889000D01*
X33501000Y24889000D02*
X33501000Y23111000D01*
X33501000Y23111000D02*
X30199000Y23111000D01*
D14*
%TO.C,D3*%
X-300000Y-7850000D02*
X-300001Y-5890000D01*
X900000Y-7850000D02*
X900001Y-5890000D01*
X900001Y-5890000D02*
X-300001Y-5890000D01*
D13*
%TO.C,R2*%
X-51685000Y1397000D02*
X-50415000Y1397000D01*
X-51685000Y-1397000D02*
X-51685000Y1397000D01*
X-50415000Y1397000D02*
X-50415000Y-1397000D01*
X-50415000Y-1397000D02*
X-51685000Y-1397000D01*
%TO.C,C23*%
X-36321999Y6535000D02*
X-33527999Y6535000D01*
X-36321999Y5265000D02*
X-36321999Y6535000D01*
X-33527999Y6535000D02*
X-33527999Y5265000D01*
X-33527999Y5265000D02*
X-36321999Y5265000D01*
D14*
%TO.C,Q4*%
X-33260001Y22500000D02*
X-33260000Y23150000D01*
X-33260001Y22500000D02*
X-33260000Y21850000D01*
X-30139999Y22500000D02*
X-30140000Y23150000D01*
X-30139999Y22500000D02*
X-30140000Y21850000D01*
X-33210000Y21337500D02*
X-33540000Y21097500D01*
X-33539999Y21577500D01*
X-33210000Y21337500D01*
G36*
X-33210000Y21337500D02*
G01*
X-33540000Y21097500D01*
X-33539999Y21577500D01*
X-33210000Y21337500D01*
G37*
D16*
%TO.C,U12*%
X-5054600Y27211560D02*
X-5054600Y26589140D01*
X-5054600Y20011561D02*
X-5054599Y17673001D01*
X-5054599Y17673001D02*
X-2698841Y17673001D01*
X-941160Y17673001D02*
X941160Y17673001D01*
X2698841Y17673001D02*
X5054599Y17673001D01*
X5054599Y30322201D02*
X-5054599Y30322201D01*
X5054599Y17673001D02*
X5054600Y20011561D01*
X5054600Y26589140D02*
X5054600Y27211560D01*
D18*
X-6283760Y26261291D02*
G75*
G02*
X-6283759Y25633912I-216240J-313690D01*
G01*
D13*
%TO.C,C24*%
X-36333999Y4785000D02*
X-33539999Y4785000D01*
X-36333999Y3515000D02*
X-36333999Y4785000D01*
X-33539999Y4785000D02*
X-33539999Y3515000D01*
X-33539999Y3515000D02*
X-36333999Y3515000D01*
D14*
%TO.C,VDD1*%
X-17950000Y-10250000D02*
X-16550000Y-10250000D01*
X-17950000Y-11650000D02*
X-17950000Y-10250000D01*
X-16550000Y-10250000D02*
X-16550000Y-11650000D01*
X-16550000Y-11650000D02*
X-17950000Y-11650000D01*
D13*
%TO.C,C16*%
X30199000Y22389000D02*
X33501000Y22389000D01*
X30199000Y20611000D02*
X30199000Y22389000D01*
X33501000Y22389000D02*
X33501000Y20611000D01*
X33501000Y20611000D02*
X30199000Y20611000D01*
D16*
%TO.C,CR1*%
X46643635Y21623700D02*
X47533500Y21623700D01*
X47533500Y23376300D02*
X46643635Y23376300D01*
D14*
%TO.C,D1*%
X-2700000Y-7850000D02*
X-2700001Y-5890000D01*
X-1500000Y-7850000D02*
X-1499999Y-5890000D01*
X-1499999Y-5890000D02*
X-2700001Y-5890000D01*
D16*
%TO.C,U11*%
X23897400Y12955103D02*
X23897400Y11188343D01*
X23897400Y-5155097D02*
X26911659Y-5155097D01*
X23897401Y-3388339D02*
X23897400Y-5155097D01*
X26911659Y12955103D02*
X23897400Y12955103D01*
X37088341Y-5155097D02*
X40102600Y-5155097D01*
X40102599Y11188345D02*
X40102600Y12955103D01*
X40102600Y12955103D02*
X37088341Y12955103D01*
X40102600Y-5155097D02*
X40102600Y-3388337D01*
%TO.C,L6*%
X-30072500Y6725500D02*
X-30072500Y2280500D01*
X-25627500Y2280500D02*
X-25627500Y6725500D01*
X-27773800Y7258900D02*
G75*
G02*
X-27926200Y7258900I-76200J0D01*
G01*
X-27926200Y7258900D02*
G75*
G02*
X-27773800Y7258900I76200J0D01*
G01*
D13*
%TO.C,R5*%
X35902999Y-7865000D02*
X38696999Y-7865000D01*
X35902999Y-9135000D02*
X35902999Y-7865000D01*
X38696999Y-7865000D02*
X38696999Y-9135000D01*
X38696999Y-9135000D02*
X35902999Y-9135000D01*
D14*
%TO.C,Q6*%
X-18810000Y-17362500D02*
X-18810000Y-16712500D01*
X-18810000Y-17362500D02*
X-18810000Y-18012500D01*
X-15690000Y-17362500D02*
X-15690000Y-16712500D01*
X-15690000Y-17362500D02*
X-15690000Y-18012500D01*
X-18760000Y-18525000D02*
X-19090000Y-18765000D01*
X-19090000Y-18285000D01*
X-18760000Y-18525000D01*
G36*
X-18760000Y-18525000D02*
G01*
X-19090000Y-18765000D01*
X-19090000Y-18285000D01*
X-18760000Y-18525000D01*
G37*
D13*
%TO.C,C30*%
X-36322999Y-4165000D02*
X-33528999Y-4165000D01*
X-36322999Y-5435000D02*
X-36322999Y-4165000D01*
X-33528999Y-4165000D02*
X-33528999Y-5435000D01*
X-33528999Y-5435000D02*
X-36322999Y-5435000D01*
%TO.C,L1*%
X-5266000Y1506000D02*
X-3234000Y1506000D01*
X-5266000Y-1796000D02*
X-5266000Y1506000D01*
X-3234000Y1506000D02*
X-3234000Y-1796000D01*
X-3234000Y-1796000D02*
X-5266000Y-1796000D01*
X-4758000Y-272000D02*
G75*
G02*
X-4250000Y-272000I254000J0D01*
G01*
X-4250000Y-272000D02*
G75*
G02*
X-3742000Y-272000I254000J0D01*
G01*
%TO.C,C28*%
X-36297999Y-665000D02*
X-33503999Y-665000D01*
X-36297999Y-1935000D02*
X-36297999Y-665000D01*
X-33503999Y-665000D02*
X-33503999Y-1935000D01*
X-33503999Y-1935000D02*
X-36297999Y-1935000D01*
D14*
%TO.C,D6*%
X-17950000Y-20112500D02*
X-15990000Y-20112499D01*
X-17950000Y-21312500D02*
X-15990000Y-21312501D01*
X-15990000Y-21312501D02*
X-15990000Y-20112499D01*
%TO.C,D2*%
X-19960000Y21362500D02*
X-19959999Y22162500D01*
X-19960000Y21362500D02*
X-19959999Y20562500D01*
X-16839998Y21362500D02*
X-16839999Y22162500D01*
X-16839998Y21362500D02*
X-16839999Y20562500D01*
X-19909999Y20062500D02*
X-20239999Y19822500D01*
X-20239999Y20302500D01*
X-19909999Y20062500D01*
G36*
X-19909999Y20062500D02*
G01*
X-20239999Y19822500D01*
X-20239999Y20302500D01*
X-19909999Y20062500D01*
G37*
%TO.C,L4*%
X43133221Y10990000D02*
X43458779Y10990000D01*
X43133221Y9970000D02*
X43458779Y9970000D01*
D16*
%TO.C,Q8*%
X-28791500Y10968100D02*
X-27191300Y10968100D01*
X-27191300Y13431900D02*
X-28791500Y13431900D01*
X-27191300Y12761340D02*
X-27191300Y13431900D01*
X-27191300Y10968100D02*
X-27191300Y11638660D01*
X-30226600Y12850000D02*
G75*
G02*
X-30379000Y12850000I-76200J0D01*
G01*
X-30379000Y12850000D02*
G75*
G02*
X-30226600Y12850000I76200J0D01*
G01*
D14*
%TO.C,TxD1*%
X28750000Y-10050000D02*
X30150000Y-10050000D01*
X28750000Y-11450000D02*
X28750000Y-10050000D01*
X30150000Y-10050000D02*
X30150000Y-11450000D01*
X30150000Y-11450000D02*
X28750000Y-11450000D01*
%TO.C,GSM_VCC1*%
X44950000Y28450000D02*
X46350000Y28450000D01*
X44950000Y27050000D02*
X44950000Y28450000D01*
X46350000Y28450000D02*
X46350000Y27050000D01*
X46350000Y27050000D02*
X44950000Y27050000D01*
%TD*%
M02*
