%TF.GenerationSoftware,KiCad,Pcbnew,8.0.5*%
%TF.CreationDate,2024-10-25T23:59:19+01:00*%
%TF.ProjectId,V3,56332e6b-6963-4616-945f-706362585858,rev?*%
%TF.SameCoordinates,Original*%
%TF.FileFunction,Paste,Top*%
%TF.FilePolarity,Positive*%
%FSLAX46Y46*%
G04 Gerber Fmt 4.6, Leading zero omitted, Abs format (unit mm)*
G04 Created by KiCad (PCBNEW 8.0.5) date 2024-10-25 23:59:19*
%MOMM*%
%LPD*%
G01*
G04 APERTURE LIST*
G04 Aperture macros list*
%AMRoundRect*
0 Rectangle with rounded corners*
0 $1 Rounding radius*
0 $2 $3 $4 $5 $6 $7 $8 $9 X,Y pos of 4 corners*
0 Add a 4 corners polygon primitive as box body*
4,1,4,$2,$3,$4,$5,$6,$7,$8,$9,$2,$3,0*
0 Add four circle primitives for the rounded corners*
1,1,$1+$1,$2,$3*
1,1,$1+$1,$4,$5*
1,1,$1+$1,$6,$7*
1,1,$1+$1,$8,$9*
0 Add four rect primitives between the rounded corners*
20,1,$1+$1,$2,$3,$4,$5,0*
20,1,$1+$1,$4,$5,$6,$7,0*
20,1,$1+$1,$6,$7,$8,$9,0*
20,1,$1+$1,$8,$9,$2,$3,0*%
G04 Aperture macros list end*
%ADD10RoundRect,1.000000X-0.000010X0.375000X-0.000010X-0.375000X0.000010X-0.375000X0.000010X0.375000X0*%
%ADD11RoundRect,0.254000X-0.762000X-0.254000X0.762000X-0.254000X0.762000X0.254000X-0.762000X0.254000X0*%
%ADD12R,0.889000X0.889000*%
%ADD13R,0.900000X0.900000*%
%ADD14R,0.850000X0.300000*%
%ADD15RoundRect,0.150000X0.200000X-0.150000X0.200000X0.150000X-0.200000X0.150000X-0.200000X-0.150000X0*%
%ADD16R,1.092200X1.803400*%
%ADD17R,0.838200X0.711200*%
%ADD18R,1.016000X1.400000*%
%ADD19RoundRect,0.218750X0.218750X0.256250X-0.218750X0.256250X-0.218750X-0.256250X0.218750X-0.256250X0*%
%ADD20RoundRect,0.225000X0.225000X0.375000X-0.225000X0.375000X-0.225000X-0.375000X0.225000X-0.375000X0*%
%ADD21R,1.400000X1.016000*%
%ADD22RoundRect,0.150000X0.150000X-0.587500X0.150000X0.587500X-0.150000X0.587500X-0.150000X-0.587500X0*%
%ADD23R,0.800000X0.300000*%
%ADD24R,0.800000X0.400000*%
%ADD25RoundRect,0.218750X-0.256250X0.218750X-0.256250X-0.218750X0.256250X-0.218750X0.256250X0.218750X0*%
%ADD26RoundRect,0.100000X-0.225000X-0.100000X0.225000X-0.100000X0.225000X0.100000X-0.225000X0.100000X0*%
%ADD27R,0.800000X0.900000*%
%ADD28R,1.200000X1.000000*%
%ADD29R,1.000000X1.000000*%
%ADD30R,1.200000X0.900000*%
%ADD31R,1.000000X0.900000*%
%ADD32R,7.493000X2.489200*%
%ADD33R,1.092200X0.990600*%
%ADD34R,0.990600X2.311400*%
%ADD35R,0.990600X0.812800*%
%ADD36R,1.803400X1.092200*%
%ADD37R,0.711200X0.838200*%
%ADD38R,2.489200X0.711200*%
%ADD39R,0.711200X2.489200*%
%ADD40R,0.990600X0.990600*%
%ADD41R,3.708400X1.193800*%
%ADD42R,1.524000X1.016000*%
%ADD43RoundRect,0.150000X0.150000X-0.512500X0.150000X0.512500X-0.150000X0.512500X-0.150000X-0.512500X0*%
%ADD44RoundRect,0.218750X-0.218750X-0.256250X0.218750X-0.256250X0.218750X0.256250X-0.218750X0.256250X0*%
%ADD45R,1.016000X0.457200*%
G04 APERTURE END LIST*
D10*
%TO.C,U2*%
X61070000Y-7135000D03*
X58530000Y-7135000D03*
X55990000Y-7135000D03*
X53450000Y-7135000D03*
X50910000Y-7135000D03*
X48370000Y-7135000D03*
X45830000Y-7135000D03*
X45830000Y-23300000D03*
X48370000Y-23300000D03*
X50910000Y-23300000D03*
X53450000Y-23300000D03*
X55990000Y-23300000D03*
X58530000Y-23300000D03*
X61070000Y-23300000D03*
D11*
X44220000Y-19000000D03*
X44220000Y-20905000D03*
%TD*%
D12*
%TO.C,R4*%
X-2095400Y6248800D03*
X-571400Y6248800D03*
%TD*%
D13*
%TO.C,C10*%
X18700000Y-17324000D03*
X18700000Y-15800000D03*
%TD*%
%TO.C,C29*%
X-35695000Y-3100000D03*
X-34171000Y-3100000D03*
%TD*%
%TO.C,C9*%
X15650000Y-22526000D03*
X15650000Y-24050000D03*
%TD*%
D14*
%TO.C,IC1*%
X-187400Y2565600D03*
X-187400Y3065600D03*
X-187400Y3565600D03*
X-187400Y4065600D03*
X-1587400Y4065600D03*
X-1587400Y3565600D03*
X-1587400Y3065600D03*
X-1587400Y2565600D03*
%TD*%
D13*
%TO.C,C6*%
X-3000000Y-10261999D03*
X-3000000Y-8738001D03*
%TD*%
D15*
%TO.C,D4*%
X3000000Y-4500000D03*
X3000000Y-5900000D03*
%TD*%
D16*
%TO.C,CR2*%
X7339000Y2974200D03*
D17*
X7339000Y1125100D03*
%TD*%
D12*
%TO.C,R15*%
X-34136999Y11300001D03*
X-35660999Y11300001D03*
%TD*%
D18*
%TO.C,C14*%
X30961000Y26500000D03*
X32740000Y26500000D03*
%TD*%
D12*
%TO.C,R16*%
X16288001Y24000000D03*
X17811999Y24000000D03*
%TD*%
D13*
%TO.C,C22*%
X-35673999Y9400000D03*
X-34149999Y9400000D03*
%TD*%
D18*
%TO.C,C15*%
X30961000Y19050000D03*
X32740000Y19050000D03*
%TD*%
D19*
%TO.C,L3*%
X51870500Y24584600D03*
X50295500Y24584600D03*
%TD*%
D20*
%TO.C,D9*%
X-26450000Y-600000D03*
X-29750000Y-600000D03*
%TD*%
D12*
%TO.C,R3*%
X30938000Y-8600000D03*
X32462000Y-8600000D03*
%TD*%
%TO.C,R7*%
X12000000Y-8738001D03*
X12000000Y-10261999D03*
%TD*%
D20*
%TO.C,D7*%
X-26450000Y-3100000D03*
X-29750000Y-3100000D03*
%TD*%
D12*
%TO.C,R12*%
X-34136999Y13200001D03*
X-35660999Y13200001D03*
%TD*%
D15*
%TO.C,D10*%
X-6000000Y-4500000D03*
X-6000000Y-5900000D03*
%TD*%
D13*
%TO.C,C12*%
X-12000000Y-8738001D03*
X-12000000Y-10261999D03*
%TD*%
D21*
%TO.C,C1*%
X2324200Y1508200D03*
X2324200Y3287200D03*
%TD*%
D15*
%TO.C,D5*%
X-49000000Y27700000D03*
X-49000000Y26300000D03*
%TD*%
D18*
%TO.C,C5*%
X56461000Y-26100000D03*
X58240000Y-26100000D03*
%TD*%
D13*
%TO.C,C11*%
X18700000Y-22526000D03*
X18700000Y-24050000D03*
%TD*%
D22*
%TO.C,Q3*%
X-46550000Y-18437500D03*
X-44650000Y-18437500D03*
X-45600000Y-16562500D03*
%TD*%
D12*
%TO.C,R13*%
X-46423998Y-21500000D03*
X-44900000Y-21500000D03*
%TD*%
%TO.C,R9*%
X16288001Y26500000D03*
X17811999Y26500000D03*
%TD*%
%TO.C,R8*%
X-6000000Y-8738001D03*
X-6000000Y-10261999D03*
%TD*%
D13*
%TO.C,C33*%
X-35686999Y7650000D03*
X-34162999Y7650000D03*
%TD*%
D18*
%TO.C,C2*%
X-1689000Y670000D03*
X90000Y670000D03*
%TD*%
D12*
%TO.C,R1*%
X-52000000Y761999D03*
X-52000000Y-761999D03*
%TD*%
D18*
%TO.C,C3*%
X-1716000Y-1816800D03*
X63000Y-1816800D03*
%TD*%
D12*
%TO.C,R18*%
X17811999Y19000000D03*
X16288001Y19000000D03*
%TD*%
%TO.C,R6*%
X3000000Y-8738001D03*
X3000000Y-10261999D03*
%TD*%
D13*
%TO.C,C21*%
X-35687999Y500000D03*
X-34163999Y500000D03*
%TD*%
D20*
%TO.C,D8*%
X-26450000Y-5600000D03*
X-29750000Y-5600000D03*
%TD*%
D18*
%TO.C,C17*%
X30961000Y16500000D03*
X32740000Y16500000D03*
%TD*%
D13*
%TO.C,C20*%
X47562000Y10500000D03*
X46038000Y10500000D03*
%TD*%
D21*
%TO.C,C4*%
X4788000Y1508200D03*
X4788000Y3287200D03*
%TD*%
%TO.C,C7*%
X-14950000Y22389000D03*
X-14950000Y20610000D03*
%TD*%
D12*
%TO.C,R17*%
X17811999Y21500000D03*
X16288001Y21500000D03*
%TD*%
D23*
%TO.C,J3*%
X-40300000Y10800000D03*
X-40300000Y10300000D03*
X-40300000Y9800000D03*
X-40300000Y9300000D03*
X-40300000Y8800000D03*
X-40300000Y8300000D03*
X-40300000Y7800000D03*
X-40300000Y7300000D03*
X-40300000Y6800000D03*
X-40300000Y6300000D03*
X-40300000Y5800000D03*
X-40300000Y5300000D03*
X-40300000Y4800000D03*
X-40300000Y4300000D03*
X-40300000Y3800000D03*
X-40300000Y3300000D03*
X-40300000Y2800000D03*
X-40300000Y2300000D03*
X-40300000Y1800000D03*
X-40300000Y1300000D03*
X-40300000Y800000D03*
X-40300000Y300000D03*
X-40300000Y-200000D03*
X-40300000Y-700000D03*
D24*
X-42800000Y11750000D03*
X-42800000Y-1650000D03*
%TD*%
D15*
%TO.C,D6*%
X-49010000Y-26930000D03*
X-49010000Y-28330000D03*
%TD*%
D25*
%TO.C,L2*%
X56831600Y13787500D03*
X56831600Y12212500D03*
%TD*%
D13*
%TO.C,C26*%
X-35698999Y2350000D03*
X-34174999Y2350000D03*
%TD*%
D26*
%TO.C,U18*%
X8050000Y-8850000D03*
X8050000Y-9500000D03*
X8050000Y-10150000D03*
X9950000Y-10150000D03*
X9950000Y-9500000D03*
X9950000Y-8850000D03*
%TD*%
D13*
%TO.C,C25*%
X-27149999Y9300000D03*
X-28673999Y9300000D03*
%TD*%
%TO.C,C8*%
X15650000Y-17324000D03*
X15650000Y-15800000D03*
%TD*%
D27*
%TO.C,ANT1*%
X55450000Y16150000D03*
D28*
X55850000Y23750000D03*
X55850000Y29100000D03*
X62550000Y29100000D03*
D29*
X62550000Y23750000D03*
D30*
X62550000Y16150000D03*
D31*
X56840000Y16150000D03*
%TD*%
D12*
%TO.C,R14*%
X-30880000Y17240000D03*
X-32403998Y17240000D03*
%TD*%
D32*
%TO.C,L5*%
X0Y-17700001D03*
X0Y-23299999D03*
%TD*%
D18*
%TO.C,C13*%
X30961000Y24000000D03*
X32740000Y24000000D03*
%TD*%
D15*
%TO.C,D3*%
X0Y-4500000D03*
X0Y-5900000D03*
%TD*%
D12*
%TO.C,R2*%
X-50000000Y761999D03*
X-50000000Y-761999D03*
%TD*%
D13*
%TO.C,C23*%
X-35686999Y5900000D03*
X-34162999Y5900000D03*
%TD*%
D22*
%TO.C,Q4*%
X-32650000Y21562500D03*
X-30750000Y21562500D03*
X-31700000Y23437501D03*
%TD*%
D33*
%TO.C,U12*%
X1820000Y17575000D03*
X-1820000Y17575000D03*
D34*
X5100000Y28700000D03*
X5100000Y21500002D03*
X-5100000Y21500002D03*
X-5100000Y28700000D03*
D35*
X-4900000Y25850000D03*
X-4900000Y24650000D03*
X4900000Y25850000D03*
X-4900000Y23450000D03*
X4900000Y24650000D03*
X4900000Y23450000D03*
%TD*%
D13*
%TO.C,C24*%
X-35698999Y4150000D03*
X-34174999Y4150000D03*
%TD*%
D26*
%TO.C,U1*%
X-9950000Y-8850000D03*
X-9950000Y-9500000D03*
X-9950000Y-10150000D03*
X-8050000Y-10150000D03*
X-8050000Y-9500000D03*
X-8050000Y-8850000D03*
%TD*%
D18*
%TO.C,C16*%
X30961000Y21500000D03*
X32740000Y21500000D03*
%TD*%
D36*
%TO.C,CR1*%
X45700900Y22500000D03*
D37*
X47550000Y22500000D03*
%TD*%
D15*
%TO.C,D1*%
X-3000000Y-4500000D03*
X-3000000Y-5900000D03*
%TD*%
D13*
%TO.C,C18*%
X6000000Y-10261999D03*
X6000000Y-8738001D03*
%TD*%
D38*
%TO.C,U11*%
X24350000Y10500002D03*
X24350001Y9400002D03*
X24350001Y8300004D03*
X24350000Y7200004D03*
X24350000Y6100005D03*
X24350001Y5000003D03*
X24350000Y3900003D03*
X24350001Y2800003D03*
X24350000Y1700001D03*
X24350000Y600002D03*
X24350001Y-499998D03*
X24350000Y-1599999D03*
X24350000Y-2699999D03*
D39*
X27599999Y-4699994D03*
X28699999Y-4699995D03*
X29799998Y-4699995D03*
X30900000Y-4699994D03*
X32000000Y-4699995D03*
X33100000Y-4699994D03*
X34200002Y-4699995D03*
X35300001Y-4699995D03*
X36400001Y-4699994D03*
D38*
X39650000Y-2699996D03*
X39649999Y-1599996D03*
X39650000Y-499996D03*
X39650000Y600002D03*
X39650000Y1700001D03*
X39649999Y2800003D03*
X39650000Y3900003D03*
X39649999Y5000003D03*
X39650000Y6100005D03*
X39650000Y7200004D03*
X39649999Y8300004D03*
X39650000Y9400005D03*
X39650000Y10500005D03*
D39*
X36400001Y12500000D03*
X35300001Y12500001D03*
X34200002Y12500001D03*
X33100000Y12500000D03*
X32000000Y12500001D03*
X30900000Y12500000D03*
X29799998Y12500001D03*
X28699999Y12500001D03*
X27599999Y12500000D03*
D40*
X28400000Y6600003D03*
X28400000Y4800004D03*
X28400000Y3000002D03*
X28400000Y1200003D03*
X30200000Y-599997D03*
X32000000Y-599998D03*
X33800000Y-599997D03*
X35600000Y1200003D03*
X35600000Y3000002D03*
X35600000Y4800004D03*
X35600000Y6600003D03*
X33800000Y8400003D03*
X32000000Y8400004D03*
X30200000Y8400003D03*
%TD*%
D26*
%TO.C,U3*%
X-950000Y-8850000D03*
X-950000Y-9500000D03*
X-950000Y-10150000D03*
X950000Y-10150000D03*
X950000Y-9500000D03*
X950000Y-8850000D03*
%TD*%
D41*
%TO.C,L6*%
X-27850000Y5900000D03*
X-27850000Y3106000D03*
%TD*%
D12*
%TO.C,R5*%
X38061999Y-8500000D03*
X36537999Y-8500000D03*
%TD*%
D13*
%TO.C,C30*%
X-35687999Y-4800000D03*
X-34163999Y-4800000D03*
%TD*%
D42*
%TO.C,L1*%
X-3987400Y2815600D03*
X-3987400Y1037600D03*
%TD*%
D13*
%TO.C,C28*%
X-35662999Y-1300000D03*
X-34138999Y-1300000D03*
%TD*%
D43*
%TO.C,D2*%
X-19349998Y20225000D03*
X-18399999Y20225000D03*
X-17450000Y20225000D03*
X-17450000Y22500000D03*
X-19349998Y22500000D03*
%TD*%
D44*
%TO.C,L4*%
X42508500Y10480000D03*
X44083500Y10480000D03*
%TD*%
D45*
%TO.C,Q8*%
X-29032800Y12849999D03*
X-29032800Y11550001D03*
X-26950000Y12200000D03*
%TD*%
M02*
