%TF.GenerationSoftware,KiCad,Pcbnew,8.0.5*%
%TF.CreationDate,2024-10-26T00:13:34+01:00*%
%TF.ProjectId,V3,56332e6b-6963-4616-945f-706362585858,rev?*%
%TF.SameCoordinates,Original*%
%TF.FileFunction,Drillmap*%
%TF.FilePolarity,Positive*%
%FSLAX45Y45*%
G04 Gerber Fmt 4.5, Leading zero omitted, Abs format (unit mm)*
G04 Created by KiCad (PCBNEW 8.0.5) date 2024-10-26 00:13:34*
%MOMM*%
%LPD*%
G01*
G04 APERTURE LIST*
%ADD10C,0.100000*%
%ADD11C,0.200000*%
G04 APERTURE END LIST*
D10*
X-6410000Y2450000D02*
X-5100000Y2450000D01*
X-6410000Y-3050000D02*
X6410000Y-3050000D01*
X-6410000Y-2450000D02*
X-5100000Y-2450000D01*
X-5000000Y-2350000D02*
G75*
G02*
X-5100000Y-2450000I-100000J0D01*
G01*
X-6410000Y-3050000D02*
X-6410000Y-2450000D01*
X6410000Y-3050000D02*
X6410000Y3050000D01*
X-6410000Y3050000D02*
X-6410000Y2450000D01*
X-6410000Y-860000D02*
X-5100000Y-860000D01*
X-5000000Y960000D02*
G75*
G02*
X-5100000Y860000I-100000J0D01*
G01*
X-6410000Y860000D02*
X-6410000Y-860000D01*
X-6410000Y860000D02*
X-5100000Y860000D01*
X-5000000Y-960000D02*
X-5000000Y-2350000D01*
X-5100000Y-860000D02*
G75*
G02*
X-5000000Y-960000I0J-100000D01*
G01*
X-6410000Y3050000D02*
X6410000Y3050000D01*
X-5000000Y2350000D02*
X-5000000Y960000D01*
X-5100000Y2450000D02*
G75*
G02*
X-5000000Y2350000I0J-100000D01*
G01*
D11*
X-6154223Y-3366484D02*
X-6154223Y-3166484D01*
X-6154223Y-3166484D02*
X-6106604Y-3166484D01*
X-6106604Y-3166484D02*
X-6078033Y-3176008D01*
X-6078033Y-3176008D02*
X-6058985Y-3195055D01*
X-6058985Y-3195055D02*
X-6049461Y-3214103D01*
X-6049461Y-3214103D02*
X-6039937Y-3252198D01*
X-6039937Y-3252198D02*
X-6039937Y-3280769D01*
X-6039937Y-3280769D02*
X-6049461Y-3318865D01*
X-6049461Y-3318865D02*
X-6058985Y-3337912D01*
X-6058985Y-3337912D02*
X-6078033Y-3356960D01*
X-6078033Y-3356960D02*
X-6106604Y-3366484D01*
X-6106604Y-3366484D02*
X-6154223Y-3366484D01*
X-5954223Y-3366484D02*
X-5954223Y-3233150D01*
X-5954223Y-3271246D02*
X-5944699Y-3252198D01*
X-5944699Y-3252198D02*
X-5935175Y-3242674D01*
X-5935175Y-3242674D02*
X-5916128Y-3233150D01*
X-5916128Y-3233150D02*
X-5897080Y-3233150D01*
X-5830414Y-3366484D02*
X-5830414Y-3233150D01*
X-5830414Y-3166484D02*
X-5839937Y-3176008D01*
X-5839937Y-3176008D02*
X-5830414Y-3185531D01*
X-5830414Y-3185531D02*
X-5820890Y-3176008D01*
X-5820890Y-3176008D02*
X-5830414Y-3166484D01*
X-5830414Y-3166484D02*
X-5830414Y-3185531D01*
X-5706604Y-3366484D02*
X-5725652Y-3356960D01*
X-5725652Y-3356960D02*
X-5735175Y-3337912D01*
X-5735175Y-3337912D02*
X-5735175Y-3166484D01*
X-5601842Y-3366484D02*
X-5620890Y-3356960D01*
X-5620890Y-3356960D02*
X-5630414Y-3337912D01*
X-5630414Y-3337912D02*
X-5630414Y-3166484D01*
X-5373271Y-3366484D02*
X-5373271Y-3166484D01*
X-5373271Y-3166484D02*
X-5306604Y-3309341D01*
X-5306604Y-3309341D02*
X-5239937Y-3166484D01*
X-5239937Y-3166484D02*
X-5239937Y-3366484D01*
X-5058985Y-3366484D02*
X-5058985Y-3261722D01*
X-5058985Y-3261722D02*
X-5068509Y-3242674D01*
X-5068509Y-3242674D02*
X-5087556Y-3233150D01*
X-5087556Y-3233150D02*
X-5125652Y-3233150D01*
X-5125652Y-3233150D02*
X-5144699Y-3242674D01*
X-5058985Y-3356960D02*
X-5078033Y-3366484D01*
X-5078033Y-3366484D02*
X-5125652Y-3366484D01*
X-5125652Y-3366484D02*
X-5144699Y-3356960D01*
X-5144699Y-3356960D02*
X-5154223Y-3337912D01*
X-5154223Y-3337912D02*
X-5154223Y-3318865D01*
X-5154223Y-3318865D02*
X-5144699Y-3299817D01*
X-5144699Y-3299817D02*
X-5125652Y-3290293D01*
X-5125652Y-3290293D02*
X-5078033Y-3290293D01*
X-5078033Y-3290293D02*
X-5058985Y-3280769D01*
X-4963747Y-3233150D02*
X-4963747Y-3433150D01*
X-4963747Y-3242674D02*
X-4944699Y-3233150D01*
X-4944699Y-3233150D02*
X-4906604Y-3233150D01*
X-4906604Y-3233150D02*
X-4887556Y-3242674D01*
X-4887556Y-3242674D02*
X-4878033Y-3252198D01*
X-4878033Y-3252198D02*
X-4868509Y-3271246D01*
X-4868509Y-3271246D02*
X-4868509Y-3328388D01*
X-4868509Y-3328388D02*
X-4878033Y-3347436D01*
X-4878033Y-3347436D02*
X-4887556Y-3356960D01*
X-4887556Y-3356960D02*
X-4906604Y-3366484D01*
X-4906604Y-3366484D02*
X-4944699Y-3366484D01*
X-4944699Y-3366484D02*
X-4963747Y-3356960D01*
X-4782795Y-3347436D02*
X-4773271Y-3356960D01*
X-4773271Y-3356960D02*
X-4782795Y-3366484D01*
X-4782795Y-3366484D02*
X-4792318Y-3356960D01*
X-4792318Y-3356960D02*
X-4782795Y-3347436D01*
X-4782795Y-3347436D02*
X-4782795Y-3366484D01*
X-4782795Y-3242674D02*
X-4773271Y-3252198D01*
X-4773271Y-3252198D02*
X-4782795Y-3261722D01*
X-4782795Y-3261722D02*
X-4792318Y-3252198D01*
X-4792318Y-3252198D02*
X-4782795Y-3242674D01*
X-4782795Y-3242674D02*
X-4782795Y-3261722D01*
M02*
