M48
; DRILL file {KiCad 8.0.5} date 2024-10-04T15:34:09+0100
; FORMAT={-:-/ absolute / inch / decimal}
; #@! TF.CreationDate,2024-10-04T15:34:09+01:00
; #@! TF.GenerationSoftware,Kicad,Pcbnew,8.0.5
; #@! TF.FileFunction,Plated,1,2,PTH
FMAT,2
INCH
; #@! TA.AperFunction,Plated,PTH,ViaDrill
T1C0.0157
; #@! TA.AperFunction,Plated,PTH,ComponentDrill
T2C0.0394
; #@! TA.AperFunction,Plated,PTH,ComponentDrill
T3C0.0728
; #@! TA.AperFunction,Plated,PTH,ComponentDrill
T4C0.1063
%
G90
G05
T1
X-2.485Y-0.1787
X-2.4803Y0.1378
X-2.4756Y-1.1213
X-2.3992Y-0.1469
X-2.3957Y-1.0039
X-2.3677Y-1.1642
X-2.3622Y0.1378
X-2.2421Y-1.165
X-2.1831Y-0.0839
X-2.1807Y0.0898
X-2.1319Y-1.1646
X-2.0209Y-0.1772
X-2.0146Y-1.1646
X-2.0142Y-1.0016
X-2.0Y1.0768
X-1.9941Y1.0118
X-1.9803Y0.0736
X-1.9488Y-0.1268
X-1.9382Y-0.3224
X-1.9346Y-0.9504
X-1.9331Y0.5409
X-1.9331Y0.3937
X-1.9323Y-0.7606
X-1.9319Y0.8827
X-1.9319Y0.7213
X-1.9315Y-0.4547
X-1.9303Y-0.6102
X-1.9264Y0.2339
X-1.8976Y-1.1646
X-1.8909Y0.0421
X-1.8583Y1.0854
X-1.7421Y-0.9685
X-1.7343Y0.5413
X-1.7307Y-1.1646
X-1.7067Y-0.8268
X-1.7008Y1.0862
X-1.687Y0.4291
X-1.687Y0.0236
X-1.687Y-0.1339
X-1.6791Y0.185
X-1.6752Y0.2402
X-1.6555Y0.2835
X-1.6476Y0.1417
X-1.6437Y-0.7441
X-1.6425Y-0.5547
X-1.6398Y-0.189
X-1.6122Y0.5394
X-1.5937Y-1.1638
X-1.5925Y-0.1339
X-1.5925Y-0.8268
X-1.5567Y1.0862
X-1.5386Y-0.9602
X-1.5335Y-0.2362
X-1.5335Y-0.3701
X-1.5335Y-0.5354
X-1.5217Y0.2953
X-1.5217Y0.248
X-1.5217Y0.2008
X-1.4882Y-0.9035
X-1.4862Y0.9055
X-1.4705Y0.6693
X-1.4705Y0.5906
X-1.4614Y-1.1646
X-1.435Y-1.0512
X-1.4051Y1.0862
X-1.3976Y-0.8681
X-1.346Y0.7224
X-1.3417Y-1.1638
X-1.3071Y-1.0492
X-1.3051Y-0.378
X-1.3051Y-0.5354
X-1.3012Y0.2008
X-1.3012Y0.126
X-1.3012Y0.0551
X-1.3012Y-0.0866
X-1.3012Y-0.2323
X-1.2972Y0.3346
X-1.2854Y-0.6614
X-1.2854Y-0.7126
X-1.2835Y-0.7795
X-1.2776Y-0.8386
X-1.2736Y0.4094
X-1.2425Y1.0854
X-1.2244Y0.5945
X-1.2106Y0.4843
X-1.1949Y-1.1642
X-1.1555Y0.9055
X-1.1043Y-0.8546
X-1.0654Y1.0854
X-1.0587Y-1.1638
X-1.0413Y-0.2795
X-0.935Y-0.3701
X-0.9063Y-1.1642
X-0.898Y1.0854
X-0.8957Y-0.874
X-0.8799Y0.189
X-0.8248Y0.2441
X-0.8012Y-0.5039
X-0.7776Y0.0866
X-0.7697Y0.3071
X-0.7697Y-0.1811
X-0.7665Y1.0862
X-0.7618Y-0.8386
X-0.7594Y-1.165
X-0.7303Y0.5709
X-0.7224Y0.1417
X-0.6909Y0.9094
X-0.6831Y-0.3622
X-0.6831Y-0.9252
X-0.6594Y0.1969
X-0.6437Y-0.063
X-0.6437Y-0.8386
X-0.6437Y-0.8799
X-0.6268Y1.0862
X-0.6035Y-1.1642
X-0.5807Y0.0079
X-0.5256Y0.063
X-0.5138Y-0.8386
X-0.5098Y-0.189
X-0.4941Y0.2835
X-0.4862Y-0.4646
X-0.4705Y0.5709
X-0.4571Y-1.1646
X-0.4559Y1.0866
X-0.4508Y0.9094
X-0.4469Y-0.126
X-0.439Y0.0152
X-0.4193Y0.4409
X-0.3878Y0.2795
X-0.3839Y-0.063
X-0.3445Y-0.3622
X-0.3063Y1.0866
X-0.2957Y-1.1646
X-0.2894Y0.2795
X-0.2815Y-0.2913
X-0.2657Y0.5984
X-0.2343Y-0.2283
X-0.2106Y-0.4882
X-0.1882Y0.3483
X-0.1882Y0.2893
X-0.1882Y0.2302
X-0.1882Y0.1711
X-0.1882Y0.1121
X-0.1882Y0.053
X-0.1882Y-0.0651
X-0.187Y-0.1654
X-0.185Y-0.6083
X-0.1811Y-0.7205
X-0.1811Y-0.8091
X-0.1811Y-0.9094
X-0.1811Y-1.0059
X-0.1752Y0.9252
X-0.1634Y0.5984
X-0.1488Y0.3877
X-0.1476Y-0.4252
X-0.1406Y-1.1654
X-0.1374Y1.0866
X-0.1122Y0.7559
X-0.1094Y-0.0651
X-0.0925Y-0.3543
X-0.0925Y-0.6083
X-0.0925Y-1.0039
X-0.0897Y0.3877
X-0.0809Y0.3386
X-0.0728Y0.5984
X-0.0531Y-0.2677
X-0.0504Y-0.0651
X-0.0307Y0.3877
X-0.0039Y-1.0039
X0.0Y-0.6102
X0.0Y-1.1646
X0.0059Y-0.189
X0.0087Y-0.0651
X0.0284Y0.3877
X0.0372Y0.287
X0.0433Y1.0858
X0.065Y0.5866
X0.0677Y-0.0651
X0.0728Y-0.2677
X0.0728Y-0.3622
X0.0728Y-0.4488
X0.0807Y-0.6102
X0.0846Y-1.002
X0.1081Y0.0906
X0.1081Y0.0512
X0.1081Y0.0079
X0.128Y0.8858
X0.1514Y0.0906
X0.1514Y0.0512
X0.1514Y0.0079
X0.1752Y-0.813
X0.176Y-1.1646
X0.1791Y-0.6142
X0.1791Y-1.0039
X0.1829Y0.2854
X0.1849Y0.3346
X0.1947Y0.0906
X0.1947Y0.0512
X0.1947Y0.0079
X0.2012Y1.0862
X0.2146Y0.5669
X0.2185Y0.4409
X0.2264Y-0.1811
X0.238Y0.0906
X0.238Y0.0512
X0.238Y0.0079
X0.2402Y0.8839
X0.2795Y-0.813
X0.2813Y0.0906
X0.2813Y0.0512
X0.2813Y0.0079
X0.2892Y0.2795
X0.3012Y-0.2677
X0.3012Y-0.3543
X0.3012Y-0.4488
X0.3012Y-0.5276
X0.3386Y-1.1646
X0.3496Y1.0862
X0.3878Y0.4291
X0.3957Y-0.6969
X0.3957Y-0.9252
X0.3996Y-0.815
X0.4173Y0.6693
X0.4272Y0.5354
X0.4626Y0.0039
X0.4705Y0.8524
X0.4866Y-1.165
X0.5Y0.5492
X0.502Y-0.9252
X0.5059Y-0.6969
X0.5138Y-0.815
X0.5528Y0.2157
X0.5925Y-0.2598
X0.5925Y-0.3543
X0.5925Y-0.4488
X0.5925Y-0.5276
X0.6161Y1.0118
X0.6161Y0.5197
X0.6161Y-0.6929
X0.6161Y-0.9252
X0.6173Y1.0858
X0.6228Y-1.165
X0.6358Y-0.815
X0.7205Y0.4665
X0.7205Y0.2087
X0.75Y-0.6969
X0.75Y-0.815
X0.75Y-0.9252
X0.7825Y0.0502
X0.7858Y-1.1642
X0.8169Y0.6772
X0.8366Y-0.6969
X0.8406Y0.1417
X0.8406Y-0.9252
X0.8681Y-0.813
X0.9232Y-0.2677
X0.9232Y-0.3622
X0.9232Y-0.4488
X0.9232Y-0.5276
X0.9626Y0.5079
X0.9803Y-1.165
X1.0059Y-0.813
X1.0413Y-0.7008
X1.0413Y-0.9252
X1.0492Y1.0862
X1.0965Y0.8701
X1.0965Y0.7677
X1.0965Y0.6614
X1.126Y-0.813
X1.1339Y-0.2343
X1.1516Y-0.9252
X1.1555Y-0.7008
X1.1634Y1.0157
X1.1744Y-1.1646
X1.2205Y0.4331
X1.2618Y-0.5276
X1.2618Y-0.7008
X1.2618Y-0.9252
X1.2638Y-0.815
X1.2657Y0.4331
X1.2854Y1.0862
X1.3146Y-1.1646
X1.376Y-0.7008
X1.3799Y-0.9252
X1.3839Y-0.815
X1.3917Y0.4331
X1.439Y0.435
X1.4429Y0.9685
X1.4429Y0.8661
X1.4469Y0.7638
X1.4665Y0.0787
X1.487Y0.4228
X1.4874Y0.3654
X1.4882Y0.4768
X1.4921Y-1.165
X1.4941Y-0.813
X1.498Y-0.7008
X1.498Y-0.9252
X1.5028Y-0.211
X1.5071Y1.0858
X1.5504Y0.4917
X1.6067Y0.4909
X1.6122Y-0.813
X1.6654Y0.3996
X1.6665Y0.4913
X1.6744Y-1.1634
X1.689Y-0.4134
X1.6969Y0.9587
X1.6988Y0.6618
X1.7028Y-0.8898
X1.7067Y-0.685
X1.7205Y0.3996
X1.7343Y0.4913
X1.7362Y1.0854
X1.7697Y-0.6949
X1.7736Y0.3996
X1.7976Y0.4933
X1.813Y-0.8248
X1.815Y-0.7461
X1.8268Y0.3996
X1.8329Y-0.3781
X1.8512Y-1.1642
X1.872Y0.4941
X1.8839Y0.3996
X1.8839Y-0.5276
X1.9339Y0.4953
X1.935Y0.4016
X1.9521Y1.0821
X1.9521Y1.023
X1.9521Y0.9049
X1.9521Y0.8459
X1.9521Y0.7868
X1.9521Y0.7277
X1.9521Y0.6687
X1.9521Y0.6096
X1.9521Y0.5506
X1.9547Y0.3602
X1.9547Y0.315
X1.9547Y0.2638
X1.9547Y0.2067
X1.9657Y-0.4346
X1.9993Y0.4488
X2.0039Y0.2067
X2.0598Y-1.1646
X2.0669Y0.2067
X2.0965Y-0.5354
X2.0965Y-0.7559
X2.1104Y0.5529
X2.1299Y0.2067
X2.1449Y-1.0697
X2.1614Y-0.1319
X2.189Y0.2067
X2.2087Y-1.0898
X2.2474Y0.2061
X2.2526Y-0.349
X2.2854Y-1.1642
X2.3064Y0.2061
X2.3539Y-0.8307
X2.3551Y-0.3492
X2.3655Y0.2061
X2.3792Y-1.0162
X2.3957Y-1.1642
X2.4245Y0.2061
X2.4626Y-0.3453
X2.4836Y0.2061
X2.4862Y-1.1425
X2.4866Y0.078
X2.4866Y-0.0012
X2.487Y-0.0776
X2.4874Y-0.1776
X2.4874Y-1.028
X2.4878Y-0.8331
T2
X-2.4016Y0.2165
X-2.4016Y-0.2165
X-2.3016Y1.0433
X-2.3016Y0.2165
X-2.3016Y-0.2165
X-2.3016Y-1.0433
X-2.2016Y1.0433
X-2.2016Y0.2165
X-2.2016Y-0.2165
X-2.2016Y-1.0433
X-2.1016Y0.2165
X-2.1016Y-0.2165
T3
X-1.6437Y0.96
X-1.6437Y0.66
X-1.6437Y-0.66
X-1.6437Y-0.96
X-0.998Y0.96
X-0.998Y0.66
X-0.998Y-0.66
X-0.998Y-0.96
X-0.3524Y0.96
X-0.3524Y0.66
X-0.3524Y-0.66
X-0.3524Y-0.96
X0.2933Y0.96
X0.2933Y0.66
X0.2933Y-0.66
X0.2933Y-0.96
X0.939Y0.96
X0.939Y0.66
X0.939Y-0.66
X0.939Y-0.96
X1.5846Y0.96
X1.5846Y0.66
X1.5846Y-0.66
X1.5846Y-0.96
T4
X-2.3622Y0.0
X-2.0866Y0.0
X2.0866Y0.0
X2.3622Y0.0
M30
