%TF.GenerationSoftware,KiCad,Pcbnew,8.0.5*%
%TF.CreationDate,2024-10-25T23:47:26+01:00*%
%TF.ProjectId,V3,56332e6b-6963-4616-945f-706362585858,rev?*%
%TF.SameCoordinates,Original*%
%TF.FileFunction,Drillmap*%
%TF.FilePolarity,Positive*%
%FSLAX45Y45*%
G04 Gerber Fmt 4.5, Leading zero omitted, Abs format (unit mm)*
G04 Created by KiCad (PCBNEW 8.0.5) date 2024-10-25 23:47:26*
%MOMM*%
%LPD*%
G01*
G04 APERTURE LIST*
%ADD10C,0.100000*%
%ADD11C,0.200000*%
%ADD12C,0.185000*%
%ADD13C,0.270000*%
G04 APERTURE END LIST*
D10*
X-6410000Y2450000D02*
X-5100000Y2450000D01*
X-6410000Y-3050000D02*
X6410000Y-3050000D01*
X-6410000Y-2450000D02*
X-5100000Y-2450000D01*
X-5000000Y-2350000D02*
G75*
G02*
X-5100000Y-2450000I-100000J0D01*
G01*
X-6410000Y-3050000D02*
X-6410000Y-2450000D01*
X6410000Y-3050000D02*
X6410000Y3050000D01*
X-6410000Y3050000D02*
X-6410000Y2450000D01*
X-6410000Y-860000D02*
X-5100000Y-860000D01*
X-5000000Y960000D02*
G75*
G02*
X-5100000Y860000I-100000J0D01*
G01*
X-6410000Y860000D02*
X-6410000Y-860000D01*
X-6410000Y860000D02*
X-5100000Y860000D01*
X-5000000Y-960000D02*
X-5000000Y-2350000D01*
X-5100000Y-860000D02*
G75*
G02*
X-5000000Y-960000I0J-100000D01*
G01*
X-6410000Y3050000D02*
X6410000Y3050000D01*
X-5000000Y2350000D02*
X-5000000Y960000D01*
X-5100000Y2450000D02*
G75*
G02*
X-5000000Y2350000I0J-100000D01*
G01*
D11*
D10*
X-6340000Y2775000D02*
X-6300000Y2735000D01*
X-6300000Y2775000D02*
X-6340000Y2735000D01*
X-6340000Y-2709000D02*
X-6300000Y-2749000D01*
X-6300000Y-2709000D02*
X-6340000Y-2749000D01*
X-6338000Y-2524000D02*
X-6298000Y-2564000D01*
X-6298000Y-2524000D02*
X-6338000Y-2564000D01*
X-6336000Y2568000D02*
X-6296000Y2528000D01*
X-6296000Y2568000D02*
X-6336000Y2528000D01*
X-6115000Y370000D02*
X-6075000Y330000D01*
X-6075000Y370000D02*
X-6115000Y330000D01*
X-6104000Y-2533000D02*
X-6064000Y-2573000D01*
X-6064000Y-2533000D02*
X-6104000Y-2573000D01*
X-6095000Y2980000D02*
X-6055000Y2940000D01*
X-6055000Y2980000D02*
X-6095000Y2940000D01*
X-6091000Y2564000D02*
X-6051000Y2524000D01*
X-6051000Y2564000D02*
X-6091000Y2524000D01*
X-6034000Y-2937000D02*
X-5994000Y-2977000D01*
X-5994000Y-2937000D02*
X-6034000Y-2977000D01*
X-5885000Y2980000D02*
X-5845000Y2940000D01*
X-5845000Y2980000D02*
X-5885000Y2940000D01*
X-5874000Y363000D02*
X-5834000Y323000D01*
X-5834000Y363000D02*
X-5874000Y323000D01*
X-5839000Y-2939000D02*
X-5799000Y-2979000D01*
X-5799000Y-2939000D02*
X-5839000Y-2979000D01*
X-5693000Y2974000D02*
X-5653000Y2934000D01*
X-5653000Y2974000D02*
X-5693000Y2934000D01*
X-5659000Y-2936000D02*
X-5619000Y-2976000D01*
X-5619000Y-2936000D02*
X-5659000Y-2976000D01*
X-5485000Y2980000D02*
X-5445000Y2940000D01*
X-5445000Y2980000D02*
X-5485000Y2940000D01*
X-5415000Y-2938000D02*
X-5375000Y-2978000D01*
X-5375000Y-2938000D02*
X-5415000Y-2978000D01*
X-5400000Y-2522000D02*
X-5360000Y-2562000D01*
X-5360000Y-2522000D02*
X-5400000Y-2562000D01*
X-5135000Y-400000D02*
X-5095000Y-440000D01*
X-5095000Y-400000D02*
X-5135000Y-440000D01*
X-5064000Y-2522000D02*
X-5024000Y-2562000D01*
X-5024000Y-2522000D02*
X-5064000Y-2562000D01*
X-5038000Y-2933000D02*
X-4998000Y-2973000D01*
X-4998000Y-2933000D02*
X-5038000Y-2973000D01*
X-4945000Y-360000D02*
X-4905000Y-400000D01*
X-4905000Y-360000D02*
X-4945000Y-400000D01*
X-4943000Y-799000D02*
X-4903000Y-839000D01*
X-4903000Y-799000D02*
X-4943000Y-839000D01*
X-4934000Y-2394000D02*
X-4894000Y-2434000D01*
X-4894000Y-2394000D02*
X-4934000Y-2434000D01*
X-4930000Y1705000D02*
X-4890000Y1665000D01*
X-4890000Y1705000D02*
X-4930000Y1665000D01*
X-4930000Y1394000D02*
X-4890000Y1354000D01*
X-4890000Y1394000D02*
X-4930000Y1354000D01*
X-4928000Y-1912000D02*
X-4888000Y-1952000D01*
X-4888000Y-1912000D02*
X-4928000Y-1952000D01*
X-4926000Y-1135000D02*
X-4886000Y-1175000D01*
X-4886000Y-1135000D02*
X-4926000Y-1175000D01*
X-4925000Y2280000D02*
X-4885000Y2240000D01*
X-4885000Y2280000D02*
X-4925000Y2240000D01*
X-4925000Y1990000D02*
X-4885000Y1950000D01*
X-4885000Y1990000D02*
X-4925000Y1950000D01*
X-4925000Y1020000D02*
X-4885000Y980000D01*
X-4885000Y1020000D02*
X-4925000Y980000D01*
X-4925000Y570000D02*
X-4885000Y530000D01*
X-4885000Y570000D02*
X-4925000Y530000D01*
X-4923000Y-1530000D02*
X-4883000Y-1570000D01*
X-4883000Y-1530000D02*
X-4923000Y-1570000D01*
X-4915000Y2980000D02*
X-4875000Y2940000D01*
X-4875000Y2980000D02*
X-4915000Y2940000D01*
X-4758000Y-2937000D02*
X-4718000Y-2977000D01*
X-4718000Y-2937000D02*
X-4758000Y-2977000D01*
X-4725000Y700000D02*
X-4685000Y660000D01*
X-4685000Y700000D02*
X-4725000Y660000D01*
X-4717000Y443000D02*
X-4677000Y403000D01*
X-4677000Y443000D02*
X-4717000Y403000D01*
X-4670000Y2980000D02*
X-4630000Y2940000D01*
X-4630000Y2980000D02*
X-4670000Y2940000D01*
X-4618000Y-455000D02*
X-4578000Y-495000D01*
X-4578000Y-455000D02*
X-4618000Y-495000D01*
X-4537000Y904000D02*
X-4497000Y864000D01*
X-4497000Y904000D02*
X-4537000Y864000D01*
X-4535000Y730000D02*
X-4495000Y690000D01*
X-4495000Y730000D02*
X-4535000Y690000D01*
X-4533000Y549000D02*
X-4493000Y509000D01*
X-4493000Y549000D02*
X-4533000Y509000D01*
X-4524000Y-670000D02*
X-4484000Y-710000D01*
X-4484000Y-670000D02*
X-4524000Y-710000D01*
X-4523000Y193000D02*
X-4483000Y153000D01*
X-4483000Y193000D02*
X-4523000Y153000D01*
X-4519000Y-222000D02*
X-4479000Y-262000D01*
X-4479000Y-222000D02*
X-4519000Y-262000D01*
X-4435000Y443000D02*
X-4395000Y403000D01*
X-4395000Y443000D02*
X-4435000Y403000D01*
X-4416000Y-2938000D02*
X-4376000Y-2978000D01*
X-4376000Y-2938000D02*
X-4416000Y-2978000D01*
X-4410000Y2980000D02*
X-4370000Y2940000D01*
X-4370000Y2980000D02*
X-4410000Y2940000D01*
X-4335000Y-750000D02*
X-4295000Y-790000D01*
X-4295000Y-750000D02*
X-4335000Y-790000D01*
X-4325000Y-380000D02*
X-4285000Y-420000D01*
X-4285000Y-380000D02*
X-4325000Y-420000D01*
X-4310000Y995000D02*
X-4270000Y955000D01*
X-4270000Y995000D02*
X-4310000Y955000D01*
X-4305000Y80000D02*
X-4265000Y40000D01*
X-4265000Y80000D02*
X-4305000Y40000D01*
X-4299000Y1497000D02*
X-4259000Y1457000D01*
X-4259000Y1497000D02*
X-4299000Y1457000D01*
X-4240000Y745000D02*
X-4200000Y705000D01*
X-4200000Y745000D02*
X-4240000Y705000D01*
X-4198000Y1070000D02*
X-4158000Y1030000D01*
X-4158000Y1070000D02*
X-4198000Y1030000D01*
X-4195000Y-2320000D02*
X-4155000Y-2360000D01*
X-4155000Y-2320000D02*
X-4195000Y-2360000D01*
X-4175000Y2980000D02*
X-4135000Y2940000D01*
X-4135000Y2980000D02*
X-4175000Y2940000D01*
X-4061000Y-2940000D02*
X-4021000Y-2980000D01*
X-4021000Y-2940000D02*
X-4061000Y-2980000D01*
X-4057000Y2132000D02*
X-4017000Y2092000D01*
X-4017000Y2132000D02*
X-4057000Y2092000D01*
X-4029000Y1501000D02*
X-3989000Y1461000D01*
X-3989000Y1501000D02*
X-4029000Y1461000D01*
X-3925000Y2975000D02*
X-3885000Y2935000D01*
X-3885000Y2975000D02*
X-3925000Y2935000D01*
X-3920000Y-1305000D02*
X-3880000Y-1345000D01*
X-3880000Y-1305000D02*
X-3920000Y-1345000D01*
X-3878000Y769000D02*
X-3838000Y729000D01*
X-3838000Y769000D02*
X-3878000Y729000D01*
X-3851000Y526000D02*
X-3811000Y486000D01*
X-3811000Y526000D02*
X-3851000Y486000D01*
X-3813000Y-963000D02*
X-3773000Y-1003000D01*
X-3773000Y-963000D02*
X-3813000Y-1003000D01*
X-3788000Y-617000D02*
X-3748000Y-657000D01*
X-3748000Y-617000D02*
X-3788000Y-657000D01*
X-3753000Y1500000D02*
X-3713000Y1460000D01*
X-3713000Y1500000D02*
X-3753000Y1460000D01*
X-3732000Y-2938000D02*
X-3692000Y-2978000D01*
X-3692000Y-2938000D02*
X-3732000Y-2978000D01*
X-3680000Y2980000D02*
X-3640000Y2940000D01*
X-3640000Y2980000D02*
X-3680000Y2940000D01*
X-3666000Y2145000D02*
X-3626000Y2105000D01*
X-3626000Y2145000D02*
X-3666000Y2105000D01*
X-3540000Y-931000D02*
X-3500000Y-971000D01*
X-3500000Y-931000D02*
X-3540000Y-971000D01*
X-3525000Y-620000D02*
X-3485000Y-660000D01*
X-3485000Y-620000D02*
X-3525000Y-660000D01*
X-3485000Y1480000D02*
X-3445000Y1440000D01*
X-3445000Y1480000D02*
X-3485000Y1440000D01*
X-3431000Y-1192000D02*
X-3391000Y-1232000D01*
X-3391000Y-1192000D02*
X-3431000Y-1232000D01*
X-3428000Y-2940000D02*
X-3388000Y-2980000D01*
X-3388000Y-2940000D02*
X-3428000Y-2980000D01*
X-3395000Y2980000D02*
X-3355000Y2940000D01*
X-3355000Y2980000D02*
X-3395000Y2940000D01*
X-3325000Y-615000D02*
X-3285000Y-655000D01*
X-3285000Y-615000D02*
X-3325000Y-655000D01*
X-3316000Y-972000D02*
X-3276000Y-1012000D01*
X-3276000Y-972000D02*
X-3316000Y-1012000D01*
X-3273000Y1139000D02*
X-3233000Y1099000D01*
X-3233000Y1139000D02*
X-3273000Y1099000D01*
X-3269000Y972000D02*
X-3229000Y932000D01*
X-3229000Y972000D02*
X-3269000Y932000D01*
X-3268000Y785000D02*
X-3228000Y745000D01*
X-3228000Y785000D02*
X-3268000Y745000D01*
X-3265000Y530000D02*
X-3225000Y490000D01*
X-3225000Y530000D02*
X-3265000Y490000D01*
X-3265000Y350000D02*
X-3225000Y310000D01*
X-3225000Y350000D02*
X-3265000Y310000D01*
X-3265000Y-200000D02*
X-3225000Y-240000D01*
X-3225000Y-200000D02*
X-3265000Y-240000D01*
X-3255000Y160000D02*
X-3215000Y120000D01*
X-3215000Y160000D02*
X-3255000Y120000D01*
X-3241000Y1474000D02*
X-3201000Y1434000D01*
X-3201000Y1474000D02*
X-3241000Y1434000D01*
X-3180000Y-2230000D02*
X-3140000Y-2270000D01*
X-3140000Y-2230000D02*
X-3180000Y-2270000D01*
X-3175000Y-1875000D02*
X-3135000Y-1915000D01*
X-3135000Y-1875000D02*
X-3175000Y-1915000D01*
X-3115000Y2980000D02*
X-3075000Y2940000D01*
X-3075000Y2980000D02*
X-3115000Y2940000D01*
X-3115000Y1140000D02*
X-3075000Y1100000D01*
X-3075000Y1140000D02*
X-3115000Y1100000D01*
X-3104000Y782000D02*
X-3064000Y742000D01*
X-3064000Y782000D02*
X-3104000Y742000D01*
X-3050000Y-2940000D02*
X-3010000Y-2980000D01*
X-3010000Y-2940000D02*
X-3050000Y-2980000D01*
X-2934000Y1505000D02*
X-2894000Y1465000D01*
X-2894000Y1505000D02*
X-2934000Y1465000D01*
X-2878000Y1916000D02*
X-2838000Y1876000D01*
X-2838000Y1916000D02*
X-2878000Y1876000D01*
X-2810000Y2980000D02*
X-2770000Y2940000D01*
X-2770000Y2980000D02*
X-2810000Y2940000D01*
X-2705000Y-2940000D02*
X-2665000Y-2980000D01*
X-2665000Y-2940000D02*
X-2705000Y-2980000D01*
X-2595000Y1620000D02*
X-2555000Y1580000D01*
X-2555000Y1620000D02*
X-2595000Y1580000D01*
X-2584000Y2321000D02*
X-2544000Y2281000D01*
X-2544000Y2321000D02*
X-2584000Y2281000D01*
X-2500000Y2980000D02*
X-2460000Y2940000D01*
X-2460000Y2980000D02*
X-2500000Y2940000D01*
X-2392000Y1079000D02*
X-2352000Y1039000D01*
X-2352000Y1079000D02*
X-2392000Y1039000D01*
X-2335000Y2369000D02*
X-2295000Y2329000D01*
X-2295000Y2369000D02*
X-2335000Y2329000D01*
X-2322000Y-2937000D02*
X-2282000Y-2977000D01*
X-2282000Y-2937000D02*
X-2322000Y-2977000D01*
X-2320000Y-535000D02*
X-2280000Y-575000D01*
X-2280000Y-535000D02*
X-2320000Y-575000D01*
X-2274000Y791000D02*
X-2234000Y751000D01*
X-2234000Y791000D02*
X-2274000Y751000D01*
X-2265000Y1620000D02*
X-2225000Y1580000D01*
X-2225000Y1620000D02*
X-2265000Y1580000D01*
X-2190000Y2980000D02*
X-2150000Y2940000D01*
X-2150000Y2980000D02*
X-2190000Y2940000D01*
X-2183000Y2659000D02*
X-2143000Y2619000D01*
X-2143000Y2659000D02*
X-2183000Y2619000D01*
X-2105000Y790000D02*
X-2065000Y750000D01*
X-2065000Y790000D02*
X-2105000Y750000D01*
X-2059000Y1136000D02*
X-2019000Y1096000D01*
X-2019000Y1136000D02*
X-2059000Y1096000D01*
X-1949000Y-2939000D02*
X-1909000Y-2979000D01*
X-1909000Y-2939000D02*
X-1949000Y-2979000D01*
X-1895000Y2980000D02*
X-1855000Y2940000D01*
X-1855000Y2980000D02*
X-1895000Y2940000D01*
X-1752000Y2666000D02*
X-1712000Y2626000D01*
X-1712000Y2666000D02*
X-1752000Y2626000D01*
X-1685000Y820000D02*
X-1645000Y780000D01*
X-1645000Y820000D02*
X-1685000Y780000D01*
X-1684000Y1904000D02*
X-1644000Y1864000D01*
X-1644000Y1904000D02*
X-1684000Y1864000D01*
X-1625000Y1366000D02*
X-1585000Y1326000D01*
X-1585000Y1366000D02*
X-1625000Y1326000D01*
X-1560000Y2980000D02*
X-1520000Y2940000D01*
X-1520000Y2980000D02*
X-1560000Y2940000D01*
X-1553000Y-2937000D02*
X-1513000Y-2977000D01*
X-1513000Y-2937000D02*
X-1553000Y-2977000D01*
X-1425000Y2640000D02*
X-1385000Y2600000D01*
X-1385000Y2640000D02*
X-1425000Y2600000D01*
X-1405000Y820000D02*
X-1365000Y780000D01*
X-1365000Y820000D02*
X-1405000Y780000D01*
X-1244000Y1370000D02*
X-1204000Y1330000D01*
X-1204000Y1370000D02*
X-1244000Y1330000D01*
X-1220000Y2980000D02*
X-1180000Y2940000D01*
X-1180000Y2980000D02*
X-1220000Y2940000D01*
X-1181000Y-2938000D02*
X-1141000Y-2978000D01*
X-1141000Y-2938000D02*
X-1181000Y-2978000D01*
X-1125000Y820000D02*
X-1085000Y780000D01*
X-1085000Y820000D02*
X-1125000Y780000D01*
X-920000Y-929000D02*
X-880000Y-969000D01*
X-880000Y-929000D02*
X-920000Y-969000D01*
X-885000Y1364000D02*
X-845000Y1324000D01*
X-845000Y1364000D02*
X-885000Y1324000D01*
X-865000Y2980000D02*
X-825000Y2940000D01*
X-825000Y2980000D02*
X-865000Y2940000D01*
X-845000Y820000D02*
X-805000Y780000D01*
X-805000Y820000D02*
X-845000Y780000D01*
X-780000Y2645000D02*
X-740000Y2605000D01*
X-740000Y2645000D02*
X-780000Y2605000D01*
X-771000Y-2938000D02*
X-731000Y-2978000D01*
X-731000Y-2938000D02*
X-771000Y-2978000D01*
X-625000Y1370000D02*
X-585000Y1330000D01*
X-585000Y1370000D02*
X-625000Y1330000D01*
X-621000Y821000D02*
X-581000Y781000D01*
X-581000Y821000D02*
X-621000Y781000D01*
X-620100Y684420D02*
X-580100Y644420D01*
X-580100Y684420D02*
X-620100Y644420D01*
X-620100Y534420D02*
X-580100Y494420D01*
X-580100Y534420D02*
X-620100Y494420D01*
X-620100Y384420D02*
X-580100Y344420D01*
X-580100Y384420D02*
X-620100Y344420D01*
X-620100Y234420D02*
X-580100Y194420D01*
X-580100Y234420D02*
X-620100Y194420D01*
X-620100Y84420D02*
X-580100Y44420D01*
X-580100Y84420D02*
X-620100Y44420D01*
X-620100Y-65580D02*
X-580100Y-105580D01*
X-580100Y-65580D02*
X-620100Y-105580D01*
X-507000Y-1876000D02*
X-467000Y-1916000D01*
X-467000Y-1876000D02*
X-507000Y-1916000D01*
X-505000Y-2164000D02*
X-465000Y-2204000D01*
X-465000Y-2164000D02*
X-505000Y-2204000D01*
X-499000Y-1521000D02*
X-459000Y-1561000D01*
X-459000Y-1521000D02*
X-499000Y-1561000D01*
X-405000Y1370000D02*
X-365000Y1330000D01*
X-365000Y1370000D02*
X-405000Y1330000D01*
X-396000Y821000D02*
X-356000Y781000D01*
X-356000Y821000D02*
X-396000Y781000D01*
X-377000Y-2940000D02*
X-337000Y-2980000D01*
X-337000Y-2940000D02*
X-377000Y-2980000D01*
X-350000Y2180000D02*
X-310000Y2140000D01*
X-310000Y2180000D02*
X-350000Y2140000D01*
X-347580Y659720D02*
X-307580Y619720D01*
X-307580Y659720D02*
X-347580Y619720D01*
X-319000Y-1271000D02*
X-279000Y-1311000D01*
X-279000Y-1271000D02*
X-319000Y-1311000D01*
X-285000Y2980000D02*
X-245000Y2940000D01*
X-245000Y2980000D02*
X-285000Y2940000D01*
X-196000Y821000D02*
X-156000Y781000D01*
X-156000Y821000D02*
X-196000Y781000D01*
X-182000Y-1513000D02*
X-142000Y-1553000D01*
X-142000Y-1513000D02*
X-182000Y-1553000D01*
X-181000Y1362000D02*
X-141000Y1322000D01*
X-141000Y1362000D02*
X-181000Y1322000D01*
X-69500Y2215500D02*
X-29500Y2175500D01*
X-29500Y2215500D02*
X-69500Y2175500D01*
X-47580Y528720D02*
X-7580Y488720D01*
X-7580Y528720D02*
X-47580Y488720D01*
X-25000Y2970000D02*
X15000Y2930000D01*
X15000Y2970000D02*
X-25000Y2930000D01*
X-22000Y-2940000D02*
X18000Y-2980000D01*
X18000Y-2940000D02*
X-22000Y-2980000D01*
X-21000Y821000D02*
X19000Y781000D01*
X19000Y821000D02*
X-21000Y781000D01*
X-20000Y-932000D02*
X20000Y-972000D01*
X20000Y-932000D02*
X-20000Y-972000D01*
X80000Y2365000D02*
X120000Y2325000D01*
X120000Y2365000D02*
X80000Y2325000D01*
X85000Y1370000D02*
X125000Y1330000D01*
X125000Y1370000D02*
X85000Y1330000D01*
X132420Y29720D02*
X172420Y-10280D01*
X172420Y29720D02*
X132420Y-10280D01*
X132420Y-70280D02*
X172420Y-110280D01*
X172420Y-70280D02*
X132420Y-110280D01*
X132420Y-180280D02*
X172420Y-220280D01*
X172420Y-180280D02*
X132420Y-220280D01*
X147000Y-1516000D02*
X187000Y-1556000D01*
X187000Y-1516000D02*
X147000Y-1556000D01*
X179000Y821000D02*
X219000Y781000D01*
X219000Y821000D02*
X179000Y781000D01*
X210000Y2980000D02*
X250000Y2940000D01*
X250000Y2980000D02*
X210000Y2940000D01*
X242420Y29720D02*
X282420Y-10280D01*
X282420Y29720D02*
X242420Y-10280D01*
X242420Y-70280D02*
X282420Y-110280D01*
X282420Y-70280D02*
X242420Y-110280D01*
X242420Y-180280D02*
X282420Y-220280D01*
X282420Y-180280D02*
X242420Y-220280D01*
X246000Y2499000D02*
X286000Y2459000D01*
X286000Y2499000D02*
X246000Y2459000D01*
X312000Y1364000D02*
X352000Y1324000D01*
X352000Y1364000D02*
X312000Y1324000D01*
X322420Y524720D02*
X362420Y484720D01*
X362420Y524720D02*
X322420Y484720D01*
X352420Y29720D02*
X392420Y-10280D01*
X392420Y29720D02*
X352420Y-10280D01*
X352420Y-70280D02*
X392420Y-110280D01*
X392420Y-70280D02*
X352420Y-110280D01*
X352420Y-180280D02*
X392420Y-220280D01*
X392420Y-180280D02*
X352420Y-220280D01*
X354000Y821000D02*
X394000Y781000D01*
X394000Y821000D02*
X354000Y781000D01*
X366000Y1920000D02*
X406000Y1880000D01*
X406000Y1920000D02*
X366000Y1880000D01*
X423000Y-2940000D02*
X463000Y-2980000D01*
X463000Y-2940000D02*
X423000Y-2980000D01*
X430000Y-1513000D02*
X470000Y-1553000D01*
X470000Y-1513000D02*
X430000Y-1553000D01*
X447000Y-2090000D02*
X487000Y-2130000D01*
X487000Y-2090000D02*
X447000Y-2130000D01*
X449000Y-2438000D02*
X489000Y-2478000D01*
X489000Y-2438000D02*
X449000Y-2478000D01*
X452000Y-1895000D02*
X492000Y-1935000D01*
X492000Y-1895000D02*
X452000Y-1935000D01*
X462420Y29720D02*
X502420Y-10280D01*
X502420Y29720D02*
X462420Y-10280D01*
X462420Y-70280D02*
X502420Y-110280D01*
X502420Y-70280D02*
X462420Y-110280D01*
X462420Y-180280D02*
X502420Y-220280D01*
X502420Y-180280D02*
X462420Y-220280D01*
X529000Y821000D02*
X569000Y781000D01*
X569000Y821000D02*
X529000Y781000D01*
X537000Y1369000D02*
X577000Y1329000D01*
X577000Y1369000D02*
X537000Y1329000D01*
X572420Y29720D02*
X612420Y-10280D01*
X612420Y29720D02*
X572420Y-10280D01*
X572420Y-70280D02*
X612420Y-110280D01*
X612420Y-70280D02*
X572420Y-110280D01*
X572420Y-180280D02*
X612420Y-220280D01*
X612420Y-180280D02*
X572420Y-220280D01*
X660000Y2155000D02*
X700000Y2115000D01*
X700000Y2155000D02*
X660000Y2115000D01*
X677000Y721000D02*
X717000Y681000D01*
X717000Y721000D02*
X677000Y681000D01*
X725000Y-2185000D02*
X765000Y-2225000D01*
X765000Y-2185000D02*
X725000Y-2225000D01*
X733000Y1363000D02*
X773000Y1323000D01*
X773000Y1363000D02*
X733000Y1323000D01*
X770000Y2980000D02*
X810000Y2940000D01*
X810000Y2980000D02*
X770000Y2940000D01*
X776000Y629000D02*
X816000Y589000D01*
X816000Y629000D02*
X776000Y589000D01*
X810000Y-1720000D02*
X850000Y-1760000D01*
X850000Y-1720000D02*
X810000Y-1760000D01*
X819000Y-353000D02*
X859000Y-393000D01*
X859000Y-353000D02*
X819000Y-393000D01*
X840000Y-2938000D02*
X880000Y-2978000D01*
X880000Y-2938000D02*
X840000Y-2978000D01*
X880000Y-931000D02*
X920000Y-971000D01*
X920000Y-931000D02*
X880000Y-971000D01*
X909000Y-221000D02*
X949000Y-261000D01*
X949000Y-221000D02*
X909000Y-261000D01*
X946000Y1164000D02*
X986000Y1124000D01*
X986000Y1164000D02*
X946000Y1124000D01*
X1055000Y1060000D02*
X1095000Y1020000D01*
X1095000Y1060000D02*
X1055000Y1020000D01*
X1135000Y2980000D02*
X1175000Y2940000D01*
X1175000Y2980000D02*
X1135000Y2940000D01*
X1135000Y-480000D02*
X1175000Y-520000D01*
X1175000Y-480000D02*
X1135000Y-520000D01*
X1158000Y1539000D02*
X1198000Y1499000D01*
X1198000Y1539000D02*
X1158000Y1499000D01*
X1166000Y954000D02*
X1206000Y914000D01*
X1206000Y954000D02*
X1166000Y914000D01*
X1216000Y-2939000D02*
X1256000Y-2979000D01*
X1256000Y-2939000D02*
X1216000Y-2979000D01*
X1245000Y-1720000D02*
X1285000Y-1760000D01*
X1285000Y-1720000D02*
X1245000Y-1760000D01*
X1245000Y-2185000D02*
X1285000Y-2225000D01*
X1285000Y-2185000D02*
X1245000Y-2225000D01*
X1269000Y842000D02*
X1309000Y802000D01*
X1309000Y842000D02*
X1269000Y802000D01*
X1325000Y-660000D02*
X1365000Y-700000D01*
X1365000Y-660000D02*
X1325000Y-700000D01*
X1349000Y646000D02*
X1389000Y606000D01*
X1389000Y646000D02*
X1349000Y606000D01*
X1352000Y461000D02*
X1392000Y421000D01*
X1392000Y461000D02*
X1352000Y421000D01*
X1361000Y1688000D02*
X1401000Y1648000D01*
X1401000Y1688000D02*
X1361000Y1648000D01*
X1361000Y137000D02*
X1401000Y97000D01*
X1401000Y137000D02*
X1361000Y97000D01*
X1365000Y1465000D02*
X1405000Y1425000D01*
X1405000Y1465000D02*
X1365000Y1425000D01*
X1490000Y2980000D02*
X1530000Y2940000D01*
X1530000Y2980000D02*
X1490000Y2940000D01*
X1505000Y-850000D02*
X1545000Y-890000D01*
X1545000Y-850000D02*
X1505000Y-890000D01*
X1507000Y-1071000D02*
X1547000Y-1111000D01*
X1547000Y-1071000D02*
X1507000Y-1111000D01*
X1559000Y-193000D02*
X1599000Y-233000D01*
X1599000Y-193000D02*
X1559000Y-233000D01*
X1562000Y-2939000D02*
X1602000Y-2979000D01*
X1602000Y-2939000D02*
X1562000Y-2979000D01*
X1615000Y1670000D02*
X1655000Y1630000D01*
X1655000Y1670000D02*
X1615000Y1630000D01*
X1615000Y1469000D02*
X1655000Y1429000D01*
X1655000Y1469000D02*
X1615000Y1429000D01*
X1667000Y-1064000D02*
X1707000Y-1104000D01*
X1707000Y-1064000D02*
X1667000Y-1104000D01*
X1695000Y-1550000D02*
X1735000Y-1590000D01*
X1735000Y-1550000D02*
X1695000Y-1590000D01*
X1695000Y-1720000D02*
X1735000Y-1760000D01*
X1735000Y-1720000D02*
X1695000Y-1760000D01*
X1695000Y-2390000D02*
X1735000Y-2430000D01*
X1735000Y-2390000D02*
X1695000Y-2430000D01*
X1700000Y-2185000D02*
X1740000Y-2225000D01*
X1740000Y-2185000D02*
X1700000Y-2225000D01*
X1707000Y-355000D02*
X1747000Y-395000D01*
X1747000Y-355000D02*
X1707000Y-395000D01*
X1830000Y-474000D02*
X1870000Y-514000D01*
X1870000Y-474000D02*
X1830000Y-514000D01*
X1861000Y1460000D02*
X1901000Y1420000D01*
X1901000Y1460000D02*
X1861000Y1420000D01*
X1865000Y1690000D02*
X1905000Y1650000D01*
X1905000Y1690000D02*
X1865000Y1650000D01*
X1953000Y-864000D02*
X1993000Y-904000D01*
X1993000Y-864000D02*
X1953000Y-904000D01*
X1965000Y2980000D02*
X2005000Y2940000D01*
X2005000Y2980000D02*
X1965000Y2940000D01*
X1976000Y-2937000D02*
X2016000Y-2977000D01*
X2016000Y-2937000D02*
X1976000Y-2977000D01*
X2002000Y-476000D02*
X2042000Y-516000D01*
X2042000Y-476000D02*
X2002000Y-516000D01*
X2119000Y2690000D02*
X2159000Y2650000D01*
X2159000Y2690000D02*
X2119000Y2650000D01*
X2175000Y2426000D02*
X2215000Y2386000D01*
X2215000Y2426000D02*
X2175000Y2386000D01*
X2175000Y-1730000D02*
X2215000Y-1770000D01*
X2215000Y-1730000D02*
X2175000Y-1770000D01*
X2180000Y145000D02*
X2220000Y105000D01*
X2220000Y145000D02*
X2180000Y105000D01*
X2180000Y-2185000D02*
X2220000Y-2225000D01*
X2220000Y-2185000D02*
X2180000Y-2225000D01*
X2212000Y-1108000D02*
X2252000Y-1148000D01*
X2252000Y-1108000D02*
X2212000Y-1148000D01*
X2221000Y1663000D02*
X2261000Y1623000D01*
X2261000Y1663000D02*
X2221000Y1623000D01*
X2224000Y1452000D02*
X2264000Y1412000D01*
X2264000Y1452000D02*
X2224000Y1412000D01*
X2239000Y-475000D02*
X2279000Y-515000D01*
X2279000Y-475000D02*
X2239000Y-515000D01*
X2349000Y-893000D02*
X2389000Y-933000D01*
X2389000Y-893000D02*
X2349000Y-933000D01*
X2360000Y2980000D02*
X2400000Y2940000D01*
X2400000Y2980000D02*
X2360000Y2940000D01*
X2368000Y1456000D02*
X2408000Y1416000D01*
X2408000Y1456000D02*
X2368000Y1416000D01*
X2470000Y-2939000D02*
X2510000Y-2979000D01*
X2510000Y-2939000D02*
X2470000Y-2979000D01*
X2529000Y1448000D02*
X2569000Y1408000D01*
X2569000Y1448000D02*
X2529000Y1408000D01*
X2576000Y-818500D02*
X2616000Y-858500D01*
X2616000Y-818500D02*
X2576000Y-858500D01*
X2704000Y-1102000D02*
X2744000Y-1142000D01*
X2744000Y-1102000D02*
X2704000Y-1142000D01*
X2715000Y2980000D02*
X2755000Y2940000D01*
X2755000Y2980000D02*
X2715000Y2940000D01*
X2735000Y1668000D02*
X2775000Y1628000D01*
X2775000Y1668000D02*
X2735000Y1628000D01*
X2735000Y-1730000D02*
X2775000Y-1770000D01*
X2775000Y-1730000D02*
X2735000Y-1770000D01*
X2735000Y-2185000D02*
X2775000Y-2225000D01*
X2775000Y-2185000D02*
X2735000Y-2225000D01*
X2742000Y-648000D02*
X2782000Y-688000D01*
X2782000Y-648000D02*
X2742000Y-688000D01*
X2744000Y1466000D02*
X2784000Y1426000D01*
X2784000Y1466000D02*
X2744000Y1426000D01*
X2823000Y-879000D02*
X2863000Y-919000D01*
X2863000Y-879000D02*
X2823000Y-919000D01*
X2830000Y-69000D02*
X2870000Y-109000D01*
X2870000Y-69000D02*
X2830000Y-109000D01*
X2902500Y1680500D02*
X2942500Y1640500D01*
X2942500Y1680500D02*
X2902500Y1640500D01*
X2965000Y-2940000D02*
X3005000Y-2980000D01*
X3005000Y-2940000D02*
X2965000Y-2980000D01*
X3000000Y1030000D02*
X3040000Y990000D01*
X3040000Y1030000D02*
X3000000Y990000D01*
X3027000Y128000D02*
X3067000Y88000D01*
X3067000Y128000D02*
X3027000Y88000D01*
X3035000Y2980000D02*
X3075000Y2940000D01*
X3075000Y2980000D02*
X3035000Y2940000D01*
X3106000Y-1103000D02*
X3146000Y-1143000D01*
X3146000Y-1103000D02*
X3106000Y-1143000D01*
X3125000Y1500000D02*
X3165000Y1460000D01*
X3165000Y1500000D02*
X3125000Y1460000D01*
X3135000Y-1730000D02*
X3175000Y-1770000D01*
X3175000Y-1730000D02*
X3135000Y-1770000D01*
X3150000Y-2180000D02*
X3190000Y-2220000D01*
X3190000Y-2180000D02*
X3150000Y-2220000D01*
X3190000Y1025000D02*
X3230000Y985000D01*
X3230000Y1025000D02*
X3190000Y985000D01*
X3255000Y1500000D02*
X3295000Y1460000D01*
X3295000Y1500000D02*
X3255000Y1460000D01*
X3306000Y401000D02*
X3346000Y361000D01*
X3346000Y401000D02*
X3306000Y361000D01*
X3312000Y-1098000D02*
X3352000Y-1138000D01*
X3352000Y-1098000D02*
X3312000Y-1138000D01*
X3319000Y-2938000D02*
X3359000Y-2978000D01*
X3359000Y-2938000D02*
X3319000Y-2978000D01*
X3322000Y-200000D02*
X3362000Y-240000D01*
X3362000Y-200000D02*
X3322000Y-240000D01*
X3356000Y-847000D02*
X3396000Y-887000D01*
X3396000Y-847000D02*
X3356000Y-887000D01*
X3370000Y1020000D02*
X3410000Y980000D01*
X3410000Y1020000D02*
X3370000Y980000D01*
X3385000Y1505000D02*
X3425000Y1465000D01*
X3425000Y1505000D02*
X3385000Y1465000D01*
X3390000Y2980000D02*
X3430000Y2940000D01*
X3430000Y2980000D02*
X3390000Y2940000D01*
X3400000Y2065000D02*
X3440000Y2025000D01*
X3440000Y2065000D02*
X3400000Y2025000D01*
X3405000Y2555000D02*
X3445000Y2515000D01*
X3445000Y2555000D02*
X3405000Y2515000D01*
X3405000Y2300000D02*
X3445000Y2260000D01*
X3445000Y2300000D02*
X3405000Y2260000D01*
X3525000Y-1740000D02*
X3565000Y-1780000D01*
X3565000Y-1740000D02*
X3525000Y-1780000D01*
X3530000Y-2180000D02*
X3570000Y-2220000D01*
X3570000Y-2180000D02*
X3530000Y-2220000D01*
X3556000Y-4000D02*
X3596000Y-44000D01*
X3596000Y-4000D02*
X3556000Y-44000D01*
X3560000Y1500000D02*
X3600000Y1460000D01*
X3600000Y1500000D02*
X3560000Y1460000D01*
X3695000Y750000D02*
X3735000Y710000D01*
X3735000Y750000D02*
X3695000Y710000D01*
X3725000Y1065000D02*
X3765000Y1025000D01*
X3765000Y1065000D02*
X3725000Y1025000D01*
X3770000Y-2939000D02*
X3810000Y-2979000D01*
X3810000Y-2939000D02*
X3770000Y-2979000D01*
X3780000Y2980000D02*
X3820000Y2940000D01*
X3820000Y2980000D02*
X3780000Y2940000D01*
X3805000Y-544000D02*
X3845000Y-584000D01*
X3845000Y-544000D02*
X3805000Y-584000D01*
X3806000Y-973000D02*
X3846000Y-1013000D01*
X3846000Y-973000D02*
X3806000Y-1013000D01*
X3870000Y1195000D02*
X3910000Y1155000D01*
X3910000Y1195000D02*
X3870000Y1155000D01*
X3976000Y-1063000D02*
X4016000Y-1103000D01*
X4016000Y-1063000D02*
X3976000Y-1103000D01*
X4035000Y1195000D02*
X4075000Y1155000D01*
X4075000Y1195000D02*
X4035000Y1155000D01*
X4075000Y2980000D02*
X4115000Y2940000D01*
X4115000Y2980000D02*
X4075000Y2940000D01*
X4120000Y-2185000D02*
X4160000Y-2225000D01*
X4160000Y-2185000D02*
X4120000Y-2225000D01*
X4125000Y-1730000D02*
X4165000Y-1770000D01*
X4165000Y-1730000D02*
X4125000Y-1770000D01*
X4179000Y-545000D02*
X4219000Y-585000D01*
X4219000Y-545000D02*
X4179000Y-585000D01*
X4185000Y945000D02*
X4225000Y905000D01*
X4225000Y945000D02*
X4185000Y905000D01*
X4190000Y1195000D02*
X4230000Y1155000D01*
X4230000Y1195000D02*
X4190000Y1155000D01*
X4209000Y-2636500D02*
X4249000Y-2676500D01*
X4249000Y-2636500D02*
X4209000Y-2676500D01*
X4232000Y-2940000D02*
X4272000Y-2980000D01*
X4272000Y-2940000D02*
X4232000Y-2980000D01*
X4250000Y431000D02*
X4290000Y391000D01*
X4290000Y431000D02*
X4250000Y391000D01*
X4255000Y0D02*
X4295000Y-40000D01*
X4295000Y0D02*
X4255000Y-40000D01*
X4334000Y-2197000D02*
X4374000Y-2237000D01*
X4374000Y-2197000D02*
X4334000Y-2237000D01*
X4340000Y945000D02*
X4380000Y905000D01*
X4380000Y945000D02*
X4340000Y905000D01*
X4345000Y1195000D02*
X4385000Y1155000D01*
X4385000Y1195000D02*
X4345000Y1155000D01*
X4395000Y-1730000D02*
X4435000Y-1770000D01*
X4435000Y-1730000D02*
X4395000Y-1770000D01*
X4460000Y2980000D02*
X4500000Y2940000D01*
X4500000Y2980000D02*
X4460000Y2940000D01*
X4490000Y950000D02*
X4530000Y910000D01*
X4530000Y950000D02*
X4490000Y910000D01*
X4495000Y1195000D02*
X4535000Y1155000D01*
X4535000Y1195000D02*
X4495000Y1155000D01*
X4542000Y1000D02*
X4582000Y-39000D01*
X4582000Y1000D02*
X4542000Y-39000D01*
X4545000Y432000D02*
X4585000Y392000D01*
X4585000Y432000D02*
X4545000Y392000D01*
X4545000Y-2602000D02*
X4585000Y-2642000D01*
X4585000Y-2602000D02*
X4545000Y-2642000D01*
X4593000Y-2076000D02*
X4633000Y-2116000D01*
X4633000Y-2076000D02*
X4593000Y-2116000D01*
X4596000Y-1871988D02*
X4636000Y-1911988D01*
X4636000Y-1871988D02*
X4596000Y-1911988D01*
X4640000Y945000D02*
X4680000Y905000D01*
X4680000Y945000D02*
X4640000Y905000D01*
X4645000Y1190000D02*
X4685000Y1150000D01*
X4685000Y1190000D02*
X4645000Y1150000D01*
X4686000Y-2940000D02*
X4726000Y-2980000D01*
X4726000Y-2940000D02*
X4686000Y-2980000D01*
X4800000Y1190000D02*
X4840000Y1150000D01*
X4840000Y1190000D02*
X4800000Y1150000D01*
X4800000Y945000D02*
X4840000Y905000D01*
X4840000Y945000D02*
X4800000Y905000D01*
X4834000Y-2000D02*
X4874000Y-42000D01*
X4874000Y-2000D02*
X4834000Y-42000D01*
X4848000Y432000D02*
X4888000Y392000D01*
X4888000Y432000D02*
X4848000Y392000D01*
X4938300Y2768460D02*
X4978300Y2728460D01*
X4978300Y2768460D02*
X4938300Y2728460D01*
X4938300Y2618460D02*
X4978300Y2578460D01*
X4978300Y2618460D02*
X4938300Y2578460D01*
X4938300Y2318460D02*
X4978300Y2278460D01*
X4978300Y2318460D02*
X4938300Y2278460D01*
X4938300Y2168460D02*
X4978300Y2128460D01*
X4978300Y2168460D02*
X4938300Y2128460D01*
X4938300Y2018460D02*
X4978300Y1978460D01*
X4978300Y2018460D02*
X4938300Y1978460D01*
X4938300Y1868460D02*
X4978300Y1828460D01*
X4978300Y1868460D02*
X4938300Y1828460D01*
X4938300Y1718460D02*
X4978300Y1678460D01*
X4978300Y1718460D02*
X4938300Y1678460D01*
X4938300Y1568460D02*
X4978300Y1528460D01*
X4978300Y1568460D02*
X4938300Y1528460D01*
X4938300Y1418460D02*
X4978300Y1378460D01*
X4978300Y1418460D02*
X4938300Y1378460D01*
X4940000Y2955000D02*
X4980000Y2915000D01*
X4980000Y2955000D02*
X4940000Y2915000D01*
X4940000Y1195000D02*
X4980000Y1155000D01*
X4980000Y1195000D02*
X4940000Y1155000D01*
X4945000Y940000D02*
X4985000Y900000D01*
X4985000Y940000D02*
X4945000Y900000D01*
X4945000Y730000D02*
X4985000Y690000D01*
X4985000Y730000D02*
X4945000Y690000D01*
X5075000Y1095000D02*
X5115000Y1055000D01*
X5115000Y1095000D02*
X5075000Y1055000D01*
X5199000Y-2517000D02*
X5239000Y-2557000D01*
X5239000Y-2517000D02*
X5199000Y-2557000D01*
X5207000Y-444000D02*
X5247000Y-484000D01*
X5247000Y-444000D02*
X5207000Y-484000D01*
X5215000Y-2940000D02*
X5255000Y-2980000D01*
X5255000Y-2940000D02*
X5215000Y-2980000D01*
X5275000Y730000D02*
X5315000Y690000D01*
X5315000Y730000D02*
X5275000Y690000D01*
X5275000Y-323000D02*
X5315000Y-363000D01*
X5315000Y-323000D02*
X5275000Y-363000D01*
X5279000Y-172000D02*
X5319000Y-212000D01*
X5319000Y-172000D02*
X5279000Y-212000D01*
X5315000Y1637122D02*
X5355000Y1597122D01*
X5355000Y1637122D02*
X5315000Y1597122D01*
X5350000Y-2702000D02*
X5390000Y-2742000D01*
X5390000Y-2702000D02*
X5350000Y-2742000D01*
X5412000Y8000D02*
X5452000Y-32000D01*
X5452000Y8000D02*
X5412000Y-32000D01*
X5462000Y-447000D02*
X5502000Y-487000D01*
X5502000Y-447000D02*
X5462000Y-487000D01*
X5465000Y-2063000D02*
X5505000Y-2103000D01*
X5505000Y-2063000D02*
X5465000Y-2103000D01*
X5515000Y730000D02*
X5555000Y690000D01*
X5555000Y730000D02*
X5515000Y690000D01*
X5770000Y730000D02*
X5810000Y690000D01*
X5810000Y730000D02*
X5770000Y690000D01*
X5786000Y-2940000D02*
X5826000Y-2980000D01*
X5826000Y-2940000D02*
X5786000Y-2980000D01*
X5959000Y-2090000D02*
X5999000Y-2130000D01*
X5999000Y-2090000D02*
X5959000Y-2130000D01*
X5999000Y-2581000D02*
X6039000Y-2621000D01*
X6039000Y-2581000D02*
X5999000Y-2621000D01*
X6015000Y730000D02*
X6055000Y690000D01*
X6055000Y730000D02*
X6015000Y690000D01*
X6065000Y-2937000D02*
X6105000Y-2977000D01*
X6105000Y-2937000D02*
X6065000Y-2977000D01*
X6124000Y-2786000D02*
X6164000Y-2826000D01*
X6164000Y-2786000D02*
X6124000Y-2826000D01*
X6235000Y715000D02*
X6275000Y675000D01*
X6275000Y715000D02*
X6235000Y675000D01*
X6295000Y-910000D02*
X6335000Y-950000D01*
X6335000Y-910000D02*
X6295000Y-950000D01*
X6296000Y218000D02*
X6336000Y178000D01*
X6336000Y218000D02*
X6296000Y178000D01*
X6296000Y17000D02*
X6336000Y-23000D01*
X6336000Y17000D02*
X6296000Y-23000D01*
X6297000Y-177000D02*
X6337000Y-217000D01*
X6337000Y-177000D02*
X6297000Y-217000D01*
X6298000Y-431000D02*
X6338000Y-471000D01*
X6338000Y-431000D02*
X6298000Y-471000D01*
X6298000Y-2591000D02*
X6338000Y-2631000D01*
X6338000Y-2591000D02*
X6298000Y-2631000D01*
X6299000Y-2096000D02*
X6339000Y-2136000D01*
X6339000Y-2096000D02*
X6299000Y-2136000D01*
X6300000Y480000D02*
X6340000Y440000D01*
X6340000Y480000D02*
X6300000Y440000D01*
X-6050000Y550000D02*
G75*
G02*
X-6150000Y550000I-50000J0D01*
G01*
X-6150000Y550000D02*
G75*
G02*
X-6050000Y550000I50000J0D01*
G01*
X-6050000Y-550000D02*
G75*
G02*
X-6150000Y-550000I-50000J0D01*
G01*
X-6150000Y-550000D02*
G75*
G02*
X-6050000Y-550000I50000J0D01*
G01*
X-5796000Y2750000D02*
G75*
G02*
X-5896000Y2750000I-50000J0D01*
G01*
X-5896000Y2750000D02*
G75*
G02*
X-5796000Y2750000I50000J0D01*
G01*
X-5796000Y550000D02*
G75*
G02*
X-5896000Y550000I-50000J0D01*
G01*
X-5896000Y550000D02*
G75*
G02*
X-5796000Y550000I50000J0D01*
G01*
X-5796000Y-2750000D02*
G75*
G02*
X-5896000Y-2750000I-50000J0D01*
G01*
X-5896000Y-2750000D02*
G75*
G02*
X-5796000Y-2750000I50000J0D01*
G01*
X-5796000Y-550000D02*
G75*
G02*
X-5896000Y-550000I-50000J0D01*
G01*
X-5896000Y-550000D02*
G75*
G02*
X-5796000Y-550000I50000J0D01*
G01*
X-5542000Y550000D02*
G75*
G02*
X-5642000Y550000I-50000J0D01*
G01*
X-5642000Y550000D02*
G75*
G02*
X-5542000Y550000I50000J0D01*
G01*
X-5542000Y2750000D02*
G75*
G02*
X-5642000Y2750000I-50000J0D01*
G01*
X-5642000Y2750000D02*
G75*
G02*
X-5542000Y2750000I50000J0D01*
G01*
X-5542000Y-550000D02*
G75*
G02*
X-5642000Y-550000I-50000J0D01*
G01*
X-5642000Y-550000D02*
G75*
G02*
X-5542000Y-550000I50000J0D01*
G01*
X-5542000Y-2750000D02*
G75*
G02*
X-5642000Y-2750000I-50000J0D01*
G01*
X-5642000Y-2750000D02*
G75*
G02*
X-5542000Y-2750000I50000J0D01*
G01*
X-5288000Y550000D02*
G75*
G02*
X-5388000Y550000I-50000J0D01*
G01*
X-5388000Y550000D02*
G75*
G02*
X-5288000Y550000I50000J0D01*
G01*
X-5288000Y-550000D02*
G75*
G02*
X-5388000Y-550000I-50000J0D01*
G01*
X-5388000Y-550000D02*
G75*
G02*
X-5288000Y-550000I50000J0D01*
G01*
X5205000Y550000D02*
G75*
G02*
X5105000Y550000I-50000J0D01*
G01*
X5105000Y550000D02*
G75*
G02*
X5205000Y550000I50000J0D01*
G01*
X5459000Y550000D02*
G75*
G02*
X5359000Y550000I-50000J0D01*
G01*
X5359000Y550000D02*
G75*
G02*
X5459000Y550000I50000J0D01*
G01*
X5713000Y550000D02*
G75*
G02*
X5613000Y550000I-50000J0D01*
G01*
X5613000Y550000D02*
G75*
G02*
X5713000Y550000I50000J0D01*
G01*
X5967000Y550000D02*
G75*
G02*
X5867000Y550000I-50000J0D01*
G01*
X5867000Y550000D02*
G75*
G02*
X5967000Y550000I50000J0D01*
G01*
D12*
X-3900000Y2634000D02*
X-3900000Y2449000D01*
X-3992500Y2541500D02*
X-3807500Y2541500D01*
X-3900000Y1872000D02*
X-3900000Y1687000D01*
X-3992500Y1779500D02*
X-3807500Y1779500D01*
X-3900000Y-1481000D02*
X-3900000Y-1666000D01*
X-3992500Y-1573500D02*
X-3807500Y-1573500D01*
X-3900000Y-2243000D02*
X-3900000Y-2428000D01*
X-3992500Y-2335500D02*
X-3807500Y-2335500D01*
X-2450000Y2634000D02*
X-2450000Y2449000D01*
X-2542500Y2541500D02*
X-2357500Y2541500D01*
X-2450000Y1872000D02*
X-2450000Y1687000D01*
X-2542500Y1779500D02*
X-2357500Y1779500D01*
X-2450000Y-1481000D02*
X-2450000Y-1666000D01*
X-2542500Y-1573500D02*
X-2357500Y-1573500D01*
X-2450000Y-2243000D02*
X-2450000Y-2428000D01*
X-2542500Y-2335500D02*
X-2357500Y-2335500D01*
X-1000000Y2634000D02*
X-1000000Y2449000D01*
X-1092500Y2541500D02*
X-907500Y2541500D01*
X-1000000Y1872000D02*
X-1000000Y1687000D01*
X-1092500Y1779500D02*
X-907500Y1779500D01*
X-1000000Y-1481000D02*
X-1000000Y-1666000D01*
X-1092500Y-1573500D02*
X-907500Y-1573500D01*
X-1000000Y-2243000D02*
X-1000000Y-2428000D01*
X-1092500Y-2335500D02*
X-907500Y-2335500D01*
X1000000Y2633150D02*
X1000000Y2448150D01*
X907500Y2540650D02*
X1092500Y2540650D01*
X1000000Y1871150D02*
X1000000Y1686150D01*
X907500Y1778650D02*
X1092500Y1778650D01*
X1000000Y-1481850D02*
X1000000Y-1666850D01*
X907500Y-1574350D02*
X1092500Y-1574350D01*
X1000000Y-2243850D02*
X1000000Y-2428850D01*
X907500Y-2336350D02*
X1092500Y-2336350D01*
X2450000Y2624150D02*
X2450000Y2439150D01*
X2357500Y2531650D02*
X2542500Y2531650D01*
X2450000Y1862150D02*
X2450000Y1677150D01*
X2357500Y1769650D02*
X2542500Y1769650D01*
X2450000Y-1490850D02*
X2450000Y-1675850D01*
X2357500Y-1583350D02*
X2542500Y-1583350D01*
X2450000Y-2252850D02*
X2450000Y-2437850D01*
X2357500Y-2345350D02*
X2542500Y-2345350D01*
X3900000Y2624150D02*
X3900000Y2439150D01*
X3807500Y2531650D02*
X3992500Y2531650D01*
X3900000Y1862150D02*
X3900000Y1677150D01*
X3807500Y1769650D02*
X3992500Y1769650D01*
X3900000Y-1490850D02*
X3900000Y-1675850D01*
X3807500Y-1583350D02*
X3992500Y-1583350D01*
X3900000Y-2252850D02*
X3900000Y-2437850D01*
X3807500Y-2345350D02*
X3992500Y-2345350D01*
D13*
X-5904540Y-95460D02*
X-5904540Y95460D01*
X-6095460Y95460D01*
X-6095460Y-95460D01*
X-5904540Y-95460D01*
X6095460Y-95460D02*
X6095460Y95460D01*
X5904540Y95460D01*
X5904540Y-95460D01*
X6095460Y-95460D01*
D11*
X-6154223Y-3366484D02*
X-6154223Y-3166484D01*
X-6154223Y-3166484D02*
X-6106604Y-3166484D01*
X-6106604Y-3166484D02*
X-6078033Y-3176008D01*
X-6078033Y-3176008D02*
X-6058985Y-3195055D01*
X-6058985Y-3195055D02*
X-6049461Y-3214103D01*
X-6049461Y-3214103D02*
X-6039937Y-3252198D01*
X-6039937Y-3252198D02*
X-6039937Y-3280769D01*
X-6039937Y-3280769D02*
X-6049461Y-3318865D01*
X-6049461Y-3318865D02*
X-6058985Y-3337912D01*
X-6058985Y-3337912D02*
X-6078033Y-3356960D01*
X-6078033Y-3356960D02*
X-6106604Y-3366484D01*
X-6106604Y-3366484D02*
X-6154223Y-3366484D01*
X-5954223Y-3366484D02*
X-5954223Y-3233150D01*
X-5954223Y-3271246D02*
X-5944699Y-3252198D01*
X-5944699Y-3252198D02*
X-5935175Y-3242674D01*
X-5935175Y-3242674D02*
X-5916128Y-3233150D01*
X-5916128Y-3233150D02*
X-5897080Y-3233150D01*
X-5830414Y-3366484D02*
X-5830414Y-3233150D01*
X-5830414Y-3166484D02*
X-5839937Y-3176008D01*
X-5839937Y-3176008D02*
X-5830414Y-3185531D01*
X-5830414Y-3185531D02*
X-5820890Y-3176008D01*
X-5820890Y-3176008D02*
X-5830414Y-3166484D01*
X-5830414Y-3166484D02*
X-5830414Y-3185531D01*
X-5706604Y-3366484D02*
X-5725652Y-3356960D01*
X-5725652Y-3356960D02*
X-5735175Y-3337912D01*
X-5735175Y-3337912D02*
X-5735175Y-3166484D01*
X-5601842Y-3366484D02*
X-5620890Y-3356960D01*
X-5620890Y-3356960D02*
X-5630414Y-3337912D01*
X-5630414Y-3337912D02*
X-5630414Y-3166484D01*
X-5373271Y-3366484D02*
X-5373271Y-3166484D01*
X-5373271Y-3166484D02*
X-5306604Y-3309341D01*
X-5306604Y-3309341D02*
X-5239937Y-3166484D01*
X-5239937Y-3166484D02*
X-5239937Y-3366484D01*
X-5058985Y-3366484D02*
X-5058985Y-3261722D01*
X-5058985Y-3261722D02*
X-5068509Y-3242674D01*
X-5068509Y-3242674D02*
X-5087556Y-3233150D01*
X-5087556Y-3233150D02*
X-5125652Y-3233150D01*
X-5125652Y-3233150D02*
X-5144699Y-3242674D01*
X-5058985Y-3356960D02*
X-5078033Y-3366484D01*
X-5078033Y-3366484D02*
X-5125652Y-3366484D01*
X-5125652Y-3366484D02*
X-5144699Y-3356960D01*
X-5144699Y-3356960D02*
X-5154223Y-3337912D01*
X-5154223Y-3337912D02*
X-5154223Y-3318865D01*
X-5154223Y-3318865D02*
X-5144699Y-3299817D01*
X-5144699Y-3299817D02*
X-5125652Y-3290293D01*
X-5125652Y-3290293D02*
X-5078033Y-3290293D01*
X-5078033Y-3290293D02*
X-5058985Y-3280769D01*
X-4963747Y-3233150D02*
X-4963747Y-3433150D01*
X-4963747Y-3242674D02*
X-4944699Y-3233150D01*
X-4944699Y-3233150D02*
X-4906604Y-3233150D01*
X-4906604Y-3233150D02*
X-4887556Y-3242674D01*
X-4887556Y-3242674D02*
X-4878033Y-3252198D01*
X-4878033Y-3252198D02*
X-4868509Y-3271246D01*
X-4868509Y-3271246D02*
X-4868509Y-3328388D01*
X-4868509Y-3328388D02*
X-4878033Y-3347436D01*
X-4878033Y-3347436D02*
X-4887556Y-3356960D01*
X-4887556Y-3356960D02*
X-4906604Y-3366484D01*
X-4906604Y-3366484D02*
X-4944699Y-3366484D01*
X-4944699Y-3366484D02*
X-4963747Y-3356960D01*
X-4782795Y-3347436D02*
X-4773271Y-3356960D01*
X-4773271Y-3356960D02*
X-4782795Y-3366484D01*
X-4782795Y-3366484D02*
X-4792318Y-3356960D01*
X-4792318Y-3356960D02*
X-4782795Y-3347436D01*
X-4782795Y-3347436D02*
X-4782795Y-3366484D01*
X-4782795Y-3242674D02*
X-4773271Y-3252198D01*
X-4773271Y-3252198D02*
X-4782795Y-3261722D01*
X-4782795Y-3261722D02*
X-4792318Y-3252198D01*
X-4792318Y-3252198D02*
X-4782795Y-3242674D01*
X-4782795Y-3242674D02*
X-4782795Y-3261722D01*
D10*
X-6455000Y-3675000D02*
X-6415000Y-3715000D01*
X-6415000Y-3675000D02*
X-6455000Y-3715000D01*
D11*
X-6116128Y-3586484D02*
X-6097080Y-3586484D01*
X-6097080Y-3586484D02*
X-6078033Y-3596008D01*
X-6078033Y-3596008D02*
X-6068509Y-3605531D01*
X-6068509Y-3605531D02*
X-6058985Y-3624579D01*
X-6058985Y-3624579D02*
X-6049461Y-3662674D01*
X-6049461Y-3662674D02*
X-6049461Y-3710293D01*
X-6049461Y-3710293D02*
X-6058985Y-3748388D01*
X-6058985Y-3748388D02*
X-6068509Y-3767436D01*
X-6068509Y-3767436D02*
X-6078033Y-3776960D01*
X-6078033Y-3776960D02*
X-6097080Y-3786484D01*
X-6097080Y-3786484D02*
X-6116128Y-3786484D01*
X-6116128Y-3786484D02*
X-6135175Y-3776960D01*
X-6135175Y-3776960D02*
X-6144699Y-3767436D01*
X-6144699Y-3767436D02*
X-6154223Y-3748388D01*
X-6154223Y-3748388D02*
X-6163747Y-3710293D01*
X-6163747Y-3710293D02*
X-6163747Y-3662674D01*
X-6163747Y-3662674D02*
X-6154223Y-3624579D01*
X-6154223Y-3624579D02*
X-6144699Y-3605531D01*
X-6144699Y-3605531D02*
X-6135175Y-3596008D01*
X-6135175Y-3596008D02*
X-6116128Y-3586484D01*
X-5963747Y-3767436D02*
X-5954223Y-3776960D01*
X-5954223Y-3776960D02*
X-5963747Y-3786484D01*
X-5963747Y-3786484D02*
X-5973271Y-3776960D01*
X-5973271Y-3776960D02*
X-5963747Y-3767436D01*
X-5963747Y-3767436D02*
X-5963747Y-3786484D01*
X-5782794Y-3653150D02*
X-5782794Y-3786484D01*
X-5830414Y-3576960D02*
X-5878033Y-3719817D01*
X-5878033Y-3719817D02*
X-5754223Y-3719817D01*
X-5639937Y-3586484D02*
X-5620890Y-3586484D01*
X-5620890Y-3586484D02*
X-5601842Y-3596008D01*
X-5601842Y-3596008D02*
X-5592318Y-3605531D01*
X-5592318Y-3605531D02*
X-5582795Y-3624579D01*
X-5582795Y-3624579D02*
X-5573271Y-3662674D01*
X-5573271Y-3662674D02*
X-5573271Y-3710293D01*
X-5573271Y-3710293D02*
X-5582795Y-3748388D01*
X-5582795Y-3748388D02*
X-5592318Y-3767436D01*
X-5592318Y-3767436D02*
X-5601842Y-3776960D01*
X-5601842Y-3776960D02*
X-5620890Y-3786484D01*
X-5620890Y-3786484D02*
X-5639937Y-3786484D01*
X-5639937Y-3786484D02*
X-5658985Y-3776960D01*
X-5658985Y-3776960D02*
X-5668509Y-3767436D01*
X-5668509Y-3767436D02*
X-5678033Y-3748388D01*
X-5678033Y-3748388D02*
X-5687556Y-3710293D01*
X-5687556Y-3710293D02*
X-5687556Y-3662674D01*
X-5687556Y-3662674D02*
X-5678033Y-3624579D01*
X-5678033Y-3624579D02*
X-5668509Y-3605531D01*
X-5668509Y-3605531D02*
X-5658985Y-3596008D01*
X-5658985Y-3596008D02*
X-5639937Y-3586484D01*
X-5449461Y-3586484D02*
X-5430414Y-3586484D01*
X-5430414Y-3586484D02*
X-5411366Y-3596008D01*
X-5411366Y-3596008D02*
X-5401842Y-3605531D01*
X-5401842Y-3605531D02*
X-5392318Y-3624579D01*
X-5392318Y-3624579D02*
X-5382795Y-3662674D01*
X-5382795Y-3662674D02*
X-5382795Y-3710293D01*
X-5382795Y-3710293D02*
X-5392318Y-3748388D01*
X-5392318Y-3748388D02*
X-5401842Y-3767436D01*
X-5401842Y-3767436D02*
X-5411366Y-3776960D01*
X-5411366Y-3776960D02*
X-5430414Y-3786484D01*
X-5430414Y-3786484D02*
X-5449461Y-3786484D01*
X-5449461Y-3786484D02*
X-5468509Y-3776960D01*
X-5468509Y-3776960D02*
X-5478033Y-3767436D01*
X-5478033Y-3767436D02*
X-5487556Y-3748388D01*
X-5487556Y-3748388D02*
X-5497080Y-3710293D01*
X-5497080Y-3710293D02*
X-5497080Y-3662674D01*
X-5497080Y-3662674D02*
X-5487556Y-3624579D01*
X-5487556Y-3624579D02*
X-5478033Y-3605531D01*
X-5478033Y-3605531D02*
X-5468509Y-3596008D01*
X-5468509Y-3596008D02*
X-5449461Y-3586484D01*
X-5297080Y-3786484D02*
X-5297080Y-3653150D01*
X-5297080Y-3672198D02*
X-5287556Y-3662674D01*
X-5287556Y-3662674D02*
X-5268509Y-3653150D01*
X-5268509Y-3653150D02*
X-5239937Y-3653150D01*
X-5239937Y-3653150D02*
X-5220890Y-3662674D01*
X-5220890Y-3662674D02*
X-5211366Y-3681722D01*
X-5211366Y-3681722D02*
X-5211366Y-3786484D01*
X-5211366Y-3681722D02*
X-5201842Y-3662674D01*
X-5201842Y-3662674D02*
X-5182795Y-3653150D01*
X-5182795Y-3653150D02*
X-5154223Y-3653150D01*
X-5154223Y-3653150D02*
X-5135175Y-3662674D01*
X-5135175Y-3662674D02*
X-5125652Y-3681722D01*
X-5125652Y-3681722D02*
X-5125652Y-3786484D01*
X-5030414Y-3786484D02*
X-5030414Y-3653150D01*
X-5030414Y-3672198D02*
X-5020890Y-3662674D01*
X-5020890Y-3662674D02*
X-5001842Y-3653150D01*
X-5001842Y-3653150D02*
X-4973271Y-3653150D01*
X-4973271Y-3653150D02*
X-4954223Y-3662674D01*
X-4954223Y-3662674D02*
X-4944699Y-3681722D01*
X-4944699Y-3681722D02*
X-4944699Y-3786484D01*
X-4944699Y-3681722D02*
X-4935175Y-3662674D01*
X-4935175Y-3662674D02*
X-4916128Y-3653150D01*
X-4916128Y-3653150D02*
X-4887556Y-3653150D01*
X-4887556Y-3653150D02*
X-4868509Y-3662674D01*
X-4868509Y-3662674D02*
X-4858985Y-3681722D01*
X-4858985Y-3681722D02*
X-4858985Y-3786484D01*
X-4468509Y-3576960D02*
X-4639937Y-3834103D01*
X-4211366Y-3586484D02*
X-4192318Y-3586484D01*
X-4192318Y-3586484D02*
X-4173270Y-3596008D01*
X-4173270Y-3596008D02*
X-4163747Y-3605531D01*
X-4163747Y-3605531D02*
X-4154223Y-3624579D01*
X-4154223Y-3624579D02*
X-4144699Y-3662674D01*
X-4144699Y-3662674D02*
X-4144699Y-3710293D01*
X-4144699Y-3710293D02*
X-4154223Y-3748388D01*
X-4154223Y-3748388D02*
X-4163747Y-3767436D01*
X-4163747Y-3767436D02*
X-4173270Y-3776960D01*
X-4173270Y-3776960D02*
X-4192318Y-3786484D01*
X-4192318Y-3786484D02*
X-4211366Y-3786484D01*
X-4211366Y-3786484D02*
X-4230413Y-3776960D01*
X-4230413Y-3776960D02*
X-4239937Y-3767436D01*
X-4239937Y-3767436D02*
X-4249461Y-3748388D01*
X-4249461Y-3748388D02*
X-4258985Y-3710293D01*
X-4258985Y-3710293D02*
X-4258985Y-3662674D01*
X-4258985Y-3662674D02*
X-4249461Y-3624579D01*
X-4249461Y-3624579D02*
X-4239937Y-3605531D01*
X-4239937Y-3605531D02*
X-4230413Y-3596008D01*
X-4230413Y-3596008D02*
X-4211366Y-3586484D01*
X-4058985Y-3767436D02*
X-4049461Y-3776960D01*
X-4049461Y-3776960D02*
X-4058985Y-3786484D01*
X-4058985Y-3786484D02*
X-4068509Y-3776960D01*
X-4068509Y-3776960D02*
X-4058985Y-3767436D01*
X-4058985Y-3767436D02*
X-4058985Y-3786484D01*
X-3925651Y-3586484D02*
X-3906604Y-3586484D01*
X-3906604Y-3586484D02*
X-3887556Y-3596008D01*
X-3887556Y-3596008D02*
X-3878032Y-3605531D01*
X-3878032Y-3605531D02*
X-3868509Y-3624579D01*
X-3868509Y-3624579D02*
X-3858985Y-3662674D01*
X-3858985Y-3662674D02*
X-3858985Y-3710293D01*
X-3858985Y-3710293D02*
X-3868509Y-3748388D01*
X-3868509Y-3748388D02*
X-3878032Y-3767436D01*
X-3878032Y-3767436D02*
X-3887556Y-3776960D01*
X-3887556Y-3776960D02*
X-3906604Y-3786484D01*
X-3906604Y-3786484D02*
X-3925651Y-3786484D01*
X-3925651Y-3786484D02*
X-3944699Y-3776960D01*
X-3944699Y-3776960D02*
X-3954223Y-3767436D01*
X-3954223Y-3767436D02*
X-3963747Y-3748388D01*
X-3963747Y-3748388D02*
X-3973270Y-3710293D01*
X-3973270Y-3710293D02*
X-3973270Y-3662674D01*
X-3973270Y-3662674D02*
X-3963747Y-3624579D01*
X-3963747Y-3624579D02*
X-3954223Y-3605531D01*
X-3954223Y-3605531D02*
X-3944699Y-3596008D01*
X-3944699Y-3596008D02*
X-3925651Y-3586484D01*
X-3668509Y-3786484D02*
X-3782794Y-3786484D01*
X-3725651Y-3786484D02*
X-3725651Y-3586484D01*
X-3725651Y-3586484D02*
X-3744699Y-3615055D01*
X-3744699Y-3615055D02*
X-3763747Y-3634103D01*
X-3763747Y-3634103D02*
X-3782794Y-3643627D01*
X-3487556Y-3586484D02*
X-3582794Y-3586484D01*
X-3582794Y-3586484D02*
X-3592318Y-3681722D01*
X-3592318Y-3681722D02*
X-3582794Y-3672198D01*
X-3582794Y-3672198D02*
X-3563747Y-3662674D01*
X-3563747Y-3662674D02*
X-3516128Y-3662674D01*
X-3516128Y-3662674D02*
X-3497080Y-3672198D01*
X-3497080Y-3672198D02*
X-3487556Y-3681722D01*
X-3487556Y-3681722D02*
X-3478032Y-3700769D01*
X-3478032Y-3700769D02*
X-3478032Y-3748388D01*
X-3478032Y-3748388D02*
X-3487556Y-3767436D01*
X-3487556Y-3767436D02*
X-3497080Y-3776960D01*
X-3497080Y-3776960D02*
X-3516128Y-3786484D01*
X-3516128Y-3786484D02*
X-3563747Y-3786484D01*
X-3563747Y-3786484D02*
X-3582794Y-3776960D01*
X-3582794Y-3776960D02*
X-3592318Y-3767436D01*
X-3411366Y-3586484D02*
X-3278032Y-3586484D01*
X-3278032Y-3586484D02*
X-3363747Y-3786484D01*
X-3211366Y-3586484D02*
X-3211366Y-3624579D01*
X-3135175Y-3586484D02*
X-3135175Y-3624579D01*
X-2839937Y-3862674D02*
X-2849461Y-3853150D01*
X-2849461Y-3853150D02*
X-2868508Y-3824579D01*
X-2868508Y-3824579D02*
X-2878032Y-3805531D01*
X-2878032Y-3805531D02*
X-2887556Y-3776960D01*
X-2887556Y-3776960D02*
X-2897080Y-3729341D01*
X-2897080Y-3729341D02*
X-2897080Y-3691246D01*
X-2897080Y-3691246D02*
X-2887556Y-3643627D01*
X-2887556Y-3643627D02*
X-2878032Y-3615055D01*
X-2878032Y-3615055D02*
X-2868508Y-3596008D01*
X-2868508Y-3596008D02*
X-2849461Y-3567436D01*
X-2849461Y-3567436D02*
X-2839937Y-3557912D01*
X-2782794Y-3586484D02*
X-2658985Y-3586484D01*
X-2658985Y-3586484D02*
X-2725651Y-3662674D01*
X-2725651Y-3662674D02*
X-2697080Y-3662674D01*
X-2697080Y-3662674D02*
X-2678032Y-3672198D01*
X-2678032Y-3672198D02*
X-2668509Y-3681722D01*
X-2668509Y-3681722D02*
X-2658985Y-3700769D01*
X-2658985Y-3700769D02*
X-2658985Y-3748388D01*
X-2658985Y-3748388D02*
X-2668509Y-3767436D01*
X-2668509Y-3767436D02*
X-2678032Y-3776960D01*
X-2678032Y-3776960D02*
X-2697080Y-3786484D01*
X-2697080Y-3786484D02*
X-2754223Y-3786484D01*
X-2754223Y-3786484D02*
X-2773270Y-3776960D01*
X-2773270Y-3776960D02*
X-2782794Y-3767436D01*
X-2487556Y-3586484D02*
X-2525651Y-3586484D01*
X-2525651Y-3586484D02*
X-2544699Y-3596008D01*
X-2544699Y-3596008D02*
X-2554223Y-3605531D01*
X-2554223Y-3605531D02*
X-2573270Y-3634103D01*
X-2573270Y-3634103D02*
X-2582794Y-3672198D01*
X-2582794Y-3672198D02*
X-2582794Y-3748388D01*
X-2582794Y-3748388D02*
X-2573270Y-3767436D01*
X-2573270Y-3767436D02*
X-2563747Y-3776960D01*
X-2563747Y-3776960D02*
X-2544699Y-3786484D01*
X-2544699Y-3786484D02*
X-2506604Y-3786484D01*
X-2506604Y-3786484D02*
X-2487556Y-3776960D01*
X-2487556Y-3776960D02*
X-2478032Y-3767436D01*
X-2478032Y-3767436D02*
X-2468509Y-3748388D01*
X-2468509Y-3748388D02*
X-2468509Y-3700769D01*
X-2468509Y-3700769D02*
X-2478032Y-3681722D01*
X-2478032Y-3681722D02*
X-2487556Y-3672198D01*
X-2487556Y-3672198D02*
X-2506604Y-3662674D01*
X-2506604Y-3662674D02*
X-2544699Y-3662674D01*
X-2544699Y-3662674D02*
X-2563747Y-3672198D01*
X-2563747Y-3672198D02*
X-2573270Y-3681722D01*
X-2573270Y-3681722D02*
X-2582794Y-3700769D01*
X-2297080Y-3653150D02*
X-2297080Y-3786484D01*
X-2344699Y-3576960D02*
X-2392318Y-3719817D01*
X-2392318Y-3719817D02*
X-2268509Y-3719817D01*
X-2039937Y-3786484D02*
X-2039937Y-3586484D01*
X-1954223Y-3786484D02*
X-1954223Y-3681722D01*
X-1954223Y-3681722D02*
X-1963746Y-3662674D01*
X-1963746Y-3662674D02*
X-1982794Y-3653150D01*
X-1982794Y-3653150D02*
X-2011366Y-3653150D01*
X-2011366Y-3653150D02*
X-2030413Y-3662674D01*
X-2030413Y-3662674D02*
X-2039937Y-3672198D01*
X-1830413Y-3786484D02*
X-1849461Y-3776960D01*
X-1849461Y-3776960D02*
X-1858985Y-3767436D01*
X-1858985Y-3767436D02*
X-1868508Y-3748388D01*
X-1868508Y-3748388D02*
X-1868508Y-3691246D01*
X-1868508Y-3691246D02*
X-1858985Y-3672198D01*
X-1858985Y-3672198D02*
X-1849461Y-3662674D01*
X-1849461Y-3662674D02*
X-1830413Y-3653150D01*
X-1830413Y-3653150D02*
X-1801842Y-3653150D01*
X-1801842Y-3653150D02*
X-1782794Y-3662674D01*
X-1782794Y-3662674D02*
X-1773270Y-3672198D01*
X-1773270Y-3672198D02*
X-1763746Y-3691246D01*
X-1763746Y-3691246D02*
X-1763746Y-3748388D01*
X-1763746Y-3748388D02*
X-1773270Y-3767436D01*
X-1773270Y-3767436D02*
X-1782794Y-3776960D01*
X-1782794Y-3776960D02*
X-1801842Y-3786484D01*
X-1801842Y-3786484D02*
X-1830413Y-3786484D01*
X-1649461Y-3786484D02*
X-1668508Y-3776960D01*
X-1668508Y-3776960D02*
X-1678032Y-3757912D01*
X-1678032Y-3757912D02*
X-1678032Y-3586484D01*
X-1497080Y-3776960D02*
X-1516127Y-3786484D01*
X-1516127Y-3786484D02*
X-1554223Y-3786484D01*
X-1554223Y-3786484D02*
X-1573270Y-3776960D01*
X-1573270Y-3776960D02*
X-1582794Y-3757912D01*
X-1582794Y-3757912D02*
X-1582794Y-3681722D01*
X-1582794Y-3681722D02*
X-1573270Y-3662674D01*
X-1573270Y-3662674D02*
X-1554223Y-3653150D01*
X-1554223Y-3653150D02*
X-1516127Y-3653150D01*
X-1516127Y-3653150D02*
X-1497080Y-3662674D01*
X-1497080Y-3662674D02*
X-1487556Y-3681722D01*
X-1487556Y-3681722D02*
X-1487556Y-3700769D01*
X-1487556Y-3700769D02*
X-1582794Y-3719817D01*
X-1411365Y-3776960D02*
X-1392318Y-3786484D01*
X-1392318Y-3786484D02*
X-1354223Y-3786484D01*
X-1354223Y-3786484D02*
X-1335175Y-3776960D01*
X-1335175Y-3776960D02*
X-1325651Y-3757912D01*
X-1325651Y-3757912D02*
X-1325651Y-3748388D01*
X-1325651Y-3748388D02*
X-1335175Y-3729341D01*
X-1335175Y-3729341D02*
X-1354223Y-3719817D01*
X-1354223Y-3719817D02*
X-1382794Y-3719817D01*
X-1382794Y-3719817D02*
X-1401842Y-3710293D01*
X-1401842Y-3710293D02*
X-1411365Y-3691246D01*
X-1411365Y-3691246D02*
X-1411365Y-3681722D01*
X-1411365Y-3681722D02*
X-1401842Y-3662674D01*
X-1401842Y-3662674D02*
X-1382794Y-3653150D01*
X-1382794Y-3653150D02*
X-1354223Y-3653150D01*
X-1354223Y-3653150D02*
X-1335175Y-3662674D01*
X-1258985Y-3862674D02*
X-1249461Y-3853150D01*
X-1249461Y-3853150D02*
X-1230413Y-3824579D01*
X-1230413Y-3824579D02*
X-1220889Y-3805531D01*
X-1220889Y-3805531D02*
X-1211366Y-3776960D01*
X-1211366Y-3776960D02*
X-1201842Y-3729341D01*
X-1201842Y-3729341D02*
X-1201842Y-3691246D01*
X-1201842Y-3691246D02*
X-1211366Y-3643627D01*
X-1211366Y-3643627D02*
X-1220889Y-3615055D01*
X-1220889Y-3615055D02*
X-1230413Y-3596008D01*
X-1230413Y-3596008D02*
X-1249461Y-3567436D01*
X-1249461Y-3567436D02*
X-1258985Y-3557912D01*
D10*
X-6415000Y-3959000D02*
G75*
G02*
X-6515000Y-3959000I-50000J0D01*
G01*
X-6515000Y-3959000D02*
G75*
G02*
X-6415000Y-3959000I50000J0D01*
G01*
D11*
X-6049461Y-4050484D02*
X-6163747Y-4050484D01*
X-6106604Y-4050484D02*
X-6106604Y-3850484D01*
X-6106604Y-3850484D02*
X-6125652Y-3879055D01*
X-6125652Y-3879055D02*
X-6144699Y-3898103D01*
X-6144699Y-3898103D02*
X-6163747Y-3907627D01*
X-5963747Y-4031436D02*
X-5954223Y-4040960D01*
X-5954223Y-4040960D02*
X-5963747Y-4050484D01*
X-5963747Y-4050484D02*
X-5973271Y-4040960D01*
X-5973271Y-4040960D02*
X-5963747Y-4031436D01*
X-5963747Y-4031436D02*
X-5963747Y-4050484D01*
X-5830414Y-3850484D02*
X-5811366Y-3850484D01*
X-5811366Y-3850484D02*
X-5792318Y-3860008D01*
X-5792318Y-3860008D02*
X-5782794Y-3869531D01*
X-5782794Y-3869531D02*
X-5773271Y-3888579D01*
X-5773271Y-3888579D02*
X-5763747Y-3926674D01*
X-5763747Y-3926674D02*
X-5763747Y-3974293D01*
X-5763747Y-3974293D02*
X-5773271Y-4012388D01*
X-5773271Y-4012388D02*
X-5782794Y-4031436D01*
X-5782794Y-4031436D02*
X-5792318Y-4040960D01*
X-5792318Y-4040960D02*
X-5811366Y-4050484D01*
X-5811366Y-4050484D02*
X-5830414Y-4050484D01*
X-5830414Y-4050484D02*
X-5849461Y-4040960D01*
X-5849461Y-4040960D02*
X-5858985Y-4031436D01*
X-5858985Y-4031436D02*
X-5868509Y-4012388D01*
X-5868509Y-4012388D02*
X-5878033Y-3974293D01*
X-5878033Y-3974293D02*
X-5878033Y-3926674D01*
X-5878033Y-3926674D02*
X-5868509Y-3888579D01*
X-5868509Y-3888579D02*
X-5858985Y-3869531D01*
X-5858985Y-3869531D02*
X-5849461Y-3860008D01*
X-5849461Y-3860008D02*
X-5830414Y-3850484D01*
X-5639937Y-3850484D02*
X-5620890Y-3850484D01*
X-5620890Y-3850484D02*
X-5601842Y-3860008D01*
X-5601842Y-3860008D02*
X-5592318Y-3869531D01*
X-5592318Y-3869531D02*
X-5582795Y-3888579D01*
X-5582795Y-3888579D02*
X-5573271Y-3926674D01*
X-5573271Y-3926674D02*
X-5573271Y-3974293D01*
X-5573271Y-3974293D02*
X-5582795Y-4012388D01*
X-5582795Y-4012388D02*
X-5592318Y-4031436D01*
X-5592318Y-4031436D02*
X-5601842Y-4040960D01*
X-5601842Y-4040960D02*
X-5620890Y-4050484D01*
X-5620890Y-4050484D02*
X-5639937Y-4050484D01*
X-5639937Y-4050484D02*
X-5658985Y-4040960D01*
X-5658985Y-4040960D02*
X-5668509Y-4031436D01*
X-5668509Y-4031436D02*
X-5678033Y-4012388D01*
X-5678033Y-4012388D02*
X-5687556Y-3974293D01*
X-5687556Y-3974293D02*
X-5687556Y-3926674D01*
X-5687556Y-3926674D02*
X-5678033Y-3888579D01*
X-5678033Y-3888579D02*
X-5668509Y-3869531D01*
X-5668509Y-3869531D02*
X-5658985Y-3860008D01*
X-5658985Y-3860008D02*
X-5639937Y-3850484D01*
X-5449461Y-3850484D02*
X-5430414Y-3850484D01*
X-5430414Y-3850484D02*
X-5411366Y-3860008D01*
X-5411366Y-3860008D02*
X-5401842Y-3869531D01*
X-5401842Y-3869531D02*
X-5392318Y-3888579D01*
X-5392318Y-3888579D02*
X-5382795Y-3926674D01*
X-5382795Y-3926674D02*
X-5382795Y-3974293D01*
X-5382795Y-3974293D02*
X-5392318Y-4012388D01*
X-5392318Y-4012388D02*
X-5401842Y-4031436D01*
X-5401842Y-4031436D02*
X-5411366Y-4040960D01*
X-5411366Y-4040960D02*
X-5430414Y-4050484D01*
X-5430414Y-4050484D02*
X-5449461Y-4050484D01*
X-5449461Y-4050484D02*
X-5468509Y-4040960D01*
X-5468509Y-4040960D02*
X-5478033Y-4031436D01*
X-5478033Y-4031436D02*
X-5487556Y-4012388D01*
X-5487556Y-4012388D02*
X-5497080Y-3974293D01*
X-5497080Y-3974293D02*
X-5497080Y-3926674D01*
X-5497080Y-3926674D02*
X-5487556Y-3888579D01*
X-5487556Y-3888579D02*
X-5478033Y-3869531D01*
X-5478033Y-3869531D02*
X-5468509Y-3860008D01*
X-5468509Y-3860008D02*
X-5449461Y-3850484D01*
X-5297080Y-4050484D02*
X-5297080Y-3917150D01*
X-5297080Y-3936198D02*
X-5287556Y-3926674D01*
X-5287556Y-3926674D02*
X-5268509Y-3917150D01*
X-5268509Y-3917150D02*
X-5239937Y-3917150D01*
X-5239937Y-3917150D02*
X-5220890Y-3926674D01*
X-5220890Y-3926674D02*
X-5211366Y-3945722D01*
X-5211366Y-3945722D02*
X-5211366Y-4050484D01*
X-5211366Y-3945722D02*
X-5201842Y-3926674D01*
X-5201842Y-3926674D02*
X-5182795Y-3917150D01*
X-5182795Y-3917150D02*
X-5154223Y-3917150D01*
X-5154223Y-3917150D02*
X-5135175Y-3926674D01*
X-5135175Y-3926674D02*
X-5125652Y-3945722D01*
X-5125652Y-3945722D02*
X-5125652Y-4050484D01*
X-5030414Y-4050484D02*
X-5030414Y-3917150D01*
X-5030414Y-3936198D02*
X-5020890Y-3926674D01*
X-5020890Y-3926674D02*
X-5001842Y-3917150D01*
X-5001842Y-3917150D02*
X-4973271Y-3917150D01*
X-4973271Y-3917150D02*
X-4954223Y-3926674D01*
X-4954223Y-3926674D02*
X-4944699Y-3945722D01*
X-4944699Y-3945722D02*
X-4944699Y-4050484D01*
X-4944699Y-3945722D02*
X-4935175Y-3926674D01*
X-4935175Y-3926674D02*
X-4916128Y-3917150D01*
X-4916128Y-3917150D02*
X-4887556Y-3917150D01*
X-4887556Y-3917150D02*
X-4868509Y-3926674D01*
X-4868509Y-3926674D02*
X-4858985Y-3945722D01*
X-4858985Y-3945722D02*
X-4858985Y-4050484D01*
X-4468509Y-3840960D02*
X-4639937Y-4098103D01*
X-4211366Y-3850484D02*
X-4192318Y-3850484D01*
X-4192318Y-3850484D02*
X-4173270Y-3860008D01*
X-4173270Y-3860008D02*
X-4163747Y-3869531D01*
X-4163747Y-3869531D02*
X-4154223Y-3888579D01*
X-4154223Y-3888579D02*
X-4144699Y-3926674D01*
X-4144699Y-3926674D02*
X-4144699Y-3974293D01*
X-4144699Y-3974293D02*
X-4154223Y-4012388D01*
X-4154223Y-4012388D02*
X-4163747Y-4031436D01*
X-4163747Y-4031436D02*
X-4173270Y-4040960D01*
X-4173270Y-4040960D02*
X-4192318Y-4050484D01*
X-4192318Y-4050484D02*
X-4211366Y-4050484D01*
X-4211366Y-4050484D02*
X-4230413Y-4040960D01*
X-4230413Y-4040960D02*
X-4239937Y-4031436D01*
X-4239937Y-4031436D02*
X-4249461Y-4012388D01*
X-4249461Y-4012388D02*
X-4258985Y-3974293D01*
X-4258985Y-3974293D02*
X-4258985Y-3926674D01*
X-4258985Y-3926674D02*
X-4249461Y-3888579D01*
X-4249461Y-3888579D02*
X-4239937Y-3869531D01*
X-4239937Y-3869531D02*
X-4230413Y-3860008D01*
X-4230413Y-3860008D02*
X-4211366Y-3850484D01*
X-4058985Y-4031436D02*
X-4049461Y-4040960D01*
X-4049461Y-4040960D02*
X-4058985Y-4050484D01*
X-4058985Y-4050484D02*
X-4068509Y-4040960D01*
X-4068509Y-4040960D02*
X-4058985Y-4031436D01*
X-4058985Y-4031436D02*
X-4058985Y-4050484D01*
X-3925651Y-3850484D02*
X-3906604Y-3850484D01*
X-3906604Y-3850484D02*
X-3887556Y-3860008D01*
X-3887556Y-3860008D02*
X-3878032Y-3869531D01*
X-3878032Y-3869531D02*
X-3868509Y-3888579D01*
X-3868509Y-3888579D02*
X-3858985Y-3926674D01*
X-3858985Y-3926674D02*
X-3858985Y-3974293D01*
X-3858985Y-3974293D02*
X-3868509Y-4012388D01*
X-3868509Y-4012388D02*
X-3878032Y-4031436D01*
X-3878032Y-4031436D02*
X-3887556Y-4040960D01*
X-3887556Y-4040960D02*
X-3906604Y-4050484D01*
X-3906604Y-4050484D02*
X-3925651Y-4050484D01*
X-3925651Y-4050484D02*
X-3944699Y-4040960D01*
X-3944699Y-4040960D02*
X-3954223Y-4031436D01*
X-3954223Y-4031436D02*
X-3963747Y-4012388D01*
X-3963747Y-4012388D02*
X-3973270Y-3974293D01*
X-3973270Y-3974293D02*
X-3973270Y-3926674D01*
X-3973270Y-3926674D02*
X-3963747Y-3888579D01*
X-3963747Y-3888579D02*
X-3954223Y-3869531D01*
X-3954223Y-3869531D02*
X-3944699Y-3860008D01*
X-3944699Y-3860008D02*
X-3925651Y-3850484D01*
X-3792318Y-3850484D02*
X-3668509Y-3850484D01*
X-3668509Y-3850484D02*
X-3735175Y-3926674D01*
X-3735175Y-3926674D02*
X-3706604Y-3926674D01*
X-3706604Y-3926674D02*
X-3687556Y-3936198D01*
X-3687556Y-3936198D02*
X-3678032Y-3945722D01*
X-3678032Y-3945722D02*
X-3668509Y-3964769D01*
X-3668509Y-3964769D02*
X-3668509Y-4012388D01*
X-3668509Y-4012388D02*
X-3678032Y-4031436D01*
X-3678032Y-4031436D02*
X-3687556Y-4040960D01*
X-3687556Y-4040960D02*
X-3706604Y-4050484D01*
X-3706604Y-4050484D02*
X-3763747Y-4050484D01*
X-3763747Y-4050484D02*
X-3782794Y-4040960D01*
X-3782794Y-4040960D02*
X-3792318Y-4031436D01*
X-3573270Y-4050484D02*
X-3535175Y-4050484D01*
X-3535175Y-4050484D02*
X-3516128Y-4040960D01*
X-3516128Y-4040960D02*
X-3506604Y-4031436D01*
X-3506604Y-4031436D02*
X-3487556Y-4002865D01*
X-3487556Y-4002865D02*
X-3478032Y-3964769D01*
X-3478032Y-3964769D02*
X-3478032Y-3888579D01*
X-3478032Y-3888579D02*
X-3487556Y-3869531D01*
X-3487556Y-3869531D02*
X-3497080Y-3860008D01*
X-3497080Y-3860008D02*
X-3516128Y-3850484D01*
X-3516128Y-3850484D02*
X-3554223Y-3850484D01*
X-3554223Y-3850484D02*
X-3573270Y-3860008D01*
X-3573270Y-3860008D02*
X-3582794Y-3869531D01*
X-3582794Y-3869531D02*
X-3592318Y-3888579D01*
X-3592318Y-3888579D02*
X-3592318Y-3936198D01*
X-3592318Y-3936198D02*
X-3582794Y-3955246D01*
X-3582794Y-3955246D02*
X-3573270Y-3964769D01*
X-3573270Y-3964769D02*
X-3554223Y-3974293D01*
X-3554223Y-3974293D02*
X-3516128Y-3974293D01*
X-3516128Y-3974293D02*
X-3497080Y-3964769D01*
X-3497080Y-3964769D02*
X-3487556Y-3955246D01*
X-3487556Y-3955246D02*
X-3478032Y-3936198D01*
X-3306604Y-3917150D02*
X-3306604Y-4050484D01*
X-3354223Y-3840960D02*
X-3401842Y-3983817D01*
X-3401842Y-3983817D02*
X-3278032Y-3983817D01*
X-3211366Y-3850484D02*
X-3211366Y-3888579D01*
X-3135175Y-3850484D02*
X-3135175Y-3888579D01*
X-2839937Y-4126674D02*
X-2849461Y-4117150D01*
X-2849461Y-4117150D02*
X-2868508Y-4088579D01*
X-2868508Y-4088579D02*
X-2878032Y-4069531D01*
X-2878032Y-4069531D02*
X-2887556Y-4040960D01*
X-2887556Y-4040960D02*
X-2897080Y-3993341D01*
X-2897080Y-3993341D02*
X-2897080Y-3955246D01*
X-2897080Y-3955246D02*
X-2887556Y-3907627D01*
X-2887556Y-3907627D02*
X-2878032Y-3879055D01*
X-2878032Y-3879055D02*
X-2868508Y-3860008D01*
X-2868508Y-3860008D02*
X-2849461Y-3831436D01*
X-2849461Y-3831436D02*
X-2839937Y-3821912D01*
X-2658985Y-4050484D02*
X-2773270Y-4050484D01*
X-2716128Y-4050484D02*
X-2716128Y-3850484D01*
X-2716128Y-3850484D02*
X-2735175Y-3879055D01*
X-2735175Y-3879055D02*
X-2754223Y-3898103D01*
X-2754223Y-3898103D02*
X-2773270Y-3907627D01*
X-2487556Y-3850484D02*
X-2525651Y-3850484D01*
X-2525651Y-3850484D02*
X-2544699Y-3860008D01*
X-2544699Y-3860008D02*
X-2554223Y-3869531D01*
X-2554223Y-3869531D02*
X-2573270Y-3898103D01*
X-2573270Y-3898103D02*
X-2582794Y-3936198D01*
X-2582794Y-3936198D02*
X-2582794Y-4012388D01*
X-2582794Y-4012388D02*
X-2573270Y-4031436D01*
X-2573270Y-4031436D02*
X-2563747Y-4040960D01*
X-2563747Y-4040960D02*
X-2544699Y-4050484D01*
X-2544699Y-4050484D02*
X-2506604Y-4050484D01*
X-2506604Y-4050484D02*
X-2487556Y-4040960D01*
X-2487556Y-4040960D02*
X-2478032Y-4031436D01*
X-2478032Y-4031436D02*
X-2468509Y-4012388D01*
X-2468509Y-4012388D02*
X-2468509Y-3964769D01*
X-2468509Y-3964769D02*
X-2478032Y-3945722D01*
X-2478032Y-3945722D02*
X-2487556Y-3936198D01*
X-2487556Y-3936198D02*
X-2506604Y-3926674D01*
X-2506604Y-3926674D02*
X-2544699Y-3926674D01*
X-2544699Y-3926674D02*
X-2563747Y-3936198D01*
X-2563747Y-3936198D02*
X-2573270Y-3945722D01*
X-2573270Y-3945722D02*
X-2582794Y-3964769D01*
X-2230413Y-4050484D02*
X-2230413Y-3850484D01*
X-2144699Y-4050484D02*
X-2144699Y-3945722D01*
X-2144699Y-3945722D02*
X-2154223Y-3926674D01*
X-2154223Y-3926674D02*
X-2173270Y-3917150D01*
X-2173270Y-3917150D02*
X-2201842Y-3917150D01*
X-2201842Y-3917150D02*
X-2220889Y-3926674D01*
X-2220889Y-3926674D02*
X-2230413Y-3936198D01*
X-2020889Y-4050484D02*
X-2039937Y-4040960D01*
X-2039937Y-4040960D02*
X-2049461Y-4031436D01*
X-2049461Y-4031436D02*
X-2058985Y-4012388D01*
X-2058985Y-4012388D02*
X-2058985Y-3955246D01*
X-2058985Y-3955246D02*
X-2049461Y-3936198D01*
X-2049461Y-3936198D02*
X-2039937Y-3926674D01*
X-2039937Y-3926674D02*
X-2020889Y-3917150D01*
X-2020889Y-3917150D02*
X-1992318Y-3917150D01*
X-1992318Y-3917150D02*
X-1973270Y-3926674D01*
X-1973270Y-3926674D02*
X-1963746Y-3936198D01*
X-1963746Y-3936198D02*
X-1954223Y-3955246D01*
X-1954223Y-3955246D02*
X-1954223Y-4012388D01*
X-1954223Y-4012388D02*
X-1963746Y-4031436D01*
X-1963746Y-4031436D02*
X-1973270Y-4040960D01*
X-1973270Y-4040960D02*
X-1992318Y-4050484D01*
X-1992318Y-4050484D02*
X-2020889Y-4050484D01*
X-1839937Y-4050484D02*
X-1858985Y-4040960D01*
X-1858985Y-4040960D02*
X-1868508Y-4021912D01*
X-1868508Y-4021912D02*
X-1868508Y-3850484D01*
X-1687556Y-4040960D02*
X-1706604Y-4050484D01*
X-1706604Y-4050484D02*
X-1744699Y-4050484D01*
X-1744699Y-4050484D02*
X-1763746Y-4040960D01*
X-1763746Y-4040960D02*
X-1773270Y-4021912D01*
X-1773270Y-4021912D02*
X-1773270Y-3945722D01*
X-1773270Y-3945722D02*
X-1763746Y-3926674D01*
X-1763746Y-3926674D02*
X-1744699Y-3917150D01*
X-1744699Y-3917150D02*
X-1706604Y-3917150D01*
X-1706604Y-3917150D02*
X-1687556Y-3926674D01*
X-1687556Y-3926674D02*
X-1678032Y-3945722D01*
X-1678032Y-3945722D02*
X-1678032Y-3964769D01*
X-1678032Y-3964769D02*
X-1773270Y-3983817D01*
X-1601842Y-4040960D02*
X-1582794Y-4050484D01*
X-1582794Y-4050484D02*
X-1544699Y-4050484D01*
X-1544699Y-4050484D02*
X-1525651Y-4040960D01*
X-1525651Y-4040960D02*
X-1516127Y-4021912D01*
X-1516127Y-4021912D02*
X-1516127Y-4012388D01*
X-1516127Y-4012388D02*
X-1525651Y-3993341D01*
X-1525651Y-3993341D02*
X-1544699Y-3983817D01*
X-1544699Y-3983817D02*
X-1573270Y-3983817D01*
X-1573270Y-3983817D02*
X-1592318Y-3974293D01*
X-1592318Y-3974293D02*
X-1601842Y-3955246D01*
X-1601842Y-3955246D02*
X-1601842Y-3945722D01*
X-1601842Y-3945722D02*
X-1592318Y-3926674D01*
X-1592318Y-3926674D02*
X-1573270Y-3917150D01*
X-1573270Y-3917150D02*
X-1544699Y-3917150D01*
X-1544699Y-3917150D02*
X-1525651Y-3926674D01*
X-1449461Y-4126674D02*
X-1439937Y-4117150D01*
X-1439937Y-4117150D02*
X-1420889Y-4088579D01*
X-1420889Y-4088579D02*
X-1411365Y-4069531D01*
X-1411365Y-4069531D02*
X-1401842Y-4040960D01*
X-1401842Y-4040960D02*
X-1392318Y-3993341D01*
X-1392318Y-3993341D02*
X-1392318Y-3955246D01*
X-1392318Y-3955246D02*
X-1401842Y-3907627D01*
X-1401842Y-3907627D02*
X-1411365Y-3879055D01*
X-1411365Y-3879055D02*
X-1420889Y-3860008D01*
X-1420889Y-3860008D02*
X-1439937Y-3831436D01*
X-1439937Y-3831436D02*
X-1449461Y-3821912D01*
D12*
X-6507500Y-4130500D02*
X-6507500Y-4315500D01*
X-6600000Y-4223000D02*
X-6415000Y-4223000D01*
D11*
X-6049461Y-4314484D02*
X-6163747Y-4314484D01*
X-6106604Y-4314484D02*
X-6106604Y-4114484D01*
X-6106604Y-4114484D02*
X-6125652Y-4143055D01*
X-6125652Y-4143055D02*
X-6144699Y-4162103D01*
X-6144699Y-4162103D02*
X-6163747Y-4171627D01*
X-5963747Y-4295436D02*
X-5954223Y-4304960D01*
X-5954223Y-4304960D02*
X-5963747Y-4314484D01*
X-5963747Y-4314484D02*
X-5973271Y-4304960D01*
X-5973271Y-4304960D02*
X-5963747Y-4295436D01*
X-5963747Y-4295436D02*
X-5963747Y-4314484D01*
X-5839937Y-4200198D02*
X-5858985Y-4190674D01*
X-5858985Y-4190674D02*
X-5868509Y-4181150D01*
X-5868509Y-4181150D02*
X-5878033Y-4162103D01*
X-5878033Y-4162103D02*
X-5878033Y-4152579D01*
X-5878033Y-4152579D02*
X-5868509Y-4133531D01*
X-5868509Y-4133531D02*
X-5858985Y-4124008D01*
X-5858985Y-4124008D02*
X-5839937Y-4114484D01*
X-5839937Y-4114484D02*
X-5801842Y-4114484D01*
X-5801842Y-4114484D02*
X-5782794Y-4124008D01*
X-5782794Y-4124008D02*
X-5773271Y-4133531D01*
X-5773271Y-4133531D02*
X-5763747Y-4152579D01*
X-5763747Y-4152579D02*
X-5763747Y-4162103D01*
X-5763747Y-4162103D02*
X-5773271Y-4181150D01*
X-5773271Y-4181150D02*
X-5782794Y-4190674D01*
X-5782794Y-4190674D02*
X-5801842Y-4200198D01*
X-5801842Y-4200198D02*
X-5839937Y-4200198D01*
X-5839937Y-4200198D02*
X-5858985Y-4209722D01*
X-5858985Y-4209722D02*
X-5868509Y-4219246D01*
X-5868509Y-4219246D02*
X-5878033Y-4238293D01*
X-5878033Y-4238293D02*
X-5878033Y-4276389D01*
X-5878033Y-4276389D02*
X-5868509Y-4295436D01*
X-5868509Y-4295436D02*
X-5858985Y-4304960D01*
X-5858985Y-4304960D02*
X-5839937Y-4314484D01*
X-5839937Y-4314484D02*
X-5801842Y-4314484D01*
X-5801842Y-4314484D02*
X-5782794Y-4304960D01*
X-5782794Y-4304960D02*
X-5773271Y-4295436D01*
X-5773271Y-4295436D02*
X-5763747Y-4276389D01*
X-5763747Y-4276389D02*
X-5763747Y-4238293D01*
X-5763747Y-4238293D02*
X-5773271Y-4219246D01*
X-5773271Y-4219246D02*
X-5782794Y-4209722D01*
X-5782794Y-4209722D02*
X-5801842Y-4200198D01*
X-5582795Y-4114484D02*
X-5678033Y-4114484D01*
X-5678033Y-4114484D02*
X-5687556Y-4209722D01*
X-5687556Y-4209722D02*
X-5678033Y-4200198D01*
X-5678033Y-4200198D02*
X-5658985Y-4190674D01*
X-5658985Y-4190674D02*
X-5611366Y-4190674D01*
X-5611366Y-4190674D02*
X-5592318Y-4200198D01*
X-5592318Y-4200198D02*
X-5582795Y-4209722D01*
X-5582795Y-4209722D02*
X-5573271Y-4228770D01*
X-5573271Y-4228770D02*
X-5573271Y-4276389D01*
X-5573271Y-4276389D02*
X-5582795Y-4295436D01*
X-5582795Y-4295436D02*
X-5592318Y-4304960D01*
X-5592318Y-4304960D02*
X-5611366Y-4314484D01*
X-5611366Y-4314484D02*
X-5658985Y-4314484D01*
X-5658985Y-4314484D02*
X-5678033Y-4304960D01*
X-5678033Y-4304960D02*
X-5687556Y-4295436D01*
X-5449461Y-4114484D02*
X-5430414Y-4114484D01*
X-5430414Y-4114484D02*
X-5411366Y-4124008D01*
X-5411366Y-4124008D02*
X-5401842Y-4133531D01*
X-5401842Y-4133531D02*
X-5392318Y-4152579D01*
X-5392318Y-4152579D02*
X-5382795Y-4190674D01*
X-5382795Y-4190674D02*
X-5382795Y-4238293D01*
X-5382795Y-4238293D02*
X-5392318Y-4276389D01*
X-5392318Y-4276389D02*
X-5401842Y-4295436D01*
X-5401842Y-4295436D02*
X-5411366Y-4304960D01*
X-5411366Y-4304960D02*
X-5430414Y-4314484D01*
X-5430414Y-4314484D02*
X-5449461Y-4314484D01*
X-5449461Y-4314484D02*
X-5468509Y-4304960D01*
X-5468509Y-4304960D02*
X-5478033Y-4295436D01*
X-5478033Y-4295436D02*
X-5487556Y-4276389D01*
X-5487556Y-4276389D02*
X-5497080Y-4238293D01*
X-5497080Y-4238293D02*
X-5497080Y-4190674D01*
X-5497080Y-4190674D02*
X-5487556Y-4152579D01*
X-5487556Y-4152579D02*
X-5478033Y-4133531D01*
X-5478033Y-4133531D02*
X-5468509Y-4124008D01*
X-5468509Y-4124008D02*
X-5449461Y-4114484D01*
X-5297080Y-4314484D02*
X-5297080Y-4181150D01*
X-5297080Y-4200198D02*
X-5287556Y-4190674D01*
X-5287556Y-4190674D02*
X-5268509Y-4181150D01*
X-5268509Y-4181150D02*
X-5239937Y-4181150D01*
X-5239937Y-4181150D02*
X-5220890Y-4190674D01*
X-5220890Y-4190674D02*
X-5211366Y-4209722D01*
X-5211366Y-4209722D02*
X-5211366Y-4314484D01*
X-5211366Y-4209722D02*
X-5201842Y-4190674D01*
X-5201842Y-4190674D02*
X-5182795Y-4181150D01*
X-5182795Y-4181150D02*
X-5154223Y-4181150D01*
X-5154223Y-4181150D02*
X-5135175Y-4190674D01*
X-5135175Y-4190674D02*
X-5125652Y-4209722D01*
X-5125652Y-4209722D02*
X-5125652Y-4314484D01*
X-5030414Y-4314484D02*
X-5030414Y-4181150D01*
X-5030414Y-4200198D02*
X-5020890Y-4190674D01*
X-5020890Y-4190674D02*
X-5001842Y-4181150D01*
X-5001842Y-4181150D02*
X-4973271Y-4181150D01*
X-4973271Y-4181150D02*
X-4954223Y-4190674D01*
X-4954223Y-4190674D02*
X-4944699Y-4209722D01*
X-4944699Y-4209722D02*
X-4944699Y-4314484D01*
X-4944699Y-4209722D02*
X-4935175Y-4190674D01*
X-4935175Y-4190674D02*
X-4916128Y-4181150D01*
X-4916128Y-4181150D02*
X-4887556Y-4181150D01*
X-4887556Y-4181150D02*
X-4868509Y-4190674D01*
X-4868509Y-4190674D02*
X-4858985Y-4209722D01*
X-4858985Y-4209722D02*
X-4858985Y-4314484D01*
X-4468509Y-4104960D02*
X-4639937Y-4362103D01*
X-4211366Y-4114484D02*
X-4192318Y-4114484D01*
X-4192318Y-4114484D02*
X-4173270Y-4124008D01*
X-4173270Y-4124008D02*
X-4163747Y-4133531D01*
X-4163747Y-4133531D02*
X-4154223Y-4152579D01*
X-4154223Y-4152579D02*
X-4144699Y-4190674D01*
X-4144699Y-4190674D02*
X-4144699Y-4238293D01*
X-4144699Y-4238293D02*
X-4154223Y-4276389D01*
X-4154223Y-4276389D02*
X-4163747Y-4295436D01*
X-4163747Y-4295436D02*
X-4173270Y-4304960D01*
X-4173270Y-4304960D02*
X-4192318Y-4314484D01*
X-4192318Y-4314484D02*
X-4211366Y-4314484D01*
X-4211366Y-4314484D02*
X-4230413Y-4304960D01*
X-4230413Y-4304960D02*
X-4239937Y-4295436D01*
X-4239937Y-4295436D02*
X-4249461Y-4276389D01*
X-4249461Y-4276389D02*
X-4258985Y-4238293D01*
X-4258985Y-4238293D02*
X-4258985Y-4190674D01*
X-4258985Y-4190674D02*
X-4249461Y-4152579D01*
X-4249461Y-4152579D02*
X-4239937Y-4133531D01*
X-4239937Y-4133531D02*
X-4230413Y-4124008D01*
X-4230413Y-4124008D02*
X-4211366Y-4114484D01*
X-4058985Y-4295436D02*
X-4049461Y-4304960D01*
X-4049461Y-4304960D02*
X-4058985Y-4314484D01*
X-4058985Y-4314484D02*
X-4068509Y-4304960D01*
X-4068509Y-4304960D02*
X-4058985Y-4295436D01*
X-4058985Y-4295436D02*
X-4058985Y-4314484D01*
X-3925651Y-4114484D02*
X-3906604Y-4114484D01*
X-3906604Y-4114484D02*
X-3887556Y-4124008D01*
X-3887556Y-4124008D02*
X-3878032Y-4133531D01*
X-3878032Y-4133531D02*
X-3868509Y-4152579D01*
X-3868509Y-4152579D02*
X-3858985Y-4190674D01*
X-3858985Y-4190674D02*
X-3858985Y-4238293D01*
X-3858985Y-4238293D02*
X-3868509Y-4276389D01*
X-3868509Y-4276389D02*
X-3878032Y-4295436D01*
X-3878032Y-4295436D02*
X-3887556Y-4304960D01*
X-3887556Y-4304960D02*
X-3906604Y-4314484D01*
X-3906604Y-4314484D02*
X-3925651Y-4314484D01*
X-3925651Y-4314484D02*
X-3944699Y-4304960D01*
X-3944699Y-4304960D02*
X-3954223Y-4295436D01*
X-3954223Y-4295436D02*
X-3963747Y-4276389D01*
X-3963747Y-4276389D02*
X-3973270Y-4238293D01*
X-3973270Y-4238293D02*
X-3973270Y-4190674D01*
X-3973270Y-4190674D02*
X-3963747Y-4152579D01*
X-3963747Y-4152579D02*
X-3954223Y-4133531D01*
X-3954223Y-4133531D02*
X-3944699Y-4124008D01*
X-3944699Y-4124008D02*
X-3925651Y-4114484D01*
X-3792318Y-4114484D02*
X-3658985Y-4114484D01*
X-3658985Y-4114484D02*
X-3744699Y-4314484D01*
X-3592318Y-4133531D02*
X-3582794Y-4124008D01*
X-3582794Y-4124008D02*
X-3563747Y-4114484D01*
X-3563747Y-4114484D02*
X-3516128Y-4114484D01*
X-3516128Y-4114484D02*
X-3497080Y-4124008D01*
X-3497080Y-4124008D02*
X-3487556Y-4133531D01*
X-3487556Y-4133531D02*
X-3478032Y-4152579D01*
X-3478032Y-4152579D02*
X-3478032Y-4171627D01*
X-3478032Y-4171627D02*
X-3487556Y-4200198D01*
X-3487556Y-4200198D02*
X-3601842Y-4314484D01*
X-3601842Y-4314484D02*
X-3478032Y-4314484D01*
X-3363747Y-4200198D02*
X-3382794Y-4190674D01*
X-3382794Y-4190674D02*
X-3392318Y-4181150D01*
X-3392318Y-4181150D02*
X-3401842Y-4162103D01*
X-3401842Y-4162103D02*
X-3401842Y-4152579D01*
X-3401842Y-4152579D02*
X-3392318Y-4133531D01*
X-3392318Y-4133531D02*
X-3382794Y-4124008D01*
X-3382794Y-4124008D02*
X-3363747Y-4114484D01*
X-3363747Y-4114484D02*
X-3325651Y-4114484D01*
X-3325651Y-4114484D02*
X-3306604Y-4124008D01*
X-3306604Y-4124008D02*
X-3297080Y-4133531D01*
X-3297080Y-4133531D02*
X-3287556Y-4152579D01*
X-3287556Y-4152579D02*
X-3287556Y-4162103D01*
X-3287556Y-4162103D02*
X-3297080Y-4181150D01*
X-3297080Y-4181150D02*
X-3306604Y-4190674D01*
X-3306604Y-4190674D02*
X-3325651Y-4200198D01*
X-3325651Y-4200198D02*
X-3363747Y-4200198D01*
X-3363747Y-4200198D02*
X-3382794Y-4209722D01*
X-3382794Y-4209722D02*
X-3392318Y-4219246D01*
X-3392318Y-4219246D02*
X-3401842Y-4238293D01*
X-3401842Y-4238293D02*
X-3401842Y-4276389D01*
X-3401842Y-4276389D02*
X-3392318Y-4295436D01*
X-3392318Y-4295436D02*
X-3382794Y-4304960D01*
X-3382794Y-4304960D02*
X-3363747Y-4314484D01*
X-3363747Y-4314484D02*
X-3325651Y-4314484D01*
X-3325651Y-4314484D02*
X-3306604Y-4304960D01*
X-3306604Y-4304960D02*
X-3297080Y-4295436D01*
X-3297080Y-4295436D02*
X-3287556Y-4276389D01*
X-3287556Y-4276389D02*
X-3287556Y-4238293D01*
X-3287556Y-4238293D02*
X-3297080Y-4219246D01*
X-3297080Y-4219246D02*
X-3306604Y-4209722D01*
X-3306604Y-4209722D02*
X-3325651Y-4200198D01*
X-3211366Y-4114484D02*
X-3211366Y-4152579D01*
X-3135175Y-4114484D02*
X-3135175Y-4152579D01*
X-2839937Y-4390674D02*
X-2849461Y-4381150D01*
X-2849461Y-4381150D02*
X-2868508Y-4352579D01*
X-2868508Y-4352579D02*
X-2878032Y-4333531D01*
X-2878032Y-4333531D02*
X-2887556Y-4304960D01*
X-2887556Y-4304960D02*
X-2897080Y-4257341D01*
X-2897080Y-4257341D02*
X-2897080Y-4219246D01*
X-2897080Y-4219246D02*
X-2887556Y-4171627D01*
X-2887556Y-4171627D02*
X-2878032Y-4143055D01*
X-2878032Y-4143055D02*
X-2868508Y-4124008D01*
X-2868508Y-4124008D02*
X-2849461Y-4095436D01*
X-2849461Y-4095436D02*
X-2839937Y-4085912D01*
X-2773270Y-4133531D02*
X-2763747Y-4124008D01*
X-2763747Y-4124008D02*
X-2744699Y-4114484D01*
X-2744699Y-4114484D02*
X-2697080Y-4114484D01*
X-2697080Y-4114484D02*
X-2678032Y-4124008D01*
X-2678032Y-4124008D02*
X-2668509Y-4133531D01*
X-2668509Y-4133531D02*
X-2658985Y-4152579D01*
X-2658985Y-4152579D02*
X-2658985Y-4171627D01*
X-2658985Y-4171627D02*
X-2668509Y-4200198D01*
X-2668509Y-4200198D02*
X-2782794Y-4314484D01*
X-2782794Y-4314484D02*
X-2658985Y-4314484D01*
X-2487556Y-4181150D02*
X-2487556Y-4314484D01*
X-2535175Y-4104960D02*
X-2582794Y-4247817D01*
X-2582794Y-4247817D02*
X-2458985Y-4247817D01*
X-2230413Y-4314484D02*
X-2230413Y-4114484D01*
X-2144699Y-4314484D02*
X-2144699Y-4209722D01*
X-2144699Y-4209722D02*
X-2154223Y-4190674D01*
X-2154223Y-4190674D02*
X-2173270Y-4181150D01*
X-2173270Y-4181150D02*
X-2201842Y-4181150D01*
X-2201842Y-4181150D02*
X-2220889Y-4190674D01*
X-2220889Y-4190674D02*
X-2230413Y-4200198D01*
X-2020889Y-4314484D02*
X-2039937Y-4304960D01*
X-2039937Y-4304960D02*
X-2049461Y-4295436D01*
X-2049461Y-4295436D02*
X-2058985Y-4276389D01*
X-2058985Y-4276389D02*
X-2058985Y-4219246D01*
X-2058985Y-4219246D02*
X-2049461Y-4200198D01*
X-2049461Y-4200198D02*
X-2039937Y-4190674D01*
X-2039937Y-4190674D02*
X-2020889Y-4181150D01*
X-2020889Y-4181150D02*
X-1992318Y-4181150D01*
X-1992318Y-4181150D02*
X-1973270Y-4190674D01*
X-1973270Y-4190674D02*
X-1963746Y-4200198D01*
X-1963746Y-4200198D02*
X-1954223Y-4219246D01*
X-1954223Y-4219246D02*
X-1954223Y-4276389D01*
X-1954223Y-4276389D02*
X-1963746Y-4295436D01*
X-1963746Y-4295436D02*
X-1973270Y-4304960D01*
X-1973270Y-4304960D02*
X-1992318Y-4314484D01*
X-1992318Y-4314484D02*
X-2020889Y-4314484D01*
X-1839937Y-4314484D02*
X-1858985Y-4304960D01*
X-1858985Y-4304960D02*
X-1868508Y-4285912D01*
X-1868508Y-4285912D02*
X-1868508Y-4114484D01*
X-1687556Y-4304960D02*
X-1706604Y-4314484D01*
X-1706604Y-4314484D02*
X-1744699Y-4314484D01*
X-1744699Y-4314484D02*
X-1763746Y-4304960D01*
X-1763746Y-4304960D02*
X-1773270Y-4285912D01*
X-1773270Y-4285912D02*
X-1773270Y-4209722D01*
X-1773270Y-4209722D02*
X-1763746Y-4190674D01*
X-1763746Y-4190674D02*
X-1744699Y-4181150D01*
X-1744699Y-4181150D02*
X-1706604Y-4181150D01*
X-1706604Y-4181150D02*
X-1687556Y-4190674D01*
X-1687556Y-4190674D02*
X-1678032Y-4209722D01*
X-1678032Y-4209722D02*
X-1678032Y-4228770D01*
X-1678032Y-4228770D02*
X-1773270Y-4247817D01*
X-1601842Y-4304960D02*
X-1582794Y-4314484D01*
X-1582794Y-4314484D02*
X-1544699Y-4314484D01*
X-1544699Y-4314484D02*
X-1525651Y-4304960D01*
X-1525651Y-4304960D02*
X-1516127Y-4285912D01*
X-1516127Y-4285912D02*
X-1516127Y-4276389D01*
X-1516127Y-4276389D02*
X-1525651Y-4257341D01*
X-1525651Y-4257341D02*
X-1544699Y-4247817D01*
X-1544699Y-4247817D02*
X-1573270Y-4247817D01*
X-1573270Y-4247817D02*
X-1592318Y-4238293D01*
X-1592318Y-4238293D02*
X-1601842Y-4219246D01*
X-1601842Y-4219246D02*
X-1601842Y-4209722D01*
X-1601842Y-4209722D02*
X-1592318Y-4190674D01*
X-1592318Y-4190674D02*
X-1573270Y-4181150D01*
X-1573270Y-4181150D02*
X-1544699Y-4181150D01*
X-1544699Y-4181150D02*
X-1525651Y-4190674D01*
X-1449461Y-4390674D02*
X-1439937Y-4381150D01*
X-1439937Y-4381150D02*
X-1420889Y-4352579D01*
X-1420889Y-4352579D02*
X-1411365Y-4333531D01*
X-1411365Y-4333531D02*
X-1401842Y-4304960D01*
X-1401842Y-4304960D02*
X-1392318Y-4257341D01*
X-1392318Y-4257341D02*
X-1392318Y-4219246D01*
X-1392318Y-4219246D02*
X-1401842Y-4171627D01*
X-1401842Y-4171627D02*
X-1411365Y-4143055D01*
X-1411365Y-4143055D02*
X-1420889Y-4124008D01*
X-1420889Y-4124008D02*
X-1439937Y-4095436D01*
X-1439937Y-4095436D02*
X-1449461Y-4085912D01*
X-6444289Y-4598711D02*
X-6444289Y-4457289D01*
X-6585711Y-4457289D01*
X-6585711Y-4598711D01*
X-6444289Y-4598711D01*
X-6163747Y-4438531D02*
X-6154223Y-4429008D01*
X-6154223Y-4429008D02*
X-6135175Y-4419484D01*
X-6135175Y-4419484D02*
X-6087556Y-4419484D01*
X-6087556Y-4419484D02*
X-6068509Y-4429008D01*
X-6068509Y-4429008D02*
X-6058985Y-4438531D01*
X-6058985Y-4438531D02*
X-6049461Y-4457579D01*
X-6049461Y-4457579D02*
X-6049461Y-4476627D01*
X-6049461Y-4476627D02*
X-6058985Y-4505198D01*
X-6058985Y-4505198D02*
X-6173271Y-4619484D01*
X-6173271Y-4619484D02*
X-6049461Y-4619484D01*
X-5963747Y-4600436D02*
X-5954223Y-4609960D01*
X-5954223Y-4609960D02*
X-5963747Y-4619484D01*
X-5963747Y-4619484D02*
X-5973271Y-4609960D01*
X-5973271Y-4609960D02*
X-5963747Y-4600436D01*
X-5963747Y-4600436D02*
X-5963747Y-4619484D01*
X-5887556Y-4419484D02*
X-5754223Y-4419484D01*
X-5754223Y-4419484D02*
X-5839937Y-4619484D01*
X-5639937Y-4419484D02*
X-5620890Y-4419484D01*
X-5620890Y-4419484D02*
X-5601842Y-4429008D01*
X-5601842Y-4429008D02*
X-5592318Y-4438531D01*
X-5592318Y-4438531D02*
X-5582795Y-4457579D01*
X-5582795Y-4457579D02*
X-5573271Y-4495674D01*
X-5573271Y-4495674D02*
X-5573271Y-4543293D01*
X-5573271Y-4543293D02*
X-5582795Y-4581389D01*
X-5582795Y-4581389D02*
X-5592318Y-4600436D01*
X-5592318Y-4600436D02*
X-5601842Y-4609960D01*
X-5601842Y-4609960D02*
X-5620890Y-4619484D01*
X-5620890Y-4619484D02*
X-5639937Y-4619484D01*
X-5639937Y-4619484D02*
X-5658985Y-4609960D01*
X-5658985Y-4609960D02*
X-5668509Y-4600436D01*
X-5668509Y-4600436D02*
X-5678033Y-4581389D01*
X-5678033Y-4581389D02*
X-5687556Y-4543293D01*
X-5687556Y-4543293D02*
X-5687556Y-4495674D01*
X-5687556Y-4495674D02*
X-5678033Y-4457579D01*
X-5678033Y-4457579D02*
X-5668509Y-4438531D01*
X-5668509Y-4438531D02*
X-5658985Y-4429008D01*
X-5658985Y-4429008D02*
X-5639937Y-4419484D01*
X-5449461Y-4419484D02*
X-5430414Y-4419484D01*
X-5430414Y-4419484D02*
X-5411366Y-4429008D01*
X-5411366Y-4429008D02*
X-5401842Y-4438531D01*
X-5401842Y-4438531D02*
X-5392318Y-4457579D01*
X-5392318Y-4457579D02*
X-5382795Y-4495674D01*
X-5382795Y-4495674D02*
X-5382795Y-4543293D01*
X-5382795Y-4543293D02*
X-5392318Y-4581389D01*
X-5392318Y-4581389D02*
X-5401842Y-4600436D01*
X-5401842Y-4600436D02*
X-5411366Y-4609960D01*
X-5411366Y-4609960D02*
X-5430414Y-4619484D01*
X-5430414Y-4619484D02*
X-5449461Y-4619484D01*
X-5449461Y-4619484D02*
X-5468509Y-4609960D01*
X-5468509Y-4609960D02*
X-5478033Y-4600436D01*
X-5478033Y-4600436D02*
X-5487556Y-4581389D01*
X-5487556Y-4581389D02*
X-5497080Y-4543293D01*
X-5497080Y-4543293D02*
X-5497080Y-4495674D01*
X-5497080Y-4495674D02*
X-5487556Y-4457579D01*
X-5487556Y-4457579D02*
X-5478033Y-4438531D01*
X-5478033Y-4438531D02*
X-5468509Y-4429008D01*
X-5468509Y-4429008D02*
X-5449461Y-4419484D01*
X-5297080Y-4619484D02*
X-5297080Y-4486150D01*
X-5297080Y-4505198D02*
X-5287556Y-4495674D01*
X-5287556Y-4495674D02*
X-5268509Y-4486150D01*
X-5268509Y-4486150D02*
X-5239937Y-4486150D01*
X-5239937Y-4486150D02*
X-5220890Y-4495674D01*
X-5220890Y-4495674D02*
X-5211366Y-4514722D01*
X-5211366Y-4514722D02*
X-5211366Y-4619484D01*
X-5211366Y-4514722D02*
X-5201842Y-4495674D01*
X-5201842Y-4495674D02*
X-5182795Y-4486150D01*
X-5182795Y-4486150D02*
X-5154223Y-4486150D01*
X-5154223Y-4486150D02*
X-5135175Y-4495674D01*
X-5135175Y-4495674D02*
X-5125652Y-4514722D01*
X-5125652Y-4514722D02*
X-5125652Y-4619484D01*
X-5030414Y-4619484D02*
X-5030414Y-4486150D01*
X-5030414Y-4505198D02*
X-5020890Y-4495674D01*
X-5020890Y-4495674D02*
X-5001842Y-4486150D01*
X-5001842Y-4486150D02*
X-4973271Y-4486150D01*
X-4973271Y-4486150D02*
X-4954223Y-4495674D01*
X-4954223Y-4495674D02*
X-4944699Y-4514722D01*
X-4944699Y-4514722D02*
X-4944699Y-4619484D01*
X-4944699Y-4514722D02*
X-4935175Y-4495674D01*
X-4935175Y-4495674D02*
X-4916128Y-4486150D01*
X-4916128Y-4486150D02*
X-4887556Y-4486150D01*
X-4887556Y-4486150D02*
X-4868509Y-4495674D01*
X-4868509Y-4495674D02*
X-4858985Y-4514722D01*
X-4858985Y-4514722D02*
X-4858985Y-4619484D01*
X-4468509Y-4409960D02*
X-4639937Y-4667103D01*
X-4211366Y-4419484D02*
X-4192318Y-4419484D01*
X-4192318Y-4419484D02*
X-4173270Y-4429008D01*
X-4173270Y-4429008D02*
X-4163747Y-4438531D01*
X-4163747Y-4438531D02*
X-4154223Y-4457579D01*
X-4154223Y-4457579D02*
X-4144699Y-4495674D01*
X-4144699Y-4495674D02*
X-4144699Y-4543293D01*
X-4144699Y-4543293D02*
X-4154223Y-4581389D01*
X-4154223Y-4581389D02*
X-4163747Y-4600436D01*
X-4163747Y-4600436D02*
X-4173270Y-4609960D01*
X-4173270Y-4609960D02*
X-4192318Y-4619484D01*
X-4192318Y-4619484D02*
X-4211366Y-4619484D01*
X-4211366Y-4619484D02*
X-4230413Y-4609960D01*
X-4230413Y-4609960D02*
X-4239937Y-4600436D01*
X-4239937Y-4600436D02*
X-4249461Y-4581389D01*
X-4249461Y-4581389D02*
X-4258985Y-4543293D01*
X-4258985Y-4543293D02*
X-4258985Y-4495674D01*
X-4258985Y-4495674D02*
X-4249461Y-4457579D01*
X-4249461Y-4457579D02*
X-4239937Y-4438531D01*
X-4239937Y-4438531D02*
X-4230413Y-4429008D01*
X-4230413Y-4429008D02*
X-4211366Y-4419484D01*
X-4058985Y-4600436D02*
X-4049461Y-4609960D01*
X-4049461Y-4609960D02*
X-4058985Y-4619484D01*
X-4058985Y-4619484D02*
X-4068509Y-4609960D01*
X-4068509Y-4609960D02*
X-4058985Y-4600436D01*
X-4058985Y-4600436D02*
X-4058985Y-4619484D01*
X-3858985Y-4619484D02*
X-3973270Y-4619484D01*
X-3916128Y-4619484D02*
X-3916128Y-4419484D01*
X-3916128Y-4419484D02*
X-3935175Y-4448055D01*
X-3935175Y-4448055D02*
X-3954223Y-4467103D01*
X-3954223Y-4467103D02*
X-3973270Y-4476627D01*
X-3735175Y-4419484D02*
X-3716128Y-4419484D01*
X-3716128Y-4419484D02*
X-3697080Y-4429008D01*
X-3697080Y-4429008D02*
X-3687556Y-4438531D01*
X-3687556Y-4438531D02*
X-3678032Y-4457579D01*
X-3678032Y-4457579D02*
X-3668509Y-4495674D01*
X-3668509Y-4495674D02*
X-3668509Y-4543293D01*
X-3668509Y-4543293D02*
X-3678032Y-4581389D01*
X-3678032Y-4581389D02*
X-3687556Y-4600436D01*
X-3687556Y-4600436D02*
X-3697080Y-4609960D01*
X-3697080Y-4609960D02*
X-3716128Y-4619484D01*
X-3716128Y-4619484D02*
X-3735175Y-4619484D01*
X-3735175Y-4619484D02*
X-3754223Y-4609960D01*
X-3754223Y-4609960D02*
X-3763747Y-4600436D01*
X-3763747Y-4600436D02*
X-3773270Y-4581389D01*
X-3773270Y-4581389D02*
X-3782794Y-4543293D01*
X-3782794Y-4543293D02*
X-3782794Y-4495674D01*
X-3782794Y-4495674D02*
X-3773270Y-4457579D01*
X-3773270Y-4457579D02*
X-3763747Y-4438531D01*
X-3763747Y-4438531D02*
X-3754223Y-4429008D01*
X-3754223Y-4429008D02*
X-3735175Y-4419484D01*
X-3497080Y-4419484D02*
X-3535175Y-4419484D01*
X-3535175Y-4419484D02*
X-3554223Y-4429008D01*
X-3554223Y-4429008D02*
X-3563747Y-4438531D01*
X-3563747Y-4438531D02*
X-3582794Y-4467103D01*
X-3582794Y-4467103D02*
X-3592318Y-4505198D01*
X-3592318Y-4505198D02*
X-3592318Y-4581389D01*
X-3592318Y-4581389D02*
X-3582794Y-4600436D01*
X-3582794Y-4600436D02*
X-3573270Y-4609960D01*
X-3573270Y-4609960D02*
X-3554223Y-4619484D01*
X-3554223Y-4619484D02*
X-3516128Y-4619484D01*
X-3516128Y-4619484D02*
X-3497080Y-4609960D01*
X-3497080Y-4609960D02*
X-3487556Y-4600436D01*
X-3487556Y-4600436D02*
X-3478032Y-4581389D01*
X-3478032Y-4581389D02*
X-3478032Y-4533770D01*
X-3478032Y-4533770D02*
X-3487556Y-4514722D01*
X-3487556Y-4514722D02*
X-3497080Y-4505198D01*
X-3497080Y-4505198D02*
X-3516128Y-4495674D01*
X-3516128Y-4495674D02*
X-3554223Y-4495674D01*
X-3554223Y-4495674D02*
X-3573270Y-4505198D01*
X-3573270Y-4505198D02*
X-3582794Y-4514722D01*
X-3582794Y-4514722D02*
X-3592318Y-4533770D01*
X-3411366Y-4419484D02*
X-3287556Y-4419484D01*
X-3287556Y-4419484D02*
X-3354223Y-4495674D01*
X-3354223Y-4495674D02*
X-3325651Y-4495674D01*
X-3325651Y-4495674D02*
X-3306604Y-4505198D01*
X-3306604Y-4505198D02*
X-3297080Y-4514722D01*
X-3297080Y-4514722D02*
X-3287556Y-4533770D01*
X-3287556Y-4533770D02*
X-3287556Y-4581389D01*
X-3287556Y-4581389D02*
X-3297080Y-4600436D01*
X-3297080Y-4600436D02*
X-3306604Y-4609960D01*
X-3306604Y-4609960D02*
X-3325651Y-4619484D01*
X-3325651Y-4619484D02*
X-3382794Y-4619484D01*
X-3382794Y-4619484D02*
X-3401842Y-4609960D01*
X-3401842Y-4609960D02*
X-3411366Y-4600436D01*
X-3211366Y-4419484D02*
X-3211366Y-4457579D01*
X-3135175Y-4419484D02*
X-3135175Y-4457579D01*
X-2839937Y-4695674D02*
X-2849461Y-4686150D01*
X-2849461Y-4686150D02*
X-2868508Y-4657579D01*
X-2868508Y-4657579D02*
X-2878032Y-4638531D01*
X-2878032Y-4638531D02*
X-2887556Y-4609960D01*
X-2887556Y-4609960D02*
X-2897080Y-4562341D01*
X-2897080Y-4562341D02*
X-2897080Y-4524246D01*
X-2897080Y-4524246D02*
X-2887556Y-4476627D01*
X-2887556Y-4476627D02*
X-2878032Y-4448055D01*
X-2878032Y-4448055D02*
X-2868508Y-4429008D01*
X-2868508Y-4429008D02*
X-2849461Y-4400436D01*
X-2849461Y-4400436D02*
X-2839937Y-4390912D01*
X-2773270Y-4438531D02*
X-2763747Y-4429008D01*
X-2763747Y-4429008D02*
X-2744699Y-4419484D01*
X-2744699Y-4419484D02*
X-2697080Y-4419484D01*
X-2697080Y-4419484D02*
X-2678032Y-4429008D01*
X-2678032Y-4429008D02*
X-2668509Y-4438531D01*
X-2668509Y-4438531D02*
X-2658985Y-4457579D01*
X-2658985Y-4457579D02*
X-2658985Y-4476627D01*
X-2658985Y-4476627D02*
X-2668509Y-4505198D01*
X-2668509Y-4505198D02*
X-2782794Y-4619484D01*
X-2782794Y-4619484D02*
X-2658985Y-4619484D01*
X-2420889Y-4619484D02*
X-2420889Y-4419484D01*
X-2335175Y-4619484D02*
X-2335175Y-4514722D01*
X-2335175Y-4514722D02*
X-2344699Y-4495674D01*
X-2344699Y-4495674D02*
X-2363747Y-4486150D01*
X-2363747Y-4486150D02*
X-2392318Y-4486150D01*
X-2392318Y-4486150D02*
X-2411366Y-4495674D01*
X-2411366Y-4495674D02*
X-2420889Y-4505198D01*
X-2211366Y-4619484D02*
X-2230413Y-4609960D01*
X-2230413Y-4609960D02*
X-2239937Y-4600436D01*
X-2239937Y-4600436D02*
X-2249461Y-4581389D01*
X-2249461Y-4581389D02*
X-2249461Y-4524246D01*
X-2249461Y-4524246D02*
X-2239937Y-4505198D01*
X-2239937Y-4505198D02*
X-2230413Y-4495674D01*
X-2230413Y-4495674D02*
X-2211366Y-4486150D01*
X-2211366Y-4486150D02*
X-2182794Y-4486150D01*
X-2182794Y-4486150D02*
X-2163747Y-4495674D01*
X-2163747Y-4495674D02*
X-2154223Y-4505198D01*
X-2154223Y-4505198D02*
X-2144699Y-4524246D01*
X-2144699Y-4524246D02*
X-2144699Y-4581389D01*
X-2144699Y-4581389D02*
X-2154223Y-4600436D01*
X-2154223Y-4600436D02*
X-2163747Y-4609960D01*
X-2163747Y-4609960D02*
X-2182794Y-4619484D01*
X-2182794Y-4619484D02*
X-2211366Y-4619484D01*
X-2030413Y-4619484D02*
X-2049461Y-4609960D01*
X-2049461Y-4609960D02*
X-2058985Y-4590912D01*
X-2058985Y-4590912D02*
X-2058985Y-4419484D01*
X-1878032Y-4609960D02*
X-1897080Y-4619484D01*
X-1897080Y-4619484D02*
X-1935175Y-4619484D01*
X-1935175Y-4619484D02*
X-1954223Y-4609960D01*
X-1954223Y-4609960D02*
X-1963746Y-4590912D01*
X-1963746Y-4590912D02*
X-1963746Y-4514722D01*
X-1963746Y-4514722D02*
X-1954223Y-4495674D01*
X-1954223Y-4495674D02*
X-1935175Y-4486150D01*
X-1935175Y-4486150D02*
X-1897080Y-4486150D01*
X-1897080Y-4486150D02*
X-1878032Y-4495674D01*
X-1878032Y-4495674D02*
X-1868508Y-4514722D01*
X-1868508Y-4514722D02*
X-1868508Y-4533770D01*
X-1868508Y-4533770D02*
X-1963746Y-4552817D01*
X-1792318Y-4609960D02*
X-1773270Y-4619484D01*
X-1773270Y-4619484D02*
X-1735175Y-4619484D01*
X-1735175Y-4619484D02*
X-1716127Y-4609960D01*
X-1716127Y-4609960D02*
X-1706604Y-4590912D01*
X-1706604Y-4590912D02*
X-1706604Y-4581389D01*
X-1706604Y-4581389D02*
X-1716127Y-4562341D01*
X-1716127Y-4562341D02*
X-1735175Y-4552817D01*
X-1735175Y-4552817D02*
X-1763746Y-4552817D01*
X-1763746Y-4552817D02*
X-1782794Y-4543293D01*
X-1782794Y-4543293D02*
X-1792318Y-4524246D01*
X-1792318Y-4524246D02*
X-1792318Y-4514722D01*
X-1792318Y-4514722D02*
X-1782794Y-4495674D01*
X-1782794Y-4495674D02*
X-1763746Y-4486150D01*
X-1763746Y-4486150D02*
X-1735175Y-4486150D01*
X-1735175Y-4486150D02*
X-1716127Y-4495674D01*
X-1639937Y-4695674D02*
X-1630413Y-4686150D01*
X-1630413Y-4686150D02*
X-1611365Y-4657579D01*
X-1611365Y-4657579D02*
X-1601842Y-4638531D01*
X-1601842Y-4638531D02*
X-1592318Y-4609960D01*
X-1592318Y-4609960D02*
X-1582794Y-4562341D01*
X-1582794Y-4562341D02*
X-1582794Y-4524246D01*
X-1582794Y-4524246D02*
X-1592318Y-4476627D01*
X-1592318Y-4476627D02*
X-1601842Y-4448055D01*
X-1601842Y-4448055D02*
X-1611365Y-4429008D01*
X-1611365Y-4429008D02*
X-1630413Y-4400436D01*
X-1630413Y-4400436D02*
X-1639937Y-4390912D01*
M02*
