M48
; DRILL file {KiCad 8.0.5} date 2024-10-26T01:08:58+0100
; FORMAT={-:-/ absolute / inch / decimal}
; #@! TF.CreationDate,2024-10-26T01:08:58+01:00
; #@! TF.GenerationSoftware,Kicad,Pcbnew,8.0.5
; #@! TF.FileFunction,Plated,1,2,PTH
FMAT,2
INCH
; #@! TA.AperFunction,Plated,PTH,ViaDrill
T1C0.0157
; #@! TA.AperFunction,Plated,PTH,ComponentDrill
T2C0.0394
; #@! TA.AperFunction,Plated,PTH,ComponentDrill
T3C0.0728
; #@! TA.AperFunction,Plated,PTH,ComponentDrill
T4C0.1063
%
G90
G05
T1
X-2.4882Y1.0846
X-2.4882Y-1.0744
X-2.4874Y-1.0016
X-2.4866Y1.0031
X-2.3996Y0.1378
X-2.3953Y-1.0051
X-2.3917Y1.1654
X-2.3902Y1.0016
X-2.3677Y-1.1642
X-2.3091Y1.1654
X-2.3047Y0.135
X-2.2909Y-1.165
X-2.2335Y1.163
X-2.2201Y-1.1638
X-2.1516Y1.1654
X-2.124Y-1.1646
X-2.1181Y-1.0008
X-2.0138Y-0.1654
X-1.9858Y-1.0008
X-1.9756Y-1.1626
X-1.939Y-0.1496
X-1.9382Y-0.3224
X-1.9346Y-0.9504
X-1.9331Y0.6634
X-1.9331Y0.5409
X-1.9323Y-0.7606
X-1.9315Y-0.4547
X-1.9311Y0.8898
X-1.9311Y0.7756
X-1.9311Y0.3937
X-1.9311Y0.2165
X-1.9303Y-0.6102
X-1.9272Y1.1654
X-1.8654Y-1.1642
X-1.8524Y0.2677
X-1.8492Y0.1665
X-1.8307Y1.1654
X-1.8102Y-0.187
X-1.7783Y0.348
X-1.7776Y0.2795
X-1.7768Y0.2083
X-1.7732Y-0.2717
X-1.7728Y0.0681
X-1.7713Y-0.0953
X-1.7382Y0.1665
X-1.7307Y-1.1646
X-1.7283Y1.1654
X-1.6988Y-0.3031
X-1.6949Y-0.1575
X-1.689Y0.3839
X-1.687Y0.0236
X-1.6846Y0.5815
X-1.6614Y0.2854
X-1.6449Y0.4134
X-1.6437Y-0.9213
X-1.6358Y1.1654
X-1.5909Y-1.1654
X-1.5894Y0.8315
X-1.5783Y0.5831
X-1.5374Y1.1634
X-1.5354Y-0.5217
X-1.5295Y0.2323
X-1.5189Y0.2949
X-1.4933Y-0.387
X-1.4835Y-0.2508
X-1.4697Y0.5827
X-1.4614Y-1.1646
X-1.4409Y1.1654
X-1.4354Y0.8366
X-1.3858Y-0.3744
X-1.3799Y-0.252
X-1.3642Y0.5748
X-1.3429Y-0.4772
X-1.3417Y-1.1654
X-1.3287Y1.1654
X-1.3012Y-0.25
X-1.2976Y-0.3906
X-1.2776Y0.2008
X-1.2776Y0.1299
X-1.2776Y-0.0866
X-1.2736Y0.0551
X-1.2681Y0.5724
X-1.2441Y-0.8858
X-1.2421Y-0.7461
X-1.2185Y1.1654
X-1.1988Y0.4488
X-1.1988Y0.3031
X-1.1929Y-1.1654
X-1.1909Y0.3701
X-1.1472Y0.5846
X-1.1252Y0.7465
X-1.0984Y1.1654
X-1.0571Y-1.1654
X-1.0138Y0.6299
X-1.0094Y0.9059
X-0.9764Y1.1654
X-0.9339Y0.4169
X-0.9114Y0.9248
X-0.9063Y-1.1642
X-0.9055Y-0.2185
X-0.8874Y0.3035
X-0.8839Y0.6299
X-0.8543Y1.1654
X-0.8516Y1.039
X-0.8209Y0.3031
X-0.8169Y0.4449
X-0.7594Y-1.165
X-0.7382Y1.1654
X-0.6819Y1.0417
X-0.6555Y0.315
X-0.6551Y0.7417
X-0.6319Y0.5299
X-0.6063Y1.1654
X-0.6035Y-1.1642
X-0.5531Y1.0315
X-0.5453Y0.315
X-0.5295Y0.8031
X-0.4819Y0.5315
X-0.4724Y1.1654
X-0.4571Y-1.1646
X-0.435Y0.315
X-0.3543Y-0.3736
X-0.3406Y0.5291
X-0.3366Y-0.2992
X-0.3327Y1.1654
X-0.3248Y0.315
X-0.2992Y1.0335
X-0.2957Y-1.1646
X-0.2382Y0.5315
X-0.2366Y0.3154
X-0.2363Y0.2616
X-0.2363Y0.2025
X-0.2363Y0.1435
X-0.2363Y0.0844
X-0.2363Y0.0254
X-0.2363Y-0.0337
X-0.1917Y-0.7465
X-0.1909Y-0.8598
X-0.187Y-0.5906
X-0.1516Y0.5315
X-0.148Y0.3154
X-0.1406Y-1.1654
X-0.1299Y0.8504
X-0.129Y0.2519
X-0.1177Y-0.5083
X-0.1043Y1.1654
X-0.0693Y0.3154
X-0.0638Y-0.6035
X-0.0634Y0.5283
X-0.0195Y0.8644
X-0.0109Y0.2003
X-0.002Y1.1614
X-0.0008Y-1.1654
X-0.0004Y0.3154
X0.0Y-0.3748
X0.0335Y-0.3071
X0.0394Y0.9232
X0.0413Y0.5315
X0.06Y0.0038
X0.06Y-0.0355
X0.06Y-0.0789
X0.0657Y-0.6047
X0.0783Y0.3154
X0.0906Y1.1654
X0.1033Y0.0038
X0.1033Y-0.0355
X0.1033Y-0.0789
X0.1047Y0.976
X0.124Y0.7461
X0.1307Y0.5291
X0.1348Y0.1987
X0.1466Y0.0038
X0.1466Y-0.0355
X0.1466Y-0.0789
X0.1472Y0.3154
X0.1744Y-1.1654
X0.1791Y-0.5945
X0.1839Y-0.8307
X0.1846Y-0.9677
X0.1858Y-0.7539
X0.1899Y0.0038
X0.1899Y-0.0355
X0.1899Y-0.0789
X0.2161Y0.3154
X0.2193Y0.5311
X0.2332Y0.0038
X0.2332Y-0.0355
X0.2332Y-0.0789
X0.2677Y0.8406
X0.2744Y0.276
X0.2933Y-0.8681
X0.2965Y0.5287
X0.311Y1.1654
X0.3134Y0.2398
X0.3268Y-0.685
X0.3303Y-0.1469
X0.3386Y-1.1646
X0.3543Y-0.3744
X0.3563Y-0.2953
X0.3657Y-0.0949
X0.3803Y0.4504
X0.4114Y0.4173
X0.4547Y1.1654
X0.4547Y-0.1969
X0.4638Y0.598
X0.4669Y0.3677
X0.4866Y-1.165
X0.498Y-0.685
X0.498Y-0.8681
X0.5075Y0.3236
X0.5098Y0.8858
X0.5295Y-0.2677
X0.5335Y0.5512
X0.539Y0.2465
X0.5402Y0.1736
X0.5437Y0.6567
X0.5437Y0.0461
X0.5945Y1.1654
X0.6004Y-0.3425
X0.6012Y-0.4295
X0.6217Y-0.0839
X0.6228Y-1.165
X0.6437Y0.6496
X0.6437Y0.5512
X0.6642Y-0.4268
X0.6752Y-0.6181
X0.6752Y-0.685
X0.6752Y-0.9488
X0.6772Y-0.8681
X0.6799Y-0.1476
X0.7283Y-0.1945
X0.7406Y0.5512
X0.7421Y0.6575
X0.7768Y-0.348
X0.7815Y1.1654
X0.7858Y-1.1642
X0.7961Y-0.1953
X0.8421Y1.0512
X0.8642Y0.9472
X0.8642Y-0.689
X0.8661Y0.0492
X0.8661Y-0.8681
X0.8787Y-0.4441
X0.8823Y0.6469
X0.8835Y0.5638
X0.8894Y-0.1949
X0.9327Y-0.3594
X0.937Y1.1654
X0.9402Y0.5654
X0.9803Y-1.165
X1.0035Y0.5622
X1.022Y-0.3301
X1.0724Y-0.4417
X1.0768Y1.1654
X1.0846Y0.6488
X1.0846Y-0.689
X1.0846Y-0.8681
X1.0874Y-0.263
X1.0882Y0.5693
X1.1193Y-0.3539
X1.122Y-0.035
X1.1506Y0.6537
X1.1752Y-1.1654
X1.189Y0.3976
X1.1996Y0.0425
X1.2028Y1.1654
X1.2307Y-0.4421
X1.2382Y0.5827
X1.2421Y-0.689
X1.248Y-0.8661
X1.2638Y0.3957
X1.2894Y0.5827
X1.3094Y0.15
X1.3118Y-0.4402
X1.3146Y-1.1646
X1.3157Y-0.0866
X1.3291Y-0.3413
X1.3346Y0.3937
X1.3406Y0.5846
X1.3425Y1.1654
X1.3465Y0.8051
X1.3484Y0.998
X1.3484Y0.8976
X1.3957Y-0.6929
X1.3976Y-0.8661
X1.4079Y-0.0094
X1.4094Y0.5827
X1.4626Y0.2874
X1.4744Y0.4114
X1.4921Y-1.165
X1.4961Y1.1654
X1.5059Y-0.222
X1.5063Y-0.3909
X1.5315Y0.4626
X1.5732Y-0.4264
X1.5965Y0.4626
X1.6122Y1.1654
X1.6299Y-0.8681
X1.6319Y-0.689
X1.6531Y-0.2224
X1.6555Y0.3642
X1.6575Y0.4626
X1.6591Y-1.0413
X1.674Y-1.1654
X1.6811Y0.1618
X1.6831Y-0.0079
X1.7142Y-0.8728
X1.7165Y0.3642
X1.7185Y0.4626
X1.7382Y-0.689
X1.7638Y1.1654
X1.7756Y0.3661
X1.7776Y0.4626
X1.7961Y-0.0075
X1.7972Y0.1622
X1.7972Y-1.0323
X1.8161Y-0.8252
X1.8173Y-0.7449
X1.8346Y0.3642
X1.8366Y0.4606
X1.8528Y-1.1654
X1.8976Y0.4606
X1.8976Y0.3642
X1.911Y-0.0087
X1.9165Y0.1622
X1.9521Y1.0821
X1.9521Y1.023
X1.9521Y0.9049
X1.9521Y0.8459
X1.9521Y0.7868
X1.9521Y0.7277
X1.9521Y0.6687
X1.9521Y0.6096
X1.9521Y0.5506
X1.9528Y1.1555
X1.9528Y0.4626
X1.9547Y0.3622
X1.9547Y0.2795
X2.0059Y0.4232
X2.0547Y-0.9988
X2.0579Y-0.1827
X2.061Y-1.1654
X2.0846Y0.2835
X2.0846Y-0.135
X2.0862Y-0.0756
X2.1004Y0.6367
X2.1142Y-1.0717
X2.1386Y-0.0047
X2.1583Y-0.1839
X2.1594Y-0.8201
X2.1791Y0.2835
X2.2776Y0.2835
X2.2858Y-1.1654
X2.3539Y-0.8307
X2.3697Y-1.024
X2.372Y0.2835
X2.3957Y-1.1642
X2.4189Y-1.1047
X2.4626Y0.2835
X2.4862Y-0.3661
X2.4866Y0.078
X2.4866Y-0.0012
X2.487Y-0.0776
X2.4874Y-0.1776
X2.4874Y-1.028
X2.4878Y-0.8331
X2.4882Y0.1811
T2
X-2.4016Y0.2165
X-2.4016Y-0.2165
X-2.3016Y1.0827
X-2.3016Y0.2165
X-2.3016Y-1.0827
X-2.3016Y-0.2165
X-2.2016Y0.2165
X-2.2016Y1.0827
X-2.2016Y-0.2165
X-2.2016Y-1.0827
X-2.1016Y0.2165
X-2.1016Y-0.2165
X2.0295Y0.2165
X2.1295Y0.2165
X2.2295Y0.2165
X2.3295Y0.2165
T3
X-1.5354Y1.0006
X-1.5354Y0.7006
X-1.5354Y-0.6195
X-1.5354Y-0.9195
X-0.9646Y1.0006
X-0.9646Y0.7006
X-0.9646Y-0.6195
X-0.9646Y-0.9195
X-0.3937Y1.0006
X-0.3937Y0.7006
X-0.3937Y-0.6195
X-0.3937Y-0.9195
X0.3937Y1.0003
X0.3937Y0.7003
X0.3937Y-0.6198
X0.3937Y-0.9198
X0.9646Y0.9967
X0.9646Y0.6967
X0.9646Y-0.6234
X0.9646Y-0.9234
X1.5354Y0.9967
X1.5354Y0.6967
X1.5354Y-0.6234
X1.5354Y-0.9234
T4
X-2.3622Y0.0
X2.3622Y0.0
M30
