%TF.GenerationSoftware,KiCad,Pcbnew,8.0.5*%
%TF.CreationDate,2024-10-04T15:08:37+01:00*%
%TF.ProjectId,V3,56332e6b-6963-4616-945f-706362585858,rev?*%
%TF.SameCoordinates,Original*%
%TF.FileFunction,Drillmap*%
%TF.FilePolarity,Positive*%
%FSLAX45Y45*%
G04 Gerber Fmt 4.5, Leading zero omitted, Abs format (unit mm)*
G04 Created by KiCad (PCBNEW 8.0.5) date 2024-10-04 15:08:37*
%MOMM*%
%LPD*%
G01*
G04 APERTURE LIST*
%ADD10C,0.100000*%
%ADD11C,0.200000*%
%ADD12C,0.185000*%
%ADD13C,0.270000*%
G04 APERTURE END LIST*
D10*
X-6410000Y2850000D02*
X6410000Y2850000D01*
X-6410000Y2850000D02*
X-6410000Y2450000D01*
X-6410000Y860000D02*
X-6410000Y-860000D01*
X-5000000Y2350000D02*
X-5000000Y960000D01*
X-5000000Y-960000D02*
X-5000000Y-2350000D01*
X-5000000Y-2350000D02*
G75*
G02*
X-5100000Y-2450000I-100000J0D01*
G01*
X-5000000Y960000D02*
G75*
G02*
X-5100000Y860000I-100000J0D01*
G01*
X-5100000Y-860000D02*
G75*
G02*
X-5000000Y-960000I0J-100000D01*
G01*
X-6410000Y-860000D02*
X-5100000Y-860000D01*
X-6410000Y860000D02*
X-5100000Y860000D01*
X-5100000Y2450000D02*
G75*
G02*
X-5000000Y2350000I0J-100000D01*
G01*
X-6410000Y-2450000D02*
X-5100000Y-2450000D01*
X-6410000Y2450000D02*
X-5100000Y2450000D01*
X-6410000Y-3050000D02*
X6410000Y-3050000D01*
X-6410000Y-3050000D02*
X-6410000Y-2450000D01*
X6410000Y-3050000D02*
X6410000Y2850000D01*
D11*
D10*
X-6332000Y-434000D02*
X-6292000Y-474000D01*
X-6292000Y-434000D02*
X-6332000Y-474000D01*
X-6320000Y370000D02*
X-6280000Y330000D01*
X-6280000Y370000D02*
X-6320000Y330000D01*
X-6308000Y-2828000D02*
X-6268000Y-2868000D01*
X-6268000Y-2828000D02*
X-6308000Y-2868000D01*
X-6114000Y-353000D02*
X-6074000Y-393000D01*
X-6074000Y-353000D02*
X-6114000Y-393000D01*
X-6105000Y-2530000D02*
X-6065000Y-2570000D01*
X-6065000Y-2530000D02*
X-6105000Y-2570000D01*
X-6034000Y-2937000D02*
X-5994000Y-2977000D01*
X-5994000Y-2937000D02*
X-6034000Y-2977000D01*
X-6020000Y370000D02*
X-5980000Y330000D01*
X-5980000Y370000D02*
X-6020000Y330000D01*
X-5715000Y-2939000D02*
X-5675000Y-2979000D01*
X-5675000Y-2939000D02*
X-5715000Y-2979000D01*
X-5565000Y-193000D02*
X-5525000Y-233000D01*
X-5525000Y-193000D02*
X-5565000Y-233000D01*
X-5559000Y248000D02*
X-5519000Y208000D01*
X-5519000Y248000D02*
X-5559000Y208000D01*
X-5435000Y-2938000D02*
X-5395000Y-2978000D01*
X-5395000Y-2938000D02*
X-5435000Y-2978000D01*
X-5153000Y-430000D02*
X-5113000Y-470000D01*
X-5113000Y-430000D02*
X-5153000Y-470000D01*
X-5137000Y-2938000D02*
X-5097000Y-2978000D01*
X-5097000Y-2938000D02*
X-5137000Y-2978000D01*
X-5136000Y-2524000D02*
X-5096000Y-2564000D01*
X-5096000Y-2524000D02*
X-5136000Y-2564000D01*
X-5100000Y2755000D02*
X-5060000Y2715000D01*
X-5060000Y2755000D02*
X-5100000Y2715000D01*
X-5085000Y2590000D02*
X-5045000Y2550000D01*
X-5045000Y2590000D02*
X-5085000Y2550000D01*
X-5050000Y207000D02*
X-5010000Y167000D01*
X-5010000Y207000D02*
X-5050000Y167000D01*
X-4970000Y-302000D02*
X-4930000Y-342000D01*
X-4930000Y-302000D02*
X-4970000Y-342000D01*
X-4943000Y-799000D02*
X-4903000Y-839000D01*
X-4903000Y-799000D02*
X-4943000Y-839000D01*
X-4934000Y-2394000D02*
X-4894000Y-2434000D01*
X-4894000Y-2394000D02*
X-4934000Y-2434000D01*
X-4930000Y1394000D02*
X-4890000Y1354000D01*
X-4890000Y1394000D02*
X-4930000Y1354000D01*
X-4930000Y1020000D02*
X-4890000Y980000D01*
X-4890000Y1020000D02*
X-4930000Y980000D01*
X-4928000Y-1912000D02*
X-4888000Y-1952000D01*
X-4888000Y-1912000D02*
X-4928000Y-1952000D01*
X-4927000Y2262000D02*
X-4887000Y2222000D01*
X-4887000Y2262000D02*
X-4927000Y2222000D01*
X-4927000Y1852000D02*
X-4887000Y1812000D01*
X-4887000Y1852000D02*
X-4927000Y1812000D01*
X-4926000Y-1135000D02*
X-4886000Y-1175000D01*
X-4886000Y-1135000D02*
X-4926000Y-1175000D01*
X-4923000Y-1530000D02*
X-4883000Y-1570000D01*
X-4883000Y-1530000D02*
X-4923000Y-1570000D01*
X-4913000Y614000D02*
X-4873000Y574000D01*
X-4873000Y614000D02*
X-4913000Y574000D01*
X-4840000Y-2938000D02*
X-4800000Y-2978000D01*
X-4800000Y-2938000D02*
X-4840000Y-2978000D01*
X-4823000Y127000D02*
X-4783000Y87000D01*
X-4783000Y127000D02*
X-4823000Y87000D01*
X-4740000Y2777000D02*
X-4700000Y2737000D01*
X-4700000Y2777000D02*
X-4740000Y2737000D01*
X-4445000Y-2440000D02*
X-4405000Y-2480000D01*
X-4405000Y-2440000D02*
X-4445000Y-2480000D01*
X-4425000Y1395000D02*
X-4385000Y1355000D01*
X-4385000Y1395000D02*
X-4425000Y1355000D01*
X-4416000Y-2938000D02*
X-4376000Y-2978000D01*
X-4376000Y-2938000D02*
X-4416000Y-2978000D01*
X-4355000Y-2080000D02*
X-4315000Y-2120000D01*
X-4315000Y-2080000D02*
X-4355000Y-2120000D01*
X-4340000Y2779000D02*
X-4300000Y2739000D01*
X-4300000Y2779000D02*
X-4340000Y2739000D01*
X-4305000Y1110000D02*
X-4265000Y1070000D01*
X-4265000Y1110000D02*
X-4305000Y1070000D01*
X-4305000Y80000D02*
X-4265000Y40000D01*
X-4265000Y80000D02*
X-4305000Y40000D01*
X-4305000Y-320000D02*
X-4265000Y-360000D01*
X-4265000Y-320000D02*
X-4305000Y-360000D01*
X-4285000Y490000D02*
X-4245000Y450000D01*
X-4245000Y490000D02*
X-4285000Y450000D01*
X-4275000Y630000D02*
X-4235000Y590000D01*
X-4235000Y630000D02*
X-4275000Y590000D01*
X-4225000Y740000D02*
X-4185000Y700000D01*
X-4185000Y740000D02*
X-4225000Y700000D01*
X-4205000Y380000D02*
X-4165000Y340000D01*
X-4165000Y380000D02*
X-4205000Y340000D01*
X-4195000Y-1870000D02*
X-4155000Y-1910000D01*
X-4155000Y-1870000D02*
X-4195000Y-1910000D01*
X-4192000Y-1389000D02*
X-4152000Y-1429000D01*
X-4152000Y-1389000D02*
X-4192000Y-1429000D01*
X-4185000Y-460000D02*
X-4145000Y-500000D01*
X-4145000Y-460000D02*
X-4185000Y-500000D01*
X-4115000Y1390000D02*
X-4075000Y1350000D01*
X-4075000Y1390000D02*
X-4115000Y1350000D01*
X-4068000Y-2936000D02*
X-4028000Y-2976000D01*
X-4028000Y-2936000D02*
X-4068000Y-2976000D01*
X-4065000Y-320000D02*
X-4025000Y-360000D01*
X-4025000Y-320000D02*
X-4065000Y-360000D01*
X-4065000Y-2080000D02*
X-4025000Y-2120000D01*
X-4025000Y-2080000D02*
X-4065000Y-2120000D01*
X-3974000Y2779000D02*
X-3934000Y2739000D01*
X-3934000Y2779000D02*
X-3974000Y2739000D01*
X-3928000Y-2419000D02*
X-3888000Y-2459000D01*
X-3888000Y-2419000D02*
X-3928000Y-2459000D01*
X-3915000Y-580000D02*
X-3875000Y-620000D01*
X-3875000Y-580000D02*
X-3915000Y-620000D01*
X-3915000Y-920000D02*
X-3875000Y-960000D01*
X-3875000Y-920000D02*
X-3915000Y-960000D01*
X-3915000Y-1340000D02*
X-3875000Y-1380000D01*
X-3875000Y-1340000D02*
X-3915000Y-1380000D01*
X-3885000Y770000D02*
X-3845000Y730000D01*
X-3845000Y770000D02*
X-3885000Y730000D01*
X-3885000Y650000D02*
X-3845000Y610000D01*
X-3845000Y650000D02*
X-3885000Y610000D01*
X-3885000Y530000D02*
X-3845000Y490000D01*
X-3845000Y530000D02*
X-3885000Y490000D01*
X-3800000Y-2275000D02*
X-3760000Y-2315000D01*
X-3760000Y-2275000D02*
X-3800000Y-2315000D01*
X-3795000Y2320000D02*
X-3755000Y2280000D01*
X-3755000Y2320000D02*
X-3795000Y2280000D01*
X-3755000Y1720000D02*
X-3715000Y1680000D01*
X-3715000Y1720000D02*
X-3755000Y1680000D01*
X-3755000Y1520000D02*
X-3715000Y1480000D01*
X-3715000Y1520000D02*
X-3755000Y1480000D01*
X-3732000Y-2938000D02*
X-3692000Y-2978000D01*
X-3692000Y-2938000D02*
X-3732000Y-2978000D01*
X-3665000Y-2650000D02*
X-3625000Y-2690000D01*
X-3625000Y-2650000D02*
X-3665000Y-2690000D01*
X-3589000Y2779000D02*
X-3549000Y2739000D01*
X-3549000Y2779000D02*
X-3589000Y2739000D01*
X-3570000Y-2185000D02*
X-3530000Y-2225000D01*
X-3530000Y-2185000D02*
X-3570000Y-2225000D01*
X-3438800Y1855000D02*
X-3398800Y1815000D01*
X-3398800Y1855000D02*
X-3438800Y1815000D01*
X-3428000Y-2936000D02*
X-3388000Y-2976000D01*
X-3388000Y-2936000D02*
X-3428000Y-2976000D01*
X-3340000Y-2645000D02*
X-3300000Y-2685000D01*
X-3300000Y-2645000D02*
X-3340000Y-2685000D01*
X-3335000Y-940000D02*
X-3295000Y-980000D01*
X-3295000Y-940000D02*
X-3335000Y-980000D01*
X-3335000Y-1340000D02*
X-3295000Y-1380000D01*
X-3295000Y-1340000D02*
X-3335000Y-1380000D01*
X-3325000Y530000D02*
X-3285000Y490000D01*
X-3285000Y530000D02*
X-3325000Y490000D01*
X-3325000Y340000D02*
X-3285000Y300000D01*
X-3285000Y340000D02*
X-3325000Y300000D01*
X-3325000Y160000D02*
X-3285000Y120000D01*
X-3285000Y160000D02*
X-3325000Y120000D01*
X-3325000Y-200000D02*
X-3285000Y-240000D01*
X-3285000Y-200000D02*
X-3325000Y-240000D01*
X-3325000Y-570000D02*
X-3285000Y-610000D01*
X-3285000Y-570000D02*
X-3325000Y-610000D01*
X-3315000Y870000D02*
X-3275000Y830000D01*
X-3275000Y870000D02*
X-3315000Y830000D01*
X-3285000Y-1660000D02*
X-3245000Y-1700000D01*
X-3245000Y-1660000D02*
X-3285000Y-1700000D01*
X-3285000Y-1790000D02*
X-3245000Y-1830000D01*
X-3245000Y-1790000D02*
X-3285000Y-1830000D01*
X-3280000Y-1960000D02*
X-3240000Y-2000000D01*
X-3240000Y-1960000D02*
X-3280000Y-2000000D01*
X-3265000Y-2110000D02*
X-3225000Y-2150000D01*
X-3225000Y-2110000D02*
X-3265000Y-2150000D01*
X-3255000Y1060000D02*
X-3215000Y1020000D01*
X-3215000Y1060000D02*
X-3255000Y1020000D01*
X-3176000Y2777000D02*
X-3136000Y2737000D01*
X-3136000Y2777000D02*
X-3176000Y2737000D01*
X-3130000Y1530000D02*
X-3090000Y1490000D01*
X-3090000Y1530000D02*
X-3130000Y1490000D01*
X-3095000Y1250000D02*
X-3055000Y1210000D01*
X-3055000Y1250000D02*
X-3095000Y1210000D01*
X-3055000Y-2937000D02*
X-3015000Y-2977000D01*
X-3015000Y-2937000D02*
X-3055000Y-2977000D01*
X-2955000Y2320000D02*
X-2915000Y2280000D01*
X-2915000Y2320000D02*
X-2955000Y2280000D01*
X-2825000Y-2150625D02*
X-2785000Y-2190625D01*
X-2785000Y-2150625D02*
X-2825000Y-2190625D01*
X-2726000Y2777000D02*
X-2686000Y2737000D01*
X-2686000Y2777000D02*
X-2726000Y2737000D01*
X-2709000Y-2936000D02*
X-2669000Y-2976000D01*
X-2669000Y-2936000D02*
X-2709000Y-2976000D01*
X-2665000Y-690000D02*
X-2625000Y-730000D01*
X-2625000Y-690000D02*
X-2665000Y-730000D01*
X-2395000Y-920000D02*
X-2355000Y-960000D01*
X-2355000Y-920000D02*
X-2395000Y-960000D01*
X-2322000Y-2937000D02*
X-2282000Y-2977000D01*
X-2282000Y-2937000D02*
X-2322000Y-2977000D01*
X-2301000Y2777000D02*
X-2261000Y2737000D01*
X-2261000Y2777000D02*
X-2301000Y2737000D01*
X-2295000Y-2200000D02*
X-2255000Y-2240000D01*
X-2255000Y-2200000D02*
X-2295000Y-2240000D01*
X-2255000Y500000D02*
X-2215000Y460000D01*
X-2215000Y500000D02*
X-2255000Y460000D01*
X-2115000Y640000D02*
X-2075000Y600000D01*
X-2075000Y640000D02*
X-2115000Y600000D01*
X-2055000Y-1260000D02*
X-2015000Y-1300000D01*
X-2015000Y-1260000D02*
X-2055000Y-1300000D01*
X-1995000Y240000D02*
X-1955000Y200000D01*
X-1955000Y240000D02*
X-1995000Y200000D01*
X-1975000Y800000D02*
X-1935000Y760000D01*
X-1935000Y800000D02*
X-1975000Y760000D01*
X-1975000Y-440000D02*
X-1935000Y-480000D01*
X-1935000Y-440000D02*
X-1975000Y-480000D01*
X-1967000Y2779000D02*
X-1927000Y2739000D01*
X-1927000Y2779000D02*
X-1967000Y2739000D01*
X-1955000Y-2110000D02*
X-1915000Y-2150000D01*
X-1915000Y-2110000D02*
X-1955000Y-2150000D01*
X-1949000Y-2939000D02*
X-1909000Y-2979000D01*
X-1909000Y-2939000D02*
X-1949000Y-2979000D01*
X-1875000Y1470000D02*
X-1835000Y1430000D01*
X-1835000Y1470000D02*
X-1875000Y1430000D01*
X-1855000Y380000D02*
X-1815000Y340000D01*
X-1815000Y380000D02*
X-1855000Y340000D01*
X-1775000Y2330000D02*
X-1735000Y2290000D01*
X-1735000Y2330000D02*
X-1775000Y2290000D01*
X-1755000Y-900000D02*
X-1715000Y-940000D01*
X-1715000Y-900000D02*
X-1755000Y-940000D01*
X-1755000Y-2330000D02*
X-1715000Y-2370000D01*
X-1715000Y-2330000D02*
X-1755000Y-2370000D01*
X-1695000Y520000D02*
X-1655000Y480000D01*
X-1655000Y520000D02*
X-1695000Y480000D01*
X-1655000Y-140000D02*
X-1615000Y-180000D01*
X-1615000Y-140000D02*
X-1655000Y-180000D01*
X-1655000Y-2110000D02*
X-1615000Y-2150000D01*
X-1615000Y-2110000D02*
X-1655000Y-2150000D01*
X-1655000Y-2215000D02*
X-1615000Y-2255000D01*
X-1615000Y-2215000D02*
X-1655000Y-2255000D01*
X-1612000Y2779000D02*
X-1572000Y2739000D01*
X-1572000Y2779000D02*
X-1612000Y2739000D01*
X-1553000Y-2937000D02*
X-1513000Y-2977000D01*
X-1513000Y-2937000D02*
X-1553000Y-2977000D01*
X-1495000Y40000D02*
X-1455000Y0D01*
X-1455000Y40000D02*
X-1495000Y0D01*
X-1355000Y180000D02*
X-1315000Y140000D01*
X-1315000Y180000D02*
X-1355000Y140000D01*
X-1325000Y-2110000D02*
X-1285000Y-2150000D01*
X-1285000Y-2110000D02*
X-1325000Y-2150000D01*
X-1315000Y-460000D02*
X-1275000Y-500000D01*
X-1275000Y-460000D02*
X-1315000Y-500000D01*
X-1275000Y740000D02*
X-1235000Y700000D01*
X-1235000Y740000D02*
X-1275000Y700000D01*
X-1255000Y-1160000D02*
X-1215000Y-1200000D01*
X-1215000Y-1160000D02*
X-1255000Y-1200000D01*
X-1215000Y1470000D02*
X-1175000Y1430000D01*
X-1175000Y1470000D02*
X-1215000Y1430000D01*
X-1181000Y-2938000D02*
X-1141000Y-2978000D01*
X-1141000Y-2938000D02*
X-1181000Y-2978000D01*
X-1178000Y2780000D02*
X-1138000Y2740000D01*
X-1138000Y2780000D02*
X-1178000Y2740000D01*
X-1165000Y2330000D02*
X-1125000Y2290000D01*
X-1125000Y2330000D02*
X-1165000Y2290000D01*
X-1155000Y-300000D02*
X-1115000Y-340000D01*
X-1115000Y-300000D02*
X-1155000Y-340000D01*
X-1135000Y58600D02*
X-1095000Y18600D01*
X-1095000Y58600D02*
X-1135000Y18600D01*
X-1085000Y1140000D02*
X-1045000Y1100000D01*
X-1045000Y1140000D02*
X-1085000Y1100000D01*
X-1005000Y730000D02*
X-965000Y690000D01*
X-965000Y730000D02*
X-1005000Y690000D01*
X-995000Y-140000D02*
X-955000Y-180000D01*
X-955000Y-140000D02*
X-995000Y-180000D01*
X-895000Y-900000D02*
X-855000Y-940000D01*
X-855000Y-900000D02*
X-895000Y-940000D01*
X-798000Y2780000D02*
X-758000Y2740000D01*
X-758000Y2780000D02*
X-798000Y2740000D01*
X-771000Y-2938000D02*
X-731000Y-2978000D01*
X-731000Y-2938000D02*
X-771000Y-2978000D01*
X-755000Y730000D02*
X-715000Y690000D01*
X-715000Y730000D02*
X-755000Y690000D01*
X-735000Y-720000D02*
X-695000Y-760000D01*
X-695000Y-720000D02*
X-735000Y-760000D01*
X-695000Y1540000D02*
X-655000Y1500000D01*
X-655000Y1540000D02*
X-695000Y1500000D01*
X-615000Y-560000D02*
X-575000Y-600000D01*
X-575000Y-560000D02*
X-615000Y-600000D01*
X-555000Y-1220000D02*
X-515000Y-1260000D01*
X-515000Y-1220000D02*
X-555000Y-1260000D01*
X-497960Y904700D02*
X-457960Y864700D01*
X-457960Y904700D02*
X-497960Y864700D01*
X-497960Y754700D02*
X-457960Y714700D01*
X-457960Y754700D02*
X-497960Y714700D01*
X-497960Y604700D02*
X-457960Y564700D01*
X-457960Y604700D02*
X-497960Y564700D01*
X-497960Y454700D02*
X-457960Y414700D01*
X-457960Y454700D02*
X-497960Y414700D01*
X-497960Y304700D02*
X-457960Y264700D01*
X-457960Y304700D02*
X-497960Y264700D01*
X-497960Y154700D02*
X-457960Y114700D01*
X-457960Y154700D02*
X-497960Y114700D01*
X-497960Y-145300D02*
X-457960Y-185300D01*
X-457960Y-145300D02*
X-497960Y-185300D01*
X-495000Y-400000D02*
X-455000Y-440000D01*
X-455000Y-400000D02*
X-495000Y-440000D01*
X-490000Y-1525000D02*
X-450000Y-1565000D01*
X-450000Y-1525000D02*
X-490000Y-1565000D01*
X-480000Y-1810000D02*
X-440000Y-1850000D01*
X-440000Y-1810000D02*
X-480000Y-1850000D01*
X-480000Y-2035000D02*
X-440000Y-2075000D01*
X-440000Y-2035000D02*
X-480000Y-2075000D01*
X-480000Y-2290000D02*
X-440000Y-2330000D01*
X-440000Y-2290000D02*
X-480000Y-2330000D01*
X-480000Y-2535000D02*
X-440000Y-2575000D01*
X-440000Y-2535000D02*
X-480000Y-2575000D01*
X-465000Y2370000D02*
X-425000Y2330000D01*
X-425000Y2370000D02*
X-465000Y2330000D01*
X-435000Y1540000D02*
X-395000Y1500000D01*
X-395000Y1540000D02*
X-435000Y1500000D01*
X-397960Y1004700D02*
X-357960Y964700D01*
X-357960Y1004700D02*
X-397960Y964700D01*
X-395000Y-1060000D02*
X-355000Y-1100000D01*
X-355000Y-1060000D02*
X-395000Y-1100000D01*
X-377000Y-2940000D02*
X-337000Y-2980000D01*
X-337000Y-2940000D02*
X-377000Y-2980000D01*
X-369000Y2780000D02*
X-329000Y2740000D01*
X-329000Y2780000D02*
X-369000Y2740000D01*
X-305000Y1940000D02*
X-265000Y1900000D01*
X-265000Y1940000D02*
X-305000Y1900000D01*
X-297960Y-145300D02*
X-257960Y-185300D01*
X-257960Y-145300D02*
X-297960Y-185300D01*
X-255000Y-880000D02*
X-215000Y-920000D01*
X-215000Y-880000D02*
X-255000Y-920000D01*
X-255000Y-1525000D02*
X-215000Y-1565000D01*
X-215000Y-1525000D02*
X-255000Y-1565000D01*
X-255000Y-2530000D02*
X-215000Y-2570000D01*
X-215000Y-2530000D02*
X-255000Y-2570000D01*
X-247960Y1004700D02*
X-207960Y964700D01*
X-207960Y1004700D02*
X-247960Y964700D01*
X-225440Y880000D02*
X-185440Y840000D01*
X-185440Y880000D02*
X-225440Y840000D01*
X-205000Y1540000D02*
X-165000Y1500000D01*
X-165000Y1540000D02*
X-205000Y1500000D01*
X-155000Y-660000D02*
X-115000Y-700000D01*
X-115000Y-660000D02*
X-155000Y-700000D01*
X-147960Y-145300D02*
X-107960Y-185300D01*
X-107960Y-145300D02*
X-147960Y-185300D01*
X-97960Y1004700D02*
X-57960Y964700D01*
X-57960Y1004700D02*
X-97960Y964700D01*
X-30000Y-2530000D02*
X10000Y-2570000D01*
X10000Y-2530000D02*
X-30000Y-2570000D01*
X-20000Y-1530000D02*
X20000Y-1570000D01*
X20000Y-1530000D02*
X-20000Y-1570000D01*
X-20000Y-2938000D02*
X20000Y-2978000D01*
X20000Y-2938000D02*
X-20000Y-2978000D01*
X-5000Y-460000D02*
X35000Y-500000D01*
X35000Y-460000D02*
X-5000Y-500000D01*
X2040Y-145300D02*
X42040Y-185300D01*
X42040Y-145300D02*
X2040Y-185300D01*
X52040Y1004700D02*
X92040Y964700D01*
X92040Y1004700D02*
X52040Y964700D01*
X74560Y749000D02*
X114560Y709000D01*
X114560Y749000D02*
X74560Y709000D01*
X90000Y2778000D02*
X130000Y2738000D01*
X130000Y2778000D02*
X90000Y2738000D01*
X145000Y1510000D02*
X185000Y1470000D01*
X185000Y1510000D02*
X145000Y1470000D01*
X152040Y-145300D02*
X192040Y-185300D01*
X192040Y-145300D02*
X152040Y-185300D01*
X165000Y-660000D02*
X205000Y-700000D01*
X205000Y-660000D02*
X165000Y-700000D01*
X165000Y-900000D02*
X205000Y-940000D01*
X205000Y-900000D02*
X165000Y-940000D01*
X165000Y-1120000D02*
X205000Y-1160000D01*
X205000Y-1120000D02*
X165000Y-1160000D01*
X185000Y-1530000D02*
X225000Y-1570000D01*
X225000Y-1530000D02*
X185000Y-1570000D01*
X195000Y-2525000D02*
X235000Y-2565000D01*
X235000Y-2525000D02*
X195000Y-2565000D01*
X254560Y250000D02*
X294560Y210000D01*
X294560Y250000D02*
X254560Y210000D01*
X254560Y150000D02*
X294560Y110000D01*
X294560Y150000D02*
X254560Y110000D01*
X254560Y40000D02*
X294560Y0D01*
X294560Y40000D02*
X254560Y0D01*
X305000Y2270000D02*
X345000Y2230000D01*
X345000Y2270000D02*
X305000Y2230000D01*
X364560Y250000D02*
X404560Y210000D01*
X404560Y250000D02*
X364560Y210000D01*
X364560Y150000D02*
X404560Y110000D01*
X404560Y150000D02*
X364560Y110000D01*
X364560Y40000D02*
X404560Y0D01*
X404560Y40000D02*
X364560Y0D01*
X425000Y-2045000D02*
X465000Y-2085000D01*
X465000Y-2045000D02*
X425000Y-2085000D01*
X427000Y-2938000D02*
X467000Y-2978000D01*
X467000Y-2938000D02*
X427000Y-2978000D01*
X435000Y-1540000D02*
X475000Y-1580000D01*
X475000Y-1540000D02*
X435000Y-1580000D01*
X435000Y-2530000D02*
X475000Y-2570000D01*
X475000Y-2530000D02*
X435000Y-2570000D01*
X444560Y745000D02*
X484560Y705000D01*
X484560Y745000D02*
X444560Y705000D01*
X449560Y870000D02*
X489560Y830000D01*
X489560Y870000D02*
X449560Y830000D01*
X474560Y250000D02*
X514560Y210000D01*
X514560Y250000D02*
X474560Y210000D01*
X474560Y150000D02*
X514560Y110000D01*
X514560Y150000D02*
X474560Y110000D01*
X474560Y40000D02*
X514560Y0D01*
X514560Y40000D02*
X474560Y0D01*
X491000Y2779000D02*
X531000Y2739000D01*
X531000Y2779000D02*
X491000Y2739000D01*
X525000Y1460000D02*
X565000Y1420000D01*
X565000Y1460000D02*
X525000Y1420000D01*
X535000Y1140000D02*
X575000Y1100000D01*
X575000Y1140000D02*
X535000Y1100000D01*
X555000Y-440000D02*
X595000Y-480000D01*
X595000Y-440000D02*
X555000Y-480000D01*
X584560Y250000D02*
X624560Y210000D01*
X624560Y250000D02*
X584560Y210000D01*
X584560Y150000D02*
X624560Y110000D01*
X624560Y150000D02*
X584560Y110000D01*
X584560Y40000D02*
X624560Y0D01*
X624560Y40000D02*
X584560Y0D01*
X590000Y2265000D02*
X630000Y2225000D01*
X630000Y2265000D02*
X590000Y2225000D01*
X690000Y-2045000D02*
X730000Y-2085000D01*
X730000Y-2045000D02*
X690000Y-2085000D01*
X694560Y250000D02*
X734560Y210000D01*
X734560Y250000D02*
X694560Y210000D01*
X694560Y150000D02*
X734560Y110000D01*
X734560Y150000D02*
X694560Y110000D01*
X694560Y40000D02*
X734560Y0D01*
X734560Y40000D02*
X694560Y0D01*
X714560Y730000D02*
X754560Y690000D01*
X754560Y730000D02*
X714560Y690000D01*
X745000Y-660000D02*
X785000Y-700000D01*
X785000Y-660000D02*
X745000Y-700000D01*
X745000Y-880000D02*
X785000Y-920000D01*
X785000Y-880000D02*
X745000Y-920000D01*
X745000Y-1120000D02*
X785000Y-1160000D01*
X785000Y-1120000D02*
X745000Y-1160000D01*
X745000Y-1320000D02*
X785000Y-1360000D01*
X785000Y-1320000D02*
X745000Y-1360000D01*
X840000Y-2938000D02*
X880000Y-2978000D01*
X880000Y-2938000D02*
X840000Y-2978000D01*
X868000Y2779000D02*
X908000Y2739000D01*
X908000Y2779000D02*
X868000Y2739000D01*
X965000Y1110000D02*
X1005000Y1070000D01*
X1005000Y1110000D02*
X965000Y1070000D01*
X985000Y-1750000D02*
X1025000Y-1790000D01*
X1025000Y-1750000D02*
X985000Y-1790000D01*
X985000Y-2330000D02*
X1025000Y-2370000D01*
X1025000Y-2330000D02*
X985000Y-2370000D01*
X995000Y-2050000D02*
X1035000Y-2090000D01*
X1035000Y-2050000D02*
X995000Y-2090000D01*
X1040000Y1720000D02*
X1080000Y1680000D01*
X1080000Y1720000D02*
X1040000Y1680000D01*
X1065000Y1380000D02*
X1105000Y1340000D01*
X1105000Y1380000D02*
X1065000Y1340000D01*
X1155000Y30000D02*
X1195000Y-10000D01*
X1195000Y30000D02*
X1155000Y-10000D01*
X1175000Y2185000D02*
X1215000Y2145000D01*
X1215000Y2185000D02*
X1175000Y2145000D01*
X1216000Y-2939000D02*
X1256000Y-2979000D01*
X1256000Y-2939000D02*
X1216000Y-2979000D01*
X1250000Y1415000D02*
X1290000Y1375000D01*
X1290000Y1415000D02*
X1250000Y1375000D01*
X1255000Y-2330000D02*
X1295000Y-2370000D01*
X1295000Y-2330000D02*
X1255000Y-2370000D01*
X1265000Y-1750000D02*
X1305000Y-1790000D01*
X1305000Y-1750000D02*
X1265000Y-1790000D01*
X1285000Y-2050000D02*
X1325000Y-2090000D01*
X1325000Y-2050000D02*
X1285000Y-2090000D01*
X1384000Y568000D02*
X1424000Y528000D01*
X1424000Y568000D02*
X1384000Y528000D01*
X1485000Y-640000D02*
X1525000Y-680000D01*
X1525000Y-640000D02*
X1485000Y-680000D01*
X1485000Y-880000D02*
X1525000Y-920000D01*
X1525000Y-880000D02*
X1485000Y-920000D01*
X1485000Y-1120000D02*
X1525000Y-1160000D01*
X1525000Y-1120000D02*
X1485000Y-1160000D01*
X1485000Y-1320000D02*
X1525000Y-1360000D01*
X1525000Y-1320000D02*
X1485000Y-1360000D01*
X1545000Y2590000D02*
X1585000Y2550000D01*
X1585000Y2590000D02*
X1545000Y2550000D01*
X1545000Y1340000D02*
X1585000Y1300000D01*
X1585000Y1340000D02*
X1545000Y1300000D01*
X1545000Y-1740000D02*
X1585000Y-1780000D01*
X1585000Y-1740000D02*
X1545000Y-1780000D01*
X1545000Y-2330000D02*
X1585000Y-2370000D01*
X1585000Y-2330000D02*
X1545000Y-2370000D01*
X1548000Y2778000D02*
X1588000Y2738000D01*
X1588000Y2778000D02*
X1548000Y2738000D01*
X1562000Y-2939000D02*
X1602000Y-2979000D01*
X1602000Y-2939000D02*
X1562000Y-2979000D01*
X1595000Y-2050000D02*
X1635000Y-2090000D01*
X1635000Y-2050000D02*
X1595000Y-2090000D01*
X1810000Y1205000D02*
X1850000Y1165000D01*
X1850000Y1205000D02*
X1810000Y1165000D01*
X1810000Y550000D02*
X1850000Y510000D01*
X1850000Y550000D02*
X1810000Y510000D01*
X1885000Y-1750000D02*
X1925000Y-1790000D01*
X1925000Y-1750000D02*
X1885000Y-1790000D01*
X1885000Y-2050000D02*
X1925000Y-2090000D01*
X1925000Y-2050000D02*
X1885000Y-2090000D01*
X1885000Y-2330000D02*
X1925000Y-2370000D01*
X1925000Y-2330000D02*
X1885000Y-2370000D01*
X1967500Y147500D02*
X2007500Y107500D01*
X2007500Y147500D02*
X1967500Y107500D01*
X1976000Y-2937000D02*
X2016000Y-2977000D01*
X2016000Y-2937000D02*
X1976000Y-2977000D01*
X2055000Y1740000D02*
X2095000Y1700000D01*
X2095000Y1740000D02*
X2055000Y1700000D01*
X2105000Y-1750000D02*
X2145000Y-1790000D01*
X2145000Y-1750000D02*
X2105000Y-1790000D01*
X2115000Y380000D02*
X2155000Y340000D01*
X2155000Y380000D02*
X2115000Y340000D01*
X2115000Y-2330000D02*
X2155000Y-2370000D01*
X2155000Y-2330000D02*
X2115000Y-2370000D01*
X2185000Y-2045000D02*
X2225000Y-2085000D01*
X2225000Y-2045000D02*
X2185000Y-2085000D01*
X2325000Y-660000D02*
X2365000Y-700000D01*
X2365000Y-660000D02*
X2325000Y-700000D01*
X2325000Y-900000D02*
X2365000Y-940000D01*
X2365000Y-900000D02*
X2325000Y-940000D01*
X2325000Y-1120000D02*
X2365000Y-1160000D01*
X2365000Y-1120000D02*
X2325000Y-1160000D01*
X2325000Y-1320000D02*
X2365000Y-1360000D01*
X2365000Y-1320000D02*
X2325000Y-1360000D01*
X2425000Y1310000D02*
X2465000Y1270000D01*
X2465000Y1310000D02*
X2425000Y1270000D01*
X2470000Y-2939000D02*
X2510000Y-2979000D01*
X2510000Y-2939000D02*
X2470000Y-2979000D01*
X2535000Y-2045000D02*
X2575000Y-2085000D01*
X2575000Y-2045000D02*
X2535000Y-2085000D01*
X2625000Y-1760000D02*
X2665000Y-1800000D01*
X2665000Y-1760000D02*
X2625000Y-1800000D01*
X2625000Y-2330000D02*
X2665000Y-2370000D01*
X2665000Y-2330000D02*
X2625000Y-2370000D01*
X2645000Y2779000D02*
X2685000Y2739000D01*
X2685000Y2779000D02*
X2645000Y2739000D01*
X2765000Y2230000D02*
X2805000Y2190000D01*
X2805000Y2230000D02*
X2765000Y2190000D01*
X2765000Y1970000D02*
X2805000Y1930000D01*
X2805000Y1970000D02*
X2765000Y1930000D01*
X2765000Y1700000D02*
X2805000Y1660000D01*
X2805000Y1700000D02*
X2765000Y1660000D01*
X2840000Y-2045000D02*
X2880000Y-2085000D01*
X2880000Y-2045000D02*
X2840000Y-2085000D01*
X2860000Y-575000D02*
X2900000Y-615000D01*
X2900000Y-575000D02*
X2860000Y-615000D01*
X2905000Y-2330000D02*
X2945000Y-2370000D01*
X2945000Y-2330000D02*
X2905000Y-2370000D01*
X2915000Y-1760000D02*
X2955000Y-1800000D01*
X2955000Y-1760000D02*
X2915000Y-1800000D01*
X2935000Y2600000D02*
X2975000Y2560000D01*
X2975000Y2600000D02*
X2935000Y2560000D01*
X2963000Y-2938000D02*
X3003000Y-2978000D01*
X3003000Y-2938000D02*
X2963000Y-2978000D01*
X3080000Y1120000D02*
X3120000Y1080000D01*
X3120000Y1120000D02*
X3080000Y1080000D01*
X3185000Y-1320000D02*
X3225000Y-1360000D01*
X3225000Y-1320000D02*
X3185000Y-1360000D01*
X3185000Y-1760000D02*
X3225000Y-1800000D01*
X3225000Y-1760000D02*
X3185000Y-1800000D01*
X3185000Y-2330000D02*
X3225000Y-2370000D01*
X3225000Y-2330000D02*
X3185000Y-2370000D01*
X3190000Y-2050000D02*
X3230000Y-2090000D01*
X3230000Y-2050000D02*
X3190000Y-2090000D01*
X3195000Y1120000D02*
X3235000Y1080000D01*
X3235000Y1120000D02*
X3195000Y1080000D01*
X3245000Y2779000D02*
X3285000Y2739000D01*
X3285000Y2779000D02*
X3245000Y2739000D01*
X3319000Y-2938000D02*
X3359000Y-2978000D01*
X3359000Y-2938000D02*
X3319000Y-2978000D01*
X3475000Y-1760000D02*
X3515000Y-1800000D01*
X3515000Y-1760000D02*
X3475000Y-1800000D01*
X3485000Y-2330000D02*
X3525000Y-2370000D01*
X3525000Y-2330000D02*
X3485000Y-2370000D01*
X3495000Y-2050000D02*
X3535000Y-2090000D01*
X3535000Y-2050000D02*
X3495000Y-2090000D01*
X3515000Y1120000D02*
X3555000Y1080000D01*
X3555000Y1120000D02*
X3515000Y1080000D01*
X3635000Y1125000D02*
X3675000Y1085000D01*
X3675000Y1125000D02*
X3635000Y1085000D01*
X3645000Y2480000D02*
X3685000Y2440000D01*
X3685000Y2480000D02*
X3645000Y2440000D01*
X3645000Y2220000D02*
X3685000Y2180000D01*
X3685000Y2220000D02*
X3645000Y2180000D01*
X3655000Y1960000D02*
X3695000Y1920000D01*
X3695000Y1960000D02*
X3655000Y1920000D01*
X3705000Y220000D02*
X3745000Y180000D01*
X3745000Y220000D02*
X3705000Y180000D01*
X3757000Y1094000D02*
X3797000Y1054000D01*
X3797000Y1094000D02*
X3757000Y1054000D01*
X3758000Y948000D02*
X3798000Y908000D01*
X3798000Y948000D02*
X3758000Y908000D01*
X3760000Y1231000D02*
X3800000Y1191000D01*
X3800000Y1231000D02*
X3760000Y1191000D01*
X3770000Y-2939000D02*
X3810000Y-2979000D01*
X3810000Y-2939000D02*
X3770000Y-2979000D01*
X3775000Y-2045000D02*
X3815000Y-2085000D01*
X3815000Y-2045000D02*
X3775000Y-2085000D01*
X3785000Y-1760000D02*
X3825000Y-1800000D01*
X3825000Y-1760000D02*
X3785000Y-1800000D01*
X3785000Y-2330000D02*
X3825000Y-2370000D01*
X3825000Y-2330000D02*
X3785000Y-2370000D01*
X3797000Y-516000D02*
X3837000Y-556000D01*
X3837000Y-516000D02*
X3797000Y-556000D01*
X3808000Y2778000D02*
X3848000Y2738000D01*
X3848000Y2778000D02*
X3808000Y2738000D01*
X3918000Y1269000D02*
X3958000Y1229000D01*
X3958000Y1269000D02*
X3918000Y1229000D01*
X4061000Y1267000D02*
X4101000Y1227000D01*
X4101000Y1267000D02*
X4061000Y1227000D01*
X4075000Y-2045000D02*
X4115000Y-2085000D01*
X4115000Y-2045000D02*
X4075000Y-2085000D01*
X4210000Y1035000D02*
X4250000Y995000D01*
X4250000Y1035000D02*
X4210000Y995000D01*
X4213000Y1268000D02*
X4253000Y1228000D01*
X4253000Y1268000D02*
X4213000Y1228000D01*
X4233000Y-2935000D02*
X4273000Y-2975000D01*
X4273000Y-2935000D02*
X4233000Y-2975000D01*
X4270000Y-1030000D02*
X4310000Y-1070000D01*
X4310000Y-1030000D02*
X4270000Y-1070000D01*
X4290000Y2455000D02*
X4330000Y2415000D01*
X4330000Y2455000D02*
X4290000Y2415000D01*
X4295000Y1701000D02*
X4335000Y1661000D01*
X4335000Y1701000D02*
X4295000Y1661000D01*
X4305000Y-2240000D02*
X4345000Y-2280000D01*
X4345000Y-2240000D02*
X4305000Y-2280000D01*
X4315000Y-1720000D02*
X4355000Y-1760000D01*
X4355000Y-1720000D02*
X4315000Y-1760000D01*
X4350000Y1035000D02*
X4390000Y995000D01*
X4390000Y1035000D02*
X4350000Y995000D01*
X4385000Y1268000D02*
X4425000Y1228000D01*
X4425000Y1268000D02*
X4385000Y1228000D01*
X4390000Y2777000D02*
X4430000Y2737000D01*
X4430000Y2777000D02*
X4390000Y2737000D01*
X4475000Y-1745000D02*
X4515000Y-1785000D01*
X4515000Y-1745000D02*
X4475000Y-1785000D01*
X4485000Y1035000D02*
X4525000Y995000D01*
X4525000Y1035000D02*
X4485000Y995000D01*
X4546000Y1273000D02*
X4586000Y1233000D01*
X4586000Y1273000D02*
X4546000Y1233000D01*
X4585000Y-2075000D02*
X4625000Y-2115000D01*
X4625000Y-2075000D02*
X4585000Y-2115000D01*
X4590000Y-1875000D02*
X4630000Y-1915000D01*
X4630000Y-1875000D02*
X4590000Y-1915000D01*
X4620000Y1035000D02*
X4660000Y995000D01*
X4660000Y1035000D02*
X4620000Y995000D01*
X4635500Y-940500D02*
X4675500Y-980500D01*
X4675500Y-940500D02*
X4635500Y-980500D01*
X4682000Y-2937000D02*
X4722000Y-2977000D01*
X4722000Y-2937000D02*
X4682000Y-2977000D01*
X4735000Y1275000D02*
X4775000Y1235000D01*
X4775000Y1275000D02*
X4735000Y1235000D01*
X4765000Y1035000D02*
X4805000Y995000D01*
X4805000Y1035000D02*
X4765000Y995000D01*
X4765000Y-1320000D02*
X4805000Y-1360000D01*
X4805000Y-1320000D02*
X4765000Y-1360000D01*
X4892000Y1278000D02*
X4932000Y1238000D01*
X4932000Y1278000D02*
X4892000Y1238000D01*
X4895000Y1040000D02*
X4935000Y1000000D01*
X4935000Y1040000D02*
X4895000Y1000000D01*
X4938300Y2768460D02*
X4978300Y2728460D01*
X4978300Y2768460D02*
X4938300Y2728460D01*
X4938300Y2618460D02*
X4978300Y2578460D01*
X4978300Y2618460D02*
X4938300Y2578460D01*
X4938300Y2318460D02*
X4978300Y2278460D01*
X4978300Y2318460D02*
X4938300Y2278460D01*
X4938300Y2168460D02*
X4978300Y2128460D01*
X4978300Y2168460D02*
X4938300Y2128460D01*
X4938300Y2018460D02*
X4978300Y1978460D01*
X4978300Y2018460D02*
X4938300Y1978460D01*
X4938300Y1868460D02*
X4978300Y1828460D01*
X4978300Y1868460D02*
X4938300Y1828460D01*
X4938300Y1718460D02*
X4978300Y1678460D01*
X4978300Y1718460D02*
X4938300Y1678460D01*
X4938300Y1568460D02*
X4978300Y1528460D01*
X4978300Y1568460D02*
X4938300Y1528460D01*
X4938300Y1418460D02*
X4978300Y1378460D01*
X4978300Y1418460D02*
X4938300Y1378460D01*
X4945000Y935000D02*
X4985000Y895000D01*
X4985000Y935000D02*
X4945000Y895000D01*
X4945000Y820000D02*
X4985000Y780000D01*
X4985000Y820000D02*
X4945000Y780000D01*
X4945000Y690000D02*
X4985000Y650000D01*
X4985000Y690000D02*
X4945000Y650000D01*
X4945000Y545000D02*
X4985000Y505000D01*
X4985000Y545000D02*
X4945000Y505000D01*
X4973000Y-1084000D02*
X5013000Y-1124000D01*
X5013000Y-1084000D02*
X4973000Y-1124000D01*
X5058300Y1160000D02*
X5098300Y1120000D01*
X5098300Y1160000D02*
X5058300Y1120000D01*
X5070000Y545000D02*
X5110000Y505000D01*
X5110000Y545000D02*
X5070000Y505000D01*
X5212000Y-2938000D02*
X5252000Y-2978000D01*
X5252000Y-2938000D02*
X5212000Y-2978000D01*
X5230000Y545000D02*
X5270000Y505000D01*
X5270000Y545000D02*
X5230000Y505000D01*
X5305000Y-1340000D02*
X5345000Y-1380000D01*
X5345000Y-1340000D02*
X5305000Y-1380000D01*
X5305000Y-1900000D02*
X5345000Y-1940000D01*
X5345000Y-1900000D02*
X5305000Y-1940000D01*
X5340385Y1424322D02*
X5380385Y1384323D01*
X5380385Y1424322D02*
X5340385Y1384323D01*
X5390000Y545000D02*
X5430000Y505000D01*
X5430000Y545000D02*
X5390000Y505000D01*
X5428000Y-2697000D02*
X5468000Y-2737000D01*
X5468000Y-2697000D02*
X5428000Y-2737000D01*
X5470000Y-315000D02*
X5510000Y-355000D01*
X5510000Y-315000D02*
X5470000Y-355000D01*
X5540000Y545000D02*
X5580000Y505000D01*
X5580000Y545000D02*
X5540000Y505000D01*
X5590000Y-2748000D02*
X5630000Y-2788000D01*
X5630000Y-2748000D02*
X5590000Y-2788000D01*
X5688300Y543460D02*
X5728300Y503460D01*
X5728300Y543460D02*
X5688300Y503460D01*
X5701500Y-866500D02*
X5741500Y-906500D01*
X5741500Y-866500D02*
X5701500Y-906500D01*
X5785000Y-2937000D02*
X5825000Y-2977000D01*
X5825000Y-2937000D02*
X5785000Y-2977000D01*
X5838300Y543460D02*
X5878300Y503460D01*
X5878300Y543460D02*
X5838300Y503460D01*
X5959000Y-2090000D02*
X5999000Y-2130000D01*
X5999000Y-2090000D02*
X5959000Y-2130000D01*
X5962000Y-867000D02*
X6002000Y-907000D01*
X6002000Y-867000D02*
X5962000Y-907000D01*
X5988300Y543460D02*
X6028300Y503460D01*
X6028300Y543460D02*
X5988300Y503460D01*
X6023191Y-2561128D02*
X6063191Y-2601128D01*
X6063191Y-2561128D02*
X6023191Y-2601128D01*
X6065000Y-2937000D02*
X6105000Y-2977000D01*
X6105000Y-2937000D02*
X6065000Y-2977000D01*
X6138300Y543460D02*
X6178300Y503460D01*
X6178300Y543460D02*
X6138300Y503460D01*
X6235000Y-857000D02*
X6275000Y-897000D01*
X6275000Y-857000D02*
X6235000Y-897000D01*
X6288300Y543460D02*
X6328300Y503460D01*
X6328300Y543460D02*
X6288300Y503460D01*
X6295000Y-2882000D02*
X6335000Y-2922000D01*
X6335000Y-2882000D02*
X6295000Y-2922000D01*
X6296000Y218000D02*
X6336000Y178000D01*
X6336000Y218000D02*
X6296000Y178000D01*
X6296000Y17000D02*
X6336000Y-23000D01*
X6336000Y17000D02*
X6296000Y-23000D01*
X6297000Y-177000D02*
X6337000Y-217000D01*
X6337000Y-177000D02*
X6297000Y-217000D01*
X6298000Y-431000D02*
X6338000Y-471000D01*
X6338000Y-431000D02*
X6298000Y-471000D01*
X6298000Y-2591000D02*
X6338000Y-2631000D01*
X6338000Y-2591000D02*
X6298000Y-2631000D01*
X6299000Y-2096000D02*
X6339000Y-2136000D01*
X6339000Y-2096000D02*
X6299000Y-2136000D01*
X-6050000Y550000D02*
G75*
G02*
X-6150000Y550000I-50000J0D01*
G01*
X-6150000Y550000D02*
G75*
G02*
X-6050000Y550000I50000J0D01*
G01*
X-6050000Y-550000D02*
G75*
G02*
X-6150000Y-550000I-50000J0D01*
G01*
X-6150000Y-550000D02*
G75*
G02*
X-6050000Y-550000I50000J0D01*
G01*
X-5796000Y2650000D02*
G75*
G02*
X-5896000Y2650000I-50000J0D01*
G01*
X-5896000Y2650000D02*
G75*
G02*
X-5796000Y2650000I50000J0D01*
G01*
X-5796000Y550000D02*
G75*
G02*
X-5896000Y550000I-50000J0D01*
G01*
X-5896000Y550000D02*
G75*
G02*
X-5796000Y550000I50000J0D01*
G01*
X-5796000Y-550000D02*
G75*
G02*
X-5896000Y-550000I-50000J0D01*
G01*
X-5896000Y-550000D02*
G75*
G02*
X-5796000Y-550000I50000J0D01*
G01*
X-5796000Y-2650000D02*
G75*
G02*
X-5896000Y-2650000I-50000J0D01*
G01*
X-5896000Y-2650000D02*
G75*
G02*
X-5796000Y-2650000I50000J0D01*
G01*
X-5542000Y2650000D02*
G75*
G02*
X-5642000Y2650000I-50000J0D01*
G01*
X-5642000Y2650000D02*
G75*
G02*
X-5542000Y2650000I50000J0D01*
G01*
X-5542000Y550000D02*
G75*
G02*
X-5642000Y550000I-50000J0D01*
G01*
X-5642000Y550000D02*
G75*
G02*
X-5542000Y550000I50000J0D01*
G01*
X-5542000Y-550000D02*
G75*
G02*
X-5642000Y-550000I-50000J0D01*
G01*
X-5642000Y-550000D02*
G75*
G02*
X-5542000Y-550000I50000J0D01*
G01*
X-5542000Y-2650000D02*
G75*
G02*
X-5642000Y-2650000I-50000J0D01*
G01*
X-5642000Y-2650000D02*
G75*
G02*
X-5542000Y-2650000I50000J0D01*
G01*
X-5288000Y550000D02*
G75*
G02*
X-5388000Y550000I-50000J0D01*
G01*
X-5388000Y550000D02*
G75*
G02*
X-5288000Y550000I50000J0D01*
G01*
X-5288000Y-550000D02*
G75*
G02*
X-5388000Y-550000I-50000J0D01*
G01*
X-5388000Y-550000D02*
G75*
G02*
X-5288000Y-550000I50000J0D01*
G01*
D12*
X-4175000Y2531000D02*
X-4175000Y2346000D01*
X-4267500Y2438500D02*
X-4082500Y2438500D01*
X-4175000Y1769000D02*
X-4175000Y1584000D01*
X-4267500Y1676500D02*
X-4082500Y1676500D01*
X-4175000Y-1584000D02*
X-4175000Y-1769000D01*
X-4267500Y-1676500D02*
X-4082500Y-1676500D01*
X-4175000Y-2346000D02*
X-4175000Y-2531000D01*
X-4267500Y-2438500D02*
X-4082500Y-2438500D01*
X-2535000Y2531000D02*
X-2535000Y2346000D01*
X-2627500Y2438500D02*
X-2442500Y2438500D01*
X-2535000Y1769000D02*
X-2535000Y1584000D01*
X-2627500Y1676500D02*
X-2442500Y1676500D01*
X-2535000Y-1584000D02*
X-2535000Y-1769000D01*
X-2627500Y-1676500D02*
X-2442500Y-1676500D01*
X-2535000Y-2346000D02*
X-2535000Y-2531000D01*
X-2627500Y-2438500D02*
X-2442500Y-2438500D01*
X-895000Y2531000D02*
X-895000Y2346000D01*
X-987500Y2438500D02*
X-802500Y2438500D01*
X-895000Y1769000D02*
X-895000Y1584000D01*
X-987500Y1676500D02*
X-802500Y1676500D01*
X-895000Y-1584000D02*
X-895000Y-1769000D01*
X-987500Y-1676500D02*
X-802500Y-1676500D01*
X-895000Y-2346000D02*
X-895000Y-2531000D01*
X-987500Y-2438500D02*
X-802500Y-2438500D01*
X745000Y2531000D02*
X745000Y2346000D01*
X652500Y2438500D02*
X837500Y2438500D01*
X745000Y1769000D02*
X745000Y1584000D01*
X652500Y1676500D02*
X837500Y1676500D01*
X745000Y-1584000D02*
X745000Y-1769000D01*
X652500Y-1676500D02*
X837500Y-1676500D01*
X745000Y-2346000D02*
X745000Y-2531000D01*
X652500Y-2438500D02*
X837500Y-2438500D01*
X2385000Y2531000D02*
X2385000Y2346000D01*
X2292500Y2438500D02*
X2477500Y2438500D01*
X2385000Y1769000D02*
X2385000Y1584000D01*
X2292500Y1676500D02*
X2477500Y1676500D01*
X2385000Y-1584000D02*
X2385000Y-1769000D01*
X2292500Y-1676500D02*
X2477500Y-1676500D01*
X2385000Y-2346000D02*
X2385000Y-2531000D01*
X2292500Y-2438500D02*
X2477500Y-2438500D01*
X4025000Y2531000D02*
X4025000Y2346000D01*
X3932500Y2438500D02*
X4117500Y2438500D01*
X4025000Y1769000D02*
X4025000Y1584000D01*
X3932500Y1676500D02*
X4117500Y1676500D01*
X4025000Y-1584000D02*
X4025000Y-1769000D01*
X3932500Y-1676500D02*
X4117500Y-1676500D01*
X4025000Y-2346000D02*
X4025000Y-2531000D01*
X3932500Y-2438500D02*
X4117500Y-2438500D01*
D13*
X-5904540Y-95460D02*
X-5904540Y95460D01*
X-6095460Y95460D01*
X-6095460Y-95460D01*
X-5904540Y-95460D01*
X-5204540Y-95460D02*
X-5204540Y95460D01*
X-5395460Y95460D01*
X-5395460Y-95460D01*
X-5204540Y-95460D01*
X5395460Y-95460D02*
X5395460Y95460D01*
X5204540Y95460D01*
X5204540Y-95460D01*
X5395460Y-95460D01*
X6095460Y-95460D02*
X6095460Y95460D01*
X5904540Y95460D01*
X5904540Y-95460D01*
X6095460Y-95460D01*
D11*
X-6154223Y-3366484D02*
X-6154223Y-3166484D01*
X-6154223Y-3166484D02*
X-6106604Y-3166484D01*
X-6106604Y-3166484D02*
X-6078033Y-3176008D01*
X-6078033Y-3176008D02*
X-6058985Y-3195055D01*
X-6058985Y-3195055D02*
X-6049461Y-3214103D01*
X-6049461Y-3214103D02*
X-6039937Y-3252198D01*
X-6039937Y-3252198D02*
X-6039937Y-3280769D01*
X-6039937Y-3280769D02*
X-6049461Y-3318865D01*
X-6049461Y-3318865D02*
X-6058985Y-3337912D01*
X-6058985Y-3337912D02*
X-6078033Y-3356960D01*
X-6078033Y-3356960D02*
X-6106604Y-3366484D01*
X-6106604Y-3366484D02*
X-6154223Y-3366484D01*
X-5954223Y-3366484D02*
X-5954223Y-3233150D01*
X-5954223Y-3271246D02*
X-5944699Y-3252198D01*
X-5944699Y-3252198D02*
X-5935175Y-3242674D01*
X-5935175Y-3242674D02*
X-5916128Y-3233150D01*
X-5916128Y-3233150D02*
X-5897080Y-3233150D01*
X-5830414Y-3366484D02*
X-5830414Y-3233150D01*
X-5830414Y-3166484D02*
X-5839937Y-3176008D01*
X-5839937Y-3176008D02*
X-5830414Y-3185531D01*
X-5830414Y-3185531D02*
X-5820890Y-3176008D01*
X-5820890Y-3176008D02*
X-5830414Y-3166484D01*
X-5830414Y-3166484D02*
X-5830414Y-3185531D01*
X-5706604Y-3366484D02*
X-5725652Y-3356960D01*
X-5725652Y-3356960D02*
X-5735175Y-3337912D01*
X-5735175Y-3337912D02*
X-5735175Y-3166484D01*
X-5601842Y-3366484D02*
X-5620890Y-3356960D01*
X-5620890Y-3356960D02*
X-5630414Y-3337912D01*
X-5630414Y-3337912D02*
X-5630414Y-3166484D01*
X-5373271Y-3366484D02*
X-5373271Y-3166484D01*
X-5373271Y-3166484D02*
X-5306604Y-3309341D01*
X-5306604Y-3309341D02*
X-5239937Y-3166484D01*
X-5239937Y-3166484D02*
X-5239937Y-3366484D01*
X-5058985Y-3366484D02*
X-5058985Y-3261722D01*
X-5058985Y-3261722D02*
X-5068509Y-3242674D01*
X-5068509Y-3242674D02*
X-5087556Y-3233150D01*
X-5087556Y-3233150D02*
X-5125652Y-3233150D01*
X-5125652Y-3233150D02*
X-5144699Y-3242674D01*
X-5058985Y-3356960D02*
X-5078033Y-3366484D01*
X-5078033Y-3366484D02*
X-5125652Y-3366484D01*
X-5125652Y-3366484D02*
X-5144699Y-3356960D01*
X-5144699Y-3356960D02*
X-5154223Y-3337912D01*
X-5154223Y-3337912D02*
X-5154223Y-3318865D01*
X-5154223Y-3318865D02*
X-5144699Y-3299817D01*
X-5144699Y-3299817D02*
X-5125652Y-3290293D01*
X-5125652Y-3290293D02*
X-5078033Y-3290293D01*
X-5078033Y-3290293D02*
X-5058985Y-3280769D01*
X-4963747Y-3233150D02*
X-4963747Y-3433150D01*
X-4963747Y-3242674D02*
X-4944699Y-3233150D01*
X-4944699Y-3233150D02*
X-4906604Y-3233150D01*
X-4906604Y-3233150D02*
X-4887556Y-3242674D01*
X-4887556Y-3242674D02*
X-4878033Y-3252198D01*
X-4878033Y-3252198D02*
X-4868509Y-3271246D01*
X-4868509Y-3271246D02*
X-4868509Y-3328388D01*
X-4868509Y-3328388D02*
X-4878033Y-3347436D01*
X-4878033Y-3347436D02*
X-4887556Y-3356960D01*
X-4887556Y-3356960D02*
X-4906604Y-3366484D01*
X-4906604Y-3366484D02*
X-4944699Y-3366484D01*
X-4944699Y-3366484D02*
X-4963747Y-3356960D01*
X-4782795Y-3347436D02*
X-4773271Y-3356960D01*
X-4773271Y-3356960D02*
X-4782795Y-3366484D01*
X-4782795Y-3366484D02*
X-4792318Y-3356960D01*
X-4792318Y-3356960D02*
X-4782795Y-3347436D01*
X-4782795Y-3347436D02*
X-4782795Y-3366484D01*
X-4782795Y-3242674D02*
X-4773271Y-3252198D01*
X-4773271Y-3252198D02*
X-4782795Y-3261722D01*
X-4782795Y-3261722D02*
X-4792318Y-3252198D01*
X-4792318Y-3252198D02*
X-4782795Y-3242674D01*
X-4782795Y-3242674D02*
X-4782795Y-3261722D01*
D10*
X-6455000Y-3675000D02*
X-6415000Y-3715000D01*
X-6415000Y-3675000D02*
X-6455000Y-3715000D01*
D11*
X-6116128Y-3586484D02*
X-6097080Y-3586484D01*
X-6097080Y-3586484D02*
X-6078033Y-3596008D01*
X-6078033Y-3596008D02*
X-6068509Y-3605531D01*
X-6068509Y-3605531D02*
X-6058985Y-3624579D01*
X-6058985Y-3624579D02*
X-6049461Y-3662674D01*
X-6049461Y-3662674D02*
X-6049461Y-3710293D01*
X-6049461Y-3710293D02*
X-6058985Y-3748388D01*
X-6058985Y-3748388D02*
X-6068509Y-3767436D01*
X-6068509Y-3767436D02*
X-6078033Y-3776960D01*
X-6078033Y-3776960D02*
X-6097080Y-3786484D01*
X-6097080Y-3786484D02*
X-6116128Y-3786484D01*
X-6116128Y-3786484D02*
X-6135175Y-3776960D01*
X-6135175Y-3776960D02*
X-6144699Y-3767436D01*
X-6144699Y-3767436D02*
X-6154223Y-3748388D01*
X-6154223Y-3748388D02*
X-6163747Y-3710293D01*
X-6163747Y-3710293D02*
X-6163747Y-3662674D01*
X-6163747Y-3662674D02*
X-6154223Y-3624579D01*
X-6154223Y-3624579D02*
X-6144699Y-3605531D01*
X-6144699Y-3605531D02*
X-6135175Y-3596008D01*
X-6135175Y-3596008D02*
X-6116128Y-3586484D01*
X-5963747Y-3767436D02*
X-5954223Y-3776960D01*
X-5954223Y-3776960D02*
X-5963747Y-3786484D01*
X-5963747Y-3786484D02*
X-5973271Y-3776960D01*
X-5973271Y-3776960D02*
X-5963747Y-3767436D01*
X-5963747Y-3767436D02*
X-5963747Y-3786484D01*
X-5782794Y-3653150D02*
X-5782794Y-3786484D01*
X-5830414Y-3576960D02*
X-5878033Y-3719817D01*
X-5878033Y-3719817D02*
X-5754223Y-3719817D01*
X-5639937Y-3586484D02*
X-5620890Y-3586484D01*
X-5620890Y-3586484D02*
X-5601842Y-3596008D01*
X-5601842Y-3596008D02*
X-5592318Y-3605531D01*
X-5592318Y-3605531D02*
X-5582795Y-3624579D01*
X-5582795Y-3624579D02*
X-5573271Y-3662674D01*
X-5573271Y-3662674D02*
X-5573271Y-3710293D01*
X-5573271Y-3710293D02*
X-5582795Y-3748388D01*
X-5582795Y-3748388D02*
X-5592318Y-3767436D01*
X-5592318Y-3767436D02*
X-5601842Y-3776960D01*
X-5601842Y-3776960D02*
X-5620890Y-3786484D01*
X-5620890Y-3786484D02*
X-5639937Y-3786484D01*
X-5639937Y-3786484D02*
X-5658985Y-3776960D01*
X-5658985Y-3776960D02*
X-5668509Y-3767436D01*
X-5668509Y-3767436D02*
X-5678033Y-3748388D01*
X-5678033Y-3748388D02*
X-5687556Y-3710293D01*
X-5687556Y-3710293D02*
X-5687556Y-3662674D01*
X-5687556Y-3662674D02*
X-5678033Y-3624579D01*
X-5678033Y-3624579D02*
X-5668509Y-3605531D01*
X-5668509Y-3605531D02*
X-5658985Y-3596008D01*
X-5658985Y-3596008D02*
X-5639937Y-3586484D01*
X-5449461Y-3586484D02*
X-5430414Y-3586484D01*
X-5430414Y-3586484D02*
X-5411366Y-3596008D01*
X-5411366Y-3596008D02*
X-5401842Y-3605531D01*
X-5401842Y-3605531D02*
X-5392318Y-3624579D01*
X-5392318Y-3624579D02*
X-5382795Y-3662674D01*
X-5382795Y-3662674D02*
X-5382795Y-3710293D01*
X-5382795Y-3710293D02*
X-5392318Y-3748388D01*
X-5392318Y-3748388D02*
X-5401842Y-3767436D01*
X-5401842Y-3767436D02*
X-5411366Y-3776960D01*
X-5411366Y-3776960D02*
X-5430414Y-3786484D01*
X-5430414Y-3786484D02*
X-5449461Y-3786484D01*
X-5449461Y-3786484D02*
X-5468509Y-3776960D01*
X-5468509Y-3776960D02*
X-5478033Y-3767436D01*
X-5478033Y-3767436D02*
X-5487556Y-3748388D01*
X-5487556Y-3748388D02*
X-5497080Y-3710293D01*
X-5497080Y-3710293D02*
X-5497080Y-3662674D01*
X-5497080Y-3662674D02*
X-5487556Y-3624579D01*
X-5487556Y-3624579D02*
X-5478033Y-3605531D01*
X-5478033Y-3605531D02*
X-5468509Y-3596008D01*
X-5468509Y-3596008D02*
X-5449461Y-3586484D01*
X-5297080Y-3786484D02*
X-5297080Y-3653150D01*
X-5297080Y-3672198D02*
X-5287556Y-3662674D01*
X-5287556Y-3662674D02*
X-5268509Y-3653150D01*
X-5268509Y-3653150D02*
X-5239937Y-3653150D01*
X-5239937Y-3653150D02*
X-5220890Y-3662674D01*
X-5220890Y-3662674D02*
X-5211366Y-3681722D01*
X-5211366Y-3681722D02*
X-5211366Y-3786484D01*
X-5211366Y-3681722D02*
X-5201842Y-3662674D01*
X-5201842Y-3662674D02*
X-5182795Y-3653150D01*
X-5182795Y-3653150D02*
X-5154223Y-3653150D01*
X-5154223Y-3653150D02*
X-5135175Y-3662674D01*
X-5135175Y-3662674D02*
X-5125652Y-3681722D01*
X-5125652Y-3681722D02*
X-5125652Y-3786484D01*
X-5030414Y-3786484D02*
X-5030414Y-3653150D01*
X-5030414Y-3672198D02*
X-5020890Y-3662674D01*
X-5020890Y-3662674D02*
X-5001842Y-3653150D01*
X-5001842Y-3653150D02*
X-4973271Y-3653150D01*
X-4973271Y-3653150D02*
X-4954223Y-3662674D01*
X-4954223Y-3662674D02*
X-4944699Y-3681722D01*
X-4944699Y-3681722D02*
X-4944699Y-3786484D01*
X-4944699Y-3681722D02*
X-4935175Y-3662674D01*
X-4935175Y-3662674D02*
X-4916128Y-3653150D01*
X-4916128Y-3653150D02*
X-4887556Y-3653150D01*
X-4887556Y-3653150D02*
X-4868509Y-3662674D01*
X-4868509Y-3662674D02*
X-4858985Y-3681722D01*
X-4858985Y-3681722D02*
X-4858985Y-3786484D01*
X-4468509Y-3576960D02*
X-4639937Y-3834103D01*
X-4211366Y-3586484D02*
X-4192318Y-3586484D01*
X-4192318Y-3586484D02*
X-4173270Y-3596008D01*
X-4173270Y-3596008D02*
X-4163747Y-3605531D01*
X-4163747Y-3605531D02*
X-4154223Y-3624579D01*
X-4154223Y-3624579D02*
X-4144699Y-3662674D01*
X-4144699Y-3662674D02*
X-4144699Y-3710293D01*
X-4144699Y-3710293D02*
X-4154223Y-3748388D01*
X-4154223Y-3748388D02*
X-4163747Y-3767436D01*
X-4163747Y-3767436D02*
X-4173270Y-3776960D01*
X-4173270Y-3776960D02*
X-4192318Y-3786484D01*
X-4192318Y-3786484D02*
X-4211366Y-3786484D01*
X-4211366Y-3786484D02*
X-4230413Y-3776960D01*
X-4230413Y-3776960D02*
X-4239937Y-3767436D01*
X-4239937Y-3767436D02*
X-4249461Y-3748388D01*
X-4249461Y-3748388D02*
X-4258985Y-3710293D01*
X-4258985Y-3710293D02*
X-4258985Y-3662674D01*
X-4258985Y-3662674D02*
X-4249461Y-3624579D01*
X-4249461Y-3624579D02*
X-4239937Y-3605531D01*
X-4239937Y-3605531D02*
X-4230413Y-3596008D01*
X-4230413Y-3596008D02*
X-4211366Y-3586484D01*
X-4058985Y-3767436D02*
X-4049461Y-3776960D01*
X-4049461Y-3776960D02*
X-4058985Y-3786484D01*
X-4058985Y-3786484D02*
X-4068509Y-3776960D01*
X-4068509Y-3776960D02*
X-4058985Y-3767436D01*
X-4058985Y-3767436D02*
X-4058985Y-3786484D01*
X-3925651Y-3586484D02*
X-3906604Y-3586484D01*
X-3906604Y-3586484D02*
X-3887556Y-3596008D01*
X-3887556Y-3596008D02*
X-3878032Y-3605531D01*
X-3878032Y-3605531D02*
X-3868509Y-3624579D01*
X-3868509Y-3624579D02*
X-3858985Y-3662674D01*
X-3858985Y-3662674D02*
X-3858985Y-3710293D01*
X-3858985Y-3710293D02*
X-3868509Y-3748388D01*
X-3868509Y-3748388D02*
X-3878032Y-3767436D01*
X-3878032Y-3767436D02*
X-3887556Y-3776960D01*
X-3887556Y-3776960D02*
X-3906604Y-3786484D01*
X-3906604Y-3786484D02*
X-3925651Y-3786484D01*
X-3925651Y-3786484D02*
X-3944699Y-3776960D01*
X-3944699Y-3776960D02*
X-3954223Y-3767436D01*
X-3954223Y-3767436D02*
X-3963747Y-3748388D01*
X-3963747Y-3748388D02*
X-3973270Y-3710293D01*
X-3973270Y-3710293D02*
X-3973270Y-3662674D01*
X-3973270Y-3662674D02*
X-3963747Y-3624579D01*
X-3963747Y-3624579D02*
X-3954223Y-3605531D01*
X-3954223Y-3605531D02*
X-3944699Y-3596008D01*
X-3944699Y-3596008D02*
X-3925651Y-3586484D01*
X-3668509Y-3786484D02*
X-3782794Y-3786484D01*
X-3725651Y-3786484D02*
X-3725651Y-3586484D01*
X-3725651Y-3586484D02*
X-3744699Y-3615055D01*
X-3744699Y-3615055D02*
X-3763747Y-3634103D01*
X-3763747Y-3634103D02*
X-3782794Y-3643627D01*
X-3487556Y-3586484D02*
X-3582794Y-3586484D01*
X-3582794Y-3586484D02*
X-3592318Y-3681722D01*
X-3592318Y-3681722D02*
X-3582794Y-3672198D01*
X-3582794Y-3672198D02*
X-3563747Y-3662674D01*
X-3563747Y-3662674D02*
X-3516128Y-3662674D01*
X-3516128Y-3662674D02*
X-3497080Y-3672198D01*
X-3497080Y-3672198D02*
X-3487556Y-3681722D01*
X-3487556Y-3681722D02*
X-3478032Y-3700769D01*
X-3478032Y-3700769D02*
X-3478032Y-3748388D01*
X-3478032Y-3748388D02*
X-3487556Y-3767436D01*
X-3487556Y-3767436D02*
X-3497080Y-3776960D01*
X-3497080Y-3776960D02*
X-3516128Y-3786484D01*
X-3516128Y-3786484D02*
X-3563747Y-3786484D01*
X-3563747Y-3786484D02*
X-3582794Y-3776960D01*
X-3582794Y-3776960D02*
X-3592318Y-3767436D01*
X-3411366Y-3586484D02*
X-3278032Y-3586484D01*
X-3278032Y-3586484D02*
X-3363747Y-3786484D01*
X-3211366Y-3586484D02*
X-3211366Y-3624579D01*
X-3135175Y-3586484D02*
X-3135175Y-3624579D01*
X-2839937Y-3862674D02*
X-2849461Y-3853150D01*
X-2849461Y-3853150D02*
X-2868508Y-3824579D01*
X-2868508Y-3824579D02*
X-2878032Y-3805531D01*
X-2878032Y-3805531D02*
X-2887556Y-3776960D01*
X-2887556Y-3776960D02*
X-2897080Y-3729341D01*
X-2897080Y-3729341D02*
X-2897080Y-3691246D01*
X-2897080Y-3691246D02*
X-2887556Y-3643627D01*
X-2887556Y-3643627D02*
X-2878032Y-3615055D01*
X-2878032Y-3615055D02*
X-2868508Y-3596008D01*
X-2868508Y-3596008D02*
X-2849461Y-3567436D01*
X-2849461Y-3567436D02*
X-2839937Y-3557912D01*
X-2782794Y-3586484D02*
X-2658985Y-3586484D01*
X-2658985Y-3586484D02*
X-2725651Y-3662674D01*
X-2725651Y-3662674D02*
X-2697080Y-3662674D01*
X-2697080Y-3662674D02*
X-2678032Y-3672198D01*
X-2678032Y-3672198D02*
X-2668509Y-3681722D01*
X-2668509Y-3681722D02*
X-2658985Y-3700769D01*
X-2658985Y-3700769D02*
X-2658985Y-3748388D01*
X-2658985Y-3748388D02*
X-2668509Y-3767436D01*
X-2668509Y-3767436D02*
X-2678032Y-3776960D01*
X-2678032Y-3776960D02*
X-2697080Y-3786484D01*
X-2697080Y-3786484D02*
X-2754223Y-3786484D01*
X-2754223Y-3786484D02*
X-2773270Y-3776960D01*
X-2773270Y-3776960D02*
X-2782794Y-3767436D01*
X-2592318Y-3586484D02*
X-2458985Y-3586484D01*
X-2458985Y-3586484D02*
X-2544699Y-3786484D01*
X-2392318Y-3605531D02*
X-2382794Y-3596008D01*
X-2382794Y-3596008D02*
X-2363747Y-3586484D01*
X-2363747Y-3586484D02*
X-2316128Y-3586484D01*
X-2316128Y-3586484D02*
X-2297080Y-3596008D01*
X-2297080Y-3596008D02*
X-2287556Y-3605531D01*
X-2287556Y-3605531D02*
X-2278032Y-3624579D01*
X-2278032Y-3624579D02*
X-2278032Y-3643627D01*
X-2278032Y-3643627D02*
X-2287556Y-3672198D01*
X-2287556Y-3672198D02*
X-2401842Y-3786484D01*
X-2401842Y-3786484D02*
X-2278032Y-3786484D01*
X-2039937Y-3786484D02*
X-2039937Y-3586484D01*
X-1954223Y-3786484D02*
X-1954223Y-3681722D01*
X-1954223Y-3681722D02*
X-1963746Y-3662674D01*
X-1963746Y-3662674D02*
X-1982794Y-3653150D01*
X-1982794Y-3653150D02*
X-2011366Y-3653150D01*
X-2011366Y-3653150D02*
X-2030413Y-3662674D01*
X-2030413Y-3662674D02*
X-2039937Y-3672198D01*
X-1830413Y-3786484D02*
X-1849461Y-3776960D01*
X-1849461Y-3776960D02*
X-1858985Y-3767436D01*
X-1858985Y-3767436D02*
X-1868508Y-3748388D01*
X-1868508Y-3748388D02*
X-1868508Y-3691246D01*
X-1868508Y-3691246D02*
X-1858985Y-3672198D01*
X-1858985Y-3672198D02*
X-1849461Y-3662674D01*
X-1849461Y-3662674D02*
X-1830413Y-3653150D01*
X-1830413Y-3653150D02*
X-1801842Y-3653150D01*
X-1801842Y-3653150D02*
X-1782794Y-3662674D01*
X-1782794Y-3662674D02*
X-1773270Y-3672198D01*
X-1773270Y-3672198D02*
X-1763746Y-3691246D01*
X-1763746Y-3691246D02*
X-1763746Y-3748388D01*
X-1763746Y-3748388D02*
X-1773270Y-3767436D01*
X-1773270Y-3767436D02*
X-1782794Y-3776960D01*
X-1782794Y-3776960D02*
X-1801842Y-3786484D01*
X-1801842Y-3786484D02*
X-1830413Y-3786484D01*
X-1649461Y-3786484D02*
X-1668508Y-3776960D01*
X-1668508Y-3776960D02*
X-1678032Y-3757912D01*
X-1678032Y-3757912D02*
X-1678032Y-3586484D01*
X-1497080Y-3776960D02*
X-1516127Y-3786484D01*
X-1516127Y-3786484D02*
X-1554223Y-3786484D01*
X-1554223Y-3786484D02*
X-1573270Y-3776960D01*
X-1573270Y-3776960D02*
X-1582794Y-3757912D01*
X-1582794Y-3757912D02*
X-1582794Y-3681722D01*
X-1582794Y-3681722D02*
X-1573270Y-3662674D01*
X-1573270Y-3662674D02*
X-1554223Y-3653150D01*
X-1554223Y-3653150D02*
X-1516127Y-3653150D01*
X-1516127Y-3653150D02*
X-1497080Y-3662674D01*
X-1497080Y-3662674D02*
X-1487556Y-3681722D01*
X-1487556Y-3681722D02*
X-1487556Y-3700769D01*
X-1487556Y-3700769D02*
X-1582794Y-3719817D01*
X-1411365Y-3776960D02*
X-1392318Y-3786484D01*
X-1392318Y-3786484D02*
X-1354223Y-3786484D01*
X-1354223Y-3786484D02*
X-1335175Y-3776960D01*
X-1335175Y-3776960D02*
X-1325651Y-3757912D01*
X-1325651Y-3757912D02*
X-1325651Y-3748388D01*
X-1325651Y-3748388D02*
X-1335175Y-3729341D01*
X-1335175Y-3729341D02*
X-1354223Y-3719817D01*
X-1354223Y-3719817D02*
X-1382794Y-3719817D01*
X-1382794Y-3719817D02*
X-1401842Y-3710293D01*
X-1401842Y-3710293D02*
X-1411365Y-3691246D01*
X-1411365Y-3691246D02*
X-1411365Y-3681722D01*
X-1411365Y-3681722D02*
X-1401842Y-3662674D01*
X-1401842Y-3662674D02*
X-1382794Y-3653150D01*
X-1382794Y-3653150D02*
X-1354223Y-3653150D01*
X-1354223Y-3653150D02*
X-1335175Y-3662674D01*
X-1258985Y-3862674D02*
X-1249461Y-3853150D01*
X-1249461Y-3853150D02*
X-1230413Y-3824579D01*
X-1230413Y-3824579D02*
X-1220889Y-3805531D01*
X-1220889Y-3805531D02*
X-1211366Y-3776960D01*
X-1211366Y-3776960D02*
X-1201842Y-3729341D01*
X-1201842Y-3729341D02*
X-1201842Y-3691246D01*
X-1201842Y-3691246D02*
X-1211366Y-3643627D01*
X-1211366Y-3643627D02*
X-1220889Y-3615055D01*
X-1220889Y-3615055D02*
X-1230413Y-3596008D01*
X-1230413Y-3596008D02*
X-1249461Y-3567436D01*
X-1249461Y-3567436D02*
X-1258985Y-3557912D01*
D10*
X-6415000Y-3959000D02*
G75*
G02*
X-6515000Y-3959000I-50000J0D01*
G01*
X-6515000Y-3959000D02*
G75*
G02*
X-6415000Y-3959000I50000J0D01*
G01*
D11*
X-6049461Y-4050484D02*
X-6163747Y-4050484D01*
X-6106604Y-4050484D02*
X-6106604Y-3850484D01*
X-6106604Y-3850484D02*
X-6125652Y-3879055D01*
X-6125652Y-3879055D02*
X-6144699Y-3898103D01*
X-6144699Y-3898103D02*
X-6163747Y-3907627D01*
X-5963747Y-4031436D02*
X-5954223Y-4040960D01*
X-5954223Y-4040960D02*
X-5963747Y-4050484D01*
X-5963747Y-4050484D02*
X-5973271Y-4040960D01*
X-5973271Y-4040960D02*
X-5963747Y-4031436D01*
X-5963747Y-4031436D02*
X-5963747Y-4050484D01*
X-5830414Y-3850484D02*
X-5811366Y-3850484D01*
X-5811366Y-3850484D02*
X-5792318Y-3860008D01*
X-5792318Y-3860008D02*
X-5782794Y-3869531D01*
X-5782794Y-3869531D02*
X-5773271Y-3888579D01*
X-5773271Y-3888579D02*
X-5763747Y-3926674D01*
X-5763747Y-3926674D02*
X-5763747Y-3974293D01*
X-5763747Y-3974293D02*
X-5773271Y-4012388D01*
X-5773271Y-4012388D02*
X-5782794Y-4031436D01*
X-5782794Y-4031436D02*
X-5792318Y-4040960D01*
X-5792318Y-4040960D02*
X-5811366Y-4050484D01*
X-5811366Y-4050484D02*
X-5830414Y-4050484D01*
X-5830414Y-4050484D02*
X-5849461Y-4040960D01*
X-5849461Y-4040960D02*
X-5858985Y-4031436D01*
X-5858985Y-4031436D02*
X-5868509Y-4012388D01*
X-5868509Y-4012388D02*
X-5878033Y-3974293D01*
X-5878033Y-3974293D02*
X-5878033Y-3926674D01*
X-5878033Y-3926674D02*
X-5868509Y-3888579D01*
X-5868509Y-3888579D02*
X-5858985Y-3869531D01*
X-5858985Y-3869531D02*
X-5849461Y-3860008D01*
X-5849461Y-3860008D02*
X-5830414Y-3850484D01*
X-5639937Y-3850484D02*
X-5620890Y-3850484D01*
X-5620890Y-3850484D02*
X-5601842Y-3860008D01*
X-5601842Y-3860008D02*
X-5592318Y-3869531D01*
X-5592318Y-3869531D02*
X-5582795Y-3888579D01*
X-5582795Y-3888579D02*
X-5573271Y-3926674D01*
X-5573271Y-3926674D02*
X-5573271Y-3974293D01*
X-5573271Y-3974293D02*
X-5582795Y-4012388D01*
X-5582795Y-4012388D02*
X-5592318Y-4031436D01*
X-5592318Y-4031436D02*
X-5601842Y-4040960D01*
X-5601842Y-4040960D02*
X-5620890Y-4050484D01*
X-5620890Y-4050484D02*
X-5639937Y-4050484D01*
X-5639937Y-4050484D02*
X-5658985Y-4040960D01*
X-5658985Y-4040960D02*
X-5668509Y-4031436D01*
X-5668509Y-4031436D02*
X-5678033Y-4012388D01*
X-5678033Y-4012388D02*
X-5687556Y-3974293D01*
X-5687556Y-3974293D02*
X-5687556Y-3926674D01*
X-5687556Y-3926674D02*
X-5678033Y-3888579D01*
X-5678033Y-3888579D02*
X-5668509Y-3869531D01*
X-5668509Y-3869531D02*
X-5658985Y-3860008D01*
X-5658985Y-3860008D02*
X-5639937Y-3850484D01*
X-5449461Y-3850484D02*
X-5430414Y-3850484D01*
X-5430414Y-3850484D02*
X-5411366Y-3860008D01*
X-5411366Y-3860008D02*
X-5401842Y-3869531D01*
X-5401842Y-3869531D02*
X-5392318Y-3888579D01*
X-5392318Y-3888579D02*
X-5382795Y-3926674D01*
X-5382795Y-3926674D02*
X-5382795Y-3974293D01*
X-5382795Y-3974293D02*
X-5392318Y-4012388D01*
X-5392318Y-4012388D02*
X-5401842Y-4031436D01*
X-5401842Y-4031436D02*
X-5411366Y-4040960D01*
X-5411366Y-4040960D02*
X-5430414Y-4050484D01*
X-5430414Y-4050484D02*
X-5449461Y-4050484D01*
X-5449461Y-4050484D02*
X-5468509Y-4040960D01*
X-5468509Y-4040960D02*
X-5478033Y-4031436D01*
X-5478033Y-4031436D02*
X-5487556Y-4012388D01*
X-5487556Y-4012388D02*
X-5497080Y-3974293D01*
X-5497080Y-3974293D02*
X-5497080Y-3926674D01*
X-5497080Y-3926674D02*
X-5487556Y-3888579D01*
X-5487556Y-3888579D02*
X-5478033Y-3869531D01*
X-5478033Y-3869531D02*
X-5468509Y-3860008D01*
X-5468509Y-3860008D02*
X-5449461Y-3850484D01*
X-5297080Y-4050484D02*
X-5297080Y-3917150D01*
X-5297080Y-3936198D02*
X-5287556Y-3926674D01*
X-5287556Y-3926674D02*
X-5268509Y-3917150D01*
X-5268509Y-3917150D02*
X-5239937Y-3917150D01*
X-5239937Y-3917150D02*
X-5220890Y-3926674D01*
X-5220890Y-3926674D02*
X-5211366Y-3945722D01*
X-5211366Y-3945722D02*
X-5211366Y-4050484D01*
X-5211366Y-3945722D02*
X-5201842Y-3926674D01*
X-5201842Y-3926674D02*
X-5182795Y-3917150D01*
X-5182795Y-3917150D02*
X-5154223Y-3917150D01*
X-5154223Y-3917150D02*
X-5135175Y-3926674D01*
X-5135175Y-3926674D02*
X-5125652Y-3945722D01*
X-5125652Y-3945722D02*
X-5125652Y-4050484D01*
X-5030414Y-4050484D02*
X-5030414Y-3917150D01*
X-5030414Y-3936198D02*
X-5020890Y-3926674D01*
X-5020890Y-3926674D02*
X-5001842Y-3917150D01*
X-5001842Y-3917150D02*
X-4973271Y-3917150D01*
X-4973271Y-3917150D02*
X-4954223Y-3926674D01*
X-4954223Y-3926674D02*
X-4944699Y-3945722D01*
X-4944699Y-3945722D02*
X-4944699Y-4050484D01*
X-4944699Y-3945722D02*
X-4935175Y-3926674D01*
X-4935175Y-3926674D02*
X-4916128Y-3917150D01*
X-4916128Y-3917150D02*
X-4887556Y-3917150D01*
X-4887556Y-3917150D02*
X-4868509Y-3926674D01*
X-4868509Y-3926674D02*
X-4858985Y-3945722D01*
X-4858985Y-3945722D02*
X-4858985Y-4050484D01*
X-4468509Y-3840960D02*
X-4639937Y-4098103D01*
X-4211366Y-3850484D02*
X-4192318Y-3850484D01*
X-4192318Y-3850484D02*
X-4173270Y-3860008D01*
X-4173270Y-3860008D02*
X-4163747Y-3869531D01*
X-4163747Y-3869531D02*
X-4154223Y-3888579D01*
X-4154223Y-3888579D02*
X-4144699Y-3926674D01*
X-4144699Y-3926674D02*
X-4144699Y-3974293D01*
X-4144699Y-3974293D02*
X-4154223Y-4012388D01*
X-4154223Y-4012388D02*
X-4163747Y-4031436D01*
X-4163747Y-4031436D02*
X-4173270Y-4040960D01*
X-4173270Y-4040960D02*
X-4192318Y-4050484D01*
X-4192318Y-4050484D02*
X-4211366Y-4050484D01*
X-4211366Y-4050484D02*
X-4230413Y-4040960D01*
X-4230413Y-4040960D02*
X-4239937Y-4031436D01*
X-4239937Y-4031436D02*
X-4249461Y-4012388D01*
X-4249461Y-4012388D02*
X-4258985Y-3974293D01*
X-4258985Y-3974293D02*
X-4258985Y-3926674D01*
X-4258985Y-3926674D02*
X-4249461Y-3888579D01*
X-4249461Y-3888579D02*
X-4239937Y-3869531D01*
X-4239937Y-3869531D02*
X-4230413Y-3860008D01*
X-4230413Y-3860008D02*
X-4211366Y-3850484D01*
X-4058985Y-4031436D02*
X-4049461Y-4040960D01*
X-4049461Y-4040960D02*
X-4058985Y-4050484D01*
X-4058985Y-4050484D02*
X-4068509Y-4040960D01*
X-4068509Y-4040960D02*
X-4058985Y-4031436D01*
X-4058985Y-4031436D02*
X-4058985Y-4050484D01*
X-3925651Y-3850484D02*
X-3906604Y-3850484D01*
X-3906604Y-3850484D02*
X-3887556Y-3860008D01*
X-3887556Y-3860008D02*
X-3878032Y-3869531D01*
X-3878032Y-3869531D02*
X-3868509Y-3888579D01*
X-3868509Y-3888579D02*
X-3858985Y-3926674D01*
X-3858985Y-3926674D02*
X-3858985Y-3974293D01*
X-3858985Y-3974293D02*
X-3868509Y-4012388D01*
X-3868509Y-4012388D02*
X-3878032Y-4031436D01*
X-3878032Y-4031436D02*
X-3887556Y-4040960D01*
X-3887556Y-4040960D02*
X-3906604Y-4050484D01*
X-3906604Y-4050484D02*
X-3925651Y-4050484D01*
X-3925651Y-4050484D02*
X-3944699Y-4040960D01*
X-3944699Y-4040960D02*
X-3954223Y-4031436D01*
X-3954223Y-4031436D02*
X-3963747Y-4012388D01*
X-3963747Y-4012388D02*
X-3973270Y-3974293D01*
X-3973270Y-3974293D02*
X-3973270Y-3926674D01*
X-3973270Y-3926674D02*
X-3963747Y-3888579D01*
X-3963747Y-3888579D02*
X-3954223Y-3869531D01*
X-3954223Y-3869531D02*
X-3944699Y-3860008D01*
X-3944699Y-3860008D02*
X-3925651Y-3850484D01*
X-3792318Y-3850484D02*
X-3668509Y-3850484D01*
X-3668509Y-3850484D02*
X-3735175Y-3926674D01*
X-3735175Y-3926674D02*
X-3706604Y-3926674D01*
X-3706604Y-3926674D02*
X-3687556Y-3936198D01*
X-3687556Y-3936198D02*
X-3678032Y-3945722D01*
X-3678032Y-3945722D02*
X-3668509Y-3964769D01*
X-3668509Y-3964769D02*
X-3668509Y-4012388D01*
X-3668509Y-4012388D02*
X-3678032Y-4031436D01*
X-3678032Y-4031436D02*
X-3687556Y-4040960D01*
X-3687556Y-4040960D02*
X-3706604Y-4050484D01*
X-3706604Y-4050484D02*
X-3763747Y-4050484D01*
X-3763747Y-4050484D02*
X-3782794Y-4040960D01*
X-3782794Y-4040960D02*
X-3792318Y-4031436D01*
X-3573270Y-4050484D02*
X-3535175Y-4050484D01*
X-3535175Y-4050484D02*
X-3516128Y-4040960D01*
X-3516128Y-4040960D02*
X-3506604Y-4031436D01*
X-3506604Y-4031436D02*
X-3487556Y-4002865D01*
X-3487556Y-4002865D02*
X-3478032Y-3964769D01*
X-3478032Y-3964769D02*
X-3478032Y-3888579D01*
X-3478032Y-3888579D02*
X-3487556Y-3869531D01*
X-3487556Y-3869531D02*
X-3497080Y-3860008D01*
X-3497080Y-3860008D02*
X-3516128Y-3850484D01*
X-3516128Y-3850484D02*
X-3554223Y-3850484D01*
X-3554223Y-3850484D02*
X-3573270Y-3860008D01*
X-3573270Y-3860008D02*
X-3582794Y-3869531D01*
X-3582794Y-3869531D02*
X-3592318Y-3888579D01*
X-3592318Y-3888579D02*
X-3592318Y-3936198D01*
X-3592318Y-3936198D02*
X-3582794Y-3955246D01*
X-3582794Y-3955246D02*
X-3573270Y-3964769D01*
X-3573270Y-3964769D02*
X-3554223Y-3974293D01*
X-3554223Y-3974293D02*
X-3516128Y-3974293D01*
X-3516128Y-3974293D02*
X-3497080Y-3964769D01*
X-3497080Y-3964769D02*
X-3487556Y-3955246D01*
X-3487556Y-3955246D02*
X-3478032Y-3936198D01*
X-3306604Y-3917150D02*
X-3306604Y-4050484D01*
X-3354223Y-3840960D02*
X-3401842Y-3983817D01*
X-3401842Y-3983817D02*
X-3278032Y-3983817D01*
X-3211366Y-3850484D02*
X-3211366Y-3888579D01*
X-3135175Y-3850484D02*
X-3135175Y-3888579D01*
X-2839937Y-4126674D02*
X-2849461Y-4117150D01*
X-2849461Y-4117150D02*
X-2868508Y-4088579D01*
X-2868508Y-4088579D02*
X-2878032Y-4069531D01*
X-2878032Y-4069531D02*
X-2887556Y-4040960D01*
X-2887556Y-4040960D02*
X-2897080Y-3993341D01*
X-2897080Y-3993341D02*
X-2897080Y-3955246D01*
X-2897080Y-3955246D02*
X-2887556Y-3907627D01*
X-2887556Y-3907627D02*
X-2878032Y-3879055D01*
X-2878032Y-3879055D02*
X-2868508Y-3860008D01*
X-2868508Y-3860008D02*
X-2849461Y-3831436D01*
X-2849461Y-3831436D02*
X-2839937Y-3821912D01*
X-2658985Y-4050484D02*
X-2773270Y-4050484D01*
X-2716128Y-4050484D02*
X-2716128Y-3850484D01*
X-2716128Y-3850484D02*
X-2735175Y-3879055D01*
X-2735175Y-3879055D02*
X-2754223Y-3898103D01*
X-2754223Y-3898103D02*
X-2773270Y-3907627D01*
X-2582794Y-3869531D02*
X-2573270Y-3860008D01*
X-2573270Y-3860008D02*
X-2554223Y-3850484D01*
X-2554223Y-3850484D02*
X-2506604Y-3850484D01*
X-2506604Y-3850484D02*
X-2487556Y-3860008D01*
X-2487556Y-3860008D02*
X-2478032Y-3869531D01*
X-2478032Y-3869531D02*
X-2468509Y-3888579D01*
X-2468509Y-3888579D02*
X-2468509Y-3907627D01*
X-2468509Y-3907627D02*
X-2478032Y-3936198D01*
X-2478032Y-3936198D02*
X-2592318Y-4050484D01*
X-2592318Y-4050484D02*
X-2468509Y-4050484D01*
X-2230413Y-4050484D02*
X-2230413Y-3850484D01*
X-2144699Y-4050484D02*
X-2144699Y-3945722D01*
X-2144699Y-3945722D02*
X-2154223Y-3926674D01*
X-2154223Y-3926674D02*
X-2173270Y-3917150D01*
X-2173270Y-3917150D02*
X-2201842Y-3917150D01*
X-2201842Y-3917150D02*
X-2220889Y-3926674D01*
X-2220889Y-3926674D02*
X-2230413Y-3936198D01*
X-2020889Y-4050484D02*
X-2039937Y-4040960D01*
X-2039937Y-4040960D02*
X-2049461Y-4031436D01*
X-2049461Y-4031436D02*
X-2058985Y-4012388D01*
X-2058985Y-4012388D02*
X-2058985Y-3955246D01*
X-2058985Y-3955246D02*
X-2049461Y-3936198D01*
X-2049461Y-3936198D02*
X-2039937Y-3926674D01*
X-2039937Y-3926674D02*
X-2020889Y-3917150D01*
X-2020889Y-3917150D02*
X-1992318Y-3917150D01*
X-1992318Y-3917150D02*
X-1973270Y-3926674D01*
X-1973270Y-3926674D02*
X-1963746Y-3936198D01*
X-1963746Y-3936198D02*
X-1954223Y-3955246D01*
X-1954223Y-3955246D02*
X-1954223Y-4012388D01*
X-1954223Y-4012388D02*
X-1963746Y-4031436D01*
X-1963746Y-4031436D02*
X-1973270Y-4040960D01*
X-1973270Y-4040960D02*
X-1992318Y-4050484D01*
X-1992318Y-4050484D02*
X-2020889Y-4050484D01*
X-1839937Y-4050484D02*
X-1858985Y-4040960D01*
X-1858985Y-4040960D02*
X-1868508Y-4021912D01*
X-1868508Y-4021912D02*
X-1868508Y-3850484D01*
X-1687556Y-4040960D02*
X-1706604Y-4050484D01*
X-1706604Y-4050484D02*
X-1744699Y-4050484D01*
X-1744699Y-4050484D02*
X-1763746Y-4040960D01*
X-1763746Y-4040960D02*
X-1773270Y-4021912D01*
X-1773270Y-4021912D02*
X-1773270Y-3945722D01*
X-1773270Y-3945722D02*
X-1763746Y-3926674D01*
X-1763746Y-3926674D02*
X-1744699Y-3917150D01*
X-1744699Y-3917150D02*
X-1706604Y-3917150D01*
X-1706604Y-3917150D02*
X-1687556Y-3926674D01*
X-1687556Y-3926674D02*
X-1678032Y-3945722D01*
X-1678032Y-3945722D02*
X-1678032Y-3964769D01*
X-1678032Y-3964769D02*
X-1773270Y-3983817D01*
X-1601842Y-4040960D02*
X-1582794Y-4050484D01*
X-1582794Y-4050484D02*
X-1544699Y-4050484D01*
X-1544699Y-4050484D02*
X-1525651Y-4040960D01*
X-1525651Y-4040960D02*
X-1516127Y-4021912D01*
X-1516127Y-4021912D02*
X-1516127Y-4012388D01*
X-1516127Y-4012388D02*
X-1525651Y-3993341D01*
X-1525651Y-3993341D02*
X-1544699Y-3983817D01*
X-1544699Y-3983817D02*
X-1573270Y-3983817D01*
X-1573270Y-3983817D02*
X-1592318Y-3974293D01*
X-1592318Y-3974293D02*
X-1601842Y-3955246D01*
X-1601842Y-3955246D02*
X-1601842Y-3945722D01*
X-1601842Y-3945722D02*
X-1592318Y-3926674D01*
X-1592318Y-3926674D02*
X-1573270Y-3917150D01*
X-1573270Y-3917150D02*
X-1544699Y-3917150D01*
X-1544699Y-3917150D02*
X-1525651Y-3926674D01*
X-1449461Y-4126674D02*
X-1439937Y-4117150D01*
X-1439937Y-4117150D02*
X-1420889Y-4088579D01*
X-1420889Y-4088579D02*
X-1411365Y-4069531D01*
X-1411365Y-4069531D02*
X-1401842Y-4040960D01*
X-1401842Y-4040960D02*
X-1392318Y-3993341D01*
X-1392318Y-3993341D02*
X-1392318Y-3955246D01*
X-1392318Y-3955246D02*
X-1401842Y-3907627D01*
X-1401842Y-3907627D02*
X-1411365Y-3879055D01*
X-1411365Y-3879055D02*
X-1420889Y-3860008D01*
X-1420889Y-3860008D02*
X-1439937Y-3831436D01*
X-1439937Y-3831436D02*
X-1449461Y-3821912D01*
D12*
X-6507500Y-4130500D02*
X-6507500Y-4315500D01*
X-6600000Y-4223000D02*
X-6415000Y-4223000D01*
D11*
X-6049461Y-4314484D02*
X-6163747Y-4314484D01*
X-6106604Y-4314484D02*
X-6106604Y-4114484D01*
X-6106604Y-4114484D02*
X-6125652Y-4143055D01*
X-6125652Y-4143055D02*
X-6144699Y-4162103D01*
X-6144699Y-4162103D02*
X-6163747Y-4171627D01*
X-5963747Y-4295436D02*
X-5954223Y-4304960D01*
X-5954223Y-4304960D02*
X-5963747Y-4314484D01*
X-5963747Y-4314484D02*
X-5973271Y-4304960D01*
X-5973271Y-4304960D02*
X-5963747Y-4295436D01*
X-5963747Y-4295436D02*
X-5963747Y-4314484D01*
X-5839937Y-4200198D02*
X-5858985Y-4190674D01*
X-5858985Y-4190674D02*
X-5868509Y-4181150D01*
X-5868509Y-4181150D02*
X-5878033Y-4162103D01*
X-5878033Y-4162103D02*
X-5878033Y-4152579D01*
X-5878033Y-4152579D02*
X-5868509Y-4133531D01*
X-5868509Y-4133531D02*
X-5858985Y-4124008D01*
X-5858985Y-4124008D02*
X-5839937Y-4114484D01*
X-5839937Y-4114484D02*
X-5801842Y-4114484D01*
X-5801842Y-4114484D02*
X-5782794Y-4124008D01*
X-5782794Y-4124008D02*
X-5773271Y-4133531D01*
X-5773271Y-4133531D02*
X-5763747Y-4152579D01*
X-5763747Y-4152579D02*
X-5763747Y-4162103D01*
X-5763747Y-4162103D02*
X-5773271Y-4181150D01*
X-5773271Y-4181150D02*
X-5782794Y-4190674D01*
X-5782794Y-4190674D02*
X-5801842Y-4200198D01*
X-5801842Y-4200198D02*
X-5839937Y-4200198D01*
X-5839937Y-4200198D02*
X-5858985Y-4209722D01*
X-5858985Y-4209722D02*
X-5868509Y-4219246D01*
X-5868509Y-4219246D02*
X-5878033Y-4238293D01*
X-5878033Y-4238293D02*
X-5878033Y-4276389D01*
X-5878033Y-4276389D02*
X-5868509Y-4295436D01*
X-5868509Y-4295436D02*
X-5858985Y-4304960D01*
X-5858985Y-4304960D02*
X-5839937Y-4314484D01*
X-5839937Y-4314484D02*
X-5801842Y-4314484D01*
X-5801842Y-4314484D02*
X-5782794Y-4304960D01*
X-5782794Y-4304960D02*
X-5773271Y-4295436D01*
X-5773271Y-4295436D02*
X-5763747Y-4276389D01*
X-5763747Y-4276389D02*
X-5763747Y-4238293D01*
X-5763747Y-4238293D02*
X-5773271Y-4219246D01*
X-5773271Y-4219246D02*
X-5782794Y-4209722D01*
X-5782794Y-4209722D02*
X-5801842Y-4200198D01*
X-5582795Y-4114484D02*
X-5678033Y-4114484D01*
X-5678033Y-4114484D02*
X-5687556Y-4209722D01*
X-5687556Y-4209722D02*
X-5678033Y-4200198D01*
X-5678033Y-4200198D02*
X-5658985Y-4190674D01*
X-5658985Y-4190674D02*
X-5611366Y-4190674D01*
X-5611366Y-4190674D02*
X-5592318Y-4200198D01*
X-5592318Y-4200198D02*
X-5582795Y-4209722D01*
X-5582795Y-4209722D02*
X-5573271Y-4228770D01*
X-5573271Y-4228770D02*
X-5573271Y-4276389D01*
X-5573271Y-4276389D02*
X-5582795Y-4295436D01*
X-5582795Y-4295436D02*
X-5592318Y-4304960D01*
X-5592318Y-4304960D02*
X-5611366Y-4314484D01*
X-5611366Y-4314484D02*
X-5658985Y-4314484D01*
X-5658985Y-4314484D02*
X-5678033Y-4304960D01*
X-5678033Y-4304960D02*
X-5687556Y-4295436D01*
X-5449461Y-4114484D02*
X-5430414Y-4114484D01*
X-5430414Y-4114484D02*
X-5411366Y-4124008D01*
X-5411366Y-4124008D02*
X-5401842Y-4133531D01*
X-5401842Y-4133531D02*
X-5392318Y-4152579D01*
X-5392318Y-4152579D02*
X-5382795Y-4190674D01*
X-5382795Y-4190674D02*
X-5382795Y-4238293D01*
X-5382795Y-4238293D02*
X-5392318Y-4276389D01*
X-5392318Y-4276389D02*
X-5401842Y-4295436D01*
X-5401842Y-4295436D02*
X-5411366Y-4304960D01*
X-5411366Y-4304960D02*
X-5430414Y-4314484D01*
X-5430414Y-4314484D02*
X-5449461Y-4314484D01*
X-5449461Y-4314484D02*
X-5468509Y-4304960D01*
X-5468509Y-4304960D02*
X-5478033Y-4295436D01*
X-5478033Y-4295436D02*
X-5487556Y-4276389D01*
X-5487556Y-4276389D02*
X-5497080Y-4238293D01*
X-5497080Y-4238293D02*
X-5497080Y-4190674D01*
X-5497080Y-4190674D02*
X-5487556Y-4152579D01*
X-5487556Y-4152579D02*
X-5478033Y-4133531D01*
X-5478033Y-4133531D02*
X-5468509Y-4124008D01*
X-5468509Y-4124008D02*
X-5449461Y-4114484D01*
X-5297080Y-4314484D02*
X-5297080Y-4181150D01*
X-5297080Y-4200198D02*
X-5287556Y-4190674D01*
X-5287556Y-4190674D02*
X-5268509Y-4181150D01*
X-5268509Y-4181150D02*
X-5239937Y-4181150D01*
X-5239937Y-4181150D02*
X-5220890Y-4190674D01*
X-5220890Y-4190674D02*
X-5211366Y-4209722D01*
X-5211366Y-4209722D02*
X-5211366Y-4314484D01*
X-5211366Y-4209722D02*
X-5201842Y-4190674D01*
X-5201842Y-4190674D02*
X-5182795Y-4181150D01*
X-5182795Y-4181150D02*
X-5154223Y-4181150D01*
X-5154223Y-4181150D02*
X-5135175Y-4190674D01*
X-5135175Y-4190674D02*
X-5125652Y-4209722D01*
X-5125652Y-4209722D02*
X-5125652Y-4314484D01*
X-5030414Y-4314484D02*
X-5030414Y-4181150D01*
X-5030414Y-4200198D02*
X-5020890Y-4190674D01*
X-5020890Y-4190674D02*
X-5001842Y-4181150D01*
X-5001842Y-4181150D02*
X-4973271Y-4181150D01*
X-4973271Y-4181150D02*
X-4954223Y-4190674D01*
X-4954223Y-4190674D02*
X-4944699Y-4209722D01*
X-4944699Y-4209722D02*
X-4944699Y-4314484D01*
X-4944699Y-4209722D02*
X-4935175Y-4190674D01*
X-4935175Y-4190674D02*
X-4916128Y-4181150D01*
X-4916128Y-4181150D02*
X-4887556Y-4181150D01*
X-4887556Y-4181150D02*
X-4868509Y-4190674D01*
X-4868509Y-4190674D02*
X-4858985Y-4209722D01*
X-4858985Y-4209722D02*
X-4858985Y-4314484D01*
X-4468509Y-4104960D02*
X-4639937Y-4362103D01*
X-4211366Y-4114484D02*
X-4192318Y-4114484D01*
X-4192318Y-4114484D02*
X-4173270Y-4124008D01*
X-4173270Y-4124008D02*
X-4163747Y-4133531D01*
X-4163747Y-4133531D02*
X-4154223Y-4152579D01*
X-4154223Y-4152579D02*
X-4144699Y-4190674D01*
X-4144699Y-4190674D02*
X-4144699Y-4238293D01*
X-4144699Y-4238293D02*
X-4154223Y-4276389D01*
X-4154223Y-4276389D02*
X-4163747Y-4295436D01*
X-4163747Y-4295436D02*
X-4173270Y-4304960D01*
X-4173270Y-4304960D02*
X-4192318Y-4314484D01*
X-4192318Y-4314484D02*
X-4211366Y-4314484D01*
X-4211366Y-4314484D02*
X-4230413Y-4304960D01*
X-4230413Y-4304960D02*
X-4239937Y-4295436D01*
X-4239937Y-4295436D02*
X-4249461Y-4276389D01*
X-4249461Y-4276389D02*
X-4258985Y-4238293D01*
X-4258985Y-4238293D02*
X-4258985Y-4190674D01*
X-4258985Y-4190674D02*
X-4249461Y-4152579D01*
X-4249461Y-4152579D02*
X-4239937Y-4133531D01*
X-4239937Y-4133531D02*
X-4230413Y-4124008D01*
X-4230413Y-4124008D02*
X-4211366Y-4114484D01*
X-4058985Y-4295436D02*
X-4049461Y-4304960D01*
X-4049461Y-4304960D02*
X-4058985Y-4314484D01*
X-4058985Y-4314484D02*
X-4068509Y-4304960D01*
X-4068509Y-4304960D02*
X-4058985Y-4295436D01*
X-4058985Y-4295436D02*
X-4058985Y-4314484D01*
X-3925651Y-4114484D02*
X-3906604Y-4114484D01*
X-3906604Y-4114484D02*
X-3887556Y-4124008D01*
X-3887556Y-4124008D02*
X-3878032Y-4133531D01*
X-3878032Y-4133531D02*
X-3868509Y-4152579D01*
X-3868509Y-4152579D02*
X-3858985Y-4190674D01*
X-3858985Y-4190674D02*
X-3858985Y-4238293D01*
X-3858985Y-4238293D02*
X-3868509Y-4276389D01*
X-3868509Y-4276389D02*
X-3878032Y-4295436D01*
X-3878032Y-4295436D02*
X-3887556Y-4304960D01*
X-3887556Y-4304960D02*
X-3906604Y-4314484D01*
X-3906604Y-4314484D02*
X-3925651Y-4314484D01*
X-3925651Y-4314484D02*
X-3944699Y-4304960D01*
X-3944699Y-4304960D02*
X-3954223Y-4295436D01*
X-3954223Y-4295436D02*
X-3963747Y-4276389D01*
X-3963747Y-4276389D02*
X-3973270Y-4238293D01*
X-3973270Y-4238293D02*
X-3973270Y-4190674D01*
X-3973270Y-4190674D02*
X-3963747Y-4152579D01*
X-3963747Y-4152579D02*
X-3954223Y-4133531D01*
X-3954223Y-4133531D02*
X-3944699Y-4124008D01*
X-3944699Y-4124008D02*
X-3925651Y-4114484D01*
X-3792318Y-4114484D02*
X-3658985Y-4114484D01*
X-3658985Y-4114484D02*
X-3744699Y-4314484D01*
X-3592318Y-4133531D02*
X-3582794Y-4124008D01*
X-3582794Y-4124008D02*
X-3563747Y-4114484D01*
X-3563747Y-4114484D02*
X-3516128Y-4114484D01*
X-3516128Y-4114484D02*
X-3497080Y-4124008D01*
X-3497080Y-4124008D02*
X-3487556Y-4133531D01*
X-3487556Y-4133531D02*
X-3478032Y-4152579D01*
X-3478032Y-4152579D02*
X-3478032Y-4171627D01*
X-3478032Y-4171627D02*
X-3487556Y-4200198D01*
X-3487556Y-4200198D02*
X-3601842Y-4314484D01*
X-3601842Y-4314484D02*
X-3478032Y-4314484D01*
X-3363747Y-4200198D02*
X-3382794Y-4190674D01*
X-3382794Y-4190674D02*
X-3392318Y-4181150D01*
X-3392318Y-4181150D02*
X-3401842Y-4162103D01*
X-3401842Y-4162103D02*
X-3401842Y-4152579D01*
X-3401842Y-4152579D02*
X-3392318Y-4133531D01*
X-3392318Y-4133531D02*
X-3382794Y-4124008D01*
X-3382794Y-4124008D02*
X-3363747Y-4114484D01*
X-3363747Y-4114484D02*
X-3325651Y-4114484D01*
X-3325651Y-4114484D02*
X-3306604Y-4124008D01*
X-3306604Y-4124008D02*
X-3297080Y-4133531D01*
X-3297080Y-4133531D02*
X-3287556Y-4152579D01*
X-3287556Y-4152579D02*
X-3287556Y-4162103D01*
X-3287556Y-4162103D02*
X-3297080Y-4181150D01*
X-3297080Y-4181150D02*
X-3306604Y-4190674D01*
X-3306604Y-4190674D02*
X-3325651Y-4200198D01*
X-3325651Y-4200198D02*
X-3363747Y-4200198D01*
X-3363747Y-4200198D02*
X-3382794Y-4209722D01*
X-3382794Y-4209722D02*
X-3392318Y-4219246D01*
X-3392318Y-4219246D02*
X-3401842Y-4238293D01*
X-3401842Y-4238293D02*
X-3401842Y-4276389D01*
X-3401842Y-4276389D02*
X-3392318Y-4295436D01*
X-3392318Y-4295436D02*
X-3382794Y-4304960D01*
X-3382794Y-4304960D02*
X-3363747Y-4314484D01*
X-3363747Y-4314484D02*
X-3325651Y-4314484D01*
X-3325651Y-4314484D02*
X-3306604Y-4304960D01*
X-3306604Y-4304960D02*
X-3297080Y-4295436D01*
X-3297080Y-4295436D02*
X-3287556Y-4276389D01*
X-3287556Y-4276389D02*
X-3287556Y-4238293D01*
X-3287556Y-4238293D02*
X-3297080Y-4219246D01*
X-3297080Y-4219246D02*
X-3306604Y-4209722D01*
X-3306604Y-4209722D02*
X-3325651Y-4200198D01*
X-3211366Y-4114484D02*
X-3211366Y-4152579D01*
X-3135175Y-4114484D02*
X-3135175Y-4152579D01*
X-2839937Y-4390674D02*
X-2849461Y-4381150D01*
X-2849461Y-4381150D02*
X-2868508Y-4352579D01*
X-2868508Y-4352579D02*
X-2878032Y-4333531D01*
X-2878032Y-4333531D02*
X-2887556Y-4304960D01*
X-2887556Y-4304960D02*
X-2897080Y-4257341D01*
X-2897080Y-4257341D02*
X-2897080Y-4219246D01*
X-2897080Y-4219246D02*
X-2887556Y-4171627D01*
X-2887556Y-4171627D02*
X-2878032Y-4143055D01*
X-2878032Y-4143055D02*
X-2868508Y-4124008D01*
X-2868508Y-4124008D02*
X-2849461Y-4095436D01*
X-2849461Y-4095436D02*
X-2839937Y-4085912D01*
X-2773270Y-4133531D02*
X-2763747Y-4124008D01*
X-2763747Y-4124008D02*
X-2744699Y-4114484D01*
X-2744699Y-4114484D02*
X-2697080Y-4114484D01*
X-2697080Y-4114484D02*
X-2678032Y-4124008D01*
X-2678032Y-4124008D02*
X-2668509Y-4133531D01*
X-2668509Y-4133531D02*
X-2658985Y-4152579D01*
X-2658985Y-4152579D02*
X-2658985Y-4171627D01*
X-2658985Y-4171627D02*
X-2668509Y-4200198D01*
X-2668509Y-4200198D02*
X-2782794Y-4314484D01*
X-2782794Y-4314484D02*
X-2658985Y-4314484D01*
X-2487556Y-4181150D02*
X-2487556Y-4314484D01*
X-2535175Y-4104960D02*
X-2582794Y-4247817D01*
X-2582794Y-4247817D02*
X-2458985Y-4247817D01*
X-2230413Y-4314484D02*
X-2230413Y-4114484D01*
X-2144699Y-4314484D02*
X-2144699Y-4209722D01*
X-2144699Y-4209722D02*
X-2154223Y-4190674D01*
X-2154223Y-4190674D02*
X-2173270Y-4181150D01*
X-2173270Y-4181150D02*
X-2201842Y-4181150D01*
X-2201842Y-4181150D02*
X-2220889Y-4190674D01*
X-2220889Y-4190674D02*
X-2230413Y-4200198D01*
X-2020889Y-4314484D02*
X-2039937Y-4304960D01*
X-2039937Y-4304960D02*
X-2049461Y-4295436D01*
X-2049461Y-4295436D02*
X-2058985Y-4276389D01*
X-2058985Y-4276389D02*
X-2058985Y-4219246D01*
X-2058985Y-4219246D02*
X-2049461Y-4200198D01*
X-2049461Y-4200198D02*
X-2039937Y-4190674D01*
X-2039937Y-4190674D02*
X-2020889Y-4181150D01*
X-2020889Y-4181150D02*
X-1992318Y-4181150D01*
X-1992318Y-4181150D02*
X-1973270Y-4190674D01*
X-1973270Y-4190674D02*
X-1963746Y-4200198D01*
X-1963746Y-4200198D02*
X-1954223Y-4219246D01*
X-1954223Y-4219246D02*
X-1954223Y-4276389D01*
X-1954223Y-4276389D02*
X-1963746Y-4295436D01*
X-1963746Y-4295436D02*
X-1973270Y-4304960D01*
X-1973270Y-4304960D02*
X-1992318Y-4314484D01*
X-1992318Y-4314484D02*
X-2020889Y-4314484D01*
X-1839937Y-4314484D02*
X-1858985Y-4304960D01*
X-1858985Y-4304960D02*
X-1868508Y-4285912D01*
X-1868508Y-4285912D02*
X-1868508Y-4114484D01*
X-1687556Y-4304960D02*
X-1706604Y-4314484D01*
X-1706604Y-4314484D02*
X-1744699Y-4314484D01*
X-1744699Y-4314484D02*
X-1763746Y-4304960D01*
X-1763746Y-4304960D02*
X-1773270Y-4285912D01*
X-1773270Y-4285912D02*
X-1773270Y-4209722D01*
X-1773270Y-4209722D02*
X-1763746Y-4190674D01*
X-1763746Y-4190674D02*
X-1744699Y-4181150D01*
X-1744699Y-4181150D02*
X-1706604Y-4181150D01*
X-1706604Y-4181150D02*
X-1687556Y-4190674D01*
X-1687556Y-4190674D02*
X-1678032Y-4209722D01*
X-1678032Y-4209722D02*
X-1678032Y-4228770D01*
X-1678032Y-4228770D02*
X-1773270Y-4247817D01*
X-1601842Y-4304960D02*
X-1582794Y-4314484D01*
X-1582794Y-4314484D02*
X-1544699Y-4314484D01*
X-1544699Y-4314484D02*
X-1525651Y-4304960D01*
X-1525651Y-4304960D02*
X-1516127Y-4285912D01*
X-1516127Y-4285912D02*
X-1516127Y-4276389D01*
X-1516127Y-4276389D02*
X-1525651Y-4257341D01*
X-1525651Y-4257341D02*
X-1544699Y-4247817D01*
X-1544699Y-4247817D02*
X-1573270Y-4247817D01*
X-1573270Y-4247817D02*
X-1592318Y-4238293D01*
X-1592318Y-4238293D02*
X-1601842Y-4219246D01*
X-1601842Y-4219246D02*
X-1601842Y-4209722D01*
X-1601842Y-4209722D02*
X-1592318Y-4190674D01*
X-1592318Y-4190674D02*
X-1573270Y-4181150D01*
X-1573270Y-4181150D02*
X-1544699Y-4181150D01*
X-1544699Y-4181150D02*
X-1525651Y-4190674D01*
X-1449461Y-4390674D02*
X-1439937Y-4381150D01*
X-1439937Y-4381150D02*
X-1420889Y-4352579D01*
X-1420889Y-4352579D02*
X-1411365Y-4333531D01*
X-1411365Y-4333531D02*
X-1401842Y-4304960D01*
X-1401842Y-4304960D02*
X-1392318Y-4257341D01*
X-1392318Y-4257341D02*
X-1392318Y-4219246D01*
X-1392318Y-4219246D02*
X-1401842Y-4171627D01*
X-1401842Y-4171627D02*
X-1411365Y-4143055D01*
X-1411365Y-4143055D02*
X-1420889Y-4124008D01*
X-1420889Y-4124008D02*
X-1439937Y-4095436D01*
X-1439937Y-4095436D02*
X-1449461Y-4085912D01*
X-6444289Y-4598711D02*
X-6444289Y-4457289D01*
X-6585711Y-4457289D01*
X-6585711Y-4598711D01*
X-6444289Y-4598711D01*
X-6163747Y-4438531D02*
X-6154223Y-4429008D01*
X-6154223Y-4429008D02*
X-6135175Y-4419484D01*
X-6135175Y-4419484D02*
X-6087556Y-4419484D01*
X-6087556Y-4419484D02*
X-6068509Y-4429008D01*
X-6068509Y-4429008D02*
X-6058985Y-4438531D01*
X-6058985Y-4438531D02*
X-6049461Y-4457579D01*
X-6049461Y-4457579D02*
X-6049461Y-4476627D01*
X-6049461Y-4476627D02*
X-6058985Y-4505198D01*
X-6058985Y-4505198D02*
X-6173271Y-4619484D01*
X-6173271Y-4619484D02*
X-6049461Y-4619484D01*
X-5963747Y-4600436D02*
X-5954223Y-4609960D01*
X-5954223Y-4609960D02*
X-5963747Y-4619484D01*
X-5963747Y-4619484D02*
X-5973271Y-4609960D01*
X-5973271Y-4609960D02*
X-5963747Y-4600436D01*
X-5963747Y-4600436D02*
X-5963747Y-4619484D01*
X-5887556Y-4419484D02*
X-5754223Y-4419484D01*
X-5754223Y-4419484D02*
X-5839937Y-4619484D01*
X-5639937Y-4419484D02*
X-5620890Y-4419484D01*
X-5620890Y-4419484D02*
X-5601842Y-4429008D01*
X-5601842Y-4429008D02*
X-5592318Y-4438531D01*
X-5592318Y-4438531D02*
X-5582795Y-4457579D01*
X-5582795Y-4457579D02*
X-5573271Y-4495674D01*
X-5573271Y-4495674D02*
X-5573271Y-4543293D01*
X-5573271Y-4543293D02*
X-5582795Y-4581389D01*
X-5582795Y-4581389D02*
X-5592318Y-4600436D01*
X-5592318Y-4600436D02*
X-5601842Y-4609960D01*
X-5601842Y-4609960D02*
X-5620890Y-4619484D01*
X-5620890Y-4619484D02*
X-5639937Y-4619484D01*
X-5639937Y-4619484D02*
X-5658985Y-4609960D01*
X-5658985Y-4609960D02*
X-5668509Y-4600436D01*
X-5668509Y-4600436D02*
X-5678033Y-4581389D01*
X-5678033Y-4581389D02*
X-5687556Y-4543293D01*
X-5687556Y-4543293D02*
X-5687556Y-4495674D01*
X-5687556Y-4495674D02*
X-5678033Y-4457579D01*
X-5678033Y-4457579D02*
X-5668509Y-4438531D01*
X-5668509Y-4438531D02*
X-5658985Y-4429008D01*
X-5658985Y-4429008D02*
X-5639937Y-4419484D01*
X-5449461Y-4419484D02*
X-5430414Y-4419484D01*
X-5430414Y-4419484D02*
X-5411366Y-4429008D01*
X-5411366Y-4429008D02*
X-5401842Y-4438531D01*
X-5401842Y-4438531D02*
X-5392318Y-4457579D01*
X-5392318Y-4457579D02*
X-5382795Y-4495674D01*
X-5382795Y-4495674D02*
X-5382795Y-4543293D01*
X-5382795Y-4543293D02*
X-5392318Y-4581389D01*
X-5392318Y-4581389D02*
X-5401842Y-4600436D01*
X-5401842Y-4600436D02*
X-5411366Y-4609960D01*
X-5411366Y-4609960D02*
X-5430414Y-4619484D01*
X-5430414Y-4619484D02*
X-5449461Y-4619484D01*
X-5449461Y-4619484D02*
X-5468509Y-4609960D01*
X-5468509Y-4609960D02*
X-5478033Y-4600436D01*
X-5478033Y-4600436D02*
X-5487556Y-4581389D01*
X-5487556Y-4581389D02*
X-5497080Y-4543293D01*
X-5497080Y-4543293D02*
X-5497080Y-4495674D01*
X-5497080Y-4495674D02*
X-5487556Y-4457579D01*
X-5487556Y-4457579D02*
X-5478033Y-4438531D01*
X-5478033Y-4438531D02*
X-5468509Y-4429008D01*
X-5468509Y-4429008D02*
X-5449461Y-4419484D01*
X-5297080Y-4619484D02*
X-5297080Y-4486150D01*
X-5297080Y-4505198D02*
X-5287556Y-4495674D01*
X-5287556Y-4495674D02*
X-5268509Y-4486150D01*
X-5268509Y-4486150D02*
X-5239937Y-4486150D01*
X-5239937Y-4486150D02*
X-5220890Y-4495674D01*
X-5220890Y-4495674D02*
X-5211366Y-4514722D01*
X-5211366Y-4514722D02*
X-5211366Y-4619484D01*
X-5211366Y-4514722D02*
X-5201842Y-4495674D01*
X-5201842Y-4495674D02*
X-5182795Y-4486150D01*
X-5182795Y-4486150D02*
X-5154223Y-4486150D01*
X-5154223Y-4486150D02*
X-5135175Y-4495674D01*
X-5135175Y-4495674D02*
X-5125652Y-4514722D01*
X-5125652Y-4514722D02*
X-5125652Y-4619484D01*
X-5030414Y-4619484D02*
X-5030414Y-4486150D01*
X-5030414Y-4505198D02*
X-5020890Y-4495674D01*
X-5020890Y-4495674D02*
X-5001842Y-4486150D01*
X-5001842Y-4486150D02*
X-4973271Y-4486150D01*
X-4973271Y-4486150D02*
X-4954223Y-4495674D01*
X-4954223Y-4495674D02*
X-4944699Y-4514722D01*
X-4944699Y-4514722D02*
X-4944699Y-4619484D01*
X-4944699Y-4514722D02*
X-4935175Y-4495674D01*
X-4935175Y-4495674D02*
X-4916128Y-4486150D01*
X-4916128Y-4486150D02*
X-4887556Y-4486150D01*
X-4887556Y-4486150D02*
X-4868509Y-4495674D01*
X-4868509Y-4495674D02*
X-4858985Y-4514722D01*
X-4858985Y-4514722D02*
X-4858985Y-4619484D01*
X-4468509Y-4409960D02*
X-4639937Y-4667103D01*
X-4211366Y-4419484D02*
X-4192318Y-4419484D01*
X-4192318Y-4419484D02*
X-4173270Y-4429008D01*
X-4173270Y-4429008D02*
X-4163747Y-4438531D01*
X-4163747Y-4438531D02*
X-4154223Y-4457579D01*
X-4154223Y-4457579D02*
X-4144699Y-4495674D01*
X-4144699Y-4495674D02*
X-4144699Y-4543293D01*
X-4144699Y-4543293D02*
X-4154223Y-4581389D01*
X-4154223Y-4581389D02*
X-4163747Y-4600436D01*
X-4163747Y-4600436D02*
X-4173270Y-4609960D01*
X-4173270Y-4609960D02*
X-4192318Y-4619484D01*
X-4192318Y-4619484D02*
X-4211366Y-4619484D01*
X-4211366Y-4619484D02*
X-4230413Y-4609960D01*
X-4230413Y-4609960D02*
X-4239937Y-4600436D01*
X-4239937Y-4600436D02*
X-4249461Y-4581389D01*
X-4249461Y-4581389D02*
X-4258985Y-4543293D01*
X-4258985Y-4543293D02*
X-4258985Y-4495674D01*
X-4258985Y-4495674D02*
X-4249461Y-4457579D01*
X-4249461Y-4457579D02*
X-4239937Y-4438531D01*
X-4239937Y-4438531D02*
X-4230413Y-4429008D01*
X-4230413Y-4429008D02*
X-4211366Y-4419484D01*
X-4058985Y-4600436D02*
X-4049461Y-4609960D01*
X-4049461Y-4609960D02*
X-4058985Y-4619484D01*
X-4058985Y-4619484D02*
X-4068509Y-4609960D01*
X-4068509Y-4609960D02*
X-4058985Y-4600436D01*
X-4058985Y-4600436D02*
X-4058985Y-4619484D01*
X-3858985Y-4619484D02*
X-3973270Y-4619484D01*
X-3916128Y-4619484D02*
X-3916128Y-4419484D01*
X-3916128Y-4419484D02*
X-3935175Y-4448055D01*
X-3935175Y-4448055D02*
X-3954223Y-4467103D01*
X-3954223Y-4467103D02*
X-3973270Y-4476627D01*
X-3735175Y-4419484D02*
X-3716128Y-4419484D01*
X-3716128Y-4419484D02*
X-3697080Y-4429008D01*
X-3697080Y-4429008D02*
X-3687556Y-4438531D01*
X-3687556Y-4438531D02*
X-3678032Y-4457579D01*
X-3678032Y-4457579D02*
X-3668509Y-4495674D01*
X-3668509Y-4495674D02*
X-3668509Y-4543293D01*
X-3668509Y-4543293D02*
X-3678032Y-4581389D01*
X-3678032Y-4581389D02*
X-3687556Y-4600436D01*
X-3687556Y-4600436D02*
X-3697080Y-4609960D01*
X-3697080Y-4609960D02*
X-3716128Y-4619484D01*
X-3716128Y-4619484D02*
X-3735175Y-4619484D01*
X-3735175Y-4619484D02*
X-3754223Y-4609960D01*
X-3754223Y-4609960D02*
X-3763747Y-4600436D01*
X-3763747Y-4600436D02*
X-3773270Y-4581389D01*
X-3773270Y-4581389D02*
X-3782794Y-4543293D01*
X-3782794Y-4543293D02*
X-3782794Y-4495674D01*
X-3782794Y-4495674D02*
X-3773270Y-4457579D01*
X-3773270Y-4457579D02*
X-3763747Y-4438531D01*
X-3763747Y-4438531D02*
X-3754223Y-4429008D01*
X-3754223Y-4429008D02*
X-3735175Y-4419484D01*
X-3497080Y-4419484D02*
X-3535175Y-4419484D01*
X-3535175Y-4419484D02*
X-3554223Y-4429008D01*
X-3554223Y-4429008D02*
X-3563747Y-4438531D01*
X-3563747Y-4438531D02*
X-3582794Y-4467103D01*
X-3582794Y-4467103D02*
X-3592318Y-4505198D01*
X-3592318Y-4505198D02*
X-3592318Y-4581389D01*
X-3592318Y-4581389D02*
X-3582794Y-4600436D01*
X-3582794Y-4600436D02*
X-3573270Y-4609960D01*
X-3573270Y-4609960D02*
X-3554223Y-4619484D01*
X-3554223Y-4619484D02*
X-3516128Y-4619484D01*
X-3516128Y-4619484D02*
X-3497080Y-4609960D01*
X-3497080Y-4609960D02*
X-3487556Y-4600436D01*
X-3487556Y-4600436D02*
X-3478032Y-4581389D01*
X-3478032Y-4581389D02*
X-3478032Y-4533770D01*
X-3478032Y-4533770D02*
X-3487556Y-4514722D01*
X-3487556Y-4514722D02*
X-3497080Y-4505198D01*
X-3497080Y-4505198D02*
X-3516128Y-4495674D01*
X-3516128Y-4495674D02*
X-3554223Y-4495674D01*
X-3554223Y-4495674D02*
X-3573270Y-4505198D01*
X-3573270Y-4505198D02*
X-3582794Y-4514722D01*
X-3582794Y-4514722D02*
X-3592318Y-4533770D01*
X-3411366Y-4419484D02*
X-3287556Y-4419484D01*
X-3287556Y-4419484D02*
X-3354223Y-4495674D01*
X-3354223Y-4495674D02*
X-3325651Y-4495674D01*
X-3325651Y-4495674D02*
X-3306604Y-4505198D01*
X-3306604Y-4505198D02*
X-3297080Y-4514722D01*
X-3297080Y-4514722D02*
X-3287556Y-4533770D01*
X-3287556Y-4533770D02*
X-3287556Y-4581389D01*
X-3287556Y-4581389D02*
X-3297080Y-4600436D01*
X-3297080Y-4600436D02*
X-3306604Y-4609960D01*
X-3306604Y-4609960D02*
X-3325651Y-4619484D01*
X-3325651Y-4619484D02*
X-3382794Y-4619484D01*
X-3382794Y-4619484D02*
X-3401842Y-4609960D01*
X-3401842Y-4609960D02*
X-3411366Y-4600436D01*
X-3211366Y-4419484D02*
X-3211366Y-4457579D01*
X-3135175Y-4419484D02*
X-3135175Y-4457579D01*
X-2839937Y-4695674D02*
X-2849461Y-4686150D01*
X-2849461Y-4686150D02*
X-2868508Y-4657579D01*
X-2868508Y-4657579D02*
X-2878032Y-4638531D01*
X-2878032Y-4638531D02*
X-2887556Y-4609960D01*
X-2887556Y-4609960D02*
X-2897080Y-4562341D01*
X-2897080Y-4562341D02*
X-2897080Y-4524246D01*
X-2897080Y-4524246D02*
X-2887556Y-4476627D01*
X-2887556Y-4476627D02*
X-2878032Y-4448055D01*
X-2878032Y-4448055D02*
X-2868508Y-4429008D01*
X-2868508Y-4429008D02*
X-2849461Y-4400436D01*
X-2849461Y-4400436D02*
X-2839937Y-4390912D01*
X-2678032Y-4486150D02*
X-2678032Y-4619484D01*
X-2725651Y-4409960D02*
X-2773270Y-4552817D01*
X-2773270Y-4552817D02*
X-2649461Y-4552817D01*
X-2420889Y-4619484D02*
X-2420889Y-4419484D01*
X-2335175Y-4619484D02*
X-2335175Y-4514722D01*
X-2335175Y-4514722D02*
X-2344699Y-4495674D01*
X-2344699Y-4495674D02*
X-2363747Y-4486150D01*
X-2363747Y-4486150D02*
X-2392318Y-4486150D01*
X-2392318Y-4486150D02*
X-2411366Y-4495674D01*
X-2411366Y-4495674D02*
X-2420889Y-4505198D01*
X-2211366Y-4619484D02*
X-2230413Y-4609960D01*
X-2230413Y-4609960D02*
X-2239937Y-4600436D01*
X-2239937Y-4600436D02*
X-2249461Y-4581389D01*
X-2249461Y-4581389D02*
X-2249461Y-4524246D01*
X-2249461Y-4524246D02*
X-2239937Y-4505198D01*
X-2239937Y-4505198D02*
X-2230413Y-4495674D01*
X-2230413Y-4495674D02*
X-2211366Y-4486150D01*
X-2211366Y-4486150D02*
X-2182794Y-4486150D01*
X-2182794Y-4486150D02*
X-2163747Y-4495674D01*
X-2163747Y-4495674D02*
X-2154223Y-4505198D01*
X-2154223Y-4505198D02*
X-2144699Y-4524246D01*
X-2144699Y-4524246D02*
X-2144699Y-4581389D01*
X-2144699Y-4581389D02*
X-2154223Y-4600436D01*
X-2154223Y-4600436D02*
X-2163747Y-4609960D01*
X-2163747Y-4609960D02*
X-2182794Y-4619484D01*
X-2182794Y-4619484D02*
X-2211366Y-4619484D01*
X-2030413Y-4619484D02*
X-2049461Y-4609960D01*
X-2049461Y-4609960D02*
X-2058985Y-4590912D01*
X-2058985Y-4590912D02*
X-2058985Y-4419484D01*
X-1878032Y-4609960D02*
X-1897080Y-4619484D01*
X-1897080Y-4619484D02*
X-1935175Y-4619484D01*
X-1935175Y-4619484D02*
X-1954223Y-4609960D01*
X-1954223Y-4609960D02*
X-1963746Y-4590912D01*
X-1963746Y-4590912D02*
X-1963746Y-4514722D01*
X-1963746Y-4514722D02*
X-1954223Y-4495674D01*
X-1954223Y-4495674D02*
X-1935175Y-4486150D01*
X-1935175Y-4486150D02*
X-1897080Y-4486150D01*
X-1897080Y-4486150D02*
X-1878032Y-4495674D01*
X-1878032Y-4495674D02*
X-1868508Y-4514722D01*
X-1868508Y-4514722D02*
X-1868508Y-4533770D01*
X-1868508Y-4533770D02*
X-1963746Y-4552817D01*
X-1792318Y-4609960D02*
X-1773270Y-4619484D01*
X-1773270Y-4619484D02*
X-1735175Y-4619484D01*
X-1735175Y-4619484D02*
X-1716127Y-4609960D01*
X-1716127Y-4609960D02*
X-1706604Y-4590912D01*
X-1706604Y-4590912D02*
X-1706604Y-4581389D01*
X-1706604Y-4581389D02*
X-1716127Y-4562341D01*
X-1716127Y-4562341D02*
X-1735175Y-4552817D01*
X-1735175Y-4552817D02*
X-1763746Y-4552817D01*
X-1763746Y-4552817D02*
X-1782794Y-4543293D01*
X-1782794Y-4543293D02*
X-1792318Y-4524246D01*
X-1792318Y-4524246D02*
X-1792318Y-4514722D01*
X-1792318Y-4514722D02*
X-1782794Y-4495674D01*
X-1782794Y-4495674D02*
X-1763746Y-4486150D01*
X-1763746Y-4486150D02*
X-1735175Y-4486150D01*
X-1735175Y-4486150D02*
X-1716127Y-4495674D01*
X-1639937Y-4695674D02*
X-1630413Y-4686150D01*
X-1630413Y-4686150D02*
X-1611365Y-4657579D01*
X-1611365Y-4657579D02*
X-1601842Y-4638531D01*
X-1601842Y-4638531D02*
X-1592318Y-4609960D01*
X-1592318Y-4609960D02*
X-1582794Y-4562341D01*
X-1582794Y-4562341D02*
X-1582794Y-4524246D01*
X-1582794Y-4524246D02*
X-1592318Y-4476627D01*
X-1592318Y-4476627D02*
X-1601842Y-4448055D01*
X-1601842Y-4448055D02*
X-1611365Y-4429008D01*
X-1611365Y-4429008D02*
X-1630413Y-4400436D01*
X-1630413Y-4400436D02*
X-1639937Y-4390912D01*
M02*
