M48
; DRILL file {KiCad 8.0.5} date 2024-10-23T13:51:42+0100
; FORMAT={-:-/ absolute / inch / decimal}
; #@! TF.CreationDate,2024-10-23T13:51:42+01:00
; #@! TF.GenerationSoftware,Kicad,Pcbnew,8.0.5
; #@! TF.FileFunction,Plated,1,2,PTH
FMAT,2
INCH
; #@! TA.AperFunction,Plated,PTH,ViaDrill
T1C0.0157
; #@! TA.AperFunction,Plated,PTH,ComponentDrill
T2C0.0394
; #@! TA.AperFunction,Plated,PTH,ComponentDrill
T3C0.0728
; #@! TA.AperFunction,Plated,PTH,ComponentDrill
T4C0.1063
%
G90
G05
T1
X-2.4823Y-1.0079
X-2.4744Y1.0157
X-2.4449Y-0.1358
X-2.3996Y0.1378
X-2.3681Y1.0157
X-2.3677Y-1.1642
X-2.3563Y-1.0118
X-2.3091Y1.1654
X-2.3012Y-1.1614
X-2.248Y-0.1575
X-2.2421Y-1.165
X-2.2028Y0.1358
X-2.2028Y0.0039
X-2.185Y-0.0965
X-2.1516Y1.1654
X-2.1319Y-1.1646
X-2.0669Y0.0
X-2.0492Y0.1555
X-2.0374Y1.1654
X-2.0157Y-0.2165
X-2.0146Y-1.1646
X-2.0142Y-1.0016
X-2.0098Y1.0039
X-1.9547Y0.1555
X-1.9508Y0.0039
X-1.9508Y-0.1339
X-1.9382Y-0.3224
X-1.9346Y-0.9504
X-1.9331Y0.6634
X-1.9331Y0.5409
X-1.9331Y0.3937
X-1.9323Y-0.7606
X-1.9315Y-0.4547
X-1.9311Y0.8898
X-1.9311Y0.7756
X-1.9303Y-0.6102
X-1.9272Y1.1654
X-1.8976Y-1.1646
X-1.8307Y1.1654
X-1.8287Y-0.187
X-1.7854Y-0.2717
X-1.7835Y0.565
X-1.7835Y0.3031
X-1.7815Y0.0709
X-1.7815Y-0.0945
X-1.7756Y0.2106
X-1.7603Y0.7702
X-1.7307Y-1.1646
X-1.7283Y1.1654
X-1.7106Y0.3484
X-1.7028Y0.1811
X-1.6988Y-0.3031
X-1.6949Y-0.1575
X-1.687Y0.0236
X-1.6673Y-0.6102
X-1.6614Y0.2854
X-1.6565Y0.3986
X-1.6437Y-0.9213
X-1.6358Y1.1654
X-1.6161Y0.5
X-1.5937Y-1.1638
X-1.5453Y0.2283
X-1.5413Y0.5787
X-1.5413Y-0.2913
X-1.5374Y1.1634
X-1.5374Y-0.4055
X-1.5354Y-0.5217
X-1.5354Y-0.7913
X-1.5217Y0.187
X-1.5197Y0.2677
X-1.4614Y-1.1646
X-1.4409Y1.1654
X-1.4134Y-0.8071
X-1.3917Y-0.937
X-1.376Y0.7559
X-1.3417Y-1.1638
X-1.3287Y1.1654
X-1.3071Y-1.0492
X-1.3012Y0.2008
X-1.3012Y0.126
X-1.3012Y0.0551
X-1.3012Y-0.0866
X-1.3012Y-0.2323
X-1.2736Y0.4134
X-1.2717Y0.6535
X-1.2461Y0.5039
X-1.2441Y0.7933
X-1.2185Y1.1654
X-1.1949Y-1.1642
X-1.1535Y0.5807
X-1.0984Y1.1654
X-1.0689Y-0.9094
X-1.0587Y-1.1638
X-1.0335Y-0.2953
X-1.0295Y-0.4173
X-1.0157Y0.4173
X-0.9764Y1.1654
X-0.937Y0.3917
X-0.9063Y-1.1642
X-0.9055Y-0.2185
X-0.876Y0.6535
X-0.8602Y0.3563
X-0.8543Y1.1654
X-0.8543Y0.5827
X-0.8524Y-0.9055
X-0.8346Y0.2697
X-0.813Y0.5059
X-0.7618Y0.7323
X-0.7618Y0.9567
X-0.7594Y-1.165
X-0.7382Y1.1654
X-0.7382Y-0.1339
X-0.7303Y-0.3031
X-0.687Y0.9606
X-0.685Y0.7323
X-0.6417Y-0.7756
X-0.6417Y-0.8622
X-0.6319Y0.6516
X-0.6319Y0.5807
X-0.628Y0.5059
X-0.626Y0.4252
X-0.626Y0.3563
X-0.624Y-0.0945
X-0.6201Y0.2362
X-0.6201Y-0.2362
X-0.6063Y1.1654
X-0.6035Y-1.1642
X-0.5925Y0.7283
X-0.4921Y0.2402
X-0.4724Y1.1654
X-0.4571Y-1.1646
X-0.3406Y-0.8071
X-0.3327Y1.1654
X-0.2957Y-1.1646
X-0.2894Y0.4232
X-0.2874Y0.3543
X-0.2736Y0.6496
X-0.2697Y-0.4134
X-0.2638Y0.5
X-0.2476Y0.2372
X-0.2466Y0.18
X-0.2466Y0.121
X-0.2466Y0.0619
X-0.2466Y0.0029
X-0.2466Y-0.0562
X-0.2466Y-0.1153
X-0.2466Y-0.2334
X-0.2224Y-1.0197
X-0.2185Y-0.8031
X-0.2028Y0.5807
X-0.159Y0.2372
X-0.1406Y-1.1654
X-0.1393Y0.1703
X-0.1299Y0.8504
X-0.1142Y0.9705
X-0.1043Y1.1654
X-0.0803Y0.2372
X-0.0551Y-0.4823
X-0.0531Y0.5827
X-0.0236Y0.3524
X-0.0212Y0.1187
X-0.0114Y0.2372
X-0.002Y1.1614
X-0.002Y0.6496
X0.0Y-1.1646
X0.0492Y0.502
X0.0497Y-0.0777
X0.0497Y-0.1171
X0.0497Y-0.1604
X0.0674Y0.2372
X0.0906Y1.1654
X0.093Y-0.0777
X0.093Y-0.1171
X0.093Y-0.1604
X0.1102Y-0.4823
X0.1161Y-0.2598
X0.122Y0.8484
X0.1245Y0.1171
X0.1363Y0.2372
X0.1363Y-0.0777
X0.1363Y-0.1171
X0.1363Y-0.1604
X0.1673Y-0.378
X0.176Y-1.1646
X0.1796Y-0.0777
X0.1796Y-0.1171
X0.1796Y-0.1604
X0.1949Y-0.7953
X0.2052Y0.2372
X0.2205Y0.6555
X0.2229Y-0.0777
X0.2229Y-0.1171
X0.2229Y-0.1604
X0.25Y0.9783
X0.25Y0.9232
X0.2741Y0.2372
X0.2835Y1.0787
X0.2933Y-0.8681
X0.311Y1.1654
X0.313Y0.3563
X0.3268Y-0.685
X0.3386Y-1.1646
X0.3528Y0.2372
X0.3528Y0.1782
X0.3528Y0.1093
X0.3543Y0.502
X0.3602Y0.5807
X0.3934Y-0.1102
X0.4547Y1.1654
X0.4866Y-1.165
X0.498Y-0.685
X0.498Y-0.8681
X0.5098Y-0.2323
X0.5453Y0.75
X0.5492Y0.5157
X0.5945Y1.1654
X0.6004Y0.6457
X0.6201Y-0.3583
X0.6228Y-1.165
X0.6614Y0.1791
X0.6654Y0.3701
X0.6752Y-0.6181
X0.6752Y-0.685
X0.6752Y-0.9488
X0.6772Y-0.8681
X0.7815Y1.1654
X0.7858Y-1.1642
X0.7953Y-0.3878
X0.8642Y-0.689
X0.8661Y0.0492
X0.8661Y-0.8681
X0.9094Y0.4764
X0.937Y1.1654
X0.9803Y-1.165
X0.998Y-0.3543
X1.0768Y1.1654
X1.0768Y-0.4882
X1.0846Y-0.689
X1.0846Y-0.8681
X1.0886Y-0.3937
X1.1299Y-0.2717
X1.1744Y-1.1646
X1.189Y0.3976
X1.1949Y0.1614
X1.2028Y1.1654
X1.2264Y-0.3976
X1.2421Y-0.689
X1.248Y-0.8661
X1.2579Y-0.4882
X1.2638Y0.3957
X1.2815Y0.2598
X1.2992Y0.187
X1.3146Y-1.1646
X1.3346Y0.3937
X1.3406Y0.5846
X1.3425Y1.1654
X1.3465Y0.8051
X1.3465Y0.7047
X1.3484Y0.998
X1.3484Y0.8976
X1.3957Y-0.6929
X1.3976Y-0.8661
X1.4665Y0.187
X1.4744Y0.4114
X1.4921Y-1.165
X1.4961Y1.1654
X1.502Y-0.2638
X1.5315Y0.4626
X1.5689Y-0.3898
X1.5965Y0.4626
X1.6122Y1.1654
X1.6299Y-0.8681
X1.6319Y-0.689
X1.6437Y-0.2638
X1.6555Y0.3642
X1.6575Y0.4626
X1.6673Y0.0118
X1.6744Y-1.1634
X1.7067Y0.1693
X1.7146Y-0.8667
X1.7165Y0.3642
X1.7185Y0.4626
X1.7618Y-0.689
X1.7638Y1.1654
X1.7756Y0.3661
X1.7776Y0.4626
X1.8046Y-0.7449
X1.8046Y-0.8248
X1.8346Y0.3642
X1.8366Y0.4606
X1.8484Y0.1654
X1.8512Y-1.1642
X1.8563Y-0.3858
X1.8839Y-0.5276
X1.8976Y0.4606
X1.8976Y0.3642
X1.9521Y1.0821
X1.9521Y1.023
X1.9521Y0.9049
X1.9521Y0.8459
X1.9521Y0.7868
X1.9521Y0.7277
X1.9521Y0.6687
X1.9521Y0.6096
X1.9521Y0.5506
X1.9528Y1.1555
X1.9528Y0.4626
X1.9547Y0.3622
X1.9547Y0.2795
X1.9547Y0.1791
X1.9657Y-0.4346
X1.9902Y0.0669
X2.0059Y0.4232
X2.0571Y-0.189
X2.0598Y-1.1646
X2.0846Y0.2795
X2.0965Y-0.5354
X2.0965Y-0.7559
X2.1234Y0.6367
X2.1516Y-1.1063
X2.1791Y0.2776
X2.2362Y-0.6791
X2.2795Y0.2776
X2.2854Y-1.1642
X2.3539Y-0.8307
X2.376Y0.2795
X2.378Y-0.1555
X2.3792Y-1.0162
X2.3957Y-1.1642
X2.4626Y0.2736
X2.4862Y-0.3661
X2.4866Y0.078
X2.4866Y-0.0012
X2.487Y-0.0776
X2.4874Y-0.1776
X2.4874Y-1.028
X2.4878Y-0.8331
X2.4882Y0.1811
T2
X-2.4016Y0.2165
X-2.4016Y-0.2165
X-2.3016Y0.2165
X-2.3016Y-0.2165
X-2.2016Y0.2165
X-2.2016Y1.0433
X-2.2016Y-0.2165
X-2.2016Y-1.0433
X-2.1016Y1.0433
X-2.1016Y0.2165
X-2.1016Y-0.2165
X-2.1016Y-1.0433
X2.0295Y0.2165
X2.1295Y0.2165
X2.2295Y0.2165
X2.3295Y0.2165
T3
X-1.5354Y1.0006
X-1.5354Y0.7006
X-1.5354Y-0.6195
X-1.5354Y-0.9195
X-0.9646Y1.0006
X-0.9646Y0.7006
X-0.9646Y-0.6195
X-0.9646Y-0.9195
X-0.3937Y1.0006
X-0.3937Y0.7006
X-0.3937Y-0.6195
X-0.3937Y-0.9195
X0.3937Y1.0003
X0.3937Y0.7003
X0.3937Y-0.6198
X0.3937Y-0.9198
X0.9646Y0.9967
X0.9646Y0.6967
X0.9646Y-0.6234
X0.9646Y-0.9234
X1.5354Y0.9967
X1.5354Y0.6967
X1.5354Y-0.6234
X1.5354Y-0.9234
T4
X-2.3622Y0.0
X2.3622Y0.0
M30
