%TF.GenerationSoftware,KiCad,Pcbnew,8.0.5*%
%TF.CreationDate,2024-10-23T16:40:19+01:00*%
%TF.ProjectId,V3,56332e6b-6963-4616-945f-706362585858,rev?*%
%TF.SameCoordinates,Original*%
%TF.FileFunction,Drillmap*%
%TF.FilePolarity,Positive*%
%FSLAX45Y45*%
G04 Gerber Fmt 4.5, Leading zero omitted, Abs format (unit mm)*
G04 Created by KiCad (PCBNEW 8.0.5) date 2024-10-23 16:40:19*
%MOMM*%
%LPD*%
G01*
G04 APERTURE LIST*
%ADD10C,0.100000*%
%ADD11C,0.200000*%
%ADD12C,0.185000*%
%ADD13C,0.270000*%
G04 APERTURE END LIST*
D10*
X-6410000Y2450000D02*
X-5100000Y2450000D01*
X-6410000Y-3050000D02*
X6410000Y-3050000D01*
X-6410000Y-2450000D02*
X-5100000Y-2450000D01*
X-5000000Y-2350000D02*
G75*
G02*
X-5100000Y-2450000I-100000J0D01*
G01*
X-6410000Y-3050000D02*
X-6410000Y-2450000D01*
X6410000Y-3050000D02*
X6410000Y3050000D01*
X-6410000Y3050000D02*
X-6410000Y2450000D01*
X-6410000Y-860000D02*
X-5100000Y-860000D01*
X-5000000Y960000D02*
G75*
G02*
X-5100000Y860000I-100000J0D01*
G01*
X-6410000Y860000D02*
X-6410000Y-860000D01*
X-6410000Y860000D02*
X-5100000Y860000D01*
X-5000000Y-960000D02*
X-5000000Y-2350000D01*
X-5100000Y-860000D02*
G75*
G02*
X-5000000Y-960000I0J-100000D01*
G01*
X-6410000Y3050000D02*
X6410000Y3050000D01*
X-5000000Y2350000D02*
X-5000000Y960000D01*
X-5100000Y2450000D02*
G75*
G02*
X-5000000Y2350000I0J-100000D01*
G01*
D11*
D10*
X-6325000Y-2540000D02*
X-6285000Y-2580000D01*
X-6285000Y-2540000D02*
X-6325000Y-2580000D01*
X-6305000Y2600000D02*
X-6265000Y2560000D01*
X-6265000Y2600000D02*
X-6305000Y2560000D01*
X-6230000Y-325000D02*
X-6190000Y-365000D01*
X-6190000Y-325000D02*
X-6230000Y-365000D01*
X-6115000Y370000D02*
X-6075000Y330000D01*
X-6075000Y370000D02*
X-6115000Y330000D01*
X-6095000Y2980000D02*
X-6055000Y2940000D01*
X-6055000Y2980000D02*
X-6095000Y2940000D01*
X-6034000Y-2937000D02*
X-5994000Y-2977000D01*
X-5994000Y-2937000D02*
X-6034000Y-2977000D01*
X-6005000Y-2550000D02*
X-5965000Y-2590000D01*
X-5965000Y-2550000D02*
X-6005000Y-2590000D01*
X-5885000Y2980000D02*
X-5845000Y2940000D01*
X-5845000Y2980000D02*
X-5885000Y2940000D01*
X-5865000Y-2930000D02*
X-5825000Y-2970000D01*
X-5825000Y-2930000D02*
X-5865000Y-2970000D01*
X-5715000Y-2939000D02*
X-5675000Y-2979000D01*
X-5675000Y-2939000D02*
X-5715000Y-2979000D01*
X-5615000Y365000D02*
X-5575000Y325000D01*
X-5575000Y365000D02*
X-5615000Y325000D01*
X-5615000Y30000D02*
X-5575000Y-10000D01*
X-5575000Y30000D02*
X-5615000Y-10000D01*
X-5570000Y-225000D02*
X-5530000Y-265000D01*
X-5530000Y-225000D02*
X-5570000Y-265000D01*
X-5485000Y2980000D02*
X-5445000Y2940000D01*
X-5445000Y2980000D02*
X-5485000Y2940000D01*
X-5435000Y-2938000D02*
X-5395000Y-2978000D01*
X-5395000Y-2938000D02*
X-5435000Y-2978000D01*
X-5270000Y20000D02*
X-5230000Y-20000D01*
X-5230000Y20000D02*
X-5270000Y-20000D01*
X-5245000Y340000D02*
X-5205000Y300000D01*
X-5205000Y340000D02*
X-5245000Y300000D01*
X-5195000Y2980000D02*
X-5155000Y2940000D01*
X-5155000Y2980000D02*
X-5195000Y2940000D01*
X-5137000Y-2938000D02*
X-5097000Y-2978000D01*
X-5097000Y-2938000D02*
X-5137000Y-2978000D01*
X-5136000Y-2524000D02*
X-5096000Y-2564000D01*
X-5096000Y-2524000D02*
X-5136000Y-2564000D01*
X-5135000Y-400000D02*
X-5095000Y-440000D01*
X-5095000Y-400000D02*
X-5135000Y-440000D01*
X-5125000Y2570000D02*
X-5085000Y2530000D01*
X-5085000Y2570000D02*
X-5125000Y2530000D01*
X-4985000Y415000D02*
X-4945000Y375000D01*
X-4945000Y415000D02*
X-4985000Y375000D01*
X-4975000Y30000D02*
X-4935000Y-10000D01*
X-4935000Y30000D02*
X-4975000Y-10000D01*
X-4975000Y-320000D02*
X-4935000Y-360000D01*
X-4935000Y-320000D02*
X-4975000Y-360000D01*
X-4943000Y-799000D02*
X-4903000Y-839000D01*
X-4903000Y-799000D02*
X-4943000Y-839000D01*
X-4934000Y-2394000D02*
X-4894000Y-2434000D01*
X-4894000Y-2394000D02*
X-4934000Y-2434000D01*
X-4930000Y1705000D02*
X-4890000Y1665000D01*
X-4890000Y1705000D02*
X-4930000Y1665000D01*
X-4930000Y1394000D02*
X-4890000Y1354000D01*
X-4890000Y1394000D02*
X-4930000Y1354000D01*
X-4930000Y1020000D02*
X-4890000Y980000D01*
X-4890000Y1020000D02*
X-4930000Y980000D01*
X-4928000Y-1912000D02*
X-4888000Y-1952000D01*
X-4888000Y-1912000D02*
X-4928000Y-1952000D01*
X-4926000Y-1135000D02*
X-4886000Y-1175000D01*
X-4886000Y-1135000D02*
X-4926000Y-1175000D01*
X-4925000Y2280000D02*
X-4885000Y2240000D01*
X-4885000Y2280000D02*
X-4925000Y2240000D01*
X-4925000Y1990000D02*
X-4885000Y1950000D01*
X-4885000Y1990000D02*
X-4925000Y1950000D01*
X-4923000Y-1530000D02*
X-4883000Y-1570000D01*
X-4883000Y-1530000D02*
X-4923000Y-1570000D01*
X-4915000Y2980000D02*
X-4875000Y2940000D01*
X-4875000Y2980000D02*
X-4915000Y2940000D01*
X-4840000Y-2938000D02*
X-4800000Y-2978000D01*
X-4800000Y-2938000D02*
X-4840000Y-2978000D01*
X-4670000Y2980000D02*
X-4630000Y2940000D01*
X-4630000Y2980000D02*
X-4670000Y2940000D01*
X-4665000Y-455000D02*
X-4625000Y-495000D01*
X-4625000Y-455000D02*
X-4665000Y-495000D01*
X-4575000Y1980000D02*
X-4535000Y1940000D01*
X-4535000Y1980000D02*
X-4575000Y1940000D01*
X-4555000Y-670000D02*
X-4515000Y-710000D01*
X-4515000Y-670000D02*
X-4555000Y-710000D01*
X-4550000Y1455000D02*
X-4510000Y1415000D01*
X-4510000Y1455000D02*
X-4550000Y1415000D01*
X-4550000Y790000D02*
X-4510000Y750000D01*
X-4510000Y790000D02*
X-4550000Y750000D01*
X-4545000Y200000D02*
X-4505000Y160000D01*
X-4505000Y200000D02*
X-4545000Y160000D01*
X-4545000Y-220000D02*
X-4505000Y-260000D01*
X-4505000Y-220000D02*
X-4545000Y-260000D01*
X-4530000Y555000D02*
X-4490000Y515000D01*
X-4490000Y555000D02*
X-4530000Y515000D01*
X-4425000Y480000D02*
X-4385000Y440000D01*
X-4385000Y480000D02*
X-4425000Y440000D01*
X-4416000Y-2938000D02*
X-4376000Y-2978000D01*
X-4376000Y-2938000D02*
X-4416000Y-2978000D01*
X-4410000Y2980000D02*
X-4370000Y2940000D01*
X-4370000Y2980000D02*
X-4410000Y2940000D01*
X-4360000Y-1625000D02*
X-4320000Y-1665000D01*
X-4320000Y-1625000D02*
X-4360000Y-1665000D01*
X-4335000Y-750000D02*
X-4295000Y-790000D01*
X-4295000Y-750000D02*
X-4335000Y-790000D01*
X-4325000Y-380000D02*
X-4285000Y-420000D01*
X-4285000Y-380000D02*
X-4325000Y-420000D01*
X-4305000Y80000D02*
X-4265000Y40000D01*
X-4265000Y80000D02*
X-4305000Y40000D01*
X-4265000Y920000D02*
X-4225000Y880000D01*
X-4225000Y920000D02*
X-4265000Y880000D01*
X-4245000Y-1470000D02*
X-4205000Y-1510000D01*
X-4205000Y-1470000D02*
X-4245000Y-1510000D01*
X-4240000Y745000D02*
X-4200000Y705000D01*
X-4200000Y745000D02*
X-4240000Y705000D01*
X-4227500Y1032500D02*
X-4187500Y992500D01*
X-4187500Y1032500D02*
X-4227500Y992500D01*
X-4195000Y-1995000D02*
X-4155000Y-2035000D01*
X-4155000Y-1995000D02*
X-4195000Y-2035000D01*
X-4195000Y-2320000D02*
X-4155000Y-2360000D01*
X-4155000Y-2320000D02*
X-4195000Y-2360000D01*
X-4175000Y2980000D02*
X-4135000Y2940000D01*
X-4135000Y2980000D02*
X-4175000Y2940000D01*
X-4125000Y1290000D02*
X-4085000Y1250000D01*
X-4085000Y1290000D02*
X-4125000Y1250000D01*
X-4068000Y-2936000D02*
X-4028000Y-2976000D01*
X-4028000Y-2936000D02*
X-4068000Y-2976000D01*
X-3935000Y1490000D02*
X-3895000Y1450000D01*
X-3895000Y1490000D02*
X-3935000Y1450000D01*
X-3935000Y-720000D02*
X-3895000Y-760000D01*
X-3895000Y-720000D02*
X-3935000Y-760000D01*
X-3925000Y2975000D02*
X-3885000Y2935000D01*
X-3885000Y2975000D02*
X-3925000Y2935000D01*
X-3925000Y-1010000D02*
X-3885000Y-1050000D01*
X-3885000Y-1010000D02*
X-3925000Y-1050000D01*
X-3920000Y-1305000D02*
X-3880000Y-1345000D01*
X-3880000Y-1305000D02*
X-3920000Y-1345000D01*
X-3905000Y610000D02*
X-3865000Y570000D01*
X-3865000Y610000D02*
X-3905000Y570000D01*
X-3875000Y757500D02*
X-3835000Y717500D01*
X-3835000Y757500D02*
X-3875000Y717500D01*
X-3845000Y-1990000D02*
X-3805000Y-2030000D01*
X-3805000Y-1990000D02*
X-3845000Y-2030000D01*
X-3732000Y-2938000D02*
X-3692000Y-2978000D01*
X-3692000Y-2938000D02*
X-3732000Y-2978000D01*
X-3680000Y2980000D02*
X-3640000Y2940000D01*
X-3640000Y2980000D02*
X-3680000Y2940000D01*
X-3610000Y-2030000D02*
X-3570000Y-2070000D01*
X-3570000Y-2030000D02*
X-3610000Y-2070000D01*
X-3555000Y-2360000D02*
X-3515000Y-2400000D01*
X-3515000Y-2360000D02*
X-3555000Y-2400000D01*
X-3515000Y1940000D02*
X-3475000Y1900000D01*
X-3475000Y1940000D02*
X-3515000Y1900000D01*
X-3428000Y-2936000D02*
X-3388000Y-2976000D01*
X-3388000Y-2936000D02*
X-3428000Y-2976000D01*
X-3395000Y2980000D02*
X-3355000Y2940000D01*
X-3355000Y2980000D02*
X-3395000Y2940000D01*
X-3340000Y-2645000D02*
X-3300000Y-2685000D01*
X-3300000Y-2645000D02*
X-3340000Y-2685000D01*
X-3325000Y-570000D02*
X-3285000Y-610000D01*
X-3285000Y-570000D02*
X-3325000Y-610000D01*
X-3275000Y1050000D02*
X-3235000Y1010000D01*
X-3235000Y1050000D02*
X-3275000Y1010000D01*
X-3265000Y530000D02*
X-3225000Y490000D01*
X-3225000Y530000D02*
X-3265000Y490000D01*
X-3265000Y350000D02*
X-3225000Y310000D01*
X-3225000Y350000D02*
X-3265000Y310000D01*
X-3265000Y-200000D02*
X-3225000Y-240000D01*
X-3225000Y-200000D02*
X-3265000Y-240000D01*
X-3255000Y160000D02*
X-3215000Y120000D01*
X-3215000Y160000D02*
X-3255000Y120000D01*
X-3250000Y1680000D02*
X-3210000Y1640000D01*
X-3210000Y1680000D02*
X-3250000Y1640000D01*
X-3180000Y2035000D02*
X-3140000Y1995000D01*
X-3140000Y2035000D02*
X-3180000Y1995000D01*
X-3175000Y-1875000D02*
X-3135000Y-1915000D01*
X-3135000Y-1875000D02*
X-3175000Y-1915000D01*
X-3115000Y2980000D02*
X-3075000Y2940000D01*
X-3075000Y2980000D02*
X-3115000Y2940000D01*
X-3085000Y1260000D02*
X-3045000Y1220000D01*
X-3045000Y1260000D02*
X-3085000Y1220000D01*
X-3055000Y-2937000D02*
X-3015000Y-2977000D01*
X-3015000Y-2937000D02*
X-3055000Y-2977000D01*
X-2950000Y1495000D02*
X-2910000Y1455000D01*
X-2910000Y1495000D02*
X-2950000Y1455000D01*
X-2810000Y2980000D02*
X-2770000Y2940000D01*
X-2770000Y2980000D02*
X-2810000Y2940000D01*
X-2735000Y-2290000D02*
X-2695000Y-2330000D01*
X-2695000Y-2290000D02*
X-2735000Y-2330000D01*
X-2709000Y-2936000D02*
X-2669000Y-2976000D01*
X-2669000Y-2936000D02*
X-2709000Y-2976000D01*
X-2645000Y-730000D02*
X-2605000Y-770000D01*
X-2605000Y-730000D02*
X-2645000Y-770000D01*
X-2635000Y-1040000D02*
X-2595000Y-1080000D01*
X-2595000Y-1040000D02*
X-2635000Y-1080000D01*
X-2600000Y1080000D02*
X-2560000Y1040000D01*
X-2560000Y1080000D02*
X-2600000Y1040000D01*
X-2500000Y2980000D02*
X-2460000Y2940000D01*
X-2460000Y2980000D02*
X-2500000Y2940000D01*
X-2355000Y1070000D02*
X-2315000Y1030000D01*
X-2315000Y1070000D02*
X-2355000Y1030000D01*
X-2322000Y-2937000D02*
X-2282000Y-2977000D01*
X-2282000Y-2937000D02*
X-2322000Y-2977000D01*
X-2320000Y-535000D02*
X-2280000Y-575000D01*
X-2280000Y-535000D02*
X-2320000Y-575000D01*
X-2245000Y1680000D02*
X-2205000Y1640000D01*
X-2205000Y1680000D02*
X-2245000Y1640000D01*
X-2205000Y925000D02*
X-2165000Y885000D01*
X-2165000Y925000D02*
X-2205000Y885000D01*
X-2190000Y2980000D02*
X-2150000Y2940000D01*
X-2150000Y2980000D02*
X-2190000Y2940000D01*
X-2190000Y1500000D02*
X-2150000Y1460000D01*
X-2150000Y1500000D02*
X-2190000Y1460000D01*
X-2185000Y-2280000D02*
X-2145000Y-2320000D01*
X-2145000Y-2280000D02*
X-2185000Y-2320000D01*
X-2140000Y705000D02*
X-2100000Y665000D01*
X-2100000Y705000D02*
X-2140000Y665000D01*
X-2085000Y1305000D02*
X-2045000Y1265000D01*
X-2045000Y1305000D02*
X-2085000Y1265000D01*
X-2005000Y2460000D02*
X-1965000Y2420000D01*
X-1965000Y2460000D02*
X-2005000Y2420000D01*
X-1955000Y1880000D02*
X-1915000Y1840000D01*
X-1915000Y1880000D02*
X-1955000Y1840000D01*
X-1949000Y-2939000D02*
X-1909000Y-2979000D01*
X-1909000Y-2939000D02*
X-1949000Y-2979000D01*
X-1900000Y190000D02*
X-1860000Y150000D01*
X-1860000Y190000D02*
X-1900000Y150000D01*
X-1895000Y2980000D02*
X-1855000Y2940000D01*
X-1855000Y2980000D02*
X-1895000Y2940000D01*
X-1895000Y-320000D02*
X-1855000Y-360000D01*
X-1855000Y-320000D02*
X-1895000Y-360000D01*
X-1890000Y-1430000D02*
X-1850000Y-1470000D01*
X-1850000Y-1430000D02*
X-1890000Y-1470000D01*
X-1875000Y-750000D02*
X-1835000Y-790000D01*
X-1835000Y-750000D02*
X-1875000Y-790000D01*
X-1760000Y1880000D02*
X-1720000Y1840000D01*
X-1720000Y1880000D02*
X-1760000Y1840000D01*
X-1735000Y-1940000D02*
X-1695000Y-1980000D01*
X-1695000Y-1940000D02*
X-1735000Y-1980000D01*
X-1735000Y-2170000D02*
X-1695000Y-2210000D01*
X-1695000Y-2170000D02*
X-1735000Y-2210000D01*
X-1725000Y2460000D02*
X-1685000Y2420000D01*
X-1685000Y2460000D02*
X-1725000Y2420000D01*
X-1625000Y1675000D02*
X-1585000Y1635000D01*
X-1585000Y1675000D02*
X-1625000Y1635000D01*
X-1625000Y185000D02*
X-1585000Y145000D01*
X-1585000Y185000D02*
X-1625000Y145000D01*
X-1625000Y-1440000D02*
X-1585000Y-1480000D01*
X-1585000Y-1440000D02*
X-1625000Y-1480000D01*
X-1615000Y1305000D02*
X-1575000Y1265000D01*
X-1575000Y1305000D02*
X-1615000Y1265000D01*
X-1610000Y1100000D02*
X-1570000Y1060000D01*
X-1570000Y1100000D02*
X-1610000Y1060000D01*
X-1610000Y925000D02*
X-1570000Y885000D01*
X-1570000Y925000D02*
X-1610000Y885000D01*
X-1605000Y-220000D02*
X-1565000Y-260000D01*
X-1565000Y-220000D02*
X-1605000Y-260000D01*
X-1595000Y620000D02*
X-1555000Y580000D01*
X-1555000Y620000D02*
X-1595000Y580000D01*
X-1595000Y-580000D02*
X-1555000Y-620000D01*
X-1555000Y-580000D02*
X-1595000Y-620000D01*
X-1560000Y2980000D02*
X-1520000Y2940000D01*
X-1520000Y2980000D02*
X-1560000Y2940000D01*
X-1553000Y-2937000D02*
X-1513000Y-2977000D01*
X-1513000Y-2937000D02*
X-1553000Y-2977000D01*
X-1525000Y1870000D02*
X-1485000Y1830000D01*
X-1485000Y1870000D02*
X-1525000Y1830000D01*
X-1270000Y630000D02*
X-1230000Y590000D01*
X-1230000Y630000D02*
X-1270000Y590000D01*
X-1220000Y2980000D02*
X-1180000Y2940000D01*
X-1180000Y2980000D02*
X-1220000Y2940000D01*
X-1181000Y-2938000D02*
X-1141000Y-2978000D01*
X-1141000Y-2938000D02*
X-1181000Y-2978000D01*
X-1125000Y-245000D02*
X-1085000Y-285000D01*
X-1085000Y-245000D02*
X-1125000Y-285000D01*
X-1125000Y-580000D02*
X-1085000Y-620000D01*
X-1085000Y-580000D02*
X-1125000Y-620000D01*
X-885000Y-2030000D02*
X-845000Y-2070000D01*
X-845000Y-2030000D02*
X-885000Y-2070000D01*
X-865000Y2980000D02*
X-825000Y2940000D01*
X-825000Y2980000D02*
X-865000Y2940000D01*
X-771000Y-2938000D02*
X-731000Y-2978000D01*
X-731000Y-2938000D02*
X-771000Y-2978000D01*
X-755000Y1095000D02*
X-715000Y1055000D01*
X-715000Y1095000D02*
X-755000Y1055000D01*
X-750000Y920000D02*
X-710000Y880000D01*
X-710000Y920000D02*
X-750000Y880000D01*
X-715000Y1670000D02*
X-675000Y1630000D01*
X-675000Y1670000D02*
X-715000Y1630000D01*
X-705000Y-1030000D02*
X-665000Y-1070000D01*
X-665000Y-1030000D02*
X-705000Y-1070000D01*
X-695000Y-840000D02*
X-655000Y-880000D01*
X-655000Y-840000D02*
X-695000Y-880000D01*
X-690000Y1290000D02*
X-650000Y1250000D01*
X-650000Y1290000D02*
X-690000Y1250000D01*
X-648840Y622560D02*
X-608840Y582560D01*
X-608840Y622560D02*
X-648840Y582560D01*
X-646360Y477260D02*
X-606360Y437260D01*
X-606360Y477260D02*
X-646360Y437260D01*
X-646360Y327260D02*
X-606360Y287260D01*
X-606360Y327260D02*
X-646360Y287260D01*
X-646360Y177260D02*
X-606360Y137260D01*
X-606360Y177260D02*
X-646360Y137260D01*
X-646360Y27260D02*
X-606360Y-12740D01*
X-606360Y27260D02*
X-646360Y-12740D01*
X-646360Y-122740D02*
X-606360Y-162740D01*
X-606360Y-122740D02*
X-646360Y-162740D01*
X-646360Y-272740D02*
X-606360Y-312740D01*
X-606360Y-272740D02*
X-646360Y-312740D01*
X-646360Y-572740D02*
X-606360Y-612740D01*
X-606360Y-572740D02*
X-646360Y-612740D01*
X-585000Y-2570000D02*
X-545000Y-2610000D01*
X-545000Y-2570000D02*
X-585000Y-2610000D01*
X-575000Y-2020000D02*
X-535000Y-2060000D01*
X-535000Y-2020000D02*
X-575000Y-2060000D01*
X-535000Y1495000D02*
X-495000Y1455000D01*
X-495000Y1495000D02*
X-535000Y1455000D01*
X-423840Y622560D02*
X-383840Y582560D01*
X-383840Y622560D02*
X-423840Y582560D01*
X-377000Y-2940000D02*
X-337000Y-2980000D01*
X-337000Y-2940000D02*
X-377000Y-2980000D01*
X-373840Y452560D02*
X-333840Y412560D01*
X-333840Y452560D02*
X-373840Y412560D01*
X-350000Y2180000D02*
X-310000Y2140000D01*
X-310000Y2180000D02*
X-350000Y2140000D01*
X-310000Y2485000D02*
X-270000Y2445000D01*
X-270000Y2485000D02*
X-310000Y2445000D01*
X-285000Y2980000D02*
X-245000Y2940000D01*
X-245000Y2980000D02*
X-285000Y2940000D01*
X-223840Y622560D02*
X-183840Y582560D01*
X-183840Y622560D02*
X-223840Y582560D01*
X-160000Y-1205000D02*
X-120000Y-1245000D01*
X-120000Y-1205000D02*
X-160000Y-1245000D01*
X-80000Y915000D02*
X-40000Y875000D01*
X-40000Y915000D02*
X-80000Y875000D01*
X-73840Y321560D02*
X-33840Y281560D01*
X-33840Y321560D02*
X-73840Y281560D01*
X-48840Y622560D02*
X-8840Y582560D01*
X-8840Y622560D02*
X-48840Y582560D01*
X-25000Y2970000D02*
X15000Y2930000D01*
X15000Y2970000D02*
X-25000Y2930000D01*
X-25000Y2515000D02*
X15000Y2475000D01*
X15000Y2515000D02*
X-25000Y2475000D01*
X-25000Y1670000D02*
X15000Y1630000D01*
X15000Y1670000D02*
X-25000Y1630000D01*
X-20000Y-2938000D02*
X20000Y-2978000D01*
X20000Y-2938000D02*
X-20000Y-2978000D01*
X105000Y1295000D02*
X145000Y1255000D01*
X145000Y1295000D02*
X105000Y1255000D01*
X106160Y-177440D02*
X146160Y-217440D01*
X146160Y-177440D02*
X106160Y-217440D01*
X106160Y-277440D02*
X146160Y-317440D01*
X146160Y-277440D02*
X106160Y-317440D01*
X106160Y-387440D02*
X146160Y-427440D01*
X146160Y-387440D02*
X106160Y-427440D01*
X135000Y1490000D02*
X175000Y1450000D01*
X175000Y1490000D02*
X135000Y1450000D01*
X151160Y622560D02*
X191160Y582560D01*
X191160Y622560D02*
X151160Y582560D01*
X210000Y2980000D02*
X250000Y2940000D01*
X250000Y2980000D02*
X210000Y2940000D01*
X216160Y-177440D02*
X256160Y-217440D01*
X256160Y-177440D02*
X216160Y-217440D01*
X216160Y-277440D02*
X256160Y-317440D01*
X256160Y-277440D02*
X216160Y-317440D01*
X216160Y-387440D02*
X256160Y-427440D01*
X256160Y-387440D02*
X216160Y-427440D01*
X260000Y-1205000D02*
X300000Y-1245000D01*
X300000Y-1205000D02*
X260000Y-1245000D01*
X275000Y-640000D02*
X315000Y-680000D01*
X315000Y-640000D02*
X275000Y-680000D01*
X290000Y2175000D02*
X330000Y2135000D01*
X330000Y2175000D02*
X290000Y2135000D01*
X296160Y317560D02*
X336160Y277560D01*
X336160Y317560D02*
X296160Y277560D01*
X326160Y622560D02*
X366160Y582560D01*
X366160Y622560D02*
X326160Y582560D01*
X326160Y-177440D02*
X366160Y-217440D01*
X366160Y-177440D02*
X326160Y-217440D01*
X326160Y-277440D02*
X366160Y-317440D01*
X366160Y-277440D02*
X326160Y-317440D01*
X326160Y-387440D02*
X366160Y-427440D01*
X366160Y-387440D02*
X326160Y-427440D01*
X330000Y1685000D02*
X370000Y1645000D01*
X370000Y1685000D02*
X330000Y1645000D01*
X405000Y-940000D02*
X445000Y-980000D01*
X445000Y-940000D02*
X405000Y-980000D01*
X427000Y-2938000D02*
X467000Y-2978000D01*
X467000Y-2938000D02*
X427000Y-2978000D01*
X436160Y-177440D02*
X476160Y-217440D01*
X476160Y-177440D02*
X436160Y-217440D01*
X436160Y-277440D02*
X476160Y-317440D01*
X476160Y-277440D02*
X436160Y-317440D01*
X436160Y-387440D02*
X476160Y-427440D01*
X476160Y-387440D02*
X436160Y-427440D01*
X475000Y-2000000D02*
X515000Y-2040000D01*
X515000Y-2000000D02*
X475000Y-2040000D01*
X501160Y622560D02*
X541160Y582560D01*
X541160Y622560D02*
X501160Y582560D01*
X540000Y1685000D02*
X580000Y1645000D01*
X580000Y1685000D02*
X540000Y1645000D01*
X546160Y-177440D02*
X586160Y-217440D01*
X586160Y-177440D02*
X546160Y-217440D01*
X546160Y-277440D02*
X586160Y-317440D01*
X586160Y-277440D02*
X546160Y-317440D01*
X546160Y-387440D02*
X586160Y-427440D01*
X586160Y-387440D02*
X546160Y-427440D01*
X605000Y-640000D02*
X645000Y-680000D01*
X645000Y-640000D02*
X605000Y-680000D01*
X615000Y2505000D02*
X655000Y2465000D01*
X655000Y2505000D02*
X615000Y2465000D01*
X615000Y2365000D02*
X655000Y2325000D01*
X655000Y2365000D02*
X615000Y2325000D01*
X660000Y2155000D02*
X700000Y2115000D01*
X700000Y2155000D02*
X660000Y2115000D01*
X676160Y622560D02*
X716160Y582560D01*
X716160Y622560D02*
X676160Y582560D01*
X710000Y2675000D02*
X750000Y2635000D01*
X750000Y2675000D02*
X710000Y2635000D01*
X715000Y1690000D02*
X755000Y1650000D01*
X755000Y1690000D02*
X715000Y1650000D01*
X725000Y-2185000D02*
X765000Y-2225000D01*
X765000Y-2185000D02*
X725000Y-2225000D01*
X770000Y2980000D02*
X810000Y2940000D01*
X810000Y2980000D02*
X770000Y2940000D01*
X775000Y925000D02*
X815000Y885000D01*
X815000Y925000D02*
X775000Y885000D01*
X805000Y622560D02*
X845000Y582560D01*
X845000Y622560D02*
X805000Y582560D01*
X805000Y490000D02*
X845000Y450000D01*
X845000Y490000D02*
X805000Y450000D01*
X805000Y380000D02*
X845000Y340000D01*
X845000Y380000D02*
X805000Y340000D01*
X810000Y-1720000D02*
X850000Y-1760000D01*
X850000Y-1720000D02*
X810000Y-1760000D01*
X825000Y-610000D02*
X865000Y-650000D01*
X865000Y-610000D02*
X825000Y-650000D01*
X840000Y-2938000D02*
X880000Y-2978000D01*
X880000Y-2938000D02*
X840000Y-2978000D01*
X880000Y1295000D02*
X920000Y1255000D01*
X920000Y1295000D02*
X880000Y1255000D01*
X895000Y1495000D02*
X935000Y1455000D01*
X935000Y1495000D02*
X895000Y1455000D01*
X965000Y-510000D02*
X1005000Y-550000D01*
X1005000Y-510000D02*
X965000Y-550000D01*
X1135000Y2980000D02*
X1175000Y2940000D01*
X1175000Y2980000D02*
X1135000Y2940000D01*
X1160000Y1560000D02*
X1200000Y1520000D01*
X1200000Y1560000D02*
X1160000Y1520000D01*
X1216000Y-2939000D02*
X1256000Y-2979000D01*
X1256000Y-2939000D02*
X1216000Y-2979000D01*
X1245000Y-1720000D02*
X1285000Y-1760000D01*
X1285000Y-1720000D02*
X1245000Y-1760000D01*
X1245000Y-2185000D02*
X1285000Y-2225000D01*
X1285000Y-2185000D02*
X1245000Y-2225000D01*
X1255000Y-610000D02*
X1295000Y-650000D01*
X1295000Y-610000D02*
X1255000Y-650000D01*
X1305000Y2170000D02*
X1345000Y2130000D01*
X1345000Y2170000D02*
X1305000Y2130000D01*
X1365000Y1925000D02*
X1405000Y1885000D01*
X1405000Y1925000D02*
X1365000Y1885000D01*
X1375000Y1330000D02*
X1415000Y1290000D01*
X1415000Y1330000D02*
X1375000Y1290000D01*
X1405000Y-755000D02*
X1445000Y-795000D01*
X1445000Y-755000D02*
X1405000Y-795000D01*
X1490000Y2980000D02*
X1530000Y2940000D01*
X1530000Y2980000D02*
X1490000Y2940000D01*
X1505000Y1660000D02*
X1545000Y1620000D01*
X1545000Y1660000D02*
X1505000Y1620000D01*
X1545000Y1175000D02*
X1585000Y1135000D01*
X1585000Y1175000D02*
X1545000Y1135000D01*
X1555000Y-890000D02*
X1595000Y-930000D01*
X1595000Y-890000D02*
X1555000Y-930000D01*
X1562000Y-2939000D02*
X1602000Y-2979000D01*
X1602000Y-2939000D02*
X1562000Y-2979000D01*
X1660000Y475000D02*
X1700000Y435000D01*
X1700000Y475000D02*
X1660000Y435000D01*
X1670000Y960000D02*
X1710000Y920000D01*
X1710000Y960000D02*
X1670000Y920000D01*
X1695000Y-1550000D02*
X1735000Y-1590000D01*
X1735000Y-1550000D02*
X1695000Y-1590000D01*
X1695000Y-1720000D02*
X1735000Y-1760000D01*
X1735000Y-1720000D02*
X1695000Y-1760000D01*
X1695000Y-2390000D02*
X1735000Y-2430000D01*
X1735000Y-2390000D02*
X1695000Y-2430000D01*
X1700000Y-2185000D02*
X1740000Y-2225000D01*
X1740000Y-2185000D02*
X1700000Y-2225000D01*
X1965000Y2980000D02*
X2005000Y2940000D01*
X2005000Y2980000D02*
X1965000Y2940000D01*
X1976000Y-2937000D02*
X2016000Y-2977000D01*
X2016000Y-2937000D02*
X1976000Y-2977000D01*
X2000000Y-965000D02*
X2040000Y-1005000D01*
X2040000Y-965000D02*
X2000000Y-1005000D01*
X2175000Y-1730000D02*
X2215000Y-1770000D01*
X2215000Y-1730000D02*
X2175000Y-1770000D01*
X2180000Y2080000D02*
X2220000Y2040000D01*
X2220000Y2080000D02*
X2180000Y2040000D01*
X2180000Y145000D02*
X2220000Y105000D01*
X2220000Y145000D02*
X2180000Y105000D01*
X2180000Y-2185000D02*
X2220000Y-2225000D01*
X2220000Y-2185000D02*
X2180000Y-2225000D01*
X2185000Y2310000D02*
X2225000Y2270000D01*
X2225000Y2310000D02*
X2185000Y2270000D01*
X2195000Y720000D02*
X2235000Y680000D01*
X2235000Y720000D02*
X2195000Y680000D01*
X2200000Y1495000D02*
X2240000Y1455000D01*
X2240000Y1495000D02*
X2200000Y1455000D01*
X2290000Y1230000D02*
X2330000Y1190000D01*
X2330000Y1230000D02*
X2290000Y1190000D01*
X2360000Y2980000D02*
X2400000Y2940000D01*
X2400000Y2980000D02*
X2360000Y2940000D01*
X2470000Y-2939000D02*
X2510000Y-2979000D01*
X2510000Y-2939000D02*
X2470000Y-2979000D01*
X2515000Y-880000D02*
X2555000Y-920000D01*
X2555000Y-880000D02*
X2515000Y-920000D01*
X2530000Y1490000D02*
X2570000Y1450000D01*
X2570000Y1490000D02*
X2530000Y1450000D01*
X2540000Y2335000D02*
X2580000Y2295000D01*
X2580000Y2335000D02*
X2540000Y2295000D01*
X2715000Y2980000D02*
X2755000Y2940000D01*
X2755000Y2980000D02*
X2715000Y2940000D01*
X2715000Y-1220000D02*
X2755000Y-1260000D01*
X2755000Y-1220000D02*
X2715000Y-1260000D01*
X2735000Y1600000D02*
X2775000Y1560000D01*
X2775000Y1600000D02*
X2735000Y1560000D01*
X2735000Y-1730000D02*
X2775000Y-1770000D01*
X2775000Y-1730000D02*
X2735000Y-1770000D01*
X2735000Y-2185000D02*
X2775000Y-2225000D01*
X2775000Y-2185000D02*
X2735000Y-2225000D01*
X2745000Y-980000D02*
X2785000Y-1020000D01*
X2785000Y-980000D02*
X2745000Y-1020000D01*
X2760000Y2335000D02*
X2800000Y2295000D01*
X2800000Y2335000D02*
X2760000Y2295000D01*
X2785000Y1040000D02*
X2825000Y1000000D01*
X2825000Y1040000D02*
X2785000Y1000000D01*
X2795000Y2685000D02*
X2835000Y2645000D01*
X2835000Y2685000D02*
X2795000Y2645000D01*
X2850000Y-670000D02*
X2890000Y-710000D01*
X2890000Y-670000D02*
X2850000Y-710000D01*
X2963000Y-2938000D02*
X3003000Y-2978000D01*
X3003000Y-2938000D02*
X2963000Y-2978000D01*
X3000000Y1030000D02*
X3040000Y990000D01*
X3040000Y1030000D02*
X3000000Y990000D01*
X3015000Y430000D02*
X3055000Y390000D01*
X3055000Y430000D02*
X3015000Y390000D01*
X3035000Y2980000D02*
X3075000Y2940000D01*
X3075000Y2980000D02*
X3035000Y2940000D01*
X3095000Y-990000D02*
X3135000Y-1030000D01*
X3135000Y-990000D02*
X3095000Y-1030000D01*
X3125000Y1500000D02*
X3165000Y1460000D01*
X3165000Y1500000D02*
X3125000Y1460000D01*
X3135000Y-1730000D02*
X3175000Y-1770000D01*
X3175000Y-1730000D02*
X3135000Y-1770000D01*
X3150000Y-2180000D02*
X3190000Y-2220000D01*
X3190000Y-2180000D02*
X3150000Y-2220000D01*
X3175000Y-1220000D02*
X3215000Y-1260000D01*
X3215000Y-1220000D02*
X3175000Y-1260000D01*
X3190000Y1025000D02*
X3230000Y985000D01*
X3230000Y1025000D02*
X3190000Y985000D01*
X3235000Y680000D02*
X3275000Y640000D01*
X3275000Y680000D02*
X3235000Y640000D01*
X3255000Y1500000D02*
X3295000Y1460000D01*
X3295000Y1500000D02*
X3255000Y1460000D01*
X3280000Y495000D02*
X3320000Y455000D01*
X3320000Y495000D02*
X3280000Y455000D01*
X3319000Y-2938000D02*
X3359000Y-2978000D01*
X3359000Y-2938000D02*
X3319000Y-2978000D01*
X3370000Y1020000D02*
X3410000Y980000D01*
X3410000Y1020000D02*
X3370000Y980000D01*
X3385000Y1505000D02*
X3425000Y1465000D01*
X3425000Y1505000D02*
X3385000Y1465000D01*
X3390000Y2980000D02*
X3430000Y2940000D01*
X3430000Y2980000D02*
X3390000Y2940000D01*
X3400000Y2065000D02*
X3440000Y2025000D01*
X3440000Y2065000D02*
X3400000Y2025000D01*
X3405000Y2555000D02*
X3445000Y2515000D01*
X3445000Y2555000D02*
X3405000Y2515000D01*
X3405000Y2300000D02*
X3445000Y2260000D01*
X3445000Y2300000D02*
X3405000Y2260000D01*
X3525000Y-1740000D02*
X3565000Y-1780000D01*
X3565000Y-1740000D02*
X3525000Y-1780000D01*
X3530000Y-2180000D02*
X3570000Y-2220000D01*
X3570000Y-2180000D02*
X3530000Y-2220000D01*
X3560000Y1500000D02*
X3600000Y1460000D01*
X3600000Y1500000D02*
X3560000Y1460000D01*
X3695000Y750000D02*
X3735000Y710000D01*
X3735000Y750000D02*
X3695000Y710000D01*
X3725000Y1065000D02*
X3765000Y1025000D01*
X3765000Y1065000D02*
X3725000Y1025000D01*
X3770000Y-2939000D02*
X3810000Y-2979000D01*
X3810000Y-2939000D02*
X3770000Y-2979000D01*
X3780000Y2980000D02*
X3820000Y2940000D01*
X3820000Y2980000D02*
X3780000Y2940000D01*
X3795000Y-650000D02*
X3835000Y-690000D01*
X3835000Y-650000D02*
X3795000Y-690000D01*
X3870000Y1195000D02*
X3910000Y1155000D01*
X3910000Y1195000D02*
X3870000Y1155000D01*
X3965000Y-970000D02*
X4005000Y-1010000D01*
X4005000Y-970000D02*
X3965000Y-1010000D01*
X4035000Y1195000D02*
X4075000Y1155000D01*
X4075000Y1195000D02*
X4035000Y1155000D01*
X4075000Y2980000D02*
X4115000Y2940000D01*
X4115000Y2980000D02*
X4075000Y2940000D01*
X4120000Y-2185000D02*
X4160000Y-2225000D01*
X4160000Y-2185000D02*
X4120000Y-2225000D01*
X4125000Y-1730000D02*
X4165000Y-1770000D01*
X4165000Y-1730000D02*
X4125000Y-1770000D01*
X4155000Y-650000D02*
X4195000Y-690000D01*
X4195000Y-650000D02*
X4155000Y-690000D01*
X4185000Y945000D02*
X4225000Y905000D01*
X4225000Y945000D02*
X4185000Y905000D01*
X4190000Y1195000D02*
X4230000Y1155000D01*
X4230000Y1195000D02*
X4190000Y1155000D01*
X4215000Y50000D02*
X4255000Y10000D01*
X4255000Y50000D02*
X4215000Y10000D01*
X4233000Y-2935000D02*
X4273000Y-2975000D01*
X4273000Y-2935000D02*
X4233000Y-2975000D01*
X4315000Y450000D02*
X4355000Y410000D01*
X4355000Y450000D02*
X4315000Y410000D01*
X4335000Y-2181300D02*
X4375000Y-2221300D01*
X4375000Y-2181300D02*
X4335000Y-2221300D01*
X4340000Y945000D02*
X4380000Y905000D01*
X4380000Y945000D02*
X4340000Y905000D01*
X4345000Y1195000D02*
X4385000Y1155000D01*
X4385000Y1195000D02*
X4345000Y1155000D01*
X4385000Y-1315000D02*
X4425000Y-1355000D01*
X4425000Y-1315000D02*
X4385000Y-1355000D01*
X4395000Y-1730000D02*
X4435000Y-1770000D01*
X4435000Y-1730000D02*
X4395000Y-1770000D01*
X4460000Y2980000D02*
X4500000Y2940000D01*
X4500000Y2980000D02*
X4460000Y2940000D01*
X4490000Y950000D02*
X4530000Y910000D01*
X4530000Y950000D02*
X4490000Y910000D01*
X4495000Y1195000D02*
X4535000Y1155000D01*
X4535000Y1195000D02*
X4495000Y1155000D01*
X4563600Y-1871988D02*
X4603600Y-1911988D01*
X4603600Y-1871988D02*
X4563600Y-1911988D01*
X4563600Y-2075000D02*
X4603600Y-2115000D01*
X4603600Y-2075000D02*
X4563600Y-2115000D01*
X4640000Y945000D02*
X4680000Y905000D01*
X4680000Y945000D02*
X4640000Y905000D01*
X4645000Y1190000D02*
X4685000Y1150000D01*
X4685000Y1190000D02*
X4645000Y1150000D01*
X4665000Y-1585000D02*
X4705000Y-1625000D01*
X4705000Y-1585000D02*
X4665000Y-1625000D01*
X4675000Y440000D02*
X4715000Y400000D01*
X4715000Y440000D02*
X4675000Y400000D01*
X4682000Y-2937000D02*
X4722000Y-2977000D01*
X4722000Y-2937000D02*
X4682000Y-2977000D01*
X4695000Y-960000D02*
X4735000Y-1000000D01*
X4735000Y-960000D02*
X4695000Y-1000000D01*
X4765000Y-1320000D02*
X4805000Y-1360000D01*
X4805000Y-1320000D02*
X4765000Y-1360000D01*
X4800000Y1190000D02*
X4840000Y1150000D01*
X4840000Y1190000D02*
X4800000Y1150000D01*
X4800000Y945000D02*
X4840000Y905000D01*
X4840000Y945000D02*
X4800000Y905000D01*
X4880000Y-1990000D02*
X4920000Y-2030000D01*
X4920000Y-1990000D02*
X4880000Y-2030000D01*
X4938300Y2768460D02*
X4978300Y2728460D01*
X4978300Y2768460D02*
X4938300Y2728460D01*
X4938300Y2618460D02*
X4978300Y2578460D01*
X4978300Y2618460D02*
X4938300Y2578460D01*
X4938300Y2318460D02*
X4978300Y2278460D01*
X4978300Y2318460D02*
X4938300Y2278460D01*
X4938300Y2168460D02*
X4978300Y2128460D01*
X4978300Y2168460D02*
X4938300Y2128460D01*
X4938300Y2018460D02*
X4978300Y1978460D01*
X4978300Y2018460D02*
X4938300Y1978460D01*
X4938300Y1868460D02*
X4978300Y1828460D01*
X4978300Y1868460D02*
X4938300Y1828460D01*
X4938300Y1718460D02*
X4978300Y1678460D01*
X4978300Y1718460D02*
X4938300Y1678460D01*
X4938300Y1568460D02*
X4978300Y1528460D01*
X4978300Y1568460D02*
X4938300Y1528460D01*
X4938300Y1418460D02*
X4978300Y1378460D01*
X4978300Y1418460D02*
X4938300Y1378460D01*
X4940000Y2955000D02*
X4980000Y2915000D01*
X4980000Y2955000D02*
X4940000Y2915000D01*
X4940000Y1195000D02*
X4980000Y1155000D01*
X4980000Y1195000D02*
X4940000Y1155000D01*
X4945000Y940000D02*
X4985000Y900000D01*
X4985000Y940000D02*
X4945000Y900000D01*
X4945000Y730000D02*
X4985000Y690000D01*
X4985000Y730000D02*
X4945000Y690000D01*
X4945000Y475000D02*
X4985000Y435000D01*
X4985000Y475000D02*
X4945000Y435000D01*
X4973000Y-1084000D02*
X5013000Y-1124000D01*
X5013000Y-1084000D02*
X4973000Y-1124000D01*
X5035000Y190000D02*
X5075000Y150000D01*
X5075000Y190000D02*
X5035000Y150000D01*
X5075000Y1095000D02*
X5115000Y1055000D01*
X5115000Y1095000D02*
X5075000Y1055000D01*
X5205000Y-460000D02*
X5245000Y-500000D01*
X5245000Y-460000D02*
X5205000Y-500000D01*
X5212000Y-2938000D02*
X5252000Y-2978000D01*
X5252000Y-2938000D02*
X5212000Y-2978000D01*
X5275000Y730000D02*
X5315000Y690000D01*
X5315000Y730000D02*
X5275000Y690000D01*
X5305000Y-1340000D02*
X5345000Y-1380000D01*
X5345000Y-1340000D02*
X5305000Y-1380000D01*
X5305000Y-1900000D02*
X5345000Y-1940000D01*
X5345000Y-1900000D02*
X5305000Y-1940000D01*
X5315000Y1637122D02*
X5355000Y1597122D01*
X5355000Y1637122D02*
X5315000Y1597122D01*
X5445000Y-2790000D02*
X5485000Y-2830000D01*
X5485000Y-2790000D02*
X5445000Y-2830000D01*
X5465000Y-1760000D02*
X5505000Y-1800000D01*
X5505000Y-1760000D02*
X5465000Y-1800000D01*
X5515000Y730000D02*
X5555000Y690000D01*
X5555000Y730000D02*
X5515000Y690000D01*
X5770000Y730000D02*
X5810000Y690000D01*
X5810000Y730000D02*
X5770000Y690000D01*
X5785000Y-2937000D02*
X5825000Y-2977000D01*
X5825000Y-2937000D02*
X5785000Y-2977000D01*
X5959000Y-2090000D02*
X5999000Y-2130000D01*
X5999000Y-2090000D02*
X5959000Y-2130000D01*
X6015000Y730000D02*
X6055000Y690000D01*
X6055000Y730000D02*
X6015000Y690000D01*
X6020000Y-375000D02*
X6060000Y-415000D01*
X6060000Y-375000D02*
X6020000Y-415000D01*
X6023191Y-2561128D02*
X6063191Y-2601128D01*
X6063191Y-2561128D02*
X6023191Y-2601128D01*
X6065000Y-2937000D02*
X6105000Y-2977000D01*
X6105000Y-2937000D02*
X6065000Y-2977000D01*
X6235000Y715000D02*
X6275000Y675000D01*
X6275000Y715000D02*
X6235000Y675000D01*
X6295000Y-910000D02*
X6335000Y-950000D01*
X6335000Y-910000D02*
X6295000Y-950000D01*
X6296000Y218000D02*
X6336000Y178000D01*
X6336000Y218000D02*
X6296000Y178000D01*
X6296000Y17000D02*
X6336000Y-23000D01*
X6336000Y17000D02*
X6296000Y-23000D01*
X6297000Y-177000D02*
X6337000Y-217000D01*
X6337000Y-177000D02*
X6297000Y-217000D01*
X6298000Y-431000D02*
X6338000Y-471000D01*
X6338000Y-431000D02*
X6298000Y-471000D01*
X6298000Y-2591000D02*
X6338000Y-2631000D01*
X6338000Y-2591000D02*
X6298000Y-2631000D01*
X6299000Y-2096000D02*
X6339000Y-2136000D01*
X6339000Y-2096000D02*
X6299000Y-2136000D01*
X6300000Y480000D02*
X6340000Y440000D01*
X6340000Y480000D02*
X6300000Y440000D01*
X-6050000Y550000D02*
G75*
G02*
X-6150000Y550000I-50000J0D01*
G01*
X-6150000Y550000D02*
G75*
G02*
X-6050000Y550000I50000J0D01*
G01*
X-6050000Y-550000D02*
G75*
G02*
X-6150000Y-550000I-50000J0D01*
G01*
X-6150000Y-550000D02*
G75*
G02*
X-6050000Y-550000I50000J0D01*
G01*
X-5796000Y550000D02*
G75*
G02*
X-5896000Y550000I-50000J0D01*
G01*
X-5896000Y550000D02*
G75*
G02*
X-5796000Y550000I50000J0D01*
G01*
X-5796000Y-550000D02*
G75*
G02*
X-5896000Y-550000I-50000J0D01*
G01*
X-5896000Y-550000D02*
G75*
G02*
X-5796000Y-550000I50000J0D01*
G01*
X-5542000Y550000D02*
G75*
G02*
X-5642000Y550000I-50000J0D01*
G01*
X-5642000Y550000D02*
G75*
G02*
X-5542000Y550000I50000J0D01*
G01*
X-5542000Y2650000D02*
G75*
G02*
X-5642000Y2650000I-50000J0D01*
G01*
X-5642000Y2650000D02*
G75*
G02*
X-5542000Y2650000I50000J0D01*
G01*
X-5542000Y-550000D02*
G75*
G02*
X-5642000Y-550000I-50000J0D01*
G01*
X-5642000Y-550000D02*
G75*
G02*
X-5542000Y-550000I50000J0D01*
G01*
X-5542000Y-2650000D02*
G75*
G02*
X-5642000Y-2650000I-50000J0D01*
G01*
X-5642000Y-2650000D02*
G75*
G02*
X-5542000Y-2650000I50000J0D01*
G01*
X-5288000Y2650000D02*
G75*
G02*
X-5388000Y2650000I-50000J0D01*
G01*
X-5388000Y2650000D02*
G75*
G02*
X-5288000Y2650000I50000J0D01*
G01*
X-5288000Y550000D02*
G75*
G02*
X-5388000Y550000I-50000J0D01*
G01*
X-5388000Y550000D02*
G75*
G02*
X-5288000Y550000I50000J0D01*
G01*
X-5288000Y-550000D02*
G75*
G02*
X-5388000Y-550000I-50000J0D01*
G01*
X-5388000Y-550000D02*
G75*
G02*
X-5288000Y-550000I50000J0D01*
G01*
X-5288000Y-2650000D02*
G75*
G02*
X-5388000Y-2650000I-50000J0D01*
G01*
X-5388000Y-2650000D02*
G75*
G02*
X-5288000Y-2650000I50000J0D01*
G01*
X5205000Y550000D02*
G75*
G02*
X5105000Y550000I-50000J0D01*
G01*
X5105000Y550000D02*
G75*
G02*
X5205000Y550000I50000J0D01*
G01*
X5459000Y550000D02*
G75*
G02*
X5359000Y550000I-50000J0D01*
G01*
X5359000Y550000D02*
G75*
G02*
X5459000Y550000I50000J0D01*
G01*
X5713000Y550000D02*
G75*
G02*
X5613000Y550000I-50000J0D01*
G01*
X5613000Y550000D02*
G75*
G02*
X5713000Y550000I50000J0D01*
G01*
X5967000Y550000D02*
G75*
G02*
X5867000Y550000I-50000J0D01*
G01*
X5867000Y550000D02*
G75*
G02*
X5967000Y550000I50000J0D01*
G01*
D12*
X-3900000Y2634000D02*
X-3900000Y2449000D01*
X-3992500Y2541500D02*
X-3807500Y2541500D01*
X-3900000Y1872000D02*
X-3900000Y1687000D01*
X-3992500Y1779500D02*
X-3807500Y1779500D01*
X-3900000Y-1481000D02*
X-3900000Y-1666000D01*
X-3992500Y-1573500D02*
X-3807500Y-1573500D01*
X-3900000Y-2243000D02*
X-3900000Y-2428000D01*
X-3992500Y-2335500D02*
X-3807500Y-2335500D01*
X-2450000Y2634000D02*
X-2450000Y2449000D01*
X-2542500Y2541500D02*
X-2357500Y2541500D01*
X-2450000Y1872000D02*
X-2450000Y1687000D01*
X-2542500Y1779500D02*
X-2357500Y1779500D01*
X-2450000Y-1481000D02*
X-2450000Y-1666000D01*
X-2542500Y-1573500D02*
X-2357500Y-1573500D01*
X-2450000Y-2243000D02*
X-2450000Y-2428000D01*
X-2542500Y-2335500D02*
X-2357500Y-2335500D01*
X-1000000Y2634000D02*
X-1000000Y2449000D01*
X-1092500Y2541500D02*
X-907500Y2541500D01*
X-1000000Y1872000D02*
X-1000000Y1687000D01*
X-1092500Y1779500D02*
X-907500Y1779500D01*
X-1000000Y-1481000D02*
X-1000000Y-1666000D01*
X-1092500Y-1573500D02*
X-907500Y-1573500D01*
X-1000000Y-2243000D02*
X-1000000Y-2428000D01*
X-1092500Y-2335500D02*
X-907500Y-2335500D01*
X1000000Y2633150D02*
X1000000Y2448150D01*
X907500Y2540650D02*
X1092500Y2540650D01*
X1000000Y1871150D02*
X1000000Y1686150D01*
X907500Y1778650D02*
X1092500Y1778650D01*
X1000000Y-1481850D02*
X1000000Y-1666850D01*
X907500Y-1574350D02*
X1092500Y-1574350D01*
X1000000Y-2243850D02*
X1000000Y-2428850D01*
X907500Y-2336350D02*
X1092500Y-2336350D01*
X2450000Y2624150D02*
X2450000Y2439150D01*
X2357500Y2531650D02*
X2542500Y2531650D01*
X2450000Y1862150D02*
X2450000Y1677150D01*
X2357500Y1769650D02*
X2542500Y1769650D01*
X2450000Y-1490850D02*
X2450000Y-1675850D01*
X2357500Y-1583350D02*
X2542500Y-1583350D01*
X2450000Y-2252850D02*
X2450000Y-2437850D01*
X2357500Y-2345350D02*
X2542500Y-2345350D01*
X3900000Y2624150D02*
X3900000Y2439150D01*
X3807500Y2531650D02*
X3992500Y2531650D01*
X3900000Y1862150D02*
X3900000Y1677150D01*
X3807500Y1769650D02*
X3992500Y1769650D01*
X3900000Y-1490850D02*
X3900000Y-1675850D01*
X3807500Y-1583350D02*
X3992500Y-1583350D01*
X3900000Y-2252850D02*
X3900000Y-2437850D01*
X3807500Y-2345350D02*
X3992500Y-2345350D01*
D13*
X-5904540Y-95460D02*
X-5904540Y95460D01*
X-6095460Y95460D01*
X-6095460Y-95460D01*
X-5904540Y-95460D01*
X6095460Y-95460D02*
X6095460Y95460D01*
X5904540Y95460D01*
X5904540Y-95460D01*
X6095460Y-95460D01*
D11*
X-6154223Y-3366484D02*
X-6154223Y-3166484D01*
X-6154223Y-3166484D02*
X-6106604Y-3166484D01*
X-6106604Y-3166484D02*
X-6078033Y-3176008D01*
X-6078033Y-3176008D02*
X-6058985Y-3195055D01*
X-6058985Y-3195055D02*
X-6049461Y-3214103D01*
X-6049461Y-3214103D02*
X-6039937Y-3252198D01*
X-6039937Y-3252198D02*
X-6039937Y-3280769D01*
X-6039937Y-3280769D02*
X-6049461Y-3318865D01*
X-6049461Y-3318865D02*
X-6058985Y-3337912D01*
X-6058985Y-3337912D02*
X-6078033Y-3356960D01*
X-6078033Y-3356960D02*
X-6106604Y-3366484D01*
X-6106604Y-3366484D02*
X-6154223Y-3366484D01*
X-5954223Y-3366484D02*
X-5954223Y-3233150D01*
X-5954223Y-3271246D02*
X-5944699Y-3252198D01*
X-5944699Y-3252198D02*
X-5935175Y-3242674D01*
X-5935175Y-3242674D02*
X-5916128Y-3233150D01*
X-5916128Y-3233150D02*
X-5897080Y-3233150D01*
X-5830414Y-3366484D02*
X-5830414Y-3233150D01*
X-5830414Y-3166484D02*
X-5839937Y-3176008D01*
X-5839937Y-3176008D02*
X-5830414Y-3185531D01*
X-5830414Y-3185531D02*
X-5820890Y-3176008D01*
X-5820890Y-3176008D02*
X-5830414Y-3166484D01*
X-5830414Y-3166484D02*
X-5830414Y-3185531D01*
X-5706604Y-3366484D02*
X-5725652Y-3356960D01*
X-5725652Y-3356960D02*
X-5735175Y-3337912D01*
X-5735175Y-3337912D02*
X-5735175Y-3166484D01*
X-5601842Y-3366484D02*
X-5620890Y-3356960D01*
X-5620890Y-3356960D02*
X-5630414Y-3337912D01*
X-5630414Y-3337912D02*
X-5630414Y-3166484D01*
X-5373271Y-3366484D02*
X-5373271Y-3166484D01*
X-5373271Y-3166484D02*
X-5306604Y-3309341D01*
X-5306604Y-3309341D02*
X-5239937Y-3166484D01*
X-5239937Y-3166484D02*
X-5239937Y-3366484D01*
X-5058985Y-3366484D02*
X-5058985Y-3261722D01*
X-5058985Y-3261722D02*
X-5068509Y-3242674D01*
X-5068509Y-3242674D02*
X-5087556Y-3233150D01*
X-5087556Y-3233150D02*
X-5125652Y-3233150D01*
X-5125652Y-3233150D02*
X-5144699Y-3242674D01*
X-5058985Y-3356960D02*
X-5078033Y-3366484D01*
X-5078033Y-3366484D02*
X-5125652Y-3366484D01*
X-5125652Y-3366484D02*
X-5144699Y-3356960D01*
X-5144699Y-3356960D02*
X-5154223Y-3337912D01*
X-5154223Y-3337912D02*
X-5154223Y-3318865D01*
X-5154223Y-3318865D02*
X-5144699Y-3299817D01*
X-5144699Y-3299817D02*
X-5125652Y-3290293D01*
X-5125652Y-3290293D02*
X-5078033Y-3290293D01*
X-5078033Y-3290293D02*
X-5058985Y-3280769D01*
X-4963747Y-3233150D02*
X-4963747Y-3433150D01*
X-4963747Y-3242674D02*
X-4944699Y-3233150D01*
X-4944699Y-3233150D02*
X-4906604Y-3233150D01*
X-4906604Y-3233150D02*
X-4887556Y-3242674D01*
X-4887556Y-3242674D02*
X-4878033Y-3252198D01*
X-4878033Y-3252198D02*
X-4868509Y-3271246D01*
X-4868509Y-3271246D02*
X-4868509Y-3328388D01*
X-4868509Y-3328388D02*
X-4878033Y-3347436D01*
X-4878033Y-3347436D02*
X-4887556Y-3356960D01*
X-4887556Y-3356960D02*
X-4906604Y-3366484D01*
X-4906604Y-3366484D02*
X-4944699Y-3366484D01*
X-4944699Y-3366484D02*
X-4963747Y-3356960D01*
X-4782795Y-3347436D02*
X-4773271Y-3356960D01*
X-4773271Y-3356960D02*
X-4782795Y-3366484D01*
X-4782795Y-3366484D02*
X-4792318Y-3356960D01*
X-4792318Y-3356960D02*
X-4782795Y-3347436D01*
X-4782795Y-3347436D02*
X-4782795Y-3366484D01*
X-4782795Y-3242674D02*
X-4773271Y-3252198D01*
X-4773271Y-3252198D02*
X-4782795Y-3261722D01*
X-4782795Y-3261722D02*
X-4792318Y-3252198D01*
X-4792318Y-3252198D02*
X-4782795Y-3242674D01*
X-4782795Y-3242674D02*
X-4782795Y-3261722D01*
D10*
X-6455000Y-3675000D02*
X-6415000Y-3715000D01*
X-6415000Y-3675000D02*
X-6455000Y-3715000D01*
D11*
X-6116128Y-3586484D02*
X-6097080Y-3586484D01*
X-6097080Y-3586484D02*
X-6078033Y-3596008D01*
X-6078033Y-3596008D02*
X-6068509Y-3605531D01*
X-6068509Y-3605531D02*
X-6058985Y-3624579D01*
X-6058985Y-3624579D02*
X-6049461Y-3662674D01*
X-6049461Y-3662674D02*
X-6049461Y-3710293D01*
X-6049461Y-3710293D02*
X-6058985Y-3748388D01*
X-6058985Y-3748388D02*
X-6068509Y-3767436D01*
X-6068509Y-3767436D02*
X-6078033Y-3776960D01*
X-6078033Y-3776960D02*
X-6097080Y-3786484D01*
X-6097080Y-3786484D02*
X-6116128Y-3786484D01*
X-6116128Y-3786484D02*
X-6135175Y-3776960D01*
X-6135175Y-3776960D02*
X-6144699Y-3767436D01*
X-6144699Y-3767436D02*
X-6154223Y-3748388D01*
X-6154223Y-3748388D02*
X-6163747Y-3710293D01*
X-6163747Y-3710293D02*
X-6163747Y-3662674D01*
X-6163747Y-3662674D02*
X-6154223Y-3624579D01*
X-6154223Y-3624579D02*
X-6144699Y-3605531D01*
X-6144699Y-3605531D02*
X-6135175Y-3596008D01*
X-6135175Y-3596008D02*
X-6116128Y-3586484D01*
X-5963747Y-3767436D02*
X-5954223Y-3776960D01*
X-5954223Y-3776960D02*
X-5963747Y-3786484D01*
X-5963747Y-3786484D02*
X-5973271Y-3776960D01*
X-5973271Y-3776960D02*
X-5963747Y-3767436D01*
X-5963747Y-3767436D02*
X-5963747Y-3786484D01*
X-5782794Y-3653150D02*
X-5782794Y-3786484D01*
X-5830414Y-3576960D02*
X-5878033Y-3719817D01*
X-5878033Y-3719817D02*
X-5754223Y-3719817D01*
X-5639937Y-3586484D02*
X-5620890Y-3586484D01*
X-5620890Y-3586484D02*
X-5601842Y-3596008D01*
X-5601842Y-3596008D02*
X-5592318Y-3605531D01*
X-5592318Y-3605531D02*
X-5582795Y-3624579D01*
X-5582795Y-3624579D02*
X-5573271Y-3662674D01*
X-5573271Y-3662674D02*
X-5573271Y-3710293D01*
X-5573271Y-3710293D02*
X-5582795Y-3748388D01*
X-5582795Y-3748388D02*
X-5592318Y-3767436D01*
X-5592318Y-3767436D02*
X-5601842Y-3776960D01*
X-5601842Y-3776960D02*
X-5620890Y-3786484D01*
X-5620890Y-3786484D02*
X-5639937Y-3786484D01*
X-5639937Y-3786484D02*
X-5658985Y-3776960D01*
X-5658985Y-3776960D02*
X-5668509Y-3767436D01*
X-5668509Y-3767436D02*
X-5678033Y-3748388D01*
X-5678033Y-3748388D02*
X-5687556Y-3710293D01*
X-5687556Y-3710293D02*
X-5687556Y-3662674D01*
X-5687556Y-3662674D02*
X-5678033Y-3624579D01*
X-5678033Y-3624579D02*
X-5668509Y-3605531D01*
X-5668509Y-3605531D02*
X-5658985Y-3596008D01*
X-5658985Y-3596008D02*
X-5639937Y-3586484D01*
X-5449461Y-3586484D02*
X-5430414Y-3586484D01*
X-5430414Y-3586484D02*
X-5411366Y-3596008D01*
X-5411366Y-3596008D02*
X-5401842Y-3605531D01*
X-5401842Y-3605531D02*
X-5392318Y-3624579D01*
X-5392318Y-3624579D02*
X-5382795Y-3662674D01*
X-5382795Y-3662674D02*
X-5382795Y-3710293D01*
X-5382795Y-3710293D02*
X-5392318Y-3748388D01*
X-5392318Y-3748388D02*
X-5401842Y-3767436D01*
X-5401842Y-3767436D02*
X-5411366Y-3776960D01*
X-5411366Y-3776960D02*
X-5430414Y-3786484D01*
X-5430414Y-3786484D02*
X-5449461Y-3786484D01*
X-5449461Y-3786484D02*
X-5468509Y-3776960D01*
X-5468509Y-3776960D02*
X-5478033Y-3767436D01*
X-5478033Y-3767436D02*
X-5487556Y-3748388D01*
X-5487556Y-3748388D02*
X-5497080Y-3710293D01*
X-5497080Y-3710293D02*
X-5497080Y-3662674D01*
X-5497080Y-3662674D02*
X-5487556Y-3624579D01*
X-5487556Y-3624579D02*
X-5478033Y-3605531D01*
X-5478033Y-3605531D02*
X-5468509Y-3596008D01*
X-5468509Y-3596008D02*
X-5449461Y-3586484D01*
X-5297080Y-3786484D02*
X-5297080Y-3653150D01*
X-5297080Y-3672198D02*
X-5287556Y-3662674D01*
X-5287556Y-3662674D02*
X-5268509Y-3653150D01*
X-5268509Y-3653150D02*
X-5239937Y-3653150D01*
X-5239937Y-3653150D02*
X-5220890Y-3662674D01*
X-5220890Y-3662674D02*
X-5211366Y-3681722D01*
X-5211366Y-3681722D02*
X-5211366Y-3786484D01*
X-5211366Y-3681722D02*
X-5201842Y-3662674D01*
X-5201842Y-3662674D02*
X-5182795Y-3653150D01*
X-5182795Y-3653150D02*
X-5154223Y-3653150D01*
X-5154223Y-3653150D02*
X-5135175Y-3662674D01*
X-5135175Y-3662674D02*
X-5125652Y-3681722D01*
X-5125652Y-3681722D02*
X-5125652Y-3786484D01*
X-5030414Y-3786484D02*
X-5030414Y-3653150D01*
X-5030414Y-3672198D02*
X-5020890Y-3662674D01*
X-5020890Y-3662674D02*
X-5001842Y-3653150D01*
X-5001842Y-3653150D02*
X-4973271Y-3653150D01*
X-4973271Y-3653150D02*
X-4954223Y-3662674D01*
X-4954223Y-3662674D02*
X-4944699Y-3681722D01*
X-4944699Y-3681722D02*
X-4944699Y-3786484D01*
X-4944699Y-3681722D02*
X-4935175Y-3662674D01*
X-4935175Y-3662674D02*
X-4916128Y-3653150D01*
X-4916128Y-3653150D02*
X-4887556Y-3653150D01*
X-4887556Y-3653150D02*
X-4868509Y-3662674D01*
X-4868509Y-3662674D02*
X-4858985Y-3681722D01*
X-4858985Y-3681722D02*
X-4858985Y-3786484D01*
X-4468509Y-3576960D02*
X-4639937Y-3834103D01*
X-4211366Y-3586484D02*
X-4192318Y-3586484D01*
X-4192318Y-3586484D02*
X-4173270Y-3596008D01*
X-4173270Y-3596008D02*
X-4163747Y-3605531D01*
X-4163747Y-3605531D02*
X-4154223Y-3624579D01*
X-4154223Y-3624579D02*
X-4144699Y-3662674D01*
X-4144699Y-3662674D02*
X-4144699Y-3710293D01*
X-4144699Y-3710293D02*
X-4154223Y-3748388D01*
X-4154223Y-3748388D02*
X-4163747Y-3767436D01*
X-4163747Y-3767436D02*
X-4173270Y-3776960D01*
X-4173270Y-3776960D02*
X-4192318Y-3786484D01*
X-4192318Y-3786484D02*
X-4211366Y-3786484D01*
X-4211366Y-3786484D02*
X-4230413Y-3776960D01*
X-4230413Y-3776960D02*
X-4239937Y-3767436D01*
X-4239937Y-3767436D02*
X-4249461Y-3748388D01*
X-4249461Y-3748388D02*
X-4258985Y-3710293D01*
X-4258985Y-3710293D02*
X-4258985Y-3662674D01*
X-4258985Y-3662674D02*
X-4249461Y-3624579D01*
X-4249461Y-3624579D02*
X-4239937Y-3605531D01*
X-4239937Y-3605531D02*
X-4230413Y-3596008D01*
X-4230413Y-3596008D02*
X-4211366Y-3586484D01*
X-4058985Y-3767436D02*
X-4049461Y-3776960D01*
X-4049461Y-3776960D02*
X-4058985Y-3786484D01*
X-4058985Y-3786484D02*
X-4068509Y-3776960D01*
X-4068509Y-3776960D02*
X-4058985Y-3767436D01*
X-4058985Y-3767436D02*
X-4058985Y-3786484D01*
X-3925651Y-3586484D02*
X-3906604Y-3586484D01*
X-3906604Y-3586484D02*
X-3887556Y-3596008D01*
X-3887556Y-3596008D02*
X-3878032Y-3605531D01*
X-3878032Y-3605531D02*
X-3868509Y-3624579D01*
X-3868509Y-3624579D02*
X-3858985Y-3662674D01*
X-3858985Y-3662674D02*
X-3858985Y-3710293D01*
X-3858985Y-3710293D02*
X-3868509Y-3748388D01*
X-3868509Y-3748388D02*
X-3878032Y-3767436D01*
X-3878032Y-3767436D02*
X-3887556Y-3776960D01*
X-3887556Y-3776960D02*
X-3906604Y-3786484D01*
X-3906604Y-3786484D02*
X-3925651Y-3786484D01*
X-3925651Y-3786484D02*
X-3944699Y-3776960D01*
X-3944699Y-3776960D02*
X-3954223Y-3767436D01*
X-3954223Y-3767436D02*
X-3963747Y-3748388D01*
X-3963747Y-3748388D02*
X-3973270Y-3710293D01*
X-3973270Y-3710293D02*
X-3973270Y-3662674D01*
X-3973270Y-3662674D02*
X-3963747Y-3624579D01*
X-3963747Y-3624579D02*
X-3954223Y-3605531D01*
X-3954223Y-3605531D02*
X-3944699Y-3596008D01*
X-3944699Y-3596008D02*
X-3925651Y-3586484D01*
X-3668509Y-3786484D02*
X-3782794Y-3786484D01*
X-3725651Y-3786484D02*
X-3725651Y-3586484D01*
X-3725651Y-3586484D02*
X-3744699Y-3615055D01*
X-3744699Y-3615055D02*
X-3763747Y-3634103D01*
X-3763747Y-3634103D02*
X-3782794Y-3643627D01*
X-3487556Y-3586484D02*
X-3582794Y-3586484D01*
X-3582794Y-3586484D02*
X-3592318Y-3681722D01*
X-3592318Y-3681722D02*
X-3582794Y-3672198D01*
X-3582794Y-3672198D02*
X-3563747Y-3662674D01*
X-3563747Y-3662674D02*
X-3516128Y-3662674D01*
X-3516128Y-3662674D02*
X-3497080Y-3672198D01*
X-3497080Y-3672198D02*
X-3487556Y-3681722D01*
X-3487556Y-3681722D02*
X-3478032Y-3700769D01*
X-3478032Y-3700769D02*
X-3478032Y-3748388D01*
X-3478032Y-3748388D02*
X-3487556Y-3767436D01*
X-3487556Y-3767436D02*
X-3497080Y-3776960D01*
X-3497080Y-3776960D02*
X-3516128Y-3786484D01*
X-3516128Y-3786484D02*
X-3563747Y-3786484D01*
X-3563747Y-3786484D02*
X-3582794Y-3776960D01*
X-3582794Y-3776960D02*
X-3592318Y-3767436D01*
X-3411366Y-3586484D02*
X-3278032Y-3586484D01*
X-3278032Y-3586484D02*
X-3363747Y-3786484D01*
X-3211366Y-3586484D02*
X-3211366Y-3624579D01*
X-3135175Y-3586484D02*
X-3135175Y-3624579D01*
X-2839937Y-3862674D02*
X-2849461Y-3853150D01*
X-2849461Y-3853150D02*
X-2868508Y-3824579D01*
X-2868508Y-3824579D02*
X-2878032Y-3805531D01*
X-2878032Y-3805531D02*
X-2887556Y-3776960D01*
X-2887556Y-3776960D02*
X-2897080Y-3729341D01*
X-2897080Y-3729341D02*
X-2897080Y-3691246D01*
X-2897080Y-3691246D02*
X-2887556Y-3643627D01*
X-2887556Y-3643627D02*
X-2878032Y-3615055D01*
X-2878032Y-3615055D02*
X-2868508Y-3596008D01*
X-2868508Y-3596008D02*
X-2849461Y-3567436D01*
X-2849461Y-3567436D02*
X-2839937Y-3557912D01*
X-2782794Y-3586484D02*
X-2658985Y-3586484D01*
X-2658985Y-3586484D02*
X-2725651Y-3662674D01*
X-2725651Y-3662674D02*
X-2697080Y-3662674D01*
X-2697080Y-3662674D02*
X-2678032Y-3672198D01*
X-2678032Y-3672198D02*
X-2668509Y-3681722D01*
X-2668509Y-3681722D02*
X-2658985Y-3700769D01*
X-2658985Y-3700769D02*
X-2658985Y-3748388D01*
X-2658985Y-3748388D02*
X-2668509Y-3767436D01*
X-2668509Y-3767436D02*
X-2678032Y-3776960D01*
X-2678032Y-3776960D02*
X-2697080Y-3786484D01*
X-2697080Y-3786484D02*
X-2754223Y-3786484D01*
X-2754223Y-3786484D02*
X-2773270Y-3776960D01*
X-2773270Y-3776960D02*
X-2782794Y-3767436D01*
X-2592318Y-3586484D02*
X-2458985Y-3586484D01*
X-2458985Y-3586484D02*
X-2544699Y-3786484D01*
X-2344699Y-3586484D02*
X-2325651Y-3586484D01*
X-2325651Y-3586484D02*
X-2306604Y-3596008D01*
X-2306604Y-3596008D02*
X-2297080Y-3605531D01*
X-2297080Y-3605531D02*
X-2287556Y-3624579D01*
X-2287556Y-3624579D02*
X-2278032Y-3662674D01*
X-2278032Y-3662674D02*
X-2278032Y-3710293D01*
X-2278032Y-3710293D02*
X-2287556Y-3748388D01*
X-2287556Y-3748388D02*
X-2297080Y-3767436D01*
X-2297080Y-3767436D02*
X-2306604Y-3776960D01*
X-2306604Y-3776960D02*
X-2325651Y-3786484D01*
X-2325651Y-3786484D02*
X-2344699Y-3786484D01*
X-2344699Y-3786484D02*
X-2363747Y-3776960D01*
X-2363747Y-3776960D02*
X-2373270Y-3767436D01*
X-2373270Y-3767436D02*
X-2382794Y-3748388D01*
X-2382794Y-3748388D02*
X-2392318Y-3710293D01*
X-2392318Y-3710293D02*
X-2392318Y-3662674D01*
X-2392318Y-3662674D02*
X-2382794Y-3624579D01*
X-2382794Y-3624579D02*
X-2373270Y-3605531D01*
X-2373270Y-3605531D02*
X-2363747Y-3596008D01*
X-2363747Y-3596008D02*
X-2344699Y-3586484D01*
X-2039937Y-3786484D02*
X-2039937Y-3586484D01*
X-1954223Y-3786484D02*
X-1954223Y-3681722D01*
X-1954223Y-3681722D02*
X-1963746Y-3662674D01*
X-1963746Y-3662674D02*
X-1982794Y-3653150D01*
X-1982794Y-3653150D02*
X-2011366Y-3653150D01*
X-2011366Y-3653150D02*
X-2030413Y-3662674D01*
X-2030413Y-3662674D02*
X-2039937Y-3672198D01*
X-1830413Y-3786484D02*
X-1849461Y-3776960D01*
X-1849461Y-3776960D02*
X-1858985Y-3767436D01*
X-1858985Y-3767436D02*
X-1868508Y-3748388D01*
X-1868508Y-3748388D02*
X-1868508Y-3691246D01*
X-1868508Y-3691246D02*
X-1858985Y-3672198D01*
X-1858985Y-3672198D02*
X-1849461Y-3662674D01*
X-1849461Y-3662674D02*
X-1830413Y-3653150D01*
X-1830413Y-3653150D02*
X-1801842Y-3653150D01*
X-1801842Y-3653150D02*
X-1782794Y-3662674D01*
X-1782794Y-3662674D02*
X-1773270Y-3672198D01*
X-1773270Y-3672198D02*
X-1763746Y-3691246D01*
X-1763746Y-3691246D02*
X-1763746Y-3748388D01*
X-1763746Y-3748388D02*
X-1773270Y-3767436D01*
X-1773270Y-3767436D02*
X-1782794Y-3776960D01*
X-1782794Y-3776960D02*
X-1801842Y-3786484D01*
X-1801842Y-3786484D02*
X-1830413Y-3786484D01*
X-1649461Y-3786484D02*
X-1668508Y-3776960D01*
X-1668508Y-3776960D02*
X-1678032Y-3757912D01*
X-1678032Y-3757912D02*
X-1678032Y-3586484D01*
X-1497080Y-3776960D02*
X-1516127Y-3786484D01*
X-1516127Y-3786484D02*
X-1554223Y-3786484D01*
X-1554223Y-3786484D02*
X-1573270Y-3776960D01*
X-1573270Y-3776960D02*
X-1582794Y-3757912D01*
X-1582794Y-3757912D02*
X-1582794Y-3681722D01*
X-1582794Y-3681722D02*
X-1573270Y-3662674D01*
X-1573270Y-3662674D02*
X-1554223Y-3653150D01*
X-1554223Y-3653150D02*
X-1516127Y-3653150D01*
X-1516127Y-3653150D02*
X-1497080Y-3662674D01*
X-1497080Y-3662674D02*
X-1487556Y-3681722D01*
X-1487556Y-3681722D02*
X-1487556Y-3700769D01*
X-1487556Y-3700769D02*
X-1582794Y-3719817D01*
X-1411365Y-3776960D02*
X-1392318Y-3786484D01*
X-1392318Y-3786484D02*
X-1354223Y-3786484D01*
X-1354223Y-3786484D02*
X-1335175Y-3776960D01*
X-1335175Y-3776960D02*
X-1325651Y-3757912D01*
X-1325651Y-3757912D02*
X-1325651Y-3748388D01*
X-1325651Y-3748388D02*
X-1335175Y-3729341D01*
X-1335175Y-3729341D02*
X-1354223Y-3719817D01*
X-1354223Y-3719817D02*
X-1382794Y-3719817D01*
X-1382794Y-3719817D02*
X-1401842Y-3710293D01*
X-1401842Y-3710293D02*
X-1411365Y-3691246D01*
X-1411365Y-3691246D02*
X-1411365Y-3681722D01*
X-1411365Y-3681722D02*
X-1401842Y-3662674D01*
X-1401842Y-3662674D02*
X-1382794Y-3653150D01*
X-1382794Y-3653150D02*
X-1354223Y-3653150D01*
X-1354223Y-3653150D02*
X-1335175Y-3662674D01*
X-1258985Y-3862674D02*
X-1249461Y-3853150D01*
X-1249461Y-3853150D02*
X-1230413Y-3824579D01*
X-1230413Y-3824579D02*
X-1220889Y-3805531D01*
X-1220889Y-3805531D02*
X-1211366Y-3776960D01*
X-1211366Y-3776960D02*
X-1201842Y-3729341D01*
X-1201842Y-3729341D02*
X-1201842Y-3691246D01*
X-1201842Y-3691246D02*
X-1211366Y-3643627D01*
X-1211366Y-3643627D02*
X-1220889Y-3615055D01*
X-1220889Y-3615055D02*
X-1230413Y-3596008D01*
X-1230413Y-3596008D02*
X-1249461Y-3567436D01*
X-1249461Y-3567436D02*
X-1258985Y-3557912D01*
D10*
X-6415000Y-3959000D02*
G75*
G02*
X-6515000Y-3959000I-50000J0D01*
G01*
X-6515000Y-3959000D02*
G75*
G02*
X-6415000Y-3959000I50000J0D01*
G01*
D11*
X-6049461Y-4050484D02*
X-6163747Y-4050484D01*
X-6106604Y-4050484D02*
X-6106604Y-3850484D01*
X-6106604Y-3850484D02*
X-6125652Y-3879055D01*
X-6125652Y-3879055D02*
X-6144699Y-3898103D01*
X-6144699Y-3898103D02*
X-6163747Y-3907627D01*
X-5963747Y-4031436D02*
X-5954223Y-4040960D01*
X-5954223Y-4040960D02*
X-5963747Y-4050484D01*
X-5963747Y-4050484D02*
X-5973271Y-4040960D01*
X-5973271Y-4040960D02*
X-5963747Y-4031436D01*
X-5963747Y-4031436D02*
X-5963747Y-4050484D01*
X-5830414Y-3850484D02*
X-5811366Y-3850484D01*
X-5811366Y-3850484D02*
X-5792318Y-3860008D01*
X-5792318Y-3860008D02*
X-5782794Y-3869531D01*
X-5782794Y-3869531D02*
X-5773271Y-3888579D01*
X-5773271Y-3888579D02*
X-5763747Y-3926674D01*
X-5763747Y-3926674D02*
X-5763747Y-3974293D01*
X-5763747Y-3974293D02*
X-5773271Y-4012388D01*
X-5773271Y-4012388D02*
X-5782794Y-4031436D01*
X-5782794Y-4031436D02*
X-5792318Y-4040960D01*
X-5792318Y-4040960D02*
X-5811366Y-4050484D01*
X-5811366Y-4050484D02*
X-5830414Y-4050484D01*
X-5830414Y-4050484D02*
X-5849461Y-4040960D01*
X-5849461Y-4040960D02*
X-5858985Y-4031436D01*
X-5858985Y-4031436D02*
X-5868509Y-4012388D01*
X-5868509Y-4012388D02*
X-5878033Y-3974293D01*
X-5878033Y-3974293D02*
X-5878033Y-3926674D01*
X-5878033Y-3926674D02*
X-5868509Y-3888579D01*
X-5868509Y-3888579D02*
X-5858985Y-3869531D01*
X-5858985Y-3869531D02*
X-5849461Y-3860008D01*
X-5849461Y-3860008D02*
X-5830414Y-3850484D01*
X-5639937Y-3850484D02*
X-5620890Y-3850484D01*
X-5620890Y-3850484D02*
X-5601842Y-3860008D01*
X-5601842Y-3860008D02*
X-5592318Y-3869531D01*
X-5592318Y-3869531D02*
X-5582795Y-3888579D01*
X-5582795Y-3888579D02*
X-5573271Y-3926674D01*
X-5573271Y-3926674D02*
X-5573271Y-3974293D01*
X-5573271Y-3974293D02*
X-5582795Y-4012388D01*
X-5582795Y-4012388D02*
X-5592318Y-4031436D01*
X-5592318Y-4031436D02*
X-5601842Y-4040960D01*
X-5601842Y-4040960D02*
X-5620890Y-4050484D01*
X-5620890Y-4050484D02*
X-5639937Y-4050484D01*
X-5639937Y-4050484D02*
X-5658985Y-4040960D01*
X-5658985Y-4040960D02*
X-5668509Y-4031436D01*
X-5668509Y-4031436D02*
X-5678033Y-4012388D01*
X-5678033Y-4012388D02*
X-5687556Y-3974293D01*
X-5687556Y-3974293D02*
X-5687556Y-3926674D01*
X-5687556Y-3926674D02*
X-5678033Y-3888579D01*
X-5678033Y-3888579D02*
X-5668509Y-3869531D01*
X-5668509Y-3869531D02*
X-5658985Y-3860008D01*
X-5658985Y-3860008D02*
X-5639937Y-3850484D01*
X-5449461Y-3850484D02*
X-5430414Y-3850484D01*
X-5430414Y-3850484D02*
X-5411366Y-3860008D01*
X-5411366Y-3860008D02*
X-5401842Y-3869531D01*
X-5401842Y-3869531D02*
X-5392318Y-3888579D01*
X-5392318Y-3888579D02*
X-5382795Y-3926674D01*
X-5382795Y-3926674D02*
X-5382795Y-3974293D01*
X-5382795Y-3974293D02*
X-5392318Y-4012388D01*
X-5392318Y-4012388D02*
X-5401842Y-4031436D01*
X-5401842Y-4031436D02*
X-5411366Y-4040960D01*
X-5411366Y-4040960D02*
X-5430414Y-4050484D01*
X-5430414Y-4050484D02*
X-5449461Y-4050484D01*
X-5449461Y-4050484D02*
X-5468509Y-4040960D01*
X-5468509Y-4040960D02*
X-5478033Y-4031436D01*
X-5478033Y-4031436D02*
X-5487556Y-4012388D01*
X-5487556Y-4012388D02*
X-5497080Y-3974293D01*
X-5497080Y-3974293D02*
X-5497080Y-3926674D01*
X-5497080Y-3926674D02*
X-5487556Y-3888579D01*
X-5487556Y-3888579D02*
X-5478033Y-3869531D01*
X-5478033Y-3869531D02*
X-5468509Y-3860008D01*
X-5468509Y-3860008D02*
X-5449461Y-3850484D01*
X-5297080Y-4050484D02*
X-5297080Y-3917150D01*
X-5297080Y-3936198D02*
X-5287556Y-3926674D01*
X-5287556Y-3926674D02*
X-5268509Y-3917150D01*
X-5268509Y-3917150D02*
X-5239937Y-3917150D01*
X-5239937Y-3917150D02*
X-5220890Y-3926674D01*
X-5220890Y-3926674D02*
X-5211366Y-3945722D01*
X-5211366Y-3945722D02*
X-5211366Y-4050484D01*
X-5211366Y-3945722D02*
X-5201842Y-3926674D01*
X-5201842Y-3926674D02*
X-5182795Y-3917150D01*
X-5182795Y-3917150D02*
X-5154223Y-3917150D01*
X-5154223Y-3917150D02*
X-5135175Y-3926674D01*
X-5135175Y-3926674D02*
X-5125652Y-3945722D01*
X-5125652Y-3945722D02*
X-5125652Y-4050484D01*
X-5030414Y-4050484D02*
X-5030414Y-3917150D01*
X-5030414Y-3936198D02*
X-5020890Y-3926674D01*
X-5020890Y-3926674D02*
X-5001842Y-3917150D01*
X-5001842Y-3917150D02*
X-4973271Y-3917150D01*
X-4973271Y-3917150D02*
X-4954223Y-3926674D01*
X-4954223Y-3926674D02*
X-4944699Y-3945722D01*
X-4944699Y-3945722D02*
X-4944699Y-4050484D01*
X-4944699Y-3945722D02*
X-4935175Y-3926674D01*
X-4935175Y-3926674D02*
X-4916128Y-3917150D01*
X-4916128Y-3917150D02*
X-4887556Y-3917150D01*
X-4887556Y-3917150D02*
X-4868509Y-3926674D01*
X-4868509Y-3926674D02*
X-4858985Y-3945722D01*
X-4858985Y-3945722D02*
X-4858985Y-4050484D01*
X-4468509Y-3840960D02*
X-4639937Y-4098103D01*
X-4211366Y-3850484D02*
X-4192318Y-3850484D01*
X-4192318Y-3850484D02*
X-4173270Y-3860008D01*
X-4173270Y-3860008D02*
X-4163747Y-3869531D01*
X-4163747Y-3869531D02*
X-4154223Y-3888579D01*
X-4154223Y-3888579D02*
X-4144699Y-3926674D01*
X-4144699Y-3926674D02*
X-4144699Y-3974293D01*
X-4144699Y-3974293D02*
X-4154223Y-4012388D01*
X-4154223Y-4012388D02*
X-4163747Y-4031436D01*
X-4163747Y-4031436D02*
X-4173270Y-4040960D01*
X-4173270Y-4040960D02*
X-4192318Y-4050484D01*
X-4192318Y-4050484D02*
X-4211366Y-4050484D01*
X-4211366Y-4050484D02*
X-4230413Y-4040960D01*
X-4230413Y-4040960D02*
X-4239937Y-4031436D01*
X-4239937Y-4031436D02*
X-4249461Y-4012388D01*
X-4249461Y-4012388D02*
X-4258985Y-3974293D01*
X-4258985Y-3974293D02*
X-4258985Y-3926674D01*
X-4258985Y-3926674D02*
X-4249461Y-3888579D01*
X-4249461Y-3888579D02*
X-4239937Y-3869531D01*
X-4239937Y-3869531D02*
X-4230413Y-3860008D01*
X-4230413Y-3860008D02*
X-4211366Y-3850484D01*
X-4058985Y-4031436D02*
X-4049461Y-4040960D01*
X-4049461Y-4040960D02*
X-4058985Y-4050484D01*
X-4058985Y-4050484D02*
X-4068509Y-4040960D01*
X-4068509Y-4040960D02*
X-4058985Y-4031436D01*
X-4058985Y-4031436D02*
X-4058985Y-4050484D01*
X-3925651Y-3850484D02*
X-3906604Y-3850484D01*
X-3906604Y-3850484D02*
X-3887556Y-3860008D01*
X-3887556Y-3860008D02*
X-3878032Y-3869531D01*
X-3878032Y-3869531D02*
X-3868509Y-3888579D01*
X-3868509Y-3888579D02*
X-3858985Y-3926674D01*
X-3858985Y-3926674D02*
X-3858985Y-3974293D01*
X-3858985Y-3974293D02*
X-3868509Y-4012388D01*
X-3868509Y-4012388D02*
X-3878032Y-4031436D01*
X-3878032Y-4031436D02*
X-3887556Y-4040960D01*
X-3887556Y-4040960D02*
X-3906604Y-4050484D01*
X-3906604Y-4050484D02*
X-3925651Y-4050484D01*
X-3925651Y-4050484D02*
X-3944699Y-4040960D01*
X-3944699Y-4040960D02*
X-3954223Y-4031436D01*
X-3954223Y-4031436D02*
X-3963747Y-4012388D01*
X-3963747Y-4012388D02*
X-3973270Y-3974293D01*
X-3973270Y-3974293D02*
X-3973270Y-3926674D01*
X-3973270Y-3926674D02*
X-3963747Y-3888579D01*
X-3963747Y-3888579D02*
X-3954223Y-3869531D01*
X-3954223Y-3869531D02*
X-3944699Y-3860008D01*
X-3944699Y-3860008D02*
X-3925651Y-3850484D01*
X-3792318Y-3850484D02*
X-3668509Y-3850484D01*
X-3668509Y-3850484D02*
X-3735175Y-3926674D01*
X-3735175Y-3926674D02*
X-3706604Y-3926674D01*
X-3706604Y-3926674D02*
X-3687556Y-3936198D01*
X-3687556Y-3936198D02*
X-3678032Y-3945722D01*
X-3678032Y-3945722D02*
X-3668509Y-3964769D01*
X-3668509Y-3964769D02*
X-3668509Y-4012388D01*
X-3668509Y-4012388D02*
X-3678032Y-4031436D01*
X-3678032Y-4031436D02*
X-3687556Y-4040960D01*
X-3687556Y-4040960D02*
X-3706604Y-4050484D01*
X-3706604Y-4050484D02*
X-3763747Y-4050484D01*
X-3763747Y-4050484D02*
X-3782794Y-4040960D01*
X-3782794Y-4040960D02*
X-3792318Y-4031436D01*
X-3573270Y-4050484D02*
X-3535175Y-4050484D01*
X-3535175Y-4050484D02*
X-3516128Y-4040960D01*
X-3516128Y-4040960D02*
X-3506604Y-4031436D01*
X-3506604Y-4031436D02*
X-3487556Y-4002865D01*
X-3487556Y-4002865D02*
X-3478032Y-3964769D01*
X-3478032Y-3964769D02*
X-3478032Y-3888579D01*
X-3478032Y-3888579D02*
X-3487556Y-3869531D01*
X-3487556Y-3869531D02*
X-3497080Y-3860008D01*
X-3497080Y-3860008D02*
X-3516128Y-3850484D01*
X-3516128Y-3850484D02*
X-3554223Y-3850484D01*
X-3554223Y-3850484D02*
X-3573270Y-3860008D01*
X-3573270Y-3860008D02*
X-3582794Y-3869531D01*
X-3582794Y-3869531D02*
X-3592318Y-3888579D01*
X-3592318Y-3888579D02*
X-3592318Y-3936198D01*
X-3592318Y-3936198D02*
X-3582794Y-3955246D01*
X-3582794Y-3955246D02*
X-3573270Y-3964769D01*
X-3573270Y-3964769D02*
X-3554223Y-3974293D01*
X-3554223Y-3974293D02*
X-3516128Y-3974293D01*
X-3516128Y-3974293D02*
X-3497080Y-3964769D01*
X-3497080Y-3964769D02*
X-3487556Y-3955246D01*
X-3487556Y-3955246D02*
X-3478032Y-3936198D01*
X-3306604Y-3917150D02*
X-3306604Y-4050484D01*
X-3354223Y-3840960D02*
X-3401842Y-3983817D01*
X-3401842Y-3983817D02*
X-3278032Y-3983817D01*
X-3211366Y-3850484D02*
X-3211366Y-3888579D01*
X-3135175Y-3850484D02*
X-3135175Y-3888579D01*
X-2839937Y-4126674D02*
X-2849461Y-4117150D01*
X-2849461Y-4117150D02*
X-2868508Y-4088579D01*
X-2868508Y-4088579D02*
X-2878032Y-4069531D01*
X-2878032Y-4069531D02*
X-2887556Y-4040960D01*
X-2887556Y-4040960D02*
X-2897080Y-3993341D01*
X-2897080Y-3993341D02*
X-2897080Y-3955246D01*
X-2897080Y-3955246D02*
X-2887556Y-3907627D01*
X-2887556Y-3907627D02*
X-2878032Y-3879055D01*
X-2878032Y-3879055D02*
X-2868508Y-3860008D01*
X-2868508Y-3860008D02*
X-2849461Y-3831436D01*
X-2849461Y-3831436D02*
X-2839937Y-3821912D01*
X-2658985Y-4050484D02*
X-2773270Y-4050484D01*
X-2716128Y-4050484D02*
X-2716128Y-3850484D01*
X-2716128Y-3850484D02*
X-2735175Y-3879055D01*
X-2735175Y-3879055D02*
X-2754223Y-3898103D01*
X-2754223Y-3898103D02*
X-2773270Y-3907627D01*
X-2487556Y-3850484D02*
X-2525651Y-3850484D01*
X-2525651Y-3850484D02*
X-2544699Y-3860008D01*
X-2544699Y-3860008D02*
X-2554223Y-3869531D01*
X-2554223Y-3869531D02*
X-2573270Y-3898103D01*
X-2573270Y-3898103D02*
X-2582794Y-3936198D01*
X-2582794Y-3936198D02*
X-2582794Y-4012388D01*
X-2582794Y-4012388D02*
X-2573270Y-4031436D01*
X-2573270Y-4031436D02*
X-2563747Y-4040960D01*
X-2563747Y-4040960D02*
X-2544699Y-4050484D01*
X-2544699Y-4050484D02*
X-2506604Y-4050484D01*
X-2506604Y-4050484D02*
X-2487556Y-4040960D01*
X-2487556Y-4040960D02*
X-2478032Y-4031436D01*
X-2478032Y-4031436D02*
X-2468509Y-4012388D01*
X-2468509Y-4012388D02*
X-2468509Y-3964769D01*
X-2468509Y-3964769D02*
X-2478032Y-3945722D01*
X-2478032Y-3945722D02*
X-2487556Y-3936198D01*
X-2487556Y-3936198D02*
X-2506604Y-3926674D01*
X-2506604Y-3926674D02*
X-2544699Y-3926674D01*
X-2544699Y-3926674D02*
X-2563747Y-3936198D01*
X-2563747Y-3936198D02*
X-2573270Y-3945722D01*
X-2573270Y-3945722D02*
X-2582794Y-3964769D01*
X-2230413Y-4050484D02*
X-2230413Y-3850484D01*
X-2144699Y-4050484D02*
X-2144699Y-3945722D01*
X-2144699Y-3945722D02*
X-2154223Y-3926674D01*
X-2154223Y-3926674D02*
X-2173270Y-3917150D01*
X-2173270Y-3917150D02*
X-2201842Y-3917150D01*
X-2201842Y-3917150D02*
X-2220889Y-3926674D01*
X-2220889Y-3926674D02*
X-2230413Y-3936198D01*
X-2020889Y-4050484D02*
X-2039937Y-4040960D01*
X-2039937Y-4040960D02*
X-2049461Y-4031436D01*
X-2049461Y-4031436D02*
X-2058985Y-4012388D01*
X-2058985Y-4012388D02*
X-2058985Y-3955246D01*
X-2058985Y-3955246D02*
X-2049461Y-3936198D01*
X-2049461Y-3936198D02*
X-2039937Y-3926674D01*
X-2039937Y-3926674D02*
X-2020889Y-3917150D01*
X-2020889Y-3917150D02*
X-1992318Y-3917150D01*
X-1992318Y-3917150D02*
X-1973270Y-3926674D01*
X-1973270Y-3926674D02*
X-1963746Y-3936198D01*
X-1963746Y-3936198D02*
X-1954223Y-3955246D01*
X-1954223Y-3955246D02*
X-1954223Y-4012388D01*
X-1954223Y-4012388D02*
X-1963746Y-4031436D01*
X-1963746Y-4031436D02*
X-1973270Y-4040960D01*
X-1973270Y-4040960D02*
X-1992318Y-4050484D01*
X-1992318Y-4050484D02*
X-2020889Y-4050484D01*
X-1839937Y-4050484D02*
X-1858985Y-4040960D01*
X-1858985Y-4040960D02*
X-1868508Y-4021912D01*
X-1868508Y-4021912D02*
X-1868508Y-3850484D01*
X-1687556Y-4040960D02*
X-1706604Y-4050484D01*
X-1706604Y-4050484D02*
X-1744699Y-4050484D01*
X-1744699Y-4050484D02*
X-1763746Y-4040960D01*
X-1763746Y-4040960D02*
X-1773270Y-4021912D01*
X-1773270Y-4021912D02*
X-1773270Y-3945722D01*
X-1773270Y-3945722D02*
X-1763746Y-3926674D01*
X-1763746Y-3926674D02*
X-1744699Y-3917150D01*
X-1744699Y-3917150D02*
X-1706604Y-3917150D01*
X-1706604Y-3917150D02*
X-1687556Y-3926674D01*
X-1687556Y-3926674D02*
X-1678032Y-3945722D01*
X-1678032Y-3945722D02*
X-1678032Y-3964769D01*
X-1678032Y-3964769D02*
X-1773270Y-3983817D01*
X-1601842Y-4040960D02*
X-1582794Y-4050484D01*
X-1582794Y-4050484D02*
X-1544699Y-4050484D01*
X-1544699Y-4050484D02*
X-1525651Y-4040960D01*
X-1525651Y-4040960D02*
X-1516127Y-4021912D01*
X-1516127Y-4021912D02*
X-1516127Y-4012388D01*
X-1516127Y-4012388D02*
X-1525651Y-3993341D01*
X-1525651Y-3993341D02*
X-1544699Y-3983817D01*
X-1544699Y-3983817D02*
X-1573270Y-3983817D01*
X-1573270Y-3983817D02*
X-1592318Y-3974293D01*
X-1592318Y-3974293D02*
X-1601842Y-3955246D01*
X-1601842Y-3955246D02*
X-1601842Y-3945722D01*
X-1601842Y-3945722D02*
X-1592318Y-3926674D01*
X-1592318Y-3926674D02*
X-1573270Y-3917150D01*
X-1573270Y-3917150D02*
X-1544699Y-3917150D01*
X-1544699Y-3917150D02*
X-1525651Y-3926674D01*
X-1449461Y-4126674D02*
X-1439937Y-4117150D01*
X-1439937Y-4117150D02*
X-1420889Y-4088579D01*
X-1420889Y-4088579D02*
X-1411365Y-4069531D01*
X-1411365Y-4069531D02*
X-1401842Y-4040960D01*
X-1401842Y-4040960D02*
X-1392318Y-3993341D01*
X-1392318Y-3993341D02*
X-1392318Y-3955246D01*
X-1392318Y-3955246D02*
X-1401842Y-3907627D01*
X-1401842Y-3907627D02*
X-1411365Y-3879055D01*
X-1411365Y-3879055D02*
X-1420889Y-3860008D01*
X-1420889Y-3860008D02*
X-1439937Y-3831436D01*
X-1439937Y-3831436D02*
X-1449461Y-3821912D01*
D12*
X-6507500Y-4130500D02*
X-6507500Y-4315500D01*
X-6600000Y-4223000D02*
X-6415000Y-4223000D01*
D11*
X-6049461Y-4314484D02*
X-6163747Y-4314484D01*
X-6106604Y-4314484D02*
X-6106604Y-4114484D01*
X-6106604Y-4114484D02*
X-6125652Y-4143055D01*
X-6125652Y-4143055D02*
X-6144699Y-4162103D01*
X-6144699Y-4162103D02*
X-6163747Y-4171627D01*
X-5963747Y-4295436D02*
X-5954223Y-4304960D01*
X-5954223Y-4304960D02*
X-5963747Y-4314484D01*
X-5963747Y-4314484D02*
X-5973271Y-4304960D01*
X-5973271Y-4304960D02*
X-5963747Y-4295436D01*
X-5963747Y-4295436D02*
X-5963747Y-4314484D01*
X-5839937Y-4200198D02*
X-5858985Y-4190674D01*
X-5858985Y-4190674D02*
X-5868509Y-4181150D01*
X-5868509Y-4181150D02*
X-5878033Y-4162103D01*
X-5878033Y-4162103D02*
X-5878033Y-4152579D01*
X-5878033Y-4152579D02*
X-5868509Y-4133531D01*
X-5868509Y-4133531D02*
X-5858985Y-4124008D01*
X-5858985Y-4124008D02*
X-5839937Y-4114484D01*
X-5839937Y-4114484D02*
X-5801842Y-4114484D01*
X-5801842Y-4114484D02*
X-5782794Y-4124008D01*
X-5782794Y-4124008D02*
X-5773271Y-4133531D01*
X-5773271Y-4133531D02*
X-5763747Y-4152579D01*
X-5763747Y-4152579D02*
X-5763747Y-4162103D01*
X-5763747Y-4162103D02*
X-5773271Y-4181150D01*
X-5773271Y-4181150D02*
X-5782794Y-4190674D01*
X-5782794Y-4190674D02*
X-5801842Y-4200198D01*
X-5801842Y-4200198D02*
X-5839937Y-4200198D01*
X-5839937Y-4200198D02*
X-5858985Y-4209722D01*
X-5858985Y-4209722D02*
X-5868509Y-4219246D01*
X-5868509Y-4219246D02*
X-5878033Y-4238293D01*
X-5878033Y-4238293D02*
X-5878033Y-4276389D01*
X-5878033Y-4276389D02*
X-5868509Y-4295436D01*
X-5868509Y-4295436D02*
X-5858985Y-4304960D01*
X-5858985Y-4304960D02*
X-5839937Y-4314484D01*
X-5839937Y-4314484D02*
X-5801842Y-4314484D01*
X-5801842Y-4314484D02*
X-5782794Y-4304960D01*
X-5782794Y-4304960D02*
X-5773271Y-4295436D01*
X-5773271Y-4295436D02*
X-5763747Y-4276389D01*
X-5763747Y-4276389D02*
X-5763747Y-4238293D01*
X-5763747Y-4238293D02*
X-5773271Y-4219246D01*
X-5773271Y-4219246D02*
X-5782794Y-4209722D01*
X-5782794Y-4209722D02*
X-5801842Y-4200198D01*
X-5582795Y-4114484D02*
X-5678033Y-4114484D01*
X-5678033Y-4114484D02*
X-5687556Y-4209722D01*
X-5687556Y-4209722D02*
X-5678033Y-4200198D01*
X-5678033Y-4200198D02*
X-5658985Y-4190674D01*
X-5658985Y-4190674D02*
X-5611366Y-4190674D01*
X-5611366Y-4190674D02*
X-5592318Y-4200198D01*
X-5592318Y-4200198D02*
X-5582795Y-4209722D01*
X-5582795Y-4209722D02*
X-5573271Y-4228770D01*
X-5573271Y-4228770D02*
X-5573271Y-4276389D01*
X-5573271Y-4276389D02*
X-5582795Y-4295436D01*
X-5582795Y-4295436D02*
X-5592318Y-4304960D01*
X-5592318Y-4304960D02*
X-5611366Y-4314484D01*
X-5611366Y-4314484D02*
X-5658985Y-4314484D01*
X-5658985Y-4314484D02*
X-5678033Y-4304960D01*
X-5678033Y-4304960D02*
X-5687556Y-4295436D01*
X-5449461Y-4114484D02*
X-5430414Y-4114484D01*
X-5430414Y-4114484D02*
X-5411366Y-4124008D01*
X-5411366Y-4124008D02*
X-5401842Y-4133531D01*
X-5401842Y-4133531D02*
X-5392318Y-4152579D01*
X-5392318Y-4152579D02*
X-5382795Y-4190674D01*
X-5382795Y-4190674D02*
X-5382795Y-4238293D01*
X-5382795Y-4238293D02*
X-5392318Y-4276389D01*
X-5392318Y-4276389D02*
X-5401842Y-4295436D01*
X-5401842Y-4295436D02*
X-5411366Y-4304960D01*
X-5411366Y-4304960D02*
X-5430414Y-4314484D01*
X-5430414Y-4314484D02*
X-5449461Y-4314484D01*
X-5449461Y-4314484D02*
X-5468509Y-4304960D01*
X-5468509Y-4304960D02*
X-5478033Y-4295436D01*
X-5478033Y-4295436D02*
X-5487556Y-4276389D01*
X-5487556Y-4276389D02*
X-5497080Y-4238293D01*
X-5497080Y-4238293D02*
X-5497080Y-4190674D01*
X-5497080Y-4190674D02*
X-5487556Y-4152579D01*
X-5487556Y-4152579D02*
X-5478033Y-4133531D01*
X-5478033Y-4133531D02*
X-5468509Y-4124008D01*
X-5468509Y-4124008D02*
X-5449461Y-4114484D01*
X-5297080Y-4314484D02*
X-5297080Y-4181150D01*
X-5297080Y-4200198D02*
X-5287556Y-4190674D01*
X-5287556Y-4190674D02*
X-5268509Y-4181150D01*
X-5268509Y-4181150D02*
X-5239937Y-4181150D01*
X-5239937Y-4181150D02*
X-5220890Y-4190674D01*
X-5220890Y-4190674D02*
X-5211366Y-4209722D01*
X-5211366Y-4209722D02*
X-5211366Y-4314484D01*
X-5211366Y-4209722D02*
X-5201842Y-4190674D01*
X-5201842Y-4190674D02*
X-5182795Y-4181150D01*
X-5182795Y-4181150D02*
X-5154223Y-4181150D01*
X-5154223Y-4181150D02*
X-5135175Y-4190674D01*
X-5135175Y-4190674D02*
X-5125652Y-4209722D01*
X-5125652Y-4209722D02*
X-5125652Y-4314484D01*
X-5030414Y-4314484D02*
X-5030414Y-4181150D01*
X-5030414Y-4200198D02*
X-5020890Y-4190674D01*
X-5020890Y-4190674D02*
X-5001842Y-4181150D01*
X-5001842Y-4181150D02*
X-4973271Y-4181150D01*
X-4973271Y-4181150D02*
X-4954223Y-4190674D01*
X-4954223Y-4190674D02*
X-4944699Y-4209722D01*
X-4944699Y-4209722D02*
X-4944699Y-4314484D01*
X-4944699Y-4209722D02*
X-4935175Y-4190674D01*
X-4935175Y-4190674D02*
X-4916128Y-4181150D01*
X-4916128Y-4181150D02*
X-4887556Y-4181150D01*
X-4887556Y-4181150D02*
X-4868509Y-4190674D01*
X-4868509Y-4190674D02*
X-4858985Y-4209722D01*
X-4858985Y-4209722D02*
X-4858985Y-4314484D01*
X-4468509Y-4104960D02*
X-4639937Y-4362103D01*
X-4211366Y-4114484D02*
X-4192318Y-4114484D01*
X-4192318Y-4114484D02*
X-4173270Y-4124008D01*
X-4173270Y-4124008D02*
X-4163747Y-4133531D01*
X-4163747Y-4133531D02*
X-4154223Y-4152579D01*
X-4154223Y-4152579D02*
X-4144699Y-4190674D01*
X-4144699Y-4190674D02*
X-4144699Y-4238293D01*
X-4144699Y-4238293D02*
X-4154223Y-4276389D01*
X-4154223Y-4276389D02*
X-4163747Y-4295436D01*
X-4163747Y-4295436D02*
X-4173270Y-4304960D01*
X-4173270Y-4304960D02*
X-4192318Y-4314484D01*
X-4192318Y-4314484D02*
X-4211366Y-4314484D01*
X-4211366Y-4314484D02*
X-4230413Y-4304960D01*
X-4230413Y-4304960D02*
X-4239937Y-4295436D01*
X-4239937Y-4295436D02*
X-4249461Y-4276389D01*
X-4249461Y-4276389D02*
X-4258985Y-4238293D01*
X-4258985Y-4238293D02*
X-4258985Y-4190674D01*
X-4258985Y-4190674D02*
X-4249461Y-4152579D01*
X-4249461Y-4152579D02*
X-4239937Y-4133531D01*
X-4239937Y-4133531D02*
X-4230413Y-4124008D01*
X-4230413Y-4124008D02*
X-4211366Y-4114484D01*
X-4058985Y-4295436D02*
X-4049461Y-4304960D01*
X-4049461Y-4304960D02*
X-4058985Y-4314484D01*
X-4058985Y-4314484D02*
X-4068509Y-4304960D01*
X-4068509Y-4304960D02*
X-4058985Y-4295436D01*
X-4058985Y-4295436D02*
X-4058985Y-4314484D01*
X-3925651Y-4114484D02*
X-3906604Y-4114484D01*
X-3906604Y-4114484D02*
X-3887556Y-4124008D01*
X-3887556Y-4124008D02*
X-3878032Y-4133531D01*
X-3878032Y-4133531D02*
X-3868509Y-4152579D01*
X-3868509Y-4152579D02*
X-3858985Y-4190674D01*
X-3858985Y-4190674D02*
X-3858985Y-4238293D01*
X-3858985Y-4238293D02*
X-3868509Y-4276389D01*
X-3868509Y-4276389D02*
X-3878032Y-4295436D01*
X-3878032Y-4295436D02*
X-3887556Y-4304960D01*
X-3887556Y-4304960D02*
X-3906604Y-4314484D01*
X-3906604Y-4314484D02*
X-3925651Y-4314484D01*
X-3925651Y-4314484D02*
X-3944699Y-4304960D01*
X-3944699Y-4304960D02*
X-3954223Y-4295436D01*
X-3954223Y-4295436D02*
X-3963747Y-4276389D01*
X-3963747Y-4276389D02*
X-3973270Y-4238293D01*
X-3973270Y-4238293D02*
X-3973270Y-4190674D01*
X-3973270Y-4190674D02*
X-3963747Y-4152579D01*
X-3963747Y-4152579D02*
X-3954223Y-4133531D01*
X-3954223Y-4133531D02*
X-3944699Y-4124008D01*
X-3944699Y-4124008D02*
X-3925651Y-4114484D01*
X-3792318Y-4114484D02*
X-3658985Y-4114484D01*
X-3658985Y-4114484D02*
X-3744699Y-4314484D01*
X-3592318Y-4133531D02*
X-3582794Y-4124008D01*
X-3582794Y-4124008D02*
X-3563747Y-4114484D01*
X-3563747Y-4114484D02*
X-3516128Y-4114484D01*
X-3516128Y-4114484D02*
X-3497080Y-4124008D01*
X-3497080Y-4124008D02*
X-3487556Y-4133531D01*
X-3487556Y-4133531D02*
X-3478032Y-4152579D01*
X-3478032Y-4152579D02*
X-3478032Y-4171627D01*
X-3478032Y-4171627D02*
X-3487556Y-4200198D01*
X-3487556Y-4200198D02*
X-3601842Y-4314484D01*
X-3601842Y-4314484D02*
X-3478032Y-4314484D01*
X-3363747Y-4200198D02*
X-3382794Y-4190674D01*
X-3382794Y-4190674D02*
X-3392318Y-4181150D01*
X-3392318Y-4181150D02*
X-3401842Y-4162103D01*
X-3401842Y-4162103D02*
X-3401842Y-4152579D01*
X-3401842Y-4152579D02*
X-3392318Y-4133531D01*
X-3392318Y-4133531D02*
X-3382794Y-4124008D01*
X-3382794Y-4124008D02*
X-3363747Y-4114484D01*
X-3363747Y-4114484D02*
X-3325651Y-4114484D01*
X-3325651Y-4114484D02*
X-3306604Y-4124008D01*
X-3306604Y-4124008D02*
X-3297080Y-4133531D01*
X-3297080Y-4133531D02*
X-3287556Y-4152579D01*
X-3287556Y-4152579D02*
X-3287556Y-4162103D01*
X-3287556Y-4162103D02*
X-3297080Y-4181150D01*
X-3297080Y-4181150D02*
X-3306604Y-4190674D01*
X-3306604Y-4190674D02*
X-3325651Y-4200198D01*
X-3325651Y-4200198D02*
X-3363747Y-4200198D01*
X-3363747Y-4200198D02*
X-3382794Y-4209722D01*
X-3382794Y-4209722D02*
X-3392318Y-4219246D01*
X-3392318Y-4219246D02*
X-3401842Y-4238293D01*
X-3401842Y-4238293D02*
X-3401842Y-4276389D01*
X-3401842Y-4276389D02*
X-3392318Y-4295436D01*
X-3392318Y-4295436D02*
X-3382794Y-4304960D01*
X-3382794Y-4304960D02*
X-3363747Y-4314484D01*
X-3363747Y-4314484D02*
X-3325651Y-4314484D01*
X-3325651Y-4314484D02*
X-3306604Y-4304960D01*
X-3306604Y-4304960D02*
X-3297080Y-4295436D01*
X-3297080Y-4295436D02*
X-3287556Y-4276389D01*
X-3287556Y-4276389D02*
X-3287556Y-4238293D01*
X-3287556Y-4238293D02*
X-3297080Y-4219246D01*
X-3297080Y-4219246D02*
X-3306604Y-4209722D01*
X-3306604Y-4209722D02*
X-3325651Y-4200198D01*
X-3211366Y-4114484D02*
X-3211366Y-4152579D01*
X-3135175Y-4114484D02*
X-3135175Y-4152579D01*
X-2839937Y-4390674D02*
X-2849461Y-4381150D01*
X-2849461Y-4381150D02*
X-2868508Y-4352579D01*
X-2868508Y-4352579D02*
X-2878032Y-4333531D01*
X-2878032Y-4333531D02*
X-2887556Y-4304960D01*
X-2887556Y-4304960D02*
X-2897080Y-4257341D01*
X-2897080Y-4257341D02*
X-2897080Y-4219246D01*
X-2897080Y-4219246D02*
X-2887556Y-4171627D01*
X-2887556Y-4171627D02*
X-2878032Y-4143055D01*
X-2878032Y-4143055D02*
X-2868508Y-4124008D01*
X-2868508Y-4124008D02*
X-2849461Y-4095436D01*
X-2849461Y-4095436D02*
X-2839937Y-4085912D01*
X-2773270Y-4133531D02*
X-2763747Y-4124008D01*
X-2763747Y-4124008D02*
X-2744699Y-4114484D01*
X-2744699Y-4114484D02*
X-2697080Y-4114484D01*
X-2697080Y-4114484D02*
X-2678032Y-4124008D01*
X-2678032Y-4124008D02*
X-2668509Y-4133531D01*
X-2668509Y-4133531D02*
X-2658985Y-4152579D01*
X-2658985Y-4152579D02*
X-2658985Y-4171627D01*
X-2658985Y-4171627D02*
X-2668509Y-4200198D01*
X-2668509Y-4200198D02*
X-2782794Y-4314484D01*
X-2782794Y-4314484D02*
X-2658985Y-4314484D01*
X-2487556Y-4181150D02*
X-2487556Y-4314484D01*
X-2535175Y-4104960D02*
X-2582794Y-4247817D01*
X-2582794Y-4247817D02*
X-2458985Y-4247817D01*
X-2230413Y-4314484D02*
X-2230413Y-4114484D01*
X-2144699Y-4314484D02*
X-2144699Y-4209722D01*
X-2144699Y-4209722D02*
X-2154223Y-4190674D01*
X-2154223Y-4190674D02*
X-2173270Y-4181150D01*
X-2173270Y-4181150D02*
X-2201842Y-4181150D01*
X-2201842Y-4181150D02*
X-2220889Y-4190674D01*
X-2220889Y-4190674D02*
X-2230413Y-4200198D01*
X-2020889Y-4314484D02*
X-2039937Y-4304960D01*
X-2039937Y-4304960D02*
X-2049461Y-4295436D01*
X-2049461Y-4295436D02*
X-2058985Y-4276389D01*
X-2058985Y-4276389D02*
X-2058985Y-4219246D01*
X-2058985Y-4219246D02*
X-2049461Y-4200198D01*
X-2049461Y-4200198D02*
X-2039937Y-4190674D01*
X-2039937Y-4190674D02*
X-2020889Y-4181150D01*
X-2020889Y-4181150D02*
X-1992318Y-4181150D01*
X-1992318Y-4181150D02*
X-1973270Y-4190674D01*
X-1973270Y-4190674D02*
X-1963746Y-4200198D01*
X-1963746Y-4200198D02*
X-1954223Y-4219246D01*
X-1954223Y-4219246D02*
X-1954223Y-4276389D01*
X-1954223Y-4276389D02*
X-1963746Y-4295436D01*
X-1963746Y-4295436D02*
X-1973270Y-4304960D01*
X-1973270Y-4304960D02*
X-1992318Y-4314484D01*
X-1992318Y-4314484D02*
X-2020889Y-4314484D01*
X-1839937Y-4314484D02*
X-1858985Y-4304960D01*
X-1858985Y-4304960D02*
X-1868508Y-4285912D01*
X-1868508Y-4285912D02*
X-1868508Y-4114484D01*
X-1687556Y-4304960D02*
X-1706604Y-4314484D01*
X-1706604Y-4314484D02*
X-1744699Y-4314484D01*
X-1744699Y-4314484D02*
X-1763746Y-4304960D01*
X-1763746Y-4304960D02*
X-1773270Y-4285912D01*
X-1773270Y-4285912D02*
X-1773270Y-4209722D01*
X-1773270Y-4209722D02*
X-1763746Y-4190674D01*
X-1763746Y-4190674D02*
X-1744699Y-4181150D01*
X-1744699Y-4181150D02*
X-1706604Y-4181150D01*
X-1706604Y-4181150D02*
X-1687556Y-4190674D01*
X-1687556Y-4190674D02*
X-1678032Y-4209722D01*
X-1678032Y-4209722D02*
X-1678032Y-4228770D01*
X-1678032Y-4228770D02*
X-1773270Y-4247817D01*
X-1601842Y-4304960D02*
X-1582794Y-4314484D01*
X-1582794Y-4314484D02*
X-1544699Y-4314484D01*
X-1544699Y-4314484D02*
X-1525651Y-4304960D01*
X-1525651Y-4304960D02*
X-1516127Y-4285912D01*
X-1516127Y-4285912D02*
X-1516127Y-4276389D01*
X-1516127Y-4276389D02*
X-1525651Y-4257341D01*
X-1525651Y-4257341D02*
X-1544699Y-4247817D01*
X-1544699Y-4247817D02*
X-1573270Y-4247817D01*
X-1573270Y-4247817D02*
X-1592318Y-4238293D01*
X-1592318Y-4238293D02*
X-1601842Y-4219246D01*
X-1601842Y-4219246D02*
X-1601842Y-4209722D01*
X-1601842Y-4209722D02*
X-1592318Y-4190674D01*
X-1592318Y-4190674D02*
X-1573270Y-4181150D01*
X-1573270Y-4181150D02*
X-1544699Y-4181150D01*
X-1544699Y-4181150D02*
X-1525651Y-4190674D01*
X-1449461Y-4390674D02*
X-1439937Y-4381150D01*
X-1439937Y-4381150D02*
X-1420889Y-4352579D01*
X-1420889Y-4352579D02*
X-1411365Y-4333531D01*
X-1411365Y-4333531D02*
X-1401842Y-4304960D01*
X-1401842Y-4304960D02*
X-1392318Y-4257341D01*
X-1392318Y-4257341D02*
X-1392318Y-4219246D01*
X-1392318Y-4219246D02*
X-1401842Y-4171627D01*
X-1401842Y-4171627D02*
X-1411365Y-4143055D01*
X-1411365Y-4143055D02*
X-1420889Y-4124008D01*
X-1420889Y-4124008D02*
X-1439937Y-4095436D01*
X-1439937Y-4095436D02*
X-1449461Y-4085912D01*
X-6444289Y-4598711D02*
X-6444289Y-4457289D01*
X-6585711Y-4457289D01*
X-6585711Y-4598711D01*
X-6444289Y-4598711D01*
X-6163747Y-4438531D02*
X-6154223Y-4429008D01*
X-6154223Y-4429008D02*
X-6135175Y-4419484D01*
X-6135175Y-4419484D02*
X-6087556Y-4419484D01*
X-6087556Y-4419484D02*
X-6068509Y-4429008D01*
X-6068509Y-4429008D02*
X-6058985Y-4438531D01*
X-6058985Y-4438531D02*
X-6049461Y-4457579D01*
X-6049461Y-4457579D02*
X-6049461Y-4476627D01*
X-6049461Y-4476627D02*
X-6058985Y-4505198D01*
X-6058985Y-4505198D02*
X-6173271Y-4619484D01*
X-6173271Y-4619484D02*
X-6049461Y-4619484D01*
X-5963747Y-4600436D02*
X-5954223Y-4609960D01*
X-5954223Y-4609960D02*
X-5963747Y-4619484D01*
X-5963747Y-4619484D02*
X-5973271Y-4609960D01*
X-5973271Y-4609960D02*
X-5963747Y-4600436D01*
X-5963747Y-4600436D02*
X-5963747Y-4619484D01*
X-5887556Y-4419484D02*
X-5754223Y-4419484D01*
X-5754223Y-4419484D02*
X-5839937Y-4619484D01*
X-5639937Y-4419484D02*
X-5620890Y-4419484D01*
X-5620890Y-4419484D02*
X-5601842Y-4429008D01*
X-5601842Y-4429008D02*
X-5592318Y-4438531D01*
X-5592318Y-4438531D02*
X-5582795Y-4457579D01*
X-5582795Y-4457579D02*
X-5573271Y-4495674D01*
X-5573271Y-4495674D02*
X-5573271Y-4543293D01*
X-5573271Y-4543293D02*
X-5582795Y-4581389D01*
X-5582795Y-4581389D02*
X-5592318Y-4600436D01*
X-5592318Y-4600436D02*
X-5601842Y-4609960D01*
X-5601842Y-4609960D02*
X-5620890Y-4619484D01*
X-5620890Y-4619484D02*
X-5639937Y-4619484D01*
X-5639937Y-4619484D02*
X-5658985Y-4609960D01*
X-5658985Y-4609960D02*
X-5668509Y-4600436D01*
X-5668509Y-4600436D02*
X-5678033Y-4581389D01*
X-5678033Y-4581389D02*
X-5687556Y-4543293D01*
X-5687556Y-4543293D02*
X-5687556Y-4495674D01*
X-5687556Y-4495674D02*
X-5678033Y-4457579D01*
X-5678033Y-4457579D02*
X-5668509Y-4438531D01*
X-5668509Y-4438531D02*
X-5658985Y-4429008D01*
X-5658985Y-4429008D02*
X-5639937Y-4419484D01*
X-5449461Y-4419484D02*
X-5430414Y-4419484D01*
X-5430414Y-4419484D02*
X-5411366Y-4429008D01*
X-5411366Y-4429008D02*
X-5401842Y-4438531D01*
X-5401842Y-4438531D02*
X-5392318Y-4457579D01*
X-5392318Y-4457579D02*
X-5382795Y-4495674D01*
X-5382795Y-4495674D02*
X-5382795Y-4543293D01*
X-5382795Y-4543293D02*
X-5392318Y-4581389D01*
X-5392318Y-4581389D02*
X-5401842Y-4600436D01*
X-5401842Y-4600436D02*
X-5411366Y-4609960D01*
X-5411366Y-4609960D02*
X-5430414Y-4619484D01*
X-5430414Y-4619484D02*
X-5449461Y-4619484D01*
X-5449461Y-4619484D02*
X-5468509Y-4609960D01*
X-5468509Y-4609960D02*
X-5478033Y-4600436D01*
X-5478033Y-4600436D02*
X-5487556Y-4581389D01*
X-5487556Y-4581389D02*
X-5497080Y-4543293D01*
X-5497080Y-4543293D02*
X-5497080Y-4495674D01*
X-5497080Y-4495674D02*
X-5487556Y-4457579D01*
X-5487556Y-4457579D02*
X-5478033Y-4438531D01*
X-5478033Y-4438531D02*
X-5468509Y-4429008D01*
X-5468509Y-4429008D02*
X-5449461Y-4419484D01*
X-5297080Y-4619484D02*
X-5297080Y-4486150D01*
X-5297080Y-4505198D02*
X-5287556Y-4495674D01*
X-5287556Y-4495674D02*
X-5268509Y-4486150D01*
X-5268509Y-4486150D02*
X-5239937Y-4486150D01*
X-5239937Y-4486150D02*
X-5220890Y-4495674D01*
X-5220890Y-4495674D02*
X-5211366Y-4514722D01*
X-5211366Y-4514722D02*
X-5211366Y-4619484D01*
X-5211366Y-4514722D02*
X-5201842Y-4495674D01*
X-5201842Y-4495674D02*
X-5182795Y-4486150D01*
X-5182795Y-4486150D02*
X-5154223Y-4486150D01*
X-5154223Y-4486150D02*
X-5135175Y-4495674D01*
X-5135175Y-4495674D02*
X-5125652Y-4514722D01*
X-5125652Y-4514722D02*
X-5125652Y-4619484D01*
X-5030414Y-4619484D02*
X-5030414Y-4486150D01*
X-5030414Y-4505198D02*
X-5020890Y-4495674D01*
X-5020890Y-4495674D02*
X-5001842Y-4486150D01*
X-5001842Y-4486150D02*
X-4973271Y-4486150D01*
X-4973271Y-4486150D02*
X-4954223Y-4495674D01*
X-4954223Y-4495674D02*
X-4944699Y-4514722D01*
X-4944699Y-4514722D02*
X-4944699Y-4619484D01*
X-4944699Y-4514722D02*
X-4935175Y-4495674D01*
X-4935175Y-4495674D02*
X-4916128Y-4486150D01*
X-4916128Y-4486150D02*
X-4887556Y-4486150D01*
X-4887556Y-4486150D02*
X-4868509Y-4495674D01*
X-4868509Y-4495674D02*
X-4858985Y-4514722D01*
X-4858985Y-4514722D02*
X-4858985Y-4619484D01*
X-4468509Y-4409960D02*
X-4639937Y-4667103D01*
X-4211366Y-4419484D02*
X-4192318Y-4419484D01*
X-4192318Y-4419484D02*
X-4173270Y-4429008D01*
X-4173270Y-4429008D02*
X-4163747Y-4438531D01*
X-4163747Y-4438531D02*
X-4154223Y-4457579D01*
X-4154223Y-4457579D02*
X-4144699Y-4495674D01*
X-4144699Y-4495674D02*
X-4144699Y-4543293D01*
X-4144699Y-4543293D02*
X-4154223Y-4581389D01*
X-4154223Y-4581389D02*
X-4163747Y-4600436D01*
X-4163747Y-4600436D02*
X-4173270Y-4609960D01*
X-4173270Y-4609960D02*
X-4192318Y-4619484D01*
X-4192318Y-4619484D02*
X-4211366Y-4619484D01*
X-4211366Y-4619484D02*
X-4230413Y-4609960D01*
X-4230413Y-4609960D02*
X-4239937Y-4600436D01*
X-4239937Y-4600436D02*
X-4249461Y-4581389D01*
X-4249461Y-4581389D02*
X-4258985Y-4543293D01*
X-4258985Y-4543293D02*
X-4258985Y-4495674D01*
X-4258985Y-4495674D02*
X-4249461Y-4457579D01*
X-4249461Y-4457579D02*
X-4239937Y-4438531D01*
X-4239937Y-4438531D02*
X-4230413Y-4429008D01*
X-4230413Y-4429008D02*
X-4211366Y-4419484D01*
X-4058985Y-4600436D02*
X-4049461Y-4609960D01*
X-4049461Y-4609960D02*
X-4058985Y-4619484D01*
X-4058985Y-4619484D02*
X-4068509Y-4609960D01*
X-4068509Y-4609960D02*
X-4058985Y-4600436D01*
X-4058985Y-4600436D02*
X-4058985Y-4619484D01*
X-3858985Y-4619484D02*
X-3973270Y-4619484D01*
X-3916128Y-4619484D02*
X-3916128Y-4419484D01*
X-3916128Y-4419484D02*
X-3935175Y-4448055D01*
X-3935175Y-4448055D02*
X-3954223Y-4467103D01*
X-3954223Y-4467103D02*
X-3973270Y-4476627D01*
X-3735175Y-4419484D02*
X-3716128Y-4419484D01*
X-3716128Y-4419484D02*
X-3697080Y-4429008D01*
X-3697080Y-4429008D02*
X-3687556Y-4438531D01*
X-3687556Y-4438531D02*
X-3678032Y-4457579D01*
X-3678032Y-4457579D02*
X-3668509Y-4495674D01*
X-3668509Y-4495674D02*
X-3668509Y-4543293D01*
X-3668509Y-4543293D02*
X-3678032Y-4581389D01*
X-3678032Y-4581389D02*
X-3687556Y-4600436D01*
X-3687556Y-4600436D02*
X-3697080Y-4609960D01*
X-3697080Y-4609960D02*
X-3716128Y-4619484D01*
X-3716128Y-4619484D02*
X-3735175Y-4619484D01*
X-3735175Y-4619484D02*
X-3754223Y-4609960D01*
X-3754223Y-4609960D02*
X-3763747Y-4600436D01*
X-3763747Y-4600436D02*
X-3773270Y-4581389D01*
X-3773270Y-4581389D02*
X-3782794Y-4543293D01*
X-3782794Y-4543293D02*
X-3782794Y-4495674D01*
X-3782794Y-4495674D02*
X-3773270Y-4457579D01*
X-3773270Y-4457579D02*
X-3763747Y-4438531D01*
X-3763747Y-4438531D02*
X-3754223Y-4429008D01*
X-3754223Y-4429008D02*
X-3735175Y-4419484D01*
X-3497080Y-4419484D02*
X-3535175Y-4419484D01*
X-3535175Y-4419484D02*
X-3554223Y-4429008D01*
X-3554223Y-4429008D02*
X-3563747Y-4438531D01*
X-3563747Y-4438531D02*
X-3582794Y-4467103D01*
X-3582794Y-4467103D02*
X-3592318Y-4505198D01*
X-3592318Y-4505198D02*
X-3592318Y-4581389D01*
X-3592318Y-4581389D02*
X-3582794Y-4600436D01*
X-3582794Y-4600436D02*
X-3573270Y-4609960D01*
X-3573270Y-4609960D02*
X-3554223Y-4619484D01*
X-3554223Y-4619484D02*
X-3516128Y-4619484D01*
X-3516128Y-4619484D02*
X-3497080Y-4609960D01*
X-3497080Y-4609960D02*
X-3487556Y-4600436D01*
X-3487556Y-4600436D02*
X-3478032Y-4581389D01*
X-3478032Y-4581389D02*
X-3478032Y-4533770D01*
X-3478032Y-4533770D02*
X-3487556Y-4514722D01*
X-3487556Y-4514722D02*
X-3497080Y-4505198D01*
X-3497080Y-4505198D02*
X-3516128Y-4495674D01*
X-3516128Y-4495674D02*
X-3554223Y-4495674D01*
X-3554223Y-4495674D02*
X-3573270Y-4505198D01*
X-3573270Y-4505198D02*
X-3582794Y-4514722D01*
X-3582794Y-4514722D02*
X-3592318Y-4533770D01*
X-3411366Y-4419484D02*
X-3287556Y-4419484D01*
X-3287556Y-4419484D02*
X-3354223Y-4495674D01*
X-3354223Y-4495674D02*
X-3325651Y-4495674D01*
X-3325651Y-4495674D02*
X-3306604Y-4505198D01*
X-3306604Y-4505198D02*
X-3297080Y-4514722D01*
X-3297080Y-4514722D02*
X-3287556Y-4533770D01*
X-3287556Y-4533770D02*
X-3287556Y-4581389D01*
X-3287556Y-4581389D02*
X-3297080Y-4600436D01*
X-3297080Y-4600436D02*
X-3306604Y-4609960D01*
X-3306604Y-4609960D02*
X-3325651Y-4619484D01*
X-3325651Y-4619484D02*
X-3382794Y-4619484D01*
X-3382794Y-4619484D02*
X-3401842Y-4609960D01*
X-3401842Y-4609960D02*
X-3411366Y-4600436D01*
X-3211366Y-4419484D02*
X-3211366Y-4457579D01*
X-3135175Y-4419484D02*
X-3135175Y-4457579D01*
X-2839937Y-4695674D02*
X-2849461Y-4686150D01*
X-2849461Y-4686150D02*
X-2868508Y-4657579D01*
X-2868508Y-4657579D02*
X-2878032Y-4638531D01*
X-2878032Y-4638531D02*
X-2887556Y-4609960D01*
X-2887556Y-4609960D02*
X-2897080Y-4562341D01*
X-2897080Y-4562341D02*
X-2897080Y-4524246D01*
X-2897080Y-4524246D02*
X-2887556Y-4476627D01*
X-2887556Y-4476627D02*
X-2878032Y-4448055D01*
X-2878032Y-4448055D02*
X-2868508Y-4429008D01*
X-2868508Y-4429008D02*
X-2849461Y-4400436D01*
X-2849461Y-4400436D02*
X-2839937Y-4390912D01*
X-2773270Y-4438531D02*
X-2763747Y-4429008D01*
X-2763747Y-4429008D02*
X-2744699Y-4419484D01*
X-2744699Y-4419484D02*
X-2697080Y-4419484D01*
X-2697080Y-4419484D02*
X-2678032Y-4429008D01*
X-2678032Y-4429008D02*
X-2668509Y-4438531D01*
X-2668509Y-4438531D02*
X-2658985Y-4457579D01*
X-2658985Y-4457579D02*
X-2658985Y-4476627D01*
X-2658985Y-4476627D02*
X-2668509Y-4505198D01*
X-2668509Y-4505198D02*
X-2782794Y-4619484D01*
X-2782794Y-4619484D02*
X-2658985Y-4619484D01*
X-2420889Y-4619484D02*
X-2420889Y-4419484D01*
X-2335175Y-4619484D02*
X-2335175Y-4514722D01*
X-2335175Y-4514722D02*
X-2344699Y-4495674D01*
X-2344699Y-4495674D02*
X-2363747Y-4486150D01*
X-2363747Y-4486150D02*
X-2392318Y-4486150D01*
X-2392318Y-4486150D02*
X-2411366Y-4495674D01*
X-2411366Y-4495674D02*
X-2420889Y-4505198D01*
X-2211366Y-4619484D02*
X-2230413Y-4609960D01*
X-2230413Y-4609960D02*
X-2239937Y-4600436D01*
X-2239937Y-4600436D02*
X-2249461Y-4581389D01*
X-2249461Y-4581389D02*
X-2249461Y-4524246D01*
X-2249461Y-4524246D02*
X-2239937Y-4505198D01*
X-2239937Y-4505198D02*
X-2230413Y-4495674D01*
X-2230413Y-4495674D02*
X-2211366Y-4486150D01*
X-2211366Y-4486150D02*
X-2182794Y-4486150D01*
X-2182794Y-4486150D02*
X-2163747Y-4495674D01*
X-2163747Y-4495674D02*
X-2154223Y-4505198D01*
X-2154223Y-4505198D02*
X-2144699Y-4524246D01*
X-2144699Y-4524246D02*
X-2144699Y-4581389D01*
X-2144699Y-4581389D02*
X-2154223Y-4600436D01*
X-2154223Y-4600436D02*
X-2163747Y-4609960D01*
X-2163747Y-4609960D02*
X-2182794Y-4619484D01*
X-2182794Y-4619484D02*
X-2211366Y-4619484D01*
X-2030413Y-4619484D02*
X-2049461Y-4609960D01*
X-2049461Y-4609960D02*
X-2058985Y-4590912D01*
X-2058985Y-4590912D02*
X-2058985Y-4419484D01*
X-1878032Y-4609960D02*
X-1897080Y-4619484D01*
X-1897080Y-4619484D02*
X-1935175Y-4619484D01*
X-1935175Y-4619484D02*
X-1954223Y-4609960D01*
X-1954223Y-4609960D02*
X-1963746Y-4590912D01*
X-1963746Y-4590912D02*
X-1963746Y-4514722D01*
X-1963746Y-4514722D02*
X-1954223Y-4495674D01*
X-1954223Y-4495674D02*
X-1935175Y-4486150D01*
X-1935175Y-4486150D02*
X-1897080Y-4486150D01*
X-1897080Y-4486150D02*
X-1878032Y-4495674D01*
X-1878032Y-4495674D02*
X-1868508Y-4514722D01*
X-1868508Y-4514722D02*
X-1868508Y-4533770D01*
X-1868508Y-4533770D02*
X-1963746Y-4552817D01*
X-1792318Y-4609960D02*
X-1773270Y-4619484D01*
X-1773270Y-4619484D02*
X-1735175Y-4619484D01*
X-1735175Y-4619484D02*
X-1716127Y-4609960D01*
X-1716127Y-4609960D02*
X-1706604Y-4590912D01*
X-1706604Y-4590912D02*
X-1706604Y-4581389D01*
X-1706604Y-4581389D02*
X-1716127Y-4562341D01*
X-1716127Y-4562341D02*
X-1735175Y-4552817D01*
X-1735175Y-4552817D02*
X-1763746Y-4552817D01*
X-1763746Y-4552817D02*
X-1782794Y-4543293D01*
X-1782794Y-4543293D02*
X-1792318Y-4524246D01*
X-1792318Y-4524246D02*
X-1792318Y-4514722D01*
X-1792318Y-4514722D02*
X-1782794Y-4495674D01*
X-1782794Y-4495674D02*
X-1763746Y-4486150D01*
X-1763746Y-4486150D02*
X-1735175Y-4486150D01*
X-1735175Y-4486150D02*
X-1716127Y-4495674D01*
X-1639937Y-4695674D02*
X-1630413Y-4686150D01*
X-1630413Y-4686150D02*
X-1611365Y-4657579D01*
X-1611365Y-4657579D02*
X-1601842Y-4638531D01*
X-1601842Y-4638531D02*
X-1592318Y-4609960D01*
X-1592318Y-4609960D02*
X-1582794Y-4562341D01*
X-1582794Y-4562341D02*
X-1582794Y-4524246D01*
X-1582794Y-4524246D02*
X-1592318Y-4476627D01*
X-1592318Y-4476627D02*
X-1601842Y-4448055D01*
X-1601842Y-4448055D02*
X-1611365Y-4429008D01*
X-1611365Y-4429008D02*
X-1630413Y-4400436D01*
X-1630413Y-4400436D02*
X-1639937Y-4390912D01*
M02*
